<svg width="140" height="147" viewBox="0 0 140 147" fill="none" xmlns="http://www.w3.org/2000/svg">
<path d="M127.72 73.5C127.72 108.018 101.416 136 68.9697 136C36.523 136 10.2197 108.018 10.2197 73.5C10.2197 38.9822 36.523 11 68.9697 11C101.416 11 127.72 38.9822 127.72 73.5ZM19.4759 73.5C19.4759 102.579 41.635 126.153 68.9697 126.153C96.3044 126.153 118.464 102.579 118.464 73.5C118.464 44.4205 96.3044 20.847 68.9697 20.847C41.635 20.847 19.4759 44.4205 19.4759 73.5Z" fill="#35395A"/>
<g filter="url(#filter0_d)">
<path d="M123.092 73.5C125.648 73.5 127.737 75.5747 127.559 78.1245C126.768 89.4687 123.078 100.4 116.849 109.719C109.778 120.298 99.7864 128.272 88.261 132.534C76.7356 136.797 64.2486 137.136 52.5338 133.504C40.8191 129.873 30.4578 122.451 22.8888 112.269C15.3198 102.088 10.9185 89.6517 10.2962 76.6877C9.67385 63.7238 12.8613 50.8753 19.4159 39.9264C25.9706 28.9774 35.5672 20.4713 46.8732 15.5891C56.7046 11.3436 67.4044 10.0216 77.8355 11.7157C80.4578 12.1416 82.0478 14.7467 81.4706 17.3399C80.8702 20.037 78.1623 21.6798 75.4259 21.2968C66.9602 20.1118 58.3191 21.2737 50.3546 24.713C40.8298 28.8261 32.7452 35.992 27.2232 45.216C21.7013 54.4399 19.016 65.264 19.5403 76.1855C20.0646 87.107 23.7724 97.5838 30.1489 106.161C36.5255 114.739 45.2542 120.991 55.1233 124.051C64.9924 127.11 75.5121 126.824 85.2217 123.234C94.9312 119.643 103.349 112.925 109.306 104.012C114.42 96.3615 117.502 87.4195 118.272 78.123C118.483 75.5757 120.536 73.5 123.092 73.5Z" fill="#00FFD2"/>
</g>
<defs>
<filter id="filter0_d" x="0.219727" y="0" width="139.35" height="147" filterUnits="userSpaceOnUse" color-interpolation-filters="sRGB">
<feFlood flood-opacity="0" result="BackgroundImageFix"/>
<feColorMatrix in="SourceAlpha" type="matrix" values="0 0 0 0 0 0 0 0 0 0 0 0 0 0 0 0 0 0 127 0"/>
<feMorphology radius="4" operator="dilate" in="SourceAlpha" result="effect1_dropShadow"/>
<feOffset dx="1"/>
<feGaussianBlur stdDeviation="3.5"/>
<feColorMatrix type="matrix" values="0 0 0 0 0 0 0 0 0 1 0 0 0 0 0.823529 0 0 0 0.3 0"/>
<feBlend mode="normal" in2="BackgroundImageFix" result="effect1_dropShadow"/>
<feBlend mode="normal" in="SourceGraphic" in2="effect1_dropShadow" result="shape"/>
</filter>
</defs>
</svg>
