<svg width="324" height="183" viewBox="0 0 324 183" fill="none" xmlns="http://www.w3.org/2000/svg">
<g opacity="0.5">
<rect x="124.224" y="18" width="34.4204" height="17.5719" rx="2" transform="rotate(13.9073 124.224 18)" fill="url(#paint0_linear)"/>
<path d="M138.096 34.6254C138.627 34.6849 139.058 34.6087 139.389 34.397C139.725 34.1816 139.95 33.8482 140.061 33.3968C140.107 33.2124 140.113 33.0438 140.078 32.8911C140.05 32.7347 139.989 32.5881 139.894 32.4513C139.804 32.3157 139.688 32.1892 139.547 32.0719C139.406 31.9546 139.25 31.8385 139.077 31.7237L138.096 34.6254ZM139.535 26.8149C139.255 26.7816 139.01 26.7828 138.801 26.8184C138.592 26.8492 138.413 26.9078 138.263 26.9942C138.112 27.0807 137.99 27.1895 137.896 27.3207C137.806 27.4531 137.742 27.5993 137.702 27.7595C137.657 27.9439 137.648 28.1143 137.676 28.2707C137.71 28.4234 137.769 28.5694 137.853 28.7087C137.944 28.8443 138.055 28.975 138.189 29.1008C138.324 29.2218 138.475 29.3415 138.641 29.46L139.535 26.8149ZM139.632 30.0762C139.955 30.2695 140.273 30.4744 140.585 30.6907C140.898 30.9022 141.165 31.1436 141.387 31.4147C141.613 31.6871 141.773 31.9971 141.867 32.345C141.963 32.6879 141.954 33.0875 141.841 33.5438C141.729 33.9951 141.549 34.4012 141.3 34.7619C141.052 35.1178 140.744 35.4126 140.378 35.6462C140.012 35.875 139.594 36.0342 139.123 36.1238C138.654 36.2085 138.144 36.2006 137.592 36.1L137.239 37.1485C137.207 37.2589 137.133 37.3488 137.018 37.4182C136.907 37.4937 136.783 37.5146 136.647 37.4809L135.985 37.3169L136.502 35.7914C135.953 35.5731 135.457 35.2856 135.015 34.9289C134.573 34.5721 134.22 34.1782 133.956 33.7471L134.713 33.0614C134.779 33.0006 134.857 32.958 134.945 32.9335C135.04 32.9054 135.133 32.9028 135.225 32.9256C135.332 32.9521 135.437 33.0191 135.539 33.1268C135.642 33.2297 135.759 33.3513 135.889 33.4917C136.02 33.6272 136.173 33.7706 136.346 33.9218C136.52 34.073 136.737 34.2065 136.997 34.3223L138.072 31.1348C137.751 30.9524 137.437 30.7536 137.13 30.5384C136.828 30.3245 136.567 30.0771 136.348 29.7962C136.135 29.5117 135.987 29.184 135.904 28.8131C135.82 28.4422 135.84 28.0093 135.963 27.5142C136.054 27.1453 136.216 26.8042 136.448 26.4908C136.681 26.1726 136.973 25.91 137.323 25.703C137.678 25.4973 138.084 25.3557 138.541 25.2783C138.998 25.2009 139.496 25.2161 140.036 25.324L140.343 24.4266C140.382 24.3125 140.456 24.2202 140.566 24.1496C140.676 24.079 140.802 24.0611 140.943 24.096L141.605 24.26L141.135 25.6581C141.629 25.868 142.037 26.126 142.358 26.432C142.68 26.7333 142.944 27.0486 143.151 27.378L142.55 27.9323C142.463 28.0138 142.38 28.0703 142.3 28.102C142.22 28.1338 142.131 28.1376 142.034 28.1136C141.961 28.0955 141.879 28.0521 141.788 27.9831C141.698 27.9094 141.598 27.8253 141.488 27.731C141.378 27.6318 141.252 27.5284 141.108 27.4208C140.97 27.3144 140.811 27.2159 140.633 27.1253L139.632 30.0762Z" fill="white"/>
</g>
<path d="M118.929 94.8081C80.6561 121.684 67.889 154.374 66.7334 167.359H254.132C255.172 166.525 256.142 160.64 251.705 143.771C247.267 126.902 221.429 104.1 209.064 94.8081C209.18 84.801 209.341 64.215 209.064 61.9277C208.787 59.6404 206.406 55.2563 205.251 53.3502C208.255 51.325 214.38 45.1301 208.371 35.8378C202.824 27.2603 191.037 33.6934 188.61 35.8378C168.642 20.6843 147.703 27.9751 139.383 35.8378C136.725 31.9065 125.862 29.3677 121.356 33.6934C113.313 41.4132 118.004 50.9676 121.356 54.7798L118.929 60.1407V94.8081Z" fill="url(#paint1_linear)"/>
<path d="M143.178 72.8957C143.733 70.0366 154.041 59.7912 159.125 55.026C163.562 52.1668 168.37 53.8346 170.219 55.026L184.432 71.1087C185.472 72.8957 187.899 76.2552 186.512 89.6933C184.779 106.491 174.725 108.993 162.938 110.422C135.205 106.491 142.485 76.4697 143.178 72.8957Z" fill="url(#paint2_linear)"/>
<ellipse cx="164.69" cy="86.685" rx="11.0936" ry="10.3645" fill="#212B36"/>
<ellipse cx="140.423" cy="55.5917" rx="3.46673" ry="3.57395" fill="black"/>
<g filter="url(#filter0_d)">
<path fill-rule="evenodd" clip-rule="evenodd" d="M135.569 167.099C135.916 161.738 139.521 149.229 151.17 142.081C159.276 132.331 163.433 130.724 167.81 130.648V130.645C167.868 130.645 167.927 130.645 167.985 130.645C168.042 130.645 168.099 130.645 168.157 130.645V130.647C172.629 130.722 176.875 132.326 185.158 142.081C197.054 149.229 200.737 161.738 201.091 167.099H168.157H167.81H135.569Z" fill="white"/>
</g>
<circle cx="141.51" cy="55.5" r="4.5" fill="#C4C4C4"/>
<path d="M137.01 55H146.01L152.01 69H131.01L137.01 55Z" fill="#C4C4C4"/>
<path d="M152.01 68.5C152.01 74.299 147.309 79 141.51 79C135.711 79 131.01 74.299 131.01 68.5C131.01 62.701 135.711 58 141.51 58C147.309 58 152.01 62.701 152.01 68.5Z" fill="#7B7070"/>
<circle cx="141.51" cy="68.5" r="7.5" fill="black"/>
<path d="M116 86C111.136 90.4873 108 100 99.4542 116.769L113.983 103.731L109.932 131.312C105.28 134.362 82.1499 174.019 65.0002 171.5C43.0486 168.276 71.9998 111 75.5001 105.5C93.5242 77.1784 105.323 76.8122 106.465 69.033C107.379 62.8096 113.711 54.6848 116.763 51.4003C118.814 48.5708 126.981 46.9875 133.5 46.5C140.019 46.0125 140.952 51.4909 140 54L132 63.5C131.643 65.1334 130.5 69.033 129 74C127.143 80.1477 122.08 80.3908 116 86Z" fill="url(#paint3_linear)"/>
<rect x="272.698" y="142.794" width="52.787" height="27.0512" rx="2" transform="rotate(15 272.698 142.794)" fill="url(#paint4_linear)"/>
<path d="M293.374 169.195C294.222 169.306 294.914 169.198 295.449 168.869C295.995 168.535 296.363 168.008 296.556 167.29C296.635 166.996 296.649 166.727 296.599 166.481C296.558 166.23 296.464 165.994 296.317 165.772C296.177 165.552 295.996 165.347 295.774 165.155C295.552 164.963 295.305 164.772 295.033 164.583L293.374 169.195ZM295.915 156.745C295.468 156.683 295.076 156.677 294.74 156.728C294.405 156.771 294.117 156.859 293.874 156.993C293.631 157.126 293.432 157.297 293.277 157.504C293.13 157.713 293.022 157.945 292.954 158.2C292.875 158.493 292.856 158.766 292.896 159.017C292.947 159.262 293.037 159.497 293.167 159.723C293.307 159.942 293.482 160.155 293.692 160.36C293.904 160.558 294.141 160.754 294.404 160.949L295.915 156.745ZM295.97 161.965C296.481 162.284 296.983 162.621 297.476 162.977C297.97 163.325 298.391 163.719 298.736 164.159C299.09 164.602 299.337 165.103 299.477 165.662C299.619 166.214 299.593 166.853 299.398 167.579C299.205 168.298 298.904 168.942 298.495 169.511C298.088 170.073 297.587 170.535 296.993 170.898C296.401 171.253 295.727 171.495 294.972 171.624C294.219 171.745 293.403 171.716 292.523 171.539L291.927 173.205C291.872 173.381 291.751 173.523 291.565 173.63C291.384 173.747 291.186 173.777 290.97 173.719L289.915 173.436L290.788 171.012C289.917 170.646 289.133 170.171 288.437 169.587C287.74 169.002 287.187 168.361 286.778 167.664L288.01 166.59C288.118 166.495 288.243 166.429 288.386 166.393C288.538 166.35 288.687 166.349 288.834 166.388C289.004 166.434 289.169 166.544 289.329 166.72C289.491 166.888 289.674 167.086 289.878 167.314C290.084 167.535 290.324 167.769 290.597 168.016C290.87 168.263 291.213 168.484 291.625 168.677L293.442 163.61C292.935 163.309 292.439 162.981 291.954 162.628C291.476 162.276 291.067 161.872 290.725 161.417C290.394 160.955 290.167 160.426 290.045 159.83C289.923 159.234 289.967 158.542 290.179 157.754C290.336 157.167 290.605 156.626 290.986 156.132C291.369 155.63 291.844 155.219 292.41 154.898C292.984 154.58 293.637 154.366 294.371 154.256C295.104 154.146 295.901 154.186 296.762 154.375L297.28 152.949C297.346 152.767 297.467 152.622 297.646 152.512C297.824 152.403 298.025 152.378 298.25 152.438L299.304 152.721L298.51 154.943C299.294 155.294 299.938 155.719 300.442 156.218C300.948 156.71 301.361 157.222 301.682 157.756L300.704 158.624C300.562 158.752 300.427 158.84 300.298 158.888C300.169 158.936 300.027 158.94 299.873 158.898C299.757 158.867 299.627 158.795 299.484 158.682C299.342 158.561 299.184 158.424 299.01 158.27C298.838 158.108 298.639 157.938 298.413 157.762C298.195 157.587 297.944 157.425 297.662 157.275L295.97 161.965Z" fill="white"/>
<rect y="94.3536" width="53.7843" height="27.0512" rx="2" transform="rotate(-21.0902 0 94.3536)" fill="url(#paint5_linear)"/>
<path d="M32.7217 103.33C33.4726 102.921 33.9676 102.425 34.2066 101.845C34.4501 101.253 34.438 100.611 34.1703 99.9164C34.0609 99.6328 33.9137 99.4066 33.7286 99.2379C33.5481 99.0589 33.3328 98.9233 33.0829 98.831C32.8404 98.7359 32.573 98.6761 32.2806 98.6517C31.9883 98.6273 31.6764 98.6189 31.345 98.6267L32.7217 103.33ZM27.441 91.7723C27.0432 91.9858 26.7232 92.2121 26.481 92.4513C26.236 92.683 26.0547 92.9244 25.9372 93.1755C25.8197 93.4266 25.7593 93.6814 25.7561 93.9398C25.7603 94.1954 25.81 94.4464 25.905 94.6927C26.0144 94.9763 26.1593 95.2077 26.3398 95.3867C26.5249 95.5554 26.7364 95.6925 26.9743 95.7979C27.2168 95.8931 27.4833 95.9617 27.774 96.004C28.0618 96.0387 28.3691 96.0574 28.6959 96.06L27.441 91.7723ZM30.5602 95.9583C31.161 95.9153 31.7652 95.8923 32.3729 95.8895C32.9777 95.8791 33.5495 95.9501 34.0884 96.1024C34.6348 96.2518 35.1293 96.5113 35.5719 96.8808C36.0116 97.2428 36.3667 97.7746 36.6373 98.4762C36.9051 99.1704 37.0412 99.8681 37.0459 100.569C37.0477 101.263 36.9153 101.932 36.6489 102.575C36.3795 103.21 35.9777 103.802 35.4435 104.351C34.9063 104.893 34.2299 105.351 33.414 105.726L33.9144 107.423C33.9732 107.598 33.959 107.783 33.8719 107.98C33.7951 108.181 33.6522 108.322 33.4432 108.402L32.4244 108.795L31.7018 106.322C30.7825 106.539 29.8693 106.617 28.9623 106.555C28.0553 106.493 27.2309 106.301 26.4891 105.978L26.8521 104.385C26.8836 104.244 26.9461 104.117 27.0396 104.004C27.1377 103.881 27.2576 103.791 27.3995 103.737C27.5637 103.673 27.7621 103.665 27.9948 103.713C28.2246 103.753 28.4891 103.805 28.7884 103.87C29.0848 103.927 29.4163 103.975 29.7828 104.014C30.1492 104.052 30.5559 104.028 31.0027 103.942L29.4867 98.7775C28.8992 98.8326 28.3053 98.8601 27.7051 98.8601C27.1124 98.8572 26.5437 98.7721 25.999 98.6049C25.459 98.4273 24.9642 98.1337 24.5146 97.724C24.0651 97.3144 23.6935 96.7288 23.3999 95.9675C23.1811 95.4002 23.0801 94.8047 23.0967 94.1809C23.1105 93.5497 23.2518 92.9379 23.5206 92.3454C23.7969 91.7501 24.199 91.1921 24.727 90.6712C25.2549 90.1503 25.9222 89.7129 26.7289 89.3589L26.308 87.9007C26.2538 87.7158 26.2666 87.5266 26.3462 87.3329C26.4259 87.1393 26.5739 87.0007 26.7904 86.9172L27.8092 86.5243L28.4764 88.7878C29.3166 88.6096 30.0873 88.5738 30.7887 88.6806C31.4873 88.7799 32.1232 88.9505 32.6967 89.1923L32.4179 90.4703C32.3784 90.657 32.3208 90.8078 32.2451 90.9227C32.1694 91.0377 32.0569 91.1239 31.9076 91.1815C31.7956 91.2247 31.6483 91.2429 31.4657 91.2362C31.2802 91.222 31.0716 91.2038 30.8401 91.1816C30.6058 91.152 30.3453 91.1324 30.0587 91.1229C29.7795 91.1105 29.4814 91.1269 29.1644 91.172L30.5602 95.9583Z" fill="white"/>
<g opacity="0.65">
<rect x="256.771" y="0.287964" width="34.4204" height="17.5719" rx="2" transform="rotate(15 256.771 0.287964)" fill="url(#paint6_linear)"/>
<path d="M270.324 17.1749C270.854 17.2445 271.287 17.1766 271.621 16.9712C271.962 16.7622 272.193 16.4332 272.313 15.984C272.362 15.8005 272.371 15.6321 272.34 15.4787C272.314 15.3218 272.256 15.1741 272.163 15.0355C272.076 14.8982 271.963 14.7695 271.824 14.6495C271.685 14.5296 271.531 14.4105 271.361 14.2925L270.324 17.1749ZM271.913 9.39333C271.633 9.35467 271.388 9.35116 271.178 9.38279C270.969 9.4096 270.788 9.46478 270.636 9.54834C270.485 9.63189 270.36 9.73835 270.264 9.86771C270.172 9.99837 270.104 10.1434 270.062 10.3028C270.012 10.4863 270 10.6565 270.026 10.8134C270.057 10.9667 270.113 11.1138 270.195 11.2547C270.282 11.392 270.392 11.5248 270.523 11.6531C270.655 11.7767 270.804 11.8992 270.968 12.0208L271.913 9.39333ZM271.947 12.6559C272.266 12.8553 272.58 13.0661 272.888 13.2884C273.197 13.5059 273.46 13.7523 273.676 14.0276C273.897 14.3042 274.051 14.6173 274.138 14.9668C274.227 15.3116 274.211 15.7109 274.089 16.1649C273.969 16.6141 273.781 17.0166 273.525 17.3725C273.27 17.7236 272.957 18.0124 272.586 18.2391C272.216 18.4609 271.795 18.612 271.323 18.6926C270.852 18.7684 270.342 18.7507 269.792 18.6396L269.42 19.6812C269.385 19.791 269.31 19.8795 269.193 19.9467C269.081 20.02 268.957 20.0385 268.821 20.0023L268.162 19.8256L268.708 18.3103C268.164 18.0816 267.674 17.7847 267.238 17.4196C266.803 17.0545 266.457 16.6539 266.202 16.2178L266.972 15.5467C267.039 15.4872 267.118 15.4461 267.207 15.4233C267.302 15.397 267.395 15.3961 267.487 15.4207C267.593 15.4492 267.696 15.5182 267.796 15.6279C267.897 15.7327 268.012 15.8565 268.139 15.9993C268.268 16.1373 268.418 16.2836 268.588 16.438C268.759 16.5925 268.973 16.7301 269.231 16.8509L270.367 13.6845C270.05 13.496 269.74 13.2913 269.437 13.0703C269.138 12.8506 268.882 12.5983 268.669 12.3133C268.461 12.0248 268.32 11.6943 268.243 11.3219C268.167 10.9495 268.195 10.517 268.327 10.0243C268.425 9.65729 268.594 9.31931 268.832 9.0104C269.071 8.69666 269.368 8.43967 269.722 8.23944C270.08 8.0405 270.489 7.90669 270.947 7.83799C271.406 7.76929 271.904 7.79404 272.441 7.91224L272.766 7.0208C272.806 6.90747 272.882 6.81658 272.994 6.74811C273.106 6.67964 273.231 6.66417 273.371 6.7017L274.031 6.87834L273.534 8.26719C274.024 8.48647 274.427 8.75219 274.742 9.06433C275.058 9.37165 275.316 9.69195 275.517 10.0252L274.905 10.568C274.817 10.6478 274.732 10.7027 274.652 10.7329C274.571 10.7631 274.483 10.7652 274.386 10.7394C274.313 10.72 274.232 10.6749 274.143 10.6043C274.054 10.5288 273.956 10.4429 273.847 10.3464C273.739 10.2452 273.615 10.1394 273.474 10.0291C273.337 9.92003 273.181 9.81855 273.004 9.72461L271.947 12.6559Z" fill="white"/>
</g>
<circle cx="213.278" cy="166.5" r="5.5" fill="white"/>
<circle cx="203.5" cy="166.5" r="5.5" fill="white"/>
<circle cx="223.056" cy="166.5" r="5.5" fill="white"/>
<circle cx="232.833" cy="166.5" r="5.5" fill="white"/>
<circle cx="242.611" cy="166.5" r="5.5" fill="white"/>
<path d="M186 57L192 55M186 57L192 57.5M186 57L191 60.5" stroke="black" stroke-linecap="round" stroke-linejoin="round"/>
<defs>
<filter id="filter0_d" x="128.569" y="120.645" width="77.5213" height="48.4543" filterUnits="userSpaceOnUse" color-interpolation-filters="sRGB">
<feFlood flood-opacity="0" result="BackgroundImageFix"/>
<feColorMatrix in="SourceAlpha" type="matrix" values="0 0 0 0 0 0 0 0 0 0 0 0 0 0 0 0 0 0 127 0"/>
<feOffset dx="-1" dy="-4"/>
<feGaussianBlur stdDeviation="3"/>
<feColorMatrix type="matrix" values="0 0 0 0 0.7625 0 0 0 0 0.7625 0 0 0 0 0.7625 0 0 0 0.25 0"/>
<feBlend mode="normal" in2="BackgroundImageFix" result="effect1_dropShadow"/>
<feBlend mode="normal" in="SourceGraphic" in2="effect1_dropShadow" result="shape"/>
</filter>
<linearGradient id="paint0_linear" x1="124.224" y1="26.7859" x2="158.644" y2="26.7859" gradientUnits="userSpaceOnUse">
<stop stop-color="#00FF6E"/>
<stop offset="1" stop-color="#00FFD5"/>
</linearGradient>
<linearGradient id="paint1_linear" x1="161.316" y1="27" x2="161.316" y2="167.359" gradientUnits="userSpaceOnUse">
<stop stop-color="#FEFEFE"/>
<stop offset="1" stop-color="#EAEEF0"/>
</linearGradient>
<linearGradient id="paint2_linear" x1="164.369" y1="53.4473" x2="164.369" y2="110.422" gradientUnits="userSpaceOnUse">
<stop stop-color="#C4CDD5"/>
<stop offset="1" stop-color="#F1F3F5"/>
</linearGradient>
<linearGradient id="paint3_linear" x1="105" y1="109" x2="136" y2="49.5" gradientUnits="userSpaceOnUse">
<stop stop-color="#F2F4F6"/>
<stop offset="1" stop-color="#EFEFEF"/>
</linearGradient>
<linearGradient id="paint4_linear" x1="272.698" y1="156.32" x2="325.485" y2="156.32" gradientUnits="userSpaceOnUse">
<stop stop-color="#00FF6E"/>
<stop offset="1" stop-color="#00FFD5"/>
</linearGradient>
<linearGradient id="paint5_linear" x1="-2.00362e-07" y1="107.879" x2="53.7843" y2="107.879" gradientUnits="userSpaceOnUse">
<stop stop-color="#00FF6E"/>
<stop offset="1" stop-color="#00FFD5"/>
</linearGradient>
<linearGradient id="paint6_linear" x1="256.771" y1="9.07391" x2="291.192" y2="9.07391" gradientUnits="userSpaceOnUse">
<stop stop-color="#00FF6E"/>
<stop offset="1" stop-color="#00FFD5"/>
</linearGradient>
</defs>
</svg>
