<svg width="24" height="24" viewBox="0 0 24 24" fill="none" xmlns="http://www.w3.org/2000/svg">
<path fill-rule="evenodd" clip-rule="evenodd" d="M4.9998 10.9998H16.5858L13.2928 7.70685C13.2 7.614 13.1263 7.50378 13.0761 7.38247C13.0258 7.26117 12.9999 7.13115 12.9999 6.99985C12.9999 6.86855 13.0258 6.73853 13.0761 6.61722C13.1263 6.49592 13.2 6.38569 13.2928 6.29285C13.3856 6.2 13.4959 6.12636 13.6172 6.07611C13.7385 6.02586 13.8685 6 13.9998 6C14.1311 6 14.2611 6.02586 14.3824 6.07611C14.5037 6.12636 14.614 6.2 14.7068 6.29285L19.7068 11.2928C19.7997 11.3856 19.8735 11.4958 19.9238 11.6172C19.9741 11.7385 20 11.8685 20 11.9998C20 12.1312 19.9741 12.2612 19.9238 12.3825C19.8735 12.5039 19.7997 12.6141 19.7068 12.7068L14.7068 17.7068C14.6141 17.8 14.504 17.874 14.3827 17.9244C14.2613 17.9749 14.1312 18.0009 13.9998 18.0009C13.8684 18.0009 13.7383 17.9749 13.6169 17.9244C13.4956 17.874 13.3855 17.8 13.2928 17.7068C13.1999 17.6141 13.1261 17.5039 13.0758 17.3825C13.0255 17.2612 12.9996 17.1312 12.9996 16.9998C12.9996 16.8685 13.0255 16.7385 13.0758 16.6172C13.1261 16.4958 13.1999 16.3856 13.2928 16.2928L16.5858 12.9998H4.9998C4.73458 12.9998 4.48023 12.8945 4.29269 12.707C4.10515 12.5194 3.9998 12.2651 3.9998 11.9998C3.9998 11.7346 4.10515 11.4803 4.29269 11.2927C4.48023 11.1052 4.73458 10.9998 4.9998 10.9998Z" fill="#BCC1DD"/>
</svg>
