<svg width="24" height="24" viewBox="0 0 24 24" fill="none" xmlns="http://www.w3.org/2000/svg">
<path d="M11.7335 13.7736L11.7985 15.2163C11.7985 16.1953 11.5429 16.9638 11.0316 17.522H18.935V21H5.039V17.522H6.3779C6.87187 17.3932 7.13185 16.951 7.15785 16.1953L7.17085 15.5125L7.10585 13.7736H5V10.4115H7.00186L6.92386 7.61627C6.92386 5.85582 7.45249 4.48181 8.50975 3.49424C9.57567 2.49808 11.0142 2 12.8254 2C14.7666 2 16.2789 2.49379 17.3621 3.48136C18.454 4.46893 19 5.80859 19 7.50034H14.7103C14.7103 6.15209 14.121 5.47797 12.9424 5.47797C12.5005 5.47797 12.1452 5.65401 11.8765 6.0061C11.6079 6.3496 11.4735 6.88633 11.4735 7.61627L11.5905 10.4115H15.5812V13.7736H11.7335Z" fill="#5D6CC5"/>
</svg>
