<svg width="94" height="26" viewBox="0 0 94 26" fill="none" xmlns="http://www.w3.org/2000/svg">
<rect width="94" height="26" rx="5" fill="url(#paint0_linear)"/>
<path d="M30.5351 9.294V18H28.7231V14.25H24.8891V18H23.0771V9.294H24.8891V12.99H28.7231V9.294H30.5351ZM33.7523 11.814V18H32.0963V11.814H33.7523ZM33.9503 10.056C33.9503 10.196 33.9223 10.326 33.8663 10.446C33.8103 10.566 33.7343 10.672 33.6383 10.764C33.5463 10.856 33.4363 10.928 33.3083 10.98C33.1843 11.032 33.0503 11.058 32.9063 11.058C32.7703 11.058 32.6403 11.032 32.5163 10.98C32.3963 10.928 32.2903 10.856 32.1983 10.764C32.1063 10.672 32.0323 10.566 31.9763 10.446C31.9243 10.326 31.8983 10.196 31.8983 10.056C31.8983 9.916 31.9243 9.786 31.9763 9.666C32.0323 9.542 32.1063 9.434 32.1983 9.342C32.2903 9.25 32.3963 9.178 32.5163 9.126C32.6403 9.074 32.7703 9.048 32.9063 9.048C33.0503 9.048 33.1843 9.074 33.3083 9.126C33.4363 9.178 33.5463 9.25 33.6383 9.342C33.7343 9.434 33.8103 9.542 33.8663 9.666C33.9223 9.786 33.9503 9.916 33.9503 10.056ZM37.4695 14.676C37.8095 14.676 38.0595 14.59 38.2195 14.418C38.3835 14.246 38.4655 14.024 38.4655 13.752C38.4655 13.468 38.3835 13.246 38.2195 13.086C38.0595 12.922 37.8095 12.84 37.4695 12.84C37.1295 12.84 36.8795 12.922 36.7195 13.086C36.5595 13.246 36.4795 13.468 36.4795 13.752C36.4795 14.02 36.5595 14.242 36.7195 14.418C36.8835 14.59 37.1335 14.676 37.4695 14.676ZM39.0355 18.252C39.0355 18.144 39.0015 18.056 38.9335 17.988C38.8655 17.92 38.7735 17.866 38.6575 17.826C38.5455 17.786 38.4115 17.758 38.2555 17.742C38.0995 17.722 37.9335 17.708 37.7575 17.7C37.5815 17.688 37.3995 17.678 37.2115 17.67C37.0235 17.662 36.8395 17.648 36.6595 17.628C36.5195 17.712 36.4035 17.812 36.3115 17.928C36.2235 18.04 36.1795 18.168 36.1795 18.312C36.1795 18.412 36.2015 18.504 36.2455 18.588C36.2935 18.672 36.3715 18.744 36.4795 18.804C36.5875 18.864 36.7295 18.91 36.9055 18.942C37.0815 18.978 37.3015 18.996 37.5655 18.996C37.8375 18.996 38.0675 18.978 38.2555 18.942C38.4435 18.906 38.5955 18.854 38.7115 18.786C38.8275 18.722 38.9095 18.644 38.9575 18.552C39.0095 18.46 39.0355 18.36 39.0355 18.252ZM40.6795 12.018V12.624C40.6795 12.72 40.6515 12.796 40.5955 12.852C40.5435 12.908 40.4555 12.95 40.3315 12.978L39.8275 13.08C39.8955 13.276 39.9295 13.486 39.9295 13.71C39.9295 14.018 39.8655 14.296 39.7375 14.544C39.6135 14.788 39.4415 14.998 39.2215 15.174C39.0015 15.346 38.7415 15.48 38.4415 15.576C38.1415 15.668 37.8175 15.714 37.4695 15.714C37.2495 15.714 37.0435 15.696 36.8515 15.66C36.6835 15.764 36.5995 15.878 36.5995 16.002C36.5995 16.118 36.6555 16.202 36.7675 16.254C36.8835 16.306 37.0335 16.344 37.2175 16.368C37.4055 16.388 37.6175 16.402 37.8535 16.41C38.0935 16.414 38.3355 16.426 38.5795 16.446C38.8275 16.466 39.0695 16.502 39.3055 16.554C39.5455 16.602 39.7575 16.684 39.9415 16.8C40.1295 16.912 40.2795 17.062 40.3915 17.25C40.5075 17.438 40.5655 17.68 40.5655 17.976C40.5655 18.252 40.4975 18.52 40.3615 18.78C40.2255 19.04 40.0275 19.272 39.7675 19.476C39.5115 19.68 39.1955 19.844 38.8195 19.968C38.4435 20.092 38.0155 20.154 37.5355 20.154C37.0595 20.154 36.6455 20.108 36.2935 20.016C35.9455 19.928 35.6555 19.808 35.4235 19.656C35.1955 19.508 35.0255 19.336 34.9135 19.14C34.8015 18.944 34.7455 18.74 34.7455 18.528C34.7455 18.252 34.8295 18.018 34.9975 17.826C35.1655 17.634 35.3975 17.48 35.6935 17.364C35.5375 17.276 35.4115 17.162 35.3155 17.022C35.2235 16.878 35.1775 16.692 35.1775 16.464C35.1775 16.28 35.2435 16.086 35.3755 15.882C35.5115 15.678 35.7195 15.508 35.9995 15.372C35.6835 15.204 35.4335 14.98 35.2495 14.7C35.0655 14.416 34.9735 14.086 34.9735 13.71C34.9735 13.402 35.0355 13.124 35.1595 12.876C35.2875 12.628 35.4635 12.418 35.6875 12.246C35.9115 12.07 36.1755 11.936 36.4795 11.844C36.7835 11.752 37.1135 11.706 37.4695 11.706C37.9975 11.706 38.4635 11.81 38.8675 12.018H40.6795ZM43.1965 12.42C43.3125 12.316 43.4325 12.222 43.5565 12.138C43.6845 12.05 43.8185 11.976 43.9585 11.916C44.1025 11.852 44.2545 11.804 44.4145 11.772C44.5785 11.736 44.7545 11.718 44.9425 11.718C45.2785 11.718 45.5765 11.776 45.8365 11.892C46.0965 12.008 46.3145 12.17 46.4905 12.378C46.6705 12.586 46.8045 12.834 46.8925 13.122C46.9845 13.41 47.0305 13.726 47.0305 14.07V18H45.3805V14.07C45.3805 13.726 45.3005 13.46 45.1405 13.272C44.9805 13.08 44.7445 12.984 44.4325 12.984C44.2005 12.984 43.9825 13.034 43.7785 13.134C43.5745 13.234 43.3805 13.374 43.1965 13.554V18H41.5405V9.054H43.1965V12.42ZM56.1407 10.962C56.0847 11.054 56.0267 11.122 55.9667 11.166C55.9107 11.206 55.8367 11.226 55.7447 11.226C55.6567 11.226 55.5607 11.196 55.4567 11.136C55.3567 11.072 55.2387 11.004 55.1027 10.932C54.9667 10.86 54.8107 10.794 54.6347 10.734C54.4587 10.67 54.2527 10.638 54.0167 10.638C53.6007 10.638 53.2887 10.732 53.0807 10.92C52.8727 11.104 52.7687 11.346 52.7687 11.646C52.7687 11.838 52.8247 11.998 52.9367 12.126C53.0527 12.25 53.2027 12.358 53.3867 12.45C53.5747 12.542 53.7867 12.624 54.0227 12.696C54.2587 12.768 54.5007 12.848 54.7487 12.936C54.9967 13.02 55.2387 13.12 55.4747 13.236C55.7107 13.352 55.9207 13.498 56.1047 13.674C56.2927 13.85 56.4427 14.066 56.5547 14.322C56.6707 14.574 56.7287 14.882 56.7287 15.246C56.7287 15.642 56.6587 16.014 56.5187 16.362C56.3827 16.706 56.1847 17.008 55.9247 17.268C55.6647 17.524 55.3427 17.726 54.9587 17.874C54.5787 18.022 54.1467 18.096 53.6627 18.096C53.3867 18.096 53.1107 18.068 52.8347 18.012C52.5627 17.956 52.2987 17.878 52.0427 17.778C51.7907 17.678 51.5527 17.558 51.3287 17.418C51.1047 17.278 50.9087 17.122 50.7407 16.95L51.2687 16.098C51.3127 16.034 51.3707 15.982 51.4427 15.942C51.5147 15.898 51.5907 15.876 51.6707 15.876C51.7787 15.876 51.8927 15.916 52.0127 15.996C52.1327 16.076 52.2707 16.164 52.4267 16.26C52.5827 16.356 52.7627 16.444 52.9667 16.524C53.1747 16.604 53.4227 16.644 53.7107 16.644C54.1307 16.644 54.4547 16.548 54.6827 16.356C54.9147 16.164 55.0307 15.878 55.0307 15.498C55.0307 15.278 54.9727 15.1 54.8567 14.964C54.7447 14.828 54.5967 14.714 54.4127 14.622C54.2287 14.53 54.0187 14.452 53.7827 14.388C53.5467 14.32 53.3047 14.246 53.0567 14.166C52.8087 14.086 52.5667 13.99 52.3307 13.878C52.0947 13.766 51.8847 13.618 51.7007 13.434C51.5167 13.25 51.3667 13.022 51.2507 12.75C51.1387 12.478 51.0827 12.14 51.0827 11.736C51.0827 11.412 51.1467 11.098 51.2747 10.794C51.4027 10.49 51.5907 10.22 51.8387 9.984C52.0867 9.748 52.3907 9.558 52.7507 9.414C53.1147 9.27 53.5307 9.198 53.9987 9.198C54.5227 9.198 55.0067 9.28 55.4507 9.444C55.8987 9.604 56.2767 9.828 56.5847 10.116L56.1407 10.962ZM60.9581 15.414C60.5541 15.434 60.2181 15.47 59.9501 15.522C59.6821 15.57 59.4681 15.634 59.3081 15.714C59.1521 15.794 59.0401 15.886 58.9721 15.99C58.9081 16.09 58.8761 16.2 58.8761 16.32C58.8761 16.56 58.9421 16.73 59.0741 16.83C59.2101 16.93 59.3981 16.98 59.6381 16.98C59.9141 16.98 60.1521 16.932 60.3521 16.836C60.5561 16.736 60.7581 16.582 60.9581 16.374V15.414ZM57.5861 12.672C57.9501 12.344 58.3521 12.1 58.7921 11.94C59.2321 11.776 59.7081 11.694 60.2201 11.694C60.5881 11.694 60.9161 11.754 61.2041 11.874C61.4961 11.994 61.7421 12.162 61.9421 12.378C62.1461 12.59 62.3021 12.844 62.4101 13.14C62.5181 13.436 62.5721 13.76 62.5721 14.112V18H61.8161C61.6601 18 61.5401 17.978 61.4561 17.934C61.3761 17.89 61.3101 17.798 61.2581 17.658L61.1261 17.262C60.9701 17.398 60.8181 17.518 60.6701 17.622C60.5261 17.726 60.3761 17.814 60.2201 17.886C60.0641 17.954 59.8961 18.006 59.7161 18.042C59.5401 18.078 59.3421 18.096 59.1221 18.096C58.8501 18.096 58.6021 18.06 58.3781 17.988C58.1541 17.916 57.9601 17.81 57.7961 17.67C57.6361 17.526 57.5121 17.348 57.4241 17.136C57.3361 16.924 57.2921 16.68 57.2921 16.404C57.2921 16.176 57.3501 15.948 57.4661 15.72C57.5821 15.492 57.7801 15.286 58.0601 15.102C58.3441 14.914 58.7201 14.76 59.1881 14.64C59.6601 14.516 60.2501 14.446 60.9581 14.43V14.112C60.9581 13.724 60.8761 13.44 60.7121 13.26C60.5481 13.076 60.3121 12.984 60.0041 12.984C59.7761 12.984 59.5861 13.012 59.4341 13.068C59.2821 13.12 59.1481 13.178 59.0321 13.242C58.9201 13.302 58.8141 13.36 58.7141 13.416C58.6141 13.468 58.4981 13.494 58.3661 13.494C58.2501 13.494 58.1521 13.466 58.0721 13.41C57.9961 13.35 57.9321 13.28 57.8801 13.2L57.5861 12.672ZM65.5327 9.054V18H63.8767V9.054H65.5327ZM70.1456 15.414C69.7416 15.434 69.4056 15.47 69.1376 15.522C68.8696 15.57 68.6556 15.634 68.4956 15.714C68.3396 15.794 68.2276 15.886 68.1596 15.99C68.0956 16.09 68.0636 16.2 68.0636 16.32C68.0636 16.56 68.1296 16.73 68.2616 16.83C68.3976 16.93 68.5856 16.98 68.8256 16.98C69.1016 16.98 69.3396 16.932 69.5396 16.836C69.7436 16.736 69.9456 16.582 70.1456 16.374V15.414ZM66.7736 12.672C67.1376 12.344 67.5396 12.1 67.9796 11.94C68.4196 11.776 68.8956 11.694 69.4076 11.694C69.7756 11.694 70.1036 11.754 70.3916 11.874C70.6836 11.994 70.9296 12.162 71.1296 12.378C71.3336 12.59 71.4896 12.844 71.5976 13.14C71.7056 13.436 71.7596 13.76 71.7596 14.112V18H71.0036C70.8476 18 70.7276 17.978 70.6436 17.934C70.5636 17.89 70.4976 17.798 70.4456 17.658L70.3136 17.262C70.1576 17.398 70.0056 17.518 69.8576 17.622C69.7136 17.726 69.5636 17.814 69.4076 17.886C69.2516 17.954 69.0836 18.006 68.9036 18.042C68.7276 18.078 68.5296 18.096 68.3096 18.096C68.0376 18.096 67.7896 18.06 67.5656 17.988C67.3416 17.916 67.1476 17.81 66.9836 17.67C66.8236 17.526 66.6996 17.348 66.6116 17.136C66.5236 16.924 66.4796 16.68 66.4796 16.404C66.4796 16.176 66.5376 15.948 66.6536 15.72C66.7696 15.492 66.9676 15.286 67.2476 15.102C67.5316 14.914 67.9076 14.76 68.3756 14.64C68.8476 14.516 69.4376 14.446 70.1456 14.43V14.112C70.1456 13.724 70.0636 13.44 69.8996 13.26C69.7356 13.076 69.4996 12.984 69.1916 12.984C68.9636 12.984 68.7736 13.012 68.6216 13.068C68.4696 13.12 68.3356 13.178 68.2196 13.242C68.1076 13.302 68.0016 13.36 67.9016 13.416C67.8016 13.468 67.6856 13.494 67.5536 13.494C67.4376 13.494 67.3396 13.466 67.2596 13.41C67.1836 13.35 67.1196 13.28 67.0676 13.2L66.7736 12.672ZM74.6062 12.834C74.8022 12.482 75.0282 12.204 75.2842 12C75.5402 11.796 75.8402 11.694 76.1842 11.694C76.4642 11.694 76.6922 11.76 76.8682 11.892L76.7602 13.116C76.7402 13.196 76.7082 13.252 76.6642 13.284C76.6242 13.312 76.5682 13.326 76.4962 13.326C76.4322 13.326 76.3402 13.318 76.2202 13.302C76.1002 13.282 75.9882 13.272 75.8842 13.272C75.7322 13.272 75.5962 13.294 75.4762 13.338C75.3602 13.382 75.2562 13.444 75.1642 13.524C75.0722 13.604 74.9882 13.702 74.9122 13.818C74.8402 13.934 74.7722 14.066 74.7082 14.214V18H73.0522V11.814H74.0302C74.1982 11.814 74.3142 11.844 74.3782 11.904C74.4422 11.964 74.4882 12.068 74.5162 12.216L74.6062 12.834ZM83.3116 11.814L79.9756 19.662C79.9236 19.774 79.8596 19.858 79.7836 19.914C79.7116 19.97 79.5956 19.998 79.4356 19.998H78.2056L79.3756 17.502L76.8916 11.814H78.3436C78.4756 11.814 78.5776 11.844 78.6496 11.904C78.7216 11.964 78.7736 12.034 78.8056 12.114L79.9816 15.072C80.0256 15.188 80.0636 15.306 80.0956 15.426C80.1316 15.542 80.1656 15.658 80.1976 15.774C80.2696 15.538 80.3516 15.302 80.4436 15.066L81.5356 12.114C81.5676 12.026 81.6256 11.954 81.7096 11.898C81.7936 11.842 81.8856 11.814 81.9856 11.814H83.3116Z" fill="white"/>
<path d="M14.6416 15.3613C14.6416 15.0013 14.5527 14.7188 14.375 14.5137C14.1973 14.3086 13.8851 14.1149 13.4385 13.9326C12.9919 13.7503 12.5794 13.5658 12.2012 13.3789C11.8229 13.1921 11.4971 12.9756 11.2236 12.7295C10.9502 12.4834 10.7406 12.1986 10.5947 11.875C10.4489 11.5514 10.376 11.1595 10.376 10.6992C10.376 9.92904 10.6357 9.29557 11.1553 8.79883C11.6748 8.29753 12.3675 8.00586 13.2334 7.92383V6.48145H14.3203V7.95117C15.1543 8.07422 15.8083 8.41829 16.2822 8.9834C16.7607 9.54395 17 10.2572 17 11.123H14.6895C14.6895 10.6491 14.5983 10.2845 14.416 10.0293C14.2337 9.77409 13.974 9.64648 13.6367 9.64648C13.3359 9.64648 13.1012 9.74219 12.9326 9.93359C12.7686 10.1204 12.6865 10.3802 12.6865 10.7129C12.6865 11.0501 12.7822 11.319 12.9736 11.5195C13.165 11.7155 13.4727 11.9046 13.8965 12.0869C14.3203 12.2646 14.7191 12.4515 15.0928 12.6475C15.471 12.8389 15.7969 13.0576 16.0703 13.3037C16.3438 13.5498 16.5579 13.8369 16.7129 14.165C16.8678 14.4932 16.9453 14.8874 16.9453 15.3477C16.9453 16.127 16.6969 16.7627 16.2002 17.2549C15.708 17.7471 15.0358 18.0342 14.1836 18.1162V19.4902H13.0967V18.1094C12.1032 18.0046 11.3398 17.665 10.8066 17.0908C10.278 16.512 10.0137 15.751 10.0137 14.8076H12.3174C12.3174 15.3271 12.4313 15.7236 12.6592 15.9971C12.8916 16.266 13.2197 16.4004 13.6436 16.4004C13.9535 16.4004 14.1973 16.3092 14.375 16.127C14.5527 15.9401 14.6416 15.6849 14.6416 15.3613Z" fill="white"/>
<defs>
<linearGradient id="paint0_linear" x1="0" y1="0" x2="94" y2="26" gradientUnits="userSpaceOnUse">
<stop stop-color="#00FF66"/>
<stop offset="1" stop-color="#00FFE0"/>
</linearGradient>
</defs>
</svg>
