<svg width="114" height="26" viewBox="0 0 114 26" fill="none" xmlns="http://www.w3.org/2000/svg">
<rect width="114" height="26" rx="5" fill="url(#paint0_linear)"/>
<path d="M36.1415 9.294V18H35.2115C35.0715 18 34.9535 17.978 34.8575 17.934C34.7615 17.886 34.6675 17.806 34.5755 17.694L30.2375 12.174C30.2495 12.314 30.2575 12.452 30.2615 12.588C30.2695 12.724 30.2735 12.85 30.2735 12.966V18H28.6835V9.294H29.6315C29.7075 9.294 29.7715 9.298 29.8235 9.306C29.8795 9.31 29.9295 9.324 29.9735 9.348C30.0175 9.368 30.0595 9.396 30.0995 9.432C30.1395 9.468 30.1835 9.516 30.2315 9.576L34.5995 15.12C34.5835 14.968 34.5715 14.822 34.5635 14.682C34.5555 14.538 34.5515 14.402 34.5515 14.274V9.294H36.1415ZM40.3392 11.718C40.8032 11.718 41.2252 11.792 41.6052 11.94C41.9852 12.088 42.3112 12.3 42.5832 12.576C42.8552 12.848 43.0652 13.18 43.2132 13.572C43.3612 13.964 43.4352 14.406 43.4352 14.898C43.4352 15.39 43.3612 15.834 43.2132 16.23C43.0652 16.622 42.8552 16.956 42.5832 17.232C42.3112 17.508 41.9852 17.72 41.6052 17.868C41.2252 18.016 40.8032 18.09 40.3392 18.09C39.8712 18.09 39.4452 18.016 39.0612 17.868C38.6812 17.72 38.3552 17.508 38.0832 17.232C37.8112 16.956 37.5992 16.622 37.4472 16.23C37.2992 15.834 37.2252 15.39 37.2252 14.898C37.2252 14.406 37.2992 13.964 37.4472 13.572C37.5992 13.18 37.8112 12.848 38.0832 12.576C38.3552 12.3 38.6812 12.088 39.0612 11.94C39.4452 11.792 39.8712 11.718 40.3392 11.718ZM40.3392 16.848C40.8112 16.848 41.1612 16.686 41.3892 16.362C41.6172 16.034 41.7312 15.548 41.7312 14.904C41.7312 14.264 41.6172 13.782 41.3892 13.458C41.1612 13.13 40.8112 12.966 40.3392 12.966C39.8552 12.966 39.4992 13.13 39.2712 13.458C39.0432 13.782 38.9292 14.264 38.9292 14.904C38.9292 15.548 39.0432 16.034 39.2712 16.362C39.4992 16.686 39.8552 16.848 40.3392 16.848ZM49.3627 10.704V12.942H52.2667V14.304H49.3627V16.59H53.0947V18H47.5507V9.294H53.0947V10.704H49.3627ZM59.9193 18H58.3293C58.2093 18 58.1113 17.97 58.0353 17.91C57.9633 17.85 57.9053 17.78 57.8613 17.7L56.6433 15.666C56.6073 15.802 56.5553 15.922 56.4873 16.026L55.4433 17.7C55.3953 17.776 55.3353 17.846 55.2633 17.91C55.1953 17.97 55.1073 18 54.9993 18H53.5233L55.6233 14.808L53.6073 11.814H55.1973C55.3173 11.814 55.4053 11.83 55.4613 11.862C55.5173 11.894 55.5673 11.946 55.6113 12.018L56.8233 13.98C56.8433 13.912 56.8693 13.844 56.9013 13.776C56.9333 13.704 56.9713 13.634 57.0153 13.566L57.9453 12.048C58.0413 11.892 58.1653 11.814 58.3173 11.814H59.8353L57.8193 14.736L59.9193 18ZM62.256 16.368C62.412 16.548 62.58 16.674 62.76 16.746C62.944 16.818 63.14 16.854 63.348 16.854C63.548 16.854 63.73 16.816 63.894 16.74C64.058 16.664 64.198 16.546 64.314 16.386C64.434 16.222 64.526 16.014 64.59 15.762C64.654 15.51 64.686 15.21 64.686 14.862C64.686 14.518 64.658 14.226 64.602 13.986C64.55 13.746 64.474 13.552 64.374 13.404C64.278 13.256 64.16 13.15 64.02 13.086C63.88 13.018 63.724 12.984 63.552 12.984C63.26 12.984 63.014 13.042 62.814 13.158C62.618 13.27 62.432 13.436 62.256 13.656V16.368ZM62.16 12.624C62.284 12.488 62.416 12.364 62.556 12.252C62.696 12.136 62.846 12.038 63.006 11.958C63.166 11.874 63.338 11.81 63.522 11.766C63.706 11.718 63.906 11.694 64.122 11.694C64.454 11.694 64.758 11.766 65.034 11.91C65.314 12.05 65.554 12.256 65.754 12.528C65.954 12.796 66.11 13.126 66.222 13.518C66.334 13.91 66.39 14.358 66.39 14.862C66.39 15.326 66.326 15.756 66.198 16.152C66.074 16.544 65.896 16.884 65.664 17.172C65.432 17.46 65.152 17.686 64.824 17.85C64.5 18.01 64.138 18.09 63.738 18.09C63.402 18.09 63.116 18.04 62.88 17.94C62.648 17.84 62.44 17.704 62.256 17.532V19.998H60.6V11.814H61.62C61.828 11.814 61.966 11.91 62.034 12.102L62.16 12.624ZM71.3795 14.178C71.3795 14.006 71.3555 13.842 71.3075 13.686C71.2635 13.53 71.1915 13.392 71.0915 13.272C70.9915 13.152 70.8655 13.058 70.7135 12.99C70.5615 12.918 70.3795 12.882 70.1675 12.882C69.7715 12.882 69.4615 12.994 69.2375 13.218C69.0135 13.442 68.8675 13.762 68.7995 14.178H71.3795ZM68.7755 15.162C68.8275 15.742 68.9915 16.166 69.2675 16.434C69.5475 16.702 69.9115 16.836 70.3595 16.836C70.5875 16.836 70.7835 16.81 70.9475 16.758C71.1155 16.702 71.2615 16.642 71.3855 16.578C71.5135 16.51 71.6275 16.45 71.7275 16.398C71.8315 16.342 71.9335 16.314 72.0335 16.314C72.1615 16.314 72.2615 16.362 72.3335 16.458L72.8135 17.058C72.6375 17.262 72.4435 17.432 72.2315 17.568C72.0195 17.7 71.7995 17.806 71.5715 17.886C71.3435 17.962 71.1135 18.014 70.8815 18.042C70.6495 18.074 70.4255 18.09 70.2095 18.09C69.7775 18.09 69.3735 18.02 68.9975 17.88C68.6255 17.736 68.2995 17.526 68.0195 17.25C67.7435 16.97 67.5255 16.624 67.3655 16.212C67.2055 15.8 67.1255 15.322 67.1255 14.778C67.1255 14.358 67.1935 13.962 67.3295 13.59C67.4695 13.218 67.6695 12.894 67.9295 12.618C68.1895 12.342 68.5055 12.124 68.8775 11.964C69.2495 11.8 69.6695 11.718 70.1375 11.718C70.5335 11.718 70.8975 11.782 71.2295 11.91C71.5655 12.034 71.8535 12.216 72.0935 12.456C72.3375 12.696 72.5255 12.992 72.6575 13.344C72.7935 13.692 72.8615 14.09 72.8615 14.538C72.8615 14.662 72.8555 14.764 72.8435 14.844C72.8315 14.924 72.8115 14.988 72.7835 15.036C72.7555 15.084 72.7175 15.118 72.6695 15.138C72.6215 15.154 72.5595 15.162 72.4835 15.162H68.7755ZM75.4431 12.834C75.6391 12.482 75.8651 12.204 76.1211 12C76.3771 11.796 76.6771 11.694 77.0211 11.694C77.3011 11.694 77.5291 11.76 77.7051 11.892L77.5971 13.116C77.5771 13.196 77.5451 13.252 77.5011 13.284C77.4611 13.312 77.4051 13.326 77.3331 13.326C77.2691 13.326 77.1771 13.318 77.0571 13.302C76.9371 13.282 76.8251 13.272 76.7211 13.272C76.5691 13.272 76.4331 13.294 76.3131 13.338C76.1971 13.382 76.0931 13.444 76.0011 13.524C75.9091 13.604 75.8251 13.702 75.7491 13.818C75.6771 13.934 75.6091 14.066 75.5451 14.214V18H73.8891V11.814H74.8671C75.0351 11.814 75.1511 11.844 75.2151 11.904C75.2791 11.964 75.3251 12.068 75.3531 12.216L75.4431 12.834ZM80.1165 11.814V18H78.4605V11.814H80.1165ZM80.3145 10.056C80.3145 10.196 80.2865 10.326 80.2305 10.446C80.1745 10.566 80.0985 10.672 80.0025 10.764C79.9105 10.856 79.8005 10.928 79.6725 10.98C79.5485 11.032 79.4145 11.058 79.2705 11.058C79.1345 11.058 79.0045 11.032 78.8805 10.98C78.7605 10.928 78.6545 10.856 78.5625 10.764C78.4705 10.672 78.3965 10.566 78.3405 10.446C78.2885 10.326 78.2625 10.196 78.2625 10.056C78.2625 9.916 78.2885 9.786 78.3405 9.666C78.3965 9.542 78.4705 9.434 78.5625 9.342C78.6545 9.25 78.7605 9.178 78.8805 9.126C79.0045 9.074 79.1345 9.048 79.2705 9.048C79.4145 9.048 79.5485 9.074 79.6725 9.126C79.8005 9.178 79.9105 9.25 80.0025 9.342C80.0985 9.434 80.1745 9.542 80.2305 9.666C80.2865 9.786 80.3145 9.916 80.3145 10.056ZM85.4537 14.178C85.4537 14.006 85.4297 13.842 85.3817 13.686C85.3377 13.53 85.2657 13.392 85.1657 13.272C85.0657 13.152 84.9397 13.058 84.7877 12.99C84.6357 12.918 84.4537 12.882 84.2417 12.882C83.8457 12.882 83.5357 12.994 83.3117 13.218C83.0877 13.442 82.9417 13.762 82.8737 14.178H85.4537ZM82.8497 15.162C82.9017 15.742 83.0657 16.166 83.3417 16.434C83.6217 16.702 83.9857 16.836 84.4337 16.836C84.6617 16.836 84.8577 16.81 85.0217 16.758C85.1897 16.702 85.3357 16.642 85.4597 16.578C85.5877 16.51 85.7017 16.45 85.8017 16.398C85.9057 16.342 86.0077 16.314 86.1077 16.314C86.2357 16.314 86.3357 16.362 86.4077 16.458L86.8877 17.058C86.7117 17.262 86.5177 17.432 86.3057 17.568C86.0937 17.7 85.8737 17.806 85.6457 17.886C85.4177 17.962 85.1877 18.014 84.9557 18.042C84.7237 18.074 84.4997 18.09 84.2837 18.09C83.8517 18.09 83.4477 18.02 83.0717 17.88C82.6997 17.736 82.3737 17.526 82.0937 17.25C81.8177 16.97 81.5997 16.624 81.4397 16.212C81.2797 15.8 81.1997 15.322 81.1997 14.778C81.1997 14.358 81.2677 13.962 81.4037 13.59C81.5437 13.218 81.7437 12.894 82.0037 12.618C82.2637 12.342 82.5797 12.124 82.9517 11.964C83.3237 11.8 83.7437 11.718 84.2117 11.718C84.6077 11.718 84.9717 11.782 85.3037 11.91C85.6397 12.034 85.9277 12.216 86.1677 12.456C86.4117 12.696 86.5997 12.992 86.7317 13.344C86.8677 13.692 86.9357 14.09 86.9357 14.538C86.9357 14.662 86.9297 14.764 86.9177 14.844C86.9057 14.924 86.8857 14.988 86.8577 15.036C86.8297 15.084 86.7917 15.118 86.7437 15.138C86.6957 15.154 86.6337 15.162 86.5577 15.162H82.8497ZM89.4993 12.534C89.6233 12.414 89.7513 12.304 89.8833 12.204C90.0193 12.104 90.1613 12.018 90.3093 11.946C90.4613 11.874 90.6233 11.818 90.7953 11.778C90.9713 11.738 91.1613 11.718 91.3653 11.718C91.7013 11.718 91.9993 11.776 92.2593 11.892C92.5193 12.008 92.7373 12.17 92.9133 12.378C93.0933 12.586 93.2273 12.834 93.3153 13.122C93.4073 13.41 93.4533 13.726 93.4533 14.07V18H91.8033V14.07C91.8033 13.726 91.7233 13.46 91.5633 13.272C91.4033 13.08 91.1673 12.984 90.8553 12.984C90.6233 12.984 90.4053 13.034 90.2013 13.134C89.9973 13.234 89.8033 13.374 89.6193 13.554V18H87.9633V11.814H88.9833C89.1913 11.814 89.3293 11.91 89.3973 12.102L89.4993 12.534ZM99.2599 13.194C99.2119 13.258 99.1639 13.308 99.1159 13.344C99.0679 13.376 98.9999 13.392 98.9119 13.392C98.8319 13.392 98.7539 13.37 98.6779 13.326C98.6059 13.278 98.5219 13.228 98.4259 13.176C98.3299 13.12 98.2159 13.07 98.0839 13.026C97.9519 12.978 97.7879 12.954 97.5919 12.954C97.3439 12.954 97.1279 13 96.9439 13.092C96.7639 13.18 96.6139 13.308 96.4939 13.476C96.3739 13.644 96.2839 13.848 96.2239 14.088C96.1679 14.328 96.1399 14.598 96.1399 14.898C96.1399 15.53 96.2659 16.014 96.5179 16.35C96.7739 16.686 97.1219 16.854 97.5619 16.854C97.7139 16.854 97.8439 16.842 97.9519 16.818C98.0639 16.79 98.1599 16.756 98.2399 16.716C98.3239 16.676 98.3959 16.632 98.4559 16.584C98.5159 16.536 98.5719 16.492 98.6239 16.452C98.6799 16.412 98.7339 16.38 98.7859 16.356C98.8419 16.328 98.9039 16.314 98.9719 16.314C99.0999 16.314 99.1999 16.362 99.2719 16.458L99.7459 17.058C99.5699 17.262 99.3819 17.432 99.1819 17.568C98.9819 17.7 98.7739 17.806 98.5579 17.886C98.3459 17.962 98.1299 18.014 97.9099 18.042C97.6899 18.074 97.4719 18.09 97.2559 18.09C96.8759 18.09 96.5159 18.02 96.1759 17.88C95.8359 17.736 95.5379 17.528 95.2819 17.256C95.0259 16.984 94.8219 16.65 94.6699 16.254C94.5219 15.858 94.4479 15.406 94.4479 14.898C94.4479 14.446 94.5139 14.026 94.6459 13.638C94.7779 13.25 94.9719 12.914 95.2279 12.63C95.4839 12.346 95.7999 12.124 96.1759 11.964C96.5559 11.8 96.9939 11.718 97.4899 11.718C97.9619 11.718 98.3759 11.794 98.7319 11.946C99.0879 12.098 99.4079 12.318 99.6919 12.606L99.2599 13.194ZM104.403 14.178C104.403 14.006 104.379 13.842 104.331 13.686C104.287 13.53 104.215 13.392 104.115 13.272C104.015 13.152 103.889 13.058 103.737 12.99C103.585 12.918 103.403 12.882 103.191 12.882C102.795 12.882 102.485 12.994 102.261 13.218C102.037 13.442 101.891 13.762 101.823 14.178H104.403ZM101.799 15.162C101.851 15.742 102.015 16.166 102.291 16.434C102.571 16.702 102.935 16.836 103.383 16.836C103.611 16.836 103.807 16.81 103.971 16.758C104.139 16.702 104.285 16.642 104.409 16.578C104.537 16.51 104.651 16.45 104.751 16.398C104.855 16.342 104.957 16.314 105.057 16.314C105.185 16.314 105.285 16.362 105.357 16.458L105.837 17.058C105.661 17.262 105.467 17.432 105.255 17.568C105.043 17.7 104.823 17.806 104.595 17.886C104.367 17.962 104.137 18.014 103.905 18.042C103.673 18.074 103.449 18.09 103.233 18.09C102.801 18.09 102.397 18.02 102.021 17.88C101.649 17.736 101.323 17.526 101.043 17.25C100.767 16.97 100.549 16.624 100.389 16.212C100.229 15.8 100.149 15.322 100.149 14.778C100.149 14.358 100.217 13.962 100.353 13.59C100.493 13.218 100.693 12.894 100.953 12.618C101.213 12.342 101.529 12.124 101.901 11.964C102.273 11.8 102.693 11.718 103.161 11.718C103.557 11.718 103.921 11.782 104.253 11.91C104.589 12.034 104.877 12.216 105.117 12.456C105.361 12.696 105.549 12.992 105.681 13.344C105.817 13.692 105.885 14.09 105.885 14.538C105.885 14.662 105.879 14.764 105.867 14.844C105.855 14.924 105.835 14.988 105.807 15.036C105.779 15.084 105.741 15.118 105.693 15.138C105.645 15.154 105.583 15.162 105.507 15.162H101.799Z" fill="white"/>
<path d="M14.2 14.9444V14.3333H9.6565L9.65 16.7778C9.65 17.4561 10.2285 18 10.95 18H20.05C20.7715 18 21.35 17.4561 21.35 16.7778V14.3333H16.8V14.9444H14.2ZM20.7 9.44444H18.0935V8.22222L16.7935 7H14.1935L12.8935 8.22222V9.44444H10.3C9.585 9.44444 9 9.99444 9 10.6667V12.5C9 13.1783 9.5785 13.7222 10.3 13.7222H14.2V12.5H16.8V13.7222H20.7C21.415 13.7222 22 13.1722 22 12.5V10.6667C22 9.99444 21.415 9.44444 20.7 9.44444ZM16.8 9.44444H14.2V8.22222H16.8V9.44444Z" fill="white"/>
<defs>
<linearGradient id="paint0_linear" x1="0" y1="0" x2="114" y2="26" gradientUnits="userSpaceOnUse">
<stop stop-color="#AD00FF"/>
<stop offset="1" stop-color="#EB00FF"/>
</linearGradient>
</defs>
</svg>
