<svg width="59" height="60" viewBox="0 0 59 60" fill="none" xmlns="http://www.w3.org/2000/svg">
<g clip-path="url(#clip0_1_4030)">
<path d="M35.7648 44.4833C37.1408 34.5912 30.496 25.4194 20.923 23.9975C11.3501 22.5756 2.47412 29.4419 1.09804 39.334C-0.278028 49.226 6.36685 58.3978 15.9398 59.8198C25.5128 61.2417 34.3887 54.3753 35.7648 44.4833Z" fill="#E9EAEB"/>
<path d="M38.7096 30.4664C40.7649 30.4664 42.3962 28.6379 42.3962 26.3902V25.0283C42.3962 22.7807 40.7649 20.9521 38.7096 20.9521C36.6543 20.9521 35.0229 22.7807 35.0229 25.0283V26.3902C35.0229 28.6379 36.6543 30.4664 38.7096 30.4664Z" fill="white"/>
<path d="M20.277 30.4664C22.3323 30.4664 23.9636 28.6379 23.9636 26.3902V25.0283C23.9636 22.7807 22.3323 20.9521 20.277 20.9521C18.2217 20.9521 16.5903 22.7807 16.5903 25.0283V26.3902C16.5903 28.6379 18.2217 30.4664 20.277 30.4664Z" fill="white"/>
<path d="M20.2763 30.4761C17.3731 30.4761 13.8247 32.3713 13.8247 33.4665V37.9523C13.8247 39.0475 17.3731 40.9427 20.2763 40.9427C23.1795 40.9427 26.7279 39.0475 26.7279 37.9523V33.4665C26.7279 32.3713 23.1795 30.4761 20.2763 30.4761Z" fill="#D92CFF"/>
<path d="M29.4934 53.3334C41.7098 53.3334 51.6132 43.0999 51.6132 30.4763C51.6132 17.8526 41.7098 7.61914 29.4934 7.61914C17.2769 7.61914 7.37354 17.8526 7.37354 30.4763C7.37354 43.0999 17.2769 53.3334 29.4934 53.3334Z" stroke="black" stroke-width="1.93548" stroke-miterlimit="10"/>
<path d="M29.4929 30.4761C26.1841 30.4761 22.1196 32.3713 22.1196 33.4665V40.8094C22.1196 41.9046 26.1749 43.7999 29.4929 43.7999C32.8109 43.7999 36.8662 41.9046 36.8662 40.8094V33.4665C36.8662 32.3713 32.8109 30.4761 29.4929 30.4761Z" fill="#D92CFF"/>
<path d="M38.7099 30.4761C35.8067 30.4761 32.2583 32.3713 32.2583 33.4665V37.9523C32.2583 39.0475 35.8067 40.9427 38.7099 40.9427C41.6131 40.9427 45.1615 39.0475 45.1615 37.9523V33.4665C45.1615 32.3713 41.6131 30.4761 38.7099 30.4761Z" fill="#D92CFF"/>
<path d="M29.4928 30.4664C31.5481 30.4664 33.1794 28.6379 33.1794 26.3902V25.0283C33.1794 22.7807 31.5481 20.9521 29.4928 20.9521C27.4375 20.9521 25.8062 22.7807 25.8062 25.0283V26.3902C25.8062 28.6379 27.4375 30.4664 29.4928 30.4664Z" fill="white" stroke="black" stroke-width="1.93548" stroke-miterlimit="10"/>
<path d="M36.8662 39.8668V33.4763C36.8662 32.3811 32.8109 30.4858 29.4929 30.4858C26.1749 30.4858 22.1196 32.3811 22.1196 33.4763V39.8668" stroke="black" stroke-width="1.93548" stroke-linecap="round" stroke-linejoin="round"/>
<path d="M38.7097 30.4664C40.765 30.4664 42.3964 28.6379 42.3964 26.3902V25.0283C42.3964 22.7807 40.765 20.9521 38.7097 20.9521C37.5577 20.9521 36.5346 21.5236 35.8618 22.4283" fill="white"/>
<path d="M38.7097 30.4664C40.765 30.4664 42.3964 28.6379 42.3964 26.3902V25.0283C42.3964 22.7807 40.765 20.9521 38.7097 20.9521C37.5577 20.9521 36.5346 21.5236 35.8618 22.4283" stroke="black" stroke-width="1.93548" stroke-miterlimit="10" stroke-linecap="round"/>
<path d="M45.1616 38.0951V33.4666C45.1616 32.3713 41.6132 30.4761 38.71 30.4761" stroke="black" stroke-width="1.93548" stroke-linecap="round" stroke-linejoin="round"/>
<path d="M20.2309 30.4664C18.2032 30.4664 16.5903 28.6379 16.5903 26.3902V25.0283C16.5903 22.7807 18.194 20.9521 20.2309 20.9521C21.3737 20.9521 22.3784 21.5236 23.0419 22.4283" fill="white"/>
<path d="M20.2309 30.4664C18.2032 30.4664 16.5903 28.6379 16.5903 26.3902V25.0283C16.5903 22.7807 18.194 20.9521 20.2309 20.9521C21.3737 20.9521 22.3784 21.5236 23.0419 22.4283" stroke="black" stroke-width="1.93548" stroke-miterlimit="10" stroke-linecap="round"/>
<path d="M13.8247 38.0951V33.4666C13.8247 32.3713 17.3731 30.4761 20.2763 30.4761" stroke="black" stroke-width="1.93548" stroke-linecap="round" stroke-linejoin="round"/>
<path d="M6.45117 0V3.80952" stroke="#BCC0C4" stroke-width="3.87097" stroke-miterlimit="10"/>
<path d="M6.45117 7.61914V11.4287" stroke="#BCC0C4" stroke-width="3.87097" stroke-miterlimit="10"/>
<path d="M8.29443 5.71436H11.9811" stroke="#BCC0C4" stroke-width="3.87097" stroke-miterlimit="10"/>
<path d="M0.921387 5.71436H4.60802" stroke="#BCC0C4" stroke-width="3.87097" stroke-miterlimit="10"/>
<path d="M2.76465 15.2383V17.143" stroke="#BCC0C4" stroke-width="3.87097" stroke-miterlimit="10"/>
<path d="M2.76465 19.0479V20.9526" stroke="#BCC0C4" stroke-width="3.87097" stroke-miterlimit="10"/>
<path d="M3.68701 18.0952H5.53033" stroke="#BCC0C4" stroke-width="3.87097" stroke-miterlimit="10"/>
<path d="M0 18.0952H1.84332" stroke="#BCC0C4" stroke-width="3.87097" stroke-miterlimit="10"/>
<path d="M47.9258 52.3809V54.2856" stroke="#BCC0C4" stroke-width="3.87097" stroke-miterlimit="10"/>
<path d="M47.9258 56.1904V58.0952" stroke="#BCC0C4" stroke-width="3.87097" stroke-miterlimit="10"/>
<path d="M47.0045 55.2378H45.1611" stroke="#BCC0C4" stroke-width="3.87097" stroke-miterlimit="10"/>
<path d="M50.6915 55.2378H48.8481" stroke="#BCC0C4" stroke-width="3.87097" stroke-miterlimit="10"/>
</g>
<defs>
<clipPath id="clip0_1_4030">
<rect width="58.0645" height="60" fill="white"/>
</clipPath>
</defs>
</svg>
