<svg width="53" height="53" viewBox="0 0 53 53" fill="none" xmlns="http://www.w3.org/2000/svg">
<g clip-path="url(#clip0_1_3938)">
<path d="M31.6973 52.258C43.0525 52.258 52.2578 43.345 52.2578 32.3502C52.2578 21.3554 43.0525 12.4424 31.6973 12.4424C20.342 12.4424 11.1367 21.3554 11.1367 32.3502C11.1367 43.345 20.342 52.258 31.6973 52.258Z" fill="#E9EAEB"/>
<path d="M20.5603 38.9863C31.4424 38.9863 40.2642 30.4446 40.2642 19.9079C40.2642 9.37125 31.4424 0.82959 20.5603 0.82959C9.67816 0.82959 0.856445 9.37125 0.856445 19.9079C0.856445 30.4446 9.67816 38.9863 20.5603 38.9863Z" fill="white"/>
<path d="M25.7007 30.691H23.1306V25.7141L20.5605 24.0551H18.8472V21.5666C18.8472 20.1896 19.9951 19.0781 21.4172 19.0781H24.844L28.2708 22.3961V28.2025L25.7007 30.691Z" fill="#D92CFF"/>
<path d="M35.4929 7.46533H32.5545L30.8325 9.12432H26.5491L23.979 11.6128H21.4089C19.9868 11.6128 18.8389 12.7243 18.8389 14.1013V15.7603H24.8357L28.2625 19.0782H29.9758L30.8325 18.2487H31.6892L34.2593 20.7372H40.2304C40.239 20.4635 40.2561 20.1898 40.2561 19.9077C40.2561 15.1547 38.4571 10.8082 35.4843 7.46533H35.4929Z" fill="#D92CFF"/>
<path d="M7.7105 19.9077H4.28374L1.71367 22.3962H1.02832C1.49093 25.8552 2.91304 29.0155 5.02049 31.6367L7.7105 29.0321V25.7142L9.42388 24.0552V21.5667L7.7105 19.9077Z" fill="#D92CFF"/>
<path d="M6.85305 8.29492H4.93407C2.70668 11.0986 1.26744 14.5244 0.941895 18.2488H2.57817L4.29155 16.5899V15.7604L7.71831 12.4424H9.43169V10.7834C9.43169 9.40644 8.28372 8.29492 6.86162 8.29492H6.85305Z" fill="#D92CFF"/>
<path d="M45.7553 38.3557L32.5537 29.0322V44.8341C32.5623 45.3152 32.9478 45.4811 33.3419 45.1078L37.0342 41.6405L40.598 47.7456C40.8979 48.2184 41.6004 48.3262 42.1743 47.9778L43.665 47.0654C44.2218 46.7253 44.4446 46.0783 44.1619 45.5972L40.7265 39.8405H45.2242C46.2522 39.8239 46.4321 38.7871 45.7467 38.3557H45.7553Z" fill="white" stroke="black" stroke-width="1.93548" stroke-linecap="round" stroke-linejoin="round"/>
<path d="M25.7007 30.691H23.1306V25.7141L20.5605 24.0551H18.8472V21.5666C18.8472 20.1896 19.9951 19.0781 21.4172 19.0781H24.844L28.2708 22.3961V28.2025L25.7007 30.691Z" stroke="black" stroke-width="1.93548" stroke-miterlimit="10"/>
<path d="M35.4929 7.46533H32.5545L30.8325 9.12432H26.5491L23.979 11.6128H21.4089C19.9868 11.6128 18.8389 12.7243 18.8389 14.1013V15.7603H24.8357L28.2625 19.0782H29.9758L30.8325 18.2487H31.6892L34.2593 20.7372H40.2304" stroke="black" stroke-width="1.93548" stroke-linecap="round" stroke-linejoin="round"/>
<path d="M5.02049 31.6367L7.7105 29.0321V25.7142L9.42388 24.0552V21.5667L7.7105 19.9077H4.28374L1.71367 22.3962H1.02832" stroke="black" stroke-width="1.93548" stroke-linecap="round" stroke-linejoin="round"/>
<path d="M0.933594 18.2488H2.56987L4.28325 16.5899V15.7604L7.71001 12.4424H9.42339V10.7834C9.42339 9.40644 8.27542 8.29492 6.85332 8.29492H4.93433" stroke="black" stroke-width="1.93548" stroke-linecap="round" stroke-linejoin="round"/>
<path d="M37.8826 28.9992C39.3989 26.295 40.2642 23.201 40.2642 19.9079C40.2642 9.37337 31.4403 0.82959 20.5603 0.82959C9.68035 0.82959 0.856445 9.37337 0.856445 19.9079C0.856445 30.4425 9.68035 38.9863 20.5603 38.9863C23.9699 38.9863 27.1825 38.1485 29.9839 36.6637" stroke="black" stroke-width="1.93548" stroke-linecap="round" stroke-linejoin="round"/>
<path d="M47.1177 4.14746V7.46543" stroke="#BCC0C4" stroke-width="3.87097" stroke-miterlimit="10"/>
<path d="M47.1177 10.7832V14.1012" stroke="#BCC0C4" stroke-width="3.87097" stroke-miterlimit="10"/>
<path d="M45.4043 9.12451H41.9775" stroke="#BCC0C4" stroke-width="3.87097" stroke-miterlimit="10"/>
<path d="M52.2578 9.12451H48.8311" stroke="#BCC0C4" stroke-width="3.87097" stroke-miterlimit="10"/>
<path d="M45.4048 21.5669V23.2259" stroke="#BCC0C4" stroke-width="3.87097" stroke-miterlimit="10"/>
<path d="M45.4048 24.8848V26.5438" stroke="#BCC0C4" stroke-width="3.87097" stroke-miterlimit="10"/>
<path d="M44.5479 24.0552H42.8345" stroke="#BCC0C4" stroke-width="3.87097" stroke-miterlimit="10"/>
<path d="M47.9746 24.0552H46.2612" stroke="#BCC0C4" stroke-width="3.87097" stroke-miterlimit="10"/>
<path d="M25.7012 41.4746V43.1336" stroke="#BCC0C4" stroke-width="3.87097" stroke-miterlimit="10"/>
<path d="M25.7012 44.7925V46.4515" stroke="#BCC0C4" stroke-width="3.87097" stroke-miterlimit="10"/>
<path d="M24.8442 43.9629H23.1309" stroke="#BCC0C4" stroke-width="3.87097" stroke-miterlimit="10"/>
<path d="M28.271 43.9629H26.5576" stroke="#BCC0C4" stroke-width="3.87097" stroke-miterlimit="10"/>
</g>
<defs>
<clipPath id="clip0_1_3938">
<rect width="52.2581" height="52.2581" fill="white"/>
</clipPath>
</defs>
</svg>
