<svg width="35" height="63" viewBox="0 0 35 63" fill="none" xmlns="http://www.w3.org/2000/svg">
    <path d="M2.11647 43.9395C3.22835 42.8591 4.99759 42.8581 6.11064 43.9373L17.5 54.9798L28.8894 43.9373C30.0024 42.8581 31.7717 42.8591 32.8835 43.9395V43.9395C34.0425 45.0655 34.0425 46.9264 32.8835 48.0524L19.0097 61.5331C18.169 62.35 16.831 62.35 15.9903 61.5331L2.11647 48.0524C0.957547 46.9264 0.957547 45.0655 2.11647 43.9395V43.9395Z"
          fill="white"/>
    <path d="M2.11647 22.9395C3.22835 21.8591 4.99759 21.8581 6.11064 22.9373L17.5 33.9798L28.8894 22.9373C30.0024 21.8581 31.7717 21.8591 32.8835 22.9395V22.9395C34.0425 24.0655 34.0425 25.9264 32.8835 27.0524L19.0097 40.5331C18.169 41.35 16.831 41.35 15.9903 40.5331L2.11647 27.0524C0.957547 25.9264 0.957547 24.0655 2.11647 22.9395V22.9395Z"
          fill="white" fill-opacity="0.7"/>
    <path d="M2.11647 1.93946C3.22835 0.859094 4.99759 0.858129 6.11064 1.93729L17.5 12.9798L28.8894 1.93729C30.0024 0.858132 31.7717 0.859094 32.8835 1.93946V1.93946C34.0425 3.06554 34.0425 4.92636 32.8835 6.05244L19.0097 19.5331C18.169 20.35 16.831 20.35 15.9903 19.5331L2.11647 6.05244C0.957547 4.92636 0.957547 3.06554 2.11647 1.93946V1.93946Z"
          fill="white" fill-opacity="0.4"/>
</svg>
