<svg width="360" height="143" viewBox="0 0 360 143" fill="none" xmlns="http://www.w3.org/2000/svg">
<g clip-path="url(#clip0)">
<path d="M174.126 139.542L185.057 135.384L184.42 133.66L171.884 138.429L162.962 132.511L174.693 125.563L186.66 135.506C188.733 137.229 188.314 140.56 185.881 141.699L183.826 142.662C182.862 143.113 181.752 143.113 180.788 142.662L174.126 139.542ZM173.195 124.318L161.362 131.327L154.226 124.593L167.547 119.625L173.195 124.318ZM154.558 108.833L165.918 118.272L152.741 123.185L146.128 116.843C144.438 115.222 144.666 112.428 146.596 111.111L150.237 108.626C151.565 107.72 153.32 107.804 154.558 108.833Z" fill="url(#paint0_linear)" stroke="#E7E7E7" stroke-width="2"/>
<path d="M139.992 102.416L149.01 58H178.767L189.588 78.1892L200.409 75.9459L238.958 110.492L240.987 118.119L237.154 123.054L231.969 124.4L226.559 131.13H217.993L212.582 137.859L200.409 141H186.883L139.992 102.416Z" fill="url(#paint1_linear)"/>
<path d="M200.99 140.028L189.191 140.955C187.962 141.129 186.715 140.793 185.744 140.028L134.993 97.5L146.709 57H177.862C178.983 57 180.064 57.4131 180.894 58.1589L199.432 74.8259L238.557 110.939C239.469 111.782 239.988 112.961 239.988 114.197V118.457C239.988 120.351 238.778 122.038 236.971 122.663L230.975 124.738M200.99 140.028L185.012 121.619M200.99 140.028H205.983C209.938 140.028 213.522 137.696 215.125 134.079L216.105 131.869M230.975 124.738L226.92 130.086C226.068 131.208 224.734 131.869 223.315 131.869H216.105M230.975 124.738L210.697 104.239M216.105 131.869L193.574 108.918" stroke="url(#paint2_linear)" stroke-width="2"/>
<path d="M250.219 43.6139L359.981 0V108.5L241.004 116L201.938 77.894C200.568 76.5577 198.499 76.2345 196.784 77.089L192.457 79.2467L174.665 90.229C173.954 90.6678 173.135 90.9002 172.299 90.9002H167.734C164.01 90.9002 160.991 87.8902 160.991 84.177V80.8694C160.991 79.8209 161.36 78.8057 162.033 78L182.119 53.9667C182.973 52.9448 184.238 52.354 185.572 52.354H212.388C212.735 52.354 213.08 52.3142 213.416 52.2353L250.219 43.6139Z" fill="url(#paint3_linear)"/>
<path fill-rule="evenodd" clip-rule="evenodd" d="M114.704 40.005C121.914 40.4563 145.902 42.4026 151.901 48.4119C152.678 49.1813 153.07 50.2913 152.979 51.4163C151.391 70.6504 139.337 109.762 138.819 111.445L138.818 111.447C138.349 112.971 137.005 114 135.493 114H114.494C112.562 114 110.994 112.342 110.994 110.3V43.6977C110.994 42.6763 111.393 41.6995 112.093 41.0041C112.793 40.301 113.71 39.9533 114.704 40.005Z" fill="url(#paint4_linear)"/>
<path d="M0 15L113.994 40.6738V112.767C113.994 114.166 112.709 115.221 111.321 114.96L0 94.0306V15Z" fill="url(#paint5_linear)"/>
<path d="M301.565 122.486L241.985 113.876L359.979 105V125L359.479 116.57C360.154 118.331 359.979 116.831 359.979 125L341.219 118.814L343.576 123.787C344.401 125.526 342.803 127.432 340.957 126.913L304.118 116.57V120.264C304.118 121.631 302.911 122.68 301.565 122.486Z" fill="white"/>
</g>
<defs>
<linearGradient id="paint0_linear" x1="169.04" y1="123.215" x2="141.273" y2="133.976" gradientUnits="userSpaceOnUse">
<stop stop-color="#F9FAFB"/>
<stop offset="1" stop-color="white"/>
</linearGradient>
<linearGradient id="paint1_linear" x1="221.599" y1="116.324" x2="140.135" y2="78.3307" gradientUnits="userSpaceOnUse">
<stop stop-color="#FFC0B5"/>
<stop offset="1" stop-color="#F78C78"/>
</linearGradient>
<linearGradient id="paint2_linear" x1="162.501" y1="81.0001" x2="233.395" y2="136.77" gradientUnits="userSpaceOnUse">
<stop stop-color="#FEB7A9"/>
<stop offset="1" stop-color="#F89380"/>
</linearGradient>
<linearGradient id="paint3_linear" x1="277.639" y1="62.4388" x2="276.745" y2="34.6496" gradientUnits="userSpaceOnUse">
<stop stop-color="white"/>
<stop offset="1" stop-color="#DFE3E8"/>
</linearGradient>
<linearGradient id="paint4_linear" x1="131.993" y1="40" x2="131.993" y2="114" gradientUnits="userSpaceOnUse">
<stop stop-color="white"/>
<stop offset="1" stop-color="#E0F5F5"/>
</linearGradient>
<linearGradient id="paint5_linear" x1="87.8016" y1="133.155" x2="31.4414" y2="47.3272" gradientUnits="userSpaceOnUse">
<stop stop-color="#0057FF"/>
<stop offset="1" stop-color="#00C2FF"/>
</linearGradient>
<clipPath id="clip0">
<rect width="360" height="143" fill="white"/>
</clipPath>
</defs>
</svg>
