<svg width="575" height="204" viewBox="0 0 575 204" fill="none" xmlns="http://www.w3.org/2000/svg">
<g clip-path="url(#clip0)">
<path d="M278.12 198.486L295.579 191.856L294.562 189.108L274.54 196.711L260.289 187.276L279.025 176.198L298.139 192.052C301.451 194.799 300.782 200.11 296.896 201.926L293.614 203.46C292.074 204.18 290.301 204.18 288.762 203.46L278.12 198.486ZM276.633 174.214L257.733 185.389L246.335 174.651L267.612 166.732L276.633 174.214ZM246.866 149.523L265.01 164.573L243.963 172.407L233.402 162.296C230.702 159.711 231.066 155.256 234.148 153.156L239.964 149.194C242.085 147.75 244.889 147.884 246.866 149.523Z" fill="url(#paint0_linear)" stroke="#E7E7E7" stroke-width="2"/>
<path d="M223.601 139.293L238.003 68.4756H285.533L302.816 100.665L320.099 97.0887L381.671 152.169L384.912 164.33L378.791 172.198L370.509 174.344L361.867 185.074H348.185L339.543 195.804L320.099 200.811H298.495L223.601 139.293Z" fill="url(#paint1_linear)"/>
<path d="M321.026 199.261L302.18 200.74C300.217 201.016 298.225 200.481 296.675 199.261L215.614 131.454L234.328 66.8809H284.086C285.877 66.8809 287.603 67.5395 288.927 68.7286L318.537 95.3025L381.029 152.881C382.486 154.225 383.314 156.106 383.314 158.076V164.868C383.314 167.888 381.382 170.577 378.495 171.575L368.919 174.883M321.026 199.261L295.506 169.909M321.026 199.261H332.891C336.844 199.261 340.427 196.932 342.031 193.318L345.168 186.252M368.919 174.883L362.442 183.41C361.081 185.199 358.951 186.252 356.684 186.252H345.168M368.919 174.883L336.531 142.198M345.168 186.252L309.181 149.659" stroke="url(#paint2_linear)" stroke-width="4"/>
<path fill-rule="evenodd" clip-rule="evenodd" d="M183.209 39.7844C194.724 40.5039 233.039 43.6071 242.621 53.1883C243.862 54.415 244.488 56.1848 244.342 57.9785C241.806 88.6455 222.554 151.006 221.726 153.689L221.725 153.692C220.976 156.123 218.829 157.762 216.414 157.762H182.873C179.788 157.762 177.283 155.119 177.283 151.863V45.6721C177.283 44.0435 177.92 42.4861 179.039 41.3774C180.157 40.2563 181.622 39.702 183.209 39.7844Z" fill="url(#paint3_linear)"/>
<path d="M0 -0.0839844L182.074 40.8505V155.796C182.074 158.028 180.022 159.709 177.805 159.293L0 125.923V-0.0839844Z" fill="url(#paint4_linear)"/>
<path fill-rule="evenodd" clip-rule="evenodd" d="M574.972 -24L399.657 45.5383L340.875 59.2842C340.337 59.41 339.786 59.4736 339.234 59.4736H296.402C294.271 59.4736 292.25 60.4155 290.886 62.0448L258.805 100.364C257.729 101.648 257.141 103.267 257.141 104.939V110.212C257.141 116.133 261.962 120.932 267.91 120.932H275.201C276.536 120.932 277.845 120.561 278.98 119.862L307.398 102.351L314.31 98.9111C317.049 97.5487 320.354 98.0639 322.542 100.195L384.938 160.951L402.373 159.854L481.668 171.292C483.817 171.602 485.744 169.929 485.744 167.75V161.86L544.585 178.351C547.534 179.178 550.086 176.139 548.769 173.366L545.003 165.438L574.967 175.301C574.967 168.629 575.041 166.002 574.967 164.65V148.993L574.972 148.993V-24Z" fill="url(#paint5_linear)"/>
</g>
<defs>
<linearGradient id="paint0_linear" x1="269.996" y1="172.454" x2="225.667" y2="189.665" gradientUnits="userSpaceOnUse">
<stop stop-color="#F9FAFB"/>
<stop offset="1" stop-color="white"/>
</linearGradient>
<linearGradient id="paint1_linear" x1="353.946" y1="161.468" x2="223.912" y2="100.715" gradientUnits="userSpaceOnUse">
<stop stop-color="#FFC0B5"/>
<stop offset="1" stop-color="#F78C78"/>
</linearGradient>
<linearGradient id="paint2_linear" x1="259.55" y1="105.147" x2="372.631" y2="194.261" gradientUnits="userSpaceOnUse">
<stop stop-color="#FEB7A9"/>
<stop offset="1" stop-color="#F89380"/>
</linearGradient>
<linearGradient id="paint3_linear" x1="210.823" y1="39.7764" x2="210.823" y2="157.762" gradientUnits="userSpaceOnUse">
<stop stop-color="white"/>
<stop offset="1" stop-color="#E0F5F5"/>
</linearGradient>
<linearGradient id="paint4_linear" x1="181.823" y1="97.9999" x2="0.682571" y2="86.8804" gradientUnits="userSpaceOnUse">
<stop stop-color="#0057FF"/>
<stop offset="1" stop-color="#00C2FF" stop-opacity="0"/>
</linearGradient>
<linearGradient id="paint5_linear" x1="403.606" y1="102" x2="566.448" y2="100.004" gradientUnits="userSpaceOnUse">
<stop stop-color="white"/>
<stop offset="1" stop-color="white" stop-opacity="0"/>
</linearGradient>
<clipPath id="clip0">
<rect width="575" height="204" fill="white"/>
</clipPath>
</defs>
</svg>
