<svg width="16" height="12" viewBox="0 0 16 12" fill="none" xmlns="http://www.w3.org/2000/svg">
<path fill-rule="evenodd" clip-rule="evenodd" d="M0.999799 4.99985H12.5858L9.2928 1.70685C9.19995 1.614 9.12631 1.50378 9.07606 1.38247C9.02581 1.26117 8.99995 1.13115 8.99995 0.999849C8.99995 0.868547 9.02581 0.738531 9.07606 0.617223C9.12631 0.495916 9.19995 0.385694 9.2928 0.292849C9.38564 0.200005 9.49587 0.126356 9.61717 0.0761089C9.73848 0.0258618 9.8685 -9.78275e-10 9.9998 0C10.1311 9.78278e-10 10.2611 0.0258618 10.3824 0.0761089C10.5037 0.126356 10.614 0.200004 10.7068 0.292849L15.7068 5.29285C15.7997 5.38564 15.8735 5.49584 15.9238 5.61716C15.9741 5.73847 16 5.86852 16 5.99985C16 6.13118 15.9741 6.26123 15.9238 6.38254C15.8735 6.50386 15.7997 6.61406 15.7068 6.70685L10.7068 11.7068C10.6141 11.8 10.504 11.874 10.3827 11.9244C10.2613 11.9749 10.1312 12.0009 9.9998 12.0009C9.86839 12.0009 9.73828 11.9749 9.61695 11.9244C9.49561 11.874 9.38545 11.8 9.2928 11.7068C9.19985 11.6141 9.12612 11.5039 9.0758 11.3825C9.02549 11.2612 8.9996 11.1312 8.9996 10.9998C8.9996 10.8685 9.02549 10.7385 9.0758 10.6172C9.12612 10.4958 9.19985 10.3856 9.2928 10.2928L12.5858 6.99985H0.999799C0.734582 6.99985 0.480227 6.89449 0.292691 6.70696C0.105155 6.51942 -0.000200272 6.26507 -0.000200272 5.99985C-0.000200272 5.73463 0.105155 5.48028 0.292691 5.29274C0.480227 5.10521 0.734582 4.99985 0.999799 4.99985Z" fill="white"/>
</svg>
