<svg width="24" height="24" viewBox="0 0 24 24" fill="none" xmlns="http://www.w3.org/2000/svg">
<path fill-rule="evenodd" clip-rule="evenodd" d="M19.0002 10.9998H7.4142L10.7072 7.70685C10.8 7.614 10.8737 7.50378 10.9239 7.38247C10.9742 7.26117 11.0001 7.13115 11.0001 6.99985C11.0001 6.86855 10.9742 6.73853 10.9239 6.61722C10.8737 6.49592 10.8 6.38569 10.7072 6.29285C10.6144 6.2 10.5041 6.12636 10.3828 6.07611C10.2615 6.02586 10.1315 6 10.0002 6C9.8689 6 9.73888 6.02586 9.61758 6.07611C9.49627 6.12636 9.38605 6.2 9.2932 6.29285L4.2932 11.2928C4.20026 11.3856 4.12652 11.4958 4.07621 11.6172C4.0259 11.7385 4 11.8685 4 11.9998C4 12.1312 4.0259 12.2612 4.07621 12.3825C4.12652 12.5039 4.20026 12.6141 4.2932 12.7068L9.2932 17.7068C9.38585 17.8 9.49602 17.874 9.61735 17.9244C9.73868 17.9749 9.86879 18.0009 10.0002 18.0009C10.1316 18.0009 10.2617 17.9749 10.3831 17.9244C10.5044 17.874 10.6145 17.8 10.7072 17.7068C10.8001 17.6141 10.8739 17.5039 10.9242 17.3825C10.9745 17.2612 11.0004 17.1312 11.0004 16.9998C11.0004 16.8685 10.9745 16.7385 10.9242 16.6172C10.8739 16.4958 10.8001 16.3856 10.7072 16.2928L7.4142 12.9998H19.0002C19.2654 12.9998 19.5198 12.8945 19.7073 12.707C19.8948 12.5194 20.0002 12.2651 20.0002 11.9998C20.0002 11.7346 19.8948 11.4803 19.7073 11.2927C19.5198 11.1052 19.2654 10.9998 19.0002 10.9998Z"/>
</svg>
