<svg width="457" height="196" viewBox="0 0 457 196" fill="none" xmlns="http://www.w3.org/2000/svg">
    <g opacity="0.9">
        <path d="M227.874 145.581L317.269 84.2038L138.479 84.2038L227.874 145.581Z" fill="white" fill-opacity="0.8"/>
        <path d="M222.352 28.6756L138.478 84.2057H317.267L233.393 28.6756C230.046 26.4598 225.699 26.4598 222.352 28.6756Z"
              fill="white" fill-opacity="0.6"/>
        <path d="M198.174 85.7144L229.719 82.3096V171.997H179.006H138.478C144.123 141.857 160.625 114.832 184.857 96.0413L198.174 85.7144Z"
              fill="url(#paint0_linear)"/>
        <path d="M261.265 85.7164L229.72 82.3115V172.364H276.797H316.953C313.917 142.257 298.66 114.715 274.748 96.1718L261.265 85.7164Z"
              fill="url(#paint1_linear)"/>
        <path d="M229.477 122.237C228.971 122.237 228.466 122.089 228.031 121.792L192.646 97.6575C191.96 97.1898 191.551 96.4206 191.551 95.5991V66.1017C191.551 65.8326 191.595 65.5653 191.681 65.3101L193.906 58.7332L192.294 57.1445C188.302 53.2117 188.302 46.8128 192.294 42.8802C192.298 42.8762 192.302 42.8722 192.306 42.868C196.279 38.9638 202.751 38.9129 206.775 42.8775L207.94 44.0255C209.175 43.1134 217.178 36.7822 229.476 36.7822C241.776 36.7822 249.779 43.1129 251.014 44.025L252.179 42.8772C256.147 38.9682 262.619 38.9086 266.648 42.8679C266.652 42.8719 266.656 42.8759 266.66 42.8801C270.652 46.8128 270.652 53.2116 266.66 57.1441L265.048 58.7331L267.273 65.3099C267.359 65.5651 267.403 65.8325 267.403 66.1015V95.5991C267.403 96.4206 266.994 97.1898 266.309 97.6575L230.924 121.792C230.488 122.089 229.983 122.237 229.477 122.237Z"
              fill="white"/>
        <path d="M229.476 100.996C219.512 100.996 210.392 93.7833 210.392 83.5518V77.004C210.392 72.7494 212.091 68.7493 215.175 65.7405L223.767 57.3605C226.915 54.2902 232.037 54.2904 235.185 57.3604L243.776 65.7405C246.861 68.7493 248.56 72.7494 248.56 77.004V83.5518C248.56 93.7636 239.452 100.996 229.476 100.996Z"
              fill="url(#paint2_linear)"/>
        <path d="M229.473 90.1316C224.489 90.1316 220.434 86.5862 220.434 82.2284C220.434 77.8704 224.489 74.325 229.473 74.325C234.458 74.325 238.513 77.8704 238.513 82.2284C238.513 86.5862 234.458 90.1316 229.473 90.1316Z"
              fill="#212B36"/>
        <path d="M210.459 60.5606C211.865 60.5606 213.005 59.4397 213.005 58.057C213.005 56.6743 211.865 55.5535 210.459 55.5535C209.054 55.5535 207.914 56.6743 207.914 58.057C207.914 59.4397 209.054 60.5606 210.459 60.5606Z"
              fill="#280000"/>
        <path d="M248.626 60.5606C250.032 60.5606 251.172 59.4397 251.172 58.057C251.172 56.6743 250.032 55.5535 248.626 55.5535C247.221 55.5535 246.081 56.6743 246.081 58.057C246.081 59.4397 247.221 60.5606 248.626 60.5606Z"
              fill="#280000"/>
        <path fill-rule="evenodd" clip-rule="evenodd"
              d="M138.478 84.4656V190.999C138.478 193.76 140.716 195.999 143.478 195.999H312.267C315.029 195.999 317.267 193.76 317.267 190.999V84.4656H316.885L227.874 145.579L138.863 84.4656H138.478Z"
              fill="white"/>
        <path d="M254.842 104.95L260.473 118.85L294.26 104.95H306.226L316.081 64.6376L322.743 50.0957C326.322 42.2834 322.311 33.0949 314.149 30.4084C309.248 28.7954 303.859 29.9258 300.019 33.3723L290.741 41.7015V54.9071L254.842 104.95Z"
              fill="url(#paint3_linear)"/>
        <path d="M201.345 104.95L195.714 118.85L161.927 104.95H149.96L140.106 64.6376L133.443 50.0957C129.864 42.2834 133.875 33.0949 142.038 30.4084C146.938 28.7954 152.328 29.9258 156.167 33.3723L165.446 41.7015V54.9071L201.345 104.95Z"
              fill="url(#paint4_linear)"/>
        <rect width="99.8695" height="59.8243" rx="4"
              transform="matrix(0.966736 0.255775 -0.261894 0.965097 360.452 65.3347)" fill="url(#paint5_linear)"
              fill-opacity="0.95"/>
        <path d="M398.484 120.09C400.335 120.358 401.848 120.141 403.024 119.439C404.216 118.741 405.014 117.647 405.419 116.155C405.591 115.52 405.621 114.934 405.508 114.397C405.395 113.861 405.175 113.359 404.849 112.893C404.538 112.431 404.131 111.999 403.626 111.596C403.125 111.178 402.573 110.771 401.969 110.374L398.484 120.09ZM403.995 95.4034C403.066 95.2527 402.24 95.2318 401.515 95.3409C400.795 95.4352 400.169 95.6259 399.639 95.913C399.112 96.1853 398.685 96.5393 398.356 96.9749C398.028 97.4104 397.79 97.9015 397.642 98.448C397.473 99.0683 397.438 99.6448 397.536 100.177C397.634 100.71 397.829 101.213 398.121 101.686C398.432 102.148 398.82 102.591 399.287 103.015C399.758 103.425 400.278 103.831 400.847 104.235L403.995 95.4034ZM403.558 105.95C404.555 106.562 405.528 107.207 406.475 107.885C407.441 108.553 408.263 109.308 408.939 110.152C409.619 110.981 410.091 111.921 410.355 112.973C410.635 114.028 410.588 115.243 410.215 116.616C409.85 117.96 409.272 119.169 408.48 120.242C407.707 121.303 406.751 122.175 405.613 122.855C404.479 123.521 403.185 123.97 401.732 124.203C400.298 124.425 398.745 124.37 397.073 124.039L395.84 127.512C395.74 127.818 395.536 128.065 395.227 128.252C394.913 128.454 394.568 128.505 394.191 128.406L392.382 127.927L394.083 123.176C392.359 122.499 390.825 121.602 389.479 120.486C388.153 119.359 387.093 118.113 386.3 116.748L388.365 114.943C388.553 114.787 388.768 114.678 389.012 114.616C389.274 114.543 389.533 114.54 389.789 114.608C390.106 114.692 390.411 114.907 390.705 115.254C391.014 115.605 391.371 116.016 391.777 116.487C392.186 116.944 392.686 117.424 393.276 117.929C393.871 118.419 394.608 118.859 395.488 119.25L399.241 108.726C398.269 108.136 397.315 107.512 396.379 106.853C395.462 106.183 394.677 105.413 394.024 104.544C393.386 103.678 392.943 102.69 392.695 101.58C392.461 100.473 392.545 99.1814 392.946 97.7044C393.247 96.5966 393.758 95.5762 394.48 94.6432C395.217 93.7141 396.118 92.9551 397.183 92.3662C398.267 91.7664 399.505 91.3737 400.897 91.1878C402.293 90.9872 403.807 91.0635 405.441 91.4165L406.473 88.5075C406.576 88.1865 406.782 87.9324 407.092 87.7451C407.401 87.5579 407.744 87.5141 408.121 87.6139L409.931 88.0926L408.413 92.3454C409.936 92.9859 411.192 93.7773 412.181 94.7196C413.174 95.6472 413.988 96.6383 414.623 97.6928L412.966 99.1541C412.494 99.5833 412.016 99.7341 411.534 99.6064C411.308 99.5466 411.058 99.3935 410.786 99.1472C410.528 98.905 410.218 98.6172 409.856 98.2839C409.509 97.9546 409.102 97.6094 408.634 97.2482C408.167 96.887 407.625 96.5616 407.008 96.2718L403.558 105.95Z"
              fill="white"/>
        <rect width="99.87" height="59.8246" rx="4" transform="matrix(0.966895 -0.255173 0.26251 0.964929 0 90.3555)"
              fill="url(#paint6_linear)" fill-opacity="0.95"/>
        <path d="M60.6628 118.999C62.4012 118.318 63.602 117.383 64.2653 116.194C64.9438 115.001 65.0805 113.659 64.6757 112.167C64.5034 111.532 64.2324 111.01 63.8629 110.601C63.4933 110.192 63.0494 109.867 62.5309 109.624C62.0276 109.377 61.4553 109.204 60.8142 109.104C60.169 108.99 59.4846 108.91 58.761 108.864L60.6628 118.999ZM52.9349 94.8989C52.0541 95.2269 51.3276 95.617 50.7554 96.0692C50.1791 96.5066 49.7339 96.9806 49.4199 97.4911C49.1019 97.9869 48.911 98.5044 48.8473 99.0437C48.7835 99.583 48.8258 100.126 48.9741 100.672C49.1424 101.293 49.4038 101.809 49.7583 102.222C50.1127 102.635 50.5361 102.974 51.0284 103.24C51.5317 103.486 52.0929 103.678 52.7119 103.815C53.327 103.938 53.9832 104.033 54.6807 104.102L52.9349 94.8989ZM57.8963 104.248C59.0703 104.286 60.2391 104.365 61.4029 104.484C62.5778 104.585 63.6716 104.834 64.6844 105.231C65.6932 105.613 66.5782 106.194 67.3395 106.974C68.1158 107.75 68.6903 108.825 69.0631 110.199C69.4278 111.543 69.5388 112.875 69.396 114.195C69.2642 115.497 68.8778 116.723 68.2366 117.874C67.5914 119.01 66.6985 120.038 65.558 120.957C64.4285 121.858 63.056 122.577 61.4404 123.115L62.1309 126.732C62.2 127.046 62.148 127.361 61.9749 127.676C61.8057 128.006 61.5327 128.22 61.1557 128.32L59.3461 128.799L58.4139 123.845C56.5784 124.109 54.7954 124.09 53.0649 123.788C51.3454 123.467 49.7966 122.911 48.4182 122.12L49.2933 119.538C49.3769 119.31 49.5082 119.109 49.6873 118.935C49.8774 118.742 50.1006 118.612 50.357 118.544C50.6736 118.46 51.047 118.496 51.4771 118.651C51.9222 118.803 52.4397 118.982 53.0295 119.19C53.6153 119.384 54.2916 119.553 55.0583 119.698C55.8211 119.829 56.6824 119.847 57.6424 119.751L55.5633 108.784C54.4236 108.753 53.2813 108.683 52.1366 108.574C51.003 108.447 49.9333 108.168 48.9276 107.737C47.9369 107.303 47.0529 106.666 46.2757 105.827C45.5135 104.984 44.932 103.824 44.5312 102.347C44.2306 101.239 44.1566 100.103 44.3094 98.9382C44.4772 97.7698 44.8731 96.6677 45.4971 95.6319C46.1322 94.5774 47.0054 93.626 48.1167 92.7779C49.224 91.915 50.5744 91.2332 52.1679 90.7325L51.5884 87.7037C51.5153 87.3748 51.5653 87.0528 51.7385 86.7379C51.9116 86.423 52.1867 86.2156 52.5637 86.1159L54.3732 85.6371L55.2123 90.0694C56.8558 89.8721 58.3443 89.9374 59.6778 90.2653C61.0073 90.5784 62.214 91.0349 63.298 91.6346L62.6028 93.7183C62.4113 94.323 62.0743 94.6893 61.5918 94.8169C61.3656 94.8768 61.0721 94.8673 60.7113 94.7886C60.3657 94.706 59.9516 94.6097 59.4693 94.4999C59.002 94.386 58.4744 94.2881 57.8865 94.2062C57.2986 94.1243 56.6644 94.11 55.9839 94.1634L57.8963 104.248Z"
              fill="white"/>
        <g opacity="0.3">
            <rect width="30.9455" height="15.3039" rx="4"
                  transform="matrix(0.966736 0.255775 -0.261894 0.965097 343.56 0)" fill="url(#paint7_linear)"
                  fill-opacity="0.95"/>
            <path d="M356.683 12.0295C357.249 12.1407 357.696 12.1519 358.026 12.0631C358.36 11.9755 358.562 11.8022 358.633 11.5431C358.663 11.4327 358.651 11.3266 358.599 11.2248C358.546 11.1229 358.463 11.0238 358.349 10.9276C358.24 10.8327 358.102 10.7399 357.936 10.6493C357.771 10.5562 357.591 10.4631 357.396 10.3703L356.683 12.0295ZM357.489 7.70141C357.205 7.64263 356.955 7.61103 356.741 7.60662C356.528 7.59964 356.346 7.61348 356.197 7.64814C356.048 7.68024 355.931 7.73058 355.848 7.79918C355.764 7.86777 355.709 7.94954 355.683 8.04447C355.654 8.15223 355.663 8.25643 355.711 8.35707C355.759 8.45772 355.835 8.55618 355.939 8.65247C356.049 8.74742 356.181 8.84153 356.336 8.93478C356.491 9.02547 356.662 9.1173 356.847 9.21027L357.489 7.70141ZM357.721 9.61483C358.042 9.76029 358.357 9.91092 358.665 10.0667C358.979 10.2212 359.252 10.3869 359.484 10.5639C359.718 10.7384 359.892 10.9261 360.008 11.1272C360.128 11.3296 360.156 11.55 360.091 11.7887C360.028 12.0221 359.895 12.2236 359.694 12.3931C359.498 12.5613 359.241 12.6884 358.922 12.7746C358.604 12.8581 358.23 12.8968 357.801 12.8905C357.378 12.8829 356.909 12.8208 356.395 12.704L356.143 13.2975C356.124 13.3501 356.071 13.3884 355.985 13.4122C355.897 13.4386 355.795 13.4363 355.678 13.4054L355.118 13.2571L355.466 12.4458C354.924 12.264 354.432 12.0485 353.988 11.7992C353.551 11.5486 353.189 11.2852 352.903 11.0089L353.462 10.7484C353.513 10.7262 353.574 10.7135 353.645 10.7103C353.722 10.7057 353.8 10.7139 353.879 10.735C353.977 10.7609 354.076 10.8105 354.177 10.8838C354.282 10.9584 354.403 11.0455 354.541 11.1453C354.68 11.2426 354.847 11.3472 355.042 11.4593C355.238 11.5688 355.475 11.6741 355.753 11.7752L356.519 9.97724C356.206 9.83683 355.898 9.69062 355.593 9.53861C355.295 9.38527 355.032 9.21816 354.805 9.03727C354.584 8.85763 354.417 8.66212 354.304 8.45075C354.195 8.24062 354.176 8.00727 354.246 7.7507C354.298 7.55828 354.416 7.38891 354.601 7.24259C354.791 7.09752 355.036 6.98904 355.336 6.91716C355.641 6.84394 356 6.81374 356.412 6.82655C356.825 6.8368 357.283 6.90164 357.787 7.02109L357.997 6.52394C358.017 6.46873 358.07 6.4292 358.156 6.40537C358.243 6.38153 358.345 6.38507 358.462 6.41597L359.022 6.56432L358.712 7.29082C359.193 7.45911 359.598 7.64601 359.927 7.85153C360.258 8.05448 360.537 8.26302 360.764 8.47717L360.316 8.68862C360.189 8.75122 360.051 8.76275 359.901 8.72319C359.831 8.70464 359.751 8.66828 359.66 8.61409C359.575 8.56115 359.472 8.49812 359.351 8.42502C359.235 8.35316 359.101 8.27635 358.948 8.1946C358.795 8.11284 358.621 8.03512 358.425 7.96144L357.721 9.61483Z"
                  fill="white"/>
        </g>
        <g opacity="0.3">
            <rect width="30.9455" height="15.3039" rx="4"
                  transform="matrix(0.966736 -0.255775 0.261894 0.965097 73.2051 7.91675)" fill="url(#paint8_linear)"
                  fill-opacity="0.95"/>
            <path d="M90.6602 11.8561C91.2065 11.6731 91.5998 11.4618 91.8403 11.2221C92.0854 10.9813 92.1729 10.7313 92.1025 10.4722C92.0726 10.3618 92.0091 10.2755 91.9121 10.2132C91.815 10.1509 91.6927 10.1062 91.5452 10.0793C91.4023 10.0511 91.2362 10.0387 91.0468 10.042C90.8567 10.0428 90.6536 10.0512 90.4376 10.0671L90.6602 11.8561ZM89.1669 7.70976C88.8907 7.79933 88.6588 7.89507 88.4711 7.99697C88.2827 8.09631 88.1325 8.19793 88.0205 8.30182C87.9077 8.40314 87.8325 8.50417 87.7947 8.60491C87.7569 8.70565 87.7509 8.80348 87.7767 8.89841C87.8059 9.00617 87.8668 9.09183 87.9591 9.15539C88.0515 9.21895 88.1671 9.26672 88.306 9.29872C88.4489 9.32692 88.611 9.34314 88.7925 9.34738C88.9732 9.34906 89.1673 9.34446 89.3747 9.33359L89.1669 7.70976ZM90.3367 9.25231C90.6884 9.21974 91.0373 9.19483 91.3831 9.17757C91.733 9.1565 92.0534 9.16523 92.3443 9.20376C92.6345 9.23972 92.8806 9.31622 93.0826 9.43326C93.2893 9.54907 93.4251 9.72627 93.4898 9.96488C93.5532 10.1984 93.5406 10.4382 93.4522 10.6843C93.3677 10.9267 93.2092 11.1638 92.9767 11.3958C92.7435 11.6253 92.4395 11.8432 92.0648 12.0496C91.6941 12.2522 91.2566 12.4298 90.7521 12.5825L90.8351 13.2205C90.8451 13.2756 90.8186 13.3349 90.7556 13.3983C90.6934 13.4643 90.6039 13.5127 90.4871 13.5436L89.9264 13.6919L89.8168 12.8176C89.2557 12.9276 88.7201 12.984 88.2101 12.987C87.7041 12.9861 87.2574 12.9365 86.8702 12.8382L87.2224 12.3367C87.2554 12.2922 87.3018 12.2511 87.3616 12.2132C87.4254 12.1716 87.4971 12.1403 87.5765 12.1193C87.6746 12.0933 87.7857 12.0873 87.9097 12.1012C88.0383 12.1139 88.1877 12.1294 88.3579 12.1476C88.5275 12.1633 88.725 12.1715 88.9506 12.1723C89.1755 12.1706 89.4339 12.1448 89.7259 12.0951L89.4787 10.1599C89.137 10.1926 88.7959 10.2182 88.4554 10.2368C88.1189 10.2516 87.8068 10.2365 87.5192 10.1916C87.2362 10.1455 86.9923 10.0588 86.7875 9.93147C86.5874 9.80294 86.4525 9.61038 86.3828 9.35381C86.3306 9.16139 86.3476 8.95617 86.4336 8.73815C86.5244 8.5189 86.6814 8.30411 86.9048 8.09376C87.1321 7.87962 87.4276 7.67634 87.791 7.48394C88.1538 7.28896 88.5834 7.11892 89.0799 6.97382L89.01 6.43957C88.9994 6.38189 89.0255 6.32135 89.0884 6.25795C89.1514 6.19456 89.2412 6.1474 89.358 6.1165L89.9188 5.96815L90.0183 6.75027C90.5194 6.65895 90.9648 6.62086 91.3545 6.63599C91.7435 6.64856 92.0907 6.69145 92.396 6.76466L92.1151 7.16897C92.0367 7.28597 91.9227 7.36425 91.7732 7.40381C91.7031 7.42235 91.6152 7.43049 91.5094 7.42823C91.4083 7.42473 91.2871 7.42105 91.1458 7.41718C91.0092 7.41207 90.8539 7.41191 90.6799 7.41669C90.5059 7.42148 90.3157 7.44019 90.1092 7.47282L90.3367 9.25231Z"
                  fill="white"/>
        </g>
        <g opacity="0.5">
            <rect width="46.4182" height="29.2165" rx="4"
                  transform="matrix(0.966736 0.255775 -0.261894 0.965097 385.792 25.0208)" fill="url(#paint9_linear)"
                  fill-opacity="0.95"/>
            <path d="M404.595 46.3311C405.447 46.4832 406.13 46.459 406.643 46.2587C407.162 46.0602 407.489 45.7136 407.623 45.2188C407.681 45.0082 407.674 44.8097 407.605 44.6233C407.535 44.4369 407.418 44.2589 407.254 44.0895C407.097 43.9218 406.896 43.7612 406.652 43.6074C406.41 43.4488 406.144 43.292 405.856 43.1369L404.595 46.3311ZM406.275 38.1055C405.846 38.0237 405.469 37.9894 405.142 38.0027C404.817 38.0111 404.538 38.0555 404.306 38.1358C404.075 38.2113 403.892 38.3178 403.757 38.4553C403.622 38.5928 403.53 38.7522 403.481 38.9334C403.425 39.1391 403.429 39.3343 403.491 39.5188C403.554 39.7034 403.66 39.881 403.809 40.0517C403.966 40.2193 404.158 40.383 404.385 40.5428C404.614 40.6978 404.864 40.8534 405.137 41.0096L406.275 38.1055ZM406.431 41.6826C406.906 41.9238 407.371 42.1755 407.826 42.4376C408.289 42.6966 408.689 42.9809 409.026 43.2904C409.364 43.5951 409.611 43.9308 409.767 44.2975C409.929 44.6661 409.949 45.0782 409.825 45.5337C409.704 45.9794 409.482 46.3719 409.157 46.7112C408.84 47.0474 408.434 47.3127 407.938 47.5069C407.443 47.6963 406.869 47.8068 406.214 47.8383C405.568 47.8668 404.858 47.7972 404.085 47.6293L403.64 48.7715C403.605 48.8725 403.52 48.9498 403.385 49.0034C403.249 49.0619 403.093 49.068 402.918 49.0216L402.077 48.7991L402.692 47.2373C401.884 46.9499 401.154 46.5941 400.503 46.1699C399.86 45.7426 399.335 45.2834 398.928 44.7923L399.808 44.2457C399.889 44.1987 399.983 44.1686 400.092 44.1554C400.209 44.1391 400.327 44.1468 400.446 44.1783C400.594 44.2172 400.74 44.3006 400.886 44.4284C401.038 44.558 401.215 44.7097 401.416 44.8836C401.618 45.0525 401.862 45.2326 402.148 45.4238C402.435 45.6101 402.786 45.7843 403.2 45.9464L404.556 42.486C404.094 42.2533 403.638 42.0093 403.189 41.754C402.748 41.4957 402.364 41.2077 402.037 40.8902C401.717 40.5746 401.482 40.2236 401.331 39.8373C401.188 39.4528 401.182 39.0157 401.315 38.5258C401.415 38.1585 401.614 37.8278 401.911 37.5338C402.216 37.2417 402.601 37.0128 403.067 36.8473C403.541 36.6787 404.092 36.5856 404.72 36.5681C405.35 36.5457 406.043 36.6214 406.799 36.7954L407.172 35.8387C407.208 35.7328 407.293 35.653 407.428 35.5994C407.563 35.5458 407.718 35.5422 407.893 35.5886L408.734 35.8111L408.186 37.2094C408.902 37.4776 409.501 37.7884 409.983 38.1418C410.467 38.4903 410.872 38.8545 411.197 39.2345L410.491 39.6777C410.29 39.8083 410.077 39.844 409.853 39.7846C409.748 39.7568 409.629 39.6965 409.497 39.6037C409.371 39.5127 409.22 39.4045 409.044 39.2791C408.874 39.1556 408.677 39.0246 408.452 38.8863C408.226 38.7479 407.968 38.6192 407.678 38.5003L406.431 41.6826Z"
                  fill="white"/>
        </g>
        <g opacity="0.5">
            <rect width="46.4182" height="29.2165" rx="4"
                  transform="matrix(0.966736 -0.255775 0.261894 0.965097 23.9316 38.9246)" fill="url(#paint10_linear)"
                  fill-opacity="0.95"/>
            <path d="M51.0086 48.099C51.8241 47.8097 52.403 47.4518 52.7455 47.0252C53.095 46.5968 53.2026 46.1352 53.0683 45.6405C53.0112 45.4298 52.9053 45.261 52.7506 45.1339C52.5959 45.0069 52.4045 44.9105 52.1764 44.8449C51.9552 44.7774 51.7002 44.7372 51.4112 44.7244C51.121 44.7067 50.8117 44.702 50.4834 44.7101L51.0086 48.099ZM48.2983 40.146C47.8858 40.2867 47.5414 40.4434 47.2653 40.6162C46.9878 40.7841 46.7689 40.9601 46.6086 41.1443C46.4469 41.3236 46.3424 41.5061 46.2952 41.6918C46.2479 41.8776 46.2489 42.0611 46.298 42.2423C46.3539 42.448 46.4556 42.6153 46.6033 42.7443C46.751 42.8732 46.9325 42.9748 47.148 43.049C47.3691 43.1165 47.6185 43.1634 47.896 43.1897C48.1723 43.2111 48.4682 43.2221 48.7839 43.2225L48.2983 40.146ZM50.2448 43.1667C50.7787 43.141 51.3089 43.1293 51.8354 43.1318C52.3676 43.1275 52.8579 43.1762 53.3062 43.2781C53.7532 43.3751 54.137 43.5439 54.4577 43.7845C54.7855 44.0233 55.0111 44.3705 55.1347 44.826C55.2557 45.2717 55.2614 45.7217 55.1518 46.1759C55.0478 46.6234 54.8303 47.0537 54.4992 47.4668C54.1668 47.875 53.7251 48.2543 53.1741 48.6048C52.6289 48.9486 51.979 49.2387 51.2243 49.4751L51.4171 50.684C51.438 50.7887 51.4037 50.8976 51.3142 51.0105C51.226 51.1283 51.0942 51.2104 50.919 51.2568L50.078 51.4793L49.82 49.823C48.9744 49.9732 48.1622 50.0254 47.3835 49.9794C46.6105 49.9267 45.9231 49.7883 45.3215 49.5643L45.8074 48.6561C45.8533 48.5757 45.9199 48.503 46.0074 48.4378C46.1006 48.3659 46.2067 48.3142 46.3259 48.2827C46.4731 48.2438 46.6421 48.2437 46.8329 48.2824C47.0307 48.3193 47.2605 48.3635 47.5224 48.415C47.7829 48.4615 48.0855 48.497 48.4301 48.5213C48.7735 48.5407 49.1655 48.5184 49.6064 48.4542L49.0284 44.7879C48.5098 44.8149 47.9915 44.8286 47.4733 44.8292C46.9608 44.8231 46.4826 44.7632 46.0386 44.6497C45.6017 44.5343 45.2202 44.3465 44.8941 44.0863C44.5751 43.8242 44.3492 43.4483 44.2162 42.9585C44.1165 42.5911 44.1211 42.2067 44.23 41.8051C44.3459 41.4017 44.5636 41.0134 44.883 40.6402C45.208 40.2602 45.6382 39.9075 46.1734 39.5821C46.7073 39.2519 47.3459 38.9753 48.0892 38.7524L47.9271 37.7401C47.9049 37.6305 47.9386 37.5192 48.0281 37.4062C48.1176 37.2933 48.25 37.2137 48.4252 37.1673L49.2663 36.9448L49.4994 38.4265C50.2553 38.3053 50.9316 38.2786 51.5284 38.3464C52.124 38.4094 52.6587 38.5251 53.1326 38.6937L52.7454 39.4261C52.6378 39.6384 52.4718 39.7742 52.2475 39.8335C52.1424 39.8613 52.0089 39.8678 51.8471 39.8528C51.6923 39.836 51.5068 39.8169 51.2906 39.7953C51.0814 39.7719 50.8442 39.7559 50.579 39.7474C50.3137 39.7388 50.0251 39.7548 49.7131 39.7953L50.2448 43.1667Z"
                  fill="white"/>
        </g>
    </g>
    <defs>
        <linearGradient id="paint0_linear" x1="189.096" y1="116.358" x2="189.849" y2="181.729"
                        gradientUnits="userSpaceOnUse">
            <stop stop-color="white"/>
            <stop offset="1" stop-color="#C4CDD5"/>
        </linearGradient>
        <linearGradient id="paint1_linear" x1="270.344" y1="116.36" x2="269.59" y2="181.731"
                        gradientUnits="userSpaceOnUse">
            <stop stop-color="white"/>
            <stop offset="1" stop-color="#C4CDD5"/>
        </linearGradient>
        <linearGradient id="paint2_linear" x1="229.486" y1="61.6729" x2="229.486" y2="104.041"
                        gradientUnits="userSpaceOnUse">
            <stop stop-color="#C4CDD5"/>
            <stop offset="1" stop-color="#F9FAFB"/>
        </linearGradient>
        <linearGradient id="paint3_linear" x1="318.192" y1="27.8008" x2="303.684" y2="52.2892"
                        gradientUnits="userSpaceOnUse">
            <stop stop-color="#F3F5F7"/>
            <stop offset="1" stop-color="white"/>
        </linearGradient>
        <linearGradient id="paint4_linear" x1="137.994" y1="27.8008" x2="152.502" y2="52.2892"
                        gradientUnits="userSpaceOnUse">
            <stop stop-color="#F3F5F7"/>
            <stop offset="1" stop-color="white"/>
        </linearGradient>
        <linearGradient id="paint5_linear" x1="11.0966" y1="7.21499" x2="102.14" y2="55.5469"
                        gradientUnits="userSpaceOnUse">
            <stop stop-color="#3DFF17"/>
            <stop offset="1" stop-color="#00FF94"/>
        </linearGradient>
        <linearGradient id="paint6_linear" x1="11.0967" y1="7.21503" x2="102.141" y2="55.5472"
                        gradientUnits="userSpaceOnUse">
            <stop stop-color="#3DFF17"/>
            <stop offset="1" stop-color="#00FF94"/>
        </linearGradient>
        <linearGradient id="paint7_linear" x1="3.43839" y1="1.8457" x2="29.0214" y2="18.2961"
                        gradientUnits="userSpaceOnUse">
            <stop stop-color="#3DFF17"/>
            <stop offset="1" stop-color="#00FF94"/>
        </linearGradient>
        <linearGradient id="paint8_linear" x1="3.43839" y1="1.8457" x2="29.0214" y2="18.2961"
                        gradientUnits="userSpaceOnUse">
            <stop stop-color="#3DFF17"/>
            <stop offset="1" stop-color="#00FF94"/>
        </linearGradient>
        <linearGradient id="paint9_linear" x1="5.15758" y1="3.5236" x2="48.369" y2="25.3553"
                        gradientUnits="userSpaceOnUse">
            <stop stop-color="#3DFF17"/>
            <stop offset="1" stop-color="#00FF94"/>
        </linearGradient>
        <linearGradient id="paint10_linear" x1="5.15758" y1="3.5236" x2="48.369" y2="25.3553"
                        gradientUnits="userSpaceOnUse">
            <stop stop-color="#3DFF17"/>
            <stop offset="1" stop-color="#00FF94"/>
        </linearGradient>
    </defs>
</svg>
