<?xml version="1.0" encoding="UTF-8"?>
<svg width="167px" height="82px" viewBox="0 0 167 82" version="1.1" xmlns="http://www.w3.org/2000/svg" xmlns:xlink="http://www.w3.org/1999/xlink">
    <!-- Generator: sketchtool 63.1 (101010) - https://sketch.com -->
    <title>5C836976-A404-43DB-AED3-A1481B1BC381@2x</title>
    <desc>Created with sketchtool.</desc>
    <defs>
        <polygon id="path-1" points="0.259677199 0.52 35.8118951 0.52 35.8118951 35.2185223 0.259677199 35.2185223"></polygon>
    </defs>
    <g id="vip" stroke="none" stroke-width="1" fill="none" fill-rule="evenodd">
        <g id="vip2-1-mobile" transform="translate(-157.000000, -695.000000)">
            <g id="top">
                <g id="Group-68" transform="translate(157.000000, 694.000000)">
                    <g id="Group-7" transform="translate(0.000003, 0.480500)">
                        <path d="M0.00899696265,41.4762 C-0.187003037,24.3872 2.35499696,9.1252 54.709997,16.2792 C107.065997,23.4342 151.007997,-9.8148 162.079997,14.0602 C169.781997,30.6662 166.024997,49.1312 160.643997,63.7292 C147.874997,98.3702 88.047997,71.8472 48.892997,78.5192 C13.538997,84.5432 0.359996963,72.0542 0.00899696265,41.4762" id="Fill-1" fill="#7373E5"></path>
                        <g id="beer" transform="translate(2.999997, 0.000000)">
                            <path d="M31.5513,3.0331 L18.1173,5.2921 L16.1623,5.6211 L2.7283,7.8801 C2.7283,7.8801 1.0793,18.6881 2.9643,26.3151 C4.8503,33.9431 6.2743,38.2301 8.7743,43.5361 C11.2743,48.8441 13.6143,60.3671 13.7683,66.0681 C13.8013,68.6491 14.6063,69.2541 15.6743,69.6281 C16.5543,69.9371 23.5883,69.1281 27.7303,68.4321 C32.4583,67.6371 38.7833,66.1981 39.5143,65.6191 C40.4003,64.9161 40.9633,64.0811 40.1493,61.6321 C38.4313,56.1941 36.8733,44.5391 37.5003,38.7061 C38.1273,32.8731 38.0713,28.3571 37.3573,20.5321 C36.6443,12.7071 31.5513,3.0331 31.5513,3.0331" id="Fill-4" fill="#E7E6E2"></path>
                            <path d="M36.8584,16.8579 C35.3094,9.9719 31.6464,3.0169 31.6464,3.0169 L2.8234,7.8639 C2.8234,7.8639 1.6404,15.6319 2.4254,22.6459 C6.1814,21.0449 12.3334,19.3819 19.3794,18.1979 C26.4274,17.0119 32.7854,16.5709 36.8584,16.8579" id="Fill-6" fill="#E7E6E2"></path>
                            <path d="M2.8229,7.8641 C2.8229,7.8641 1.6399,15.6321 2.4259,22.6461 C6.1809,21.0451 12.3329,19.3821 19.3799,18.1971 C24.4289,17.3481 29.1229,16.8811 32.8779,16.7901 C31.7219,12.2271 30.2709,7.6531 27.3439,3.7401 L2.8229,7.8641 Z" id="Fill-8" fill="#FFF1E6"></path>
                            <path d="M30.5604,3.1998 L26.5834,3.8688 C29.3434,7.8088 30.7444,12.3908 31.8714,16.9598 C33.2474,16.9408 34.4894,16.9808 35.5614,17.0758 C34.0404,10.1858 30.5604,3.1998 30.5604,3.1998" id="Fill-10" fill="#FFDEC5"></path>
                            <path d="M40.1552,61.631 C40.1412,61.587 40.1272,61.541 40.1142,61.496 C40.0032,63.202 39.0012,64.866 37.3122,65.435 C30.3972,68.075 23.4982,68.312 16.5152,69.302 C15.9502,69.397 15.4232,69.378 14.9302,69.271 C15.1582,69.424 15.4112,69.532 15.6802,69.627 C16.5602,69.936 23.5952,69.127 27.7352,68.431 C32.4652,67.636 38.7892,66.198 39.5202,65.618 C40.4072,64.915 40.9682,64.081 40.1552,61.631" id="Fill-12" fill="#CCCCCC"></path>
                            <path d="M35.5614,17.076 C31.7834,16.74 25.8974,17.101 19.3804,18.197 C12.8644,19.293 7.1834,20.876 3.7234,22.428 C3.8704,23.685 4.0744,24.921 4.3554,26.082 C6.1974,33.717 7.5714,38.012 9.9524,43.338 C12.2794,48.542 14.5374,59.657 14.8414,65.476 C17.9334,65.435 22.3914,64.988 27.3044,64.162 C32.0194,63.369 36.2254,62.383 39.1514,61.446 C37.5294,55.866 36.0144,44.567 36.5144,38.872 C37.0224,33.059 36.9154,28.551 36.1564,20.734 C36.0424,19.545 35.8334,18.313 35.5614,17.076" id="Fill-14" fill="#FFC408"></path>
                            <path d="M35.5614,17.076 C34.8694,17.014 32.6964,16.974 31.8714,16.959 C34.5504,28.32 35.0984,39.527 31.0694,50.78 C27.4064,61.014 16.1644,62.591 14.6984,63.302 C14.7354,63.731 14.8204,65.091 14.8414,65.476 C17.9334,65.435 22.3914,64.988 27.3044,64.162 C32.0194,63.369 36.2254,62.383 39.1514,61.446 C37.5294,55.866 36.0144,44.567 36.5144,38.872 C37.0224,33.059 36.9154,28.551 36.1564,20.734 C36.0424,19.545 35.8334,18.313 35.5614,17.076" id="Fill-16" fill="#FFAC06"></path>
                            <path d="M28.9301,24.9053 C30.9301,36.8013 27.8691,47.2333 22.0911,48.2043 C16.3131,49.1763 10.0071,40.3193 8.0071,28.4233 C6.0071,16.5273 9.0691,6.0953 14.8461,5.1243 C20.6241,4.1523 26.9291,13.0093 28.9301,24.9053" id="Fill-18" fill="#FFFFFF"></path>
                            <g id="Group-54" transform="translate(19.000000, 20.000000)" fill="#FFF200">
                                <path d="M12.895,37.3153 C12.944,37.8173 12.522,38.2763 11.952,38.3403 C11.382,38.4053 10.881,38.0503 10.832,37.5493 C10.783,37.0463 11.206,36.5883 11.775,36.5233 C12.345,36.4583 12.846,36.8133 12.895,37.3153" id="Fill-20"></path>
                                <path d="M4.4407,42.8046 C4.4887,43.3056 4.0667,43.7656 3.4967,43.8296 C2.9277,43.8946 2.4257,43.5396 2.3767,43.0376 C2.3287,42.5366 2.7507,42.0766 3.3207,42.0126 C3.8907,41.9476 4.3917,42.3016 4.4407,42.8046" id="Fill-22"></path>
                                <path d="M6.6832,38.9376 C6.7072,39.1946 6.4912,39.4316 6.1982,39.4636 C5.9062,39.4976 5.6482,39.3156 5.6242,39.0566 C5.5982,38.7996 5.8152,38.5636 6.1082,38.5306 C6.4012,38.4966 6.6582,38.6786 6.6832,38.9376" id="Fill-24"></path>
                                <path d="M9.8176,30.8719 C9.8376,31.0769 9.6646,31.2639 9.4326,31.2909 C9.2006,31.3169 8.9956,31.1719 8.9756,30.9669 C8.9556,30.7619 9.1276,30.5749 9.3606,30.5489 C9.5926,30.5229 9.7976,30.6669 9.8176,30.8719" id="Fill-26"></path>
                                <path d="M5.6245,8.4935 C5.6445,8.6975 5.4715,8.8855 5.2395,8.9125 C5.0075,8.9385 4.8025,8.7935 4.7825,8.5885 C4.7625,8.3835 4.9345,8.1965 5.1675,8.1695 C5.3995,8.1445 5.6045,8.2885 5.6245,8.4935" id="Fill-28"></path>
                                <path d="M3.3358,32.3908 C3.3578,32.6148 3.1688,32.8198 2.9148,32.8488 C2.6608,32.8778 2.4368,32.7188 2.4148,32.4948 C2.3938,32.2718 2.5818,32.0658 2.8358,32.0368 C3.0898,32.0088 3.3138,32.1668 3.3358,32.3908" id="Fill-30"></path>
                                <path d="M4.1477,21.5587 C4.1697,21.7827 3.9817,21.9877 3.7267,22.0167 C3.4727,22.0457 3.2487,21.8877 3.2277,21.6627 C3.2057,21.4397 3.3937,21.2347 3.6477,21.2057 C3.9027,21.1767 4.1267,21.3347 4.1477,21.5587" id="Fill-32"></path>
                                <path d="M6.5119,34.3474 C6.5399,34.6334 6.2989,34.8954 5.9739,34.9324 C5.6489,34.9694 5.3629,34.7674 5.3349,34.4804 C5.3069,34.1944 5.5469,33.9324 5.8729,33.8954 C6.1979,33.8584 6.4839,34.0614 6.5119,34.3474" id="Fill-34"></path>
                                <path d="M2.6516,14.6093 C2.6796,14.8963 2.4386,15.1573 2.1136,15.1943 C1.7886,15.2313 1.5026,15.0293 1.4746,14.7423 C1.4466,14.4563 1.6876,14.1943 2.0126,14.1573 C2.3376,14.1203 2.6236,14.3233 2.6516,14.6093" id="Fill-36"></path>
                                <path d="M10.6051,20.1186 C10.6331,20.4046 10.3921,20.6666 10.0661,20.7036 C9.7421,20.7406 9.4561,20.5386 9.4281,20.2516 C9.4001,19.9656 9.6411,19.7036 9.9661,19.6666 C10.2911,19.6296 10.5771,19.8326 10.6051,20.1186" id="Fill-38"></path>
                                <path d="M7.4607,1.4198 C7.4887,1.7058 7.2477,1.9678 6.9217,2.0048 C6.5977,2.0418 6.3107,1.8388 6.2837,1.5528 C6.2557,1.2668 6.4967,1.0048 6.8217,0.9678 C7.1467,0.9308 7.4327,1.1338 7.4607,1.4198" id="Fill-40"></path>
                                <path d="M9.0973,26.0238 C9.1073,26.1218 9.0243,26.2118 8.9133,26.2248 C8.8013,26.2368 8.7033,26.1678 8.6933,26.0688 C8.6843,25.9708 8.7673,25.8818 8.8783,25.8688 C8.9893,25.8558 9.0883,25.9248 9.0973,26.0238" id="Fill-42"></path>
                                <path d="M2.7542,3.8763 C2.7642,3.9743 2.6812,4.0643 2.5702,4.0773 C2.4582,4.0893 2.3612,4.0203 2.3512,3.9213 C2.3412,3.8233 2.4242,3.7343 2.5352,3.7213 C2.6462,3.7083 2.7452,3.7783 2.7542,3.8763" id="Fill-44"></path>
                                <path d="M0.9276,21.9054 C0.9376,22.0034 0.8556,22.0934 0.7436,22.1064 C0.6326,22.1184 0.5346,22.0494 0.5246,21.9514 C0.5156,21.8534 0.5976,21.7634 0.7096,21.7504 C0.8206,21.7374 0.9186,21.8074 0.9276,21.9054" id="Fill-46"></path>
                                <path d="M8.6159,16.8971 C8.6249,16.9951 8.5419,17.0851 8.4319,17.0971 C8.3199,17.1111 8.2219,17.0411 8.2129,16.9421 C8.2029,16.8451 8.2849,16.7551 8.3969,16.7421 C8.5079,16.7291 8.6069,16.7991 8.6159,16.8971" id="Fill-48"></path>
                                <path d="M5.7368,13.0476 C5.7458,13.1456 5.6638,13.2356 5.5528,13.2486 C5.4408,13.2606 5.3438,13.1916 5.3338,13.0936 C5.3238,12.9956 5.4058,12.9056 5.5178,12.8926 C5.6298,12.8796 5.7278,12.9496 5.7368,13.0476" id="Fill-50"></path>
                                <path d="M3.2383,27.1905 C3.2483,27.2875 3.1663,27.3775 3.0543,27.3905 C2.9423,27.4035 2.8443,27.3335 2.8353,27.2355 C2.8253,27.1375 2.9083,27.0475 3.0193,27.0355 C3.1313,27.0225 3.2283,27.0915 3.2383,27.1905" id="Fill-52"></path>
                            </g>
                            <path d="M5.2991,14.7833 C5.2991,14.7833 7.6151,31.7083 14.0451,42.7423 C17.9881,49.5093 18.6761,66.1683 15.6831,67.9033 C14.3631,69.1713 18.1391,68.7523 21.4881,68.2513 C24.8381,67.7493 20.8401,66.5813 20.6821,62.7283 C20.5251,58.8743 20.0411,50.4753 17.7781,42.8493 C15.5141,35.2243 12.4511,12.7123 12.4511,12.7123 L5.2991,14.7833 Z" id="Fill-55" fill="#FFF1E6"></path>
                            <g id="Group-59">
                                <mask id="mask-2" fill="white">
                                    <use xlink:href="#path-1"></use>
                                </mask>
                                <g id="Clip-58"></g>
                                <path d="M35.2097,12.2096 C35.2097,12.2096 32.6477,3.5566 29.5747,6.4756 C26.5007,9.3936 27.6417,8.2626 26.5417,9.5566 C25.4407,10.8506 22.9527,12.6076 21.1497,20.7626 C20.1877,24.6206 21.4137,29.5866 18.6427,33.1476 C15.8727,36.7086 12.8987,34.9906 11.8467,33.0896 C10.7937,31.1876 10.9997,27.1816 10.0717,24.5666 C9.1437,21.9506 6.9577,17.3766 3.7267,18.1966 C1.9697,18.4926 2.1867,20.0726 2.1867,20.0726 C2.1867,20.0726 -0.5043,19.4626 0.4737,15.6956 C1.4517,11.9276 -0.2133,9.5756 2.5987,6.8396 C5.4097,4.1036 12.1387,1.7246 20.5787,0.8136 C29.0197,-0.0984 33.4127,1.0566 34.5677,5.0206 C35.7217,8.9826 36.3497,12.0176 35.2097,12.2096" id="Fill-57" fill="#FFFEFA" mask="url(#mask-2)"></path>
                            </g>
                            <path d="M7.5252,18.5742 C6.4962,17.4542 3.9282,17.6542 2.4052,17.3562 C1.5272,17.1342 2.3392,15.7052 2.5962,14.7382 C3.0682,13.4802 0.9722,9.7242 2.6532,6.7882 C2.6352,6.8052 2.6152,6.8222 2.5982,6.8392 C-0.2138,9.5752 1.4512,11.9282 0.4742,15.6952 C-0.5038,19.4622 2.1872,20.0722 2.1872,20.0722 C2.1872,20.0722 1.9702,18.4922 3.7262,18.1972 C6.9582,17.3762 9.1432,21.9512 10.0712,24.5662 C10.3452,25.3382 10.5192,26.2312 10.6572,27.1552 C10.7802,26.7552 10.8572,26.3482 10.7852,25.9242 C10.6802,22.8012 9.5832,20.8142 7.5252,18.5742" id="Fill-60" fill="#FFFAF8"></path>
                            <path d="M34.5677,5.0202 C33.9457,2.8862 32.3827,1.5682 29.7577,0.9462 C31.1267,1.6712 34.4287,3.9802 32.2247,4.6282 C29.0977,4.7842 26.8357,4.7482 25.2317,7.7442 C24.9477,8.2762 23.4087,10.5902 23.1747,11.1392 C20.5447,17.2882 18.8117,22.0802 18.1657,28.2402 C18.0447,29.3952 17.3687,31.0062 16.4677,31.8962 C14.8917,33.0712 12.4537,33.0342 11.2287,31.1882 C11.3757,31.9272 11.5667,32.5832 11.8467,33.0892 C12.8987,34.9912 15.8727,36.7082 18.6427,33.1472 C21.4137,29.5872 20.1877,24.6202 21.1497,20.7632 C22.9527,12.6082 25.4407,10.8502 26.5417,9.5572 C27.6417,8.2632 26.5007,9.3942 29.5747,6.4752 C32.6477,3.5572 35.2097,12.2092 35.2097,12.2092 C36.3497,12.0182 35.7217,8.9822 34.5677,5.0202" id="Fill-62" fill="#F2E6DD"></path>
                            <path d="M14.5359,66.9254 C14.5359,66.9254 13.9749,68.8344 16.3229,68.7274 C18.6709,68.6204 26.2689,67.9084 30.6609,66.9394 C30.6609,66.9394 17.2569,68.4804 16.3039,68.2604 C15.1359,67.9914 14.6369,67.3244 14.5359,66.9254" id="Fill-64" fill="#FFFFFF"></path>
                            <path d="M19.2089,56.7379 C19.6159,60.1469 19.6899,62.9429 19.3749,62.9849 C19.0589,63.0259 18.4729,60.2959 18.0649,56.8869 C17.6579,53.4789 17.5839,50.6819 17.8989,50.6409 C18.2149,50.5999 18.8009,53.3289 19.2089,56.7379" id="Fill-66" fill="#FFFFFF"></path>
                        </g>
                    </g>
                </g>
            </g>
        </g>
    </g>
</svg>