<svg width="128" height="80" viewBox="0 0 128 80" fill="none" xmlns="http://www.w3.org/2000/svg">
    <path d="M116.912 18.3827C117.23 18.1909 117.628 18.1909 117.946 18.3827L121.58 20.5762C122.337 21.0332 123.272 20.3543 123.071 19.4928L122.106 15.3586C122.022 14.9971 122.145 14.6186 122.425 14.3756L125.638 11.5927C126.306 11.0135 125.949 9.9152 125.067 9.84042L120.84 9.48176C120.47 9.4504 120.148 9.21707 120.004 8.87557L118.35 4.97315C118.005 4.16012 116.853 4.16012 116.508 4.97315L114.854 8.87557C114.71 9.21707 114.388 9.4504 114.018 9.48176L109.791 9.84042C108.909 9.9152 108.552 11.0135 109.22 11.5927L112.433 14.3756C112.713 14.6186 112.836 14.9971 112.752 15.3586L111.787 19.4928C111.587 20.3543 112.521 21.0332 113.278 20.5762L116.912 18.3827Z"
          fill="white"/>
    <path d="M109.929 10.8008L95.4291 29.3008L96.9291 31.5508M121.929 20.3008L98.4291 33.8008L96.9291 31.5508M96.9291 31.5508L112.929 20.3008"
          stroke="white" stroke-opacity="0.2"/>
    <path d="M111.429 33.3002L98.0233 41.5143L98.6348 43.3218M117.929 39.3004L99.2462 45.1293L98.6348 43.3218M98.6348 43.3218L113.429 37.3008"
          stroke="white" stroke-opacity="0.2"/>
    <path d="M115.606 38.3291C115.924 38.1373 116.322 38.1373 116.64 38.3291L118.455 39.4246C119.212 39.8817 120.146 39.2027 119.945 38.3412L119.464 36.2764C119.379 35.9149 119.502 35.5364 119.783 35.2934L121.388 33.9028C122.056 33.3236 121.699 32.2254 120.818 32.1506L118.707 31.9715C118.337 31.9401 118.015 31.7068 117.87 31.3653L117.044 29.4146C116.699 28.6015 115.547 28.6015 115.202 29.4146L114.375 31.3653C114.231 31.7068 113.909 31.9401 113.539 31.9715L111.428 32.1506C110.547 32.2254 110.189 33.3236 110.858 33.9028L112.463 35.2934C112.744 35.5364 112.867 35.9149 112.782 36.2764L112.301 38.3412C112.1 39.2027 113.034 39.8817 113.791 39.4246L115.606 38.3291Z"
          fill="#ADB4E2"/>
    <path d="M11.4291 40.3008L28.452 47.209L29.7116 45.7757M18.429 34.3008L30.9713 44.3424L29.7116 45.7757M29.7116 45.7757L15.4291 37.3008"
          stroke="white" stroke-opacity="0.2"/>
    <path d="M16.9474 36.9522C16.8444 36.5956 16.9473 36.2112 17.2149 35.9539L18.7428 34.4842C19.3803 33.871 18.9663 32.7929 18.0822 32.764L15.963 32.6949C15.592 32.6828 15.2583 32.4662 15.0961 32.1323L14.1684 30.2219C13.782 29.4262 12.6286 29.4872 12.3283 30.3192L11.6089 32.3119C11.483 32.6608 11.1743 32.9113 10.8069 32.9627L8.70867 33.2564C7.83416 33.3789 7.53593 34.4919 8.23207 35.0351L9.90237 36.3386C10.1948 36.5668 10.3369 36.9381 10.2715 37.3032L9.89811 39.3886C9.74222 40.2594 10.7105 40.8889 11.4431 40.393L13.2017 39.2024C13.5091 38.9943 13.9064 38.9736 14.2338 39.1486L16.1036 40.1483C16.8836 40.5654 17.7813 39.8387 17.5358 38.9889L16.9474 36.9522Z"
          fill="#ADB4E2"/>
    <path d="M29.929 13.5721L39.1428 26.6513L40.9503 26.0398M37.429 7.30093L42.7579 25.4283L40.9503 26.0398M40.9503 26.0398L35.429 12.3008"
          stroke="white" stroke-opacity="0.2"/>
    <path d="M35.6739 10.1846C35.5709 9.82797 35.6739 9.44364 35.9414 9.18632L37.4694 7.71664C38.1069 7.10343 37.6929 6.0253 36.8088 5.99645L34.6896 5.92732C34.3186 5.91521 33.9848 5.6986 33.8227 5.36469L32.895 3.45434C32.5085 2.65861 31.3552 2.71959 31.0548 3.55163L30.3355 5.54434C30.2095 5.89321 29.9008 6.14371 29.5335 6.19513L27.4352 6.48886C26.5607 6.61128 26.2625 7.72428 26.9586 8.26755L28.6289 9.57106C28.9213 9.79926 29.0634 10.1705 28.998 10.5356L28.6247 12.6211C28.4688 13.4918 29.4371 14.1213 30.1696 13.6254L31.9282 12.4348C32.2356 12.2267 32.633 12.206 32.9603 12.381L34.8301 13.3807C35.6102 13.7978 36.5079 13.0712 36.2623 12.2213L35.6739 10.1846Z"
          fill="#8D97D6"/>
    <path d="M92.74 9.58546L84.7764 25.1087L86.2097 26.3683M99.24 14.0855L87.643 27.628L86.2097 26.3683M86.2097 26.3683L94.24 14.0855"
          stroke="white" stroke-opacity="0.2"/>
    <path d="M96.1501 13.8877C96.4678 13.6959 96.8657 13.6959 97.1835 13.8877L98.9986 14.9832C99.7559 15.4402 100.69 14.7613 100.489 13.8998L100.007 11.835C99.9232 11.4735 100.046 11.095 100.327 10.852L101.932 9.46144C102.6 8.88223 102.243 7.78397 101.361 7.70919L99.2505 7.5301C98.8809 7.49874 98.559 7.26541 98.4143 6.92391L97.5875 4.97315C97.2429 4.16012 96.0907 4.16012 95.7461 4.97315L94.9193 6.92391C94.7745 7.26541 94.4527 7.49874 94.0831 7.5301L91.9721 7.70919C91.0907 7.78397 90.7333 8.88223 91.4019 9.46144L93.007 10.852C93.2876 11.095 93.4104 11.4735 93.3261 11.835L92.8444 13.8998C92.6434 14.7613 93.5777 15.4402 94.335 14.9832L96.1501 13.8877Z"
          fill="#8D97D6"/>
    <path d="M17.5054 15.197C17.4024 14.8404 17.5054 14.456 17.7729 14.1987L20.8322 11.256C21.4698 10.6428 21.0557 9.56467 20.1716 9.53583L15.9286 9.3974C15.5576 9.3853 15.2238 9.16868 15.0617 8.83477L13.205 5.01157C12.8186 4.21584 11.6653 4.27682 11.3649 5.10886L9.92432 9.09948C9.79838 9.44835 9.48968 9.69886 9.12236 9.75028L4.92484 10.3379C4.05033 10.4603 3.7521 11.5733 4.44824 12.1166L7.78961 14.7242C8.08201 14.9524 8.22409 15.3237 8.15872 15.6888L7.411 19.8651C7.25511 20.7358 8.22344 21.3653 8.95596 20.8694L12.4755 18.4867C12.7829 18.2786 13.1802 18.2579 13.5076 18.4329L17.2513 20.4345C18.0314 20.8516 18.929 20.1249 18.6835 19.2751L17.5054 15.197Z"
          fill="white"/>
    <path d="M8.42906 20.8008L29.5587 34.4843L31.7522 32.9029M19.429 10.8008L33.9458 31.3215L31.7522 32.9029M31.7522 32.9029L17.429 19.3008"
          stroke="white" stroke-opacity="0.2"/>
    <path d="M59.5088 13.4556L28.429 34.0324L101.629 34.0324L70.5496 13.4556C67.2028 11.2399 62.8556 11.2399 59.5088 13.4556Z"
          fill="#2D356A" fill-opacity="0.7"/>
    <rect width="60.9957" height="36.538" rx="4" transform="matrix(1 -1.06149e-07 0.00759535 0.999971 33.8558 22.3594)"
          fill="url(#paint0_linear)"/>
    <path d="M56.3033 39.9306C56.3033 39.5525 56.4175 39.23 56.6458 38.963C56.8856 38.685 57.2453 38.546 57.7248 38.546H59.5574V34.6089C59.5574 33.5634 59.7173 32.5736 60.037 31.6394C60.3681 30.694 60.8591 29.871 61.5099 29.1704C62.1607 28.4586 62.9771 27.8969 63.9591 27.4854C64.941 27.0739 66.0942 26.8682 67.4187 26.8682C68.3208 26.8682 69.1314 26.9849 69.8508 27.2185C70.5815 27.4409 71.2266 27.7468 71.7861 28.136C72.357 28.5253 72.848 28.9869 73.259 29.5207C73.6815 30.0434 74.0469 30.6106 74.3552 31.2223L72.6596 32.2733C72.26 32.4735 71.8775 32.5625 71.5121 32.5402C71.1581 32.518 70.8327 32.3401 70.5358 32.0064C70.3189 31.7617 70.102 31.5393 69.885 31.3391C69.6795 31.1278 69.4568 30.9498 69.2171 30.8053C68.9773 30.6496 68.709 30.5328 68.4121 30.4549C68.1266 30.3771 67.7955 30.3381 67.4187 30.3381C66.2427 30.3381 65.3635 30.7163 64.7812 31.4726C64.1988 32.2177 63.9077 33.2576 63.9077 34.5922V38.546H70.9126V40.1809C70.9126 40.4478 70.7985 40.6925 70.5701 40.9149C70.3417 41.1373 70.0563 41.2486 69.7137 41.2486H63.9077V44.485C63.9077 45.219 63.765 45.8752 63.4795 46.4535C63.2055 47.0207 62.8287 47.549 62.3491 48.0384C62.7602 47.9494 63.1712 47.8827 63.5823 47.8382C63.9933 47.7826 64.4158 47.7548 64.8497 47.7548H74.8861V49.4898C74.8861 49.69 74.8404 49.8957 74.7491 50.107C74.6692 50.3183 74.5493 50.513 74.3894 50.6909C74.2296 50.8577 74.0355 50.9968 73.8071 51.108C73.5787 51.2081 73.3276 51.2581 73.0535 51.2581H56.6458V48.6723C57.0226 48.5833 57.388 48.461 57.742 48.3053C58.0959 48.1385 58.4042 47.9327 58.6668 47.688C58.9408 47.4322 59.1578 47.1375 59.3176 46.8039C59.4775 46.4591 59.5574 46.0587 59.5574 45.6027V41.2486H56.3033V39.9306Z"
          fill="white"/>
    <path fill-rule="evenodd" clip-rule="evenodd"
          d="M101.45 33.1328L65.014 58.5805L28.5775 33.1328L28.4293 33.1328L28.4293 74.8011C28.4293 77.5625 30.6678 79.8011 33.4293 79.8011L96.6296 79.8011C99.3911 79.8011 101.63 77.5625 101.63 74.8011L101.63 33.1328L101.45 33.1328Z"
          fill="#2D356B"/>
    <defs>
        <linearGradient id="paint0_linear" x1="6.7773" y1="4.40659" x2="62.3826" y2="33.9255"
                        gradientUnits="userSpaceOnUse">
            <stop stop-color="#3DFF17"/>
            <stop offset="1" stop-color="#00FF94"/>
        </linearGradient>
    </defs>
</svg>
