<svg width="25" height="24" viewBox="0 0 25 24" fill="none" xmlns="http://www.w3.org/2000/svg">
    <path d="M10.2918 1.46193L1.80872e-07 8.27575L24.9999 8.27575L14.7081 1.46194C13.3694 0.575633 11.6305 0.575632 10.2918 1.46193Z"
          fill="#2D356A" fill-opacity="0.7"/>
    <rect width="20.8317" height="12.4787" rx="4" transform="matrix(1 -1.06149e-07 0.00759535 0.999971 1.85339 4.28906)"
          fill="url(#paint0_linear)"/>
    <path d="M9.51984 10.2903C9.51984 10.1611 9.55883 10.051 9.63682 9.95983C9.71871 9.86487 9.84155 9.81739 10.0053 9.81739H10.6312V8.47277C10.6312 8.11572 10.6858 7.77767 10.795 7.4586C10.9081 7.13574 11.0758 6.85466 11.298 6.61536C11.5203 6.37227 11.7991 6.18045 12.1345 6.03991C12.4699 5.89937 12.8637 5.8291 13.3161 5.8291C13.6241 5.8291 13.901 5.86898 14.1467 5.94875C14.3962 6.02472 14.6166 6.12917 14.8076 6.26212C15.0026 6.39506 15.1703 6.55269 15.3107 6.73501C15.455 6.91354 15.5798 7.10725 15.685 7.31616L15.106 7.67511C14.9695 7.74348 14.8388 7.77387 14.7141 7.76627C14.5932 7.75868 14.482 7.6979 14.3806 7.58395C14.3066 7.50039 14.2325 7.42442 14.1584 7.35605C14.0882 7.28388 14.0121 7.2231 13.9302 7.17373C13.8484 7.12055 13.7567 7.08067 13.6553 7.05408C13.5578 7.02749 13.4447 7.01419 13.3161 7.01419C12.9144 7.01419 12.6141 7.14334 12.4153 7.40163C12.2164 7.65612 12.1169 8.01127 12.1169 8.46707V9.81739H14.5093V10.3758C14.5093 10.4669 14.4703 10.5505 14.3923 10.6264C14.3144 10.7024 14.2169 10.7404 14.0999 10.7404H12.1169V11.8457C12.1169 12.0964 12.0682 12.3205 11.9707 12.518C11.8771 12.7118 11.7484 12.8922 11.5847 13.0593C11.725 13.0289 11.8654 13.0061 12.0058 12.9909C12.1462 12.9719 12.2905 12.9624 12.4387 12.9624H15.8664V13.555C15.8664 13.6234 15.8508 13.6936 15.8196 13.7658C15.7923 13.838 15.7513 13.9044 15.6967 13.9652C15.6422 14.0222 15.5759 14.0697 15.4979 14.1077C15.4199 14.1418 15.3341 14.1589 15.2405 14.1589H9.63682V13.2758C9.76551 13.2454 9.89029 13.2036 10.0112 13.1505C10.1321 13.0935 10.2374 13.0232 10.327 12.9397C10.4206 12.8523 10.4947 12.7516 10.5493 12.6377C10.6039 12.5199 10.6312 12.3832 10.6312 12.2275V10.7404H9.51984V10.2903Z"
          fill="white"/>
    <path fill-rule="evenodd" clip-rule="evenodd"
          d="M24.939 7.96875L12.4947 16.66L0.0504657 7.96875L9.15527e-05 7.96875L9.18574e-05 21.9072C9.18815e-05 23.0118 0.895521 23.9072 2.00009 23.9072L23 23.9072C24.1046 23.9072 25 23.0118 25 21.9072L25 7.96875L24.939 7.96875Z"
          fill="#2D356B"/>
    <defs>
        <linearGradient id="paint0_linear" x1="2.31463" y1="1.50497" x2="21.3054" y2="11.5865"
                        gradientUnits="userSpaceOnUse">
            <stop stop-color="#3DFF17"/>
            <stop offset="1" stop-color="#00FF94"/>
        </linearGradient>
    </defs>
</svg>
