<svg width="223" height="43" viewBox="0 0 223 43" fill="none" xmlns="http://www.w3.org/2000/svg">
<path d="M23.1239 27.496C19.4119 34.6 14.8679 38.696 11.3479 38.696C9.04395 38.696 6.61194 36.264 6.61194 30.76C6.61194 26.92 7.82794 21.672 10.6439 17.128C15.9559 8.55204 25.0439 2.98404 26.5799 4.64804C27.3479 5.48004 26.5799 7.52804 25.6839 9.76804C25.2999 10.728 24.8519 11.752 24.5959 12.712C24.3399 13.544 24.2119 14.312 24.2119 15.08C24.2119 16.936 25.1079 18.344 26.3879 19.176C27.6679 19.944 28.5639 19.304 28.8839 18.216C29.3319 16.808 30.2279 14.632 31.3159 12.456C31.9559 11.176 32.2119 9.89604 32.2119 8.74404C32.2119 6.24804 30.5479 3.75204 28.3719 1.83204C27.2839 0.936035 25.8119 0.488037 24.2119 0.488037C22.6119 0.488037 20.8199 0.936035 19.1559 1.57603C11.9239 4.84004 0.467944 16.424 0.723944 29.352C0.851944 34.6 3.47594 38.632 6.48394 40.232C8.08395 41.128 10.0039 41.576 12.1159 41.576C14.8679 41.576 17.7479 40.808 20.3719 38.952C22.6759 37.224 26.1319 33.512 26.1319 29.8C26.1319 29.16 26.0039 28.392 25.6839 27.688C25.0439 26.216 23.5719 26.6 23.1239 27.496Z" fill="url(#paint0_linear)"/>
<path d="M62.9979 23.08C64.4059 23.016 65.9419 22.696 67.6699 21.928C65.1739 24.872 62.2939 28.776 61.3339 31.976C61.0139 33.128 60.8219 34.344 60.8219 35.368C60.8219 39.08 63.0619 41.896 67.1579 42.024C70.9339 42.152 75.5419 39.336 77.2699 35.368C78.0379 33.576 77.8459 31.848 77.4619 31.08C76.9499 29.8 75.862 29.736 75.4139 30.76C73.366 35.432 69.782 39.656 67.5419 39.464C66.5819 39.4 66.0699 38.376 66.0699 36.776C66.0699 35.944 66.1979 34.92 66.5179 33.96C67.5419 30.824 70.7419 26.408 73.5579 23.208C74.1979 22.312 74.5179 21.416 74.5179 20.648C74.5179 18.984 73.558 17.32 72.6619 16.36C71.7659 15.4 71.1259 15.592 69.9099 16.424C68.0539 17.704 66.0059 18.664 64.2139 19.112C64.8539 17 65.3019 15.144 65.3019 13.672C65.3019 12.264 64.6619 11.368 63.3179 11.432C61.2699 11.56 57.3019 16.232 57.3019 19.496C57.3019 20.776 57.8139 21.8 59.2219 22.504C56.2779 31.528 51.0939 38.824 47.3819 39.208C46.7419 39.272 46.4219 38.696 46.4219 37.672C46.4219 36.776 46.8699 35.432 47.3819 34.024C48.0859 32.296 49.3659 30.248 50.5179 28.2C51.4779 26.408 52.5019 24.872 53.2699 23.144C53.9739 21.672 54.2299 20.328 54.2299 19.176C54.2299 17.768 53.7819 16.616 53.0779 15.848C52.2459 14.952 51.3499 15.272 50.5179 16.296C50.2619 16.68 49.8139 17.32 49.3019 18.152C48.7259 16.552 47.3819 15.464 45.2059 15.464C41.8139 15.464 36.6299 18.344 31.5099 25.704C29.2059 29.032 28.1819 32.36 28.1819 35.112C28.1819 39.016 30.2299 41.704 33.9419 41.704C36.6939 41.704 39.2539 39.976 41.2379 37.864C41.7499 40.424 43.7979 42.024 47.1259 41.832C54.0379 41.32 59.8619 31.912 62.9979 23.08ZM46.4859 20.584C46.4859 22.248 45.3339 25.384 42.9019 29.672C39.7659 35.176 36.6939 38.888 34.5819 38.888C34.0699 38.888 33.8779 38.056 33.8779 36.968C33.8779 34.792 34.8379 31.656 36.7579 28.584C40.1499 23.208 44.3739 19.368 46.1019 19.368C46.3579 19.368 46.4859 19.752 46.4859 20.584Z" fill="url(#paint1_linear)"/>
<path d="M91.3114 19.176C92.0154 19.752 90.6714 22.76 88.8154 25.256C87.5354 26.984 85.4874 28.904 83.9514 28.904C83.5034 28.904 83.0554 28.776 82.5434 28.456C85.6154 22.312 90.3514 18.408 91.3114 19.176ZM96.1114 21.736C96.1114 20.904 95.8554 19.944 95.4714 19.368C94.5754 18.088 93.2954 17.064 91.5034 16.04C90.8634 15.656 90.1594 15.528 89.2634 15.528C85.5514 15.528 80.3674 18.92 77.0394 25.704C75.6954 28.264 75.0554 30.76 75.0554 33.064C75.0554 38.184 78.3194 42.088 84.2714 42.024C89.2634 41.96 94.3834 38.952 97.0714 35.048C98.2234 33.32 98.1594 31.464 97.9674 30.888C97.4554 29.608 96.6234 29.736 95.9194 30.76C93.2954 34.728 89.0074 39.464 84.1434 39.464C82.2234 39.464 81.0714 37.48 81.0714 34.664C81.0714 33.512 81.2634 32.168 81.6474 30.888C83.1194 31.848 84.6554 32.296 86.1914 32.296C91.8234 32.296 96.1114 25.576 96.1114 21.736Z" fill="url(#paint2_linear)"/>
<path d="M103.747 27.176C106.371 21.992 110.723 18.28 111.875 19.176C112.515 19.688 111.043 22.824 109.251 25.128C107.971 26.856 106.243 28.712 104.579 28.712C104.131 28.712 103.683 28.584 103.171 28.328C103.299 28.008 103.427 27.752 103.747 27.176ZM139.459 30.952C138.819 29.544 137.859 29.8 137.283 31.016C135.363 35.496 131.715 39.4 129.411 39.4C128.515 39.4 128.003 38.312 128.003 36.648C128.003 35.88 128.195 34.728 128.451 33.896C129.603 30.632 132.739 26.28 135.491 23.08C136.259 22.248 136.579 21.416 136.579 20.648C136.579 19.048 135.491 17.32 134.659 16.232C133.891 15.208 132.995 15.656 131.971 16.296C129.859 17.64 128.195 18.536 126.403 18.984C127.107 16.872 127.619 14.952 127.619 13.608C127.619 12.2 127.107 11.368 125.763 11.368C123.587 11.432 119.299 16.104 119.299 19.496C119.299 20.648 119.939 21.608 121.091 22.312C117.699 30.12 111.043 39.336 104.643 39.336C102.851 39.336 101.699 37.416 101.699 34.472C101.699 33.32 101.891 31.976 102.275 30.696C103.747 31.72 105.283 32.104 106.819 32.104C109.635 32.104 112.067 30.504 113.923 28.2C115.651 25.96 116.611 23.336 116.611 21.48C116.611 20.712 116.355 19.944 116.035 19.368C115.011 18.088 113.795 17.128 112.067 16.04C111.427 15.656 110.723 15.528 109.891 15.528C106.243 15.528 100.995 19.112 97.6674 25.64C96.3874 28.2 95.7474 30.76 95.7474 33C95.7474 38.056 99.0114 41.896 104.899 41.832C112.707 41.704 119.555 33.896 124.803 22.952C126.211 22.888 127.811 22.632 129.539 21.864C126.979 24.872 124.483 28.392 123.395 31.848C122.947 33.192 122.755 34.344 122.755 35.368C122.755 39.144 124.995 41.96 129.027 41.96C132.803 41.96 137.539 39.208 139.139 35.24C139.971 33.448 139.779 31.656 139.459 30.952Z" fill="url(#paint3_linear)"/>
<path d="M150.629 35.752C150.885 39.016 151.909 40.68 154.021 41.768C155.109 42.344 155.813 41.96 156.197 41.192C160.101 32.552 167.973 17.512 171.557 11.624C173.541 8.42404 173.925 6.18404 173.925 4.64804C173.925 3.75204 173.733 2.92004 173.349 2.15203C172.645 0.936035 171.877 0.616035 170.917 1.96004C166.693 8.55204 160.485 19.752 156.133 28.904C156.581 21.544 157.157 14.888 158.053 9.70404C158.245 8.55204 158.373 7.52804 158.373 6.63204C158.373 4.32804 157.477 2.98404 155.557 1.57603C154.597 0.808037 153.829 0.808037 152.997 2.21604C148.133 10.28 140.005 25.512 136.677 34.088C136.165 35.432 135.845 36.968 135.845 37.928C135.845 39.4 136.421 40.68 137.061 41.512C137.957 42.472 138.917 42.408 139.365 41.128C142.181 33.256 146.725 24.424 151.269 16.616C150.693 22.056 150.437 27.368 150.437 31.08C150.437 32.616 150.501 33.896 150.629 35.752Z" fill="url(#paint4_linear)"/>
<path d="M213.115 29.544C209.915 35.24 206.459 39.336 204.475 39.336C204.027 39.336 203.771 38.824 203.771 37.992C203.771 37.096 204.219 35.624 204.923 34.152C206.907 29.736 209.595 25.832 210.811 23.336C211.643 21.736 211.899 20.392 211.899 19.112C211.899 17.768 211.515 16.872 210.875 15.912C210.043 14.76 209.147 15.016 208.187 16.36C207.099 17.896 206.139 19.56 205.179 21.48C203.963 23.656 202.427 26.472 199.739 30.888C196.923 35.624 194.683 39.08 193.275 39.08C192.699 39.08 192.507 38.696 192.507 37.928C192.507 37.032 192.763 35.816 193.339 34.408C194.619 31.4 196.155 28.584 198.267 25.064C199.675 22.824 200.379 20.84 200.379 19.24C200.379 18.216 200.059 17.192 199.419 16.296C198.715 15.336 197.499 15.208 196.731 16.36C196.027 17.32 195.131 18.728 194.491 19.752C192.571 22.824 189.499 25.448 186.555 26.024C186.875 22.504 185.787 20.456 184.507 19.176C184.187 18.856 183.867 18.536 183.611 18.152C182.139 16.168 180.987 15.592 178.683 15.784C174.779 16.04 170.491 19.88 168.123 24.04C166.523 26.856 165.435 30.312 165.435 33C165.435 34.92 166.075 36.968 167.291 38.568C169.083 40.872 171.387 41.768 173.371 41.768C179.259 41.768 184.379 34.472 186.043 28.52C187.259 28.52 188.539 28.328 189.819 27.88C189.115 29.416 188.603 30.76 188.091 32.232C187.515 33.896 187.259 35.368 187.259 36.584C187.259 39.4 188.603 41.64 191.611 41.64C194.427 41.64 196.731 40.104 198.651 38.056C199.035 40.296 200.699 41.96 203.195 41.96C207.611 41.96 212.155 37.16 216.507 30.056C220.667 23.4 221.563 20.648 222.011 18.216C222.331 16.488 221.691 15.528 220.603 15.528C218.747 15.528 214.459 18.856 213.115 29.544ZM181.755 24.936C181.051 24.104 180.731 22.44 180.731 21.288C180.731 20.264 181.307 19.752 181.691 19.752C182.139 19.752 182.651 20.136 182.651 21.096C182.651 21.928 182.395 23.464 181.755 24.936ZM170.491 35.88C170.491 33.512 171.451 29.992 173.179 26.92C174.203 25 175.547 23.336 176.827 21.992C177.211 24.104 178.875 26.024 180.795 27.048C180.283 28.456 179.515 30.056 178.491 31.848C176.251 36.2 173.563 38.504 171.899 38.504C171.067 38.504 170.491 37.8 170.491 35.88Z" fill="url(#paint5_linear)"/>
<defs>
<linearGradient id="paint0_linear" x1="2" y1="26" x2="228" y2="26" gradientUnits="userSpaceOnUse">
<stop stop-color="#CD00AC"/>
<stop offset="1" stop-color="#6100FF"/>
</linearGradient>
<linearGradient id="paint1_linear" x1="2" y1="26" x2="228" y2="26" gradientUnits="userSpaceOnUse">
<stop stop-color="#CD00AC"/>
<stop offset="1" stop-color="#6100FF"/>
</linearGradient>
<linearGradient id="paint2_linear" x1="2" y1="26" x2="228" y2="26" gradientUnits="userSpaceOnUse">
<stop stop-color="#CD00AC"/>
<stop offset="1" stop-color="#6100FF"/>
</linearGradient>
<linearGradient id="paint3_linear" x1="2" y1="26" x2="228" y2="26" gradientUnits="userSpaceOnUse">
<stop stop-color="#CD00AC"/>
<stop offset="1" stop-color="#6100FF"/>
</linearGradient>
<linearGradient id="paint4_linear" x1="2" y1="26" x2="228" y2="26" gradientUnits="userSpaceOnUse">
<stop stop-color="#CD00AC"/>
<stop offset="1" stop-color="#6100FF"/>
</linearGradient>
<linearGradient id="paint5_linear" x1="2" y1="26" x2="228" y2="26" gradientUnits="userSpaceOnUse">
<stop stop-color="#CD00AC"/>
<stop offset="1" stop-color="#6100FF"/>
</linearGradient>
</defs>
</svg>
