<svg width="112" height="22" viewBox="0 0 112 22" fill="none" xmlns="http://www.w3.org/2000/svg">
<path d="M11.5618 14.248C9.70575 17.8 7.43375 19.848 5.67375 19.848C4.52175 19.848 3.30575 18.632 3.30575 15.88C3.30575 13.96 3.91375 11.336 5.32175 9.064C7.97775 4.776 12.5218 1.992 13.2898 2.824C13.6738 3.24 13.2898 4.264 12.8418 5.384C12.6498 5.864 12.4258 6.376 12.2978 6.856C12.1698 7.272 12.1058 7.656 12.1058 8.04C12.1058 8.968 12.5538 9.672 13.1938 10.088C13.8338 10.472 14.2818 10.152 14.4418 9.608C14.6658 8.904 15.1138 7.816 15.6578 6.728C15.9778 6.088 16.1058 5.448 16.1058 4.872C16.1058 3.624 15.2738 2.376 14.1858 1.416C13.6418 0.967999 12.9058 0.743999 12.1058 0.743999C11.3058 0.743999 10.4098 0.967999 9.57775 1.288C5.96175 2.92 0.23375 8.712 0.36175 15.176C0.42575 17.8 1.73775 19.816 3.24175 20.616C4.04175 21.064 5.00175 21.288 6.05775 21.288C7.43375 21.288 8.87375 20.904 10.1858 19.976C11.3378 19.112 13.0658 17.256 13.0658 15.4C13.0658 15.08 13.0018 14.696 12.8418 14.344C12.5218 13.608 11.7858 13.8 11.5618 14.248ZM31.4988 12.04C32.2028 12.008 32.9708 11.848 33.8348 11.464C32.5868 12.936 31.1468 14.888 30.6667 16.488C30.5068 17.064 30.4108 17.672 30.4108 18.184C30.4108 20.04 31.5308 21.448 33.5788 21.512C35.4668 21.576 37.7708 20.168 38.6348 18.184C39.0188 17.288 38.9228 16.424 38.7308 16.04C38.4748 15.4 37.9308 15.368 37.7068 15.88C36.6828 18.216 34.8908 20.328 33.7708 20.232C33.2908 20.2 33.0347 19.688 33.0347 18.888C33.0347 18.472 33.0988 17.96 33.2588 17.48C33.7708 15.912 35.3708 13.704 36.7788 12.104C37.0988 11.656 37.2588 11.208 37.2588 10.824C37.2588 9.992 36.7788 9.16 36.3308 8.68C35.8828 8.2 35.5628 8.296 34.9548 8.712C34.0268 9.352 33.0028 9.832 32.1068 10.056C32.4268 9 32.6508 8.072 32.6508 7.336C32.6508 6.632 32.3308 6.184 31.6588 6.216C30.6348 6.28 28.6508 8.616 28.6508 10.248C28.6508 10.888 28.9068 11.4 29.6108 11.752C28.1388 16.264 25.5468 19.912 23.6908 20.104C23.3708 20.136 23.2108 19.848 23.2108 19.336C23.2108 18.888 23.4348 18.216 23.6908 17.512C24.0428 16.648 24.6828 15.624 25.2588 14.6C25.7388 13.704 26.2508 12.936 26.6348 12.072C26.9868 11.336 27.1148 10.664 27.1148 10.088C27.1148 9.384 26.8908 8.808 26.5388 8.424C26.1228 7.976 25.6748 8.136 25.2588 8.648C25.1308 8.84 24.9068 9.16 24.6508 9.576C24.3628 8.776 23.6908 8.232 22.6028 8.232C20.9068 8.232 18.3148 9.672 15.7548 13.352C14.6028 15.016 14.0907 16.68 14.0907 18.056C14.0907 20.008 15.1148 21.352 16.9708 21.352C18.3468 21.352 19.6268 20.488 20.6188 19.432C20.8748 20.712 21.8988 21.512 23.5628 21.416C27.0188 21.16 29.9308 16.456 31.4988 12.04ZM23.2428 10.792C23.2428 11.624 22.6667 13.192 21.4508 15.336C19.8828 18.088 18.3468 19.944 17.2908 19.944C17.0348 19.944 16.9388 19.528 16.9388 18.984C16.9388 17.896 17.4188 16.328 18.3788 14.792C20.0748 12.104 22.1868 10.184 23.0508 10.184C23.1788 10.184 23.2428 10.376 23.2428 10.792ZM45.6555 10.088C46.0075 10.376 45.3355 11.88 44.4075 13.128C43.7675 13.992 42.7435 14.952 41.9755 14.952C41.7515 14.952 41.5275 14.888 41.2715 14.728C42.8075 11.656 45.1755 9.704 45.6555 10.088ZM48.0555 11.368C48.0555 10.952 47.9275 10.472 47.7355 10.184C47.2875 9.544 46.6475 9.032 45.7515 8.52C45.4315 8.328 45.0795 8.264 44.6315 8.264C42.7755 8.264 40.1835 9.96 38.5195 13.352C37.8475 14.632 37.5275 15.88 37.5275 17.032C37.5275 19.592 39.1595 21.544 42.1355 21.512C44.6315 21.48 47.1915 19.976 48.5355 18.024C49.1115 17.16 49.0795 16.232 48.9835 15.944C48.7275 15.304 48.3115 15.368 47.9595 15.88C46.6475 17.864 44.5035 20.232 42.0715 20.232C41.1115 20.232 40.5355 19.24 40.5355 17.832C40.5355 17.256 40.6315 16.584 40.8235 15.944C41.5595 16.424 42.3275 16.648 43.0955 16.648C45.9115 16.648 48.0555 13.288 48.0555 11.368ZM51.8735 14.088C53.1855 11.496 55.3615 9.64 55.9375 10.088C56.2575 10.344 55.5215 11.912 54.6255 13.064C53.9855 13.928 53.1215 14.856 52.2895 14.856C52.0655 14.856 51.8415 14.792 51.5855 14.664C51.6495 14.504 51.7135 14.376 51.8735 14.088ZM69.7295 15.976C69.4095 15.272 68.9295 15.4 68.6415 16.008C67.6815 18.248 65.8575 20.2 64.7055 20.2C64.2575 20.2 64.0015 19.656 64.0015 18.824C64.0015 18.44 64.0975 17.864 64.2255 17.448C64.8015 15.816 66.3695 13.64 67.7455 12.04C68.1295 11.624 68.2895 11.208 68.2895 10.824C68.2895 10.024 67.7455 9.16 67.3295 8.616C66.9455 8.104 66.4975 8.328 65.9855 8.648C64.9295 9.32 64.0975 9.768 63.2015 9.992C63.5535 8.936 63.8095 7.976 63.8095 7.304C63.8095 6.6 63.5535 6.184 62.8815 6.184C61.7935 6.216 59.6495 8.552 59.6495 10.248C59.6495 10.824 59.9695 11.304 60.5455 11.656C58.8495 15.56 55.5215 20.168 52.3215 20.168C51.4255 20.168 50.8495 19.208 50.8495 17.736C50.8495 17.16 50.9455 16.488 51.1375 15.848C51.8735 16.36 52.6415 16.552 53.4095 16.552C54.8175 16.552 56.0335 15.752 56.9615 14.6C57.8255 13.48 58.3055 12.168 58.3055 11.24C58.3055 10.856 58.1775 10.472 58.0175 10.184C57.5055 9.544 56.8975 9.064 56.0335 8.52C55.7135 8.328 55.3615 8.264 54.9455 8.264C53.1215 8.264 50.4975 10.056 48.8335 13.32C48.1935 14.6 47.8735 15.88 47.8735 17C47.8735 19.528 49.5055 21.448 52.4495 21.416C56.3535 21.352 59.7775 17.448 62.4015 11.976C63.1055 11.944 63.9055 11.816 64.7695 11.432C63.4895 12.936 62.2415 14.696 61.6975 16.424C61.4735 17.096 61.3775 17.672 61.3775 18.184C61.3775 20.072 62.4975 21.48 64.5135 21.48C66.4015 21.48 68.7695 20.104 69.5695 18.12C69.9855 17.224 69.8895 16.328 69.7295 15.976ZM75.3145 18.376C75.4425 20.008 75.9545 20.84 77.0105 21.384C77.5545 21.672 77.9065 21.48 78.0985 21.096C80.0505 16.776 83.9865 9.256 85.7785 6.312C86.7705 4.712 86.9625 3.592 86.9625 2.824C86.9625 2.376 86.8665 1.96 86.6745 1.576C86.3225 0.967999 85.9385 0.807999 85.4585 1.48C83.3465 4.776 80.2425 10.376 78.0665 14.952C78.2905 11.272 78.5785 7.944 79.0265 5.352C79.1225 4.776 79.1865 4.264 79.1865 3.816C79.1865 2.664 78.7385 1.992 77.7785 1.288C77.2985 0.903999 76.9145 0.903999 76.4985 1.608C74.0665 5.64 70.0025 13.256 68.3385 17.544C68.0825 18.216 67.9225 18.984 67.9225 19.464C67.9225 20.2 68.2105 20.84 68.5305 21.256C68.9785 21.736 69.4585 21.704 69.6825 21.064C71.0905 17.128 73.3625 12.712 75.6345 8.808C75.3465 11.528 75.2185 14.184 75.2185 16.04C75.2185 16.808 75.2505 17.448 75.3145 18.376ZM106.557 15.272C104.957 18.12 103.229 20.168 102.237 20.168C102.013 20.168 101.885 19.912 101.885 19.496C101.885 19.048 102.109 18.312 102.461 17.576C103.453 15.368 104.797 13.416 105.405 12.168C105.821 11.368 105.949 10.696 105.949 10.056C105.949 9.384 105.757 8.936 105.437 8.456C105.021 7.88 104.573 8.008 104.093 8.68C103.549 9.448 103.069 10.28 102.589 11.24C101.981 12.328 101.213 13.736 99.8693 15.944C98.4613 18.312 97.3413 20.04 96.6373 20.04C96.3493 20.04 96.2533 19.848 96.2533 19.464C96.2533 19.016 96.3813 18.408 96.6693 17.704C97.3093 16.2 98.0773 14.792 99.1333 13.032C99.8373 11.912 100.189 10.92 100.189 10.12C100.189 9.608 100.029 9.096 99.7093 8.648C99.3573 8.168 98.7493 8.104 98.3653 8.68C98.0133 9.16 97.5653 9.864 97.2453 10.376C96.2853 11.912 94.7493 13.224 93.2773 13.512C93.4373 11.752 92.8933 10.728 92.2533 10.088C92.0933 9.928 91.9333 9.768 91.8053 9.576C91.0693 8.584 90.4933 8.296 89.3413 8.392C87.3893 8.52 85.2453 10.44 84.0613 12.52C83.2613 13.928 82.7172 15.656 82.7172 17C82.7172 17.96 83.0373 18.984 83.6453 19.784C84.5413 20.936 85.6933 21.384 86.6853 21.384C89.6293 21.384 92.1892 17.736 93.0213 14.76C93.6293 14.76 94.2693 14.664 94.9093 14.44C94.5573 15.208 94.3013 15.88 94.0453 16.616C93.7573 17.448 93.6293 18.184 93.6293 18.792C93.6293 20.2 94.3013 21.32 95.8053 21.32C97.2133 21.32 98.3653 20.552 99.3253 19.528C99.5173 20.648 100.349 21.48 101.597 21.48C103.805 21.48 106.077 19.08 108.253 15.528C110.333 12.2 110.781 10.824 111.005 9.608C111.165 8.744 110.845 8.264 110.301 8.264C109.373 8.264 107.229 9.928 106.557 15.272ZM90.8773 12.968C90.5253 12.552 90.3653 11.72 90.3653 11.144C90.3653 10.632 90.6533 10.376 90.8453 10.376C91.0693 10.376 91.3253 10.568 91.3253 11.048C91.3253 11.464 91.1973 12.232 90.8773 12.968ZM85.2453 18.44C85.2453 17.256 85.7253 15.496 86.5893 13.96C87.1013 13 87.7733 12.168 88.4133 11.496C88.6053 12.552 89.4373 13.512 90.3973 14.024C90.1413 14.728 89.7573 15.528 89.2453 16.424C88.1253 18.6 86.7812 19.752 85.9493 19.752C85.5333 19.752 85.2453 19.4 85.2453 18.44Z" fill="url(#paint0_linear)"/>
<defs>
<linearGradient id="paint0_linear" x1="1" y1="13" x2="114" y2="13" gradientUnits="userSpaceOnUse">
<stop stop-color="#CD00AC"/>
<stop offset="1" stop-color="#6100FF"/>
</linearGradient>
</defs>
</svg>
