<svg width="205" height="252" viewBox="0 0 205 252" fill="none" xmlns="http://www.w3.org/2000/svg">
<rect width="34.3742" height="20.591" rx="4" transform="matrix(1 0 0.00759524 0.999971 115 121)" fill="white" fill-opacity="0.07"/>
<rect x="115" y="146" width="24" height="4" rx="1" fill="white" fill-opacity="0.07"/>
<rect x="115" y="153" width="18" height="4" rx="1" fill="white" fill-opacity="0.07"/>
<rect width="34.3742" height="20.591" rx="4" transform="matrix(1 0 0.00759524 0.999971 67 121)" fill="white" fill-opacity="0.07"/>
<rect x="67" y="146" width="24" height="4" rx="1" fill="white" fill-opacity="0.07"/>
<rect x="67" y="153" width="18" height="4" rx="1" fill="white" fill-opacity="0.07"/>
<rect width="34.3742" height="20.591" rx="4" transform="matrix(1 0 0.00759524 0.999971 19 121)" fill="white" fill-opacity="0.07"/>
<rect x="19" y="146" width="24" height="4" rx="1" fill="white" fill-opacity="0.07"/>
<rect x="19" y="153" width="18" height="4" rx="1" fill="white" fill-opacity="0.07"/>
<rect width="34.3742" height="20.591" rx="4" transform="matrix(1 0 0.00759524 0.999971 115 74)" fill="white" fill-opacity="0.2"/>
<rect x="115" y="99" width="24" height="4" rx="1" fill="white" fill-opacity="0.2"/>
<rect x="115" y="106" width="18" height="4" rx="1" fill="white" fill-opacity="0.2"/>
<circle cx="158.5" cy="46.5" r="39.5" fill="#5C6AC4"/>
<path fill-rule="evenodd" clip-rule="evenodd" d="M204.5 46.5C204.5 72.1812 183.681 93 158 93C153.737 93 149.608 92.4264 145.686 91.3521L135.5 119L139 121.5L110 195L91 187.5L120.5 115.5H125.5L128 110.5L137.08 88.0395C121.906 80.3827 111.5 64.6566 111.5 46.5C111.5 20.8188 132.319 0 158 0C183.681 0 204.5 20.8188 204.5 46.5ZM198 47C198 68.5391 180.315 86 158.5 86C136.685 86 119 68.5391 119 47C119 25.4609 136.685 8 158.5 8C180.315 8 198 25.4609 198 47Z" fill="url(#paint0_linear)"/>
<path d="M59 172L39 199L0 252H73.5H88L104 193L92.5 186.5L97.2232 175.964C98.3941 173.352 100.112 171.021 102.261 169.13L107.157 164.821C109.994 162.325 112.066 159.076 113.132 155.45L117.655 140.075C118.539 137.067 120.118 134.309 122.265 132.025L131.646 122.038C133.399 120.172 133.965 117.484 133.113 115.069C132.146 112.331 129.558 110.5 126.654 110.5H126.276C124.19 110.5 122.201 111.383 120.802 112.93L104 131.5L94.5856 133.854C90.3148 134.921 86.5157 137.368 83.7772 140.815L59 172Z" fill="url(#paint1_linear)"/>
<path d="M129.543 170.426L129 169L118.611 172L114.167 175.938L112.856 182.129C112.626 183.216 112.789 184.349 113.316 185.327C114.654 187.81 117.863 188.562 120.163 186.931L125.723 182.99C129.713 180.163 131.284 174.995 129.543 170.426Z" fill="url(#paint2_linear)" stroke="#ECECEC"/>
<path d="M125.163 172.931L131.966 168.109C135.182 165.83 136.336 161.595 134.722 158H123.611L119.167 161.938L117.856 168.129C117.626 169.216 117.789 170.349 118.316 171.327C119.654 173.81 122.863 174.562 125.163 172.931Z" fill="url(#paint3_linear)" stroke="#ECECEC"/>
<path d="M129.854 160.302L136.051 155.965C138.92 153.956 139.949 150.188 138.5 147H128.5L124.5 150.5L123.327 155.974C123.116 156.959 123.265 157.986 123.747 158.87C124.949 161.073 127.798 161.741 129.854 160.302Z" fill="url(#paint4_linear)" stroke="#ECECEC"/>
<path d="M142.652 134.676L138.5 124L134.5 136.5L129.728 139.416C127.365 140.86 126.562 143.911 127.907 146.332C129.325 148.884 132.575 149.755 135.079 148.252L138.761 146.043C142.654 143.708 144.297 138.907 142.652 134.676Z" fill="url(#paint5_linear)" stroke="#ECECEC"/>
<rect width="47.7296" height="28.5912" rx="4" transform="matrix(1 0 0.00759524 0.999971 136 23)" fill="url(#paint6_linear)" fill-opacity="0.95"/>
<path d="M160.539 43.6343C161.425 43.5314 162.094 43.2457 162.546 42.7773C163.004 42.3089 163.231 41.7053 163.226 40.9666C163.224 40.6521 163.162 40.3778 163.042 40.1438C162.921 39.9099 162.755 39.7052 162.545 39.5298C162.343 39.3543 162.099 39.2045 161.815 39.0804C161.531 38.9489 161.225 38.8284 160.896 38.7189L160.539 43.6343ZM159.907 31.5552C159.46 31.5994 159.076 31.691 158.757 31.8302C158.437 31.962 158.174 32.1268 157.966 32.3244C157.759 32.5147 157.608 32.7306 157.512 32.972C157.417 33.2134 157.37 33.4695 157.372 33.7401C157.374 34.0473 157.432 34.3179 157.546 34.5519C157.659 34.7858 157.813 34.9942 158.009 35.1769C158.211 35.3524 158.447 35.5095 158.716 35.6483C158.986 35.7798 159.277 35.9039 159.591 36.0207L159.907 31.5552ZM161.059 36.4806C161.597 36.6412 162.128 36.8201 162.651 37.0172C163.181 37.2071 163.657 37.4555 164.076 37.7624C164.496 38.062 164.834 38.4385 165.09 38.8918C165.354 39.3452 165.489 39.9119 165.494 40.5921C165.498 41.2577 165.387 41.8868 165.16 42.4794C164.941 43.0647 164.612 43.5842 164.176 44.038C163.739 44.4844 163.201 44.8505 162.562 45.1361C161.93 45.4145 161.208 45.5795 160.396 45.6312L160.274 47.3867C160.268 47.5403 160.205 47.6793 160.087 47.8037C159.968 47.9355 159.816 48.0014 159.63 48.0015L158.735 48.002L158.909 45.5992C158.028 45.4974 157.207 45.2711 156.444 44.9205C155.688 44.5626 155.04 44.1168 154.5 43.5832L155.219 42.4966C155.286 42.4015 155.371 42.3246 155.475 42.266C155.586 42.2001 155.705 42.1672 155.832 42.1671C155.988 42.167 156.157 42.229 156.336 42.3533C156.524 42.4775 156.741 42.6236 156.988 42.7917C157.235 42.9525 157.527 43.1132 157.864 43.2739C158.2 43.4273 158.596 43.5404 159.051 43.6133L159.428 38.2919C158.905 38.1387 158.386 37.9671 157.87 37.7772C157.362 37.5801 156.902 37.3207 156.489 36.9991C156.084 36.6776 155.754 36.2755 155.497 35.7929C155.247 35.3103 155.12 34.7033 155.115 33.9719C155.111 33.4233 155.216 32.8893 155.428 32.3699C155.648 31.8504 155.966 31.3894 156.38 30.9869C156.802 30.577 157.322 30.2439 157.939 29.9875C158.556 29.7238 159.263 29.5734 160.06 29.5364L160.162 28.0661C160.168 27.9052 160.231 27.7625 160.349 27.6381C160.468 27.5137 160.62 27.4514 160.806 27.4513L161.701 27.4508L161.548 29.6013C162.332 29.7105 163.011 29.9222 163.588 30.2363C164.164 30.5432 164.666 30.9013 165.094 31.3106L164.518 32.1887C164.356 32.4448 164.156 32.5729 163.917 32.573C163.805 32.5731 163.671 32.533 163.514 32.4526C163.364 32.3722 163.184 32.2773 162.975 32.1677C162.773 32.0581 162.541 31.9485 162.279 31.839C162.018 31.7294 161.726 31.6455 161.405 31.5872L161.059 36.4806Z" fill="white"/>
<rect width="34.3742" height="20.591" rx="4" transform="matrix(1 0 0.00759524 0.999971 67 27)" fill="white" fill-opacity="0.4"/>
<rect x="136" y="56.5898" width="34" height="5" rx="1" fill="white" fill-opacity="0.4"/>
<rect x="136" y="66.5898" width="25" height="5" rx="1" fill="white" fill-opacity="0.4"/>
<rect x="67" y="52" width="24" height="4" rx="1" fill="white" fill-opacity="0.4"/>
<rect x="67" y="59" width="18" height="4" rx="1" fill="white" fill-opacity="0.4"/>
<rect width="34.3742" height="20.591" rx="4" transform="matrix(1 0 0.00759524 0.999971 19 27)" fill="white" fill-opacity="0.4"/>
<rect x="19" y="52" width="24" height="4" rx="1" fill="white" fill-opacity="0.4"/>
<rect x="19" y="59" width="18" height="4" rx="1" fill="white" fill-opacity="0.4"/>
<rect width="34.3742" height="20.591" rx="4" transform="matrix(1 0 0.00759524 0.999971 67 74)" fill="white" fill-opacity="0.2"/>
<rect x="67" y="99" width="24" height="4" rx="1" fill="white" fill-opacity="0.2"/>
<rect x="67" y="106" width="18" height="4" rx="1" fill="white" fill-opacity="0.2"/>
<rect width="34.3742" height="20.591" rx="4" transform="matrix(1 0 0.00759524 0.999971 19 74)" fill="white" fill-opacity="0.2"/>
<rect x="19" y="99" width="24" height="4" rx="1" fill="white" fill-opacity="0.2"/>
<rect x="19" y="106" width="18" height="4" rx="1" fill="white" fill-opacity="0.2"/>
<defs>
<linearGradient id="paint0_linear" x1="147.75" y1="0" x2="100.5" y2="195" gradientUnits="userSpaceOnUse">
<stop stop-color="#272F64"/>
<stop offset="1" stop-color="#41487D"/>
</linearGradient>
<linearGradient id="paint1_linear" x1="58.5" y1="196" x2="32.5" y2="252" gradientUnits="userSpaceOnUse">
<stop stop-color="white"/>
<stop offset="1" stop-color="#C4CDD5"/>
</linearGradient>
<linearGradient id="paint2_linear" x1="122.5" y1="169" x2="122.5" y2="190" gradientUnits="userSpaceOnUse">
<stop stop-color="white"/>
<stop offset="1" stop-color="#E8EBEE"/>
</linearGradient>
<linearGradient id="paint3_linear" x1="127.5" y1="158" x2="127.5" y2="176" gradientUnits="userSpaceOnUse">
<stop stop-color="white"/>
<stop offset="1" stop-color="#E8EBEE"/>
</linearGradient>
<linearGradient id="paint4_linear" x1="132" y1="147" x2="132" y2="163" gradientUnits="userSpaceOnUse">
<stop stop-color="white"/>
<stop offset="1" stop-color="#E8EBEE"/>
</linearGradient>
<linearGradient id="paint5_linear" x1="135.5" y1="124" x2="135.5" y2="151" gradientUnits="userSpaceOnUse">
<stop stop-color="white"/>
<stop offset="1" stop-color="#E8EBEE"/>
</linearGradient>
<linearGradient id="paint6_linear" x1="5.30329" y1="3.44819" x2="48.8148" y2="26.547" gradientUnits="userSpaceOnUse">
<stop stop-color="#3DFF17"/>
<stop offset="1" stop-color="#00FF94"/>
</linearGradient>
</defs>
</svg>
