<svg width="224" height="252" viewBox="0 0 224 252" fill="none" xmlns="http://www.w3.org/2000/svg">
<g clip-path="url(#clip0)">
<path d="M8.74854 175.557L0.920485 214.057L55.0559 159.922L16.5556 167.75C12.6223 168.55 9.54828 171.624 8.74854 175.557Z" fill="#2D356A" fill-opacity="0.7"/>
<path d="M46.571 205.572L55.0545 159.92L0.919095 214.055L46.571 205.572Z" fill="white" fill-opacity="0.8"/>
<rect width="63.7944" height="38.2144" rx="4" transform="matrix(0.707107 -0.707107 0.712457 0.701716 -0.000976562 205.109)" fill="url(#paint0_linear)" fill-opacity="0.95"/>
<path d="M42.692 201.419C43.4325 200.484 43.7947 199.581 43.7787 198.712C43.7698 197.836 43.4138 197.051 42.7108 196.357C42.4115 196.062 42.0941 195.861 41.7587 195.754C41.4233 195.647 41.0735 195.61 40.7093 195.643C40.3521 195.669 39.9806 195.757 39.5947 195.908C39.2018 196.053 38.7983 196.228 38.384 196.436L42.692 201.419ZM30.6787 190.6C30.298 191.064 30.0224 191.513 29.8519 191.947C29.6744 192.373 29.5811 192.778 29.5719 193.161C29.5557 193.537 29.6167 193.884 29.7549 194.202C29.893 194.52 30.0909 194.806 30.3485 195.06C30.6408 195.348 30.9512 195.55 31.2795 195.663C31.6079 195.777 31.9506 195.828 32.3077 195.817C32.6649 195.791 33.0363 195.717 33.4221 195.593C33.8008 195.463 34.1938 195.305 34.6009 195.119L30.6787 190.6ZM36.423 194.166C37.0831 193.809 37.7536 193.477 38.4344 193.169C39.1153 192.847 39.7991 192.632 40.4857 192.526C41.1654 192.412 41.8408 192.449 42.5118 192.635C43.1898 192.814 43.8524 193.222 44.4998 193.861C45.1332 194.485 45.6227 195.185 45.9683 195.959C46.3139 196.72 46.4948 197.521 46.5109 198.363C46.5201 199.197 46.3577 200.052 46.0236 200.926C45.6896 201.786 45.1632 202.624 44.4445 203.441L45.9883 205.215C46.1275 205.366 46.1999 205.557 46.2055 205.786C46.2182 206.023 46.1365 206.229 45.9605 206.405L45.1155 207.251L43.0084 204.816C42.0801 205.552 41.0898 206.115 40.0375 206.504C38.9853 206.88 37.9516 207.071 36.9365 207.078L36.5893 205.371C36.5622 205.218 36.5701 205.065 36.613 204.911C36.6559 204.744 36.7373 204.6 36.857 204.48C37.0048 204.332 37.2224 204.232 37.5098 204.18C37.8041 204.12 38.1475 204.053 38.54 203.978C38.9255 203.896 39.3532 203.773 39.8232 203.606C40.2862 203.433 40.7673 203.166 41.2664 202.805L36.5932 197.419C35.9542 197.769 35.3012 198.097 34.6344 198.405C33.9677 198.699 33.2875 198.889 32.594 198.975C31.9075 199.054 31.2148 198.986 30.516 198.773C29.8242 198.552 29.1303 198.099 28.4342 197.412C27.9122 196.898 27.5061 196.294 27.2161 195.602C26.9331 194.904 26.7974 194.168 26.8088 193.396C26.8204 192.609 26.9965 191.803 27.3373 190.978C27.6712 190.146 28.1974 189.335 28.916 188.547L27.6225 187.061C27.4764 186.903 27.4005 186.709 27.3948 186.48C27.3891 186.25 27.4743 186.047 27.6503 185.871L28.4953 185.025L30.3833 187.202C31.2271 186.565 32.0697 186.122 32.9112 185.875C33.7457 185.62 34.5585 185.484 35.3497 185.467L35.6358 186.84C35.7245 187.236 35.6562 187.546 35.4309 187.772C35.3253 187.877 35.1602 187.967 34.9358 188.039C34.7184 188.105 34.4589 188.185 34.1574 188.279C33.8628 188.366 33.5402 188.482 33.1893 188.626C32.8384 188.77 32.4838 188.966 32.1253 189.214L36.423 194.166Z" fill="white"/>
<path fill-rule="evenodd" clip-rule="evenodd" d="M0.99707 214.135L31.2327 244.37C33.1853 246.323 36.3511 246.323 38.3037 244.37L85.368 197.306C87.3207 195.353 87.3207 192.188 85.368 190.235L55.1324 159.999L55.017 160.115L46.5699 205.571L1.11397 214.018L0.99707 214.135Z" fill="#2D356A"/>
<path d="M96.946 153.461L201.999 128V188.96L89.3091 193L60.3139 174.359C56.9752 172.213 52.8468 171.686 49.076 172.925L34.5445 178.837C33.8084 179.136 33.0211 179.29 32.2264 179.29H27.8093C25.1527 179.29 22.999 177.136 22.999 174.48C22.999 173.498 23.449 172.57 24.2201 171.962L36.1782 162.531C39.7066 159.749 44.0692 158.235 48.5628 158.235H64.4912C65.5129 158.235 66.5332 158.157 67.543 158.001L96.946 153.461Z" fill="url(#paint1_linear)"/>
<path d="M164.223 17.0389L212.661 27.7141L180.742 119.014L149.384 101.035H128.105H105.035C99.9194 101.035 95.2066 98.2602 92.7253 93.7869C90.0523 88.9683 90.4369 83.033 93.7092 78.5995L102.909 66.1357L113.719 51.0947L136.769 25.829C137.665 24.8472 138.161 23.5661 138.161 22.2372C138.161 9.40621 154.517 3.99019 162.175 14.2855L164.223 17.0389Z" fill="url(#paint2_linear)"/>
<path fill-rule="evenodd" clip-rule="evenodd" d="M224.176 29.9504L172.224 18.4929L171.871 17.6616C166.191 4.28468 146.614 6.38744 143.905 20.6654C143.632 22.1057 142.83 23.392 141.657 24.2718L110.758 47.4534C108.132 49.423 106.032 52.0084 104.642 54.9816L100.592 63.644C100.103 64.6916 99.4348 65.6464 98.6187 66.4658L92.2874 72.8227C84.5149 80.6266 84.5149 93.246 92.2874 101.05L93.9894 102.759C97.7424 106.527 102.842 108.645 108.16 108.645H133.486H152.694C155.084 108.645 157.455 109.074 159.694 109.91L173.507 115.071C158.439 149.651 149.252 186.632 146.447 224.485L143 271H179.77H224V133.934L224.176 134V29.9504Z" fill="url(#paint3_linear)"/>
<path d="M90.1489 73.6849L91.9732 72.1486C94.4399 70.0714 98.0829 70.2148 100.379 72.4796L101.72 73.8029C109.546 81.5232 114.934 91.371 117.215 102.125C117.956 105.617 115.292 108.905 111.722 108.905H106.816C102.317 108.905 97.9613 107.324 94.5105 104.438L90.1946 100.828C81.7455 93.7615 81.7236 80.7798 90.1489 73.6849Z" fill="url(#paint4_linear)"/>
<path d="M82.7272 82.5915L83.3085 82.1039C84.0973 81.4423 85.2596 81.4881 85.9939 82.2096L86.4364 82.6444C88.9451 85.1092 90.6733 88.2576 91.4059 91.6973C91.6434 92.8127 90.7929 93.8634 89.6526 93.8634H88.0611C86.6201 93.8634 85.2247 93.3583 84.1175 92.436L82.7419 91.2901C80.0272 89.0287 80.0202 84.862 82.7272 82.5915Z" fill="url(#paint5_linear)"/>
<path d="M120.065 67.7764C118.378 67.7764 117.01 66.4086 117.01 64.7212C117.01 63.0339 118.378 61.666 120.065 61.666C121.752 61.666 123.12 63.0339 123.12 64.7212C123.12 66.4086 121.752 67.7764 120.065 67.7764Z" fill="#212B36"/>
</g>
<defs>
<linearGradient id="paint0_linear" x1="7.08826" y1="4.60877" x2="65.2449" y2="35.4821" gradientUnits="userSpaceOnUse">
<stop stop-color="#3DFF17"/>
<stop offset="1" stop-color="#00FF94"/>
</linearGradient>
<linearGradient id="paint1_linear" x1="119.67" y1="163.744" x2="119.348" y2="148.556" gradientUnits="userSpaceOnUse">
<stop stop-color="white"/>
<stop offset="1" stop-color="#DFE3E8"/>
</linearGradient>
<linearGradient id="paint2_linear" x1="105.729" y1="70.8361" x2="119.835" y2="11.1433" gradientUnits="userSpaceOnUse">
<stop stop-color="white"/>
<stop offset="1" stop-color="#ECEFF2"/>
</linearGradient>
<linearGradient id="paint3_linear" x1="183.518" y1="84.464" x2="187.278" y2="140.868" gradientUnits="userSpaceOnUse">
<stop stop-color="white"/>
<stop offset="1" stop-color="#ECEFF2"/>
</linearGradient>
<linearGradient id="paint4_linear" x1="108.783" y1="87.0487" x2="82.4608" y2="94.8042" gradientUnits="userSpaceOnUse">
<stop stop-color="#C4CDD5"/>
<stop offset="1" stop-color="#E1E5E9"/>
</linearGradient>
<linearGradient id="paint5_linear" x1="89.282" y1="87.2829" x2="80.2518" y2="89.3729" gradientUnits="userSpaceOnUse">
<stop stop-color="#212B36"/>
<stop offset="1"/>
</linearGradient>
<clipPath id="clip0">
<rect width="224" height="252" fill="white"/>
</clipPath>
</defs>
</svg>
