<svg width="240" height="145" viewBox="0 0 240 145" fill="none" xmlns="http://www.w3.org/2000/svg">
<path d="M119.563 103.987L181.902 60.1466L57.2235 60.1466L119.563 103.987Z" fill="white" fill-opacity="0.8"/>
<path d="M113.95 21.6782L57.2227 60.147H181.902L125.175 21.6782C121.786 19.3801 117.338 19.3801 113.95 21.6782Z" fill="white" fill-opacity="0.6"/>
<path d="M98.8523 61.2267L120.85 58.7947V122.857H85.4851H57.2227V122.857C61.1626 101.313 72.7868 81.9301 89.9368 68.3081L98.8523 61.2267Z" fill="url(#paint0_linear)"/>
<path d="M142.848 61.2267L120.851 58.7947V123.118H153.679H181.683V123.118C179.563 101.591 168.805 81.8432 151.866 68.3895L142.848 61.2267Z" fill="url(#paint1_linear)"/>
<path d="M120.681 87.3132C120.328 87.3132 119.975 87.2072 119.672 86.9953L94.9962 69.7565C94.5181 69.4225 94.2328 68.873 94.2328 68.2862V47.2166C94.2328 47.0245 94.2635 46.8335 94.3237 46.6512L95.8755 41.9535L94.7508 40.8186C91.9672 38.0095 91.9672 33.4389 94.7508 30.6299C94.7537 30.627 94.7566 30.6242 94.7594 30.6212C97.53 27.8325 102.043 27.7961 104.849 30.628L105.662 31.4479C106.523 30.7964 112.104 26.2742 120.68 26.2742C129.257 26.2742 134.838 30.7961 135.7 31.4476L136.512 30.6277C139.279 27.8356 143.792 27.793 146.602 30.6211C146.605 30.6239 146.608 30.6268 146.61 30.6298C149.394 33.4389 149.394 38.0094 146.61 40.8184L145.486 41.9533L147.038 46.6511C147.098 46.8334 147.129 47.0244 147.129 47.2165V68.2862C147.129 68.873 146.843 69.4225 146.365 69.7565L121.689 86.9953C121.386 87.2072 121.033 87.3132 120.681 87.3132V87.3132Z" fill="white"/>
<path d="M120.68 72.1408C113.732 72.1408 107.372 66.9889 107.372 59.6807V55.0037C107.372 51.9647 108.557 49.1075 110.708 46.9583L116.699 40.9726C118.894 38.7796 122.466 38.7797 124.662 40.9725L130.653 46.9583C132.804 49.1075 133.989 51.9647 133.989 55.0037V59.6807C133.989 66.9748 127.637 72.1408 120.68 72.1408Z" fill="url(#paint2_linear)"/>
<path d="M120.679 64.3801C117.203 64.3801 114.375 61.8476 114.375 58.7349C114.375 55.622 117.203 53.0896 120.679 53.0896C124.155 53.0896 126.983 55.622 126.983 58.7349C126.983 61.8476 124.155 64.3801 120.679 64.3801Z" fill="#212B36"/>
<path d="M107.42 43.2586C108.4 43.2586 109.195 42.458 109.195 41.4704C109.195 40.4828 108.4 39.6821 107.42 39.6821C106.439 39.6821 105.645 40.4828 105.645 41.4704C105.645 42.458 106.439 43.2586 107.42 43.2586Z" fill="#280000"/>
<path d="M134.036 43.2579C135.016 43.2579 135.811 42.4573 135.811 41.4696C135.811 40.482 135.016 39.6814 134.036 39.6814C133.055 39.6814 132.261 40.482 132.261 41.4696C132.261 42.4573 133.055 43.2579 134.036 43.2579Z" fill="#280000"/>
<path fill-rule="evenodd" clip-rule="evenodd" d="M57.2227 60.3333V135C57.2227 137.761 59.4612 140 62.2227 140H176.902C179.663 140 181.902 137.761 181.902 135V60.3333H181.637L119.563 103.987L57.489 60.3333H57.2227Z" fill="white"/>
<path d="M138.368 74.9647L142.295 84.8938L165.856 74.9647H174.201L181.073 46.1704L185.861 35.4667C188.294 30.0261 185.514 23.6722 179.866 21.7682C176.372 20.5904 172.514 21.4092 169.8 23.9046L163.402 29.7875V39.2201L138.368 74.9647Z" fill="url(#paint3_linear)"/>
<path d="M101.062 74.9647L97.1356 84.8938L73.5742 74.9647H65.2296L58.3575 46.1704L53.5699 35.4667C51.1364 30.0261 53.9171 23.6722 59.5648 21.7682C63.0584 20.5904 66.9162 21.4092 69.6303 23.9046L76.0285 29.7875V39.2201L101.062 74.9647Z" fill="url(#paint4_linear)"/>
<rect width="69.7559" height="42.6629" rx="4" transform="matrix(0.965185 0.261567 -0.256096 0.966651 172.673 46.667)" fill="url(#paint5_linear)"/>
<path d="M199.194 85.7791C200.484 85.9705 201.54 85.8155 202.36 85.3141C203.191 84.8156 203.748 84.0335 204.03 82.9679C204.15 82.5142 204.171 82.0958 204.092 81.7126C204.013 81.3294 203.86 80.9713 203.633 80.6383C203.416 80.3081 203.131 79.9992 202.779 79.7116C202.43 79.4134 202.045 79.1224 201.624 78.8388L199.194 85.7791ZM203.037 68.1456C202.389 68.0379 201.813 68.023 201.308 68.1009C200.805 68.1683 200.369 68.3045 199.999 68.5096C199.632 68.7041 199.334 68.9569 199.105 69.268C198.876 69.5791 198.71 69.9299 198.606 70.3203C198.489 70.7634 198.464 71.1751 198.533 71.5555C198.601 71.9358 198.737 72.2949 198.94 72.6328C199.157 72.9629 199.428 73.2795 199.754 73.5826C200.082 73.8751 200.445 74.1656 200.842 74.4541L203.037 68.1456ZM202.732 75.6788C203.428 76.1161 204.106 76.5769 204.766 77.0612C205.44 77.5379 206.013 78.0775 206.485 78.6802C206.959 79.2724 207.288 79.944 207.472 80.695C207.667 81.4489 207.635 82.3164 207.375 83.2976C207.12 84.2577 206.717 85.1208 206.164 85.8871C205.625 86.6456 204.959 87.2679 204.165 87.7539C203.374 88.2293 202.472 88.5502 201.459 88.7166C200.459 88.8753 199.376 88.8362 198.21 88.5995L197.35 91.0803C197.281 91.299 197.138 91.4752 196.922 91.609C196.704 91.7533 196.463 91.7898 196.2 91.7186L194.938 91.3766L196.125 87.9835C194.923 87.4995 193.853 86.8589 192.914 86.0618C191.989 85.257 191.25 84.367 190.697 83.3916L192.137 82.1027C192.268 81.9912 192.419 81.9132 192.588 81.8687C192.771 81.8165 192.952 81.8146 193.131 81.863C193.352 81.9229 193.564 82.0767 193.769 82.3244C193.985 82.575 194.234 82.8687 194.516 83.2054C194.802 83.5316 195.151 83.8748 195.562 84.2352C195.977 84.585 196.491 84.8995 197.104 85.1789L199.721 77.6616C199.044 77.2406 198.379 76.7946 197.726 76.3236C197.086 75.845 196.539 75.2952 196.084 74.6742C195.639 74.0561 195.33 73.3504 195.157 72.5572C194.994 71.7669 195.053 70.8441 195.332 69.7891C195.542 68.9978 195.898 68.269 196.402 67.6025C196.916 66.9389 197.544 66.3968 198.286 65.9761C199.042 65.5477 199.906 65.2672 200.876 65.1345C201.85 64.9912 202.906 65.0456 204.045 65.2978L204.765 63.2199C204.837 62.9906 204.981 62.8091 205.196 62.6754C205.412 62.5416 205.652 62.5104 205.914 62.5816L207.176 62.9236L206.118 65.9613C207.18 66.4188 208.056 66.9841 208.746 67.6572C209.438 68.3197 210.006 69.0276 210.448 69.7809L209.293 70.8246C208.964 71.1312 208.631 71.2389 208.294 71.1477C208.136 71.105 207.963 70.9956 207.772 70.8197C207.593 70.6467 207.377 70.4411 207.124 70.2031C206.882 69.9679 206.598 69.7213 206.272 69.4633C205.946 69.2053 205.568 68.9728 205.138 68.7659L202.732 75.6788Z" fill="white"/>
<rect width="69.7557" height="42.6628" rx="4" transform="matrix(0.965312 -0.2611 0.256555 0.96653 0 64.54)" fill="url(#paint6_linear)"/>
<path d="M42.3036 84.9993C43.5158 84.5125 44.3532 83.8445 44.8158 82.9955C45.2889 82.1435 45.3843 81.1848 45.102 80.1192C44.9818 79.6655 44.7929 79.2927 44.5352 79.0007C44.2775 78.7087 43.9678 78.4759 43.6063 78.3025C43.2553 78.1263 42.8563 78.0026 42.4091 77.9315C41.9592 77.8499 41.482 77.7927 40.9773 77.7598L42.3036 84.9993ZM36.9145 67.7848C36.3003 68.019 35.7937 68.2977 35.3946 68.6207C34.9928 68.9331 34.6824 69.2717 34.4634 69.6363C34.2416 69.9904 34.1085 70.3601 34.064 70.7453C34.0196 71.1305 34.049 71.5183 34.1525 71.9087C34.2699 72.3518 34.4521 72.7208 34.6993 73.0157C34.9465 73.3105 35.2417 73.5528 35.585 73.7425C35.936 73.9187 36.3274 74.0558 36.7591 74.1537C37.1879 74.241 37.6456 74.3092 38.132 74.3583L36.9145 67.7848ZM40.3744 74.463C41.193 74.4899 42.0081 74.5461 42.8197 74.6314C43.639 74.7034 44.4018 74.8812 45.1081 75.1647C45.8116 75.4377 46.4287 75.8528 46.9595 76.41C47.5009 76.9644 47.9015 77.7322 48.1615 78.7134C48.4159 79.6735 48.4932 80.625 48.3937 81.5679C48.3018 82.4974 48.0323 83.3733 47.5852 84.1956C47.1352 85.0073 46.5126 85.7414 45.7172 86.398C44.9296 87.0411 43.9725 87.5549 42.8458 87.9394L43.3274 90.5228C43.3756 90.7472 43.3393 90.9719 43.2185 91.1968C43.1006 91.4324 42.9102 91.5857 42.6473 91.657L41.3854 91.9989L40.7353 88.4605C39.4554 88.649 38.212 88.6354 37.0052 88.4197C35.8061 88.1906 34.726 87.7935 33.7648 87.2285L34.375 85.3839C34.4334 85.2211 34.5249 85.0776 34.6498 84.9533C34.7824 84.8156 34.938 84.7225 35.1168 84.674C35.3376 84.6142 35.598 84.6397 35.8979 84.7507C36.2083 84.8588 36.5692 84.9872 36.9805 85.1358C37.389 85.2739 37.8606 85.3948 38.3953 85.4987C38.9272 85.592 39.5279 85.6045 40.1973 85.5362L38.7475 77.7026C37.9527 77.6805 37.1561 77.6306 36.3579 77.553C35.5673 77.4619 34.8214 77.2626 34.12 76.9551C33.4292 76.6448 32.8128 76.1899 32.2707 75.5905C31.7392 74.9882 31.3337 74.1595 31.0542 73.1045C30.8446 72.3132 30.793 71.5017 30.8995 70.67C31.0165 69.8354 31.2926 69.0482 31.7278 68.3083C32.1707 67.5551 32.7796 66.8756 33.5546 66.2698C34.3267 65.6534 35.2684 65.1664 36.3797 64.8087L35.9756 62.6453C35.9246 62.4104 35.9595 62.1804 36.0802 61.9555C36.2009 61.7305 36.3928 61.5824 36.6557 61.5112L37.9175 61.1692L38.5027 64.3351C39.6488 64.1942 40.6868 64.2408 41.6167 64.475C42.5438 64.6987 43.3853 65.0247 44.1413 65.4531L43.6564 66.9415C43.5229 67.3734 43.2879 67.635 42.9514 67.7262C42.7937 67.7689 42.589 67.7622 42.3374 67.706C42.0964 67.6469 41.8077 67.5782 41.4713 67.4997C41.1454 67.4184 40.7775 67.3485 40.3675 67.29C39.9576 67.2315 39.5153 67.2213 39.0408 67.2594L40.3744 74.463Z" fill="white"/>
<g opacity="0.3">
<rect width="21.6145" height="10.9138" rx="4" transform="matrix(0.965185 0.261567 -0.256096 0.966651 160.893 0)" fill="url(#paint7_linear)" fill-opacity="0.95"/>
<path d="M170.044 8.59319C170.438 8.67262 170.75 8.68062 170.98 8.6172C171.213 8.55466 171.354 8.43084 171.403 8.24574C171.424 8.16694 171.416 8.09115 171.38 8.01838C171.343 7.94561 171.285 7.87487 171.206 7.80616C171.129 7.73833 171.033 7.67206 170.918 7.60735C170.803 7.54081 170.677 7.47437 170.541 7.40803L170.044 8.59319ZM170.606 5.5017C170.408 5.45972 170.234 5.43715 170.084 5.434C169.935 5.42901 169.809 5.4389 169.705 5.46366C169.601 5.48658 169.52 5.52254 169.461 5.57154C169.403 5.62054 169.365 5.67894 169.347 5.74674C169.326 5.82372 169.333 5.89815 169.366 5.97003C169.399 6.04192 169.452 6.11226 169.525 6.18103C169.601 6.24886 169.693 6.31607 169.802 6.38268C169.91 6.44746 170.029 6.51305 170.158 6.57946L170.606 5.5017ZM170.768 6.86843C170.992 6.97233 171.211 7.07993 171.426 7.19122C171.645 7.30156 171.835 7.41994 171.997 7.54637C172.16 7.67095 172.281 7.80507 172.362 7.94872C172.446 8.09325 172.465 8.25073 172.42 8.42116C172.376 8.58793 172.284 8.73185 172.144 8.85292C172.007 8.97304 171.827 9.06386 171.605 9.12538C171.383 9.18508 171.123 9.21269 170.824 9.20822C170.528 9.2028 170.201 9.15838 169.843 9.07496L169.667 9.49889C169.654 9.5365 169.617 9.56381 169.557 9.58084C169.496 9.5997 169.425 9.59809 169.343 9.57601L168.952 9.47005L169.195 8.89055C168.817 8.76069 168.474 8.60675 168.165 8.42871C167.859 8.24972 167.607 8.06155 167.408 7.86419L167.798 7.67814C167.833 7.66226 167.876 7.65318 167.925 7.65088C167.979 7.64763 168.033 7.65351 168.088 7.66852C168.157 7.68707 168.226 7.72251 168.296 7.77486C168.369 7.82809 168.454 7.89035 168.55 7.96164C168.647 8.0311 168.764 8.10586 168.9 8.18591C169.036 8.26413 169.201 8.33934 169.395 8.41153L169.929 7.1273C169.711 7.027 169.496 6.92257 169.284 6.81399C169.075 6.70446 168.892 6.5851 168.734 6.45589C168.58 6.32757 168.463 6.18792 168.384 6.03695C168.309 5.88685 168.296 5.72018 168.344 5.53691C168.38 5.39947 168.463 5.27849 168.592 5.17398C168.724 5.07035 168.895 4.99287 169.104 4.94152C169.317 4.88923 169.567 4.86766 169.855 4.87681C170.143 4.88412 170.462 4.93044 170.813 5.01577L170.96 4.66065C170.974 4.62122 171.011 4.59299 171.071 4.57596C171.132 4.55893 171.203 4.56146 171.284 4.58354L171.675 4.6895L171.459 5.20842C171.794 5.32863 172.076 5.46213 172.306 5.60893C172.537 5.7539 172.731 5.90286 172.89 6.05582L172.577 6.20686C172.489 6.25157 172.392 6.2598 172.288 6.23154C172.239 6.2183 172.183 6.19232 172.12 6.15362C172.06 6.1158 171.988 6.07079 171.904 6.01857C171.824 5.96724 171.73 5.91238 171.623 5.85398C171.516 5.79558 171.395 5.74007 171.259 5.68744L170.768 6.86843Z" fill="white"/>
</g>
<g opacity="0.3">
<rect width="21.6145" height="10.9138" rx="4" transform="matrix(0.965185 -0.261567 0.256096 0.966651 51.0498 5.6543)" fill="url(#paint8_linear)" fill-opacity="0.95"/>
<path d="M63.2223 8.46737C63.6033 8.33663 63.8776 8.18568 64.0453 8.01453C64.2162 7.84249 64.2772 7.66393 64.2282 7.47883C64.2073 7.40003 64.163 7.33837 64.0953 7.29385C64.0277 7.24934 63.9424 7.21745 63.8395 7.19819C63.7399 7.17805 63.624 7.16918 63.4919 7.17158C63.3594 7.17215 63.2178 7.17811 63.0671 7.18948L63.2223 8.46737ZM62.181 5.50568C61.9884 5.56966 61.8267 5.63804 61.6958 5.71083C61.5644 5.78179 61.4596 5.85437 61.3815 5.92858C61.3029 6.00095 61.2504 6.07312 61.2241 6.14507C61.1978 6.21703 61.1936 6.28691 61.2115 6.35472C61.2319 6.43169 61.2743 6.49287 61.3387 6.53827C61.4032 6.58367 61.4838 6.6178 61.5807 6.64065C61.6803 6.6608 61.7934 6.67238 61.9199 6.67541C62.0459 6.67661 62.1813 6.67333 62.3259 6.66556L62.181 5.50568ZM62.9967 6.6075C63.242 6.58424 63.4853 6.56644 63.7265 6.55411C63.9704 6.53907 64.1939 6.5453 64.3967 6.57282C64.5991 6.59851 64.7707 6.65315 64.9116 6.73675C65.0558 6.81947 65.1504 6.94605 65.1956 7.11648C65.2398 7.28325 65.231 7.45454 65.1693 7.63036C65.1104 7.80346 64.9999 7.97287 64.8377 8.1386C64.6751 8.30249 64.4632 8.45814 64.2019 8.60555C63.9433 8.75025 63.6382 8.87714 63.2864 8.98622L63.3443 9.44194C63.3513 9.48131 63.3328 9.52364 63.2889 9.56892C63.2455 9.61604 63.1831 9.65063 63.1016 9.67271L62.7106 9.77867L62.6342 9.15414C62.2429 9.23268 61.8694 9.273 61.5138 9.2751C61.1609 9.27449 60.8494 9.23908 60.5794 9.16888L60.825 8.81064C60.848 8.77887 60.8803 8.74947 60.9221 8.72244C60.9666 8.69271 61.0165 8.67033 61.0719 8.65532C61.1404 8.63677 61.2178 8.63248 61.3043 8.64245C61.394 8.65152 61.4982 8.66257 61.6169 8.67558C61.7351 8.68676 61.8728 8.69264 62.0301 8.69322C62.187 8.69197 62.3672 8.67357 62.5708 8.63803L62.3984 7.25579C62.1601 7.27911 61.9223 7.29742 61.6848 7.3107C61.4501 7.32126 61.2325 7.31051 61.0319 7.27844C60.8346 7.24549 60.6645 7.18355 60.5217 7.09262C60.3821 7.00081 60.2881 6.86327 60.2395 6.68001C60.2031 6.54256 60.2149 6.39597 60.2749 6.24025C60.3382 6.08364 60.4477 5.93021 60.6035 5.77997C60.7621 5.62701 60.9681 5.48181 61.2215 5.34438C61.4745 5.20511 61.7741 5.08365 62.1203 4.98001L62.0716 4.5984C62.0642 4.5572 62.0824 4.51396 62.1263 4.46868C62.1702 4.42339 62.2328 4.38971 62.3143 4.36764L62.7053 4.26167L62.7747 4.82033C63.1241 4.75511 63.4347 4.7279 63.7065 4.7387C63.9778 4.74768 64.2199 4.77832 64.4328 4.83061L64.2369 5.1194C64.1822 5.20297 64.1028 5.25889 63.9985 5.28714C63.9496 5.30039 63.8883 5.3062 63.8145 5.30459C63.744 5.30209 63.6595 5.29946 63.561 5.29669C63.4657 5.29305 63.3574 5.29293 63.2361 5.29635C63.1148 5.29976 62.9821 5.31313 62.8381 5.33644L62.9967 6.6075Z" fill="white"/>
</g>
<g opacity="0.5">
<rect width="32.4217" height="20.8354" rx="4" transform="matrix(0.965185 0.261567 -0.256096 0.966651 190.343 17.8721)" fill="url(#paint9_linear)" fill-opacity="0.95"/>
<path d="M203.455 33.0949C204.05 33.2036 204.526 33.1863 204.883 33.0432C205.246 32.9014 205.474 32.6538 205.567 32.3005C205.607 32.15 205.603 32.0082 205.554 31.8751C205.506 31.7419 205.424 31.6148 205.309 31.4938C205.2 31.374 205.06 31.2593 204.89 31.1495C204.721 31.0362 204.536 30.9241 204.335 30.8134L203.455 33.0949ZM204.627 27.2195C204.328 27.161 204.064 27.1366 203.837 27.1461C203.61 27.1521 203.415 27.1838 203.254 27.2412C203.093 27.2951 202.965 27.3711 202.871 27.4694C202.777 27.5676 202.713 27.6814 202.678 27.8109C202.639 27.9578 202.642 28.0972 202.685 28.229C202.729 28.3609 202.803 28.4877 202.907 28.6096C203.017 28.7294 203.151 28.8463 203.309 28.9605C203.468 29.0711 203.643 29.1823 203.833 29.2939L204.627 27.2195ZM204.735 29.7746C205.067 29.9469 205.391 30.1267 205.708 30.3138C206.031 30.4988 206.31 30.7019 206.545 30.923C206.781 31.1406 206.953 31.3804 207.062 31.6424C207.175 31.9057 207.189 32.2 207.103 32.5254C207.018 32.8437 206.863 33.1241 206.636 33.3664C206.415 33.6066 206.132 33.796 205.786 33.9348C205.441 34.0701 205.041 34.149 204.584 34.1715C204.134 34.1919 203.639 34.1421 203.099 34.0222L202.789 34.8381C202.765 34.9102 202.705 34.9654 202.611 35.0037C202.517 35.0455 202.408 35.0498 202.286 35.0167L201.699 34.8578L202.128 33.7422C201.565 33.537 201.056 33.2828 200.602 32.9798C200.154 32.6745 199.787 32.3466 199.503 31.9958L200.117 31.6054C200.173 31.5718 200.239 31.5503 200.315 31.5409C200.397 31.5293 200.479 31.5347 200.562 31.5572C200.665 31.585 200.767 31.6446 200.868 31.7358C200.975 31.8284 201.098 31.9368 201.238 32.061C201.379 32.1817 201.549 32.3103 201.749 32.4469C201.949 32.58 202.194 32.7044 202.483 32.8202L203.428 30.3484C203.106 30.1822 202.788 30.0079 202.475 29.8256C202.167 29.6411 201.9 29.4354 201.672 29.2086C201.448 28.9831 201.284 28.7324 201.179 28.4565C201.079 28.1819 201.076 27.8696 201.168 27.5197C201.238 27.2574 201.376 27.0212 201.584 26.8112C201.796 26.6025 202.065 26.439 202.39 26.3208C202.72 26.2004 203.104 26.1339 203.542 26.1214C203.981 26.1054 204.465 26.1595 204.992 26.2837L205.252 25.6003C205.277 25.5247 205.337 25.4677 205.431 25.4294C205.525 25.3912 205.633 25.3886 205.755 25.4217L206.342 25.5806L205.959 26.5794C206.458 26.771 206.876 26.993 207.213 27.2454C207.55 27.4944 207.832 27.7545 208.059 28.026L207.567 28.3425C207.427 28.4358 207.278 28.4613 207.122 28.4189C207.049 28.399 206.966 28.3559 206.873 28.2896C206.786 28.2246 206.681 28.1474 206.558 28.0578C206.44 27.9696 206.302 27.876 206.145 27.7772C205.988 27.6783 205.808 27.5865 205.605 27.5015L204.735 29.7746Z" fill="white"/>
</g>
<g opacity="0.5">
<rect width="32.4217" height="20.8354" rx="4" transform="matrix(0.965185 -0.261567 0.256096 0.966651 16.6885 27.8018)" fill="url(#paint10_linear)" fill-opacity="0.95"/>
<path d="M35.5703 34.3544C36.1389 34.1478 36.5427 33.8922 36.7815 33.5874C37.0252 33.2814 37.1003 32.9517 37.0066 32.5983C36.9668 32.4479 36.8929 32.3273 36.7851 32.2365C36.6772 32.1458 36.5437 32.0769 36.3846 32.0301C36.2304 31.9819 36.0526 31.9532 35.8511 31.944C35.6487 31.9314 35.433 31.928 35.204 31.9338L35.5703 34.3544ZM33.6803 28.6737C33.3926 28.7742 33.1524 28.8862 32.9599 29.0096C32.7664 29.1295 32.6138 29.2553 32.5019 29.3868C32.3892 29.5149 32.3163 29.6452 32.2834 29.7779C32.2504 29.9106 32.2511 30.0416 32.2854 30.1711C32.3243 30.318 32.3953 30.4375 32.4982 30.5296C32.6012 30.6217 32.7278 30.6943 32.8781 30.7473C33.0323 30.7955 33.2062 30.829 33.3997 30.8478C33.5924 30.8631 33.7988 30.8709 34.0189 30.8713L33.6803 28.6737ZM35.0377 30.8314C35.41 30.813 35.7797 30.8047 36.1469 30.8064C36.518 30.8033 36.8599 30.8382 37.1725 30.911C37.4842 30.9802 37.7519 31.1008 37.9755 31.2727C38.2041 31.4432 38.3614 31.6912 38.4477 32.0166C38.532 32.335 38.536 32.6564 38.4595 32.9808C38.387 33.3005 38.2354 33.6078 38.0045 33.9029C37.7726 34.1944 37.4646 34.4654 37.0804 34.7158C36.7002 34.9613 36.247 35.1685 35.7207 35.3374L35.8552 36.2009C35.8698 36.2757 35.8458 36.3534 35.7834 36.4341C35.7219 36.5183 35.63 36.5769 35.5078 36.61L34.9213 36.769L34.7414 35.5859C34.1517 35.6932 33.5854 35.7304 33.0423 35.6976C32.5033 35.6599 32.0239 35.5611 31.6044 35.4011L31.9433 34.7524C31.9752 34.695 32.0217 34.643 32.0827 34.5965C32.1477 34.5451 32.2217 34.5082 32.3048 34.4857C32.4074 34.4578 32.5253 34.4578 32.6583 34.4855C32.7963 34.5118 32.9566 34.5434 33.1392 34.5801C33.3209 34.6134 33.5319 34.6387 33.7722 34.6561C34.0116 34.6699 34.285 34.654 34.5924 34.6082L34.1894 31.9894C33.8278 32.0086 33.4663 32.0185 33.105 32.0189C32.7476 32.0145 32.4141 31.9718 32.1045 31.8907C31.7998 31.8083 31.5337 31.6741 31.3064 31.4882C31.0839 31.301 30.9263 31.0325 30.8336 30.6826C30.7641 30.4202 30.7673 30.1456 30.8433 29.8588C30.9241 29.5707 31.0758 29.2933 31.2986 29.0267C31.5253 28.7553 31.8252 28.5034 32.1985 28.271C32.5708 28.0351 33.0161 27.8375 33.5344 27.6783L33.4214 26.9552C33.4059 26.8769 33.4294 26.7974 33.4918 26.7168C33.5543 26.6361 33.6466 26.5792 33.7688 26.5461L34.3553 26.3871L34.5178 27.4455C35.0449 27.3589 35.5166 27.3399 35.9328 27.3883C36.3481 27.4333 36.721 27.516 37.0515 27.6364L36.7815 28.1595C36.7064 28.3111 36.5906 28.4081 36.4342 28.4505C36.3609 28.4704 36.2678 28.475 36.155 28.4643C36.0471 28.4523 35.9177 28.4386 35.7669 28.4232C35.6211 28.4065 35.4557 28.3951 35.2707 28.389C35.0857 28.3829 34.8844 28.3943 34.6669 28.4232L35.0377 30.8314Z" fill="white"/>
</g>
<defs>
<linearGradient id="paint0_linear" x1="92.5213" y1="83.1149" x2="93.0724" y2="129.808" gradientUnits="userSpaceOnUse">
<stop stop-color="white"/>
<stop offset="1" stop-color="#C4CDD5"/>
</linearGradient>
<linearGradient id="paint1_linear" x1="149.179" y1="83.1149" x2="148.628" y2="129.808" gradientUnits="userSpaceOnUse">
<stop stop-color="white"/>
<stop offset="1" stop-color="#C4CDD5"/>
</linearGradient>
<linearGradient id="paint2_linear" x1="120.688" y1="44.0529" x2="120.688" y2="74.316" gradientUnits="userSpaceOnUse">
<stop stop-color="#C4CDD5"/>
<stop offset="1" stop-color="#F9FAFB"/>
</linearGradient>
<linearGradient id="paint3_linear" x1="182.546" y1="19.8584" x2="172.065" y2="37.1295" gradientUnits="userSpaceOnUse">
<stop stop-color="#F3F5F7"/>
<stop offset="1" stop-color="white"/>
</linearGradient>
<linearGradient id="paint4_linear" x1="56.8849" y1="19.8584" x2="67.3657" y2="37.1295" gradientUnits="userSpaceOnUse">
<stop stop-color="#F3F5F7"/>
<stop offset="1" stop-color="white"/>
</linearGradient>
<linearGradient id="paint5_linear" x1="7.75065" y1="5.14528" x2="71.9162" y2="38.508" gradientUnits="userSpaceOnUse">
<stop stop-color="#3DFF17"/>
<stop offset="1" stop-color="#00FF94"/>
</linearGradient>
<linearGradient id="paint6_linear" x1="7.75063" y1="5.14527" x2="71.9161" y2="38.5079" gradientUnits="userSpaceOnUse">
<stop stop-color="#3DFF17"/>
<stop offset="1" stop-color="#00FF94"/>
</linearGradient>
<linearGradient id="paint7_linear" x1="2.40161" y1="1.31623" x2="20.486" y2="12.7057" gradientUnits="userSpaceOnUse">
<stop stop-color="#3DFF17"/>
<stop offset="1" stop-color="#00FF94"/>
</linearGradient>
<linearGradient id="paint8_linear" x1="2.40161" y1="1.31623" x2="20.486" y2="12.7057" gradientUnits="userSpaceOnUse">
<stop stop-color="#3DFF17"/>
<stop offset="1" stop-color="#00FF94"/>
</linearGradient>
<linearGradient id="paint9_linear" x1="3.60241" y1="2.51281" x2="34.0363" y2="17.5727" gradientUnits="userSpaceOnUse">
<stop stop-color="#3DFF17"/>
<stop offset="1" stop-color="#00FF94"/>
</linearGradient>
<linearGradient id="paint10_linear" x1="3.60241" y1="2.51281" x2="34.0363" y2="17.5727" gradientUnits="userSpaceOnUse">
<stop stop-color="#3DFF17"/>
<stop offset="1" stop-color="#00FF94"/>
</linearGradient>
</defs>
</svg>
