<svg width="18" height="18" viewBox="0 0 18 18" fill="none" xmlns="http://www.w3.org/2000/svg">
    <mask id="path-1-inside-1" fill="white">
        <path fill-rule="evenodd" clip-rule="evenodd"
              d="M9 18C13.9706 18 18 13.9706 18 9C18 4.02944 13.9706 0 9 0C4.02944 0 0 4.02944 0 9C0 13.9706 4.02944 18 9 18ZM10.3022 7.0077L9.19021 3.58541C9.13034 3.40115 8.86966 3.40115 8.80979 3.58541L7.69782 7.0077C7.67104 7.09011 7.59425 7.1459 7.50761 7.1459H3.9092C3.71545 7.1459 3.6349 7.39382 3.79164 7.5077L6.70282 9.62279C6.77291 9.67372 6.80224 9.764 6.77547 9.8464L5.6635 13.2687C5.60363 13.453 5.81453 13.6062 5.97127 13.4923L8.88244 11.3772C8.95254 11.3263 9.04746 11.3263 9.11756 11.3772L12.0287 13.4923C12.1855 13.6062 12.3964 13.453 12.3365 13.2687L11.2245 9.8464C11.1978 9.764 11.2271 9.67372 11.2972 9.62279L14.2084 7.5077C14.3651 7.39382 14.2845 7.1459 14.0908 7.1459H10.4924C10.4057 7.1459 10.329 7.09011 10.3022 7.0077Z"/>
    </mask>
    <path fill-rule="evenodd" clip-rule="evenodd"
          d="M9 18C13.9706 18 18 13.9706 18 9C18 4.02944 13.9706 0 9 0C4.02944 0 0 4.02944 0 9C0 13.9706 4.02944 18 9 18ZM10.3022 7.0077L9.19021 3.58541C9.13034 3.40115 8.86966 3.40115 8.80979 3.58541L7.69782 7.0077C7.67104 7.09011 7.59425 7.1459 7.50761 7.1459H3.9092C3.71545 7.1459 3.6349 7.39382 3.79164 7.5077L6.70282 9.62279C6.77291 9.67372 6.80224 9.764 6.77547 9.8464L5.6635 13.2687C5.60363 13.453 5.81453 13.6062 5.97127 13.4923L8.88244 11.3772C8.95254 11.3263 9.04746 11.3263 9.11756 11.3772L12.0287 13.4923C12.1855 13.6062 12.3964 13.453 12.3365 13.2687L11.2245 9.8464C11.1978 9.764 11.2271 9.67372 11.2972 9.62279L14.2084 7.5077C14.3651 7.39382 14.2845 7.1459 14.0908 7.1459H10.4924C10.4057 7.1459 10.329 7.09011 10.3022 7.0077Z"
          fill="#5C6AC4"/>
    <path d="M9.19021 3.58541L11.0923 2.96738L11.0923 2.96737L9.19021 3.58541ZM10.3022 7.0077L12.2043 6.38968L12.2043 6.38967L10.3022 7.0077ZM8.80979 3.58541L6.90768 2.96737L6.90768 2.96738L8.80979 3.58541ZM7.69782 7.0077L5.79571 6.38967L7.69782 7.0077ZM3.79164 7.5077L4.96721 5.88967L4.96721 5.88967L3.79164 7.5077ZM6.70282 9.62279L7.87839 8.00476L7.87839 8.00476L6.70282 9.62279ZM6.77547 9.8464L4.87336 9.22836L4.87336 9.22837L6.77547 9.8464ZM5.6635 13.2687L3.76139 12.6507L3.76139 12.6507L5.6635 13.2687ZM5.97127 13.4923L4.7957 11.8743L4.79569 11.8743L5.97127 13.4923ZM8.88244 11.3772L7.70687 9.75917L7.70687 9.75917L8.88244 11.3772ZM9.11756 11.3772L10.2931 9.75917L10.2931 9.75917L9.11756 11.3772ZM12.0287 13.4923L13.2043 11.8743L13.2043 11.8743L12.0287 13.4923ZM12.3365 13.2687L14.2386 12.6507L14.2386 12.6507L12.3365 13.2687ZM11.2245 9.8464L9.32242 10.4644L9.32242 10.4644L11.2245 9.8464ZM11.2972 9.62279L12.4728 11.2408L12.4728 11.2408L11.2972 9.62279ZM14.2084 7.5077L15.3839 9.12574L15.3839 9.12573L14.2084 7.5077ZM16 9C16 12.866 12.866 16 9 16V20C15.0751 20 20 15.0751 20 9H16ZM9 2C12.866 2 16 5.13401 16 9H20C20 2.92487 15.0751 -2 9 -2V2ZM2 9C2 5.13401 5.13401 2 9 2V-2C2.92487 -2 -2 2.92487 -2 9H2ZM9 16C5.13401 16 2 12.866 2 9H-2C-2 15.0751 2.92487 20 9 20V16ZM7.2881 4.20344L8.40007 7.62574L12.2043 6.38967L11.0923 2.96738L7.2881 4.20344ZM10.7119 4.20345C10.1731 5.8618 7.82693 5.8618 7.2881 4.20345L11.0923 2.96737C10.4337 0.940494 7.56625 0.940494 6.90768 2.96737L10.7119 4.20345ZM9.59993 7.62574L10.7119 4.20344L6.90768 2.96738L5.79571 6.38967L9.59993 7.62574ZM7.50761 9.1459C8.4607 9.1459 9.30541 8.53219 9.59993 7.62574L5.79571 6.38967C6.03668 5.64802 6.7278 5.1459 7.50761 5.1459V9.1459ZM3.9092 9.1459H7.50761V5.1459H3.9092V9.1459ZM4.96721 5.88967C6.3779 6.91459 5.6529 9.1459 3.9092 9.1459V5.1459C1.77801 5.1459 0.891898 7.87305 2.61607 9.12574L4.96721 5.88967ZM7.87839 8.00476L4.96721 5.88967L2.61607 9.12574L5.52725 11.2408L7.87839 8.00476ZM8.67758 10.4644C8.9721 9.55799 8.64946 8.56498 7.87839 8.00476L5.52724 11.2408C4.89636 10.7825 4.63238 9.97 4.87336 9.22836L8.67758 10.4644ZM7.56561 13.8867L8.67758 10.4644L4.87336 9.22837L3.76139 12.6507L7.56561 13.8867ZM4.79569 11.8743C6.20639 10.8493 8.10444 12.2284 7.56561 13.8867L3.76139 12.6507C3.10282 14.6775 5.42267 16.363 7.14685 15.1103L4.79569 11.8743ZM7.70687 9.75917L4.7957 11.8743L7.14684 15.1103L10.058 12.9952L7.70687 9.75917ZM10.2931 9.75917C9.52205 9.19895 8.47795 9.19895 7.70687 9.75917L10.058 12.9952C9.42714 13.4536 8.57286 13.4536 7.94199 12.9952L10.2931 9.75917ZM13.2043 11.8743L10.2931 9.75917L7.94199 12.9952L10.8532 15.1103L13.2043 11.8743ZM10.4344 13.8867C9.89557 12.2284 11.7936 10.8493 13.2043 11.8743L10.8532 15.1103C12.5774 16.363 14.8972 14.6775 14.2386 12.6507L10.4344 13.8867ZM9.32242 10.4644L10.4344 13.8867L14.2386 12.6507L13.1266 9.22837L9.32242 10.4644ZM10.1216 8.00476C9.35054 8.56498 9.0279 9.55799 9.32242 10.4644L13.1266 9.22837C13.3676 9.97001 13.1036 10.7825 12.4728 11.2408L10.1216 8.00476ZM13.0328 5.88967L10.1216 8.00476L12.4728 11.2408L15.3839 9.12574L13.0328 5.88967ZM14.0908 9.1459C12.3471 9.1459 11.6221 6.91459 13.0328 5.88967L15.3839 9.12573C17.1081 7.87305 16.222 5.1459 14.0908 5.1459V9.1459ZM10.4924 9.1459H14.0908V5.1459H10.4924V9.1459ZM8.40006 7.62572C8.69459 8.53219 9.5393 9.1459 10.4924 9.1459V5.1459C11.2722 5.1459 11.9633 5.64802 12.2043 6.38968L8.40006 7.62572Z"
          fill="#5C6AC4" mask="url(#path-1-inside-1)"/>
</svg>
