<svg width="32" height="32" viewBox="0 0 32 32" fill="none" xmlns="http://www.w3.org/2000/svg">
<path fill-rule="evenodd" clip-rule="evenodd" d="M16 0C24.8366 0 32 7.16344 32 16C32 24.8366 24.8366 32 16 32C7.16344 32 0 24.8366 0 16C0 7.16344 7.16344 0 16 0ZM18.2222 13.7778V12.0625C18.2222 11.6412 18.3113 11.3403 18.4896 11.1597C18.6678 10.9792 19.0648 10.8889 19.6806 10.8889H21.3333V8H18.6111C17.0231 8 15.8889 8.32349 15.2083 8.97049C14.5278 9.61748 14.1875 10.5729 14.1875 11.8368V13.7778H12V16.6667H14.1875V25.3333H18.2222V16.6667H20.9444L21.3333 13.7778H18.2222Z" fill="white" fill-opacity="0.8"/>
</svg>
