<svg width="24" height="24" viewBox="0 0 24 24" fill="none" xmlns="http://www.w3.org/2000/svg">
    <path d="M22.6755 24C23.4069 24 24 23.4069 24 22.6753V1.32461C24 0.592925 23.407 0 22.6755 0H1.32462C0.59293 0 0 0.592925 0 1.32461V22.6753C0 23.4068 0.592836 24 1.32462 24H22.6755Z" fill="#3C5A99"/>
    <path d="M16.2763 24.0001V14.6165H19.3089L19.7629 10.9595H16.2763V8.62477C16.2763 7.56599 16.5594 6.84447 18.0212 6.84447L19.8857 6.84363V3.57281C19.5632 3.52824 18.4565 3.42867 17.1688 3.42867C14.4807 3.42867 12.6403 5.13291 12.6403 8.2626V10.9595H9.59998V14.6165H12.6403V24.0001H16.2763Z" fill="white"/>
</svg>
