<svg width="1152" height="243" viewBox="0 0 1152 243" fill="none" xmlns="http://www.w3.org/2000/svg">
<path d="M595.582 91.6855L649.075 85.7988V240.862H563.076H494.349C503.928 188.721 532.141 141.842 573.727 108.964L595.582 91.6855Z" fill="url(#paint0_linear)"/>
<path d="M702.567 91.6855L649.074 85.7988V241.492H728.905H797.002C791.849 189.396 765.743 141.633 724.677 109.166L702.567 91.6855Z" fill="url(#paint1_linear)"/>
<path d="M648.662 154.829C647.805 154.829 646.947 154.572 646.209 154.059L586.204 112.333C585.041 111.524 584.347 110.194 584.347 108.774V57.7751C584.347 57.3099 584.422 56.8476 584.569 56.4064L588.342 45.0355L585.607 42.2887C578.838 35.4893 578.838 24.426 585.607 17.6269C585.614 17.62 585.621 17.613 585.628 17.6058C592.365 10.8557 603.341 10.7677 610.165 17.6223L612.141 19.607C614.235 18.03 627.805 7.08392 648.66 7.08392C669.518 7.08392 683.091 18.0291 685.184 19.6061L687.16 17.6217C693.889 10.8632 704.864 10.7602 711.696 17.6055C711.703 17.6125 711.71 17.6194 711.717 17.6266C718.486 24.426 718.486 35.489 711.717 42.2881L708.982 45.0352L712.756 56.4061C712.902 56.8473 712.977 57.3096 712.977 57.7748V108.774C712.977 110.194 712.283 111.524 711.121 112.333L651.115 154.059C650.377 154.572 649.52 154.829 648.662 154.829Z" fill="white"/>
<path d="M648.662 118.106C631.765 118.106 616.299 105.636 616.299 87.9465V76.6259C616.299 69.27 619.18 62.354 624.411 57.152L638.98 42.6638C644.318 37.3555 653.004 37.3558 658.343 42.6635L672.912 57.152C678.143 62.354 681.024 69.27 681.024 76.6259V87.9465C681.024 105.602 665.579 118.106 648.662 118.106Z" fill="url(#paint2_linear)"/>
<path d="M648.662 99.3182C640.209 99.3182 633.332 93.1884 633.332 85.6541C633.332 78.1194 640.209 71.9897 648.662 71.9897C657.115 71.9897 663.991 78.1194 663.991 85.6541C663.991 93.1884 657.115 99.3182 648.662 99.3182Z" fill="#212B36"/>
<path d="M616.41 48.1956C618.794 48.1956 620.727 46.2577 620.727 43.8672C620.727 41.4766 618.794 39.5387 616.41 39.5387C614.026 39.5387 612.094 41.4766 612.094 43.8672C612.094 46.2577 614.026 48.1956 616.41 48.1956Z" fill="#280000"/>
<path d="M681.14 48.1951C683.524 48.1951 685.456 46.2571 685.456 43.8666C685.456 41.4761 683.524 39.5381 681.14 39.5381C678.756 39.5381 676.823 41.4761 676.823 43.8666C676.823 46.2571 678.756 48.1951 681.14 48.1951Z" fill="#280000"/>
<path d="M648.197 242.123C622.628 242.123 618.562 242.123 599.869 225.883V209.084C599.869 198.169 604.229 187.906 612.145 180.187L634.191 158.687C642.269 150.81 655.412 150.81 663.49 158.687L685.537 180.187C693.453 187.906 697.812 198.169 697.812 209.084V225.883C676.571 242.123 673.797 242.123 648.197 242.123Z" fill="url(#paint3_linear)"/>
<path d="M532.376 205.797L524.674 152.285L495.531 192.548L510.876 224.369H524.674V238.136L552.898 232.256L532.376 205.797Z" fill="url(#paint4_linear)"/>
<path d="M498.684 101.113L481.933 95.7866H439.191L416.884 103.547C410.695 105.7 405.13 109.341 400.678 114.149L395.717 119.507C392.349 123.144 389.686 127.375 387.865 131.985L377.021 159.428C382.45 166.547 390.269 171.465 399.037 173.275L407.459 175.014L413.003 207.135C413.192 208.232 413.287 209.342 413.287 210.455C413.287 217.453 409.54 223.916 403.466 227.392L385.44 237.709H428.142H481.933H512.002L522.964 176.175C524.088 169.865 523.68 163.378 521.773 157.259L521.437 156.181L528.561 149.687L521.437 117.866L515.567 111.686C510.921 106.794 505.113 103.157 498.684 101.113Z" fill="url(#paint5_linear)"/>
<path d="M497.643 22.1803L496.335 18.5213C493.958 11.8716 488.985 6.47054 482.554 3.55318C480.208 2.48907 477.718 1.77841 475.164 1.44435L468.024 0.51051C465.465 0.175797 462.863 0.504622 460.468 1.46541C459.667 1.78668 458.84 2.03848 457.995 2.21803L455.129 2.82769C450.817 3.74501 446.764 5.61588 443.269 8.30314C440.358 10.5409 437.89 13.3017 435.991 16.4439L435.5 17.2568C433.441 20.663 431.985 24.3988 431.197 28.2999L422.351 72.0837L412.942 98.6175C412.31 100.401 411.427 102.086 410.321 103.622L407.779 107.151L450.198 91.8905V72.0837L448.579 48.7052L452.14 32.1454L464.121 16.8845L495.206 27.5996V62.6674L482.578 89.2929V96.4363L500.711 101.307L504.06 63.14C504.201 61.532 504.147 59.9129 503.899 58.3179L499.281 28.6284C498.94 26.4322 498.391 24.2732 497.643 22.1803Z" fill="url(#paint6_linear)"/>
<path d="M448.172 44.1507L449.577 35.0363C449.986 32.3796 450.937 29.8352 452.369 27.5607L453.58 25.6384C455.189 23.0835 457.364 20.9326 459.936 19.3517L461.559 18.3545C464.468 16.5662 467.916 15.8632 471.294 16.3697L471.56 16.4096C479.322 17.5736 486.672 20.6537 492.946 25.3716C495.104 26.9951 496.465 29.4649 496.683 32.1569L497.473 41.8863L498.293 47.9735C498.824 51.9096 498.866 55.8962 498.418 59.8426C497.793 65.3641 496.217 70.7358 493.762 75.7207L490.835 81.6623L488.956 84.6113C487.757 86.4933 485.993 87.9474 483.917 88.7653C483.109 89.0835 482.578 89.8635 482.578 90.7318V103.327C482.578 103.711 482.534 104.093 482.449 104.467C481.387 109.078 477.282 112.347 472.549 112.347H465.972C463.574 112.347 461.199 111.878 458.98 110.968L449.588 107.115C446.266 105.753 443.326 103.604 441.019 100.853C439.598 99.1584 439.644 96.6759 441.126 95.0349L442.853 93.1229C445.093 90.6428 446.426 87.4771 446.636 84.1419L447.317 73.3125C447.402 71.9566 447.33 70.5954 447.102 69.2561L446.869 67.8888C446.521 65.8438 445.174 64.1082 443.279 63.2637C441.517 62.4783 440.22 60.9177 439.771 59.0413L438.541 53.9003L437.312 47.7412C437.074 46.5471 437.552 45.3235 438.535 44.606C439.683 43.7689 441.251 43.8116 442.352 44.7099L443.748 45.8497C445.384 47.1847 447.851 46.2373 448.172 44.1507Z" fill="url(#paint7_linear)"/>
<path d="M467.891 67.5272L485.874 69.9677C486.427 70.0428 486.695 70.6859 486.359 71.1316C482.108 76.7638 473.72 76.9694 469.199 71.5524L467.074 69.0056C466.544 68.3707 467.072 67.416 467.891 67.5272Z" fill="white"/>
<path d="M393.355 200.635L407.131 175.014L400.329 173.025C394.55 171.334 389.124 168.614 384.311 164.995L377.342 159.753L364.265 196.052C359.014 210.626 365.724 226.802 379.75 233.38L395.151 240.604H446.312V228.915L411.875 222.636C408.757 222.068 405.819 220.766 403.303 218.84L396.082 213.31C392.186 210.327 391.031 204.957 393.355 200.635Z" fill="url(#paint8_linear)"/>
<path d="M484.844 48.7051L485.771 55.5847C486.137 58.3021 484.024 60.7191 481.282 60.7191V60.7191" stroke="white" stroke-opacity="0.4" stroke-width="3"/>
<rect y="203" width="1152" height="32" fill="#000639"/>
<path fill-rule="evenodd" clip-rule="evenodd" d="M559.854 211.187C562.251 211.187 564.379 210.039 565.721 208.264C567.04 210.039 569.134 211.187 571.491 211.187C573.914 211.187 576.059 209.973 577.371 208.111C578.682 209.973 580.827 211.187 583.251 211.187C585.674 211.187 587.819 209.974 589.13 208.112C590.442 209.974 592.586 211.187 595.01 211.187C597.367 211.187 599.461 210.039 600.78 208.263C602.122 210.039 604.251 211.187 606.648 211.187C610.707 211.187 613.998 207.896 613.998 203.837C613.998 199.778 610.707 196.487 606.648 196.487C604.251 196.487 602.122 197.635 600.78 199.41C599.461 197.635 597.367 196.487 595.01 196.487C592.586 196.487 590.442 197.7 589.13 199.562C587.819 197.7 585.674 196.487 583.251 196.487C580.827 196.487 578.682 197.7 577.371 199.562C576.059 197.7 573.914 196.487 571.491 196.487C569.134 196.487 567.04 197.634 565.721 199.409C564.379 197.634 562.251 196.487 559.854 196.487C555.795 196.487 552.504 199.778 552.504 203.837C552.504 207.896 555.795 211.187 559.854 211.187Z" fill="url(#paint9_linear)"/>
<path fill-rule="evenodd" clip-rule="evenodd" d="M695.092 211.187C697.49 211.187 699.62 210.038 700.961 208.261C702.281 210.038 704.375 211.187 706.733 211.187C709.156 211.187 711.3 209.974 712.611 208.114C713.923 209.974 716.067 211.187 718.49 211.187C720.914 211.187 723.059 209.973 724.37 208.111C725.681 209.973 727.826 211.187 730.25 211.187C732.606 211.187 734.699 210.04 736.019 208.265C737.361 210.04 739.489 211.187 741.886 211.187C745.945 211.187 749.235 207.896 749.235 203.837C749.235 199.778 745.945 196.487 741.886 196.487C739.489 196.487 737.361 197.634 736.019 199.409C734.699 197.634 732.606 196.487 730.25 196.487C727.826 196.487 725.681 197.7 724.37 199.562C723.059 197.7 720.914 196.487 718.49 196.487C716.067 196.487 713.923 197.699 712.611 199.56C711.3 197.699 709.156 196.487 706.733 196.487C704.375 196.487 702.281 197.635 700.961 199.412C699.62 197.635 697.49 196.487 695.092 196.487C691.033 196.487 687.742 199.778 687.742 203.837C687.742 207.896 691.033 211.187 695.092 211.187Z" fill="url(#paint10_linear)"/>
<defs>
<linearGradient id="paint0_linear" x1="580.186" y1="144.666" x2="581.514" y2="257.687" gradientUnits="userSpaceOnUse">
<stop stop-color="white"/>
<stop offset="1" stop-color="#C4CDD5"/>
</linearGradient>
<linearGradient id="paint1_linear" x1="717.962" y1="144.666" x2="716.634" y2="257.687" gradientUnits="userSpaceOnUse">
<stop stop-color="white"/>
<stop offset="1" stop-color="#C4CDD5"/>
</linearGradient>
<linearGradient id="paint2_linear" x1="648.679" y1="50.1195" x2="648.679" y2="123.371" gradientUnits="userSpaceOnUse">
<stop stop-color="#C4CDD5"/>
<stop offset="1" stop-color="#F9FAFB"/>
</linearGradient>
<linearGradient id="paint3_linear" x1="648.841" y1="191.985" x2="648.841" y2="222.773" gradientUnits="userSpaceOnUse">
<stop stop-color="white"/>
<stop offset="1" stop-color="#DBE0E5"/>
</linearGradient>
<linearGradient id="paint4_linear" x1="537.869" y1="176.814" x2="484.586" y2="199.222" gradientUnits="userSpaceOnUse">
<stop stop-color="#FEB7A9"/>
<stop offset="1" stop-color="#F89380"/>
</linearGradient>
<linearGradient id="paint5_linear" x1="411.84" y1="263.474" x2="493.784" y2="146.588" gradientUnits="userSpaceOnUse">
<stop stop-color="#0057FF"/>
<stop offset="1" stop-color="#00C2FF"/>
</linearGradient>
<linearGradient id="paint6_linear" x1="446.973" y1="15.8033" x2="431.388" y2="107.241" gradientUnits="userSpaceOnUse">
<stop stop-color="#FED030"/>
<stop offset="1" stop-color="#F59940"/>
</linearGradient>
<linearGradient id="paint7_linear" x1="482.804" y1="43.2316" x2="424.398" y2="66.8494" gradientUnits="userSpaceOnUse">
<stop stop-color="#FEB7A9"/>
<stop offset="1" stop-color="#F89380"/>
</linearGradient>
<linearGradient id="paint8_linear" x1="422.388" y1="182.853" x2="356.079" y2="229.986" gradientUnits="userSpaceOnUse">
<stop stop-color="#FEB7A9"/>
<stop offset="1" stop-color="#F89380"/>
</linearGradient>
<linearGradient id="paint9_linear" x1="583.128" y1="203.837" x2="583.251" y2="211.187" gradientUnits="userSpaceOnUse">
<stop stop-color="white"/>
<stop offset="1" stop-color="#DCE1E6"/>
</linearGradient>
<linearGradient id="paint10_linear" x1="718.366" y1="203.837" x2="718.489" y2="211.187" gradientUnits="userSpaceOnUse">
<stop stop-color="white"/>
<stop offset="1" stop-color="#DCE1E6"/>
</linearGradient>
</defs>
</svg>
