<svg width="24" height="25" viewBox="0 0 24 25" fill="none" xmlns="http://www.w3.org/2000/svg">
    <g clip-path="url(#clip0)">
        <path d="M23.9873 12.4846C23.9873 11.4804 23.9057 10.7476 23.729 9.98771H12.239V14.5201H18.9833C18.8474 15.6465 18.1132 17.3428 16.4814 18.4826L16.4585 18.6344L20.0915 21.4431L20.3431 21.4681C22.6547 19.3376 23.9873 16.2028 23.9873 12.4846Z" fill="#4285F4"/>
        <path d="M12.239 24.4264C15.5432 24.4264 18.3171 23.3408 20.3432 21.4681L16.4814 18.4826C15.4481 19.2018 14.0611 19.7039 12.239 19.7039C9.00285 19.7039 6.25616 17.5735 5.27704 14.6287L5.13353 14.6409L1.35598 17.5585L1.30658 17.6955C3.319 21.6852 7.45266 24.4264 12.239 24.4264Z" fill="#34A853"/>
        <path d="M5.27702 14.6288C5.01867 13.8688 4.86916 13.0546 4.86916 12.2133C4.86916 11.3719 5.01867 10.5577 5.26343 9.79774L5.25658 9.6359L1.4317 6.67142L1.30655 6.73083C0.47714 8.38642 0.0012207 10.2456 0.0012207 12.2133C0.0012207 14.1809 0.47714 16.04 1.30655 17.6956L5.27702 14.6288Z" fill="#FBBC05"/>
        <path d="M12.2391 4.72244C14.537 4.72244 16.0871 5.71306 16.971 6.5409L20.4247 3.17546C18.3036 1.20778 15.5432 2.28882e-05 12.2391 2.28882e-05C7.45267 2.28882e-05 3.319 2.74119 1.30658 6.73081L5.26346 9.79773C6.25617 6.85299 9.00285 4.72244 12.2391 4.72244Z" fill="#EB4335"/>
    </g>
    <defs>
        <clipPath id="clip0">
            <rect width="24" height="24.5106" fill="white"/>
        </clipPath>
    </defs>
</svg>
