<svg width="575" height="229" viewBox="0 0 575 229" fill="none" xmlns="http://www.w3.org/2000/svg">
<path d="M278.12 222.486L295.579 215.856L294.562 213.108L274.54 220.711L260.289 211.276L279.025 200.198L298.139 216.052C301.451 218.798 300.782 224.11 296.896 225.926L293.614 227.46C292.074 228.18 290.301 228.18 288.762 227.46L278.12 222.486ZM276.633 198.214L257.733 209.389L246.335 198.651L267.612 190.731L276.633 198.214ZM246.866 173.523L265.01 188.573L243.963 196.407L233.402 186.296C230.702 183.711 231.066 179.256 234.148 177.156L239.964 173.194C242.085 171.75 244.889 171.884 246.866 173.523Z" fill="url(#paint0_linear)" stroke="#E7E7E7" stroke-width="2"/>
<path d="M223.601 163.293L238.003 92.4755H285.533L302.816 124.665L320.099 121.089L381.671 176.169L384.912 188.329L378.791 196.198L370.509 198.344L361.867 209.074H348.185L339.543 219.804L320.099 224.811H298.495L223.601 163.293Z" fill="url(#paint1_linear)"/>
<path d="M321.026 223.261L302.18 224.74C300.217 225.016 298.225 224.481 296.675 223.261L215.614 155.454L234.328 90.881H284.086C285.877 90.881 287.603 91.5396 288.927 92.7287L318.537 119.303L381.029 176.881C382.486 178.225 383.314 180.106 383.314 182.076V188.868C383.314 191.888 381.382 194.577 378.495 195.575L368.919 198.883M321.026 223.261L295.506 193.91M321.026 223.261H332.891C336.844 223.261 340.427 220.932 342.031 217.318L345.168 210.252M368.919 198.883L362.442 207.41C361.081 209.199 358.951 210.252 356.684 210.252H345.168M368.919 198.883L336.531 166.198M345.168 210.252L309.181 173.659" stroke="url(#paint2_linear)" stroke-width="4"/>
<path fill-rule="evenodd" clip-rule="evenodd" d="M183.209 63.7843C194.724 64.5038 233.039 67.607 242.621 77.1882C243.862 78.4149 244.488 80.1847 244.342 81.9784C241.806 112.645 222.554 175.006 221.726 177.689L221.725 177.692C220.976 180.122 218.829 181.762 216.414 181.762H182.873C179.788 181.762 177.283 179.119 177.283 175.863V69.6719C177.283 68.0434 177.92 66.486 179.039 65.3773C180.157 64.2562 181.622 63.7019 183.209 63.7843Z" fill="url(#paint3_linear)"/>
<path d="M0 23.9161L182.074 64.8506V179.796C182.074 182.028 180.022 183.709 177.805 183.293L0 149.923V23.9161Z" fill="url(#paint4_linear)"/>
<path fill-rule="evenodd" clip-rule="evenodd" d="M574.972 0L399.657 69.5383L340.875 83.2842C340.337 83.41 339.786 83.4736 339.234 83.4736H296.402C294.271 83.4736 292.25 84.4155 290.886 86.0448L258.805 124.364C257.729 125.648 257.141 127.267 257.141 128.939V134.212C257.141 140.133 261.962 144.932 267.91 144.932H275.201C276.536 144.932 277.845 144.561 278.98 143.862L307.398 126.351L314.31 122.911C317.049 121.549 320.354 122.064 322.542 124.195L384.938 184.951L402.373 183.854L481.668 195.292C483.817 195.602 485.744 193.929 485.744 191.75V185.86L544.585 202.351C547.534 203.178 550.086 200.139 548.769 197.366L545.003 189.438L574.967 199.301C574.967 192.629 575.041 190.002 574.967 188.65V172.993L574.972 172.993V0Z" fill="url(#paint5_linear)"/>
<defs>
<linearGradient id="paint0_linear" x1="269.996" y1="196.454" x2="225.667" y2="213.665" gradientUnits="userSpaceOnUse">
<stop stop-color="#F9FAFB"/>
<stop offset="1" stop-color="white"/>
</linearGradient>
<linearGradient id="paint1_linear" x1="353.946" y1="185.468" x2="223.912" y2="124.715" gradientUnits="userSpaceOnUse">
<stop stop-color="#FFC0B5"/>
<stop offset="1" stop-color="#F78C78"/>
</linearGradient>
<linearGradient id="paint2_linear" x1="259.55" y1="129.147" x2="372.631" y2="218.261" gradientUnits="userSpaceOnUse">
<stop stop-color="#FEB7A9"/>
<stop offset="1" stop-color="#F89380"/>
</linearGradient>
<linearGradient id="paint3_linear" x1="210.823" y1="63.7763" x2="210.823" y2="181.762" gradientUnits="userSpaceOnUse">
<stop stop-color="white"/>
<stop offset="1" stop-color="#E0F5F5"/>
</linearGradient>
<linearGradient id="paint4_linear" x1="181.823" y1="122" x2="0.682571" y2="110.881" gradientUnits="userSpaceOnUse">
<stop stop-color="#0057FF"/>
<stop offset="1" stop-color="#00C2FF" stop-opacity="0"/>
</linearGradient>
<linearGradient id="paint5_linear" x1="403.606" y1="126" x2="566.448" y2="124.004" gradientUnits="userSpaceOnUse">
<stop stop-color="white"/>
<stop offset="1" stop-color="white" stop-opacity="0"/>
</linearGradient>
</defs>
</svg>
