<svg width="360" height="194" viewBox="0 0 360 194" fill="none" xmlns="http://www.w3.org/2000/svg">
<g clip-path="url(#clip0)">
<path d="M190.777 72.7054L233.196 68.0374V191H165H110.5V191C118.097 149.653 140.469 112.479 173.446 86.4071L190.777 72.7054Z" fill="url(#paint0_linear)"/>
<path d="M275.614 72.7054L233.195 68.0374V191.5H296.5H350.5V191.5C346.414 150.189 325.712 112.313 293.147 86.5671L275.614 72.7054Z" fill="url(#paint1_linear)"/>
<path d="M232.869 122.777C232.189 122.777 231.508 122.574 230.923 122.167L183.34 89.0783C182.418 88.4371 181.868 87.3824 181.868 86.2561V45.8148C181.868 45.446 181.927 45.0794 182.043 44.7295L185.036 35.7126L182.867 33.5344C177.499 28.1425 177.499 19.3695 182.867 13.9779C182.872 13.9724 182.878 13.9669 182.883 13.9612C188.226 8.60843 196.929 8.53864 202.34 13.9742L203.908 15.5481C205.568 14.2975 216.329 5.61743 232.867 5.61743C249.407 5.61743 260.17 14.2968 261.83 15.5474L263.397 13.9737C268.732 8.61438 277.436 8.53269 282.854 13.9609C282.859 13.9664 282.865 13.9719 282.87 13.9776C288.238 19.3695 288.238 28.1423 282.87 33.5339L280.702 35.7123L283.694 44.7293C283.81 45.0791 283.869 45.4457 283.869 45.8146V86.2561C283.869 87.3824 283.319 88.4371 282.397 89.0783L234.814 122.167C234.229 122.574 233.549 122.777 232.869 122.777V122.777Z" fill="white"/>
<path d="M232.868 93.6565C219.469 93.6565 207.205 83.7679 207.205 69.7404V60.7633C207.205 54.9302 209.49 49.4459 213.638 45.3208L225.191 33.8318C229.424 29.6224 236.312 29.6226 240.545 33.8316L252.099 45.3208C256.247 49.4459 258.531 54.9302 258.531 60.7633V69.7404C258.531 83.7409 246.284 93.6565 232.868 93.6565Z" fill="url(#paint2_linear)"/>
<path d="M232.868 78.758C226.165 78.758 220.712 73.8972 220.712 67.9226C220.712 61.9477 226.165 57.0869 232.868 57.0869C239.571 57.0869 245.024 61.9477 245.024 67.9226C245.024 73.8972 239.571 78.758 232.868 78.758Z" fill="#212B36"/>
<path d="M207.293 38.2186C209.183 38.2186 210.716 36.6818 210.716 34.7862C210.716 32.8905 209.183 31.3538 207.293 31.3538C205.403 31.3538 203.87 32.8905 203.87 34.7862C203.87 36.6818 205.403 38.2186 207.293 38.2186Z" fill="#280000"/>
<path d="M258.623 38.2181C260.514 38.2181 262.046 36.6813 262.046 34.7857C262.046 32.89 260.514 31.3533 258.623 31.3533C256.733 31.3533 255.2 32.89 255.2 34.7857C255.2 36.6813 256.733 38.2181 258.623 38.2181Z" fill="#280000"/>
<path d="M232.5 192C212.224 192 209 192 194.177 179.122V165.801C194.177 157.145 197.634 149.007 203.911 142.885L221.394 125.837C227.799 119.59 238.222 119.59 244.628 125.836L262.11 142.885C268.387 149.007 271.844 157.145 271.844 165.801V179.122C255 192 252.8 192 232.5 192Z" fill="url(#paint3_linear)"/>
<path d="M140.656 163.194L134.549 120.76L111.439 152.688L123.607 177.921H134.549V188.839L156.931 184.176L140.656 163.194Z" fill="url(#paint4_linear)"/>
<path d="M111.91 79.5358L100.656 75.9575H66.7622L51.0241 81.4328C44.8353 83.5859 39.2702 87.2264 34.8181 92.0343L33.3423 93.6281C29.9745 97.2651 27.312 101.496 25.4905 106.106L17.4622 126.424C21.7673 132.07 27.9674 135.969 34.9204 137.405L41.5986 138.784L45.995 164.256C46.1451 165.125 46.2205 166.005 46.2205 166.888C46.2205 172.437 43.2488 177.562 38.4323 180.319L24.1382 188.5H58H100.656H124.5L133.036 140.586C134.03 135.003 133.669 129.263 131.982 123.85L137.631 118.7L131.982 93.4664L128.794 90.1093C124.147 85.2174 118.34 81.5801 111.91 79.5358Z" fill="url(#paint5_linear)"/>
<path d="M113.114 17.5887L112.077 14.6871C110.192 9.41402 106.248 5.13105 101.149 2.81763C99.2884 1.9738 97.3135 1.41026 95.2882 1.14535L89.6266 0.404828C87.5973 0.139405 85.5339 0.400158 83.6344 1.16205C82.9993 1.41681 82.3434 1.61649 81.6741 1.75887L79.4013 2.24232C75.9815 2.96974 72.7679 4.45332 69.9961 6.58428C67.6879 8.35882 65.7306 10.5481 64.2247 13.0398L63.8351 13.6844C62.2026 16.3855 61.0484 19.3479 60.4234 22.4415L53.4081 57.1614L46.145 77.6456C45.5125 79.4295 44.63 81.1146 43.5238 82.6504L41.8534 84.9697L75.4904 72.868V57.1614L74.2065 38.6226L77.031 25.4909L86.5315 13.3892L111.182 21.8861V49.6944L101.167 70.8081V76.4727L115.547 80.335L118.159 50.5703C118.3 48.9623 118.246 47.3432 117.998 45.7482L114.413 22.702C114.142 20.9604 113.707 19.2483 113.114 17.5887Z" fill="url(#paint6_linear)"/>
<path d="M73.8842 35.011L74.9981 27.7833C75.3228 25.6766 76.0765 23.659 77.2125 21.8553L78.1726 20.3309C79.4486 18.305 81.173 16.5993 83.2129 15.3456L84.4994 14.5549C86.8068 13.1368 89.5409 12.5794 92.2192 12.981L92.4304 13.0126C98.5859 13.9357 104.414 16.3782 109.389 20.1194C111.101 21.4068 112.179 23.3653 112.353 25.5001L112.979 33.2153L113.629 38.0424C114.05 41.1637 114.083 44.3249 113.729 47.4544C113.233 51.8329 111.983 56.0926 110.036 60.0455L107.715 64.7571L106.225 67.0957C105.274 68.5881 103.875 69.7411 102.229 70.3897C101.588 70.6421 101.167 71.2606 101.167 71.9491V81.9373C101.167 82.2413 101.133 82.5443 101.065 82.8406C100.223 86.4978 96.9675 89.0893 93.2147 89.0893H87.999C86.0974 89.0893 84.2142 88.7181 82.4549 87.9964L75.0067 84.9409C72.3729 83.8605 70.0411 82.1563 68.2119 79.9749C67.0852 78.6313 67.1213 76.6628 68.2966 75.3614L69.666 73.8452C71.4422 71.8786 72.4996 69.3682 72.6659 66.7235L73.206 58.1358C73.2736 57.0607 73.2164 55.9813 73.0356 54.9192L72.851 53.835C72.5749 52.2133 71.5065 50.837 70.004 50.1673C68.6065 49.5445 67.5784 48.3069 67.2223 46.819L66.2466 42.7422L65.2725 37.8582C65.0836 36.9113 65.4621 35.9409 66.2422 35.372C67.1524 34.7082 68.3958 34.7421 69.2686 35.4544L70.376 36.3583C71.6729 37.4168 73.6292 36.6656 73.8842 35.011Z" fill="url(#paint7_linear)"/>
<path d="M89.5211 53.5483L103.781 55.4836C104.22 55.5431 104.432 56.0531 104.166 56.4066C100.795 60.8728 94.1437 61.0359 90.5584 56.7402L88.8728 54.7207C88.4526 54.2172 88.8712 53.4601 89.5211 53.5483Z" fill="white"/>
<path d="M31.2499 157.548L41.3399 138.784L37.7548 137.735C31.9758 136.045 26.5495 133.325 21.7374 129.706L17.717 126.682L9.26552 150.142C4.01492 164.716 10.7249 180.892 24.7503 187.471L31.8394 190.796H72.4092V181.526L46.0837 176.726C42.9659 176.158 40.0277 174.857 37.5115 172.93L33.9776 170.224C30.0814 167.24 28.9258 161.87 31.2499 157.548Z" fill="url(#paint8_linear)"/>
<path d="M102.964 38.6226L103.699 44.0779C103.99 46.2328 102.314 48.1495 100.14 48.1495V48.1495" stroke="white" stroke-opacity="0.4" stroke-width="3"/>
<rect x="0.00195312" y="162" width="360" height="32" fill="#111D63"/>
<path fill-rule="evenodd" clip-rule="evenodd" d="M176.336 165.03C175.297 166.506 173.596 167.468 171.674 167.468C169.805 167.468 168.145 166.558 167.098 165.151C166.034 166.558 164.346 167.468 162.446 167.468C159.227 167.468 156.617 164.859 156.617 161.64C156.617 158.421 159.227 155.812 162.446 155.812C164.346 155.812 166.034 156.721 167.098 158.129C168.145 156.721 169.805 155.812 171.674 155.812C173.596 155.812 175.297 156.774 176.336 158.25C177.376 156.774 179.077 155.812 180.999 155.812C182.921 155.812 184.622 156.773 185.661 158.249C186.701 156.773 188.402 155.812 190.324 155.812C192.193 155.812 193.853 156.722 194.899 158.13C195.963 156.722 197.652 155.812 199.553 155.812C202.772 155.812 205.381 158.421 205.381 161.64C205.381 164.859 202.772 167.468 199.553 167.468C197.652 167.468 195.963 166.558 194.899 165.15C193.853 166.558 192.193 167.468 190.324 167.468C188.402 167.468 186.701 166.506 185.661 165.03C184.622 166.506 182.921 167.468 180.999 167.468C179.077 167.468 177.376 166.506 176.336 165.03Z" fill="url(#paint9_linear)"/>
<path fill-rule="evenodd" clip-rule="evenodd" d="M283.58 165.031C282.54 166.507 280.84 167.468 278.918 167.468C277.049 167.468 275.388 166.558 274.342 165.149C273.278 166.558 271.589 167.468 269.688 167.468C266.469 167.468 263.859 164.859 263.859 161.64C263.859 158.421 266.469 155.812 269.688 155.812C271.589 155.812 273.278 156.722 274.342 158.131C275.388 156.722 277.049 155.812 278.918 155.812C280.84 155.812 282.54 156.773 283.58 158.249C284.62 156.773 286.321 155.812 288.242 155.812C290.164 155.812 291.865 156.774 292.905 158.25C293.944 156.774 295.645 155.812 297.567 155.812C299.436 155.812 301.096 156.721 302.142 158.128C303.206 156.721 304.894 155.812 306.794 155.812C310.013 155.812 312.623 158.421 312.623 161.64C312.623 164.859 310.013 167.468 306.794 167.468C304.894 167.468 303.206 166.559 302.142 165.151C301.096 166.559 299.436 167.468 297.567 167.468C295.645 167.468 293.944 166.506 292.905 165.03C291.865 166.506 290.164 167.468 288.242 167.468C286.321 167.468 284.62 166.507 283.58 165.031Z" fill="url(#paint10_linear)"/>
</g>
<defs>
<linearGradient id="paint0_linear" x1="178.568" y1="114.718" x2="179.621" y2="204.342" gradientUnits="userSpaceOnUse">
<stop stop-color="white"/>
<stop offset="1" stop-color="#C4CDD5"/>
</linearGradient>
<linearGradient id="paint1_linear" x1="287.822" y1="114.718" x2="286.769" y2="204.342" gradientUnits="userSpaceOnUse">
<stop stop-color="white"/>
<stop offset="1" stop-color="#C4CDD5"/>
</linearGradient>
<linearGradient id="paint2_linear" x1="232.882" y1="39.7441" x2="232.882" y2="97.8317" gradientUnits="userSpaceOnUse">
<stop stop-color="#C4CDD5"/>
<stop offset="1" stop-color="#F9FAFB"/>
</linearGradient>
<linearGradient id="paint3_linear" x1="233.011" y1="152.242" x2="233.011" y2="176.656" gradientUnits="userSpaceOnUse">
<stop stop-color="white"/>
<stop offset="1" stop-color="#DBE0E5"/>
</linearGradient>
<linearGradient id="paint4_linear" x1="145.012" y1="140.211" x2="102.76" y2="157.98" gradientUnits="userSpaceOnUse">
<stop stop-color="#FEB7A9"/>
<stop offset="1" stop-color="#F89380"/>
</linearGradient>
<linearGradient id="paint5_linear" x1="45.0733" y1="208.932" x2="110.054" y2="116.242" gradientUnits="userSpaceOnUse">
<stop stop-color="#0057FF"/>
<stop offset="1" stop-color="#00C2FF"/>
</linearGradient>
<linearGradient id="paint6_linear" x1="72.9336" y1="12.5318" x2="60.5749" y2="85.0406" gradientUnits="userSpaceOnUse">
<stop stop-color="#FED030"/>
<stop offset="1" stop-color="#F59940"/>
</linearGradient>
<linearGradient id="paint7_linear" x1="101.346" y1="34.2821" x2="55.0313" y2="53.0107" gradientUnits="userSpaceOnUse">
<stop stop-color="#FEB7A9"/>
<stop offset="1" stop-color="#F89380"/>
</linearGradient>
<linearGradient id="paint8_linear" x1="53.4384" y1="145" x2="0.85625" y2="182.376" gradientUnits="userSpaceOnUse">
<stop stop-color="#FEB7A9"/>
<stop offset="1" stop-color="#F89380"/>
</linearGradient>
<linearGradient id="paint9_linear" x1="180.902" y1="161.64" x2="180.999" y2="167.468" gradientUnits="userSpaceOnUse">
<stop stop-color="white"/>
<stop offset="1" stop-color="#DCE1E6"/>
</linearGradient>
<linearGradient id="paint10_linear" x1="288.144" y1="161.64" x2="288.241" y2="167.468" gradientUnits="userSpaceOnUse">
<stop stop-color="white"/>
<stop offset="1" stop-color="#DCE1E6"/>
</linearGradient>
<clipPath id="clip0">
<rect width="360" height="194" fill="white"/>
</clipPath>
</defs>
</svg>
