<?xml version="1.0" encoding="UTF-8"?>
<svg width="149px" height="187px" viewBox="0 0 149 187" version="1.1" xmlns="http://www.w3.org/2000/svg" xmlns:xlink="http://www.w3.org/1999/xlink">
    <!-- Generator: sketchtool 63.1 (101010) - https://sketch.com -->
    <title>1715F833-7F92-4DEB-8CFA-9C034913D22D@2x</title>
    <desc>Created with sketchtool.</desc>
    <defs>
        <path d="M34.5970345,0.505137931 L34.5970345,39.1373793 C29.940069,44.0583793 26.1721724,49.7924483 23.6418966,56.3461379 L23.6418966,56.3461379 L0,56.3461379 L0,152.601448 L15.3421724,152.601448 C16.1545862,155.811138 17.3535517,159.221966 19.0524138,162.913207 L19.0524138,162.913207 C34.716931,196.946138 89.0444828,196.218897 121.027379,181.26131 L121.027379,181.26131 C133.478276,175.438793 136.614586,165.782207 136.803931,153.052207 L136.803931,153.052207 L151.604276,153.052207 L151.604276,56.7968966 L145.307414,56.7968966 C145.463345,48.1885862 142.897034,40.9613793 138.401241,35.1211724 L138.401241,35.1211724 L138.401241,0.505137931" id="path-1"></path>
        <path d="M34.5970345,0.505137931 L34.5970345,39.1373793 C29.940069,44.0583793 26.1721724,49.7924483 23.6418966,56.3461379 L23.6418966,56.3461379 L0,56.3461379 L0,152.601448 L15.3421724,152.601448 C16.1545862,155.811138 17.3535517,159.221966 19.0524138,162.913207 L19.0524138,162.913207 C34.716931,196.946138 89.0444828,196.218897 121.027379,181.26131 L121.027379,181.26131 C133.478276,175.438793 136.614586,165.782207 136.803931,153.052207 L136.803931,153.052207 L151.604276,153.052207 L151.604276,56.7968966 L145.307414,56.7968966 C145.463345,48.1885862 142.897034,40.9613793 138.401241,35.1211724 L138.401241,35.1211724 L138.401241,0.505137931" id="path-3"></path>
        <path d="M34.5970345,0.505137931 L34.5970345,39.1373793 C29.940069,44.0583793 26.1721724,49.7924483 23.6418966,56.3461379 L23.6418966,56.3461379 L0,56.3461379 L0,152.601448 L15.3421724,152.601448 C16.1545862,155.811138 17.3535517,159.221966 19.0524138,162.913207 L19.0524138,162.913207 C34.716931,196.946138 89.0444828,196.218897 121.027379,181.26131 L121.027379,181.26131 C133.478276,175.438793 136.614586,165.782207 136.803931,153.052207 L136.803931,153.052207 L151.604276,153.052207 L151.604276,56.7968966 L145.307414,56.7968966 C145.463345,48.1885862 142.897034,40.9613793 138.401241,35.1211724 L138.401241,35.1211724 L138.401241,0.505137931" id="path-5"></path>
        <path d="M34.5970345,0.505137931 L34.5970345,39.1373793 C29.940069,44.0583793 26.1721724,49.7924483 23.6418966,56.3461379 L23.6418966,56.3461379 L0,56.3461379 L0,152.601448 L15.3421724,152.601448 C16.1545862,155.811138 17.3535517,159.221966 19.0524138,162.913207 L19.0524138,162.913207 C34.716931,196.946138 89.0444828,196.218897 121.027379,181.26131 L121.027379,181.26131 C133.478276,175.438793 136.614586,165.782207 136.803931,153.052207 L136.803931,153.052207 L151.604276,153.052207 L151.604276,56.7968966 L145.307414,56.7968966 C145.463345,48.1885862 142.897034,40.9613793 138.401241,35.1211724 L138.401241,35.1211724 L138.401241,0.505137931" id="path-7"></path>
        <path d="M34.5970345,0.505137931 L34.5970345,39.1373793 C29.940069,44.0583793 26.1721724,49.7924483 23.6418966,56.3461379 L23.6418966,56.3461379 L0,56.3461379 L0,152.601448 L15.3421724,152.601448 C16.1545862,155.811138 17.3535517,159.221966 19.0524138,162.913207 L19.0524138,162.913207 C34.716931,196.946138 89.0444828,196.218897 121.027379,181.26131 L121.027379,181.26131 C133.478276,175.438793 136.614586,165.782207 136.803931,153.052207 L136.803931,153.052207 L151.604276,153.052207 L151.604276,56.7968966 L145.307414,56.7968966 C145.463345,48.1885862 142.897034,40.9613793 138.401241,35.1211724 L138.401241,35.1211724 L138.401241,0.505137931 L34.5970345,0.505137931 Z" id="path-9"></path>
        <path d="M34.5970345,0.505137931 L34.5970345,39.1373793 C29.940069,44.0583793 26.1721724,49.7924483 23.6418966,56.3461379 L23.6418966,56.3461379 L0,56.3461379 L0,152.601448 L15.3421724,152.601448 C16.1545862,155.811138 17.3535517,159.221966 19.0524138,162.913207 L19.0524138,162.913207 C34.716931,196.946138 89.0444828,196.218897 121.027379,181.26131 L121.027379,181.26131 C133.478276,175.438793 136.614586,165.782207 136.803931,153.052207 L136.803931,153.052207 L151.604276,153.052207 L151.604276,56.7968966 L145.307414,56.7968966 C145.463345,48.1885862 142.897034,40.9613793 138.401241,35.1211724 L138.401241,35.1211724 L138.401241,0.505137931" id="path-11"></path>
        <path d="M34.5970345,0.505137931 L34.5970345,39.1373793 C29.940069,44.0583793 26.1721724,49.7924483 23.6418966,56.3461379 L23.6418966,56.3461379 L0,56.3461379 L0,152.601448 L15.3421724,152.601448 C16.1545862,155.811138 17.3535517,159.221966 19.0524138,162.913207 L19.0524138,162.913207 C34.716931,196.946138 89.0444828,196.218897 121.027379,181.26131 L121.027379,181.26131 C133.478276,175.438793 136.614586,165.782207 136.803931,153.052207 L136.803931,153.052207 L151.604276,153.052207 L151.604276,56.7968966 L145.307414,56.7968966 C145.463345,48.1885862 142.897034,40.9613793 138.401241,35.1211724 L138.401241,35.1211724 L138.401241,0.505137931" id="path-13"></path>
        <path d="M34.5970345,0.505137931 L34.5970345,39.1373793 C29.940069,44.0583793 26.1721724,49.7924483 23.6418966,56.3461379 L23.6418966,56.3461379 L0,56.3461379 L0,152.601448 L15.3421724,152.601448 C16.1545862,155.811138 17.3535517,159.221966 19.0524138,162.913207 L19.0524138,162.913207 C34.716931,196.946138 89.0444828,196.218897 121.027379,181.26131 L121.027379,181.26131 C133.478276,175.438793 136.614586,165.782207 136.803931,153.052207 L136.803931,153.052207 L151.604276,153.052207 L151.604276,56.7968966 L145.307414,56.7968966 C145.463345,48.1885862 142.897034,40.9613793 138.401241,35.1211724 L138.401241,35.1211724 L138.401241,0.505137931" id="path-15"></path>
        <path d="M34.5970345,0.505137931 L34.5970345,39.1373793 C29.940069,44.0583793 26.1721724,49.7924483 23.6418966,56.3461379 L23.6418966,56.3461379 L0,56.3461379 L0,152.601448 L15.3421724,152.601448 C16.1545862,155.811138 17.3535517,159.221966 19.0524138,162.913207 L19.0524138,162.913207 C34.716931,196.946138 89.0444828,196.218897 121.027379,181.26131 L121.027379,181.26131 C133.478276,175.438793 136.614586,165.782207 136.803931,153.052207 L136.803931,153.052207 L151.604276,153.052207 L151.604276,56.7968966 L145.307414,56.7968966 C145.463345,48.1885862 142.897034,40.9613793 138.401241,35.1211724 L138.401241,35.1211724 L138.401241,0.505137931" id="path-17"></path>
        <path d="M34.5970345,0.505137931 L34.5970345,39.1373793 C29.940069,44.0583793 26.1721724,49.7924483 23.6418966,56.3461379 L23.6418966,56.3461379 L0,56.3461379 L0,152.601448 L15.3421724,152.601448 C16.1545862,155.811138 17.3535517,159.221966 19.0524138,162.913207 L19.0524138,162.913207 C34.716931,196.946138 89.0444828,196.218897 121.027379,181.26131 L121.027379,181.26131 C133.478276,175.438793 136.614586,165.782207 136.803931,153.052207 L136.803931,153.052207 L151.604276,153.052207 L151.604276,56.7968966 L145.307414,56.7968966 C145.463345,48.1885862 142.897034,40.9613793 138.401241,35.1211724 L138.401241,35.1211724 L138.401241,0.505137931" id="path-19"></path>
        <path d="M34.5970345,0.505137931 L34.5970345,39.1373793 C29.940069,44.0583793 26.1721724,49.7924483 23.6418966,56.3461379 L23.6418966,56.3461379 L0,56.3461379 L0,152.601448 L15.3421724,152.601448 C16.1545862,155.811138 17.3535517,159.221966 19.0524138,162.913207 L19.0524138,162.913207 C34.716931,196.946138 89.0444828,196.218897 121.027379,181.26131 L121.027379,181.26131 C133.478276,175.438793 136.614586,165.782207 136.803931,153.052207 L136.803931,153.052207 L151.604276,153.052207 L151.604276,56.7968966 L145.307414,56.7968966 C145.463345,48.1885862 142.897034,40.9613793 138.401241,35.1211724 L138.401241,35.1211724 L138.401241,0.505137931 L34.5970345,0.505137931 Z" id="path-21"></path>
        <path d="M34.5970345,0.505137931 L34.5970345,39.1373793 C29.940069,44.0583793 26.1721724,49.7924483 23.6418966,56.3461379 L23.6418966,56.3461379 L0,56.3461379 L0,152.601448 L15.3421724,152.601448 C16.1545862,155.811138 17.3535517,159.221966 19.0524138,162.913207 L19.0524138,162.913207 C34.716931,196.946138 89.0444828,196.218897 121.027379,181.26131 L121.027379,181.26131 C133.478276,175.438793 136.614586,165.782207 136.803931,153.052207 L136.803931,153.052207 L151.604276,153.052207 L151.604276,56.7968966 L145.307414,56.7968966 C145.463345,48.1885862 142.897034,40.9613793 138.401241,35.1211724 L138.401241,35.1211724 L138.401241,0.505137931" id="path-23"></path>
        <path d="M34.5970345,0.505137931 L34.5970345,39.1373793 C29.940069,44.0583793 26.1721724,49.7924483 23.6418966,56.3461379 L23.6418966,56.3461379 L0,56.3461379 L0,152.601448 L15.3421724,152.601448 C16.1545862,155.811138 17.3535517,159.221966 19.0524138,162.913207 L19.0524138,162.913207 C34.716931,196.946138 89.0444828,196.218897 121.027379,181.26131 L121.027379,181.26131 C133.478276,175.438793 136.614586,165.782207 136.803931,153.052207 L136.803931,153.052207 L151.604276,153.052207 L151.604276,56.7968966 L145.307414,56.7968966 C145.463345,48.1885862 142.897034,40.9613793 138.401241,35.1211724 L138.401241,35.1211724 L138.401241,0.505137931 L34.5970345,0.505137931 Z" id="path-25"></path>
        <path d="M34.5970345,0.505137931 L34.5970345,39.1373793 C29.940069,44.0583793 26.1721724,49.7924483 23.6418966,56.3461379 L23.6418966,56.3461379 L0,56.3461379 L0,152.601448 L15.3421724,152.601448 C16.1545862,155.811138 17.3535517,159.221966 19.0524138,162.913207 L19.0524138,162.913207 C34.716931,196.946138 89.0444828,196.218897 121.027379,181.26131 L121.027379,181.26131 C133.478276,175.438793 136.614586,165.782207 136.803931,153.052207 L136.803931,153.052207 L151.604276,153.052207 L151.604276,56.7968966 L145.307414,56.7968966 C145.463345,48.1885862 142.897034,40.9613793 138.401241,35.1211724 L138.401241,35.1211724 L138.401241,0.505137931 L34.5970345,0.505137931 Z" id="path-27"></path>
        <path d="M34.5970345,0.505137931 L34.5970345,39.1373793 C29.940069,44.0583793 26.1721724,49.7924483 23.6418966,56.3461379 L23.6418966,56.3461379 L0,56.3461379 L0,152.601448 L15.3421724,152.601448 C16.1545862,155.811138 17.3535517,159.221966 19.0524138,162.913207 L19.0524138,162.913207 C34.716931,196.946138 89.0444828,196.218897 121.027379,181.26131 L121.027379,181.26131 C133.478276,175.438793 136.614586,165.782207 136.803931,153.052207 L136.803931,153.052207 L151.604276,153.052207 L151.604276,56.7968966 L145.307414,56.7968966 C145.463345,48.1885862 142.897034,40.9613793 138.401241,35.1211724 L138.401241,35.1211724 L138.401241,0.505137931 L34.5970345,0.505137931 Z" id="path-29"></path>
        <path d="M34.5970345,0.505137931 L34.5970345,39.1373793 C29.940069,44.0583793 26.1721724,49.7924483 23.6418966,56.3461379 L23.6418966,56.3461379 L0,56.3461379 L0,152.601448 L15.3421724,152.601448 C16.1545862,155.811138 17.3535517,159.221966 19.0524138,162.913207 L19.0524138,162.913207 C34.716931,196.946138 89.0444828,196.218897 121.027379,181.26131 L121.027379,181.26131 C133.478276,175.438793 136.614586,165.782207 136.803931,153.052207 L136.803931,153.052207 L151.604276,153.052207 L151.604276,56.7968966 L145.307414,56.7968966 C145.463345,48.1885862 142.897034,40.9613793 138.401241,35.1211724 L138.401241,35.1211724 L138.401241,0.505137931 L34.5970345,0.505137931 Z" id="path-31"></path>
        <path d="M34.5970345,0.505137931 L34.5970345,39.1373793 C29.940069,44.0583793 26.1721724,49.7924483 23.6418966,56.3461379 L23.6418966,56.3461379 L0,56.3461379 L0,152.601448 L15.3421724,152.601448 C16.1545862,155.811138 17.3535517,159.221966 19.0524138,162.913207 L19.0524138,162.913207 C34.716931,196.946138 89.0444828,196.218897 121.027379,181.26131 L121.027379,181.26131 C133.478276,175.438793 136.614586,165.782207 136.803931,153.052207 L136.803931,153.052207 L151.604276,153.052207 L151.604276,56.7968966 L145.307414,56.7968966 C145.463345,48.1885862 142.897034,40.9613793 138.401241,35.1211724 L138.401241,35.1211724 L138.401241,0.505137931" id="path-33"></path>
        <path d="M34.5970345,0.505137931 L34.5970345,39.1373793 C29.940069,44.0583793 26.1721724,49.7924483 23.6418966,56.3461379 L23.6418966,56.3461379 L0,56.3461379 L0,152.601448 L15.3421724,152.601448 C16.1545862,155.811138 17.3535517,159.221966 19.0524138,162.913207 L19.0524138,162.913207 C34.716931,196.946138 89.0444828,196.218897 121.027379,181.26131 L121.027379,181.26131 C133.478276,175.438793 136.614586,165.782207 136.803931,153.052207 L136.803931,153.052207 L151.604276,153.052207 L151.604276,56.7968966 L145.307414,56.7968966 C145.463345,48.1885862 142.897034,40.9613793 138.401241,35.1211724 L138.401241,35.1211724 L138.401241,0.505137931" id="path-35"></path>
        <path d="M34.5970345,0.505137931 L34.5970345,39.1373793 C29.940069,44.0583793 26.1721724,49.7924483 23.6418966,56.3461379 L23.6418966,56.3461379 L0,56.3461379 L0,152.601448 L15.3421724,152.601448 C16.1545862,155.811138 17.3535517,159.221966 19.0524138,162.913207 L19.0524138,162.913207 C34.716931,196.946138 89.0444828,196.218897 121.027379,181.26131 L121.027379,181.26131 C133.478276,175.438793 136.614586,165.782207 136.803931,153.052207 L136.803931,153.052207 L151.604276,153.052207 L151.604276,56.7968966 L145.307414,56.7968966 C145.463345,48.1885862 142.897034,40.9613793 138.401241,35.1211724 L138.401241,35.1211724 L138.401241,0.505137931" id="path-37"></path>
        <path d="M34.5970345,0.505137931 L34.5970345,39.1373793 C29.940069,44.0583793 26.1721724,49.7924483 23.6418966,56.3461379 L23.6418966,56.3461379 L0,56.3461379 L0,152.601448 L15.3421724,152.601448 C16.1545862,155.811138 17.3535517,159.221966 19.0524138,162.913207 L19.0524138,162.913207 C34.716931,196.946138 89.0444828,196.218897 121.027379,181.26131 L121.027379,181.26131 C133.478276,175.438793 136.614586,165.782207 136.803931,153.052207 L136.803931,153.052207 L151.604276,153.052207 L151.604276,56.7968966 L145.307414,56.7968966 C145.463345,48.1885862 142.897034,40.9613793 138.401241,35.1211724 L138.401241,35.1211724 L138.401241,0.505137931" id="path-39"></path>
        <path d="M34.5970345,0.505137931 L34.5970345,39.1373793 C29.940069,44.0583793 26.1721724,49.7924483 23.6418966,56.3461379 L23.6418966,56.3461379 L0,56.3461379 L0,152.601448 L15.3421724,152.601448 C16.1545862,155.811138 17.3535517,159.221966 19.0524138,162.913207 L19.0524138,162.913207 C34.716931,196.946138 89.0444828,196.218897 121.027379,181.26131 L121.027379,181.26131 C133.478276,175.438793 136.614586,165.782207 136.803931,153.052207 L136.803931,153.052207 L151.604276,153.052207 L151.604276,56.7968966 L145.307414,56.7968966 C145.463345,48.1885862 142.897034,40.9613793 138.401241,35.1211724 L138.401241,35.1211724 L138.401241,0.505137931" id="path-41"></path>
        <path d="M34.5970345,0.505137931 L34.5970345,39.1373793 C29.940069,44.0583793 26.1721724,49.7924483 23.6418966,56.3461379 L23.6418966,56.3461379 L0,56.3461379 L0,152.601448 L15.3421724,152.601448 C16.1545862,155.811138 17.3535517,159.221966 19.0524138,162.913207 L19.0524138,162.913207 C34.716931,196.946138 89.0444828,196.218897 121.027379,181.26131 L121.027379,181.26131 C133.478276,175.438793 136.614586,165.782207 136.803931,153.052207 L136.803931,153.052207 L151.604276,153.052207 L151.604276,56.7968966 L145.307414,56.7968966 C145.463345,48.1885862 142.897034,40.9613793 138.401241,35.1211724 L138.401241,35.1211724 L138.401241,0.505137931 L34.5970345,0.505137931 Z" id="path-43"></path>
        <path d="M34.5970345,0.505137931 L34.5970345,39.1373793 C29.940069,44.0583793 26.1721724,49.7924483 23.6418966,56.3461379 L23.6418966,56.3461379 L0,56.3461379 L0,152.601448 L15.3421724,152.601448 C16.1545862,155.811138 17.3535517,159.221966 19.0524138,162.913207 L19.0524138,162.913207 C34.716931,196.946138 89.0444828,196.218897 121.027379,181.26131 L121.027379,181.26131 C133.478276,175.438793 136.614586,165.782207 136.803931,153.052207 L136.803931,153.052207 L151.604276,153.052207 L151.604276,56.7968966 L145.307414,56.7968966 C145.463345,48.1885862 142.897034,40.9613793 138.401241,35.1211724 L138.401241,35.1211724 L138.401241,0.505137931" id="path-45"></path>
        <path d="M34.5970345,0.505137931 L34.5970345,39.1373793 C29.940069,44.0583793 26.1721724,49.7924483 23.6418966,56.3461379 L23.6418966,56.3461379 L0,56.3461379 L0,152.601448 L15.3421724,152.601448 C16.1545862,155.811138 17.3535517,159.221966 19.0524138,162.913207 L19.0524138,162.913207 C34.716931,196.946138 89.0444828,196.218897 121.027379,181.26131 L121.027379,181.26131 C133.478276,175.438793 136.614586,165.782207 136.803931,153.052207 L136.803931,153.052207 L151.604276,153.052207 L151.604276,56.7968966 L145.307414,56.7968966 C145.463345,48.1885862 142.897034,40.9613793 138.401241,35.1211724 L138.401241,35.1211724 L138.401241,0.505137931" id="path-47"></path>
    </defs>
    <g id="vip" stroke="none" stroke-width="1" fill="none" fill-rule="evenodd">
        <g id="vip2-1-mobile" transform="translate(-14.000000, -1299.000000)">
            <g id="features" transform="translate(0.000000, 740.000000)">
                <g id="Group-3-Copy" transform="translate(14.000000, 554.000000)">
                    <g id="img-priority">
                        <g id="Group-3" transform="translate(0.000000, 0.150034)">
                            <mask id="mask-2" fill="white">
                                <use xlink:href="#path-1"></use>
                            </mask>
                            <g id="Clip-2"></g>
                            <path d="M20.7012207,85.3926828 C25.4708759,120.369717 4.74449655,131.826062 19.0528069,162.913338 C34.716669,196.946269 89.0448759,196.219028 121.027772,181.261441 C146.756393,169.2292 132.710152,140.827476 135.081221,102.760648 C135.651876,93.5993724 144.040703,71.8273379 145.133531,59.9706828 C151.100841,-4.74135172 9.43749655,2.78788966 20.7012207,85.3926828" id="Fill-1" fill="#7373E5" mask="url(#mask-2)"></path>
                        </g>
                        <g id="Group-6" transform="translate(0.000000, 0.150034)">
                            <mask id="mask-4" fill="white">
                                <use xlink:href="#path-3"></use>
                            </mask>
                            <g id="Clip-5"></g>
                            <path d="M119.098552,107.135759 C102.175448,99.9799655 82.4265862,95.8766207 64.9151379,95.8766207 C45.4702759,95.8766207 30.916931,91.6193103 21.6567241,83.2219655 C14.3004483,76.5516552 12.9966552,69.5255862 12.8715172,68.745931 L17.369931,63.5772759 L17.3528966,63.4848966 C17.3961379,63.7004483 22.0956897,85.1291724 64.9151379,85.1291724 C82.8105172,85.1291724 102.993103,89.3235862 120.286379,96.6353103 C129.06569,100.347517 143.111276,107.493483 148.435862,116.967276 C149.391103,118.666793 146.775655,127.534552 146.775655,127.534552 C146.775655,127.534552 136.461276,114.477621 119.098552,107.135759" id="Fill-4" fill="#B53030" mask="url(#mask-4)"></path>
                        </g>
                        <g id="Group-9" transform="translate(0.000000, 0.150034)">
                            <mask id="mask-6" fill="white">
                                <use xlink:href="#path-5"></use>
                            </mask>
                            <g id="Clip-8"></g>
                            <path d="M82.3717483,88.1284862 C85.3901276,89.4748655 88.7740931,88.5419 90.1447138,86.1701759 C96.2594379,75.5773483 119.807645,35.1912103 125.92499,30.6954172 C132.974645,25.5143138 135.892128,25.7410034 135.892128,24.3861069 C135.892128,23.5330724 130.545266,25.6466586 130.545266,25.6466586 C130.545266,25.6466586 138.33199,20.7747966 137.045231,20.240831 C135.758472,19.7068655 130.399162,24.4463828 129.863886,24.2249345 C129.326645,24.0021759 135.153748,19.0425207 134.660403,18.1095552 C134.165748,17.1785552 129.4033,23.5140724 128.759921,23.2480724 C128.116541,22.9814172 131.219438,17.618831 130.359852,17.2630724 C129.502886,16.9073138 127.063024,23.9117621 126.09599,23.5114517 C125.130921,23.1117966 126.525128,19.9204517 125.023472,19.2986931 C123.522472,18.6762793 124.280507,22.5339345 123.618128,24.1299345 C122.957059,25.7246241 87.0228172,67.550831 80.2254034,76.3681414 C75.7643345,82.1546241 78.4538172,86.3791759 82.3717483,88.1284862" id="Fill-7" fill="#EEA687" mask="url(#mask-6)"></path>
                        </g>
                        <g id="Group-12" transform="translate(0.000000, 0.150034)">
                            <mask id="mask-8" fill="white">
                                <use xlink:href="#path-7"></use>
                            </mask>
                            <g id="Clip-11"></g>
                            <path d="M56.0956,128.305886 C53.4945655,142.175886 49.156669,169.682645 49.156669,169.682645 C49.156669,169.682645 42.0893241,163.802472 32.5677034,163.8883 C24.5031862,163.961679 21.8038759,163.413955 14.5714276,165.300197 C16.2984621,167.392162 11.8328069,168.006059 12.8509448,171.1273 C21.4179793,170.663438 54.2598069,184.990093 57.9274621,182.707472 C60.0338414,181.397128 68.0590483,156.9343 77.7071172,136.948266 C69.2763586,133.478472 64.0965655,132.783334 56.0956,128.305886" id="Fill-10" fill="#EEA687" mask="url(#mask-8)"></path>
                        </g>
                        <g id="Group-15" transform="translate(0.000000, 0.150034)">
                            <mask id="mask-10" fill="white">
                                <use xlink:href="#path-9"></use>
                            </mask>
                            <g id="Clip-14"></g>
                            <polygon id="Fill-13" fill="#0F1D5B" mask="url(#mask-10)" points="79.473331 133.012776 62.031331 178.00281 46.6819517 168.896569 56.3857103 131.425293"></polygon>
                        </g>
                        <g id="Group-18" transform="translate(0.000000, 0.150034)">
                            <mask id="mask-12" fill="white">
                                <use xlink:href="#path-11"></use>
                            </mask>
                            <g id="Clip-17"></g>
                            <path d="M91.3647103,209.009762 C90.8117448,199.584452 111.646228,155.243693 106.795331,147.864486 C105.211779,145.455417 82.8422276,139.388521 59.3850897,128.305624 C57.7045724,127.804417 55.8379862,128.986348 54.1234,131.128762 C48.4070207,138.268176 52.1683655,148.976314 61.0262966,151.253693 C76.3606069,155.195866 93.5719862,160.823141 93.5719862,160.823141 C89.0250897,167.24121 84.7022621,202.173038 84.7022621,208.701831 C88.0384,207.924797 91.4027103,209.661003 91.3647103,209.009762" id="Fill-16" fill="#EEA687" mask="url(#mask-12)"></path>
                        </g>
                        <g id="Group-21" transform="translate(0.000000, 0.150034)">
                            <mask id="mask-14" fill="white">
                                <use xlink:href="#path-13"></use>
                            </mask>
                            <g id="Clip-20"></g>
                            <path d="M8.10317241,156.511386 C8.10317241,156.511386 5.29706897,160.494179 3.3322069,163.279972 C1.36865517,166.067731 -2.09786207,170.279179 -3.07931034,171.672731 C-4.06075862,173.065628 -4.36344828,180.400283 -3.06751724,180.816972 C-1.77289655,181.233007 1.18848276,176.467283 4.06665517,174.920421 C6.94482759,173.373559 13.8228276,171.716628 13.6374138,170.6428 C13.4506897,169.567662 16.5902759,166.169938 16.355069,164.811766 C16.1205172,163.454248 9.29034483,156.306972 8.10317241,156.511386" id="Fill-19" fill="#FF8139" mask="url(#mask-14)"></path>
                        </g>
                        <g id="Group-24" transform="translate(0.000000, 0.150034)">
                            <mask id="mask-16" fill="white">
                                <use xlink:href="#path-15"></use>
                            </mask>
                            <g id="Clip-23"></g>
                            <path d="M9.2184069,158.790666 C3.11875172,171.126252 2.00626897,165.597252 -2.65266207,178.583424 C-1.85007586,175.194217 -0.145317241,170.539872 2.38102759,168.115079 C3.75623448,166.798183 4.88051034,165.202838 6.00216552,163.63501 C7.11661379,162.053424 8.17013103,160.425976 9.2184069,158.790666" id="Fill-22" fill="#FFB85A" mask="url(#mask-16)"></path>
                        </g>
                        <g id="Group-27" transform="translate(0.000000, 0.150034)">
                            <mask id="mask-18" fill="white">
                                <use xlink:href="#path-17"></use>
                            </mask>
                            <g id="Clip-26"></g>
                            <path d="M6.89798276,168.346093 C6.61036207,168.372955 6.39874138,168.626507 6.42363793,168.914128 C6.5147069,169.919817 6.59791379,172.05961 6.37712069,173.911128 C6.73156897,173.776162 7.09846552,173.640541 7.47060345,173.506231 C7.67632759,171.251783 7.47977586,168.975059 7.46667241,168.822403 C7.43915517,168.534128 7.1842931,168.322507 6.89798276,168.346093" id="Fill-25" fill="#FFB85A" mask="url(#mask-18)"></path>
                        </g>
                        <g id="Group-30" transform="translate(0.000000, 0.150034)">
                            <mask id="mask-20" fill="white">
                                <use xlink:href="#path-19"></use>
                            </mask>
                            <g id="Clip-29"></g>
                            <path d="M9.09864138,168.952128 C8.83788276,169.075955 8.72781379,169.388472 8.85098621,169.648576 C8.86277931,169.672817 9.47798621,170.989059 9.76888276,172.687266 C10.1148138,172.564748 10.4502621,172.442231 10.7706414,172.321024 C10.4502621,170.595955 9.84357241,169.298059 9.79508966,169.199783 C9.67257241,168.938369 9.35874483,168.82699 9.09864138,168.952128" id="Fill-28" fill="#FFB85A" mask="url(#mask-20)"></path>
                        </g>
                        <g id="Group-33" transform="translate(0.000000, 0.150034)">
                            <mask id="mask-22" fill="white">
                                <use xlink:href="#path-21"></use>
                            </mask>
                            <g id="Clip-32"></g>
                            <path d="M90.3991172,161.418955 L103.668324,144.833266 L55.1501862,125.955128 L51.0959793,135.766334 C48.529669,141.979334 51.8153586,149.060438 58.2177034,151.111128 L90.3991172,161.418955 Z" id="Fill-31" fill="#2E3192" mask="url(#mask-22)"></path>
                        </g>
                        <g id="Group-36" transform="translate(0.000000, 0.150034)">
                            <mask id="mask-24" fill="white">
                                <use xlink:href="#path-23"></use>
                            </mask>
                            <g id="Clip-35"></g>
                            <path d="M90.3991172,100.671893 C90.3991172,95.5517207 90.3991172,88.7490655 88.6819103,81.1883759 C86.7032897,72.4857207 72.5371517,69.5767552 71.2058414,70.9093759 C65.8773241,76.2365828 61.8820828,96.5482379 61.8820828,101.315928 C61.8820828,106.082307 54.1353241,120.795514 49.6362552,128.305755 C48.9129448,129.516514 74.6808759,135.481859 83.6790138,136.948134 C87.3696,120.509203 90.3991172,105.028134 90.3991172,100.671893" id="Fill-34" fill="#C0B4FE" mask="url(#mask-24)"></path>
                        </g>
                        <g id="Group-39" transform="translate(0.000000, 0.150034)">
                            <mask id="mask-26" fill="white">
                                <use xlink:href="#path-25"></use>
                            </mask>
                            <g id="Clip-38"></g>
                            <path d="M76.2730759,85.6539655 C76.2730759,85.6539655 76.9446276,103.775379 69.7423172,114.173621 L89.2684207,118.012276 C89.2684207,118.012276 92.2376621,93.597931 90.3992483,86.054931 L76.2730759,85.6539655 Z" id="Fill-37" fill="#F7C954" mask="url(#mask-26)"></path>
                        </g>
                        <g id="Group-42" transform="translate(0.000000, 0.150034)">
                            <mask id="mask-28" fill="white">
                                <use xlink:href="#path-27"></use>
                            </mask>
                            <g id="Clip-41"></g>
                            <path d="M80.1809828,72.3605828 C80.1809828,72.3605828 84.0523966,72.8893069 87.4317759,77.1236862 C90.8111552,81.3587207 90.3990517,87.1812379 90.3990517,87.1812379 L87.4317759,87.1812379 C87.4317759,87.1812379 87.7062931,80.2495138 85.7827069,78.3252724 C83.8578103,76.401031 80.6658103,75.3599621 80.6658103,75.3599621 L80.1809828,72.3605828 Z" id="Fill-40" fill="#F7C954" mask="url(#mask-28)"></path>
                        </g>
                        <g id="Group-45" transform="translate(0.000000, 0.150034)">
                            <mask id="mask-30" fill="white">
                                <use xlink:href="#path-29"></use>
                            </mask>
                            <g id="Clip-44"></g>
                            <polygon id="Fill-43" fill="#F7C954" mask="url(#mask-30)" points="58.0827379 108.544707 69.7421862 114.173293 73.3443241 112.144879 73.3443241 109.587086 60.3758414 104.823328"></polygon>
                        </g>
                        <g id="Group-48" transform="translate(0.000000, 0.150034)">
                            <mask id="mask-32" fill="white">
                                <use xlink:href="#path-31"></use>
                            </mask>
                            <g id="Clip-47"></g>
                            <path d="M83.0503103,62.8375862 C83.0503103,62.8375862 81.6613448,73.7547241 83.0503103,77.4597241 C84.4379655,81.164069 77.0934828,82.2883448 73.8516897,78.2531379 C70.6105517,74.2166207 75.3081379,57.5444483 75.3081379,57.5444483 L83.0503103,62.8375862 Z" id="Fill-46" fill="#EEA687" mask="url(#mask-32)"></path>
                        </g>
                        <g id="Group-51" transform="translate(0.000000, 0.150034)">
                            <mask id="mask-34" fill="white">
                                <use xlink:href="#path-33"></use>
                            </mask>
                            <g id="Clip-50"></g>
                            <path d="M74.6768793,59.9946621 C76.8625345,62.5170759 79.9713276,65.3094207 82.6680172,66.6839724 C82.8422931,64.4681793 83.0499828,62.8374552 83.0499828,62.8374552 L75.3078103,57.5443172 C75.3078103,57.5443172 75.0405,58.4943172 74.6768793,59.9946621" id="Fill-49" fill="#DB9079" mask="url(#mask-34)"></path>
                        </g>
                        <g id="Group-54" transform="translate(0.000000, 0.150034)">
                            <mask id="mask-36" fill="white">
                                <use xlink:href="#path-35"></use>
                            </mask>
                            <g id="Clip-53"></g>
                            <path d="M77.0592172,58.7290655 C76.7277,58.4689621 73.4354586,49.3122724 73.4354586,49.3122724 C73.4354586,49.3122724 71.3290793,40.7983069 73.3660103,39.5999966 C75.401631,38.3997207 80.3927345,34.0323414 84.3499759,34.3428931 C88.3072172,34.6547552 90.8355276,36.1046517 91.1663897,36.3647552 C91.4985621,36.6255138 93.6206655,41.2038586 93.6206655,41.2038586 C93.6206655,41.2038586 92.5756655,39.6275138 91.4173207,44.9652034 C90.2602862,50.3015828 77.0592172,58.7290655 77.0592172,58.7290655" id="Fill-52" fill="#321C32" mask="url(#mask-36)"></path>
                        </g>
                        <g id="Group-57" transform="translate(0.000000, 0.150034)">
                            <mask id="mask-38" fill="white">
                                <use xlink:href="#path-37"></use>
                            </mask>
                            <g id="Clip-56"></g>
                            <path d="M74.018431,40.8061034 C72.8627069,41.3269655 71.7672586,47.3427586 73.1391897,52.6607931 C73.4805345,53.9907931 73.3658793,55.6464138 74.360431,56.6973103 C77.3447414,59.8506552 82.6201897,64.1256552 85.7178448,64.4853448 C89.8506724,64.964931 91.4361897,58.9792759 91.9020172,56.4968276 C91.9020172,56.4968276 93.808569,42.2822069 86.4293621,38.680069 C79.0508103,35.0772759 74.018431,40.8061034 74.018431,40.8061034" id="Fill-55" fill="#EEA687" mask="url(#mask-38)"></path>
                        </g>
                        <g id="Group-60" transform="translate(0.000000, 0.150034)">
                            <mask id="mask-40" fill="white">
                                <use xlink:href="#path-39"></use>
                            </mask>
                            <g id="Clip-59"></g>
                            <path d="M74.9783897,58.7290655 C74.9783897,58.7290655 70.0108724,53.905031 69.9578034,47.7988241 C69.9427345,45.9315828 67.8985966,38.7187897 76.6975621,34.3265138 C81.948769,31.7045138 80.9430793,27.3135483 86.8854931,29.8333414 C92.8285621,32.3518241 91.4743207,32.2967897 93.1908724,33.7624103 C98.1544586,38.0046517 99.3914241,31.2124793 99.3914241,31.0119966 C99.3914241,31.0119966 102.698734,41.6565828 95.1714586,39.4067207 C93.7294241,38.9749621 94.6781138,44.4089621 94.6781138,44.4089621 C94.6781138,44.4089621 92.6569069,42.383169 90.5898379,39.3588931 C88.5253897,36.3346172 88.7743552,39.6530655 89.1111138,43.2578241 C89.4478724,46.8619276 82.7618379,45.0418586 80.3108379,42.5915138 C79.8024241,42.0844103 79.9930793,41.6061345 78.4167345,45.1067207 C76.8423552,48.6066517 78.4724241,52.7532379 74.9783897,58.7290655" id="Fill-58" fill="#3C2945" mask="url(#mask-40)"></path>
                        </g>
                        <g id="Group-63" transform="translate(0.000000, 0.150034)">
                            <mask id="mask-42" fill="white">
                                <use xlink:href="#path-41"></use>
                            </mask>
                            <g id="Clip-62"></g>
                            <path d="M78.9535172,49.7777069 C78.9535172,49.7777069 77.7991034,46.7029828 75.9665862,47.4282586 C74.1347241,48.1548448 74.3542069,52.1474655 75.9980345,53.6563276 C77.6425172,55.1671552 80.4826897,51.9365 78.9535172,49.7777069" id="Fill-61" fill="#EEA687" mask="url(#mask-42)"></path>
                        </g>
                        <g id="Group-66" transform="translate(0.000000, 0.150034)">
                            <mask id="mask-44" fill="white">
                                <use xlink:href="#path-43"></use>
                            </mask>
                            <g id="Clip-65"></g>
                            <path d="M69.1565931,73.3927414 C69.1565931,73.3927414 73.0280069,73.9227759 76.406731,78.1558448 C79.7861103,82.3908793 79.3746621,88.2127414 79.3746621,88.2127414 L76.406731,88.2127414 C76.406731,88.2127414 76.6819034,81.2829828 74.7576621,79.3587414 C72.8334207,77.4345 69.6407655,76.3921207 69.6407655,76.3921207 L69.1565931,73.3927414 Z" id="Fill-64" fill="#F7C954" mask="url(#mask-44)"></path>
                        </g>
                        <g id="Group-69" transform="translate(0.000000, 0.150034)">
                            <mask id="mask-46" fill="white">
                                <use xlink:href="#path-45"></use>
                            </mask>
                            <g id="Clip-68"></g>
                            <path d="M69.1022138,88.2610931 C65.8073517,88.5244724 64.2074207,86.5183345 63.706869,83.8242655 C61.4707655,71.799231 51.4492483,25.8749207 47.1794897,19.5964034 C42.2591448,12.3619897 38.9256276,11.284231 39.8848,10.3257138 C40.1966621,10.0138517 44.6289034,13.7188517 44.6289034,13.7188517 C44.6289034,13.7188517 38.7880414,6.10836897 40.1802828,6.03433448 C41.5705586,5.95964483 45.0416621,12.2145759 45.6221448,12.1831276 C46.2013172,12.1523345 42.3620069,5.53312759 43.137731,4.81898966 C43.9134552,4.10616207 46.2923862,11.6668517 46.9875241,11.6301621 C47.6839724,11.5921621 46.5459379,5.50298966 47.4730069,5.45385172 C48.400731,5.40405862 48.5481448,12.7243 49.5918345,12.6686103 C50.6355241,12.6129207 50.026869,9.73867931 51.649731,9.65285172 C53.2739034,9.56571379 51.4492483,12.4504379 51.5416276,14.1755069 C51.6333517,15.9005759 71.5754897,67.3093345 75.0459379,77.8884034 C77.3220069,84.8299552 73.3785241,87.9177828 69.1022138,88.2610931" id="Fill-67" fill="#EEA687" mask="url(#mask-46)"></path>
                        </g>
                        <g id="Group-72" transform="translate(0.000000, 0.150034)">
                            <mask id="mask-48" fill="white">
                                <use xlink:href="#path-47"></use>
                            </mask>
                            <g id="Clip-71"></g>
                            <path d="M4.12188621,149.499076 L0.671748276,141.205903 C1.18933448,140.288662 13.7679897,118.734145 51.0106103,118.734145 C66.3645759,118.734145 81.7630931,123.3138 95.3467828,127.356214 C114.705817,133.113869 131.580438,138.579972 142.753093,129.302731 C146.492817,126.199179 148.930714,119.414214 148.586093,117.386455 C148.586093,117.386455 150.8733,134.581455 144.780852,139.305903 C132.079024,149.157076 114.662576,143.975972 94.4970241,137.977214 C80.455369,133.80049 65.9367483,129.481593 51.0106103,129.481593 C15.8134379,129.481593 4.23457586,149.299248 4.12188621,149.499076" id="Fill-70" fill="#D44040" mask="url(#mask-48)"></path>
                        </g>
                    </g>
                </g>
            </g>
        </g>
    </g>
</svg>