<?xml version="1.0" encoding="UTF-8"?>
<svg width="133px" height="163px" viewBox="0 0 133 163" version="1.1" xmlns="http://www.w3.org/2000/svg" xmlns:xlink="http://www.w3.org/1999/xlink">
    <!-- Generator: sketchtool 63.1 (101010) - https://sketch.com -->
    <title>F9B9C1BA-C6FC-46FE-BDA5-4152D0E8FC51@2x</title>
    <desc>Created with sketchtool.</desc>
    <defs>
        <path d="M71.3031581,0.303450593 C56.5049486,0.338885375 41.0457194,3.17688933 27.7544545,8.59647826 L27.7544545,8.59647826 C0.637826087,19.653419 -3.63883004,56.6228498 2.39990119,91.1653202 L2.39990119,91.1653202 C15.5249447,166.236162 53.4124585,162.254581 87.5941383,162.254581 L87.5941383,162.254581 C115.740308,162.254581 133.022174,149.450383 127.539447,106.882257 L127.539447,106.882257 C122.204901,65.47317 142.366004,47.682332 124.490767,20.7853992 L124.490767,20.7853992 C115.281589,6.92782213 94.3950395,0.361434783 71.8842885,0.303450593 L71.8842885,0.303450593" id="path-1"></path>
        <path d="M71.3031581,0.303450593 C56.5049486,0.338885375 41.0457194,3.17688933 27.7544545,8.59647826 L27.7544545,8.59647826 C0.637826087,19.653419 -3.63883004,56.6228498 2.39990119,91.1653202 L2.39990119,91.1653202 C15.5249447,166.236162 53.4124585,162.254581 87.5941383,162.254581 L87.5941383,162.254581 C115.740308,162.254581 133.022174,149.450383 127.539447,106.882257 L127.539447,106.882257 C122.204901,65.47317 142.366004,47.682332 124.490767,20.7853992 L124.490767,20.7853992 C115.281589,6.92782213 94.3950395,0.361434783 71.8842885,0.303450593 L71.8842885,0.303450593" id="path-3"></path>
        <path d="M71.3031581,0.303450593 C56.5049486,0.338885375 41.0457194,3.17688933 27.7544545,8.59647826 L27.7544545,8.59647826 C0.637826087,19.653419 -3.63883004,56.6228498 2.39990119,91.1653202 L2.39990119,91.1653202 C15.5249447,166.236162 53.4124585,162.254581 87.5941383,162.254581 L87.5941383,162.254581 C115.740308,162.254581 133.022174,149.450383 127.539447,106.882257 L127.539447,106.882257 C122.204901,65.47317 142.366004,47.682332 124.490767,20.7853992 L124.490767,20.7853992 C115.281589,6.92782213 94.3950395,0.361434783 71.8842885,0.303450593 L71.8842885,0.303450593" id="path-5"></path>
        <path d="M71.3031581,0.303450593 C56.5049486,0.338885375 41.0457194,3.17688933 27.7544545,8.59647826 L27.7544545,8.59647826 C0.637826087,19.653419 -3.63883004,56.6228498 2.39990119,91.1653202 L2.39990119,91.1653202 C15.5249447,166.236162 53.4124585,162.254581 87.5941383,162.254581 L87.5941383,162.254581 C115.740308,162.254581 133.022174,149.450383 127.539447,106.882257 L127.539447,106.882257 C122.204901,65.47317 142.366004,47.682332 124.490767,20.7853992 L124.490767,20.7853992 C115.281589,6.92782213 94.3950395,0.361434783 71.8842885,0.303450593 L71.8842885,0.303450593" id="path-7"></path>
        <path d="M71.3031581,0.303450593 C56.5049486,0.338885375 41.0457194,3.17688933 27.7544545,8.59647826 L27.7544545,8.59647826 C0.637826087,19.653419 -3.63883004,56.6228498 2.39990119,91.1653202 L2.39990119,91.1653202 C15.5249447,166.236162 53.4124585,162.254581 87.5941383,162.254581 L87.5941383,162.254581 C115.740308,162.254581 133.022174,149.450383 127.539447,106.882257 L127.539447,106.882257 C122.204901,65.47317 142.366004,47.682332 124.490767,20.7853992 L124.490767,20.7853992 C115.281589,6.92782213 94.3950395,0.361434783 71.8842885,0.303450593 L71.8842885,0.303450593 L71.3031581,0.303450593 Z" id="path-9"></path>
        <path d="M71.3031581,0.303450593 C56.5049486,0.338885375 41.0457194,3.17688933 27.7544545,8.59647826 L27.7544545,8.59647826 C0.637826087,19.653419 -3.63883004,56.6228498 2.39990119,91.1653202 L2.39990119,91.1653202 C15.5249447,166.236162 53.4124585,162.254581 87.5941383,162.254581 L87.5941383,162.254581 C115.740308,162.254581 133.022174,149.450383 127.539447,106.882257 L127.539447,106.882257 C122.204901,65.47317 142.366004,47.682332 124.490767,20.7853992 L124.490767,20.7853992 C115.281589,6.92782213 94.3950395,0.361434783 71.8842885,0.303450593 L71.8842885,0.303450593 L71.3031581,0.303450593 Z" id="path-11"></path>
        <path d="M71.3031581,0.303450593 C56.5049486,0.338885375 41.0457194,3.17688933 27.7544545,8.59647826 L27.7544545,8.59647826 C0.637826087,19.653419 -3.63883004,56.6228498 2.39990119,91.1653202 L2.39990119,91.1653202 C15.5249447,166.236162 53.4124585,162.254581 87.5941383,162.254581 L87.5941383,162.254581 C115.740308,162.254581 133.022174,149.450383 127.539447,106.882257 L127.539447,106.882257 C122.204901,65.47317 142.366004,47.682332 124.490767,20.7853992 L124.490767,20.7853992 C115.281589,6.92782213 94.3950395,0.361434783 71.8842885,0.303450593 L71.8842885,0.303450593" id="path-13"></path>
        <path d="M71.3031581,0.303450593 C56.5049486,0.338885375 41.0457194,3.17688933 27.7544545,8.59647826 L27.7544545,8.59647826 C0.637826087,19.653419 -3.63883004,56.6228498 2.39990119,91.1653202 L2.39990119,91.1653202 C15.5249447,166.236162 53.4124585,162.254581 87.5941383,162.254581 L87.5941383,162.254581 C115.740308,162.254581 133.022174,149.450383 127.539447,106.882257 L127.539447,106.882257 C122.204901,65.47317 142.366004,47.682332 124.490767,20.7853992 L124.490767,20.7853992 C115.281589,6.92782213 94.3950395,0.361434783 71.8842885,0.303450593 L71.8842885,0.303450593" id="path-15"></path>
        <path d="M71.3031581,0.303450593 C56.5049486,0.338885375 41.0457194,3.17688933 27.7544545,8.59647826 L27.7544545,8.59647826 C0.637826087,19.653419 -3.63883004,56.6228498 2.39990119,91.1653202 L2.39990119,91.1653202 C15.5249447,166.236162 53.4124585,162.254581 87.5941383,162.254581 L87.5941383,162.254581 C115.740308,162.254581 133.022174,149.450383 127.539447,106.882257 L127.539447,106.882257 C122.204901,65.47317 142.366004,47.682332 124.490767,20.7853992 L124.490767,20.7853992 C115.281589,6.92782213 94.3950395,0.361434783 71.8842885,0.303450593 L71.8842885,0.303450593 L71.3031581,0.303450593 Z" id="path-17"></path>
        <path d="M71.3031581,0.303450593 C56.5049486,0.338885375 41.0457194,3.17688933 27.7544545,8.59647826 L27.7544545,8.59647826 C0.637826087,19.653419 -3.63883004,56.6228498 2.39990119,91.1653202 L2.39990119,91.1653202 C15.5249447,166.236162 53.4124585,162.254581 87.5941383,162.254581 L87.5941383,162.254581 C115.740308,162.254581 133.022174,149.450383 127.539447,106.882257 L127.539447,106.882257 C122.204901,65.47317 142.366004,47.682332 124.490767,20.7853992 L124.490767,20.7853992 C115.281589,6.92782213 94.3950395,0.361434783 71.8842885,0.303450593 L71.8842885,0.303450593 L71.3031581,0.303450593 Z" id="path-19"></path>
        <path d="M71.3031581,0.303450593 C56.5049486,0.338885375 41.0457194,3.17688933 27.7544545,8.59647826 L27.7544545,8.59647826 C0.637826087,19.653419 -3.63883004,56.6228498 2.39990119,91.1653202 L2.39990119,91.1653202 C15.5249447,166.236162 53.4124585,162.254581 87.5941383,162.254581 L87.5941383,162.254581 C115.740308,162.254581 133.022174,149.450383 127.539447,106.882257 L127.539447,106.882257 C122.204901,65.47317 142.366004,47.682332 124.490767,20.7853992 L124.490767,20.7853992 C115.281589,6.92782213 94.3950395,0.361434783 71.8842885,0.303450593 L71.8842885,0.303450593 L71.3031581,0.303450593 Z" id="path-21"></path>
        <path d="M71.3031581,0.303450593 C56.5049486,0.338885375 41.0457194,3.17688933 27.7544545,8.59647826 L27.7544545,8.59647826 C0.637826087,19.653419 -3.63883004,56.6228498 2.39990119,91.1653202 L2.39990119,91.1653202 C15.5249447,166.236162 53.4124585,162.254581 87.5941383,162.254581 L87.5941383,162.254581 C115.740308,162.254581 133.022174,149.450383 127.539447,106.882257 L127.539447,106.882257 C122.204901,65.47317 142.366004,47.682332 124.490767,20.7853992 L124.490767,20.7853992 C115.281589,6.92782213 94.3950395,0.361434783 71.8842885,0.303450593 L71.8842885,0.303450593" id="path-23"></path>
        <path d="M71.3031581,0.303450593 C56.5049486,0.338885375 41.0457194,3.17688933 27.7544545,8.59647826 L27.7544545,8.59647826 C0.637826087,19.653419 -3.63883004,56.6228498 2.39990119,91.1653202 L2.39990119,91.1653202 C15.5249447,166.236162 53.4124585,162.254581 87.5941383,162.254581 L87.5941383,162.254581 C115.740308,162.254581 133.022174,149.450383 127.539447,106.882257 L127.539447,106.882257 C122.204901,65.47317 142.366004,47.682332 124.490767,20.7853992 L124.490767,20.7853992 C115.281589,6.92782213 94.3950395,0.361434783 71.8842885,0.303450593 L71.8842885,0.303450593" id="path-25"></path>
        <path d="M71.3031581,0.303450593 C56.5049486,0.338885375 41.0457194,3.17688933 27.7544545,8.59647826 L27.7544545,8.59647826 C0.637826087,19.653419 -3.63883004,56.6228498 2.39990119,91.1653202 L2.39990119,91.1653202 C15.5249447,166.236162 53.4124585,162.254581 87.5941383,162.254581 L87.5941383,162.254581 C115.740308,162.254581 133.022174,149.450383 127.539447,106.882257 L127.539447,106.882257 C122.204901,65.47317 142.366004,47.682332 124.490767,20.7853992 L124.490767,20.7853992 C115.281589,6.92782213 94.3950395,0.361434783 71.8842885,0.303450593 L71.8842885,0.303450593 L71.3031581,0.303450593 Z" id="path-27"></path>
        <path d="M71.3031581,0.303450593 C56.5049486,0.338885375 41.0457194,3.17688933 27.7544545,8.59647826 L27.7544545,8.59647826 C0.637826087,19.653419 -3.63883004,56.6228498 2.39990119,91.1653202 L2.39990119,91.1653202 C15.5249447,166.236162 53.4124585,162.254581 87.5941383,162.254581 L87.5941383,162.254581 C115.740308,162.254581 133.022174,149.450383 127.539447,106.882257 L127.539447,106.882257 C122.204901,65.47317 142.366004,47.682332 124.490767,20.7853992 L124.490767,20.7853992 C115.281589,6.92782213 94.3950395,0.361434783 71.8842885,0.303450593 L71.8842885,0.303450593" id="path-29"></path>
        <path d="M71.3031581,0.303450593 C56.5049486,0.338885375 41.0457194,3.17688933 27.7544545,8.59647826 L27.7544545,8.59647826 C0.637826087,19.653419 -3.63883004,56.6228498 2.39990119,91.1653202 L2.39990119,91.1653202 C15.5249447,166.236162 53.4124585,162.254581 87.5941383,162.254581 L87.5941383,162.254581 C115.740308,162.254581 133.022174,149.450383 127.539447,106.882257 L127.539447,106.882257 C122.204901,65.47317 142.366004,47.682332 124.490767,20.7853992 L124.490767,20.7853992 C115.281589,6.92782213 94.3950395,0.361434783 71.8842885,0.303450593 L71.8842885,0.303450593" id="path-31"></path>
        <path d="M71.3031581,0.303450593 C56.5049486,0.338885375 41.0457194,3.17688933 27.7544545,8.59647826 L27.7544545,8.59647826 C0.637826087,19.653419 -3.63883004,56.6228498 2.39990119,91.1653202 L2.39990119,91.1653202 C15.5249447,166.236162 53.4124585,162.254581 87.5941383,162.254581 L87.5941383,162.254581 C115.740308,162.254581 133.022174,149.450383 127.539447,106.882257 L127.539447,106.882257 C122.204901,65.47317 142.366004,47.682332 124.490767,20.7853992 L124.490767,20.7853992 C115.281589,6.92782213 94.3950395,0.361434783 71.8842885,0.303450593 L71.8842885,0.303450593 L71.3031581,0.303450593 Z" id="path-33"></path>
        <path d="M71.3031581,0.303450593 C56.5049486,0.338885375 41.0457194,3.17688933 27.7544545,8.59647826 L27.7544545,8.59647826 C0.637826087,19.653419 -3.63883004,56.6228498 2.39990119,91.1653202 L2.39990119,91.1653202 C15.5249447,166.236162 53.4124585,162.254581 87.5941383,162.254581 L87.5941383,162.254581 C115.740308,162.254581 133.022174,149.450383 127.539447,106.882257 L127.539447,106.882257 C122.204901,65.47317 142.366004,47.682332 124.490767,20.7853992 L124.490767,20.7853992 C115.281589,6.92782213 94.3950395,0.361434783 71.8842885,0.303450593 L71.8842885,0.303450593 L71.3031581,0.303450593 Z" id="path-35"></path>
        <path d="M71.3031581,0.303450593 C56.5049486,0.338885375 41.0457194,3.17688933 27.7544545,8.59647826 L27.7544545,8.59647826 C0.637826087,19.653419 -3.63883004,56.6228498 2.39990119,91.1653202 L2.39990119,91.1653202 C15.5249447,166.236162 53.4124585,162.254581 87.5941383,162.254581 L87.5941383,162.254581 C115.740308,162.254581 133.022174,149.450383 127.539447,106.882257 L127.539447,106.882257 C122.204901,65.47317 142.366004,47.682332 124.490767,20.7853992 L124.490767,20.7853992 C115.281589,6.92782213 94.3950395,0.361434783 71.8842885,0.303450593 L71.8842885,0.303450593 L71.3031581,0.303450593 Z" id="path-37"></path>
        <path d="M71.3031581,0.303450593 C56.5049486,0.338885375 41.0457194,3.17688933 27.7544545,8.59647826 L27.7544545,8.59647826 C0.637826087,19.653419 -3.63883004,56.6228498 2.39990119,91.1653202 L2.39990119,91.1653202 C15.5249447,166.236162 53.4124585,162.254581 87.5941383,162.254581 L87.5941383,162.254581 C115.740308,162.254581 133.022174,149.450383 127.539447,106.882257 L127.539447,106.882257 C122.204901,65.47317 142.366004,47.682332 124.490767,20.7853992 L124.490767,20.7853992 C115.281589,6.92782213 94.3950395,0.361434783 71.8842885,0.303450593 L71.8842885,0.303450593" id="path-39"></path>
        <path d="M71.3031581,0.303450593 C56.5049486,0.338885375 41.0457194,3.17688933 27.7544545,8.59647826 L27.7544545,8.59647826 C0.637826087,19.653419 -3.63883004,56.6228498 2.39990119,91.1653202 L2.39990119,91.1653202 C15.5249447,166.236162 53.4124585,162.254581 87.5941383,162.254581 L87.5941383,162.254581 C115.740308,162.254581 133.022174,149.450383 127.539447,106.882257 L127.539447,106.882257 C122.204901,65.47317 142.366004,47.682332 124.490767,20.7853992 L124.490767,20.7853992 C115.281589,6.92782213 94.3950395,0.361434783 71.8842885,0.303450593 L71.8842885,0.303450593" id="path-41"></path>
        <path d="M71.3031581,0.303450593 C56.5049486,0.338885375 41.0457194,3.17688933 27.7544545,8.59647826 L27.7544545,8.59647826 C0.637826087,19.653419 -3.63883004,56.6228498 2.39990119,91.1653202 L2.39990119,91.1653202 C15.5249447,166.236162 53.4124585,162.254581 87.5941383,162.254581 L87.5941383,162.254581 C115.740308,162.254581 133.022174,149.450383 127.539447,106.882257 L127.539447,106.882257 C122.204901,65.47317 142.366004,47.682332 124.490767,20.7853992 L124.490767,20.7853992 C115.281589,6.92782213 94.3950395,0.361434783 71.8842885,0.303450593 L71.8842885,0.303450593 L71.3031581,0.303450593 Z" id="path-43"></path>
        <path d="M71.3031581,0.303450593 C56.5049486,0.338885375 41.0457194,3.17688933 27.7544545,8.59647826 L27.7544545,8.59647826 C0.637826087,19.653419 -3.63883004,56.6228498 2.39990119,91.1653202 L2.39990119,91.1653202 C15.5249447,166.236162 53.4124585,162.254581 87.5941383,162.254581 L87.5941383,162.254581 C115.740308,162.254581 133.022174,149.450383 127.539447,106.882257 L127.539447,106.882257 C122.204901,65.47317 142.366004,47.682332 124.490767,20.7853992 L124.490767,20.7853992 C115.281589,6.92782213 94.3950395,0.361434783 71.8842885,0.303450593 L71.8842885,0.303450593 L71.3031581,0.303450593 Z" id="path-45"></path>
        <path d="M71.3031581,0.303450593 C56.5049486,0.338885375 41.0457194,3.17688933 27.7544545,8.59647826 L27.7544545,8.59647826 C0.637826087,19.653419 -3.63883004,56.6228498 2.39990119,91.1653202 L2.39990119,91.1653202 C15.5249447,166.236162 53.4124585,162.254581 87.5941383,162.254581 L87.5941383,162.254581 C115.740308,162.254581 133.022174,149.450383 127.539447,106.882257 L127.539447,106.882257 C122.204901,65.47317 142.366004,47.682332 124.490767,20.7853992 L124.490767,20.7853992 C115.281589,6.92782213 94.3950395,0.361434783 71.8842885,0.303450593 L71.8842885,0.303450593" id="path-47"></path>
        <path d="M71.3031581,0.303450593 C56.5049486,0.338885375 41.0457194,3.17688933 27.7544545,8.59647826 L27.7544545,8.59647826 C0.637826087,19.653419 -3.63883004,56.6228498 2.39990119,91.1653202 L2.39990119,91.1653202 C15.5249447,166.236162 53.4124585,162.254581 87.5941383,162.254581 L87.5941383,162.254581 C115.740308,162.254581 133.022174,149.450383 127.539447,106.882257 L127.539447,106.882257 C122.204901,65.47317 142.366004,47.682332 124.490767,20.7853992 L124.490767,20.7853992 C115.281589,6.92782213 94.3950395,0.361434783 71.8842885,0.303450593 L71.8842885,0.303450593" id="path-49"></path>
        <path d="M71.3031581,0.303450593 C56.5049486,0.338885375 41.0457194,3.17688933 27.7544545,8.59647826 L27.7544545,8.59647826 C0.637826087,19.653419 -3.63883004,56.6228498 2.39990119,91.1653202 L2.39990119,91.1653202 C15.5249447,166.236162 53.4124585,162.254581 87.5941383,162.254581 L87.5941383,162.254581 C115.740308,162.254581 133.022174,149.450383 127.539447,106.882257 L127.539447,106.882257 C122.204901,65.47317 142.366004,47.682332 124.490767,20.7853992 L124.490767,20.7853992 C115.281589,6.92782213 94.3950395,0.361434783 71.8842885,0.303450593 L71.8842885,0.303450593" id="path-51"></path>
        <path d="M71.3031581,0.303450593 C56.5049486,0.338885375 41.0457194,3.17688933 27.7544545,8.59647826 L27.7544545,8.59647826 C0.637826087,19.653419 -3.63883004,56.6228498 2.39990119,91.1653202 L2.39990119,91.1653202 C15.5249447,166.236162 53.4124585,162.254581 87.5941383,162.254581 L87.5941383,162.254581 C115.740308,162.254581 133.022174,149.450383 127.539447,106.882257 L127.539447,106.882257 C122.204901,65.47317 142.366004,47.682332 124.490767,20.7853992 L124.490767,20.7853992 C115.281589,6.92782213 94.3950395,0.361434783 71.8842885,0.303450593 L71.8842885,0.303450593 L71.3031581,0.303450593 Z" id="path-53"></path>
        <path d="M71.3031581,0.303450593 C56.5049486,0.338885375 41.0457194,3.17688933 27.7544545,8.59647826 L27.7544545,8.59647826 C0.637826087,19.653419 -3.63883004,56.6228498 2.39990119,91.1653202 L2.39990119,91.1653202 C15.5249447,166.236162 53.4124585,162.254581 87.5941383,162.254581 L87.5941383,162.254581 C115.740308,162.254581 133.022174,149.450383 127.539447,106.882257 L127.539447,106.882257 C122.204901,65.47317 142.366004,47.682332 124.490767,20.7853992 L124.490767,20.7853992 C115.281589,6.92782213 94.3950395,0.361434783 71.8842885,0.303450593 L71.8842885,0.303450593" id="path-55"></path>
        <path d="M71.3031581,0.303450593 C56.5049486,0.338885375 41.0457194,3.17688933 27.7544545,8.59647826 L27.7544545,8.59647826 C0.637826087,19.653419 -3.63883004,56.6228498 2.39990119,91.1653202 L2.39990119,91.1653202 C15.5249447,166.236162 53.4124585,162.254581 87.5941383,162.254581 L87.5941383,162.254581 C115.740308,162.254581 133.022174,149.450383 127.539447,106.882257 L127.539447,106.882257 C122.204901,65.47317 142.366004,47.682332 124.490767,20.7853992 L124.490767,20.7853992 C115.281589,6.92782213 94.3950395,0.361434783 71.8842885,0.303450593 L71.8842885,0.303450593 L71.3031581,0.303450593 Z" id="path-57"></path>
        <path d="M71.3031581,0.303450593 C56.5049486,0.338885375 41.0457194,3.17688933 27.7544545,8.59647826 L27.7544545,8.59647826 C0.637826087,19.653419 -3.63883004,56.6228498 2.39990119,91.1653202 L2.39990119,91.1653202 C15.5249447,166.236162 53.4124585,162.254581 87.5941383,162.254581 L87.5941383,162.254581 C115.740308,162.254581 133.022174,149.450383 127.539447,106.882257 L127.539447,106.882257 C122.204901,65.47317 142.366004,47.682332 124.490767,20.7853992 L124.490767,20.7853992 C115.281589,6.92782213 94.3950395,0.361434783 71.8842885,0.303450593 L71.8842885,0.303450593" id="path-59"></path>
        <path d="M71.3031581,0.303450593 C56.5049486,0.338885375 41.0457194,3.17688933 27.7544545,8.59647826 L27.7544545,8.59647826 C0.637826087,19.653419 -3.63883004,56.6228498 2.39990119,91.1653202 L2.39990119,91.1653202 C15.5249447,166.236162 53.4124585,162.254581 87.5941383,162.254581 L87.5941383,162.254581 C115.740308,162.254581 133.022174,149.450383 127.539447,106.882257 L127.539447,106.882257 C122.204901,65.47317 142.366004,47.682332 124.490767,20.7853992 L124.490767,20.7853992 C115.281589,6.92782213 94.3950395,0.361434783 71.8842885,0.303450593 L71.8842885,0.303450593 L71.3031581,0.303450593 Z" id="path-61"></path>
        <path d="M71.3031581,0.303450593 C56.5049486,0.338885375 41.0457194,3.17688933 27.7544545,8.59647826 L27.7544545,8.59647826 C0.637826087,19.653419 -3.63883004,56.6228498 2.39990119,91.1653202 L2.39990119,91.1653202 C15.5249447,166.236162 53.4124585,162.254581 87.5941383,162.254581 L87.5941383,162.254581 C115.740308,162.254581 133.022174,149.450383 127.539447,106.882257 L127.539447,106.882257 C122.204901,65.47317 142.366004,47.682332 124.490767,20.7853992 L124.490767,20.7853992 C115.281589,6.92782213 94.3950395,0.361434783 71.8842885,0.303450593 L71.8842885,0.303450593 L71.3031581,0.303450593 Z" id="path-63"></path>
        <path d="M71.3031581,0.303450593 C56.5049486,0.338885375 41.0457194,3.17688933 27.7544545,8.59647826 L27.7544545,8.59647826 C0.637826087,19.653419 -3.63883004,56.6228498 2.39990119,91.1653202 L2.39990119,91.1653202 C15.5249447,166.236162 53.4124585,162.254581 87.5941383,162.254581 L87.5941383,162.254581 C115.740308,162.254581 133.022174,149.450383 127.539447,106.882257 L127.539447,106.882257 C122.204901,65.47317 142.366004,47.682332 124.490767,20.7853992 L124.490767,20.7853992 C115.281589,6.92782213 94.3950395,0.361434783 71.8842885,0.303450593 L71.8842885,0.303450593" id="path-65"></path>
        <path d="M71.3031581,0.303450593 C56.5049486,0.338885375 41.0457194,3.17688933 27.7544545,8.59647826 L27.7544545,8.59647826 C0.637826087,19.653419 -3.63883004,56.6228498 2.39990119,91.1653202 L2.39990119,91.1653202 C15.5249447,166.236162 53.4124585,162.254581 87.5941383,162.254581 L87.5941383,162.254581 C115.740308,162.254581 133.022174,149.450383 127.539447,106.882257 L127.539447,106.882257 C122.204901,65.47317 142.366004,47.682332 124.490767,20.7853992 L124.490767,20.7853992 C115.281589,6.92782213 94.3950395,0.361434783 71.8842885,0.303450593 L71.8842885,0.303450593 L71.3031581,0.303450593 Z" id="path-67"></path>
        <path d="M71.3031581,0.303450593 C56.5049486,0.338885375 41.0457194,3.17688933 27.7544545,8.59647826 L27.7544545,8.59647826 C0.637826087,19.653419 -3.63883004,56.6228498 2.39990119,91.1653202 L2.39990119,91.1653202 C15.5249447,166.236162 53.4124585,162.254581 87.5941383,162.254581 L87.5941383,162.254581 C115.740308,162.254581 133.022174,149.450383 127.539447,106.882257 L127.539447,106.882257 C122.204901,65.47317 142.366004,47.682332 124.490767,20.7853992 L124.490767,20.7853992 C115.281589,6.92782213 94.3950395,0.361434783 71.8842885,0.303450593 L71.8842885,0.303450593" id="path-69"></path>
        <path d="M71.3031581,0.303450593 C56.5049486,0.338885375 41.0457194,3.17688933 27.7544545,8.59647826 L27.7544545,8.59647826 C0.637826087,19.653419 -3.63883004,56.6228498 2.39990119,91.1653202 L2.39990119,91.1653202 C15.5249447,166.236162 53.4124585,162.254581 87.5941383,162.254581 L87.5941383,162.254581 C115.740308,162.254581 133.022174,149.450383 127.539447,106.882257 L127.539447,106.882257 C122.204901,65.47317 142.366004,47.682332 124.490767,20.7853992 L124.490767,20.7853992 C115.281589,6.92782213 94.3950395,0.361434783 71.8842885,0.303450593 L71.8842885,0.303450593" id="path-71"></path>
        <path d="M71.3031581,0.303450593 C56.5049486,0.338885375 41.0457194,3.17688933 27.7544545,8.59647826 L27.7544545,8.59647826 C0.637826087,19.653419 -3.63883004,56.6228498 2.39990119,91.1653202 L2.39990119,91.1653202 C15.5249447,166.236162 53.4124585,162.254581 87.5941383,162.254581 L87.5941383,162.254581 C115.740308,162.254581 133.022174,149.450383 127.539447,106.882257 L127.539447,106.882257 C122.204901,65.47317 142.366004,47.682332 124.490767,20.7853992 L124.490767,20.7853992 C115.281589,6.92782213 94.3950395,0.361434783 71.8842885,0.303450593 L71.8842885,0.303450593" id="path-73"></path>
        <path d="M71.3031581,0.303450593 C56.5049486,0.338885375 41.0457194,3.17688933 27.7544545,8.59647826 L27.7544545,8.59647826 C0.637826087,19.653419 -3.63883004,56.6228498 2.39990119,91.1653202 L2.39990119,91.1653202 C15.5249447,166.236162 53.4124585,162.254581 87.5941383,162.254581 L87.5941383,162.254581 C115.740308,162.254581 133.022174,149.450383 127.539447,106.882257 L127.539447,106.882257 C122.204901,65.47317 142.366004,47.682332 124.490767,20.7853992 L124.490767,20.7853992 C115.281589,6.92782213 94.3950395,0.361434783 71.8842885,0.303450593 L71.8842885,0.303450593 L71.3031581,0.303450593 Z" id="path-75"></path>
        <path d="M71.3031581,0.303450593 C56.5049486,0.338885375 41.0457194,3.17688933 27.7544545,8.59647826 L27.7544545,8.59647826 C0.637826087,19.653419 -3.63883004,56.6228498 2.39990119,91.1653202 L2.39990119,91.1653202 C15.5249447,166.236162 53.4124585,162.254581 87.5941383,162.254581 L87.5941383,162.254581 C115.740308,162.254581 133.022174,149.450383 127.539447,106.882257 L127.539447,106.882257 C122.204901,65.47317 142.366004,47.682332 124.490767,20.7853992 L124.490767,20.7853992 C115.281589,6.92782213 94.3950395,0.361434783 71.8842885,0.303450593 L71.8842885,0.303450593" id="path-77"></path>
        <path d="M71.3031581,0.303450593 C56.5049486,0.338885375 41.0457194,3.17688933 27.7544545,8.59647826 L27.7544545,8.59647826 C0.637826087,19.653419 -3.63883004,56.6228498 2.39990119,91.1653202 L2.39990119,91.1653202 C15.5249447,166.236162 53.4124585,162.254581 87.5941383,162.254581 L87.5941383,162.254581 C115.740308,162.254581 133.022174,149.450383 127.539447,106.882257 L127.539447,106.882257 C122.204901,65.47317 142.366004,47.682332 124.490767,20.7853992 L124.490767,20.7853992 C115.281589,6.92782213 94.3950395,0.361434783 71.8842885,0.303450593 L71.8842885,0.303450593 L71.3031581,0.303450593 Z" id="path-79"></path>
        <path d="M71.3031581,0.303450593 C56.5049486,0.338885375 41.0457194,3.17688933 27.7544545,8.59647826 L27.7544545,8.59647826 C0.637826087,19.653419 -3.63883004,56.6228498 2.39990119,91.1653202 L2.39990119,91.1653202 C15.5249447,166.236162 53.4124585,162.254581 87.5941383,162.254581 L87.5941383,162.254581 C115.740308,162.254581 133.022174,149.450383 127.539447,106.882257 L127.539447,106.882257 C122.204901,65.47317 142.366004,47.682332 124.490767,20.7853992 L124.490767,20.7853992 C115.281589,6.92782213 94.3950395,0.361434783 71.8842885,0.303450593 L71.8842885,0.303450593" id="path-81"></path>
        <path d="M71.3031581,0.303450593 C56.5049486,0.338885375 41.0457194,3.17688933 27.7544545,8.59647826 L27.7544545,8.59647826 C0.637826087,19.653419 -3.63883004,56.6228498 2.39990119,91.1653202 L2.39990119,91.1653202 C15.5249447,166.236162 53.4124585,162.254581 87.5941383,162.254581 L87.5941383,162.254581 C115.740308,162.254581 133.022174,149.450383 127.539447,106.882257 L127.539447,106.882257 C122.204901,65.47317 142.366004,47.682332 124.490767,20.7853992 L124.490767,20.7853992 C115.281589,6.92782213 94.3950395,0.361434783 71.8842885,0.303450593 L71.8842885,0.303450593" id="path-83"></path>
        <path d="M71.3031581,0.303450593 C56.5049486,0.338885375 41.0457194,3.17688933 27.7544545,8.59647826 L27.7544545,8.59647826 C0.637826087,19.653419 -3.63883004,56.6228498 2.39990119,91.1653202 L2.39990119,91.1653202 C15.5249447,166.236162 53.4124585,162.254581 87.5941383,162.254581 L87.5941383,162.254581 C115.740308,162.254581 133.022174,149.450383 127.539447,106.882257 L127.539447,106.882257 C122.204901,65.47317 142.366004,47.682332 124.490767,20.7853992 L124.490767,20.7853992 C115.281589,6.92782213 94.3950395,0.361434783 71.8842885,0.303450593 L71.8842885,0.303450593 L71.3031581,0.303450593 Z" id="path-85"></path>
        <path d="M71.3031581,0.303450593 C56.5049486,0.338885375 41.0457194,3.17688933 27.7544545,8.59647826 L27.7544545,8.59647826 C0.637826087,19.653419 -3.63883004,56.6228498 2.39990119,91.1653202 L2.39990119,91.1653202 C15.5249447,166.236162 53.4124585,162.254581 87.5941383,162.254581 L87.5941383,162.254581 C115.740308,162.254581 133.022174,149.450383 127.539447,106.882257 L127.539447,106.882257 C122.204901,65.47317 142.366004,47.682332 124.490767,20.7853992 L124.490767,20.7853992 C115.281589,6.92782213 94.3950395,0.361434783 71.8842885,0.303450593 L71.8842885,0.303450593 L71.3031581,0.303450593 Z" id="path-87"></path>
        <path d="M71.3031581,0.303450593 C56.5049486,0.338885375 41.0457194,3.17688933 27.7544545,8.59647826 L27.7544545,8.59647826 C0.637826087,19.653419 -3.63883004,56.6228498 2.39990119,91.1653202 L2.39990119,91.1653202 C15.5249447,166.236162 53.4124585,162.254581 87.5941383,162.254581 L87.5941383,162.254581 C115.740308,162.254581 133.022174,149.450383 127.539447,106.882257 L127.539447,106.882257 C122.204901,65.47317 142.366004,47.682332 124.490767,20.7853992 L124.490767,20.7853992 C115.281589,6.92782213 94.3950395,0.361434783 71.8842885,0.303450593 L71.8842885,0.303450593 L71.3031581,0.303450593 Z" id="path-89"></path>
    </defs>
    <g id="vip" stroke="none" stroke-width="1" fill="none" fill-rule="evenodd">
        <g id="vip2-2-mobile" transform="translate(-326.000000, -1965.000000)">
            <g id="features" transform="translate(0.000000, 760.000000)">
                <g id="Group-3-Copy-2" transform="translate(42.000000, 1205.000000)">
                    <g id="img-viewjobs" transform="translate(284.000000, 0.000000)">
                        <g id="Group-3" transform="translate(0.000000, 0.341462)">
                            <mask id="mask-2" fill="white">
                                <use xlink:href="#path-1"></use>
                            </mask>
                            <g id="Clip-2"></g>
                            <path d="M127.539125,106.882128 C122.205223,65.4730411 142.365682,47.6815589 124.491089,20.7859146 C109.154915,-2.29050435 61.4635632,-5.14848063 27.7547767,8.59634941 C0.637503953,19.6532901 -3.63915217,56.6227209 2.40022332,91.1658356 C15.5246225,166.236033 53.4127806,162.254452 87.5944605,162.254452 C115.74063,162.254452 133.022496,149.450255 127.539125,106.882128" id="Fill-1" fill="#7373E5" mask="url(#mask-2)"></path>
                        </g>
                        <g id="Group-6" transform="translate(0.000000, 0.341462)">
                            <mask id="mask-4" fill="white">
                                <use xlink:href="#path-3"></use>
                            </mask>
                            <g id="Clip-5"></g>
                            <path d="M46.1855024,77.7095735 C42.1717079,76.6529727 32.2216209,73.8136802 32.2216209,73.8136802 L21.0751269,75.6446921 C21.0751269,75.6446921 15.0151348,80.455447 11.5451032,82.737447 C11.5451032,82.737447 9.89190949,102.513921 14.6195538,114.007676 C19.174534,125.081368 22.194866,137.520909 22.194866,137.520909 L50.5252968,132.867356 C50.5252968,132.867356 47.8638225,120.291874 49.7038542,108.446348 C52.1572296,92.680447 46.1855024,77.7095735 46.1855024,77.7095735" id="Fill-4" fill="#342F72" mask="url(#mask-4)"></path>
                        </g>
                        <g id="Group-9" transform="translate(0.000000, 0.341462)">
                            <mask id="mask-6" fill="white">
                                <use xlink:href="#path-5"></use>
                            </mask>
                            <g id="Clip-8"></g>
                            <path d="M27.5978328,79.9472478 C27.5978328,79.9472478 28.2517656,83.3824889 29.2336312,88.5366391 C29.6904178,91.1182241 30.2238723,94.1314692 30.795983,97.3586115 C31.337813,100.590264 31.9170107,104.037746 32.495564,107.485872 C33.5863111,114.392434 34.6654613,121.300928 35.3902636,126.495023 C36.0873625,131.696204 36.5518802,135.16237 36.5518802,135.16237 C36.5518802,135.16237 35.8973032,131.727129 34.9160818,126.572979 C33.9619198,121.416896 32.802236,114.521287 31.6547933,107.623746 C31.1136075,104.169821 30.5737103,100.715896 30.0666708,97.4784455 C29.5892676,94.2358407 29.1434336,91.2084217 28.7613822,88.6145957 C28.0636391,83.4134138 27.5978328,79.9472478 27.5978328,79.9472478" id="Fill-7" fill="#EDDAD3" mask="url(#mask-6)"></path>
                        </g>
                        <g id="Group-12" transform="translate(0.000000, 0.341462)">
                            <mask id="mask-8" fill="white">
                                <use xlink:href="#path-7"></use>
                            </mask>
                            <g id="Clip-11"></g>
                            <path d="M50.0637427,130.258196 L21.5767545,134.937521 C18.2181814,141.771279 15.6662328,161.505876 16.7479601,169.750584 C17.6151458,176.362714 21.3615688,191.388351 20.7714186,194.053046 C18.4791103,204.406445 19.3952605,218.338758 20.7024818,228.875774 L31.9816953,227.023501 L42.0645016,162.931643 L55.1818138,223.212007 L65.8090273,221.466683 C64.5591458,208.832572 63.0264304,191.812279 62.9935727,183.976683 C62.9285016,168.03554 59.9049482,146.103987 50.0637427,130.258196" id="Fill-10" fill="#D44040" mask="url(#mask-8)"></path>
                        </g>
                        <g id="Group-15" transform="translate(0.000000, 0.341462)">
                            <mask id="mask-10" fill="white">
                                <use xlink:href="#path-9"></use>
                            </mask>
                            <g id="Clip-14"></g>
                            <path d="M12.5040972,60.2164522 L13.8280696,68.3806261 C17.9501012,74.106887 26.5968324,74.5437012 26.5968324,74.5437012 C26.5968324,74.5437012 34.6585676,71.362302 36.7588838,64.6142308 L35.4349115,56.4500569 L12.5040972,60.2164522 Z" id="Fill-13" fill="#3C2945" mask="url(#mask-10)"></path>
                        </g>
                        <g id="Group-18" transform="translate(0.000000, 0.341462)">
                            <mask id="mask-12" fill="white">
                                <use xlink:href="#path-11"></use>
                            </mask>
                            <g id="Clip-17"></g>
                            <polygon id="Fill-16" fill="#EEA687" mask="url(#mask-12)" points="31.7900253 73.5899901 27.9952822 82.5710968 21.3689779 75.3018123 20.0836617 67.3528241 30.5034206 65.6416462"></polygon>
                        </g>
                        <g id="Group-21" transform="translate(0.000000, 0.341462)">
                            <mask id="mask-14" fill="white">
                                <use xlink:href="#path-13"></use>
                            </mask>
                            <g id="Clip-20"></g>
                            <path d="M35.3254502,58.6600921 C35.0574344,62.6970802 30.8207229,70.9553174 25.9255688,71.7593648 C21.7191379,72.4500209 13.9563435,67.4350328 13.0092684,63.4437877 C13.0092684,63.4437877 10.791051,56.399353 10.2453553,54.0020289 C8.63854901,46.8976771 14.3809166,39.962768 20.6039087,38.9409577 C26.8281893,37.9185032 34.7005095,42.6210209 35.3563751,49.8774202 C35.5805806,52.3359498 35.4858731,56.1951198 35.3254502,58.6600921" id="Fill-19" fill="#EEA687" mask="url(#mask-14)"></path>
                        </g>
                        <g id="Group-24" transform="translate(0.000000, 0.341462)">
                            <mask id="mask-16" fill="white">
                                <use xlink:href="#path-15"></use>
                            </mask>
                            <g id="Clip-23"></g>
                            <path d="M32.7463134,70.6388526 C32.7463134,70.6388526 35.880681,64.1368921 35.1745625,59.7829237 C34.9071909,58.1355285 34.317685,54.4973427 34.2049379,53.805398 C33.6102779,50.1362874 29.9121751,47.2306352 29.9121751,47.2306352 C29.5281909,47.2937735 29.9192621,51.6425877 23.1389775,54.6906233 C19.0691316,56.5177696 13.3183885,56.2349356 14.5927522,64.0924375 C15.2305783,68.0250542 16.4733727,69.8515561 19.0865269,72.6000067 C19.0865269,72.6000067 10.1260368,71.8835798 7.88140435,58.0446866 C7.10183913,53.2384415 8.99534506,40.2944375 19.6489735,38.5446036 C27.2661632,37.2934336 36.5636059,41.1281213 38.4912581,53.016813 C39.6090644,59.9066233 38.3372779,67.7621925 32.7463134,70.6388526" id="Fill-22" fill="#3C2945" mask="url(#mask-16)"></path>
                        </g>
                        <g id="Group-27" transform="translate(0.000000, 0.341462)">
                            <mask id="mask-18" fill="white">
                                <use xlink:href="#path-17"></use>
                            </mask>
                            <g id="Clip-26"></g>
                            <path d="M28.0225992,82.5665225 C28.0225992,82.5665225 34.7642277,77.0457834 38.3779312,77.5186767 C38.3779312,77.5186767 35.6900419,73.0622696 32.082781,72.9566095 L28.0225992,82.5665225 Z" id="Fill-25" fill="#EDDAD3" mask="url(#mask-18)"></path>
                        </g>
                        <g id="Group-30" transform="translate(0.000000, 0.341462)">
                            <mask id="mask-20" fill="white">
                                <use xlink:href="#path-19"></use>
                            </mask>
                            <g id="Clip-29"></g>
                            <path d="M28.0225992,82.5665225 C28.0225992,82.5665225 19.8867731,79.4901391 16.6093779,81.0943684 C16.6093779,81.0943684 17.5500103,76.0420126 20.936287,74.7876213 L28.0225992,82.5665225 Z" id="Fill-28" fill="#EDDAD3" mask="url(#mask-20)"></path>
                        </g>
                        <g id="Group-33" transform="translate(0.000000, 0.341462)">
                            <mask id="mask-22" fill="white">
                                <use xlink:href="#path-21"></use>
                            </mask>
                            <g id="Clip-32"></g>
                            <polygon id="Fill-31" fill="#8982BC" mask="url(#mask-22)" points="60.8693542 147.830949 66.3752751 147.600945 63.3704055 119.735032 54.3950972 121.209119"></polygon>
                        </g>
                        <g id="Group-36" transform="translate(0.000000, 0.341462)">
                            <mask id="mask-24" fill="white">
                                <use xlink:href="#path-23"></use>
                            </mask>
                            <g id="Clip-35"></g>
                            <path d="M62.7247838,161.53635 L62.7260723,161.53184 C62.799519,161.431334 62.8794083,161.32503 62.9857126,161.198753 C64.1834083,159.82324 65.014515,158.717674 64.9732818,157.686844 C64.9397798,156.88473 64.9365585,156.307465 64.8979024,155.409998 C64.8650447,154.57116 63.8754478,152.481153 63.2543727,152.510145 C62.6590684,152.531406 61.6978194,154.627212 61.3840605,155.049852 C61.3177008,155.137473 61.2506968,155.217362 61.1785387,155.290164 C61.9883846,155.451876 63.4502304,156.168303 62.6081711,159.290429 C62.4599893,159.835481 61.4877877,160.782556 62.7247838,161.53635" id="Fill-34" fill="#E67266" mask="url(#mask-24)"></path>
                        </g>
                        <g id="Group-39" transform="translate(0.000000, 0.341462)">
                            <mask id="mask-26" fill="white">
                                <use xlink:href="#path-25"></use>
                            </mask>
                            <g id="Clip-38"></g>
                            <path d="M59.364149,91.4929953 C60.6030779,95.0442047 62.484987,114.272406 63.3708565,119.735161 L54.394904,121.209248 C54.394904,121.209248 50.5737458,100.519201 50.2825364,99.2950901 C47.5411727,87.786517 45.8789593,77.5864538 45.8789593,77.5864538 C45.8789593,77.5864538 55.3722597,80.0565802 59.364149,91.4929953" id="Fill-37" fill="#8982BC" mask="url(#mask-26)"></path>
                        </g>
                        <g id="Group-42" transform="translate(0.000000, 0.341462)">
                            <mask id="mask-28" fill="white">
                                <use xlink:href="#path-27"></use>
                            </mask>
                            <g id="Clip-41"></g>
                            <polygon id="Fill-40" fill="#342F72" mask="url(#mask-28)" points="16.6046747 154.334134 11.2488684 155.631691 6.45099881 128.017687 15.4849356 126.959154"></polygon>
                        </g>
                        <g id="Group-45" transform="translate(0.000000, 0.341462)">
                            <mask id="mask-30" fill="white">
                                <use xlink:href="#path-29"></use>
                            </mask>
                            <g id="Clip-44"></g>
                            <path d="M18.6014569,168.019627 L18.5988798,168.015761 C18.500951,167.939093 18.3940024,167.859204 18.2574174,167.767074 C16.7266348,166.7749 15.6230024,165.94186 15.3781802,164.939378 C15.1894095,164.159168 15.0328522,163.603809 14.8228206,162.73018 C14.6230972,161.91518 14.9980617,159.632536 15.60303,159.489508 C16.1809391,159.345836 17.6827296,161.095026 18.1008601,161.415228 C18.1891249,161.480943 18.2761012,161.538927 18.3650103,161.58918 C17.6305439,161.96801 16.4238285,163.060046 18.0944174,165.828469 C18.3869154,166.31167 19.5826783,166.954006 18.6014569,168.019627" id="Fill-43" fill="#342F72" mask="url(#mask-30)"></path>
                        </g>
                        <g id="Group-48" transform="translate(0.000000, 0.341462)">
                            <mask id="mask-32" fill="white">
                                <use xlink:href="#path-31"></use>
                            </mask>
                            <g id="Clip-47"></g>
                            <path d="M2.51245494,99.7663727 C2.30113478,103.521815 5.79564862,122.523234 6.45086996,128.018203 L15.4848067,126.959669 C15.4848067,126.959669 13.4514945,106.017713 13.3935103,104.761389 C12.8549016,92.9422779 11.6391664,82.6797206 11.6391664,82.6797206 C11.6391664,82.6797206 3.19473557,87.6721593 2.51245494,99.7663727" id="Fill-46" fill="#342F72" mask="url(#mask-32)"></path>
                        </g>
                        <g id="Group-51" transform="translate(0.000000, 0.341462)">
                            <mask id="mask-34" fill="white">
                                <use xlink:href="#path-33"></use>
                            </mask>
                            <g id="Clip-50"></g>
                            <path d="M66.1666609,162.129657 C66.3431905,163.219116 65.606147,164.252523 64.5166885,164.43163 C63.4285186,164.610092 62.4021984,163.866606 62.2256688,162.777147 L61.0511668,155.532989 C60.8733486,154.439665 61.6123249,153.410124 62.6998506,153.231017 C63.7899534,153.05191 64.8143407,153.792175 64.9921589,154.885499 L66.1666609,162.129657 Z" id="Fill-49" fill="#89ABD1" mask="url(#mask-34)"></path>
                        </g>
                        <g id="Group-54" transform="translate(0.000000, 0.341462)">
                            <mask id="mask-36" fill="white">
                                <use xlink:href="#path-35"></use>
                            </mask>
                            <g id="Clip-53"></g>
                            <path d="M79.3253352,136.572868 L73.0102126,199.506975 L73.4219004,242.843714 C73.4219004,242.843714 74.4198727,243.460923 77.2643194,243.856504 C80.0881494,244.248864 80.4502285,244.005975 80.4502285,244.005975 L96.9080743,161.328251 L89.2064854,245.222354 C89.2064854,245.222354 89.4906079,245.555441 92.3118609,245.947801 C95.1563075,246.342738 96.2812008,246.020603 96.2812008,246.020603 L108.368327,204.420813 L118.309394,141.990524 L79.3253352,136.572868 Z" id="Fill-52" fill="#8982BC" mask="url(#mask-36)"></path>
                        </g>
                        <g id="Group-57" transform="translate(0.000000, 0.341462)">
                            <mask id="mask-38" fill="white">
                                <use xlink:href="#path-37"></use>
                            </mask>
                            <g id="Clip-56"></g>
                            <path d="M117.952856,146.816999 L128.946658,84.4382522 C129.278457,82.0222443 127.362402,80.1873668 125.252421,78.9684103 C121.78239,76.961513 113.824382,72.4239281 113.824382,72.4239281 C113.824382,72.4239281 112.229817,77.6090032 107.436457,76.9428292 C103.070247,76.3365723 102.630856,70.8686632 102.630856,70.8686632 C102.630856,70.8686632 93.267698,72.6687502 89.8672474,74.0507067 C87.6123067,74.9649241 84.8786743,76.2425091 84.7227613,77.3789992 L78.3973304,141.319454 L117.952856,146.816999 Z" id="Fill-55" fill="#EDDAD3" mask="url(#mask-38)"></path>
                        </g>
                        <g id="Group-60" transform="translate(0.000000, 0.341462)">
                            <mask id="mask-40" fill="white">
                                <use xlink:href="#path-39"></use>
                            </mask>
                            <g id="Clip-59"></g>
                            <path d="M125.25255,78.968668 C122.822368,77.5648063 117.684325,74.2197628 113.824511,72.4241858 C113.824511,72.4241858 104.720349,115.090885 106.980443,134.136115 C107.923653,142.099921 116.395143,160.033142 116.395143,160.033142 L128.946143,84.4385099 C129.278586,82.022502 127.36253,80.1869802 125.25255,78.968668" id="Fill-58" fill="#342F72" mask="url(#mask-40)"></path>
                        </g>
                        <g id="Group-63" transform="translate(0.000000, 0.341462)">
                            <mask id="mask-42" fill="white">
                                <use xlink:href="#path-41"></use>
                            </mask>
                            <g id="Clip-62"></g>
                            <path d="M89.4009901,73.9862154 C92.6835395,72.7807885 99.1764802,71.2815751 102.631049,70.8685988 C102.631049,70.8685988 99.3768478,112.630745 91.7429071,133.056642 C89.6606304,138.616682 76.3023617,154.461828 76.3023617,154.461828 L84.3711838,78.2435435 C84.7036265,75.8275356 87.1177016,74.8231206 89.4009901,73.9862154" id="Fill-61" fill="#342F72" mask="url(#mask-42)"></path>
                        </g>
                        <g id="Group-66" transform="translate(0.000000, 0.341462)">
                            <mask id="mask-44" fill="white">
                                <use xlink:href="#path-43"></use>
                            </mask>
                            <g id="Clip-65"></g>
                            <path d="M113.8229,72.4359115 C113.8229,72.4359115 112.454473,77.7408206 107.393742,77.0379233 C102.724726,76.3885004 102.629374,70.8800024 102.629374,70.8800024 L103.385102,65.3811684 L114.578627,66.9370775 L113.8229,72.4359115 Z" id="Fill-64" fill="#EEA687" mask="url(#mask-44)"></path>
                        </g>
                        <g id="Group-69" transform="translate(0.000000, 0.341462)">
                            <mask id="mask-46" fill="white">
                                <use xlink:href="#path-45"></use>
                            </mask>
                            <g id="Clip-68"></g>
                            <path d="M122.256507,61.4262601 C121.928574,63.8106988 114.806827,70.2798016 108.534226,69.4081059 C102.498072,68.5686237 97.089436,60.8496395 97.4830842,57.9832877 L98.7484281,48.7773312 C99.6916375,41.9126474 106.00225,37.1212206 112.841163,38.071517 C119.683298,39.0224577 124.46506,45.3556198 123.521851,52.2203036 L122.256507,61.4262601 Z" id="Fill-67" fill="#EEA687" mask="url(#mask-46)"></path>
                        </g>
                        <g id="Group-72" transform="translate(0.000000, 0.341462)">
                            <mask id="mask-48" fill="white">
                                <use xlink:href="#path-47"></use>
                            </mask>
                            <g id="Clip-71"></g>
                            <path d="M125.024543,57.7315719 C124.373832,59.0375047 123.066611,59.7043229 122.10214,59.2243427 C121.136381,58.7398526 120.878674,57.288315 121.526808,55.9823822 C122.172366,54.680315 123.478298,54.0083427 124.444057,54.4928328 C125.408528,54.972813 125.670101,56.4256391 125.024543,57.7315719" id="Fill-70" fill="#EEA687" mask="url(#mask-48)"></path>
                        </g>
                        <g id="Group-75" transform="translate(0.000000, 0.341462)">
                            <mask id="mask-50" fill="white">
                                <use xlink:href="#path-49"></use>
                            </mask>
                            <g id="Clip-74"></g>
                            <path d="M95.8135261,53.67197 C96.0873403,55.1061123 97.165202,56.1047289 98.2250241,55.9062941 C99.2861348,55.7033494 99.9239609,54.3761557 99.6527237,52.9426577 C99.3827751,51.5130253 98.306202,50.5105431 97.2463798,50.7128435 C96.1859134,50.9119225 95.5480874,52.2391162 95.8135261,53.67197" id="Fill-73" fill="#EEA687" mask="url(#mask-50)"></path>
                        </g>
                        <g id="Group-78" transform="translate(0.000000, 0.341462)">
                            <mask id="mask-52" fill="white">
                                <use xlink:href="#path-51"></use>
                            </mask>
                            <g id="Clip-77"></g>
                            <path d="M127.056503,80.1527051 C127.056503,80.1527051 140.828392,90.5228553 135.450681,129.655741 L122.119471,127.802824 C122.119471,127.802824 123.90925,109.224045 124.419511,105.513057 C126.750475,88.5507486 127.056503,80.1527051 127.056503,80.1527051" id="Fill-76" fill="#342F72" mask="url(#mask-52)"></path>
                        </g>
                        <g id="Group-81" transform="translate(0.000000, 0.341462)">
                            <mask id="mask-54" fill="white">
                                <use xlink:href="#path-53"></use>
                            </mask>
                            <g id="Clip-80"></g>
                            <polygon id="Fill-79" fill="#342F72" mask="url(#mask-54)" points="118.067149 155.814277 127.410335 157.112479 135.450809 129.655676 122.1196 127.802759"></polygon>
                        </g>
                        <g id="Group-84" transform="translate(0.000000, 0.341462)">
                            <mask id="mask-56" fill="white">
                                <use xlink:href="#path-55"></use>
                            </mask>
                            <g id="Clip-83"></g>
                            <path d="M119.064864,171.027202 L119.072595,171.028491 C119.16537,170.928629 119.273607,170.826835 119.412769,170.721175 C120.951283,169.48289 122.052338,168.46559 122.204386,167.360025 C122.322931,166.495416 122.429236,165.882716 122.562599,164.915669 C122.685655,164.015625 122.029789,161.590598 121.363615,161.498467 C120.722568,161.408914 119.296801,163.45189 118.881892,163.844894 C118.794915,163.925428 118.706651,163.997586 118.617097,164.061368 C119.44756,164.393811 120.872038,165.440748 119.373469,168.607973 C119.113184,169.163333 117.893583,169.979621 119.064864,171.027202" id="Fill-82" fill="#E67266" mask="url(#mask-56)"></path>
                        </g>
                        <g id="Group-87" transform="translate(0.000000, 0.341462)">
                            <mask id="mask-58" fill="white">
                                <use xlink:href="#path-57"></use>
                            </mask>
                            <g id="Clip-86"></g>
                            <path d="M125.635181,156.866046 C125.635181,156.866046 126.2176,161.074409 125.432881,166.782631 C125.128786,168.997627 123.407944,172.226058 120.07643,172.611975 C119.727237,172.648054 118.842011,172.444465 118.726043,172.12684 C118.575284,171.715797 118.637778,171.342121 119.412189,170.72169 C120.951347,169.482761 122.052403,168.465461 122.203806,167.359896 C122.322996,166.495287 122.4293,165.882587 122.562019,164.91554 C122.685719,164.015496 122.029853,161.591113 121.363679,161.498338 C120.722632,161.409429 119.296865,163.451761 118.881956,163.844765 C117.595996,165.050192 115.829411,164.458753 117.004557,163.049093 C119.899901,159.580994 119.718861,156.043959 119.718861,156.043959 L125.635181,156.866046 Z" id="Fill-85" fill="#FB9888" mask="url(#mask-58)"></path>
                        </g>
                        <g id="Group-90" transform="translate(0.000000, 0.341462)">
                            <mask id="mask-60" fill="white">
                                <use xlink:href="#path-59"></use>
                            </mask>
                            <g id="Clip-89"></g>
                            <path d="M122.609631,57.1063091 C122.609631,57.1063091 124.247362,53.7574 124.703504,50.4413486 C125.462453,44.9186767 123.503232,37.7028664 113.086694,36.2551945 C105.277512,35.1702458 99.4571881,40.7695858 98.4946506,47.7727874 C98.2021526,49.9008071 97.9141644,51.1880561 97.9876111,54.3359534 C98.0050063,55.0910364 98.8489984,54.9705581 98.9907375,54.4274395 C99.4945557,52.4856134 100.027366,47.1085462 101.784931,45.7356095 C101.784931,45.7356095 102.683042,48.9666174 108.351319,49.7539138 C114.02024,50.5418545 114.987287,45.9211589 118.992062,46.4778071 C120.256117,46.6530482 121.788188,47.6909652 122.483354,49.2275462 C123.181097,50.7692814 122.343548,54.5550047 121.715386,56.5760759 C121.51373,57.2319415 122.329374,57.7312498 122.609631,57.1063091" id="Fill-88" fill="#3C2945" mask="url(#mask-60)"></path>
                        </g>
                        <g id="Group-93" transform="translate(0.000000, 0.341462)">
                            <mask id="mask-62" fill="white">
                                <use xlink:href="#path-61"></use>
                            </mask>
                            <g id="Clip-92"></g>
                            <path d="M73.3808605,49.2031285 C73.3808605,49.2031285 78.1832399,47.7296858 80.0677261,38.8284684 C80.3930818,37.2996186 81.3292043,33.3785988 81.5836905,31.0463458 C82.4702043,22.7990613 77.6736233,16.5593182 67.0824889,16.5593182 C62.4147617,16.5593182 55.8612597,19.2800652 51.7018605,27.1858874 C46.6733427,36.7442589 50.5673032,39.208587 46.2803387,43.6334249 C41.9933743,48.0627727 41.7421095,51.2235553 44.8919395,55.5285593 C48.0456352,59.8296976 50.1897617,63.1225553 48.6776628,66.535247 C47.1623427,69.9518043 46.657236,79.3143182 55.5462123,75.6452075 C64.4351885,71.9722312 73.3789277,53.5081324 73.3789277,53.5081324 L73.3808605,49.2031285 Z" id="Fill-91" fill="#3C2945" mask="url(#mask-62)"></path>
                        </g>
                        <g id="Group-96" transform="translate(0.000000, 0.341462)">
                            <mask id="mask-64" fill="white">
                                <use xlink:href="#path-63"></use>
                            </mask>
                            <g id="Clip-95"></g>
                            <polygon id="Fill-94" fill="#EEA687" mask="url(#mask-64)" points="73.3789277 57.1858119 63.0042676 57.1858119 63.0074889 47.7595154 73.3808605 47.7595154"></polygon>
                        </g>
                        <g id="Group-99" transform="translate(0.000000, 0.341462)">
                            <mask id="mask-66" fill="white">
                                <use xlink:href="#path-65"></use>
                            </mask>
                            <g id="Clip-98"></g>
                            <path d="M79.1544107,39.0548644 C78.2588771,42.9333625 72.8521735,50.2664296 67.9789245,50.2664296 C63.7918217,50.2664296 57.0527704,44.1671372 56.7615609,40.1443229 C56.7615609,40.1443229 55.7178455,32.9600818 55.5664423,30.5427854 C55.1257625,23.3972004 61.7849245,17.5839632 67.9789245,17.5839632 C74.1735688,17.5839632 81.0730431,23.3972004 80.5679364,30.5427854 C80.3939838,32.9600818 79.6975292,36.6929751 79.1544107,39.0548644" id="Fill-97" fill="#EEA687" mask="url(#mask-66)"></path>
                        </g>
                        <g id="Group-102" transform="translate(0.000000, 0.341462)">
                            <mask id="mask-68" fill="white">
                                <use xlink:href="#path-67"></use>
                            </mask>
                            <g id="Clip-101"></g>
                            <path d="M62.6498553,224.650788 L66.6166182,138.597096 L74.7363375,176.259116 L74.7717723,176.259116 L71.6393375,224.650788 L84.0769462,224.650788 C84.0769462,224.650788 93.38663,176.268136 93.3898514,176.259116 C97.236136,150.837558 86.6785036,117.988871 86.6785036,117.988871 L48.8174047,117.988871 C48.8174047,117.988871 44.2727328,145.127404 43.4635312,153.392084 C41.3239146,175.200582 49.5054838,224.650788 49.5054838,224.650788 L62.6498553,224.650788 Z" id="Fill-100" fill="#3C2945" mask="url(#mask-68)"></path>
                        </g>
                        <g id="Group-105" transform="translate(0.000000, 0.341462)">
                            <mask id="mask-70" fill="white">
                                <use xlink:href="#path-69"></use>
                            </mask>
                            <g id="Clip-104"></g>
                            <path d="M87.0329158,60.4916194 L73.3808605,54.2048447 C73.3808605,54.2048447 71.9873071,56.3315759 68.5320937,56.3315759 C64.7418605,56.3315759 63.0042676,54.2048447 63.0042676,54.2048447 C63.0042676,54.2048447 52.6470028,59.6418289 48.8174692,61.3755561 C48.8174692,61.3755561 46.599896,79.8647814 50.5492636,91.9693032 C54.4696391,103.975252 48.8174692,117.988742 48.8174692,117.988742 C48.8174692,117.988742 56.9964613,122.593331 66.6881964,122.593331 C77.087983,122.593331 86.678568,117.988742 86.678568,117.988742 C86.678568,117.988742 80.1186233,104.931991 84.7431846,92.1748249 C90.2993585,76.8283427 87.0329158,60.4916194 87.0329158,60.4916194" id="Fill-103" fill="#F7C954" mask="url(#mask-70)"></path>
                        </g>
                        <g id="Group-108" transform="translate(0.000000, 0.341462)">
                            <mask id="mask-72" fill="white">
                                <use xlink:href="#path-71"></use>
                            </mask>
                            <g id="Clip-107"></g>
                            <path d="M82.9586889,36.1550107 C82.4522937,37.6542241 81.1476494,38.5677972 80.0401514,38.1921885 C78.9300763,37.8165798 78.4391435,36.2961055 78.9442502,34.7968921 C79.444847,33.2976787 80.748847,32.3879711 81.8582779,32.75907 C82.9664202,33.1353229 83.45993,34.6512874 82.9586889,36.1550107" id="Fill-106" fill="#EEA687" mask="url(#mask-72)"></path>
                        </g>
                        <g id="Group-111" transform="translate(0.000000, 0.341462)">
                            <mask id="mask-74" fill="white">
                                <use xlink:href="#path-73"></use>
                            </mask>
                            <g id="Clip-110"></g>
                            <path d="M80.1483885,33.9211375 C80.1483885,33.9211375 77.8019617,33.6730941 77.6743964,36.7056672 C77.6743964,36.7056672 77.6743964,30.6025091 75.4664874,26.9978253 C75.4664874,26.9978253 72.313436,31.5508727 66.6412937,31.7428648 C60.9685071,31.9309913 57.9127403,33.6904893 56.4148154,37.6836672 C56.4148154,37.6836672 53.5297798,31.1707542 55.5463411,25.2892245 C57.5635466,19.4083391 64.8044834,16.9736474 68.7854202,17.1269834 C72.7657126,17.2854735 84.341934,22.8081455 80.1483885,33.9211375" id="Fill-109" fill="#3C2945" mask="url(#mask-74)"></path>
                        </g>
                        <g id="Group-114" transform="translate(0.000000, 0.341462)">
                            <mask id="mask-76" fill="white">
                                <use xlink:href="#path-75"></use>
                            </mask>
                            <g id="Clip-113"></g>
                            <polygon id="Fill-112" fill="#EEA687" mask="url(#mask-76)" points="99.1451043 133.629719 105.227002 134.185079 101.357523 102.647478 92.9201794 103.838731"></polygon>
                        </g>
                        <g id="Group-117" transform="translate(0.000000, 0.341462)">
                            <mask id="mask-78" fill="white">
                                <use xlink:href="#path-77"></use>
                            </mask>
                            <g id="Clip-116"></g>
                            <path d="M87.0573336,60.5301466 C87.0573336,60.5301466 94.2325549,61.9823285 96.1209067,72.2713008 C97.2735036,78.5580755 101.632626,95.2968225 104.258021,109.976487 C104.258021,109.976487 103.370863,111.146479 99.0735905,112.445325 C96.3006577,113.27772 93.6842822,112.02655 93.6842822,112.02655 C93.6842822,112.02655 89.1505628,93.5753364 87.3936419,81.1164668 C86.8350609,77.1490597 87.0586221,73.7705142 87.0573336,70.9176921 C87.0496024,64.1264549 87.0573336,60.5301466 87.0573336,60.5301466" id="Fill-115" fill="#F7C954" mask="url(#mask-78)"></path>
                        </g>
                        <g id="Group-120" transform="translate(0.000000, 0.341462)">
                            <mask id="mask-80" fill="white">
                                <use xlink:href="#path-79"></use>
                            </mask>
                            <g id="Clip-119"></g>
                            <polygon id="Fill-118" fill="#C0B4FE" mask="url(#mask-80)" points="111.364499 136.395308 118.155092 158.384201 84.2717087 168.847126 77.4811158 146.861454"></polygon>
                        </g>
                        <g id="Group-123" transform="translate(0.000000, 0.341462)">
                            <mask id="mask-82" fill="white">
                                <use xlink:href="#path-81"></use>
                            </mask>
                            <g id="Clip-122"></g>
                            <path d="M105.047444,133.51446 L99.1452976,133.629784 C99.1452976,133.629784 99.810183,136.888495 97.684096,140.630408 L100.53563,139.745827 C101.310041,139.045507 101.310041,138.699535 101.593519,138.699535 C102.256472,138.699535 102.558634,141.295938 102.246808,143.034819 C101.703045,146.071258 100.065313,149.748744 102.044507,149.748744 C105.359914,149.748744 106.421025,145.43923 106.378503,143.226811 C106.265756,137.533408 105.047444,133.51446 105.047444,133.51446" id="Fill-121" fill="#EEA687" mask="url(#mask-82)"></path>
                        </g>
                        <g id="Group-126" transform="translate(0.000000, 0.341462)">
                            <mask id="mask-84" fill="white">
                                <use xlink:href="#path-83"></use>
                            </mask>
                            <g id="Clip-125"></g>
                            <path d="M33.3532146,98.9528545 C33.0742462,101.831447 33.5948154,104.188827 37.2323569,106.038523 C39.8036336,107.349609 44.1653332,104.116669 45.1568628,101.404297 C46.681847,97.2313684 49.3967957,87.455234 49.3967957,87.455234 C49.6770526,86.5448822 49.4206336,60.4919415 48.8169538,61.3758783 C41.9999458,71.3742854 33.3532146,98.9528545 33.3532146,98.9528545" id="Fill-124" fill="#F7C954" mask="url(#mask-84)"></path>
                        </g>
                        <g id="Group-129" transform="translate(0.000000, 0.341462)">
                            <mask id="mask-86" fill="white">
                                <use xlink:href="#path-85"></use>
                            </mask>
                            <g id="Clip-128"></g>
                            <path d="M36.3473893,96.8650372 C34.0872945,98.1464877 33.2851798,101.025081 34.5595435,103.297417 C35.8358399,105.565243 38.7009032,106.372511 40.9674407,105.091061 L63.0703696,89.7581083 C65.3323972,88.4766577 63.3532036,85.0427051 61.086666,86.3196458 L36.3473893,96.8650372 Z" id="Fill-127" fill="#EEA687" mask="url(#mask-86)"></path>
                        </g>
                        <g id="Group-132" transform="translate(0.000000, 0.341462)">
                            <mask id="mask-88" fill="white">
                                <use xlink:href="#path-87"></use>
                            </mask>
                            <g id="Clip-131"></g>
                            <polygon id="Fill-130" fill="#36258D" mask="url(#mask-88)" points="63.6596822 91.4362996 73.1297889 92.6449478 75.7081526 72.3060269 66.2328917 71.0973787"></polygon>
                        </g>
                        <g id="Group-135" transform="translate(0.000000, 0.341462)">
                            <mask id="mask-90" fill="white">
                                <use xlink:href="#path-89"></use>
                            </mask>
                            <g id="Clip-134"></g>
                            <path d="M63.0702407,89.7579794 C63.0702407,89.7579794 72.2774858,89.9203352 75.3635332,80.7672087 C76.087047,78.6101968 73.5138375,77.6753628 70.1694383,81.4378925 C67.9054779,83.9833984 64.1751617,85.9142719 64.590715,83.7611257 C64.760802,82.8900743 65.3876755,80.6261138 64.3897032,80.2376198 C62.8614976,79.6442482 61.0871814,86.319517 61.0871814,86.319517 L63.0702407,89.7579794 Z" id="Fill-133" fill="#EEA687" mask="url(#mask-90)"></path>
                        </g>
                    </g>
                </g>
            </g>
        </g>
    </g>
</svg>