<?xml version="1.0" encoding="UTF-8"?>
<svg width="141px" height="147px" viewBox="0 0 141 147" version="1.1" xmlns="http://www.w3.org/2000/svg" xmlns:xlink="http://www.w3.org/1999/xlink">
    <!-- Generator: sketchtool 63.1 (101010) - https://sketch.com -->
    <title>C3AD6F84-C981-42FC-8BD6-48FF65D7D4A9@2x</title>
    <desc>Created with sketchtool.</desc>
    <defs>
        <path d="M0,0.290327273 L0,45.0705455 L33.4551273,45.0705455 C30.2644364,62.9666909 42.8485818,79.3873455 36.384,109.189818 L36.384,109.189818 C28.1658182,147.073745 47.0725818,159.194764 72.5707636,159.194764 L72.5707636,159.194764 C103.537455,159.194764 137.8624,162.790982 149.752436,94.9969455 L149.752436,94.9969455 C151.126109,87.1639273 151.9104,79.1924364 151.926109,71.488 L151.926109,71.488 L151.926109,71.0225455 C151.880727,48.2327273 145.055418,27.8586182 126.782255,20.4311273 L126.782255,20.4311273 C105.673891,11.8516364 78.5157818,10.4378182 59.1662545,17.2631273 L59.1662545,17.2631273 L59.1662545,0.290327273" id="path-1"></path>
        <path d="M0,0.290327273 L0,45.0705455 L33.4551273,45.0705455 C30.2644364,62.9666909 42.8485818,79.3873455 36.384,109.189818 L36.384,109.189818 C28.1658182,147.073745 47.0725818,159.194764 72.5707636,159.194764 L72.5707636,159.194764 C103.537455,159.194764 137.8624,162.790982 149.752436,94.9969455 L149.752436,94.9969455 C151.126109,87.1639273 151.9104,79.1924364 151.926109,71.488 L151.926109,71.488 L151.926109,71.0225455 C151.880727,48.2327273 145.055418,27.8586182 126.782255,20.4311273 L126.782255,20.4311273 C105.673891,11.8516364 78.5157818,10.4378182 59.1662545,17.2631273 L59.1662545,17.2631273 L59.1662545,0.290327273" id="path-3"></path>
        <path d="M0,0.290327273 L0,45.0705455 L33.4551273,45.0705455 C30.2644364,62.9666909 42.8485818,79.3873455 36.384,109.189818 L36.384,109.189818 C28.1658182,147.073745 47.0725818,159.194764 72.5707636,159.194764 L72.5707636,159.194764 C103.537455,159.194764 137.8624,162.790982 149.752436,94.9969455 L149.752436,94.9969455 C151.126109,87.1639273 151.9104,79.1924364 151.926109,71.488 L151.926109,71.488 L151.926109,71.0225455 C151.880727,48.2327273 145.055418,27.8586182 126.782255,20.4311273 L126.782255,20.4311273 C105.673891,11.8516364 78.5157818,10.4378182 59.1662545,17.2631273 L59.1662545,17.2631273 L59.1662545,0.290327273" id="path-5"></path>
        <path d="M0,0.290327273 L0,45.0705455 L33.4551273,45.0705455 C30.2644364,62.9666909 42.8485818,79.3873455 36.384,109.189818 L36.384,109.189818 C28.1658182,147.073745 47.0725818,159.194764 72.5707636,159.194764 L72.5707636,159.194764 C103.537455,159.194764 137.8624,162.790982 149.752436,94.9969455 L149.752436,94.9969455 C151.126109,87.1639273 151.9104,79.1924364 151.926109,71.488 L151.926109,71.488 L151.926109,71.0225455 C151.880727,48.2327273 145.055418,27.8586182 126.782255,20.4311273 L126.782255,20.4311273 C105.673891,11.8516364 78.5157818,10.4378182 59.1662545,17.2631273 L59.1662545,17.2631273 L59.1662545,0.290327273" id="path-7"></path>
        <path d="M0,0.290327273 L0,45.0705455 L33.4551273,45.0705455 C30.2644364,62.9666909 42.8485818,79.3873455 36.384,109.189818 L36.384,109.189818 C28.1658182,147.073745 47.0725818,159.194764 72.5707636,159.194764 L72.5707636,159.194764 C103.537455,159.194764 137.8624,162.790982 149.752436,94.9969455 L149.752436,94.9969455 C151.126109,87.1639273 151.9104,79.1924364 151.926109,71.488 L151.926109,71.488 L151.926109,71.0225455 C151.880727,48.2327273 145.055418,27.8586182 126.782255,20.4311273 L126.782255,20.4311273 C105.673891,11.8516364 78.5157818,10.4378182 59.1662545,17.2631273 L59.1662545,17.2631273 L59.1662545,0.290327273" id="path-9"></path>
        <path d="M0,0.290327273 L0,45.0705455 L33.4551273,45.0705455 C30.2644364,62.9666909 42.8485818,79.3873455 36.384,109.189818 L36.384,109.189818 C28.1658182,147.073745 47.0725818,159.194764 72.5707636,159.194764 L72.5707636,159.194764 C103.537455,159.194764 137.8624,162.790982 149.752436,94.9969455 L149.752436,94.9969455 C151.126109,87.1639273 151.9104,79.1924364 151.926109,71.488 L151.926109,71.488 L151.926109,71.0225455 C151.880727,48.2327273 145.055418,27.8586182 126.782255,20.4311273 L126.782255,20.4311273 C105.673891,11.8516364 78.5157818,10.4378182 59.1662545,17.2631273 L59.1662545,17.2631273 L59.1662545,0.290327273" id="path-11"></path>
        <path d="M0,0.290327273 L0,45.0705455 L33.4551273,45.0705455 C30.2644364,62.9666909 42.8485818,79.3873455 36.384,109.189818 L36.384,109.189818 C28.1658182,147.073745 47.0725818,159.194764 72.5707636,159.194764 L72.5707636,159.194764 C103.537455,159.194764 137.8624,162.790982 149.752436,94.9969455 L149.752436,94.9969455 C151.126109,87.1639273 151.9104,79.1924364 151.926109,71.488 L151.926109,71.488 L151.926109,71.0225455 C151.880727,48.2327273 145.055418,27.8586182 126.782255,20.4311273 L126.782255,20.4311273 C105.673891,11.8516364 78.5157818,10.4378182 59.1662545,17.2631273 L59.1662545,17.2631273 L59.1662545,0.290327273" id="path-13"></path>
        <path d="M0,0.290327273 L0,45.0705455 L33.4551273,45.0705455 C30.2644364,62.9666909 42.8485818,79.3873455 36.384,109.189818 L36.384,109.189818 C28.1658182,147.073745 47.0725818,159.194764 72.5707636,159.194764 L72.5707636,159.194764 C103.537455,159.194764 137.8624,162.790982 149.752436,94.9969455 L149.752436,94.9969455 C151.126109,87.1639273 151.9104,79.1924364 151.926109,71.488 L151.926109,71.488 L151.926109,71.0225455 C151.880727,48.2327273 145.055418,27.8586182 126.782255,20.4311273 L126.782255,20.4311273 C105.673891,11.8516364 78.5157818,10.4378182 59.1662545,17.2631273 L59.1662545,17.2631273 L59.1662545,0.290327273" id="path-15"></path>
        <path d="M0,0.290327273 L0,45.0705455 L33.4551273,45.0705455 C30.2644364,62.9666909 42.8485818,79.3873455 36.384,109.189818 L36.384,109.189818 C28.1658182,147.073745 47.0725818,159.194764 72.5707636,159.194764 L72.5707636,159.194764 C103.537455,159.194764 137.8624,162.790982 149.752436,94.9969455 L149.752436,94.9969455 C151.126109,87.1639273 151.9104,79.1924364 151.926109,71.488 L151.926109,71.488 L151.926109,71.0225455 C151.880727,48.2327273 145.055418,27.8586182 126.782255,20.4311273 L126.782255,20.4311273 C105.673891,11.8516364 78.5157818,10.4378182 59.1662545,17.2631273 L59.1662545,17.2631273 L59.1662545,0.290327273" id="path-17"></path>
        <path d="M0,0.290327273 L0,45.0705455 L33.4551273,45.0705455 C30.2644364,62.9666909 42.8485818,79.3873455 36.384,109.189818 L36.384,109.189818 C28.1658182,147.073745 47.0725818,159.194764 72.5707636,159.194764 L72.5707636,159.194764 C103.537455,159.194764 137.8624,162.790982 149.752436,94.9969455 L149.752436,94.9969455 C151.126109,87.1639273 151.9104,79.1924364 151.926109,71.488 L151.926109,71.488 L151.926109,71.0225455 C151.880727,48.2327273 145.055418,27.8586182 126.782255,20.4311273 L126.782255,20.4311273 C105.673891,11.8516364 78.5157818,10.4378182 59.1662545,17.2631273 L59.1662545,17.2631273 L59.1662545,0.290327273" id="path-19"></path>
        <path d="M0,0.290327273 L0,45.0705455 L33.4551273,45.0705455 C30.2644364,62.9666909 42.8485818,79.3873455 36.384,109.189818 L36.384,109.189818 C28.1658182,147.073745 47.0725818,159.194764 72.5707636,159.194764 L72.5707636,159.194764 C103.537455,159.194764 137.8624,162.790982 149.752436,94.9969455 L149.752436,94.9969455 C151.126109,87.1639273 151.9104,79.1924364 151.926109,71.488 L151.926109,71.488 L151.926109,71.0225455 C151.880727,48.2327273 145.055418,27.8586182 126.782255,20.4311273 L126.782255,20.4311273 C105.673891,11.8516364 78.5157818,10.4378182 59.1662545,17.2631273 L59.1662545,17.2631273 L59.1662545,0.290327273" id="path-21"></path>
        <path d="M0,0.290327273 L0,45.0705455 L33.4551273,45.0705455 C30.2644364,62.9666909 42.8485818,79.3873455 36.384,109.189818 L36.384,109.189818 C28.1658182,147.073745 47.0725818,159.194764 72.5707636,159.194764 L72.5707636,159.194764 C103.537455,159.194764 137.8624,162.790982 149.752436,94.9969455 L149.752436,94.9969455 C151.126109,87.1639273 151.9104,79.1924364 151.926109,71.488 L151.926109,71.488 L151.926109,71.0225455 C151.880727,48.2327273 145.055418,27.8586182 126.782255,20.4311273 L126.782255,20.4311273 C105.673891,11.8516364 78.5157818,10.4378182 59.1662545,17.2631273 L59.1662545,17.2631273 L59.1662545,0.290327273" id="path-23"></path>
        <path d="M0,0.290327273 L0,45.0705455 L33.4551273,45.0705455 C30.2644364,62.9666909 42.8485818,79.3873455 36.384,109.189818 L36.384,109.189818 C28.1658182,147.073745 47.0725818,159.194764 72.5707636,159.194764 L72.5707636,159.194764 C103.537455,159.194764 137.8624,162.790982 149.752436,94.9969455 L149.752436,94.9969455 C151.126109,87.1639273 151.9104,79.1924364 151.926109,71.488 L151.926109,71.488 L151.926109,71.0225455 C151.880727,48.2327273 145.055418,27.8586182 126.782255,20.4311273 L126.782255,20.4311273 C105.673891,11.8516364 78.5157818,10.4378182 59.1662545,17.2631273 L59.1662545,17.2631273 L59.1662545,0.290327273" id="path-25"></path>
        <path d="M0,0.290327273 L0,45.0705455 L33.4551273,45.0705455 C30.2644364,62.9666909 42.8485818,79.3873455 36.384,109.189818 L36.384,109.189818 C28.1658182,147.073745 47.0725818,159.194764 72.5707636,159.194764 L72.5707636,159.194764 C103.537455,159.194764 137.8624,162.790982 149.752436,94.9969455 L149.752436,94.9969455 C151.126109,87.1639273 151.9104,79.1924364 151.926109,71.488 L151.926109,71.488 L151.926109,71.0225455 C151.880727,48.2327273 145.055418,27.8586182 126.782255,20.4311273 L126.782255,20.4311273 C105.673891,11.8516364 78.5157818,10.4378182 59.1662545,17.2631273 L59.1662545,17.2631273 L59.1662545,0.290327273" id="path-27"></path>
        <path d="M0.200727273,2.87301818 C0.0133818182,4.21643636 0.0890181818,5.36029091 0.392145455,5.42487273 L0.392145455,5.42487273 L8.67607273,6.66181818 C8.98967273,6.71941818 9.38356364,5.64305455 9.59010909,4.28043636 L9.59010909,4.28043636 C9.80887273,2.91665455 9.71403636,1.79141818 9.41149091,1.73847273 L9.41149091,1.73847273 L1.13687273,0.483490909 C1.13163636,0.482909091 1.1264,0.482909091 1.12116364,0.482909091 L1.12116364,0.482909091 C0.801745455,0.482909091 0.403781818,1.52727273 0.200727273,2.87301818" id="path-29"></path>
        <linearGradient x1="1.0681015%" y1="45.2892105%" x2="98.7604567%" y2="54.7489272%" id="linearGradient-31">
            <stop stop-color="#101718" offset="0%"></stop>
            <stop stop-color="#233136" offset="100%"></stop>
        </linearGradient>
        <path d="M0.227490909,3.57643636 C-0.0826181818,5.58138182 0.0104727273,7.27156364 0.458472727,7.34778182 L0.458472727,7.34778182 L12.7941818,9.18749091 C13.2410182,9.25789091 13.8513455,7.67418182 14.1602909,5.6576 L14.1602909,5.6576 C14.4570182,3.63752727 14.3313455,1.95607273 13.8845091,1.8816 L13.8845091,1.8816 L1.58021818,0.0314181818 C1.57090909,0.0296727273 1.5616,0.0290909091 1.55170909,0.0290909091 L1.55170909,0.0290909091 C1.11767273,0.0290909091 0.516072727,1.58952727 0.227490909,3.57643636" id="path-32"></path>
        <linearGradient x1="44.1725236%" y1="131.537061%" x2="56.5879584%" y2="-41.487423%" id="linearGradient-34">
            <stop stop-color="#013366" offset="0%"></stop>
            <stop stop-color="#1462B3" offset="100%"></stop>
        </linearGradient>
        <path d="M0,0.290327273 L0,45.0705455 L33.4551273,45.0705455 C30.2644364,62.9666909 42.8485818,79.3873455 36.384,109.189818 L36.384,109.189818 C28.1658182,147.073745 47.0725818,159.194764 72.5707636,159.194764 L72.5707636,159.194764 C103.537455,159.194764 137.8624,162.790982 149.752436,94.9969455 L149.752436,94.9969455 C151.126109,87.1639273 151.9104,79.1924364 151.926109,71.488 L151.926109,71.488 L151.926109,71.0225455 C151.880727,48.2327273 145.055418,27.8586182 126.782255,20.4311273 L126.782255,20.4311273 C105.673891,11.8516364 78.5157818,10.4378182 59.1662545,17.2631273 L59.1662545,17.2631273 L59.1662545,0.290327273" id="path-35"></path>
        <path d="M0.795927273,5.1776 C0.384,7.92436364 0.534690909,10.2173091 1.13570909,10.2917818 L1.13570909,10.2917818 L17.8850909,12.8221091 C18.4663273,12.9093818 19.3099636,10.7776 19.7230545,8.03665455 L19.7230545,8.03665455 C20.1146182,5.30327273 19.9627636,2.99927273 19.3704727,2.90734545 L19.3704727,2.90734545 L2.64378182,0.380509091 C2.6304,0.378181818 2.6176,0.3776 2.60421818,0.3776 L2.60421818,0.3776 C1.99330909,0.3776 1.17934545,2.5024 0.795927273,5.1776" id="path-37"></path>
        <linearGradient x1="45.3568352%" y1="114.917929%" x2="54.5033271%" y2="-12.6888267%" id="linearGradient-39">
            <stop stop-color="#013366" offset="0%"></stop>
            <stop stop-color="#1462B3" offset="100%"></stop>
        </linearGradient>
        <path d="M0,0.290327273 L0,45.0705455 L33.4551273,45.0705455 C30.2644364,62.9666909 42.8485818,79.3873455 36.384,109.189818 L36.384,109.189818 C28.1658182,147.073745 47.0725818,159.194764 72.5707636,159.194764 L72.5707636,159.194764 C103.537455,159.194764 137.8624,162.790982 149.752436,94.9969455 L149.752436,94.9969455 C151.126109,87.1639273 151.9104,79.1924364 151.926109,71.488 L151.926109,71.488 L151.926109,71.0225455 C151.880727,48.2327273 145.055418,27.8586182 126.782255,20.4311273 L126.782255,20.4311273 C105.673891,11.8516364 78.5157818,10.4378182 59.1662545,17.2631273 L59.1662545,17.2631273 L59.1662545,0.290327273" id="path-40"></path>
        <path d="M0.432290909,7.35069091 C-0.180945455,11.4152727 0.0610909091,14.8002909 0.955927273,14.9457455 L0.955927273,14.9457455 L25.7088,18.6682182 C26.6146909,18.8171636 27.8231273,15.6346182 28.448,11.5741091 L28.448,11.5741091 C29.0513455,7.52232727 28.8285091,4.11170909 27.9237818,3.97381818 L27.9237818,3.97381818 L3.1808,0.245527273 C3.16334545,0.242618182 3.14530909,0.241454545 3.12785455,0.241454545 L3.12785455,0.241454545 C2.24930909,0.241454545 1.03505455,3.37745455 0.432290909,7.35069091" id="path-42"></path>
        <linearGradient x1="46.5282458%" y1="98.4322603%" x2="52.7037517%" y2="12.2790815%" id="linearGradient-44">
            <stop stop-color="#013366" offset="0%"></stop>
            <stop stop-color="#1462B3" offset="100%"></stop>
        </linearGradient>
        <path d="M0,0.290327273 L0,45.0705455 L33.4551273,45.0705455 C30.2644364,62.9666909 42.8485818,79.3873455 36.384,109.189818 L36.384,109.189818 C28.1658182,147.073745 47.0725818,159.194764 72.5707636,159.194764 L72.5707636,159.194764 C103.537455,159.194764 137.8624,162.790982 149.752436,94.9969455 L149.752436,94.9969455 C151.126109,87.1639273 151.9104,79.1924364 151.926109,71.488 L151.926109,71.488 L151.926109,71.0225455 C151.880727,48.2327273 145.055418,27.8586182 126.782255,20.4311273 L126.782255,20.4311273 C105.673891,11.8516364 78.5157818,10.4378182 59.1662545,17.2631273 L59.1662545,17.2631273 L59.1662545,0.290327273" id="path-45"></path>
        <path d="M0.0337454545,19.6922182 L30.5483636,24.224 C31.7434182,24.4061091 33.3899636,20.1588364 34.1975273,14.7165091 L34.1975273,14.7165091 C35.0289455,9.28290909 34.7211636,4.74123636 33.5156364,4.56029091 L33.5156364,4.56029091 L2.97716364,0.0151272727 L0.0337454545,19.6922182 Z" id="path-47"></path>
        <linearGradient x1="47.1466204%" y1="98.5715236%" x2="52.1902587%" y2="21.9832627%" id="linearGradient-49">
            <stop stop-color="#013366" offset="0%"></stop>
            <stop stop-color="#1462B3" offset="100%"></stop>
        </linearGradient>
        <path d="M0,0.290327273 L0,45.0705455 L33.4551273,45.0705455 C30.2644364,62.9666909 42.8485818,79.3873455 36.384,109.189818 L36.384,109.189818 C28.1658182,147.073745 47.0725818,159.194764 72.5707636,159.194764 L72.5707636,159.194764 C103.537455,159.194764 137.8624,162.790982 149.752436,94.9969455 L149.752436,94.9969455 C151.126109,87.1639273 151.9104,79.1924364 151.926109,71.488 L151.926109,71.488 L151.926109,71.0225455 C151.880727,48.2327273 145.055418,27.8586182 126.782255,20.4311273 L126.782255,20.4311273 C105.673891,11.8516364 78.5157818,10.4378182 59.1662545,17.2631273 L59.1662545,17.2631273 L59.1662545,0.290327273 L0,0.290327273 Z" id="path-50"></path>
        <path d="M0.931490909,11.5648 C0.254836364,15.9441455 -0.336872727,23.3856 3.21221818,23.9045818 L3.21221818,23.9045818 C6.78516364,24.4421818 8.41774545,17.1781818 9.08334545,12.8005818 L9.08334545,12.8005818 C9.73614545,8.40203636 10.2964364,0.974545455 6.75665455,0.444509091 L6.75665455,0.444509091 C6.63389091,0.425890909 6.51229091,0.416581818 6.3936,0.416581818 L6.3936,0.416581818 C3.10458182,0.416581818 1.55170909,7.33149091 0.931490909,11.5648 M3.52407273,22.0142545 C2.3168,21.8222545 1.98749091,17.2834909 2.81832727,11.8440727 L2.81832727,11.8440727 C3.61658182,6.41978182 5.27418182,2.17076364 6.46807273,2.3424 L6.46807273,2.3424 C7.67476364,2.5344 7.99243636,7.06385455 7.17265455,12.5021091 L7.17265455,12.5021091 C6.3808,17.8216727 4.77905455,22.0200727 3.60087273,22.0206545 L3.60087273,22.0206545 C3.57469091,22.0206545 3.54967273,22.0183273 3.52407273,22.0142545" id="path-52"></path>
        <linearGradient x1="43.2798282%" y1="47.4030325%" x2="56.7682306%" y2="52.6231501%" id="linearGradient-54">
            <stop stop-color="#101718" offset="0%"></stop>
            <stop stop-color="#233136" offset="100%"></stop>
        </linearGradient>
        <path d="M4.36712727,0.461963636 C4.53410909,0.4864 4.65861818,0.614981818 4.79883636,0.786036364 C3.67592727,1.62734545 2.33949091,5.41149091 1.65410909,10.0986182 C0.949527273,14.8101818 1.08741818,18.8224 1.91592727,19.9348364 C1.74545455,20.0750545 1.56683636,20.1448727 1.41090909,20.1245091 C0.205963636,19.9540364 -0.134981818,15.4053818 0.695272727,9.96596364" id="path-55"></path>
        <linearGradient x1="46.7540909%" y1="125.721987%" x2="50.1196151%" y2="29.2826855%" id="linearGradient-57">
            <stop stop-color="#FFFFFF" offset="0%"></stop>
            <stop stop-color="#B6B6B6" offset="100%"></stop>
        </linearGradient>
        <path d="M3.94530909,0.432872727 C4.11054545,0.436363636 4.27461818,0.4288 4.42938182,0.443927273 C7.96916364,0.974545455 7.40829091,8.40203636 6.75607273,12.8005818 C6.09047273,17.1781818 4.45789091,24.4421818 0.884945455,23.9045818 C0.749381818,23.8760727 0.579490909,23.8295273 0.431127273,23.7800727 C3.64974545,23.6119273 5.17294545,16.832 5.80829091,12.6667636" id="path-58"></path>
        <linearGradient x1="47.9974395%" y1="115.047303%" x2="51.5182083%" y2="34.3371476%" id="linearGradient-60">
            <stop stop-color="#FFFFFF" offset="0%"></stop>
            <stop stop-color="#B6B6B6" offset="100%"></stop>
        </linearGradient>
        <path d="M0,0.290327273 L0,45.0705455 L33.4551273,45.0705455 C30.2644364,62.9666909 42.8485818,79.3873455 36.384,109.189818 L36.384,109.189818 C28.1658182,147.073745 47.0725818,159.194764 72.5707636,159.194764 L72.5707636,159.194764 C103.537455,159.194764 137.8624,162.790982 149.752436,94.9969455 L149.752436,94.9969455 C151.126109,87.1639273 151.9104,79.1924364 151.926109,71.488 L151.926109,71.488 L151.926109,71.0225455 C151.880727,48.2327273 145.055418,27.8586182 126.782255,20.4311273 L126.782255,20.4311273 C105.673891,11.8516364 78.5157818,10.4378182 59.1662545,17.2631273 L59.1662545,17.2631273 L59.1662545,0.290327273" id="path-61"></path>
        <path d="M3.47112727,0.0139636364 C3.74050909,0.158836364 4.02734545,1.23461818 4.12509091,3.06734545 C3.584,4.57716364 3.0208,6.67170909 2.60130909,9.35330909 C2.22370909,12.0192 2.12072727,14.2039273 2.21556364,15.8062545 C1.58370909,17.4912 1.00072727,18.4465455 0.703418182,18.5355636 C0.16,18.1963636 -0.392145455,14.6874182 0.478836364,9.024" id="path-63"></path>
        <linearGradient x1="48.0034642%" y1="100.751393%" x2="51.4071859%" y2="-1.34658133%" id="linearGradient-65">
            <stop stop-color="#FFFFFF" offset="0%"></stop>
            <stop stop-color="#B6B6B6" offset="100%"></stop>
        </linearGradient>
        <path d="M0,0.290327273 L0,45.0705455 L33.4551273,45.0705455 C30.2644364,62.9666909 42.8485818,79.3873455 36.384,109.189818 L36.384,109.189818 C28.1658182,147.073745 47.0725818,159.194764 72.5707636,159.194764 L72.5707636,159.194764 C103.537455,159.194764 137.8624,162.790982 149.752436,94.9969455 L149.752436,94.9969455 C151.126109,87.1639273 151.9104,79.1924364 151.926109,71.488 L151.926109,71.488 L151.926109,71.0225455 C151.880727,48.2327273 145.055418,27.8586182 126.782255,20.4311273 L126.782255,20.4311273 C105.673891,11.8516364 78.5157818,10.4378182 59.1662545,17.2631273 L59.1662545,17.2631273 L59.1662545,0.290327273 L0,0.290327273 Z" id="path-66"></path>
        <path d="M0,0.290327273 L0,45.0705455 L33.4551273,45.0705455 C30.2644364,62.9666909 42.8485818,79.3873455 36.384,109.189818 L36.384,109.189818 C28.1658182,147.073745 47.0725818,159.194764 72.5707636,159.194764 L72.5707636,159.194764 C103.537455,159.194764 137.8624,162.790982 149.752436,94.9969455 L149.752436,94.9969455 C151.126109,87.1639273 151.9104,79.1924364 151.926109,71.488 L151.926109,71.488 L151.926109,71.0225455 C151.880727,48.2327273 145.055418,27.8586182 126.782255,20.4311273 L126.782255,20.4311273 C105.673891,11.8516364 78.5157818,10.4378182 59.1662545,17.2631273 L59.1662545,17.2631273 L59.1662545,0.290327273" id="path-68"></path>
        <path d="M0,0.290327273 L0,45.0705455 L33.4551273,45.0705455 C30.2644364,62.9666909 42.8485818,79.3873455 36.384,109.189818 L36.384,109.189818 C28.1658182,147.073745 47.0725818,159.194764 72.5707636,159.194764 L72.5707636,159.194764 C103.537455,159.194764 137.8624,162.790982 149.752436,94.9969455 L149.752436,94.9969455 C151.126109,87.1639273 151.9104,79.1924364 151.926109,71.488 L151.926109,71.488 L151.926109,71.0225455 C151.880727,48.2327273 145.055418,27.8586182 126.782255,20.4311273 L126.782255,20.4311273 C105.673891,11.8516364 78.5157818,10.4378182 59.1662545,17.2631273 L59.1662545,17.2631273 L59.1662545,0.290327273" id="path-70"></path>
        <path d="M0,0.290327273 L0,45.0705455 L33.4551273,45.0705455 C30.2644364,62.9666909 42.8485818,79.3873455 36.384,109.189818 L36.384,109.189818 C28.1658182,147.073745 47.0725818,159.194764 72.5707636,159.194764 L72.5707636,159.194764 C103.537455,159.194764 137.8624,162.790982 149.752436,94.9969455 L149.752436,94.9969455 C151.126109,87.1639273 151.9104,79.1924364 151.926109,71.488 L151.926109,71.488 L151.926109,71.0225455 C151.880727,48.2327273 145.055418,27.8586182 126.782255,20.4311273 L126.782255,20.4311273 C105.673891,11.8516364 78.5157818,10.4378182 59.1662545,17.2631273 L59.1662545,17.2631273 L59.1662545,0.290327273" id="path-72"></path>
        <path d="M0,0.290327273 L0,45.0705455 L33.4551273,45.0705455 C30.2644364,62.9666909 42.8485818,79.3873455 36.384,109.189818 L36.384,109.189818 C28.1658182,147.073745 47.0725818,159.194764 72.5707636,159.194764 L72.5707636,159.194764 C103.537455,159.194764 137.8624,162.790982 149.752436,94.9969455 L149.752436,94.9969455 C151.126109,87.1639273 151.9104,79.1924364 151.926109,71.488 L151.926109,71.488 L151.926109,71.0225455 C151.880727,48.2327273 145.055418,27.8586182 126.782255,20.4311273 L126.782255,20.4311273 C105.673891,11.8516364 78.5157818,10.4378182 59.1662545,17.2631273 L59.1662545,17.2631273 L59.1662545,0.290327273" id="path-74"></path>
        <path d="M3.47112727,0.0139636364 C3.74050909,0.158836364 4.02734545,1.23461818 4.12509091,3.06734545 C3.584,4.57716364 3.0208,6.67170909 2.60130909,9.35330909 C2.22370909,12.0192 2.12072727,14.2039273 2.21556364,15.8062545 C1.58370909,17.4912 1.00072727,18.4465455 0.703418182,18.5355636 C0.16,18.1963636 -0.392145455,14.6874182 0.478836364,9.024" id="path-76"></path>
        <path d="M0,0.290327273 L0,45.0705455 L33.4551273,45.0705455 C30.2644364,62.9666909 42.8485818,79.3873455 36.384,109.189818 L36.384,109.189818 C28.1658182,147.073745 47.0725818,159.194764 72.5707636,159.194764 L72.5707636,159.194764 C103.537455,159.194764 137.8624,162.790982 149.752436,94.9969455 L149.752436,94.9969455 C151.126109,87.1639273 151.9104,79.1924364 151.926109,71.488 L151.926109,71.488 L151.926109,71.0225455 C151.880727,48.2327273 145.055418,27.8586182 126.782255,20.4311273 L126.782255,20.4311273 C105.673891,11.8516364 78.5157818,10.4378182 59.1662545,17.2631273 L59.1662545,17.2631273 L59.1662545,0.290327273" id="path-78"></path>
        <path d="M1.04785455,0.303709091 C0.382836364,0.303709091 0.0453818182,0.810472727 0.274036364,1.42196364 L0.274036364,1.42196364 L8.00523636,21.6273455 C8.256,22.2429091 8.97570909,22.7392 9.62967273,22.7392 L9.62967273,22.7392 L21.9735273,22.7392 L38.1666909,22.7392 L50.5972364,22.7392 C51.2081455,22.7392 51.7096727,22.2539636 51.7096727,21.6436364 L51.7096727,21.6436364 L51.7096727,21.2782545 C51.7096727,20.6568727 51.2081455,20.1664 50.5972364,20.1664 L50.5972364,20.1664 L38.3842909,20.1664 L31.2093091,1.42196364 C30.9696,0.810472727 30.2498909,0.303709091 29.5953455,0.303709091 L29.5953455,0.303709091 L1.04785455,0.303709091 Z" id="path-80"></path>
        <linearGradient x1="70.988584%" y1="50.0003703%" x2="159.616367%" y2="50.0003703%" id="linearGradient-82">
            <stop stop-color="#999999" offset="0%"></stop>
            <stop stop-color="#FFFFFF" offset="100%"></stop>
        </linearGradient>
        <path d="M0.859927273,0.303709091 C0.205381818,0.303709091 -0.143709091,0.810472727 0.0849454545,1.42196364 L0.0849454545,1.42196364 L7.82778182,21.6273455 C8.05643636,22.2429091 8.7872,22.7392 9.45221818,22.7392 L9.45221818,22.7392 L37.9781818,22.7392 C38.6327273,22.7392 38.9917091,22.2429091 38.7525818,21.6273455 L38.7525818,21.6273455 L31.0318545,1.42196364 C30.8026182,0.810472727 30.0613818,0.303709091 29.4074182,0.303709091 L29.4074182,0.303709091 L0.859927273,0.303709091 Z" id="path-83"></path>
        <linearGradient x1="68.8267275%" y1="92.8004636%" x2="26.9537286%" y2="-2.36992256%" id="linearGradient-85">
            <stop stop-color="#AFAFAF" offset="0%"></stop>
            <stop stop-color="#FFFFFF" offset="100%"></stop>
        </linearGradient>
        <path d="M0,0.290327273 L0,45.0705455 L33.4551273,45.0705455 C30.2644364,62.9666909 42.8485818,79.3873455 36.384,109.189818 L36.384,109.189818 C28.1658182,147.073745 47.0725818,159.194764 72.5707636,159.194764 L72.5707636,159.194764 C103.537455,159.194764 137.8624,162.790982 149.752436,94.9969455 L149.752436,94.9969455 C151.126109,87.1639273 151.9104,79.1924364 151.926109,71.488 L151.926109,71.488 L151.926109,71.0225455 C151.880727,48.2327273 145.055418,27.8586182 126.782255,20.4311273 L126.782255,20.4311273 C105.673891,11.8516364 78.5157818,10.4378182 59.1662545,17.2631273 L59.1662545,17.2631273 L59.1662545,0.290327273" id="path-86"></path>
        <path d="M16.7953455,0.303709091 C17.4498909,0.303709091 18.1696,0.811054545 18.4098909,1.42138182 L18.4098909,1.42138182 L25.5842909,20.1658182 L37.7972364,20.1658182 C38.4081455,20.1658182 38.9102545,20.6568727 38.9102545,21.2782545 L38.9102545,21.2782545 L38.9102545,21.6430545 C38.9102545,22.2539636 38.4081455,22.7392 37.7972364,22.7392 L37.7972364,22.7392 L9.97003636,22.7392 C9.32596364,22.7392 8.60625455,22.2429091 8.35549091,21.6273455 L8.35549091,21.6273455 L0.635345455,1.42138182 C0.395636364,0.811054545 0.744145455,0.303709091 1.39869091,0.303709091 L1.39869091,0.303709091" id="path-88"></path>
        <linearGradient x1="152.228825%" y1="50.0003703%" x2="-21.1809206%" y2="50.0003703%" id="linearGradient-90">
            <stop stop-color="#C3C3C3" offset="0%"></stop>
            <stop stop-color="#FFFFFF" offset="100%"></stop>
        </linearGradient>
        <path d="M0,0.290327273 L0,45.0705455 L33.4551273,45.0705455 C30.2644364,62.9666909 42.8485818,79.3873455 36.384,109.189818 L36.384,109.189818 C28.1658182,147.073745 47.0725818,159.194764 72.5707636,159.194764 L72.5707636,159.194764 C103.537455,159.194764 137.8624,162.790982 149.752436,94.9969455 L149.752436,94.9969455 C151.126109,87.1639273 151.9104,79.1924364 151.926109,71.488 L151.926109,71.488 L151.926109,71.0225455 C151.880727,48.2327273 145.055418,27.8586182 126.782255,20.4311273 L126.782255,20.4311273 C105.673891,11.8516364 78.5157818,10.4378182 59.1662545,17.2631273 L59.1662545,17.2631273 L59.1662545,0.290327273" id="path-91"></path>
        <path d="M0,0.290327273 L0,45.0705455 L33.4551273,45.0705455 C30.2644364,62.9666909 42.8485818,79.3873455 36.384,109.189818 L36.384,109.189818 C28.1658182,147.073745 47.0725818,159.194764 72.5707636,159.194764 L72.5707636,159.194764 C103.537455,159.194764 137.8624,162.790982 149.752436,94.9969455 L149.752436,94.9969455 C151.126109,87.1639273 151.9104,79.1924364 151.926109,71.488 L151.926109,71.488 L151.926109,71.0225455 C151.880727,48.2327273 145.055418,27.8586182 126.782255,20.4311273 L126.782255,20.4311273 C105.673891,11.8516364 78.5157818,10.4378182 59.1662545,17.2631273 L59.1662545,17.2631273 L59.1662545,0.290327273 L0,0.290327273 Z" id="path-93"></path>
        <path d="M0,0.290327273 L0,45.0705455 L33.4551273,45.0705455 C30.2644364,62.9666909 42.8485818,79.3873455 36.384,109.189818 L36.384,109.189818 C28.1658182,147.073745 47.0725818,159.194764 72.5707636,159.194764 L72.5707636,159.194764 C103.537455,159.194764 137.8624,162.790982 149.752436,94.9969455 L149.752436,94.9969455 C151.126109,87.1639273 151.9104,79.1924364 151.926109,71.488 L151.926109,71.488 L151.926109,71.0225455 C151.880727,48.2327273 145.055418,27.8586182 126.782255,20.4311273 L126.782255,20.4311273 C105.673891,11.8516364 78.5157818,10.4378182 59.1662545,17.2631273 L59.1662545,17.2631273 L59.1662545,0.290327273" id="path-95"></path>
        <path d="M0,0.290327273 L0,45.0705455 L33.4551273,45.0705455 C30.2644364,62.9666909 42.8485818,79.3873455 36.384,109.189818 L36.384,109.189818 C28.1658182,147.073745 47.0725818,159.194764 72.5707636,159.194764 L72.5707636,159.194764 C103.537455,159.194764 137.8624,162.790982 149.752436,94.9969455 L149.752436,94.9969455 C151.126109,87.1639273 151.9104,79.1924364 151.926109,71.488 L151.926109,71.488 L151.926109,71.0225455 C151.880727,48.2327273 145.055418,27.8586182 126.782255,20.4311273 L126.782255,20.4311273 C105.673891,11.8516364 78.5157818,10.4378182 59.1662545,17.2631273 L59.1662545,17.2631273 L59.1662545,0.290327273" id="path-97"></path>
        <path d="M0,0.290327273 L0,45.0705455 L33.4551273,45.0705455 C30.2644364,62.9666909 42.8485818,79.3873455 36.384,109.189818 L36.384,109.189818 C28.1658182,147.073745 47.0725818,159.194764 72.5707636,159.194764 L72.5707636,159.194764 C103.537455,159.194764 137.8624,162.790982 149.752436,94.9969455 L149.752436,94.9969455 C151.126109,87.1639273 151.9104,79.1924364 151.926109,71.488 L151.926109,71.488 L151.926109,71.0225455 C151.880727,48.2327273 145.055418,27.8586182 126.782255,20.4311273 L126.782255,20.4311273 C105.673891,11.8516364 78.5157818,10.4378182 59.1662545,17.2631273 L59.1662545,17.2631273 L59.1662545,0.290327273 L0,0.290327273 Z" id="path-99"></path>
    </defs>
    <g id="vip" stroke="none" stroke-width="1" fill="none" fill-rule="evenodd">
        <g id="vip2-2-mobile" transform="translate(-320.000000, -1562.000000)">
            <g id="features" transform="translate(0.000000, 760.000000)">
                <g id="Group-2-Copy" transform="translate(36.000000, 789.000000)">
                    <g id="img-careerchange" transform="translate(273.000000, 0.000000)">
                        <path d="M36.3837673,109.482007 C44.4320582,72.3806255 22.9519127,56.0198982 39.1450764,31.7313164 C53.0388945,10.8917527 96.2441309,8.31080727 126.782604,20.7233164 C151.348713,30.70848 155.223622,64.0943709 149.752204,95.2891345 C137.862167,163.082589 103.537804,159.486953 72.5711127,159.486953 C47.0723491,159.486953 28.1655855,147.365935 36.3837673,109.482007" id="Fill-1" fill="#7373E5"></path>
                        <g id="Group-45" transform="translate(0.000000, 0.292073)">
                            <g id="Group-5">
                                <mask id="mask-2" fill="white">
                                    <use xlink:href="#path-1"></use>
                                </mask>
                                <g id="Clip-4"></g>
                                <path d="M80.0702836,137.170676 C79.9626473,133.32544 82.9991564,130.110895 86.8473018,129.975331 C86.8688291,129.972422 86.8903564,129.970095 86.9118836,129.967767 C90.7751564,129.874095 107.220247,132.526604 107.310475,136.406749 C107.332538,136.700567 99.3883927,175.619549 98.3713745,183.571258 C98.8187927,190.01664 99.2662109,193.477876 99.9248291,202.358749 C100.582865,211.23904 98.37312,234.47104 98.37312,234.47104 C98.37312,234.47104 97.8308655,235.108713 93.8500655,235.424058 C89.8582109,235.740567 89.1833018,233.759476 89.1833018,233.759476 C89.1833018,233.759476 88.2884655,230.524567 86.8822109,218.920204 C85.4753745,207.315258 81.0727564,178.529804 81.0727564,178.529804 C78.5401018,152.193222 80.0830836,137.476713 80.0702836,137.170676" id="Fill-3" fill="#252740" mask="url(#mask-2)"></path>
                            </g>
                            <g id="Group-8">
                                <mask id="mask-4" fill="white">
                                    <use xlink:href="#path-3"></use>
                                </mask>
                                <g id="Clip-7"></g>
                                <path d="M72.9847273,254.904844 C72.4023273,253.742371 72.2929455,252.969716 72.3831273,252.317498 C72.9911273,252.06208 73.7498182,252.365207 74.3671273,253.162298 C75.8845091,255.118371 74.3287273,256.590371 83.9351273,254.883898 C93.5304727,253.178589 94.2624,249.962298 93.4304,238.583098 C92.6082909,227.202153 91.1386182,190.61568 89.9284364,172.72768 C88.7182545,154.839098 91.0455273,143.451753 86.7621818,142.841425 C84.2632727,142.483607 81.6433455,141.162298 79.8775273,140.112116 C79.984,138.245062 80.0788364,137.246662 80.0701091,137.170444 C79.9624727,133.325207 82.9995636,130.110662 86.8471273,129.975098 L86.9117091,129.967535 C90.7749818,129.874444 107.220655,132.526371 107.310301,136.407098 C107.332364,136.700335 99.3882182,175.619316 98.3712,183.571025 C98.8186182,190.016989 99.2666182,193.477644 99.9246545,202.358516 C100.582691,211.238807 98.3735273,234.470807 98.3735273,234.470807 C98.3735273,234.470807 98.2949818,234.556335 98.0232727,234.675607 C97.8033455,238.245062 97.6288,240.766662 97.5851636,241.441571 C97.5874909,241.463098 97.7137455,242.765789 98.0343273,244.430371 C98.8919273,246.857135 99.7378909,246.475462 100.3424,251.795025 C100.482618,253.030807 95.8513455,254.961862 87.2206545,256.656116 C78.5765818,258.335244 74.6772364,258.306735 72.9847273,254.904844" id="Fill-6" fill="#1A1C30" mask="url(#mask-4)"></path>
                            </g>
                            <g id="Group-11">
                                <mask id="mask-6" fill="white">
                                    <use xlink:href="#path-5"></use>
                                </mask>
                                <g id="Clip-10"></g>
                                <path d="M99.3281164,129.615593 L99.3909527,129.591738 C103.103535,128.55552 119.70688,127.095738 120.746589,130.835665 C120.843753,131.114938 122.587462,171.171956 123.557353,179.127738 C124.879244,183.806138 125.695535,186.348102 128.951971,194.14272 C132.207825,201.937338 136.693644,224.40832 136.693644,224.40832 C136.693644,224.40832 137.941062,226.11072 133.475025,227.759593 C129.008989,229.407884 127.161135,227.340684 127.161135,227.340684 L105.629789,178.103738 C96.7186618,153.194356 94.6142255,138.546502 94.5257891,138.249193 C93.47968,134.548829 95.6306618,130.689047 99.3281164,129.615593" id="Fill-9" fill="#252740" mask="url(#mask-6)"></path>
                            </g>
                            <g id="Group-14">
                                <mask id="mask-8" fill="white">
                                    <use xlink:href="#path-7"></use>
                                </mask>
                                <g id="Clip-13"></g>
                                <path d="M117.441513,248.907753 C119.054895,250.743971 121.460131,249.504698 129.721949,248.039098 C137.983767,246.572916 136.896349,247.04768 133.64224,232.316625 C130.386967,217.585571 118.910022,189.214953 115.441222,179.84768 C111.984058,170.478662 109.307695,140.273571 109.307695,140.273571 C109.51424,135.717353 109.906385,131.826153 110.431767,128.435316 C115.405149,128.35328 120.205731,128.883316 120.74624,130.835898 C120.843985,131.115171 122.587695,171.172189 123.557585,179.127971 C124.879476,183.806371 125.695185,186.347753 128.951622,194.142953 C132.208058,201.937571 136.693876,224.407971 136.693876,224.407971 C136.693876,224.407971 137.207622,225.162007 136.26624,226.147025 C136.805585,228.478371 137.266385,230.505425 137.60384,232.025716 C137.618967,232.062371 137.675985,232.083316 137.679476,232.115316 C137.742313,232.476625 137.805731,232.842007 137.869149,233.207971 C138.127476,234.314589 138.282822,235.004625 138.282822,235.004625 C138.282822,235.004625 138.265949,235.149498 138.245585,235.261207 C138.580131,237.045644 138.951331,238.764335 139.354531,240.381207 C139.41504,240.335825 139.55584,240.221207 139.55584,240.221207 C140.318022,242.680553 141.177949,242.330298 141.576495,247.667898 C141.663185,248.909498 136.337804,250.337862 127.635549,251.694662 C118.94144,253.028189 115.036858,252.85248 113.489804,249.384262 C112.87424,248.022225 112.821876,247.178007 113.063913,246.502516 C114.490531,246.598516 116.622313,247.975098 117.441513,248.907753" id="Fill-12" fill="#1A1C30" mask="url(#mask-8)"></path>
                            </g>
                            <g id="Group-17">
                                <mask id="mask-10" fill="white">
                                    <use xlink:href="#path-9"></use>
                                </mask>
                                <g id="Clip-16"></g>
                                <path d="M51.7840291,51.2945455 C51.7840291,51.2945455 50.9142109,47.4039273 48.4950109,46.0104727 C46.3358836,44.7857455 43.0201018,42.6440727 44.7108655,39.9496727 C46.4062836,37.2930909 53.1105745,31.1973818 55.3209018,38.0907636 C57.5527564,44.9864727 58.9293382,50.6248727 59.8369745,53.1994182 C60.7754473,55.7652364 53.0151564,54.2053818 51.7840291,51.2945455" id="Fill-15" fill="#EEA687" mask="url(#mask-10)"></path>
                            </g>
                            <g id="Group-20">
                                <mask id="mask-12" fill="white">
                                    <use xlink:href="#path-11"></use>
                                </mask>
                                <g id="Clip-19"></g>
                                <path d="M98.0107055,64.7295418 C92.7842327,66.7339055 81.6051782,73.4312145 73.7151418,79.4262691 C73.1344873,78.17536 72.4845964,76.8063418 71.7759418,75.3005964 C65.72736,62.7362327 59.5472873,49.4021236 59.5472873,49.4021236 L58.6850327,49.4451782 C57.8594327,46.52096 56.7970327,42.5814691 55.32096,38.0909964 C53.1106327,31.1976145 46.4063418,37.2933236 44.7109236,39.9499055 C43.8015418,41.4085236 44.37696,42.7036509 45.4323782,43.7852509 C46.3371055,43.8253964 47.3878691,43.7055418 48.0336873,43.1115055 C49.3043782,41.9298327 52.64576,40.3373964 53.8291782,44.8557964 C55.0091055,49.3474327 62.0438691,66.0525964 66.2463418,75.0236509 C70.4936145,84.0069236 71.82656,86.0776145 78.0828509,81.5469964 C84.3600873,77.0035782 86.6704873,75.0341236 86.6704873,75.0341236 C86.6704873,75.0341236 83.3698327,81.4288873 84.6475055,91.69856 C87.9504873,90.0560873 93.3363782,87.1388509 98.6768873,83.2395055 C107.862051,76.5712873 106.401105,61.4992873 98.0107055,64.7295418" id="Fill-18" fill="#DB9079" mask="url(#mask-12)"></path>
                            </g>
                            <g id="Group-23">
                                <mask id="mask-14" fill="white">
                                    <use xlink:href="#path-13"></use>
                                </mask>
                                <g id="Clip-22"></g>
                                <path d="M98.0107055,64.7295418 C92.7842327,66.7339055 81.6051782,73.4312145 73.7151418,79.4262691 C73.1344873,78.17536 72.4845964,76.8063418 71.7759418,75.3005964 C65.72736,62.7362327 59.5472873,49.4021236 59.5472873,49.4021236 L50.5244509,49.86816 C50.5244509,49.86816 59.5891782,78.34816 61.0547782,83.3238691 C62.2533236,87.4018327 66.6908509,94.5797236 70.95616,95.0277236 C74.0083782,95.9039418 77.8291782,95.6339782 81.4399418,93.2211782 C81.4399418,93.2211782 90.1136873,89.4859055 98.6768873,83.2395055 C107.862051,76.5712873 106.401105,61.4992873 98.0107055,64.7295418" id="Fill-21" fill="#4B5487" mask="url(#mask-14)"></path>
                            </g>
                            <g id="Group-26">
                                <mask id="mask-16" fill="white">
                                    <use xlink:href="#path-15"></use>
                                </mask>
                                <g id="Clip-25"></g>
                                <path d="M97.3493527,84.1863564 C97.2073891,84.2858473 97.0654255,84.3847564 96.9240436,84.4825018 C96.7471709,84.6046836 96.57088,84.7257018 96.3945891,84.8455564 C96.2916073,84.9159564 96.1880436,84.9851927 96.0850618,85.0550109 C95.8849164,85.1899927 95.6841891,85.3249745 95.4852073,85.4570473 C95.4671709,85.4686836 95.4497164,85.48032 95.43168,85.4919564 C94.68288,85.9876655 93.9416436,86.4618473 93.2143709,86.9145018 C93.1707345,86.9418473 93.12768,86.9686109 93.0846255,86.9953745 C92.8629527,87.1326836 92.6436073,87.2682473 92.4248436,87.4014836 C92.3753891,87.4311564 92.3259345,87.4614109 92.27648,87.4910836 C92.0577164,87.62432 91.8401164,87.7558109 91.6242618,87.8849745 C91.6132073,87.8913745 91.6027345,87.8977745 91.59168,87.9041745 C91.2094255,88.1322473 90.8341527,88.3521745 90.4641164,88.5668655 C90.3448436,88.63552 90.2249891,88.70592 90.1074618,88.7734109 C89.9969164,88.8368291 89.8881164,88.8985018 89.7787345,88.9607564 C89.5908073,89.0678109 89.4040436,89.1742836 89.2201891,89.2772655 C89.1643345,89.3086836 89.10848,89.3401018 89.0526255,89.3709382 C87.3723345,90.3105745 85.8671709,91.0919564 84.6470982,91.6982109 C83.3700073,81.42912 86.6706618,75.0343564 86.6706618,75.0343564 C86.6706618,75.0343564 84.35968,77.0038109 78.0830255,81.5472291 C71.8267345,86.0778473 70.4937891,84.0065745 66.2465164,75.0238836 C63.0040436,68.1019927 58.0777891,56.5814109 55.4532073,49.6135564 L59.5474618,49.4023564 C59.5474618,49.4023564 65.7269527,62.7364655 71.7761164,75.3002473 C72.4847709,76.8059927 73.13408,78.1750109 73.7153164,79.4265018 C81.6047709,73.4314473 92.7838255,66.7341382 98.01088,64.7297745 C106.40128,61.4989382 107.862225,76.5709382 98.6770618,83.2397382 C98.38208,83.4550109 98.0870982,83.6656291 97.7926982,83.8750836 C97.6449164,83.9798109 97.4971345,84.0827927 97.3493527,84.1863564" id="Fill-24" fill="#3F446E" mask="url(#mask-16)"></path>
                            </g>
                            <g id="Group-29">
                                <mask id="mask-18" fill="white">
                                    <use xlink:href="#path-17"></use>
                                </mask>
                                <g id="Clip-28"></g>
                                <path d="M108.694633,64.2945164 C108.694633,64.2945164 102.498851,62.9848436 97.4306327,64.45568 C94.1491782,65.4214982 88.5741964,77.4901527 87.0707782,85.5023709 C80.4799418,120.78848 80.1640145,125.828771 79.6037236,134.129571 C79.04576,142.450735 111.207505,142.691607 122.157905,136.881571 C123.251724,127.390371 115.685178,113.829935 129.566196,84.0745891 C137.639505,66.7556073 113.110051,64.42368 108.694633,64.2945164" id="Fill-27" fill="#4B5487" mask="url(#mask-18)"></path>
                            </g>
                            <g id="Group-32">
                                <mask id="mask-20" fill="white">
                                    <use xlink:href="#path-19"></use>
                                </mask>
                                <g id="Clip-31"></g>
                                <path d="M79.6037236,134.129338 C79.6333964,133.71392 79.65376,133.311302 79.6851782,132.912756 C81.2147782,134.395811 83.7131055,137.069847 90.46976,138.101411 C101.449251,139.778211 108.076742,137.740684 107.84576,131.561193 C107.604887,125.382284 110.920669,119.507084 100.239069,120.25472 C93.0210327,120.762065 86.0828509,120.837702 81.0827055,119.913775 C82.0543418,113.20192 83.7840873,103.127738 87.0707782,85.5021382 C87.1539782,85.0762473 87.2866327,84.60032 87.3890327,84.1494109 C91.4710691,83.5646836 97.1379782,83.5082473 101.02336,83.4116655 C106.34176,83.2795927 109.499869,100.825484 111.813178,100.035375 C114.126487,99.2458473 114.198633,89.6406109 113.408524,83.17312 C112.617833,76.7056291 113.489978,75.2016291 104.862778,72.5881018 C98.6914327,70.7163927 97.2525964,66.8461382 96.9192145,64.7830109 C97.0838691,64.6870109 97.2712145,64.5014109 97.4306327,64.4554473 C102.498851,62.9851927 108.694633,64.2942836 108.694633,64.2942836 C113.110051,64.4234473 137.639505,66.7553745 129.566196,84.0743564 C115.685178,113.829702 123.251724,127.390138 122.157905,136.881338 C111.206924,142.691375 79.04576,142.451084 79.6037236,134.129338" id="Fill-30" fill="#3F446E" mask="url(#mask-20)"></path>
                            </g>
                            <g id="Group-35">
                                <mask id="mask-22" fill="white">
                                    <use xlink:href="#path-21"></use>
                                </mask>
                                <g id="Clip-34"></g>
                                <path d="M124.1632,39.6271127 C124.592,34.3215127 110.725527,26.8381673 106.744727,33.0461673 C102.463709,39.7940945 101.163345,51.0429673 103.901964,55.1540945 C104.180073,55.5730036 106.409018,57.1299491 108.657745,57.7908945 C108.372073,61.7472582 106.052364,63.3548218 106.052364,63.3548218 L101.515345,63.8924218 C101.515345,63.8924218 101.261673,66.5879855 107.395782,67.6468945 C113.543273,68.7209309 120.694982,66.2720582 120.694982,66.2720582 C120.694982,66.2720582 117.585164,65.2701673 117.450182,65.0496582 C117.328582,64.8500945 118.235055,60.5597673 118.889018,57.2370036 C123.404509,53.5191855 124.1632,39.6271127 124.1632,39.6271127" id="Fill-33" fill="#EEA687" mask="url(#mask-22)"></path>
                            </g>
                            <g id="Group-38">
                                <mask id="mask-24" fill="white">
                                    <use xlink:href="#path-23"></use>
                                </mask>
                                <g id="Clip-37"></g>
                                <path d="M106.744785,33.0464582 C106.130967,34.0163491 105.589295,35.1421673 105.092422,36.2749673 C105.344349,37.0418036 106.005295,38.3218036 107.742604,39.2218764 C110.368931,40.5967127 115.231185,42.8256582 115.316713,45.21984 C115.411549,47.5959855 119.127622,44.0847127 119.569222,45.6474764 C119.976495,47.2032582 116.720058,47.3324218 116.24064,51.0298764 C115.726895,54.7156945 115.099113,58.6557673 109.489804,56.90624 C106.108276,55.8304582 104.384931,54.8634764 103.321367,53.9034764 C103.501731,54.3328582 103.654167,54.8041309 103.902022,55.1543855 C104.180131,55.5727127 106.409076,57.1296582 108.657804,57.7906036 C111.804276,58.7284945 113.727185,58.2682764 112.850385,60.2115491 C112.013149,62.01344 109.173295,62.5172945 107.494167,61.6544582 C106.780858,62.8111127 106.052422,63.3545309 106.052422,63.3545309 L101.514822,63.8921309 C101.514822,63.8921309 101.261731,66.5876945 107.39584,67.6466036 C113.543331,68.72064 120.69504,66.2723491 120.69504,66.2723491 C120.69504,66.2723491 117.585222,65.2704582 117.45024,65.0493673 C117.32864,64.8498036 118.235113,60.5594764 118.889076,57.2367127 C123.404567,53.5194764 124.163258,39.6274036 124.163258,39.6274036 C124.592058,34.3212218 110.725585,26.8378764 106.744785,33.0464582" id="Fill-36" fill="#DB9079" mask="url(#mask-24)"></path>
                            </g>
                            <g id="Group-41">
                                <mask id="mask-26" fill="white">
                                    <use xlink:href="#path-25"></use>
                                </mask>
                                <g id="Clip-40"></g>
                                <path d="M104.618356,34.5175855 C105.424756,36.3956945 108.059811,37.1823127 111.760756,38.4576582 C115.759011,39.8412218 117.157702,40.7529309 117.157702,40.7529309 L117.517847,43.9220945 C117.517847,43.9220945 120.930793,42.8585309 121.460247,44.3293673 C122.753629,47.7935127 118.047302,49.2556218 118.047302,49.2556218 C118.047302,49.2556218 115.852684,51.9628218 117.085556,55.4717673 C118.331811,59.0016582 117.795956,62.7828945 117.795956,62.7828945 C117.795956,62.7828945 121.063447,53.4836945 124.337338,50.3296582 C127.619956,47.1575855 132.566575,36.8943127 124.972102,30.81024 C117.366575,24.7279127 109.462575,27.3164218 108.415302,25.72864 C107.358138,24.1530764 102.612829,29.9107491 104.618356,34.5175855" id="Fill-39" fill="#252740" mask="url(#mask-26)"></path>
                            </g>
                            <g id="Group-44">
                                <mask id="mask-28" fill="white">
                                    <use xlink:href="#path-27"></use>
                                </mask>
                                <g id="Clip-43"></g>
                                <path d="M124.972044,30.8100655 C117.366516,24.7277382 109.462516,27.3162473 108.415244,25.7290473 C108.230225,25.4532655 107.913135,25.4625745 107.554153,25.5905745 C107.637935,26.6128291 108.793425,28.2814836 115.070662,29.1478109 C124.493207,30.4586473 127.657716,38.4121018 122.759389,46.4918109 C120.677644,49.9001018 118.644771,52.7707927 116.980771,55.0288291 C117.029644,55.1707927 117.04768,55.3284655 117.085498,55.4721745 C118.331753,59.0014836 117.795898,62.78272 117.795898,62.78272 C117.795898,62.78272 121.063389,53.48352 124.33728,50.3294836 C127.62048,47.1574109 132.566516,36.8941382 124.972044,30.8100655" id="Fill-42" fill="#1A1C30" mask="url(#mask-28)"></path>
                            </g>
                        </g>
                        <g id="Group-48" transform="translate(89.600000, 35.782982)">
                            <mask id="mask-30" fill="white">
                                <use xlink:href="#path-29"></use>
                            </mask>
                            <g id="Clip-47"></g>
                            <path d="M0.200727273,2.87301818 C0.0133818182,4.21643636 0.0890181818,5.36029091 0.392145455,5.42487273 L0.392145455,5.42487273 L8.67607273,6.66181818 C8.98967273,6.71941818 9.38356364,5.64305455 9.59010909,4.28043636 L9.59010909,4.28043636 C9.80887273,2.91665455 9.71403636,1.79141818 9.41149091,1.73847273 L9.41149091,1.73847273 L1.13687273,0.483490909 C1.13163636,0.482909091 1.1264,0.482909091 1.12116364,0.482909091 L1.12116364,0.482909091 C0.801745455,0.482909091 0.403781818,1.52727273 0.200727273,2.87301818" id="Fill-46" fill="url(#linearGradient-31)" mask="url(#mask-30)"></path>
                        </g>
                        <g id="Group-51" transform="translate(82.618182, 34.037527)">
                            <mask id="mask-33" fill="white">
                                <use xlink:href="#path-32"></use>
                            </mask>
                            <g id="Clip-50"></g>
                            <path d="M0.227490909,3.57643636 C-0.0826181818,5.58138182 0.0104727273,7.27156364 0.458472727,7.34778182 L0.458472727,7.34778182 L12.7941818,9.18749091 C13.2410182,9.25789091 13.8513455,7.67418182 14.1602909,5.6576 L14.1602909,5.6576 C14.4570182,3.63752727 14.3313455,1.95607273 13.8845091,1.8816 L13.8845091,1.8816 L1.58021818,0.0314181818 C1.57090909,0.0296727273 1.5616,0.0290909091 1.55170909,0.0290909091 L1.55170909,0.0290909091 C1.11767273,0.0290909091 0.516072727,1.58952727 0.227490909,3.57643636" id="Fill-49" fill="url(#linearGradient-34)" mask="url(#mask-33)"></path>
                        </g>
                        <g id="Group-54" transform="translate(0.000000, 0.292073)">
                            <mask id="mask-36" fill="white">
                                <use xlink:href="#path-35"></use>
                            </mask>
                            <g id="Clip-53"></g>
                            <path d="M84.1985164,33.7768145 L96.5022255,35.6264145 C96.9496436,35.7014691 97.0753164,37.3829236 96.7785891,39.4029964 C96.4696436,41.4195782 95.8593164,43.0032873 95.41248,42.9334691 L83.0761891,41.0925964 C82.6287709,41.01696 82.53568,39.3267782 82.8457891,37.3218327 C83.1413527,35.2907055 83.7621527,33.7058327 84.1985164,33.7768145" id="Fill-52" fill="#D44040" mask="url(#mask-36)"></path>
                        </g>
                        <g id="Group-57" transform="translate(65.745455, 29.964800)">
                            <mask id="mask-38" fill="white">
                                <use xlink:href="#path-37"></use>
                            </mask>
                            <g id="Clip-56"></g>
                            <path d="M0.795927273,5.1776 C0.384,7.92436364 0.534690909,10.2173091 1.13570909,10.2917818 L1.13570909,10.2917818 L17.8850909,12.8221091 C18.4663273,12.9093818 19.3099636,10.7776 19.7230545,8.03665455 L19.7230545,8.03665455 C20.1146182,5.30327273 19.9627636,2.99927273 19.3704727,2.90734545 L19.3704727,2.90734545 L2.64378182,0.380509091 C2.6304,0.378181818 2.6176,0.3776 2.60421818,0.3776 L2.60421818,0.3776 C1.99330909,0.3776 1.17934545,2.5024 0.795927273,5.1776" id="Fill-55" fill="url(#linearGradient-39)" mask="url(#mask-38)"></path>
                        </g>
                        <g id="Group-60" transform="translate(0.000000, 0.292073)">
                            <mask id="mask-41" fill="white">
                                <use xlink:href="#path-40"></use>
                            </mask>
                            <g id="Clip-59"></g>
                            <path d="M68.3887709,30.0531782 L85.1160436,32.5800145 C85.7077527,32.6719418 85.8601891,34.9759418 85.4686255,37.7093236 C85.0555345,40.4502691 84.2113164,42.5820509 83.6306618,42.4947782 L66.88128,39.9644509 C66.2802618,39.8899782 66.1295709,37.5970327 66.5414982,34.8502691 C66.9330618,32.1174691 67.7743709,29.9583418 68.3887709,30.0531782" id="Fill-58" fill="#D44040" mask="url(#mask-41)"></path>
                        </g>
                        <g id="Group-63" transform="translate(41.890909, 24.146618)">
                            <mask id="mask-43" fill="white">
                                <use xlink:href="#path-42"></use>
                            </mask>
                            <g id="Clip-62"></g>
                            <path d="M0.432290909,7.35069091 C-0.180945455,11.4152727 0.0610909091,14.8002909 0.955927273,14.9457455 L0.955927273,14.9457455 L25.7088,18.6682182 C26.6146909,18.8171636 27.8231273,15.6346182 28.448,11.5741091 L28.448,11.5741091 C29.0513455,7.52232727 28.8285091,4.11170909 27.9237818,3.97381818 L27.9237818,3.97381818 L3.1808,0.245527273 C3.16334545,0.242618182 3.14530909,0.241454545 3.12785455,0.241454545 L3.12785455,0.241454545 C2.24930909,0.241454545 1.03505455,3.37745455 0.432290909,7.35069091" id="Fill-61" fill="url(#linearGradient-44)" mask="url(#mask-43)"></path>
                        </g>
                        <g id="Group-66" transform="translate(0.000000, 0.292073)">
                            <mask id="mask-46" fill="white">
                                <use xlink:href="#path-45"></use>
                            </mask>
                            <g id="Clip-65"></g>
                            <path d="M45.0715345,24.0997236 L69.8150982,27.8285964 C70.7192436,27.9664873 70.9426618,31.3765236 70.3387345,35.4283055 C69.7138618,39.4893964 68.5060073,42.6719418 67.6001164,42.5224145 L42.84608,38.8005236 C41.9518255,38.6550691 41.7097891,35.2694691 42.3236073,31.2054691 C42.9380073,27.1519418 44.1894982,23.9693964 45.0715345,24.0997236" id="Fill-64" fill="#D44040" mask="url(#mask-46)"></path>
                        </g>
                        <g id="Group-69" transform="translate(14.545455, 17.746618)">
                            <mask id="mask-48" fill="white">
                                <use xlink:href="#path-47"></use>
                            </mask>
                            <g id="Clip-68"></g>
                            <path d="M0.0337454545,19.6922182 L30.5483636,24.224 C31.7434182,24.4061091 33.3899636,20.1588364 34.1975273,14.7165091 L34.1975273,14.7165091 C35.0289455,9.28290909 34.7211636,4.74123636 33.5156364,4.56029091 L33.5156364,4.56029091 L2.97716364,0.0151272727 L0.0337454545,19.6922182 Z" id="Fill-67" fill="url(#linearGradient-49)" mask="url(#mask-48)"></path>
                        </g>
                        <g id="Group-72" transform="translate(0.000000, 0.292073)">
                            <mask id="mask-51" fill="white">
                                <use xlink:href="#path-50"></use>
                            </mask>
                            <g id="Clip-71"></g>
                            <path d="M48.0609745,22.0146618 C49.2665018,22.1961891 49.5742836,26.73728 48.7434473,32.17088 C47.9353018,37.6132073 46.2893382,41.86048 45.0937018,41.6783709 L14.5790836,37.1471709 L17.5225018,17.4694982 L48.0609745,22.0146618 Z" id="Fill-70" fill="#D44040" mask="url(#mask-51)"></path>
                        </g>
                        <g id="Group-75" transform="translate(11.054545, 15.419345)">
                            <mask id="mask-53" fill="white">
                                <use xlink:href="#path-52"></use>
                            </mask>
                            <g id="Clip-74"></g>
                            <path d="M0.931490909,11.5648 C0.254836364,15.9441455 -0.336872727,23.3856 3.21221818,23.9045818 L3.21221818,23.9045818 C6.78516364,24.4421818 8.41774545,17.1781818 9.08334545,12.8005818 L9.08334545,12.8005818 C9.73614545,8.40203636 10.2964364,0.974545455 6.75665455,0.444509091 L6.75665455,0.444509091 C6.63389091,0.425890909 6.51229091,0.416581818 6.3936,0.416581818 L6.3936,0.416581818 C3.10458182,0.416581818 1.55170909,7.33149091 0.931490909,11.5648 M3.52407273,22.0142545 C2.3168,21.8222545 1.98749091,17.2834909 2.81832727,11.8440727 L2.81832727,11.8440727 C3.61658182,6.41978182 5.27418182,2.17076364 6.46807273,2.3424 L6.46807273,2.3424 C7.67476364,2.5344 7.99243636,7.06385455 7.17265455,12.5021091 L7.17265455,12.5021091 C6.3808,17.8216727 4.77905455,22.0200727 3.60087273,22.0206545 L3.60087273,22.0206545 C3.57469091,22.0206545 3.54967273,22.0183273 3.52407273,22.0142545" id="Fill-73" fill="url(#linearGradient-54)" mask="url(#mask-53)"></path>
                        </g>
                        <g id="Group-111" transform="translate(0.000000, 0.292073)">
                            <g id="Group-82" transform="translate(12.218182, 15.127273)">
                                <g id="Group-78" transform="translate(0.000000, 1.745455)">
                                    <mask id="mask-56" fill="white">
                                        <use xlink:href="#path-55"></use>
                                    </mask>
                                    <g id="Clip-77"></g>
                                    <path d="M1.41090909,20.1245091 C0.205963636,19.9540364 -0.134981818,15.4053818 0.695272727,9.96596364 C1.50516364,4.54050909 3.14996364,0.282181818 4.36712727,0.461963636 C4.53410909,0.4864 4.65861818,0.614981818 4.79883636,0.786036364 C3.67592727,1.62734545 2.33949091,5.41149091 1.65410909,10.0986182 C0.949527273,14.8101818 1.08741818,18.8224 1.91592727,19.9348364 C1.74545455,20.0750545 1.56683636,20.1448727 1.41090909,20.1245091" id="Fill-76" fill="url(#linearGradient-57)" mask="url(#mask-56)"></path>
                                </g>
                                <g id="Group-81" transform="translate(1.163636, 0.000000)">
                                    <mask id="mask-59" fill="white">
                                        <use xlink:href="#path-58"></use>
                                    </mask>
                                    <g id="Clip-80"></g>
                                    <path d="M5.80829091,12.6667636 C6.41861818,8.48174545 6.9696,1.5488 3.94530909,0.432872727 C4.11054545,0.436363636 4.27461818,0.4288 4.42938182,0.443927273 C7.96916364,0.974545455 7.40829091,8.40203636 6.75607273,12.8005818 C6.09047273,17.1781818 4.45789091,24.4421818 0.884945455,23.9045818 C0.749381818,23.8760727 0.579490909,23.8295273 0.431127273,23.7800727 C3.64974545,23.6119273 5.17294545,16.832 5.80829091,12.6667636" id="Fill-79" fill="url(#linearGradient-60)" mask="url(#mask-59)"></path>
                                </g>
                            </g>
                            <g id="Group-85">
                                <mask id="mask-62" fill="white">
                                    <use xlink:href="#path-61"></use>
                                </mask>
                                <g id="Clip-84"></g>
                                <path d="M17.52256,17.4696145 C18.7292509,17.6616145 19.0469236,22.1910691 18.2271418,27.6287418 C17.4184145,33.0652509 15.7631418,37.33056 14.57856,37.1414691 C13.3712873,36.9494691 13.0419782,32.4107055 13.8728145,26.9712873 C14.6716509,21.5469964 16.3286691,17.2979782 17.52256,17.4696145" id="Fill-83" fill="#D3D3D3" mask="url(#mask-62)"></path>
                            </g>
                            <g id="Group-88" transform="translate(13.963636, 18.036364)">
                                <mask id="mask-64" fill="white">
                                    <use xlink:href="#path-63"></use>
                                </mask>
                                <g id="Clip-87"></g>
                                <path d="M3.47112727,0.0139636364 C3.74050909,0.158836364 4.02734545,1.23461818 4.12509091,3.06734545 C3.584,4.57716364 3.0208,6.67170909 2.60130909,9.35330909 C2.22370909,12.0192 2.12072727,14.2039273 2.21556364,15.8062545 C1.58370909,17.4912 1.00072727,18.4465455 0.703418182,18.5355636 C0.16,18.1963636 -0.392145455,14.6874182 0.478836364,9.024 C1.33352727,3.31869091 2.91258182,0.1216 3.47112727,0.0139636364" id="Fill-86" fill="url(#linearGradient-65)" mask="url(#mask-64)"></path>
                            </g>
                            <g id="Group-91">
                                <mask id="mask-67" fill="white">
                                    <use xlink:href="#path-66"></use>
                                </mask>
                                <g id="Clip-90"></g>
                                <path d="M85.02592,39.8007273 C85.0608291,39.7204364 85.0625745,39.6430545 85.1067927,39.5505455 L69.9771927,37.2692364 C70.0272291,37.0336 70.0900655,36.8119273 70.1284655,36.5722182 L48.5569745,33.3285818 C48.6233018,32.9474909 48.6791564,32.5681455 48.7431564,32.1707636 C48.7815564,32.0241455 48.7990109,31.8850909 48.8036655,31.7309091 L19.1897018,27.7937455 L12.4737745,23.9368727 C12.2550109,24.9056 12.0886109,25.8574545 11.9856291,26.6923636 C11.3450473,30.9024 10.8173382,37.8487273 13.9097018,38.8855273 C13.8881745,38.8884364 13.8474473,38.9146182 13.81312,38.9076364 C13.9614836,38.9570909 14.1313745,39.0030545 14.2669382,39.0315636 C15.3857745,39.2224 16.3085382,38.5579636 17.0683927,37.5170909 L45.0939927,41.6782545 C45.6315927,41.7707636 46.28672,40.8788364 46.8993745,39.4097455 L67.5998836,42.5224727 C68.0682473,42.5899636 68.6186473,41.7312 69.1382109,40.3168 L83.63072,42.4945455 C83.8878836,42.5370182 84.2177745,42.0605091 84.5278836,41.3117091 L95.4125382,42.9332364 C95.6254836,42.9745455 95.9280291,42.5451636 96.1659927,41.8376727 L98.2756655,42.1524364 C98.3751564,42.1576727 98.4921018,42.0290909 98.6020655,41.8353455 L85.02592,39.8007273 Z" id="Fill-89" fill="#B53030" mask="url(#mask-67)"></path>
                            </g>
                            <g id="Group-94">
                                <mask id="mask-69" fill="white">
                                    <use xlink:href="#path-68"></use>
                                </mask>
                                <g id="Clip-93"></g>
                                <path d="M17.8113745,15.5713164 C14.2721745,15.0406982 12.6285382,22.3058618 11.9862109,26.6921891 C11.3095564,31.0709527 10.7178473,38.5129891 14.2669382,39.0319709 C17.8398836,39.5695709 19.4724655,32.3049891 20.1380655,27.9273891 C20.7902836,23.5294255 21.3511564,16.1019345 17.8113745,15.5713164 M17.5227927,17.4697891 C18.7294836,17.6617891 19.0471564,22.1912436 18.2273745,27.6289164 C17.4186473,33.0654255 15.7627927,37.3307345 14.5782109,37.1416436 C13.37152,36.9496436 13.0422109,32.41088 13.8724655,26.9714618 C14.6713018,21.5471709 16.3289018,17.2981527 17.5227927,17.4697891" id="Fill-92" fill="#252740" mask="url(#mask-69)"></path>
                            </g>
                            <g id="Group-101">
                                <g id="Group-97">
                                    <mask id="mask-71" fill="white">
                                        <use xlink:href="#path-70"></use>
                                    </mask>
                                    <g id="Clip-96"></g>
                                    <path d="M13.6292073,36.9970618 C12.4242618,36.8265891 12.0833164,32.2779345 12.9135709,26.8390982 C13.7234618,21.4130618 15.3682618,17.1547345 16.5848436,17.3345164 C16.7524073,17.3595345 16.8769164,17.4881164 17.0171345,17.6585891 C15.8942255,18.4998982 14.5577891,22.2846255 13.8724073,26.9717527 C13.1678255,31.6827345 13.3051345,35.6949527 14.1342255,36.8073891 C13.9637527,36.9476073 13.7851345,37.0174255 13.6292073,36.9970618" id="Fill-95" fill="#1A1C30" mask="url(#mask-71)"></path>
                                </g>
                                <g id="Group-100">
                                    <mask id="mask-73" fill="white">
                                        <use xlink:href="#path-72"></use>
                                    </mask>
                                    <g id="Clip-99"></g>
                                    <path d="M19.1899345,27.7938036 C19.8002618,23.6087855 20.3512436,16.67584 17.3275345,15.5599127 C17.4921891,15.5639855 17.6562618,15.55584 17.8116073,15.5715491 C21.3508073,16.1015855 20.7905164,23.5290764 20.1377164,27.9276218 C19.4721164,32.3052218 17.8395345,39.5698036 14.2665891,39.0316218 C14.1316073,39.0031127 13.9617164,38.9565673 13.8133527,38.9071127 C17.0319709,38.7395491 18.5545891,31.9596218 19.1899345,27.7938036" id="Fill-98" fill="#1A1C30" mask="url(#mask-73)"></path>
                                </g>
                            </g>
                            <g id="Group-104">
                                <mask id="mask-75" fill="white">
                                    <use xlink:href="#path-74"></use>
                                </mask>
                                <g id="Clip-103"></g>
                                <path d="M17.52256,17.4696145 C18.7292509,17.6616145 19.0469236,22.1910691 18.2271418,27.6287418 C17.4184145,33.0652509 15.7631418,37.33056 14.57856,37.1414691 C13.3712873,36.9494691 13.0419782,32.4107055 13.8728145,26.9712873 C14.6716509,21.5469964 16.3286691,17.2979782 17.52256,17.4696145" id="Fill-102" fill="#D3D3D3" mask="url(#mask-75)"></path>
                            </g>
                            <g id="Group-107" transform="translate(13.963636, 18.036364)">
                                <mask id="mask-77" fill="white">
                                    <use xlink:href="#path-76"></use>
                                </mask>
                                <g id="Clip-106"></g>
                                <path d="M3.47112727,0.0139636364 C3.74050909,0.158836364 4.02734545,1.23461818 4.12509091,3.06734545 C3.584,4.57716364 3.0208,6.67170909 2.60130909,9.35330909 C2.22370909,12.0192 2.12072727,14.2039273 2.21556364,15.8062545 C1.58370909,17.4912 1.00072727,18.4465455 0.703418182,18.5355636 C0.16,18.1963636 -0.392145455,14.6874182 0.478836364,9.024 C1.33352727,3.31869091 2.91258182,0.1216 3.47112727,0.0139636364" id="Fill-105" fill="url(#linearGradient-65)" mask="url(#mask-77)"></path>
                            </g>
                            <g id="Group-110">
                                <mask id="mask-79" fill="white">
                                    <use xlink:href="#path-78"></use>
                                </mask>
                                <g id="Clip-109"></g>
                                <path d="M121.432495,66.0017455 C121.432495,66.0017455 113.36384,68.3947636 108.036131,66.8058182 C102.776495,65.2360727 102.936495,63.9392 101.858385,63.7221818 C100.779695,63.504 98.7735855,63.6226909 98.8242036,64.0666182 C98.8748218,64.5111273 99.8103855,68.8817455 107.049949,70.7808 C114.289513,72.6798545 125.787404,69.8475636 126.20864,69.1133091 C126.619404,68.3813818 125.694313,67.1909818 124.477149,66.5282909 C123.260567,65.8656 121.432495,66.0017455 121.432495,66.0017455" id="Fill-108" fill="#3F446E" mask="url(#mask-79)"></path>
                            </g>
                        </g>
                        <g id="Group-114" transform="translate(70.981818, 85.237527)">
                            <mask id="mask-81" fill="white">
                                <use xlink:href="#path-80"></use>
                            </mask>
                            <g id="Clip-113"></g>
                            <path d="M1.04785455,0.303709091 C0.382836364,0.303709091 0.0453818182,0.810472727 0.274036364,1.42196364 L0.274036364,1.42196364 L8.00523636,21.6273455 C8.256,22.2429091 8.97570909,22.7392 9.62967273,22.7392 L9.62967273,22.7392 L21.9735273,22.7392 L38.1666909,22.7392 L50.5972364,22.7392 C51.2081455,22.7392 51.7096727,22.2539636 51.7096727,21.6436364 L51.7096727,21.6436364 L51.7096727,21.2782545 C51.7096727,20.6568727 51.2081455,20.1664 50.5972364,20.1664 L50.5972364,20.1664 L38.3842909,20.1664 L31.2093091,1.42196364 C30.9696,0.810472727 30.2498909,0.303709091 29.5953455,0.303709091 L29.5953455,0.303709091 L1.04785455,0.303709091 Z" id="Fill-112" fill="url(#linearGradient-82)" mask="url(#mask-81)"></path>
                        </g>
                        <g id="Group-117" transform="translate(69.818182, 85.237527)">
                            <mask id="mask-84" fill="white">
                                <use xlink:href="#path-83"></use>
                            </mask>
                            <g id="Clip-116"></g>
                            <path d="M0.859927273,0.303709091 C0.205381818,0.303709091 -0.143709091,0.810472727 0.0849454545,1.42196364 L0.0849454545,1.42196364 L7.82778182,21.6273455 C8.05643636,22.2429091 8.7872,22.7392 9.45221818,22.7392 L9.45221818,22.7392 L37.9781818,22.7392 C38.6327273,22.7392 38.9917091,22.2429091 38.7525818,21.6273455 L38.7525818,21.6273455 L31.0318545,1.42196364 C30.8026182,0.810472727 30.0613818,0.303709091 29.4074182,0.303709091 L29.4074182,0.303709091 L0.859927273,0.303709091 Z" id="Fill-115" fill="url(#linearGradient-85)" mask="url(#mask-84)"></path>
                        </g>
                        <g id="Group-139" transform="translate(0.000000, 0.292073)">
                            <g id="Group-120">
                                <mask id="mask-87" fill="white">
                                    <use xlink:href="#path-86"></use>
                                </mask>
                                <g id="Clip-119"></g>
                                <path d="M92.0722036,95.9028364 C92.5411491,98.2528 91.6364218,100.389818 90.0765673,100.705745 C88.5172945,101.022255 86.8818036,99.3704727 86.4128582,97.0368 C85.9439127,94.6926545 86.8381673,92.5498182 88.4079127,92.2443636 C89.9671855,91.9278545 91.6032582,93.5796364 92.0722036,95.9028364" id="Fill-118" fill="#F5F5F5" mask="url(#mask-87)"></path>
                            </g>
                            <g id="Group-123" transform="translate(83.781818, 84.945455)">
                                <mask id="mask-89" fill="white">
                                    <use xlink:href="#path-88"></use>
                                </mask>
                                <g id="Clip-122"></g>
                                <path d="M38.9102545,21.6430545 L38.9102545,21.2782545 C38.9102545,20.6568727 38.4081455,20.1658182 37.7972364,20.1658182 L25.5842909,20.1658182 L18.4098909,1.42138182 C18.1696,0.811054545 17.4498909,0.303709091 16.7953455,0.303709091 L1.39869091,0.303709091 C0.744145455,0.303709091 0.395636364,0.811054545 0.635345455,1.42138182 L8.35549091,21.6273455 C8.60625455,22.2429091 9.32596364,22.7392 9.97003636,22.7392 L37.7972364,22.7392 C38.4081455,22.7392 38.9102545,22.2539636 38.9102545,21.6430545" id="Fill-121" fill="url(#linearGradient-90)" mask="url(#mask-89)"></path>
                            </g>
                            <g id="Group-126">
                                <mask id="mask-92" fill="white">
                                    <use xlink:href="#path-91"></use>
                                </mask>
                                <g id="Clip-125"></g>
                                <path d="M134.56448,106.840204 C134.56448,106.840204 132.256989,85.2751127 130.551098,75.3690764 C129.22688,67.7042036 117.151244,71.40864 117.468335,79.92704 C117.822662,89.0569309 122.876335,100.667113 123.810153,114.963549 C124.124916,119.838022 137.806953,120.151622 134.56448,106.840204" id="Fill-124" fill="#4B5487" mask="url(#mask-92)"></path>
                            </g>
                            <g id="Group-129">
                                <mask id="mask-94" fill="white">
                                    <use xlink:href="#path-93"></use>
                                </mask>
                                <g id="Clip-128"></g>
                                <path d="M92.5480145,107.414284 C92.5480145,107.414284 86.2603055,107.911738 84.2123055,106.31872 C81.9827782,104.600611 77.8978327,101.797411 76.1907782,102.739956 C74.4278691,103.702865 72.3414691,109.003811 73.8355782,111.627229 C75.3744873,114.202938 80.92096,115.156538 83.6700509,114.414138 C86.3743418,113.696756 91.0178327,114.585775 91.0178327,114.585775 L92.5480145,107.414284 Z" id="Fill-127" fill="#EEA687" mask="url(#mask-94)"></path>
                            </g>
                            <g id="Group-132">
                                <mask id="mask-96" fill="white">
                                    <use xlink:href="#path-95"></use>
                                </mask>
                                <g id="Clip-131"></g>
                                <path d="M76.1906618,102.740131 C76.4117527,102.620858 76.6642618,102.562676 76.9481891,102.555113 C76.7102255,103.246313 76.3140073,104.123695 75.7473164,105.208785 C73.5270982,109.507258 75.1806255,109.643404 80.1813527,110.619113 C82.5464436,111.080495 87.6222255,111.181731 93.8174255,111.237004 L93.6975709,115.331258 C89.7138618,115.025222 87.05088,114.823913 87.05088,114.823913 L87.2777891,114.159476 C86.0356073,114.101295 84.7142982,114.139113 83.6705164,114.413731 C80.9214255,115.156713 75.3743709,114.203113 73.8354618,111.627404 C72.3413527,109.003404 74.4277527,103.702458 76.1906618,102.740131" id="Fill-130" fill="#DB9079" mask="url(#mask-96)"></path>
                            </g>
                            <g id="Group-135">
                                <mask id="mask-98" fill="white">
                                    <use xlink:href="#path-97"></use>
                                </mask>
                                <g id="Clip-134"></g>
                                <path d="M87.05088,114.823622 L89.8633891,106.691549 C89.8633891,106.691549 103.07008,106.839331 116.326807,106.768931 C129.735389,106.715404 134.874589,103.331549 135.099753,110.549004 C135.160844,112.929222 133.528262,118.760785 128.668335,118.182458 C123.797935,117.608204 87.05088,114.823622 87.05088,114.823622" id="Fill-133" fill="#4B5487" mask="url(#mask-98)"></path>
                            </g>
                            <g id="Group-138">
                                <mask id="mask-100" fill="white">
                                    <use xlink:href="#path-99"></use>
                                </mask>
                                <g id="Clip-137"></g>
                                <path d="M88.3179055,111.160436 C95.9368145,111.326255 106.876742,111.194764 116.498851,111.683491 C130.70336,112.404945 129.213324,109.829236 127.257251,95.808 C126.122705,87.6258909 123.805905,78.4651636 122.079069,72.2402909 C124.657687,70.8718545 127.680815,70.848 129.365178,72.7418182 C129.387869,72.768 129.409978,72.7947636 129.432087,72.8215273 C129.533905,72.9413818 129.628742,73.0711273 129.719505,73.2061091 C129.756742,73.2625455 129.79456,73.3184 129.830051,73.3771636 C129.902196,73.4952727 129.96736,73.6215273 130.03136,73.7501091 C130.068596,73.8257455 130.106996,73.8990545 130.141324,73.9776 C130.199505,74.112 130.249542,74.2557091 130.298415,74.4 C130.32576,74.4802909 130.356596,74.5553455 130.381033,74.6385455 C130.447942,74.8689455 130.506124,75.1092364 130.550342,75.3652364 C130.550342,75.3664 130.550924,75.3675636 130.550924,75.3687273 C130.700451,76.2379636 130.855796,77.1717818 131.014633,78.1486545 C131.03616,78.2824727 131.058269,78.4168727 131.079796,78.5524364 C131.171724,79.1232 131.264815,79.7085091 131.359069,80.3042909 C131.427724,80.7418182 131.496378,81.1822545 131.565615,81.6296727 C131.790196,83.0784 132.016524,84.5742545 132.238778,86.0712727 C132.305687,86.5192727 132.372015,86.9672727 132.43776,87.4146909 C132.543651,88.1332364 132.647796,88.8477091 132.750778,89.5552 C133.323869,93.4999273 133.839942,97.1950545 134.194269,99.7672727 C134.251287,100.182691 134.185542,104.057018 134.233833,104.4096 C134.442124,105.928727 134.564305,106.840436 134.564305,106.840436 C134.564887,106.840436 134.564887,106.841018 134.564887,106.841018 C134.649251,107.187782 134.713833,107.518255 134.775505,107.8464 C134.905833,108.584145 134.974487,109.272436 135.008815,109.924073 C135.023942,110.153891 135.084451,110.297018 135.100031,110.548364 C135.100031,110.548364 135.100031,110.548945 135.100031,110.548945 C135.100031,110.549527 135.100031,110.550109 135.100031,110.550691 C135.10656,111.046982 135.032669,111.703855 134.881396,112.407855 C134.712669,113.335273 134.437469,114.140509 134.046487,114.821818 C133.204015,116.548073 131.808233,118.074182 129.645615,118.212073 C129.608378,118.2144 129.569396,118.212655 129.531578,118.213818 C129.412887,118.219055 129.294196,118.223127 129.170851,118.219636 C129.00736,118.214982 128.839796,118.202764 128.66816,118.1824 C128.440087,118.155055 128.141615,118.123636 127.780305,118.087564 C127.659869,118.075345 127.532451,118.063127 127.398633,118.049745 C126.190778,117.933382 124.43776,117.778618 122.329833,117.600582 C121.861469,117.561018 121.375651,117.520291 120.874124,117.4784 C119.871651,117.3952 118.806924,117.307345 117.697978,117.217164 C115.479505,117.036218 113.080669,116.844218 110.637033,116.650473 C103.609833,116.093673 96.2056145,115.522909 91.6075055,115.170909 C91.4079418,115.155782 91.2130327,115.140655 91.0245236,115.126109 C88.5669236,114.938764 87.0507055,114.823564 87.0507055,114.823564 L88.3179055,111.160436 Z" id="Fill-136" fill="#3F446E" mask="url(#mask-100)"></path>
                            </g>
                        </g>
                    </g>
                </g>
            </g>
        </g>
    </g>
</svg>