<?xml version="1.0" encoding="UTF-8"?>
<svg width="136px" height="169px" viewBox="0 0 136 169" version="1.1" xmlns="http://www.w3.org/2000/svg" xmlns:xlink="http://www.w3.org/1999/xlink">
    <!-- Generator: sketchtool 63.1 (101010) - https://sketch.com -->
    <title>CAABB4A8-9B0F-4ACA-9B7D-E36DEF004849@2x</title>
    <desc>Created with sketchtool.</desc>
    <defs>
        <path d="M24.13381,0.155017921 L24.13381,14.2666093 C10.112129,17.6230573 -0.833996416,29.7969247 0.235007168,78.5457204 L0.235007168,78.5457204 C2.02825448,160.28853 49.8581039,170.067681 81.7434301,169.220663 L81.7434301,169.220663 L81.7434301,172.379928 L135.393892,172.379928 L135.393892,121.209133 L126.622358,121.209133 C126.262097,110.80681 123.884742,101.72772 123.884742,90.9161505 L123.884742,90.9161505 C123.884742,70.4674265 140.56343,34.9776237 121.385233,14.2182437 L121.385233,14.2182437 C113.284616,5.44981004 105.624251,2.00965233 96.4254875,2.00965233 L96.4254875,2.00965233 C95.2671935,2.00965233 94.0847168,2.05677778 92.8842581,2.13986738 L92.8842581,2.13986738 L92.8842581,0.155017921" id="path-1"></path>
        <path d="M24.13381,0.155017921 L24.13381,14.2666093 C10.112129,17.6230573 -0.833996416,29.7969247 0.235007168,78.5457204 L0.235007168,78.5457204 C2.02825448,160.28853 49.8581039,170.067681 81.7434301,169.220663 L81.7434301,169.220663 L81.7434301,172.379928 L135.393892,172.379928 L135.393892,121.209133 L126.622358,121.209133 C126.262097,110.80681 123.884742,101.72772 123.884742,90.9161505 L123.884742,90.9161505 C123.884742,70.4674265 140.56343,34.9776237 121.385233,14.2182437 L121.385233,14.2182437 C113.284616,5.44981004 105.624251,2.00965233 96.4254875,2.00965233 L96.4254875,2.00965233 C95.2671935,2.00965233 94.0847168,2.05677778 92.8842581,2.13986738 L92.8842581,2.13986738 L92.8842581,0.155017921 L24.13381,0.155017921 Z" id="path-3"></path>
        <path d="M24.13381,0.155017921 L24.13381,14.2666093 C10.112129,17.6230573 -0.833996416,29.7969247 0.235007168,78.5457204 L0.235007168,78.5457204 C2.02825448,160.28853 49.8581039,170.067681 81.7434301,169.220663 L81.7434301,169.220663 L81.7434301,172.379928 L135.393892,172.379928 L135.393892,121.209133 L126.622358,121.209133 C126.262097,110.80681 123.884742,101.72772 123.884742,90.9161505 L123.884742,90.9161505 C123.884742,70.4674265 140.56343,34.9776237 121.385233,14.2182437 L121.385233,14.2182437 C113.284616,5.44981004 105.624251,2.00965233 96.4254875,2.00965233 L96.4254875,2.00965233 C95.2671935,2.00965233 94.0847168,2.05677778 92.8842581,2.13986738 L92.8842581,2.13986738 L92.8842581,0.155017921" id="path-5"></path>
        <path d="M24.13381,0.155017921 L24.13381,14.2666093 C10.112129,17.6230573 -0.833996416,29.7969247 0.235007168,78.5457204 L0.235007168,78.5457204 C2.02825448,160.28853 49.8581039,170.067681 81.7434301,169.220663 L81.7434301,169.220663 L81.7434301,172.379928 L135.393892,172.379928 L135.393892,121.209133 L126.622358,121.209133 C126.262097,110.80681 123.884742,101.72772 123.884742,90.9161505 L123.884742,90.9161505 C123.884742,70.4674265 140.56343,34.9776237 121.385233,14.2182437 L121.385233,14.2182437 C113.284616,5.44981004 105.624251,2.00965233 96.4254875,2.00965233 L96.4254875,2.00965233 C95.2671935,2.00965233 94.0847168,2.05677778 92.8842581,2.13986738 L92.8842581,2.13986738 L92.8842581,0.155017921" id="path-7"></path>
        <path d="M24.13381,0.155017921 L24.13381,14.2666093 C10.112129,17.6230573 -0.833996416,29.7969247 0.235007168,78.5457204 L0.235007168,78.5457204 C2.02825448,160.28853 49.8581039,170.067681 81.7434301,169.220663 L81.7434301,169.220663 L81.7434301,172.379928 L135.393892,172.379928 L135.393892,121.209133 L126.622358,121.209133 C126.262097,110.80681 123.884742,101.72772 123.884742,90.9161505 L123.884742,90.9161505 C123.884742,70.4674265 140.56343,34.9776237 121.385233,14.2182437 L121.385233,14.2182437 C113.284616,5.44981004 105.624251,2.00965233 96.4254875,2.00965233 L96.4254875,2.00965233 C95.2671935,2.00965233 94.0847168,2.05677778 92.8842581,2.13986738 L92.8842581,2.13986738 L92.8842581,0.155017921 L24.13381,0.155017921 Z" id="path-9"></path>
        <path d="M24.13381,0.155017921 L24.13381,14.2666093 C10.112129,17.6230573 -0.833996416,29.7969247 0.235007168,78.5457204 L0.235007168,78.5457204 C2.02825448,160.28853 49.8581039,170.067681 81.7434301,169.220663 L81.7434301,169.220663 L81.7434301,172.379928 L135.393892,172.379928 L135.393892,121.209133 L126.622358,121.209133 C126.262097,110.80681 123.884742,101.72772 123.884742,90.9161505 L123.884742,90.9161505 C123.884742,70.4674265 140.56343,34.9776237 121.385233,14.2182437 L121.385233,14.2182437 C113.284616,5.44981004 105.624251,2.00965233 96.4254875,2.00965233 L96.4254875,2.00965233 C95.2671935,2.00965233 94.0847168,2.05677778 92.8842581,2.13986738 L92.8842581,2.13986738 L92.8842581,0.155017921 L24.13381,0.155017921 Z" id="path-11"></path>
        <path d="M24.13381,0.155017921 L24.13381,14.2666093 C10.112129,17.6230573 -0.833996416,29.7969247 0.235007168,78.5457204 L0.235007168,78.5457204 C2.02825448,160.28853 49.8581039,170.067681 81.7434301,169.220663 L81.7434301,169.220663 L81.7434301,172.379928 L135.393892,172.379928 L135.393892,121.209133 L126.622358,121.209133 C126.262097,110.80681 123.884742,101.72772 123.884742,90.9161505 L123.884742,90.9161505 C123.884742,70.4674265 140.56343,34.9776237 121.385233,14.2182437 L121.385233,14.2182437 C113.284616,5.44981004 105.624251,2.00965233 96.4254875,2.00965233 L96.4254875,2.00965233 C95.2671935,2.00965233 94.0847168,2.05677778 92.8842581,2.13986738 L92.8842581,2.13986738 L92.8842581,0.155017921" id="path-13"></path>
        <path d="M24.13381,0.155017921 L24.13381,14.2666093 C10.112129,17.6230573 -0.833996416,29.7969247 0.235007168,78.5457204 L0.235007168,78.5457204 C2.02825448,160.28853 49.8581039,170.067681 81.7434301,169.220663 L81.7434301,169.220663 L81.7434301,172.379928 L135.393892,172.379928 L135.393892,121.209133 L126.622358,121.209133 C126.262097,110.80681 123.884742,101.72772 123.884742,90.9161505 L123.884742,90.9161505 C123.884742,70.4674265 140.56343,34.9776237 121.385233,14.2182437 L121.385233,14.2182437 C113.284616,5.44981004 105.624251,2.00965233 96.4254875,2.00965233 L96.4254875,2.00965233 C95.2671935,2.00965233 94.0847168,2.05677778 92.8842581,2.13986738 L92.8842581,2.13986738 L92.8842581,0.155017921" id="path-15"></path>
        <path d="M24.13381,0.155017921 L24.13381,14.2666093 C10.112129,17.6230573 -0.833996416,29.7969247 0.235007168,78.5457204 L0.235007168,78.5457204 C2.02825448,160.28853 49.8581039,170.067681 81.7434301,169.220663 L81.7434301,169.220663 L81.7434301,172.379928 L135.393892,172.379928 L135.393892,121.209133 L126.622358,121.209133 C126.262097,110.80681 123.884742,101.72772 123.884742,90.9161505 L123.884742,90.9161505 C123.884742,70.4674265 140.56343,34.9776237 121.385233,14.2182437 L121.385233,14.2182437 C113.284616,5.44981004 105.624251,2.00965233 96.4254875,2.00965233 L96.4254875,2.00965233 C95.2671935,2.00965233 94.0847168,2.05677778 92.8842581,2.13986738 L92.8842581,2.13986738 L92.8842581,0.155017921 L24.13381,0.155017921 Z" id="path-17"></path>
        <path d="M24.13381,0.155017921 L24.13381,14.2666093 C10.112129,17.6230573 -0.833996416,29.7969247 0.235007168,78.5457204 L0.235007168,78.5457204 C2.02825448,160.28853 49.8581039,170.067681 81.7434301,169.220663 L81.7434301,169.220663 L81.7434301,172.379928 L135.393892,172.379928 L135.393892,121.209133 L126.622358,121.209133 C126.262097,110.80681 123.884742,101.72772 123.884742,90.9161505 L123.884742,90.9161505 C123.884742,70.4674265 140.56343,34.9776237 121.385233,14.2182437 L121.385233,14.2182437 C113.284616,5.44981004 105.624251,2.00965233 96.4254875,2.00965233 L96.4254875,2.00965233 C95.2671935,2.00965233 94.0847168,2.05677778 92.8842581,2.13986738 L92.8842581,2.13986738 L92.8842581,0.155017921" id="path-19"></path>
        <path d="M24.13381,0.155017921 L24.13381,14.2666093 C10.112129,17.6230573 -0.833996416,29.7969247 0.235007168,78.5457204 L0.235007168,78.5457204 C2.02825448,160.28853 49.8581039,170.067681 81.7434301,169.220663 L81.7434301,169.220663 L81.7434301,172.379928 L135.393892,172.379928 L135.393892,121.209133 L126.622358,121.209133 C126.262097,110.80681 123.884742,101.72772 123.884742,90.9161505 L123.884742,90.9161505 C123.884742,70.4674265 140.56343,34.9776237 121.385233,14.2182437 L121.385233,14.2182437 C113.284616,5.44981004 105.624251,2.00965233 96.4254875,2.00965233 L96.4254875,2.00965233 C95.2671935,2.00965233 94.0847168,2.05677778 92.8842581,2.13986738 L92.8842581,2.13986738 L92.8842581,0.155017921" id="path-21"></path>
        <path d="M24.13381,0.155017921 L24.13381,14.2666093 C10.112129,17.6230573 -0.833996416,29.7969247 0.235007168,78.5457204 L0.235007168,78.5457204 C2.02825448,160.28853 49.8581039,170.067681 81.7434301,169.220663 L81.7434301,169.220663 L81.7434301,172.379928 L135.393892,172.379928 L135.393892,121.209133 L126.622358,121.209133 C126.262097,110.80681 123.884742,101.72772 123.884742,90.9161505 L123.884742,90.9161505 C123.884742,70.4674265 140.56343,34.9776237 121.385233,14.2182437 L121.385233,14.2182437 C113.284616,5.44981004 105.624251,2.00965233 96.4254875,2.00965233 L96.4254875,2.00965233 C95.2671935,2.00965233 94.0847168,2.05677778 92.8842581,2.13986738 L92.8842581,2.13986738 L92.8842581,0.155017921" id="path-23"></path>
        <path d="M24.13381,0.155017921 L24.13381,14.2666093 C10.112129,17.6230573 -0.833996416,29.7969247 0.235007168,78.5457204 L0.235007168,78.5457204 C2.02825448,160.28853 49.8581039,170.067681 81.7434301,169.220663 L81.7434301,169.220663 L81.7434301,172.379928 L135.393892,172.379928 L135.393892,121.209133 L126.622358,121.209133 C126.262097,110.80681 123.884742,101.72772 123.884742,90.9161505 L123.884742,90.9161505 C123.884742,70.4674265 140.56343,34.9776237 121.385233,14.2182437 L121.385233,14.2182437 C113.284616,5.44981004 105.624251,2.00965233 96.4254875,2.00965233 L96.4254875,2.00965233 C95.2671935,2.00965233 94.0847168,2.05677778 92.8842581,2.13986738 L92.8842581,2.13986738 L92.8842581,0.155017921" id="path-25"></path>
        <path d="M24.13381,0.155017921 L24.13381,14.2666093 C10.112129,17.6230573 -0.833996416,29.7969247 0.235007168,78.5457204 L0.235007168,78.5457204 C2.02825448,160.28853 49.8581039,170.067681 81.7434301,169.220663 L81.7434301,169.220663 L81.7434301,172.379928 L135.393892,172.379928 L135.393892,121.209133 L126.622358,121.209133 C126.262097,110.80681 123.884742,101.72772 123.884742,90.9161505 L123.884742,90.9161505 C123.884742,70.4674265 140.56343,34.9776237 121.385233,14.2182437 L121.385233,14.2182437 C113.284616,5.44981004 105.624251,2.00965233 96.4254875,2.00965233 L96.4254875,2.00965233 C95.2671935,2.00965233 94.0847168,2.05677778 92.8842581,2.13986738 L92.8842581,2.13986738 L92.8842581,0.155017921" id="path-27"></path>
        <path d="M24.13381,0.155017921 L24.13381,14.2666093 C10.112129,17.6230573 -0.833996416,29.7969247 0.235007168,78.5457204 L0.235007168,78.5457204 C2.02825448,160.28853 49.8581039,170.067681 81.7434301,169.220663 L81.7434301,169.220663 L81.7434301,172.379928 L135.393892,172.379928 L135.393892,121.209133 L126.622358,121.209133 C126.262097,110.80681 123.884742,101.72772 123.884742,90.9161505 L123.884742,90.9161505 C123.884742,70.4674265 140.56343,34.9776237 121.385233,14.2182437 L121.385233,14.2182437 C113.284616,5.44981004 105.624251,2.00965233 96.4254875,2.00965233 L96.4254875,2.00965233 C95.2671935,2.00965233 94.0847168,2.05677778 92.8842581,2.13986738 L92.8842581,2.13986738 L92.8842581,0.155017921 L24.13381,0.155017921 Z" id="path-29"></path>
        <path d="M24.13381,0.155017921 L24.13381,14.2666093 C10.112129,17.6230573 -0.833996416,29.7969247 0.235007168,78.5457204 L0.235007168,78.5457204 C2.02825448,160.28853 49.8581039,170.067681 81.7434301,169.220663 L81.7434301,169.220663 L81.7434301,172.379928 L135.393892,172.379928 L135.393892,121.209133 L126.622358,121.209133 C126.262097,110.80681 123.884742,101.72772 123.884742,90.9161505 L123.884742,90.9161505 C123.884742,70.4674265 140.56343,34.9776237 121.385233,14.2182437 L121.385233,14.2182437 C113.284616,5.44981004 105.624251,2.00965233 96.4254875,2.00965233 L96.4254875,2.00965233 C95.2671935,2.00965233 94.0847168,2.05677778 92.8842581,2.13986738 L92.8842581,2.13986738 L92.8842581,0.155017921 L24.13381,0.155017921 Z" id="path-31"></path>
        <path d="M24.13381,0.155017921 L24.13381,14.2666093 C10.112129,17.6230573 -0.833996416,29.7969247 0.235007168,78.5457204 L0.235007168,78.5457204 C2.02825448,160.28853 49.8581039,170.067681 81.7434301,169.220663 L81.7434301,169.220663 L81.7434301,172.379928 L135.393892,172.379928 L135.393892,121.209133 L126.622358,121.209133 C126.262097,110.80681 123.884742,101.72772 123.884742,90.9161505 L123.884742,90.9161505 C123.884742,70.4674265 140.56343,34.9776237 121.385233,14.2182437 L121.385233,14.2182437 C113.284616,5.44981004 105.624251,2.00965233 96.4254875,2.00965233 L96.4254875,2.00965233 C95.2671935,2.00965233 94.0847168,2.05677778 92.8842581,2.13986738 L92.8842581,2.13986738 L92.8842581,0.155017921" id="path-33"></path>
        <path d="M24.13381,0.155017921 L24.13381,14.2666093 C10.112129,17.6230573 -0.833996416,29.7969247 0.235007168,78.5457204 L0.235007168,78.5457204 C2.02825448,160.28853 49.8581039,170.067681 81.7434301,169.220663 L81.7434301,169.220663 L81.7434301,172.379928 L135.393892,172.379928 L135.393892,121.209133 L126.622358,121.209133 C126.262097,110.80681 123.884742,101.72772 123.884742,90.9161505 L123.884742,90.9161505 C123.884742,70.4674265 140.56343,34.9776237 121.385233,14.2182437 L121.385233,14.2182437 C113.284616,5.44981004 105.624251,2.00965233 96.4254875,2.00965233 L96.4254875,2.00965233 C95.2671935,2.00965233 94.0847168,2.05677778 92.8842581,2.13986738 L92.8842581,2.13986738 L92.8842581,0.155017921 L24.13381,0.155017921 Z" id="path-35"></path>
        <path d="M24.13381,0.155017921 L24.13381,14.2666093 C10.112129,17.6230573 -0.833996416,29.7969247 0.235007168,78.5457204 L0.235007168,78.5457204 C2.02825448,160.28853 49.8581039,170.067681 81.7434301,169.220663 L81.7434301,169.220663 L81.7434301,172.379928 L135.393892,172.379928 L135.393892,121.209133 L126.622358,121.209133 C126.262097,110.80681 123.884742,101.72772 123.884742,90.9161505 L123.884742,90.9161505 C123.884742,70.4674265 140.56343,34.9776237 121.385233,14.2182437 L121.385233,14.2182437 C113.284616,5.44981004 105.624251,2.00965233 96.4254875,2.00965233 L96.4254875,2.00965233 C95.2671935,2.00965233 94.0847168,2.05677778 92.8842581,2.13986738 L92.8842581,2.13986738 L92.8842581,0.155017921" id="path-37"></path>
        <path d="M24.13381,0.155017921 L24.13381,14.2666093 C10.112129,17.6230573 -0.833996416,29.7969247 0.235007168,78.5457204 L0.235007168,78.5457204 C2.02825448,160.28853 49.8581039,170.067681 81.7434301,169.220663 L81.7434301,169.220663 L81.7434301,172.379928 L135.393892,172.379928 L135.393892,121.209133 L126.622358,121.209133 C126.262097,110.80681 123.884742,101.72772 123.884742,90.9161505 L123.884742,90.9161505 C123.884742,70.4674265 140.56343,34.9776237 121.385233,14.2182437 L121.385233,14.2182437 C113.284616,5.44981004 105.624251,2.00965233 96.4254875,2.00965233 L96.4254875,2.00965233 C95.2671935,2.00965233 94.0847168,2.05677778 92.8842581,2.13986738 L92.8842581,2.13986738 L92.8842581,0.155017921" id="path-39"></path>
        <path d="M24.13381,0.155017921 L24.13381,14.2666093 C10.112129,17.6230573 -0.833996416,29.7969247 0.235007168,78.5457204 L0.235007168,78.5457204 C2.02825448,160.28853 49.8581039,170.067681 81.7434301,169.220663 L81.7434301,169.220663 L81.7434301,172.379928 L135.393892,172.379928 L135.393892,121.209133 L126.622358,121.209133 C126.262097,110.80681 123.884742,101.72772 123.884742,90.9161505 L123.884742,90.9161505 C123.884742,70.4674265 140.56343,34.9776237 121.385233,14.2182437 L121.385233,14.2182437 C113.284616,5.44981004 105.624251,2.00965233 96.4254875,2.00965233 L96.4254875,2.00965233 C95.2671935,2.00965233 94.0847168,2.05677778 92.8842581,2.13986738 L92.8842581,2.13986738 L92.8842581,0.155017921" id="path-41"></path>
        <path d="M24.13381,0.155017921 L24.13381,14.2666093 C10.112129,17.6230573 -0.833996416,29.7969247 0.235007168,78.5457204 L0.235007168,78.5457204 C2.02825448,160.28853 49.8581039,170.067681 81.7434301,169.220663 L81.7434301,169.220663 L81.7434301,172.379928 L135.393892,172.379928 L135.393892,121.209133 L126.622358,121.209133 C126.262097,110.80681 123.884742,101.72772 123.884742,90.9161505 L123.884742,90.9161505 C123.884742,70.4674265 140.56343,34.9776237 121.385233,14.2182437 L121.385233,14.2182437 C113.284616,5.44981004 105.624251,2.00965233 96.4254875,2.00965233 L96.4254875,2.00965233 C95.2671935,2.00965233 94.0847168,2.05677778 92.8842581,2.13986738 L92.8842581,2.13986738 L92.8842581,0.155017921" id="path-43"></path>
        <path d="M24.13381,0.155017921 L24.13381,14.2666093 C10.112129,17.6230573 -0.833996416,29.7969247 0.235007168,78.5457204 L0.235007168,78.5457204 C2.02825448,160.28853 49.8581039,170.067681 81.7434301,169.220663 L81.7434301,169.220663 L81.7434301,172.379928 L135.393892,172.379928 L135.393892,121.209133 L126.622358,121.209133 C126.262097,110.80681 123.884742,101.72772 123.884742,90.9161505 L123.884742,90.9161505 C123.884742,70.4674265 140.56343,34.9776237 121.385233,14.2182437 L121.385233,14.2182437 C113.284616,5.44981004 105.624251,2.00965233 96.4254875,2.00965233 L96.4254875,2.00965233 C95.2671935,2.00965233 94.0847168,2.05677778 92.8842581,2.13986738 L92.8842581,2.13986738 L92.8842581,0.155017921" id="path-45"></path>
        <path d="M24.13381,0.155017921 L24.13381,14.2666093 C10.112129,17.6230573 -0.833996416,29.7969247 0.235007168,78.5457204 L0.235007168,78.5457204 C2.02825448,160.28853 49.8581039,170.067681 81.7434301,169.220663 L81.7434301,169.220663 L81.7434301,172.379928 L135.393892,172.379928 L135.393892,121.209133 L126.622358,121.209133 C126.262097,110.80681 123.884742,101.72772 123.884742,90.9161505 L123.884742,90.9161505 C123.884742,70.4674265 140.56343,34.9776237 121.385233,14.2182437 L121.385233,14.2182437 C113.284616,5.44981004 105.624251,2.00965233 96.4254875,2.00965233 L96.4254875,2.00965233 C95.2671935,2.00965233 94.0847168,2.05677778 92.8842581,2.13986738 L92.8842581,2.13986738 L92.8842581,0.155017921 L24.13381,0.155017921 Z" id="path-47"></path>
        <path d="M24.13381,0.155017921 L24.13381,14.2666093 C10.112129,17.6230573 -0.833996416,29.7969247 0.235007168,78.5457204 L0.235007168,78.5457204 C2.02825448,160.28853 49.8581039,170.067681 81.7434301,169.220663 L81.7434301,169.220663 L81.7434301,172.379928 L135.393892,172.379928 L135.393892,121.209133 L126.622358,121.209133 C126.262097,110.80681 123.884742,101.72772 123.884742,90.9161505 L123.884742,90.9161505 C123.884742,70.4674265 140.56343,34.9776237 121.385233,14.2182437 L121.385233,14.2182437 C113.284616,5.44981004 105.624251,2.00965233 96.4254875,2.00965233 L96.4254875,2.00965233 C95.2671935,2.00965233 94.0847168,2.05677778 92.8842581,2.13986738 L92.8842581,2.13986738 L92.8842581,0.155017921 L24.13381,0.155017921 Z" id="path-49"></path>
        <path d="M24.13381,0.155017921 L24.13381,14.2666093 C10.112129,17.6230573 -0.833996416,29.7969247 0.235007168,78.5457204 L0.235007168,78.5457204 C2.02825448,160.28853 49.8581039,170.067681 81.7434301,169.220663 L81.7434301,169.220663 L81.7434301,172.379928 L135.393892,172.379928 L135.393892,121.209133 L126.622358,121.209133 C126.262097,110.80681 123.884742,101.72772 123.884742,90.9161505 L123.884742,90.9161505 C123.884742,70.4674265 140.56343,34.9776237 121.385233,14.2182437 L121.385233,14.2182437 C113.284616,5.44981004 105.624251,2.00965233 96.4254875,2.00965233 L96.4254875,2.00965233 C95.2671935,2.00965233 94.0847168,2.05677778 92.8842581,2.13986738 L92.8842581,2.13986738 L92.8842581,0.155017921" id="path-51"></path>
        <path d="M24.13381,0.155017921 L24.13381,14.2666093 C10.112129,17.6230573 -0.833996416,29.7969247 0.235007168,78.5457204 L0.235007168,78.5457204 C2.02825448,160.28853 49.8581039,170.067681 81.7434301,169.220663 L81.7434301,169.220663 L81.7434301,172.379928 L135.393892,172.379928 L135.393892,121.209133 L126.622358,121.209133 C126.262097,110.80681 123.884742,101.72772 123.884742,90.9161505 L123.884742,90.9161505 C123.884742,70.4674265 140.56343,34.9776237 121.385233,14.2182437 L121.385233,14.2182437 C113.284616,5.44981004 105.624251,2.00965233 96.4254875,2.00965233 L96.4254875,2.00965233 C95.2671935,2.00965233 94.0847168,2.05677778 92.8842581,2.13986738 L92.8842581,2.13986738 L92.8842581,0.155017921" id="path-53"></path>
        <path d="M24.13381,0.155017921 L24.13381,14.2666093 C10.112129,17.6230573 -0.833996416,29.7969247 0.235007168,78.5457204 L0.235007168,78.5457204 C2.02825448,160.28853 49.8581039,170.067681 81.7434301,169.220663 L81.7434301,169.220663 L81.7434301,172.379928 L135.393892,172.379928 L135.393892,121.209133 L126.622358,121.209133 C126.262097,110.80681 123.884742,101.72772 123.884742,90.9161505 L123.884742,90.9161505 C123.884742,70.4674265 140.56343,34.9776237 121.385233,14.2182437 L121.385233,14.2182437 C113.284616,5.44981004 105.624251,2.00965233 96.4254875,2.00965233 L96.4254875,2.00965233 C95.2671935,2.00965233 94.0847168,2.05677778 92.8842581,2.13986738 L92.8842581,2.13986738 L92.8842581,0.155017921" id="path-55"></path>
        <path d="M24.13381,0.155017921 L24.13381,14.2666093 C10.112129,17.6230573 -0.833996416,29.7969247 0.235007168,78.5457204 L0.235007168,78.5457204 C2.02825448,160.28853 49.8581039,170.067681 81.7434301,169.220663 L81.7434301,169.220663 L81.7434301,172.379928 L135.393892,172.379928 L135.393892,121.209133 L126.622358,121.209133 C126.262097,110.80681 123.884742,101.72772 123.884742,90.9161505 L123.884742,90.9161505 C123.884742,70.4674265 140.56343,34.9776237 121.385233,14.2182437 L121.385233,14.2182437 C113.284616,5.44981004 105.624251,2.00965233 96.4254875,2.00965233 L96.4254875,2.00965233 C95.2671935,2.00965233 94.0847168,2.05677778 92.8842581,2.13986738 L92.8842581,2.13986738 L92.8842581,0.155017921" id="path-57"></path>
        <path d="M24.13381,0.155017921 L24.13381,14.2666093 C10.112129,17.6230573 -0.833996416,29.7969247 0.235007168,78.5457204 L0.235007168,78.5457204 C2.02825448,160.28853 49.8581039,170.067681 81.7434301,169.220663 L81.7434301,169.220663 L81.7434301,172.379928 L135.393892,172.379928 L135.393892,121.209133 L126.622358,121.209133 C126.262097,110.80681 123.884742,101.72772 123.884742,90.9161505 L123.884742,90.9161505 C123.884742,70.4674265 140.56343,34.9776237 121.385233,14.2182437 L121.385233,14.2182437 C113.284616,5.44981004 105.624251,2.00965233 96.4254875,2.00965233 L96.4254875,2.00965233 C95.2671935,2.00965233 94.0847168,2.05677778 92.8842581,2.13986738 L92.8842581,2.13986738 L92.8842581,0.155017921" id="path-59"></path>
        <path d="M24.13381,0.155017921 L24.13381,14.2666093 C10.112129,17.6230573 -0.833996416,29.7969247 0.235007168,78.5457204 L0.235007168,78.5457204 C2.02825448,160.28853 49.8581039,170.067681 81.7434301,169.220663 L81.7434301,169.220663 L81.7434301,172.379928 L135.393892,172.379928 L135.393892,121.209133 L126.622358,121.209133 C126.262097,110.80681 123.884742,101.72772 123.884742,90.9161505 L123.884742,90.9161505 C123.884742,70.4674265 140.56343,34.9776237 121.385233,14.2182437 L121.385233,14.2182437 C113.284616,5.44981004 105.624251,2.00965233 96.4254875,2.00965233 L96.4254875,2.00965233 C95.2671935,2.00965233 94.0847168,2.05677778 92.8842581,2.13986738 L92.8842581,2.13986738 L92.8842581,0.155017921" id="path-61"></path>
        <path d="M24.13381,0.155017921 L24.13381,14.2666093 C10.112129,17.6230573 -0.833996416,29.7969247 0.235007168,78.5457204 L0.235007168,78.5457204 C2.02825448,160.28853 49.8581039,170.067681 81.7434301,169.220663 L81.7434301,169.220663 L81.7434301,172.379928 L135.393892,172.379928 L135.393892,121.209133 L126.622358,121.209133 C126.262097,110.80681 123.884742,101.72772 123.884742,90.9161505 L123.884742,90.9161505 C123.884742,70.4674265 140.56343,34.9776237 121.385233,14.2182437 L121.385233,14.2182437 C113.284616,5.44981004 105.624251,2.00965233 96.4254875,2.00965233 L96.4254875,2.00965233 C95.2671935,2.00965233 94.0847168,2.05677778 92.8842581,2.13986738 L92.8842581,2.13986738 L92.8842581,0.155017921" id="path-63"></path>
        <path d="M24.13381,0.155017921 L24.13381,14.2666093 C10.112129,17.6230573 -0.833996416,29.7969247 0.235007168,78.5457204 L0.235007168,78.5457204 C2.02825448,160.28853 49.8581039,170.067681 81.7434301,169.220663 L81.7434301,169.220663 L81.7434301,172.379928 L135.393892,172.379928 L135.393892,121.209133 L126.622358,121.209133 C126.262097,110.80681 123.884742,101.72772 123.884742,90.9161505 L123.884742,90.9161505 C123.884742,70.4674265 140.56343,34.9776237 121.385233,14.2182437 L121.385233,14.2182437 C113.284616,5.44981004 105.624251,2.00965233 96.4254875,2.00965233 L96.4254875,2.00965233 C95.2671935,2.00965233 94.0847168,2.05677778 92.8842581,2.13986738 L92.8842581,2.13986738 L92.8842581,0.155017921" id="path-65"></path>
        <path d="M24.13381,0.155017921 L24.13381,14.2666093 C10.112129,17.6230573 -0.833996416,29.7969247 0.235007168,78.5457204 L0.235007168,78.5457204 C2.02825448,160.28853 49.8581039,170.067681 81.7434301,169.220663 L81.7434301,169.220663 L81.7434301,172.379928 L135.393892,172.379928 L135.393892,121.209133 L126.622358,121.209133 C126.262097,110.80681 123.884742,101.72772 123.884742,90.9161505 L123.884742,90.9161505 C123.884742,70.4674265 140.56343,34.9776237 121.385233,14.2182437 L121.385233,14.2182437 C113.284616,5.44981004 105.624251,2.00965233 96.4254875,2.00965233 L96.4254875,2.00965233 C95.2671935,2.00965233 94.0847168,2.05677778 92.8842581,2.13986738 L92.8842581,2.13986738 L92.8842581,0.155017921 L24.13381,0.155017921 Z" id="path-67"></path>
        <path d="M24.13381,0.155017921 L24.13381,14.2666093 C10.112129,17.6230573 -0.833996416,29.7969247 0.235007168,78.5457204 L0.235007168,78.5457204 C2.02825448,160.28853 49.8581039,170.067681 81.7434301,169.220663 L81.7434301,169.220663 L81.7434301,172.379928 L135.393892,172.379928 L135.393892,121.209133 L126.622358,121.209133 C126.262097,110.80681 123.884742,101.72772 123.884742,90.9161505 L123.884742,90.9161505 C123.884742,70.4674265 140.56343,34.9776237 121.385233,14.2182437 L121.385233,14.2182437 C113.284616,5.44981004 105.624251,2.00965233 96.4254875,2.00965233 L96.4254875,2.00965233 C95.2671935,2.00965233 94.0847168,2.05677778 92.8842581,2.13986738 L92.8842581,2.13986738 L92.8842581,0.155017921 L24.13381,0.155017921 Z" id="path-69"></path>
        <path d="M24.13381,0.155017921 L24.13381,14.2666093 C10.112129,17.6230573 -0.833996416,29.7969247 0.235007168,78.5457204 L0.235007168,78.5457204 C2.02825448,160.28853 49.8581039,170.067681 81.7434301,169.220663 L81.7434301,169.220663 L81.7434301,172.379928 L135.393892,172.379928 L135.393892,121.209133 L126.622358,121.209133 C126.262097,110.80681 123.884742,101.72772 123.884742,90.9161505 L123.884742,90.9161505 C123.884742,70.4674265 140.56343,34.9776237 121.385233,14.2182437 L121.385233,14.2182437 C113.284616,5.44981004 105.624251,2.00965233 96.4254875,2.00965233 L96.4254875,2.00965233 C95.2671935,2.00965233 94.0847168,2.05677778 92.8842581,2.13986738 L92.8842581,2.13986738 L92.8842581,0.155017921 L24.13381,0.155017921 Z" id="path-71"></path>
        <path d="M24.13381,0.155017921 L24.13381,14.2666093 C10.112129,17.6230573 -0.833996416,29.7969247 0.235007168,78.5457204 L0.235007168,78.5457204 C2.02825448,160.28853 49.8581039,170.067681 81.7434301,169.220663 L81.7434301,169.220663 L81.7434301,172.379928 L135.393892,172.379928 L135.393892,121.209133 L126.622358,121.209133 C126.262097,110.80681 123.884742,101.72772 123.884742,90.9161505 L123.884742,90.9161505 C123.884742,70.4674265 140.56343,34.9776237 121.385233,14.2182437 L121.385233,14.2182437 C113.284616,5.44981004 105.624251,2.00965233 96.4254875,2.00965233 L96.4254875,2.00965233 C95.2671935,2.00965233 94.0847168,2.05677778 92.8842581,2.13986738 L92.8842581,2.13986738 L92.8842581,0.155017921" id="path-73"></path>
        <path d="M24.13381,0.155017921 L24.13381,14.2666093 C10.112129,17.6230573 -0.833996416,29.7969247 0.235007168,78.5457204 L0.235007168,78.5457204 C2.02825448,160.28853 49.8581039,170.067681 81.7434301,169.220663 L81.7434301,169.220663 L81.7434301,172.379928 L135.393892,172.379928 L135.393892,121.209133 L126.622358,121.209133 C126.262097,110.80681 123.884742,101.72772 123.884742,90.9161505 L123.884742,90.9161505 C123.884742,70.4674265 140.56343,34.9776237 121.385233,14.2182437 L121.385233,14.2182437 C113.284616,5.44981004 105.624251,2.00965233 96.4254875,2.00965233 L96.4254875,2.00965233 C95.2671935,2.00965233 94.0847168,2.05677778 92.8842581,2.13986738 L92.8842581,2.13986738 L92.8842581,0.155017921 L24.13381,0.155017921 Z" id="path-75"></path>
        <path d="M24.13381,0.155017921 L24.13381,14.2666093 C10.112129,17.6230573 -0.833996416,29.7969247 0.235007168,78.5457204 L0.235007168,78.5457204 C2.02825448,160.28853 49.8581039,170.067681 81.7434301,169.220663 L81.7434301,169.220663 L81.7434301,172.379928 L135.393892,172.379928 L135.393892,121.209133 L126.622358,121.209133 C126.262097,110.80681 123.884742,101.72772 123.884742,90.9161505 L123.884742,90.9161505 C123.884742,70.4674265 140.56343,34.9776237 121.385233,14.2182437 L121.385233,14.2182437 C113.284616,5.44981004 105.624251,2.00965233 96.4254875,2.00965233 L96.4254875,2.00965233 C95.2671935,2.00965233 94.0847168,2.05677778 92.8842581,2.13986738 L92.8842581,2.13986738 L92.8842581,0.155017921" id="path-77"></path>
        <path d="M24.13381,0.155017921 L24.13381,14.2666093 C10.112129,17.6230573 -0.833996416,29.7969247 0.235007168,78.5457204 L0.235007168,78.5457204 C2.02825448,160.28853 49.8581039,170.067681 81.7434301,169.220663 L81.7434301,169.220663 L81.7434301,172.379928 L135.393892,172.379928 L135.393892,121.209133 L126.622358,121.209133 C126.262097,110.80681 123.884742,101.72772 123.884742,90.9161505 L123.884742,90.9161505 C123.884742,70.4674265 140.56343,34.9776237 121.385233,14.2182437 L121.385233,14.2182437 C113.284616,5.44981004 105.624251,2.00965233 96.4254875,2.00965233 L96.4254875,2.00965233 C95.2671935,2.00965233 94.0847168,2.05677778 92.8842581,2.13986738 L92.8842581,2.13986738 L92.8842581,0.155017921" id="path-79"></path>
        <path d="M24.13381,0.155017921 L24.13381,14.2666093 C10.112129,17.6230573 -0.833996416,29.7969247 0.235007168,78.5457204 L0.235007168,78.5457204 C2.02825448,160.28853 49.8581039,170.067681 81.7434301,169.220663 L81.7434301,169.220663 L81.7434301,172.379928 L135.393892,172.379928 L135.393892,121.209133 L126.622358,121.209133 C126.262097,110.80681 123.884742,101.72772 123.884742,90.9161505 L123.884742,90.9161505 C123.884742,70.4674265 140.56343,34.9776237 121.385233,14.2182437 L121.385233,14.2182437 C113.284616,5.44981004 105.624251,2.00965233 96.4254875,2.00965233 L96.4254875,2.00965233 C95.2671935,2.00965233 94.0847168,2.05677778 92.8842581,2.13986738 L92.8842581,2.13986738 L92.8842581,0.155017921 L24.13381,0.155017921 Z" id="path-81"></path>
        <path d="M24.13381,0.155017921 L24.13381,14.2666093 C10.112129,17.6230573 -0.833996416,29.7969247 0.235007168,78.5457204 L0.235007168,78.5457204 C2.02825448,160.28853 49.8581039,170.067681 81.7434301,169.220663 L81.7434301,169.220663 L81.7434301,172.379928 L135.393892,172.379928 L135.393892,121.209133 L126.622358,121.209133 C126.262097,110.80681 123.884742,101.72772 123.884742,90.9161505 L123.884742,90.9161505 C123.884742,70.4674265 140.56343,34.9776237 121.385233,14.2182437 L121.385233,14.2182437 C113.284616,5.44981004 105.624251,2.00965233 96.4254875,2.00965233 L96.4254875,2.00965233 C95.2671935,2.00965233 94.0847168,2.05677778 92.8842581,2.13986738 L92.8842581,2.13986738 L92.8842581,0.155017921" id="path-83"></path>
        <path d="M24.13381,0.155017921 L24.13381,14.2666093 C10.112129,17.6230573 -0.833996416,29.7969247 0.235007168,78.5457204 L0.235007168,78.5457204 C2.02825448,160.28853 49.8581039,170.067681 81.7434301,169.220663 L81.7434301,169.220663 L81.7434301,172.379928 L135.393892,172.379928 L135.393892,121.209133 L126.622358,121.209133 C126.262097,110.80681 123.884742,101.72772 123.884742,90.9161505 L123.884742,90.9161505 C123.884742,70.4674265 140.56343,34.9776237 121.385233,14.2182437 L121.385233,14.2182437 C113.284616,5.44981004 105.624251,2.00965233 96.4254875,2.00965233 L96.4254875,2.00965233 C95.2671935,2.00965233 94.0847168,2.05677778 92.8842581,2.13986738 L92.8842581,2.13986738 L92.8842581,0.155017921" id="path-85"></path>
        <path d="M24.13381,0.155017921 L24.13381,14.2666093 C10.112129,17.6230573 -0.833996416,29.7969247 0.235007168,78.5457204 L0.235007168,78.5457204 C2.02825448,160.28853 49.8581039,170.067681 81.7434301,169.220663 L81.7434301,169.220663 L81.7434301,172.379928 L135.393892,172.379928 L135.393892,121.209133 L126.622358,121.209133 C126.262097,110.80681 123.884742,101.72772 123.884742,90.9161505 L123.884742,90.9161505 C123.884742,70.4674265 140.56343,34.9776237 121.385233,14.2182437 L121.385233,14.2182437 C113.284616,5.44981004 105.624251,2.00965233 96.4254875,2.00965233 L96.4254875,2.00965233 C95.2671935,2.00965233 94.0847168,2.05677778 92.8842581,2.13986738 L92.8842581,2.13986738 L92.8842581,0.155017921" id="path-87"></path>
        <path d="M24.13381,0.155017921 L24.13381,14.2666093 C10.112129,17.6230573 -0.833996416,29.7969247 0.235007168,78.5457204 L0.235007168,78.5457204 C2.02825448,160.28853 49.8581039,170.067681 81.7434301,169.220663 L81.7434301,169.220663 L81.7434301,172.379928 L135.393892,172.379928 L135.393892,121.209133 L126.622358,121.209133 C126.262097,110.80681 123.884742,101.72772 123.884742,90.9161505 L123.884742,90.9161505 C123.884742,70.4674265 140.56343,34.9776237 121.385233,14.2182437 L121.385233,14.2182437 C113.284616,5.44981004 105.624251,2.00965233 96.4254875,2.00965233 L96.4254875,2.00965233 C95.2671935,2.00965233 94.0847168,2.05677778 92.8842581,2.13986738 L92.8842581,2.13986738 L92.8842581,0.155017921" id="path-89"></path>
        <path d="M24.13381,0.155017921 L24.13381,14.2666093 C10.112129,17.6230573 -0.833996416,29.7969247 0.235007168,78.5457204 L0.235007168,78.5457204 C2.02825448,160.28853 49.8581039,170.067681 81.7434301,169.220663 L81.7434301,169.220663 L81.7434301,172.379928 L135.393892,172.379928 L135.393892,121.209133 L126.622358,121.209133 C126.262097,110.80681 123.884742,101.72772 123.884742,90.9161505 L123.884742,90.9161505 C123.884742,70.4674265 140.56343,34.9776237 121.385233,14.2182437 L121.385233,14.2182437 C113.284616,5.44981004 105.624251,2.00965233 96.4254875,2.00965233 L96.4254875,2.00965233 C95.2671935,2.00965233 94.0847168,2.05677778 92.8842581,2.13986738 L92.8842581,2.13986738 L92.8842581,0.155017921 L24.13381,0.155017921 Z" id="path-91"></path>
        <path d="M24.13381,0.620071685 L24.13381,14.7316631 C10.112129,18.0881111 -0.833996416,30.2619785 0.235007168,79.0107742 L0.235007168,79.0107742 C2.02825448,160.753584 49.8581039,170.532735 81.7434301,169.685717 L81.7434301,169.685717 L81.7434301,172.844982 L135.393892,172.844982 L135.393892,121.674186 L126.622358,121.674186 C126.262097,111.271864 123.884742,102.192774 123.884742,91.3812043 L123.884742,91.3812043 C123.884742,70.9324803 140.56343,35.4426774 121.385233,14.6832975 L121.385233,14.6832975 C113.284616,5.9148638 105.624251,2.47470609 96.4254875,2.47470609 L96.4254875,2.47470609 C95.2671935,2.47470609 94.0847168,2.52183154 92.8842581,2.60492115 L92.8842581,2.60492115 L92.8842581,0.620071685 L24.13381,0.620071685 Z" id="path-93"></path>
    </defs>
    <g id="vip" stroke="none" stroke-width="1" fill="none" fill-rule="evenodd">
        <g id="vip2-1-mobile" transform="translate(-28.000000, -1743.000000)">
            <g id="features" transform="translate(0.000000, 740.000000)">
                <g id="Group-3" transform="translate(28.000000, 1001.000000)">
                    <g id="img-distribution">
                        <g id="Group-3" transform="translate(0.000000, 0.465054)">
                            <mask id="mask-2" fill="white">
                                <use xlink:href="#path-1"></use>
                            </mask>
                            <g id="Clip-2"></g>
                            <path d="M123.885114,90.9162746 C123.885114,70.4675505 140.563182,34.9777477 121.385605,14.2183677 C113.284368,5.44993405 105.624623,2.00915627 96.4252394,2.00915627 C79.1376409,2.00915627 56.9837197,11.9210022 34.6989634,12.9850452 C16.0961928,13.8736079 -1.09219427,18.0287082 0.235379211,78.5458444 C2.07141147,162.272264 52.2104079,170.501855 84.0386875,169.142658 C110.497146,168.012887 126.677917,153.872773 126.672336,123.773873 C126.670476,112.269683 123.885114,102.607726 123.885114,90.9162746" id="Fill-1" fill="#7373E5" mask="url(#mask-2)"></path>
                        </g>
                        <g id="Group-6" transform="translate(0.000000, 0.465054)">
                            <mask id="mask-4" fill="white">
                                <use xlink:href="#path-3"></use>
                            </mask>
                            <g id="Clip-5"></g>
                            <polygon id="Fill-4" fill="#EEA687" mask="url(#mask-4)" points="56.7037573 135.815293 56.2845889 140.97491 63.2560548 141.388497 63.8550441 136.757802"></polygon>
                        </g>
                        <g id="Group-9" transform="translate(0.000000, 0.465054)">
                            <mask id="mask-6" fill="white">
                                <use xlink:href="#path-5"></use>
                            </mask>
                            <g id="Clip-8"></g>
                            <path d="M56.4184624,139.331844 C54.1018746,140.064148 54.0330466,145.835776 55.4368889,147.51493 C55.4443297,147.524231 55.4567312,147.532912 55.4660323,147.542833 L79.3865376,146.341134 C79.8429104,145.204543 79.1862545,142.06884 76.7115484,140.718324 C74.6256272,139.579872 68.4924982,139.263636 63.6044731,139.202249 L63.5176631,139.369668 C63.5176631,139.369668 61.631405,140.477736 59.2670717,140.291715 C56.9411828,140.108173 56.4339642,139.356027 56.4184624,139.331844" id="Fill-7" fill="#321C32" mask="url(#mask-6)"></path>
                        </g>
                        <g id="Group-12" transform="translate(0.000000, 0.465054)">
                            <mask id="mask-8" fill="white">
                                <use xlink:href="#path-7"></use>
                            </mask>
                            <g id="Clip-11"></g>
                            <path d="M73.2359846,146.649992 L79.3858556,146.341196 C79.8422283,145.204605 80.1237409,142.270425 77.6496548,140.919909 C77.0320634,140.58259 75.1203824,140.116296 73.9304649,139.909192 C73.1194111,141.192741 72.6822606,142.729899 72.7647301,144.361307 C72.8050348,145.16492 72.9687337,145.933809 73.2359846,146.649992" id="Fill-10" fill="#E5E5E5" mask="url(#mask-8)"></path>
                        </g>
                        <g id="Group-15" transform="translate(0.000000, 0.465054)">
                            <mask id="mask-10" fill="white">
                                <use xlink:href="#path-9"></use>
                            </mask>
                            <g id="Clip-14"></g>
                            <path d="M54.7409204,145.944846 C54.8990387,146.597782 55.1334258,147.152126 55.4366409,147.514868 C55.4447018,147.524169 55.4564832,147.53347 55.4657842,147.542771 L79.3862896,146.341072 C79.536347,145.967169 79.5661104,145.376241 79.4495369,144.703463 L54.7409204,145.944846 Z" id="Fill-13" fill="#E5E5E5" mask="url(#mask-10)"></path>
                        </g>
                        <g id="Group-18" transform="translate(0.000000, 0.465054)">
                            <mask id="mask-12" fill="white">
                                <use xlink:href="#path-11"></use>
                            </mask>
                            <g id="Clip-17"></g>
                            <path d="M21.3801957,81.656062 C21.3801957,81.656062 20.456909,94.5752556 25.4856903,98.1133846 C30.5188122,101.654614 58.0462746,99.2828398 60.5172602,98.7688004 C60.5172602,98.7688004 58.7314538,104.461058 57.6599699,115.317894 C56.588486,126.174729 55.93121,136.035729 55.93121,136.035729 C57.5018516,137.464994 62.4822674,138.135911 64.8062961,137.218825 C64.8062961,137.218825 73.6466581,99.8278828 73.1381993,94.2993237 C72.6291204,88.7707645 69.4586939,86.932872 62.9584824,86.2979186 C56.458271,85.6629652 34.6565505,83.4220262 34.6565505,83.4220262 L21.3801957,81.656062 Z" id="Fill-16" fill="#321C32" mask="url(#mask-12)"></path>
                        </g>
                        <g id="Group-21" transform="translate(0.000000, 0.465054)">
                            <mask id="mask-14" fill="white">
                                <use xlink:href="#path-13"></use>
                            </mask>
                            <g id="Clip-20"></g>
                            <path d="M75.4705989,46.8190706 C74.2961832,46.5921244 72.9723301,48.7226907 72.5140971,51.5768806 C72.0558642,54.4304505 72.6362513,56.9287194 73.810667,57.1556656 C74.9844627,57.3826118 76.3089358,55.2520455 76.7671688,52.3984756 C77.2254018,49.5442857 76.6450147,47.0460168 75.4705989,46.8190706" id="Fill-19" fill="#E5E5E5" mask="url(#mask-14)"></path>
                        </g>
                        <g id="Group-24" transform="translate(0.000000, 0.465054)">
                            <mask id="mask-16" fill="white">
                                <use xlink:href="#path-15"></use>
                            </mask>
                            <g id="Clip-23"></g>
                            <path d="M73.8995853,57.168191 C75.0510584,57.2742233 76.3203452,55.1802412 76.7667968,52.3985996 C77.1512412,50.0069832 76.8058613,47.8658756 75.9929473,47.1007072 C74.8414742,46.9946749 73.5721875,49.088657 73.1257358,51.8709186 C72.7419115,54.2619151 73.0872914,56.4030226 73.8995853,57.168191" id="Fill-22" fill="#B3B3B3" mask="url(#mask-16)"></path>
                        </g>
                        <g id="Group-27" transform="translate(0.000000, 0.465054)">
                            <mask id="mask-18" fill="white">
                                <use xlink:href="#path-17"></use>
                            </mask>
                            <g id="Clip-26"></g>
                            <path d="M74.6402609,51.9874301 C74.6402609,51.9874301 79.0477305,54.3926882 79.4644186,55.5863262 C79.8811068,56.7799642 80.4249097,62.7233513 80.2221462,63.0811326 C80.0187627,63.438914 79.3757484,63.1481004 79.2151498,63.1270179 C79.0545513,63.1059355 79.052071,58.2668961 78.5281104,56.5282151 C78.0041498,54.788914 74.2148918,52.8809534 74.2148918,52.8809534 L74.6402609,51.9874301 Z" id="Fill-25" fill="#B3B3B3" mask="url(#mask-18)"></path>
                        </g>
                        <g id="Group-30" transform="translate(0.000000, 0.465054)">
                            <mask id="mask-20" fill="white">
                                <use xlink:href="#path-19"></use>
                            </mask>
                            <g id="Clip-29"></g>
                            <path d="M88.5464226,59.2894563 C88.5972685,59.2975172 88.6481143,59.3049581 88.6983401,59.3142591 C91.1804871,63.9567358 91.6387201,69.6347323 89.4622685,74.8749581 C89.2154799,75.4696068 88.9401681,76.0437932 88.6394333,76.5975172 C95.7442147,75.4255817 94.328591,60.1773989 88.5464226,59.2894563" id="Fill-28" fill="#F7C954" mask="url(#mask-20)"></path>
                        </g>
                        <g id="Group-33" transform="translate(0.000000, 0.465054)">
                            <mask id="mask-22" fill="white">
                                <use xlink:href="#path-21"></use>
                            </mask>
                            <g id="Clip-32"></g>
                            <path d="M-15.0498219,129.260453 C-26.3766713,129.260453 -35.5624133,138.446195 -35.5624133,149.773045 C-35.5624133,161.099894 -26.3766713,170.285636 -15.0498219,170.285636 C-3.7229724,170.285636 5.46276953,161.099894 5.46276953,149.773045 C5.46276953,138.446195 -3.7229724,129.260453 -15.0498219,129.260453 M-15.0498219,139.571005 C-20.6831731,139.571005 -25.2518613,144.139694 -25.2518613,149.773045 C-25.2518613,155.406396 -20.6831731,159.975084 -15.0498219,159.975084 C-9.41647061,159.975084 -4.84778244,155.406396 -4.84778244,149.773045 C-4.84778244,144.139694 -9.41647061,139.571005 -15.0498219,139.571005" id="Fill-31" fill="#200D0E" mask="url(#mask-22)"></path>
                        </g>
                        <g id="Group-36" transform="translate(0.000000, 0.465054)">
                            <mask id="mask-24" fill="white">
                                <use xlink:href="#path-23"></use>
                            </mask>
                            <g id="Clip-35"></g>
                            <path d="M114.515087,129.260453 C103.188237,129.260453 94.0024953,138.446195 94.0024953,149.773045 C94.0024953,161.099894 103.188237,170.285636 114.515087,170.285636 C125.841936,170.285636 135.027678,161.099894 135.027678,149.773045 C135.027678,138.446195 125.841936,129.260453 114.515087,129.260453 M114.515087,139.571005 C108.881735,139.571005 104.313047,144.139694 104.313047,149.773045 C104.313047,155.406396 108.881735,159.975084 114.515087,159.975084 C120.148438,159.975084 124.717126,155.406396 124.717126,149.773045 C124.717126,144.139694 120.148438,139.571005 114.515087,139.571005" id="Fill-34" fill="#200D0E" mask="url(#mask-24)"></path>
                        </g>
                        <g id="Group-39" transform="translate(0.000000, 0.465054)">
                            <mask id="mask-26" fill="white">
                                <use xlink:href="#path-25"></use>
                            </mask>
                            <g id="Clip-38"></g>
                            <path d="M114.515087,136.315195 C107.083528,136.315195 101.057051,142.341672 101.057051,149.773231 C101.057051,157.20417 107.083528,163.231267 114.515087,163.231267 C121.946646,163.231267 127.973123,157.20417 127.973123,149.773231 C127.973123,142.341672 121.946646,136.315195 114.515087,136.315195 M112.773925,139.720009 L112.773925,144.062371 C111.497198,144.451156 110.402151,145.256009 109.646284,146.318811 L105.511026,144.975116 C106.966954,142.249281 109.623341,140.261951 112.773925,139.720009 M104.42156,148.282578 L108.548137,149.623173 L108.545657,149.773231 C108.545657,151.113826 108.988388,152.352109 109.734954,153.348564 L107.181499,156.86313 C105.406234,155.027718 104.313047,152.527589 104.313047,149.773231 C104.313047,149.266632 104.350252,148.768715 104.42156,148.282578 M109.992284,158.919288 L112.542639,155.408442 C113.16023,155.624227 113.823707,155.742041 114.515087,155.742041 C115.206467,155.742041 115.870563,155.624227 116.488155,155.407822 L119.03913,158.918668 C117.675592,159.594546 116.139675,159.97527 114.515087,159.97527 C112.891119,159.97527 111.355201,159.594546 109.992284,158.919288 M121.849295,156.86313 L119.295839,153.347944 C120.041786,152.351489 120.484517,151.113826 120.484517,149.773231 L120.482037,149.621933 L124.607994,148.281338 C124.679302,148.768715 124.717126,149.266632 124.717126,149.773231 C124.717126,152.527589 123.62456,155.027718 121.849295,156.86313 M123.519148,144.974496 L119.38327,146.318811 C118.627402,145.256009 117.531735,144.451156 116.255628,144.062371 L116.255628,139.720009 C119.406832,140.261951 122.063219,142.249281 123.519148,144.974496" id="Fill-37" fill="#A49F96" mask="url(#mask-26)"></path>
                        </g>
                        <g id="Group-42" transform="translate(0.000000, 0.465054)">
                            <mask id="mask-28" fill="white">
                                <use xlink:href="#path-27"></use>
                            </mask>
                            <g id="Clip-41"></g>
                            <path d="M114.515087,147.477477 C113.24766,147.477477 112.219581,148.505556 112.219581,149.772983 C112.219581,151.040409 113.24766,152.068488 114.515087,152.068488 C115.782513,152.068488 116.810592,151.040409 116.810592,149.772983 C116.810592,148.505556 115.782513,147.477477 114.515087,147.477477" id="Fill-40" fill="#43221B" mask="url(#mask-28)"></path>
                        </g>
                        <g id="Group-45" transform="translate(0.000000, 0.465054)">
                            <mask id="mask-30" fill="white">
                                <use xlink:href="#path-29"></use>
                            </mask>
                            <g id="Clip-44"></g>
                            <path d="M37.6927935,32.0255244 L34.1187004,38.1456319 C34.1813276,38.1313703 40.8043133,43.4367036 41.3158724,43.5594778 L44.5253634,36.0051444 L37.6927935,32.0255244 Z" id="Fill-43" fill="#EEA687" mask="url(#mask-30)"></path>
                        </g>
                        <g id="Group-48" transform="translate(0.000000, 0.465054)">
                            <mask id="mask-32" fill="white">
                                <use xlink:href="#path-31"></use>
                            </mask>
                            <g id="Clip-47"></g>
                            <path d="M58.3041004,19.8119104 C58.9142509,33.864595 55.1342939,41.6508351 38.0351971,34.6161219 L39.3615305,23.3320573 L45.1914444,18.5339427 L58.3041004,19.8119104 Z" id="Fill-46" fill="#EEA687" mask="url(#mask-32)"></path>
                        </g>
                        <g id="Group-51" transform="translate(0.000000, 0.465054)">
                            <mask id="mask-34" fill="white">
                                <use xlink:href="#path-33"></use>
                            </mask>
                            <g id="Clip-50"></g>
                            <path d="M63.6219591,15.2077541 C58.3042244,19.8117864 45.0371706,5.90667885 40.7549556,13.104471 C40.7549556,13.104471 36.2271921,14.3092703 34.5716007,18.4817326 C32.9160093,22.6548151 36.6984466,34.444238 36.6984466,34.444238 L41.5523677,29.7943204 C37.9410703,26.1693814 43.0920057,23.0913455 44.4505828,27.4603706 L46.943271,22.0118007 C52.306891,24.1144638 63.7453534,24.5652559 63.6219591,15.2077541" id="Fill-49" fill="#171417" mask="url(#mask-34)"></path>
                        </g>
                        <g id="Group-54" transform="translate(0.000000, 0.465054)">
                            <mask id="mask-36" fill="white">
                                <use xlink:href="#path-35"></use>
                            </mask>
                            <g id="Clip-53"></g>
                            <path d="M43.8236903,33.163976 C44.5460738,35.3193452 45.4240953,37.2948935 48.2999878,37.6247717 C48.2999878,37.6247717 47.6799161,38.1642341 46.9327297,38.1350907 C44.9255577,38.0575817 43.0777441,36.597933 42.583547,34.4301624 L43.8236903,33.163976 Z" id="Fill-52" fill="#171417" mask="url(#mask-36)"></path>
                        </g>
                        <g id="Group-57" transform="translate(0.000000, 0.465054)">
                            <mask id="mask-38" fill="white">
                                <use xlink:href="#path-37"></use>
                            </mask>
                            <g id="Clip-56"></g>
                            <path d="M59.6341541,16.0465871 C48.6632258,16.1613004 45.0550287,21.5100387 45.3284803,31.1168093 C45.4314122,34.7603505 44.1999498,34.8911857 40.9042688,34.6183541 C29.5507563,33.6789455 22.9550538,14.0065513 36.494319,6.115519 C47.9327814,-0.552111828 61.596681,8.15989534 59.6341541,16.0465871" id="Fill-55" fill="#BF2604" mask="url(#mask-38)"></path>
                        </g>
                        <g id="Group-60" transform="translate(0.000000, 0.465054)">
                            <mask id="mask-40" fill="white">
                                <use xlink:href="#path-39"></use>
                            </mask>
                            <g id="Clip-59"></g>
                            <path d="M59.6341541,16.0465871 C48.6632258,16.1613004 45.0550287,21.5100387 45.3278602,31.1168093 C45.4314122,34.7603505 44.1999498,34.8911857 40.9042688,34.6183541 C39.4607419,34.4986803 38.0941039,34.0751713 36.8359785,33.4123147 C39.3342473,33.7924186 42.1289104,33.942476 43.2034946,32.9931462 C45.3278602,31.1168093 42.7688244,23.8353075 47.9265806,18.3451928 C51.4076631,14.6390244 56.7222975,14.566476 59.8096344,14.9106158 C59.7854516,15.2900996 59.7277849,15.6689634 59.6341541,16.0465871" id="Fill-58" fill="#A31102" mask="url(#mask-40)"></path>
                        </g>
                        <g id="Group-63" transform="translate(0.000000, 0.465054)">
                            <mask id="mask-42" fill="white">
                                <use xlink:href="#path-41"></use>
                            </mask>
                            <g id="Clip-62"></g>
                            <path d="M40.4340685,22.6167378 C42.2483982,22.619843 43.717348,24.0937534 43.7142526,25.9087032 C43.7111473,27.723033 42.2372369,29.1919828 40.4222871,29.1888873 C38.6079573,29.1857821 37.1390075,27.7112516 37.142103,25.8969219 C37.1452082,24.0825921 38.6197387,22.6136423 40.4340685,22.6167378" id="Fill-61" fill="#171417" mask="url(#mask-42)"></path>
                        </g>
                        <g id="Group-66" transform="translate(0.000000, 0.465054)">
                            <mask id="mask-44" fill="white">
                                <use xlink:href="#path-43"></use>
                            </mask>
                            <g id="Clip-65"></g>
                            <path d="M56.6955724,44.088709 C63.810895,40.5983254 68.8787409,32.9410602 72.781472,27.991648 C72.8968054,27.8453111 73.9509272,23.623243 75.1836297,23.2580208 C75.4415796,23.181752 75.6691459,23.2958452 75.7559559,23.519071 C75.8929918,23.8687914 75.6660455,24.0920172 75.4632821,24.8150208 C75.2611387,25.5392645 75.3529093,26.1704975 75.5823358,26.0948487 C76.0876943,25.9305297 78.3831996,21.4120674 79.398257,20.39639 C79.9048556,19.8885513 80.4716011,20.0361283 79.4056978,21.9564903 C79.0894613,22.5263362 78.7192785,23.1160244 78.3763789,23.6598272 C77.564705,24.9470961 77.2404075,25.8858846 77.5343215,25.6080925 C78.4111029,24.7790566 81.5220025,19.7676373 82.3442176,20.1241785 C82.7454039,20.2977986 78.1308305,26.4048846 78.1320706,26.7440638 C78.135791,27.783924 82.6065079,20.690924 82.8365545,21.7940315 C82.979791,22.4779706 79.787662,26.4030244 79.1551889,27.3889384 C78.844533,27.8725943 79.4962283,27.5991427 80.1789272,27.1898953 C80.7382319,26.8550566 82.4353681,24.9911211 82.2716692,26.166157 C82.1271925,27.2053971 76.6928842,30.7962323 74.9914075,32.4908882 L74.9914075,32.4908882 C73.4864935,33.9896014 67.8078771,46.8102036 61.2921638,50.8319885 C56.9876262,53.4883756 44.2054685,54.4879312 37.636429,55.3758738 C33.2928269,55.9624616 30.3146226,50.4853685 33.5538771,47.2715369 C34.5032068,46.329028 35.8078376,45.8490925 37.142852,45.9303219 C40.4447337,46.1324652 54.6499559,45.0919849 56.6955724,44.088709" id="Fill-64" fill="#EEA687" mask="url(#mask-44)"></path>
                        </g>
                        <g id="Group-69" transform="translate(0.000000, 0.465054)">
                            <mask id="mask-46" fill="white">
                                <use xlink:href="#path-45"></use>
                            </mask>
                            <g id="Clip-68"></g>
                            <path d="M31.1838391,48.388348 C28.5231115,57.5108427 47.8619072,55.9507423 49.8647387,55.6314054 L49.0462441,44.4192692 C44.7665093,43.9021294 32.6658104,43.3068606 31.1838391,48.388348" id="Fill-67" fill="#A31102" mask="url(#mask-46)"></path>
                        </g>
                        <g id="Group-72" transform="translate(0.000000, 0.465054)">
                            <mask id="mask-48" fill="white">
                                <use xlink:href="#path-47"></use>
                            </mask>
                            <g id="Clip-71"></g>
                            <polygon id="Fill-70" fill="#D6D6E8" mask="url(#mask-48)" points="84.2634634 2.62222115 99.5221875 28.6261674 82.0157036 38.2515401 67.5488111 12.9563358"></polygon>
                        </g>
                        <g id="Group-75" transform="translate(0.000000, 0.465054)">
                            <mask id="mask-50" fill="white">
                                <use xlink:href="#path-49"></use>
                            </mask>
                            <g id="Clip-74"></g>
                            <polygon id="Fill-73" fill="#FFFFFF" mask="url(#mask-50)" points="84.0266581 3.56336595 98.1103462 28.2707423 82.252633 37.3101473 67.5488731 12.9562118"></polygon>
                        </g>
                        <g id="Group-78" transform="translate(0.000000, 0.465054)">
                            <mask id="mask-52" fill="white">
                                <use xlink:href="#path-51"></use>
                            </mask>
                            <g id="Clip-77"></g>
                            <path d="M74.6092573,14.1866201 C75.0792717,15.0007742 74.8002394,16.0412545 73.9860853,16.5112688 C73.1725513,16.9812832 72.1314509,16.7022509 71.6614366,15.8880968 C71.1920423,15.0739427 71.4704545,14.0334624 72.2846086,13.563448 C73.0987627,13.0934337 74.139243,13.3724659 74.6092573,14.1866201" id="Fill-76" fill="#DDDDED" mask="url(#mask-52)"></path>
                        </g>
                        <g id="Group-81" transform="translate(0.000000, 0.465054)">
                            <mask id="mask-54" fill="white">
                                <use xlink:href="#path-53"></use>
                            </mask>
                            <g id="Clip-80"></g>
                            <path d="M84.8346735,9.59697348 L77.0992792,14.0621097 C76.8915552,14.1824036 76.6261645,14.1110953 76.5064907,13.9033713 L75.8033294,12.6849305 C75.6830355,12.4778265 75.7543437,12.2124358 75.9620677,12.0921419 L83.697462,7.62700573 C83.905186,7.5073319 84.1705767,7.57802007 84.2902505,7.78574409 L84.9934118,9.00418495 C85.1137057,9.21190896 85.0423975,9.47729964 84.8346735,9.59697348" id="Fill-79" fill="#DDDDED" mask="url(#mask-54)"></path>
                        </g>
                        <g id="Group-84" transform="translate(0.000000, 0.465054)">
                            <mask id="mask-56" fill="white">
                                <use xlink:href="#path-55"></use>
                            </mask>
                            <g id="Clip-83"></g>
                            <path d="M86.9093713,13.1874986 L74.6778373,20.2482548 C74.4713534,20.3679287 74.2065828,20.2972405 74.087529,20.0901366 L73.8897262,19.7484771 C73.7706724,19.5413731 73.8413606,19.2772226 74.0484645,19.1575487 L86.2781384,12.0974125 C86.4858624,11.9777387 86.751253,12.049047 86.8709269,12.256771 L87.0674896,12.5971903 C87.1871634,12.8036742 87.1158552,13.0678247 86.9093713,13.1874986" id="Fill-82" fill="#DDDDED" mask="url(#mask-56)"></path>
                        </g>
                        <g id="Group-87" transform="translate(0.000000, 0.465054)">
                            <mask id="mask-58" fill="white">
                                <use xlink:href="#path-57"></use>
                            </mask>
                            <g id="Clip-86"></g>
                            <path d="M88.5092803,15.958971 L76.2777462,23.0197272 C76.0712624,23.1394011 75.8064918,23.0687129 75.687438,22.861609 L75.4896351,22.5199495 C75.3705814,22.3128455 75.4412695,22.048695 75.6483735,21.9290211 L87.8780473,14.8688849 C88.0857713,14.7492111 88.351162,14.8205194 88.4708358,15.0282434 L88.6673986,15.3686627 C88.7870724,15.5751466 88.7157642,15.8392971 88.5092803,15.958971" id="Fill-85" fill="#DDDDED" mask="url(#mask-58)"></path>
                        </g>
                        <g id="Group-90" transform="translate(0.000000, 0.465054)">
                            <mask id="mask-60" fill="white">
                                <use xlink:href="#path-59"></use>
                            </mask>
                            <g id="Clip-89"></g>
                            <path d="M90.1091272,18.7303814 L77.8775932,25.7911376 C77.6711093,25.9108115 77.4063387,25.8395032 77.2872849,25.6330194 L77.0894821,25.2913599 C76.9704283,25.0842559 77.0411165,24.8201054 77.2482204,24.7004315 L89.4778943,17.6402953 C89.6856183,17.5206215 89.951009,17.5919297 90.0706828,17.7996538 L90.2672455,18.1400731 C90.3869194,18.346557 90.3156111,18.6107075 90.1091272,18.7303814" id="Fill-88" fill="#DDDDED" mask="url(#mask-60)"></path>
                        </g>
                        <g id="Group-93" transform="translate(0.000000, 0.465054)">
                            <mask id="mask-62" fill="white">
                                <use xlink:href="#path-61"></use>
                            </mask>
                            <g id="Clip-92"></g>
                            <path d="M91.7090362,21.5018538 L79.4775022,28.56261 C79.2710183,28.6822839 79.0062477,28.6115957 78.8871939,28.4044918 L78.689391,28.0628323 C78.5703373,27.8557283 78.6410254,27.5915778 78.8481294,27.4719039 L91.0778032,20.4117677 C91.2855272,20.2920939 91.5509179,20.3634022 91.6705918,20.5711262 L91.8671545,20.9115455 C91.9868283,21.1180294 91.9161401,21.3821799 91.7090362,21.5018538" id="Fill-91" fill="#DDDDED" mask="url(#mask-62)"></path>
                        </g>
                        <g id="Group-96" transform="translate(0.000000, 0.465054)">
                            <mask id="mask-64" fill="white">
                                <use xlink:href="#path-63"></use>
                            </mask>
                            <g id="Clip-95"></g>
                            <path d="M93.3088832,24.2732642 L81.0773491,31.3340204 C80.8708652,31.4536943 80.6060946,31.3830061 80.4870409,31.1759022 L80.289238,30.8342427 C80.1701842,30.6271387 80.2408724,30.3629882 80.4479763,30.2433143 L92.6776502,23.1831781 C92.8853742,23.0635043 93.1507649,23.1348125 93.2704387,23.3425366 L93.4670014,23.6829559 C93.5866753,23.8894398 93.5159871,24.1535903 93.3088832,24.2732642" id="Fill-94" fill="#DDDDED" mask="url(#mask-64)"></path>
                        </g>
                        <g id="Group-99" transform="translate(0.000000, 0.465054)">
                            <mask id="mask-66" fill="white">
                                <use xlink:href="#path-65"></use>
                            </mask>
                            <g id="Clip-98"></g>
                            <path d="M94.9087921,27.0447366 L82.6772581,34.1054928 C82.4707742,34.2251667 82.2060036,34.1544785 82.0869498,33.9473746 L81.889147,33.6057151 C81.7700932,33.3986111 81.8407814,33.1344606 82.0478853,33.0147867 L94.2775591,25.9546505 C94.4852832,25.8349767 94.7506738,25.9062849 94.8703477,26.114009 L95.0669104,26.4544283 C95.1865842,26.6609122 95.1158961,26.9250627 94.9087921,27.0447366" id="Fill-97" fill="#DDDDED" mask="url(#mask-66)"></path>
                        </g>
                        <g id="Group-102" transform="translate(0.000000, 0.465054)">
                            <mask id="mask-68" fill="white">
                                <use xlink:href="#path-67"></use>
                            </mask>
                            <g id="Clip-101"></g>
                            <path d="M75.4288061,85.2142814 C75.4288061,85.2142814 69.5796699,74.5639301 69.2305695,71.3333566 C68.8814692,68.1034032 79.2701502,64.9608799 79.2701502,64.9608799 L86.2546376,79.9759158 L80.1432111,86.2622025 L75.4288061,85.2142814 Z" id="Fill-100" fill="#A31102" mask="url(#mask-68)"></path>
                        </g>
                        <g id="Group-105" transform="translate(0.000000, 0.465054)">
                            <mask id="mask-70" fill="white">
                                <use xlink:href="#path-69"></use>
                            </mask>
                            <g id="Clip-104"></g>
                            <path d="M104.849161,120.221792 C114.112412,119.368574 129.240301,126.141617 133.658312,136.63447 C110.506075,133.250739 108.593154,137.826868 95.3335412,146.848291 C90.9651362,149.820294 85.9921613,148.157882 85.9921613,148.157882 L104.849161,120.221792 Z" id="Fill-103" fill="#BF2604" mask="url(#mask-70)"></path>
                        </g>
                        <g id="Group-108" transform="translate(0.000000, 0.465054)">
                            <mask id="mask-72" fill="white">
                                <use xlink:href="#path-71"></use>
                            </mask>
                            <g id="Clip-107"></g>
                            <path d="M104.849161,120.221792 C107.60972,119.967563 110.89114,120.391072 114.255029,121.388147 C112.197011,122.652473 110.212781,124.512689 109.280194,127.20566 C108.205609,130.310359 107.802563,134.666982 107.682269,138.488484 C104.000283,140.447291 100.542143,143.304581 95.3335412,146.848291 C90.9651362,149.820294 85.9921613,148.157882 85.9921613,148.157882 L104.849161,120.221792 Z" id="Fill-106" fill="#A31102" mask="url(#mask-72)"></path>
                        </g>
                        <g id="Group-111" transform="translate(0.000000, 0.465054)">
                            <mask id="mask-74" fill="white">
                                <use xlink:href="#path-73"></use>
                            </mask>
                            <g id="Clip-110"></g>
                            <path d="M86.2543276,79.9762258 L75.4284961,85.2145914 C75.4284961,85.2145914 74.4686251,86.9607133 76.1273168,91.1505376 C77.7860086,95.3409821 81.8022129,102.58714 82.9369441,111.317129 C84.0716753,120.047118 84.0716753,140.91191 73.9446645,141.261011 C63.8182738,141.610731 49.9373491,141.610731 49.9373491,141.610731 C49.9373491,141.610731 47.0149513,141.401147 44.8812846,140.224871 C42.7469978,139.049215 41.9929907,137.332857 41.9929907,137.332857 L5.58858208,127.554946 L-36.5775326,127.991477 L-36.4032925,132.443591 C-36.4032925,132.443591 -22.5223677,135.935835 -10.6492351,138.293348 C1.22327742,140.65024 4.89038136,141.261011 4.89038136,141.261011 L5.92652115,145.129018 C5.92652115,145.129018 30.2947183,151.475452 53.603833,152.348513 C76.9129477,153.221573 84.0716753,150.602391 84.0716753,150.602391 C84.0716753,150.602391 95.1591771,143.007133 98.6508007,130.435799 C102.143044,117.865086 105.198138,113.761452 99.6987219,102.93624 C94.198686,92.1110287 86.2543276,79.9762258 86.2543276,79.9762258" id="Fill-109" fill="#200D0E" mask="url(#mask-74)"></path>
                        </g>
                        <g id="Group-114" transform="translate(0.000000, 0.465054)">
                            <mask id="mask-76" fill="white">
                                <use xlink:href="#path-75"></use>
                            </mask>
                            <g id="Clip-113"></g>
                            <polygon id="Fill-112" fill="#EEA687" mask="url(#mask-76)" points="51.7478344 136.101518 51.0700961 141.233852 58.0124186 141.99654 58.8433147 137.401809"></polygon>
                        </g>
                        <g id="Group-117" transform="translate(0.000000, 0.465054)">
                            <mask id="mask-78" fill="white">
                                <use xlink:href="#path-77"></use>
                            </mask>
                            <g id="Clip-116"></g>
                            <path d="M51.2866251,139.599343 C48.9359333,140.214454 48.578152,145.97554 49.8951842,147.722902 C49.9032452,147.732203 49.9144065,147.742124 49.9230875,147.752045 L73.8733563,147.752045 C74.3867756,146.639637 73.888238,143.475411 71.4842201,142.002741 C69.4584459,140.760737 63.3494996,140.137565 58.4701556,139.830629 L58.3746645,139.993088 C58.3746645,139.993088 56.4350803,141.005665 54.0837685,140.70059 C51.7696609,140.400475 51.3008867,139.624146 51.2866251,139.599343" id="Fill-115" fill="#3C2945" mask="url(#mask-78)"></path>
                        </g>
                        <g id="Group-120" transform="translate(0.000000, 0.465054)">
                            <mask id="mask-80" fill="white">
                                <use xlink:href="#path-79"></use>
                            </mask>
                            <g id="Clip-119"></g>
                            <path d="M67.7155484,147.752169 L73.8734803,147.752169 C74.3862796,146.639761 74.8147491,143.723563 72.4107312,142.250273 C71.8111219,141.882571 69.9254839,141.321406 68.7473477,141.054155 C67.8730466,142.296158 67.3596272,143.809133 67.3596272,145.443022 C67.3596272,146.247875 67.4848817,147.023585 67.7155484,147.752169" id="Fill-118" fill="#FFFFFF" mask="url(#mask-80)"></path>
                        </g>
                        <g id="Group-123" transform="translate(0.000000, 0.465054)">
                            <mask id="mask-82" fill="white">
                                <use xlink:href="#path-81"></use>
                            </mask>
                            <g id="Clip-122"></g>
                            <path d="M49.279143,146.120078 C49.4043975,146.779835 49.6108814,147.34534 49.8954943,147.722964 C49.9029351,147.732885 49.9140964,147.742186 49.9227774,147.752107 L73.8736663,147.752107 C74.0423258,147.385645 74.1018527,146.797197 74.0193832,146.120078 L49.279143,146.120078 Z" id="Fill-121" fill="#FFFFFF" mask="url(#mask-82)"></path>
                        </g>
                        <g id="Group-126" transform="translate(0.000000, 0.465054)">
                            <mask id="mask-84" fill="white">
                                <use xlink:href="#path-83"></use>
                            </mask>
                            <g id="Clip-125"></g>
                            <path d="M86.2543276,79.9762258 C86.2543276,79.9762258 84.1591054,82.944509 86.4285677,88.0080143 C88.6986502,93.0715197 101.126127,111.24272 97.9811233,121.026211 C94.8367398,130.809703 89.2226108,147.546677 78.7464996,150.864681 C68.2703885,154.182065 21.4772989,148.245498 21.4772989,148.245498 C21.4772989,148.245498 19.5563168,157.324588 32.4767505,157.498828 C45.3971842,157.673688 77.5243384,160.292871 86.7782882,153.658104 C96.0316179,147.023337 111.396994,120.658509 110.873034,115.071043 C110.349073,109.484197 86.2543276,79.9762258 86.2543276,79.9762258" id="Fill-124" fill="#BF2604" mask="url(#mask-84)"></path>
                        </g>
                        <g id="Group-129" transform="translate(0.000000, 0.465054)">
                            <mask id="mask-86" fill="white">
                                <use xlink:href="#path-85"></use>
                            </mask>
                            <g id="Clip-128"></g>
                            <path d="M22.048943,152.631885 C23.129728,154.979477 25.8524627,157.409538 32.4773086,157.498828 C43.6168964,157.649505 69.0317746,159.616373 81.7568857,155.904004 C65.8377853,157.263821 37.8973552,155.801072 22.048943,152.631885" id="Fill-127" fill="#A31102" mask="url(#mask-86)"></path>
                        </g>
                        <g id="Group-132" transform="translate(0.000000, 0.465054)">
                            <mask id="mask-88" fill="white">
                                <use xlink:href="#path-87"></use>
                            </mask>
                            <g id="Clip-131"></g>
                            <path d="M46.4451674,109.658437 L-21.1252842,109.658437 C-24.2467251,110.395703 -34.9423416,120.948082 -36.5774706,127.991477 C-22.3189222,131.573631 23.1837982,138.368376 41.9930527,137.332857 C31.5758484,125.112484 46.6051459,117.772075 46.4451674,109.658437" id="Fill-130" fill="#BF2604" mask="url(#mask-88)"></path>
                        </g>
                        <g id="Group-135" transform="translate(0.000000, 0.465054)">
                            <mask id="mask-90" fill="white">
                                <use xlink:href="#path-89"></use>
                            </mask>
                            <g id="Clip-134"></g>
                            <path d="M27.5543735,137.077077 C28.9675168,137.165747 30.3403556,137.238916 31.6666889,137.295962 C32.5292086,135.002317 32.9924022,132.668987 32.9924022,130.344959 C32.9924022,116.111213 15.7333269,107.593909 -5.54877348,111.32612 C-15.8766875,113.137349 -25.2571319,117.501414 -32.1771319,123.140346 C-25.7891534,118.543134 -17.6414115,115.027948 -8.76570538,113.471568 C11.7326244,109.877633 28.3555061,118.079941 28.3555061,131.789726 C28.3555061,133.55445 28.077714,135.324754 27.5543735,137.077077" id="Fill-133" fill="#A31102" mask="url(#mask-90)"></path>
                        </g>
                        <g id="Group-138" transform="translate(0.000000, 0.465054)">
                            <mask id="mask-92" fill="white">
                                <use xlink:href="#path-91"></use>
                            </mask>
                            <g id="Clip-137"></g>
                            <path d="M11.3304459,54.0770097 L-27.7210487,54.0770097 C-33.6278516,54.0770097 -38.4600703,58.9092283 -38.4600703,64.8160312 L-38.4600703,97.3592534 C-38.4600703,103.265436 -33.6278516,108.098275 -27.7210487,108.098275 L11.3304459,108.098275 L11.3304459,54.0770097 Z" id="Fill-136" fill="#BF2604" mask="url(#mask-92)"></path>
                        </g>
                        <mask id="mask-94" fill="white">
                            <use xlink:href="#path-93"></use>
                        </mask>
                        <g id="Clip-140"></g>
                        <polygon id="Fill-139" fill="#A31102" mask="url(#mask-94)" points="9.59250896 108.563391 11.3305699 108.563391 11.3305699 54.5421254 9.59250896 54.5421254"></polygon>
                        <path d="M11.3304459,54.5420634 L-27.7210487,54.5420634 C-29.6984573,54.5420634 -31.554952,55.0840061 -33.1510165,56.0265151 L11.3304459,56.0265151 L11.3304459,54.5420634 Z" id="Fill-141" fill="#FB6747" mask="url(#mask-94)"></path>
                        <path d="M-35.4027448,105.308882 C-33.4488989,107.313574 -30.7243039,108.563019 -27.7212968,108.563019 L11.3301978,108.563019 L11.3301978,105.308882 L-35.4027448,105.308882 Z" id="Fill-142" fill="#A31102" mask="url(#mask-94)"></path>
                        <polygon id="Fill-143" fill="#A31102" mask="url(#mask-94)" points="-38.4599462 70.1623513 11.3305699 70.1623513 11.3305699 68.2097455 -38.4599462 68.2097455"></polygon>
                        <polygon id="Fill-144" fill="#BF2604" mask="url(#mask-94)" points="-21.1252222 110.123491 46.4452294 110.123491 46.4452294 107.592978 -21.1252222 107.592978"></polygon>
                        <polygon id="Fill-145" fill="#A31102" mask="url(#mask-94)" points="-21.1252222 110.123491 46.4452294 110.123491 46.4452294 109.42529 -21.1252222 109.42529"></polygon>
                        <path d="M46.4451674,107.593041 L13.7748305,107.593041 L13.7748305,99.0366713 C13.7748305,97.2595459 15.232619,95.6882842 17.0047839,95.8060978 L40.5520061,97.3779796 C43.7856799,97.5931444 46.4451674,100.030026 46.4451674,103.271141 L46.4451674,107.593041 Z" id="Fill-146" fill="#200D0E" mask="url(#mask-94)"></path>
                        <path d="M16.8675,95.8008892 C16.9133853,95.8015093 16.9586505,95.8033695 17.0051559,95.8058498 L40.5517581,97.3777315 C43.786052,97.5935165 46.4449194,100.029778 46.4449194,103.270893 L46.4449194,103.948631 C43.7717903,104.783868 40.9281416,105.23466 37.9797007,105.23466 C29.5938513,105.23466 22.0581201,101.590499 16.8675,95.8008892" id="Fill-147" fill="#1A0D0E" mask="url(#mask-94)"></path>
                        <path d="M-15.1796649,144.045505 C-18.485267,144.1782 -21.1255323,146.900315 -21.1255323,150.238161 C-21.1255323,153.576006 -18.485267,156.298121 -15.1796649,156.430816 L-15.1796649,156.436397 L13.7665215,157.590971 C13.9630842,157.606472 14.1615072,157.615153 14.3624104,157.615153 C18.4356613,157.615153 21.7394032,154.311411 21.7394032,150.238161 C21.7394032,146.16491 18.4356613,142.861168 14.3624104,142.861168 L14.3624104,142.861168 C14.1621272,142.861168 13.9643244,142.869229 13.7683817,142.88473 L-15.1796649,144.044885 L-15.1796649,144.045505 Z" id="Fill-148" fill="#494448" mask="url(#mask-94)"></path>
                        <path d="M19.1861341,80.7032599 C19.1861341,80.7032599 17.6154925,93.5604462 22.4607326,97.3459839 C27.3096932,101.135242 54.9214853,100.147468 57.4154136,99.7580627 C57.4154136,99.7580627 55.3456143,105.35297 53.7315677,116.142837 C52.116281,126.932704 50.9648079,136.747819 50.9648079,136.747819 C52.462281,138.254593 57.4023921,139.174159 59.7692057,138.374887 C59.7692057,138.374887 70.4753634,101.474421 70.2440767,95.9272599 C70.01341,90.3800986 66.9397147,88.385948 60.4791878,87.425457 C54.019281,86.4649659 32.3570767,83.1327007 32.3570767,83.1327007 L19.1861341,80.7032599 Z" id="Fill-149" fill="#3C2945" mask="url(#mask-94)"></path>
                        <path d="M89.1328244,59.217652 C88.3806774,58.9342792 87.6148889,58.750738 86.8509606,58.6589674 C86.9073871,58.6657882 86.9638136,58.672609 87.0202401,58.6806699 C89.9475986,63.7447953 90.6644014,70.0329423 88.4402043,75.9316842 C88.1878351,76.6013616 87.9032222,77.2487165 87.590086,77.8749889 C88.5704194,77.6796663 89.5147885,77.3349065 90.3866093,76.8562111 C90.4076918,76.8004047 90.4306344,76.7458384 90.4510968,76.6900319 C92.6368495,70.8936018 92.2555054,64.7586125 89.8750502,59.5332685 C89.6344624,59.4191753 89.3870538,59.313143 89.1328244,59.217652" id="Fill-150" fill="#E0E0E5" mask="url(#mask-94)"></path>
                        <path d="M87.0205502,58.6804839 C82.6186613,58.0734337 78.2242133,60.5593011 76.5909444,64.8917419 C74.6947652,69.9217634 77.235819,75.5377527 82.2652204,77.4339319 C84.0299444,78.0992688 85.8672168,78.2177025 87.5903961,77.8748029 C87.9035323,77.2491505 88.1881452,76.6011756 88.4405143,75.9321183 C90.6640914,70.0327563 89.9472885,63.7452294 87.0205502,58.6804839" id="Fill-151" fill="#BF2604" mask="url(#mask-94)"></path>
                        <path d="M76.1856036,66.2620384 C75.1730265,70.9032749 77.6886573,75.7088305 82.2654065,77.4338699 C84.0301305,78.0992068 85.8667828,78.2176405 87.589962,77.8747409 C87.9037183,77.2490885 88.1883312,76.6011136 88.4407004,75.9320563 C89.1891269,73.9459667 89.6039548,71.915852 89.7137075,69.9030993 C87.0250767,69.7834254 84.1783276,69.4058018 81.4841161,68.5804864 C79.4688832,67.962895 77.7084996,67.1524613 76.1856036,66.2620384" id="Fill-152" fill="#A31102" mask="url(#mask-94)"></path>
                        <path d="M74.2937029,72.6280663 C74.0221115,72.6280663 73.7623014,72.6789122 73.5229538,72.7713029 L73.5223337,72.7719229 C73.4380039,72.8041667 73.3561545,72.8426111 73.2767853,72.8853961 L67.2986742,75.9218871 L69.0869609,79.8091165 L75.1915667,76.7087581 L75.1915667,76.7087581 C75.9238713,76.3689588 76.4329502,75.627353 76.4329502,74.7673136 C76.4329502,73.5860771 75.4749394,72.6280663 74.2937029,72.6280663" id="Fill-153" fill="#200D0E" mask="url(#mask-94)"></path>
                        <path d="M31.8533305,36.5475211 C29.2924344,39.080514 24.6022122,44.5985319 23.104119,52.2173527 C21.0064165,62.8887864 15.5274631,85.6851018 15.5274631,85.6851018 C15.5274631,85.6851018 21.7678645,87.3493742 30.6280688,87.340112 C39.4888932,87.330772 41.8848502,83.3505319 41.8848502,83.3505319 C41.8848502,83.3505319 43.7153018,63.8858616 44.6007642,54.849557 C45.4856065,45.8138724 41.6386817,42.1033634 41.6386817,42.1033634 L34.9443878,36.2120624 C33.2695742,34.738152 33.5783699,34.8410839 31.8533305,36.5475211" id="Fill-154" fill="#BF2604" mask="url(#mask-94)"></path>
                        <path d="M32.749024,35.5817595 L30.9328341,36.8863903 C34.2520778,39.6742326 41.5565222,43.8696376 45.1957229,48.327953 C45.1957229,48.327953 46.2331029,44.4382434 43.4179774,41.8358025 C41.3060133,39.8844369 36.8185545,37.0128849 34.7072104,35.6995731 C33.5774398,34.9970319 33.7671817,34.8500749 32.749024,35.5817595" id="Fill-155" fill="#A31102" mask="url(#mask-94)"></path>
                        <path d="M42.8700821,64.113428 C43.3822613,64.5077935 62.7892649,72.0608867 65.9200068,72.0267828 C68.6191789,71.9970194 69.0606699,71.6057541 70.4775337,71.8451018 C71.8943975,72.0844495 73.3614871,72.1173133 75.4393473,73.4796108 C77.5172075,74.8419082 76.8475301,76.7535892 76.6112828,76.8211771 C76.3737953,76.8881448 76.3849566,75.9474961 75.774186,75.1407828 C75.1627953,74.3340695 72.8908527,73.862195 72.8908527,73.862195 C72.8908527,73.862195 74.6282935,74.3756143 75.1355122,75.4061735 C75.6427308,76.4373527 75.2347237,78.5883814 74.8465588,78.5449763 C74.4583939,78.5009513 74.7250247,77.1832989 74.4168491,76.5378043 C74.1080534,75.8923097 72.2261358,74.6726287 72.2261358,74.6726287 C72.2261358,74.6726287 73.6845444,75.9307541 73.8203401,77.0747864 C73.9567559,78.2188186 73.1655444,79.6456036 72.8920928,79.3132452 C72.6186412,78.9815068 73.0719136,77.3432774 72.7916412,76.6587183 C72.5119889,75.9741591 71.276186,75.6114172 71.276186,75.6114172 C71.276186,75.6114172 72.2515588,76.0839118 72.4592828,76.9321699 C72.6676269,77.781048 72.4295194,79.0596358 72.1362254,79.493686 C71.8435516,79.9271161 71.907419,78.5096323 71.3784978,77.4747326 C70.8501968,76.440453 69.1338384,76.1942846 69.1338384,76.1942846 C69.1338384,76.1942846 67.8366484,76.0628294 67.0975229,76.9272093 C66.3577774,77.7909692 65.1356161,77.8703384 64.0083258,76.8664423 C62.8810355,75.8625462 60.7238061,75.1023384 59.2815194,74.7923025 C57.8392326,74.4822667 41.4600391,72.0336036 39.236462,70.8182631 C37.0122649,69.6029226 31.9754226,58.7956932 31.9754226,58.7956932 L39.5210749,56.1436466 L42.8700821,64.113428 Z" id="Fill-156" fill="#EEA687" mask="url(#mask-94)"></path>
                        <path d="M68.3658796,75.6559384 C67.1852631,75.6559384 66.2272523,76.6139491 66.2272523,77.7945656 C66.2272523,78.9758022 67.1852631,79.9338129 68.3658796,79.9338129 C69.5471161,79.9338129 70.5051269,78.9758022 70.5051269,77.7945656 C70.5051269,76.6139491 69.5471161,75.6559384 68.3658796,75.6559384" id="Fill-157" fill="#200D0E" mask="url(#mask-94)"></path>
                        <path d="M34.8129326,43.6877706 C25.1038502,42.9046201 30.6733341,61.9966272 31.408119,63.941172 L42.4956208,60.7986487 C42.1285384,56.3948996 40.2211978,44.123681 34.8129326,43.6877706" id="Fill-158" fill="#A31102" mask="url(#mask-94)"></path>
                        <path d="M-21.2311925,119.072552 C-6.59874086,112.459487 17.6727251,111.730903 22.6810441,124.572587 C14.3237179,113.285423 -14.0141781,117.443003 -21.2311925,119.072552" id="Fill-159" fill="#FB6747" mask="url(#mask-94)"></path>
                        <path d="M129.875503,133.802541 C123.692768,128.060057 118.551133,125.369566 112.412424,123.350612 C120.59861,124.45682 126.879936,129.515985 129.875503,133.802541" id="Fill-160" fill="#FB6747" mask="url(#mask-94)"></path>
                        <path d="M101.895698,106.003239 L101.895698,106.003239 C100.914124,106.560063 100.565644,107.818189 101.122468,108.799762 L104.265612,114.343823 C104.821816,115.326016 106.079942,115.673257 107.061515,115.117052 L107.062135,115.117052 C108.043089,114.560228 108.391569,113.302103 107.834744,112.320529 L104.692221,106.775848 C104.135397,105.794895 102.877271,105.447034 101.895698,106.003239" id="Fill-161" fill="#F7C954" mask="url(#mask-94)"></path>
                        <path d="M69.0005849,55.1198462 C67.2891871,55.1198462 65.6757606,57.4847996 65.3979685,60.4016168 C65.1195563,63.317814 66.2821907,65.6833875 67.9929685,65.6833875 C69.7043663,65.6833875 71.3177928,63.317814 71.596205,60.4016168 C71.8739971,57.4847996 70.7119828,55.1198462 69.0005849,55.1198462" id="Fill-162" fill="#E5E5E5" mask="url(#mask-94)"></path>
                        <path d="M68.1226875,65.6784889 C69.7850996,65.5631556 71.3253577,63.2447075 71.596329,60.4016789 C71.8288559,57.9579763 71.0506659,55.9018186 69.7857197,55.299109 C68.1233075,55.4144423 66.5836695,57.7328903 66.3126982,60.575919 C66.0795513,63.0196215 66.8577412,65.0757792 68.1226875,65.6784889" id="Fill-163" fill="#B3B3B3" mask="url(#mask-94)"></path>
                        <path d="M68.4969007,60.4014928 C68.4969007,60.4014928 73.1840226,62.2015609 73.7551086,63.3294713 C74.3268147,64.4567616 75.653148,70.2761344 75.4999903,70.6574785 C75.3455925,71.0388226 74.6697143,70.8360591 74.5078756,70.8366792 C74.3454168,70.8366792 73.7017824,66.0410448 72.9521158,64.3866935 C72.201829,62.7329624 68.1936857,61.3440018 68.1936857,61.3440018 L68.4969007,60.4014928 Z" id="Fill-164" fill="#B3B3B3" mask="url(#mask-94)"></path>
                    </g>
                </g>
            </g>
        </g>
    </g>
</svg>