<?xml version="1.0" encoding="UTF-8"?>
<svg width="151px" height="153px" viewBox="0 0 151 153" version="1.1" xmlns="http://www.w3.org/2000/svg" xmlns:xlink="http://www.w3.org/1999/xlink">
    <!-- Generator: sketchtool 63.1 (101010) - https://sketch.com -->
    <title>23CC18D1-3C82-4A36-82C3-BF2B1C1EC5DB@2x</title>
    <desc>Created with sketchtool.</desc>
    <defs>
        <polygon id="path-1" points="0.214712362 0.34504219 123.907242 0.34504219 123.907242 152.395257 0.214712362 152.395257"></polygon>
        <polygon id="path-3" points="0.308721344 0.156792016 54.2025178 0.156792016 54.2025178 50.4311571 0.308721344 50.4311571"></polygon>
    </defs>
    <g id="vip" stroke="none" stroke-width="1" fill="none" fill-rule="evenodd">
        <g id="vip2-1-mobile" transform="translate(-309.000000, -1105.000000)">
            <g id="features" transform="translate(0.000000, 740.000000)">
                <g id="Group-2-Copy-2" transform="translate(42.000000, 365.000000)">
                    <g id="img-video" transform="translate(267.000000, 0.000000)">
                        <g id="Group-3" transform="translate(8.466403, 0.260040)">
                            <mask id="mask-2" fill="white">
                                <use xlink:href="#path-1"></use>
                            </mask>
                            <g id="Clip-2"></g>
                            <path d="M120.310129,52.3546648 C111.944718,90.9179217 134.271228,107.923297 117.440018,133.168902 C102.998753,154.82959 58.0911368,157.51223 26.3499866,144.610641 C0.815314625,134.23204 -3.21227431,99.5306727 2.47472964,67.1067676 C14.8332593,-3.35789644 50.5100775,0.37941581 82.6969233,0.37941581 C109.200394,0.37941581 128.852125,12.9780285 120.310129,52.3546648" id="Fill-1" fill="#7373E5" mask="url(#mask-2)"></path>
                        </g>
                        <polygon id="Fill-4" fill="#F7C954" points="140.633064 128.490851 0.0768628458 119.523116 5.82917905 29.3565273 146.385985 38.3242625"></polygon>
                        <path d="M25.3191415,92.1443407 C25.3191415,92.1443407 22.196853,86.7554751 21.864849,85.517566 C21.1947937,83.022396 25.9686356,81.9665146 25.9686356,81.9665146 C25.9686356,81.9665146 23.420853,76.3454277 24.4071889,75.7340324 C25.3935249,75.1226372 27.6474024,82.0735542 27.6474024,82.0735542 C27.6474024,82.0735542 30.3155289,82.6166134 30.5846395,83.6821708 C30.8543549,84.7483328 29.5589953,89.1073209 29.5589953,89.1073209 L25.3191415,92.1443407 Z" id="Fill-6" fill="#EEA687"></path>
                        <polygon id="Fill-8" fill="#D44040" points="44.5191296 115.528123 30.343347 88.8015024 24.2463273 91.1781427 32.8300506 117.086546"></polygon>
                        <path d="M59.2854439,72.5357277 C59.2854439,72.5357277 55.5747403,92.093119 50.929104,100.725826 L91.2116455,103.295985 C91.2116455,103.295985 85.4871474,85.0720518 87.5196889,73.1465182 L59.2854439,72.5357277 Z" id="Fill-10" fill="#3C2945"></path>
                        <path d="M93.7317913,102.895826 C91.4773091,101.45049 81.932649,97.4307628 81.8915265,97.4144348 C79.8644277,93.5767352 80.9880403,82.8123083 80.9880403,82.8123083 L73.016317,82.3037194 L65.0427794,81.7951304 C65.0427794,81.7951304 64.7893921,92.6139842 62.2911984,96.1638261 C62.2676134,96.1704783 52.2706055,98.948668 49.8504237,100.095866 C47.4272182,101.249111 45.7726411,102.621877 45.6069415,105.223482 C45.4914356,107.030455 45.5482814,109.271632 45.4460798,110.867549 L96.731317,114.139814 C96.8564988,112.176213 97.1733842,110.328119 97.2888901,108.520542 C97.4545897,105.918937 95.9892972,104.347209 93.7317913,102.895826" id="Fill-12" fill="#EEA687"></path>
                        <path d="M88.6143344,70.5715826 C88.1136071,69.2653375 87.226449,70.208132 86.8490893,70.9271715 C87.6322316,62.2460846 84.9901091,52.92397 74.8709431,52.1069621 L74.8709431,52.1009146 C74.8213542,52.0978909 74.7741842,52.0960767 74.7258047,52.093053 C74.6762158,52.0900292 74.6290458,52.085796 74.5776427,52.0821676 L74.5776427,52.088215 C64.3853028,51.6092585 60.7018126,60.4850727 60.4060933,69.2405431 C60.0263146,68.5106182 59.2256348,67.3356024 58.5198996,68.6515233 C57.6520933,70.2692111 59.4663225,75.8969502 60.6618996,74.8199028 C60.8735597,76.5295115 61.2013304,78.1471992 61.6240458,79.5876972 C64.189366,88.41997 70.6262514,91.108053 72.0655399,91.4630372 L72.3588403,91.4817842 C73.8319945,91.3124561 80.5591565,89.4643613 84.2275281,81.0300095 C84.8183621,79.6717565 85.3444885,78.1326854 85.7708324,76.4877842 C86.8563462,77.4178791 89.2535478,72.2509542 88.6143344,70.5715826" id="Fill-14" fill="#EEA687"></path>
                        <path d="M60.4063352,69.240664 C60.4063352,69.240664 71.4942996,68.5845178 75.6410229,60.9907589 C75.6410229,60.9907589 77.1486474,65.2378696 74.4720545,68.150917 C74.4720545,68.150917 77.6983589,67.7638814 79.3378174,62.5310395 C79.3378174,62.5310395 81.32077,68.5282767 86.8493312,70.9272925 C86.8493312,70.9272925 88.5129794,69.7063162 88.6145763,70.5717036 C88.6145763,70.5717036 90.8896198,51.8815138 75.0211613,50.8691739 C59.152098,49.8562292 58.8914538,68.1817589 58.8914538,68.1817589 C58.8914538,68.1817589 60.2237028,68.3692292 60.4063352,69.240664" id="Fill-16" fill="#3C2945"></path>
                        <path d="M45.6066391,105.22324 C45.4911332,107.030817 44.9208605,109.231477 44.8192636,110.827999 L97.3587379,114.18009 C97.4839198,112.216489 97.1736866,110.327877 97.2885877,108.5203 C97.4548921,105.9193 95.9889949,104.346968 93.7314889,102.895584 C91.4776115,101.450248 81.9329514,97.4311257 81.8918289,97.4141929 C71.1655008,102.816363 62.2915008,96.1635842 62.2915008,96.1635842 C62.2679158,96.1708411 52.2703032,98.9490308 49.8501213,100.096228 C47.4275206,101.248869 45.7723387,102.621636 45.6066391,105.22324" id="Fill-18" fill="#D44040"></path>
                        <polygon id="Fill-20" fill="#342F72" points="140.556443 129.69169 0.000241897233 120.723955 0.822087747 107.840508 141.378289 116.808243"></polygon>
                        <path d="M131.303935,124.372611 L9.85338142,116.624038 C9.12829447,116.577473 8.57797826,115.952774 8.62393874,115.227687 L8.62393874,115.227687 C8.67050395,114.5026 9.2958083,113.952283 10.0202905,113.998849 L131.471449,121.747422 C132.196536,121.793382 132.746247,122.418687 132.700287,123.143774 L132.700287,123.143774 C132.653721,123.86886 132.029022,124.418572 131.303935,124.372611" id="Fill-22" fill="#EDDAD3"></path>
                        <path d="M35.8450577,116.543063 C35.7174569,118.542949 33.9927296,120.060854 31.9928443,119.933253 C29.9929589,119.805652 28.4750538,118.080925 28.6026545,116.08104 C28.7302553,114.081154 30.4549826,112.563249 32.454868,112.69085 C34.4547534,112.818451 35.9726585,114.543178 35.8450577,116.543063" id="Fill-24" fill="#D44040"></path>
                        <g id="Group-28" transform="translate(96.154150, 26.263992)">
                            <mask id="mask-4" fill="white">
                                <use xlink:href="#path-3"></use>
                            </mask>
                            <g id="Clip-27"></g>
                            <path d="M30.6347727,0.227081028 C17.0038636,-0.642539526 5.44178063,6.65791897 4.81224308,16.5327688 C4.33993874,23.9342194 10.1424486,30.6813379 18.8186976,33.9632787 C16.7432194,38.9772036 11.3126265,48.8496344 0.308721344,50.3203696 C0.308721344,50.3203696 17.5898597,52.6818913 24.9689348,35.5991087 C26.0725909,35.7805316 27.2004368,35.9147846 28.3530771,35.9879585 C41.9845909,36.8581838 53.5460692,29.5577253 54.1762115,19.6822708 C54.805749,9.80742095 44.2656818,1.09670158 30.6347727,0.227081028" id="Fill-26" fill="#D44040" mask="url(#mask-4)"></path>
                        </g>
                        <path d="M138.322885,34.124987 C138.298091,34.5162557 137.869933,34.8107656 137.372229,34.7787142 L116.146352,33.4246945 C115.648648,33.3926431 115.261613,33.04673 115.286407,32.6554613 C115.311202,32.2641925 115.73936,31.9696826 116.237063,32.001734 L137.462941,33.3557538 C137.960644,33.3872004 138.34768,33.7337182 138.322885,34.124987" id="Fill-29" fill="#FFB3C0"></path>
                        <path d="M138.028678,38.7367577 C138.003883,39.1280265 137.575725,39.4225364 137.078022,39.390485 L115.852144,38.0364652 C115.354441,38.0044138 114.967405,37.6585008 114.9922,37.267232 C115.016994,36.8759632 115.445152,36.5814534 115.942856,36.6135047 L137.168733,37.9675245 C137.666437,37.9989711 138.053472,38.3454889 138.028678,38.7367577" id="Fill-31" fill="#FFB3C0"></path>
                        <path d="M137.73441,43.348468 C137.709615,43.7397368 137.281457,44.0342466 136.783754,44.0021953 L115.557876,42.6481755 C115.060173,42.6161241 114.673137,42.2702111 114.697932,41.8789423 C114.722726,41.4876735 115.150884,41.1931636 115.648588,41.225215 L136.874465,42.5792348 C137.372169,42.6106814 137.759204,42.9571992 137.73441,43.348468" id="Fill-33" fill="#FFB3C0"></path>
                        <path d="M137.440202,47.9602387 C137.415408,48.3515075 136.98725,48.6460174 136.489546,48.613966 L115.263669,47.2599462 C114.765965,47.2278949 114.37893,46.8819818 114.403724,46.490713 C114.428519,46.0994443 114.856677,45.8049344 115.35438,45.8369858 L136.580258,47.1910055 C137.077961,47.2224522 137.464997,47.56897 137.440202,47.9602387" id="Fill-35" fill="#FFB3C0"></path>
                        <path d="M137.145934,52.5720095 C137.12114,52.9632783 136.692982,53.2577881 136.195278,53.2257368 L114.969401,51.871717 C114.471697,51.8396656 114.084662,51.4937526 114.109456,51.1024838 C114.134251,50.711215 114.562409,50.4167051 115.060112,50.4487565 L136.28599,51.8027763 C136.783693,51.8342229 137.170729,52.1807407 137.145934,52.5720095" id="Fill-37" fill="#FFB3C0"></path>
                        <path d="M136.851727,57.1837802 C136.826932,57.575049 136.398774,57.8695589 135.901071,57.8375075 L114.675193,56.4834877 C114.17749,56.4514364 113.790454,56.1055233 113.815249,55.7142545 C113.840043,55.3229858 114.268201,55.0284759 114.765905,55.0605273 L135.991782,56.414547 C136.489486,56.4459937 136.876521,56.7925115 136.851727,57.1837802" id="Fill-39" fill="#FFB3C0"></path>
                    </g>
                </g>
            </g>
        </g>
    </g>
</svg>