<?xml version="1.0" encoding="UTF-8"?>
<svg width="143px" height="150px" viewBox="0 0 143 150" version="1.1" xmlns="http://www.w3.org/2000/svg" xmlns:xlink="http://www.w3.org/1999/xlink">
    <!-- Generator: sketchtool 63.1 (101010) - https://sketch.com -->
    <title>DD2BC4A6-96C9-44DC-85A0-9BCDDF14824C@2x</title>
    <desc>Created with sketchtool.</desc>
    <defs>
        <path d="M42.9551702,0.119085106 L42.9551702,14.0261277 C20.039617,21.8302128 2.23423404,38.858766 6.37506383,65.2530851 L6.37506383,65.2530851 C10.8663617,93.8810213 -8.65248936,103.258511 4.8226383,128.703234 L4.8226383,128.703234 C19.574383,156.559277 70.7390213,155.964468 100.859532,143.721532 L100.859532,143.721532 C122.966787,134.735851 113.894106,114.59566 113.829936,87.4714043 L113.829936,87.4714043 L144.866723,87.4714043 L144.866723,60.0991064 L119.52134,60.0991064 C121.385362,54.3571064 123.116723,48.6416383 123.561596,44.4446596 L123.561596,44.4446596 C126.106809,20.4511702 100.124043,8.59140426 71.9218511,9.08008511 L71.9218511,9.08008511 L71.9218511,0.119085106 L42.9551702,0.119085106 Z" id="path-1"></path>
        <path d="M42.9551702,0.119085106 L42.9551702,14.0261277 C20.039617,21.8302128 2.23423404,38.858766 6.37506383,65.2530851 L6.37506383,65.2530851 C10.8663617,93.8810213 -8.65248936,103.258511 4.8226383,128.703234 L4.8226383,128.703234 C19.574383,156.559277 70.7390213,155.964468 100.859532,143.721532 L100.859532,143.721532 C122.966787,134.735851 113.894106,114.59566 113.829936,87.4714043 L113.829936,87.4714043 L144.866723,87.4714043 L144.866723,60.0991064 L119.52134,60.0991064 C121.385362,54.3571064 123.116723,48.6416383 123.561596,44.4446596 L123.561596,44.4446596 C126.106809,20.4511702 100.124043,8.59140426 71.9218511,9.08008511 L71.9218511,9.08008511 L71.9218511,0.119085106 L42.9551702,0.119085106 Z" id="path-3"></path>
        <path d="M42.9551702,0.119085106 L42.9551702,14.0261277 C20.039617,21.8302128 2.23423404,38.858766 6.37506383,65.2530851 L6.37506383,65.2530851 C10.8663617,93.8810213 -8.65248936,103.258511 4.8226383,128.703234 L4.8226383,128.703234 C19.574383,156.559277 70.7390213,155.964468 100.859532,143.721532 L100.859532,143.721532 C122.966787,134.735851 113.894106,114.59566 113.829936,87.4714043 L113.829936,87.4714043 L144.866723,87.4714043 L144.866723,60.0991064 L119.52134,60.0991064 C121.385362,54.3571064 123.116723,48.6416383 123.561596,44.4446596 L123.561596,44.4446596 C126.106809,20.4511702 100.124043,8.59140426 71.9218511,9.08008511 L71.9218511,9.08008511 L71.9218511,0.119085106 L42.9551702,0.119085106 Z" id="path-5"></path>
        <path d="M42.9551702,0.119085106 L42.9551702,14.0261277 C20.039617,21.8302128 2.23423404,38.858766 6.37506383,65.2530851 L6.37506383,65.2530851 C10.8663617,93.8810213 -8.65248936,103.258511 4.8226383,128.703234 L4.8226383,128.703234 C19.574383,156.559277 70.7390213,155.964468 100.859532,143.721532 L100.859532,143.721532 C122.966787,134.735851 113.894106,114.59566 113.829936,87.4714043 L113.829936,87.4714043 L144.866723,87.4714043 L144.866723,60.0991064 L119.52134,60.0991064 C121.385362,54.3571064 123.116723,48.6416383 123.561596,44.4446596 L123.561596,44.4446596 C126.106809,20.4511702 100.124043,8.59140426 71.9218511,9.08008511 L71.9218511,9.08008511 L71.9218511,0.119085106" id="path-7"></path>
        <path d="M42.9551702,0.119085106 L42.9551702,14.0261277 C20.039617,21.8302128 2.23423404,38.858766 6.37506383,65.2530851 L6.37506383,65.2530851 C10.8663617,93.8810213 -8.65248936,103.258511 4.8226383,128.703234 L4.8226383,128.703234 C19.574383,156.559277 70.7390213,155.964468 100.859532,143.721532 L100.859532,143.721532 C122.966787,134.735851 113.894106,114.59566 113.829936,87.4714043 L113.829936,87.4714043 L144.866723,87.4714043 L144.866723,60.0991064 L119.52134,60.0991064 C121.385362,54.3571064 123.116723,48.6416383 123.561596,44.4446596 L123.561596,44.4446596 C126.106809,20.4511702 100.124043,8.59140426 71.9218511,9.08008511 L71.9218511,9.08008511 L71.9218511,0.119085106" id="path-9"></path>
        <path d="M42.9551702,0.119085106 L42.9551702,14.0261277 C20.039617,21.8302128 2.23423404,38.858766 6.37506383,65.2530851 L6.37506383,65.2530851 C10.8663617,93.8810213 -8.65248936,103.258511 4.8226383,128.703234 L4.8226383,128.703234 C19.574383,156.559277 70.7390213,155.964468 100.859532,143.721532 L100.859532,143.721532 C122.966787,134.735851 113.894106,114.59566 113.829936,87.4714043 L113.829936,87.4714043 L144.866723,87.4714043 L144.866723,60.0991064 L119.52134,60.0991064 C121.385362,54.3571064 123.116723,48.6416383 123.561596,44.4446596 L123.561596,44.4446596 C126.106809,20.4511702 100.124043,8.59140426 71.9218511,9.08008511 L71.9218511,9.08008511 L71.9218511,0.119085106" id="path-11"></path>
        <path d="M42.9551702,0.119085106 L42.9551702,14.0261277 C20.039617,21.8302128 2.23423404,38.858766 6.37506383,65.2530851 L6.37506383,65.2530851 C10.8663617,93.8810213 -8.65248936,103.258511 4.8226383,128.703234 L4.8226383,128.703234 C19.574383,156.559277 70.7390213,155.964468 100.859532,143.721532 L100.859532,143.721532 C122.966787,134.735851 113.894106,114.59566 113.829936,87.4714043 L113.829936,87.4714043 L144.866723,87.4714043 L144.866723,60.0991064 L119.52134,60.0991064 C121.385362,54.3571064 123.116723,48.6416383 123.561596,44.4446596 L123.561596,44.4446596 C126.106809,20.4511702 100.124043,8.59140426 71.9218511,9.08008511 L71.9218511,9.08008511 L71.9218511,0.119085106" id="path-13"></path>
        <path d="M42.9551702,0.119085106 L42.9551702,14.0261277 C20.039617,21.8302128 2.23423404,38.858766 6.37506383,65.2530851 L6.37506383,65.2530851 C10.8663617,93.8810213 -8.65248936,103.258511 4.8226383,128.703234 L4.8226383,128.703234 C19.574383,156.559277 70.7390213,155.964468 100.859532,143.721532 L100.859532,143.721532 C122.966787,134.735851 113.894106,114.59566 113.829936,87.4714043 L113.829936,87.4714043 L144.866723,87.4714043 L144.866723,60.0991064 L119.52134,60.0991064 C121.385362,54.3571064 123.116723,48.6416383 123.561596,44.4446596 L123.561596,44.4446596 C126.106809,20.4511702 100.124043,8.59140426 71.9218511,9.08008511 L71.9218511,9.08008511 L71.9218511,0.119085106" id="path-15"></path>
        <path d="M42.9551702,0.119085106 L42.9551702,14.0261277 C20.039617,21.8302128 2.23423404,38.858766 6.37506383,65.2530851 L6.37506383,65.2530851 C10.8663617,93.8810213 -8.65248936,103.258511 4.8226383,128.703234 L4.8226383,128.703234 C19.574383,156.559277 70.7390213,155.964468 100.859532,143.721532 L100.859532,143.721532 C122.966787,134.735851 113.894106,114.59566 113.829936,87.4714043 L113.829936,87.4714043 L144.866723,87.4714043 L144.866723,60.0991064 L119.52134,60.0991064 C121.385362,54.3571064 123.116723,48.6416383 123.561596,44.4446596 L123.561596,44.4446596 C126.106809,20.4511702 100.124043,8.59140426 71.9218511,9.08008511 L71.9218511,9.08008511 L71.9218511,0.119085106" id="path-17"></path>
        <path d="M42.9551702,0.119085106 L42.9551702,14.0261277 C20.039617,21.8302128 2.23423404,38.858766 6.37506383,65.2530851 L6.37506383,65.2530851 C10.8663617,93.8810213 -8.65248936,103.258511 4.8226383,128.703234 L4.8226383,128.703234 C19.574383,156.559277 70.7390213,155.964468 100.859532,143.721532 L100.859532,143.721532 C122.966787,134.735851 113.894106,114.59566 113.829936,87.4714043 L113.829936,87.4714043 L144.866723,87.4714043 L144.866723,60.0991064 L119.52134,60.0991064 C121.385362,54.3571064 123.116723,48.6416383 123.561596,44.4446596 L123.561596,44.4446596 C126.106809,20.4511702 100.124043,8.59140426 71.9218511,9.08008511 L71.9218511,9.08008511 L71.9218511,0.119085106 L42.9551702,0.119085106 Z" id="path-19"></path>
        <path d="M42.9551702,0.119085106 L42.9551702,14.0261277 C20.039617,21.8302128 2.23423404,38.858766 6.37506383,65.2530851 L6.37506383,65.2530851 C10.8663617,93.8810213 -8.65248936,103.258511 4.8226383,128.703234 L4.8226383,128.703234 C19.574383,156.559277 70.7390213,155.964468 100.859532,143.721532 L100.859532,143.721532 C122.966787,134.735851 113.894106,114.59566 113.829936,87.4714043 L113.829936,87.4714043 L144.866723,87.4714043 L144.866723,60.0991064 L119.52134,60.0991064 C121.385362,54.3571064 123.116723,48.6416383 123.561596,44.4446596 L123.561596,44.4446596 C126.106809,20.4511702 100.124043,8.59140426 71.9218511,9.08008511 L71.9218511,9.08008511 L71.9218511,0.119085106 L42.9551702,0.119085106 Z" id="path-21"></path>
        <path d="M42.9551702,0.119085106 L42.9551702,14.0261277 C20.039617,21.8302128 2.23423404,38.858766 6.37506383,65.2530851 L6.37506383,65.2530851 C10.8663617,93.8810213 -8.65248936,103.258511 4.8226383,128.703234 L4.8226383,128.703234 C19.574383,156.559277 70.7390213,155.964468 100.859532,143.721532 L100.859532,143.721532 C122.966787,134.735851 113.894106,114.59566 113.829936,87.4714043 L113.829936,87.4714043 L144.866723,87.4714043 L144.866723,60.0991064 L119.52134,60.0991064 C121.385362,54.3571064 123.116723,48.6416383 123.561596,44.4446596 L123.561596,44.4446596 C126.106809,20.4511702 100.124043,8.59140426 71.9218511,9.08008511 L71.9218511,9.08008511 L71.9218511,0.119085106" id="path-23"></path>
        <path d="M42.9551702,0.119085106 L42.9551702,14.0261277 C20.039617,21.8302128 2.23423404,38.858766 6.37506383,65.2530851 L6.37506383,65.2530851 C10.8663617,93.8810213 -8.65248936,103.258511 4.8226383,128.703234 L4.8226383,128.703234 C19.574383,156.559277 70.7390213,155.964468 100.859532,143.721532 L100.859532,143.721532 C122.966787,134.735851 113.894106,114.59566 113.829936,87.4714043 L113.829936,87.4714043 L144.866723,87.4714043 L144.866723,60.0991064 L119.52134,60.0991064 C121.385362,54.3571064 123.116723,48.6416383 123.561596,44.4446596 L123.561596,44.4446596 C126.106809,20.4511702 100.124043,8.59140426 71.9218511,9.08008511 L71.9218511,9.08008511 L71.9218511,0.119085106" id="path-25"></path>
        <path d="M42.9551702,0.119085106 L42.9551702,14.0261277 C20.039617,21.8302128 2.23423404,38.858766 6.37506383,65.2530851 L6.37506383,65.2530851 C10.8663617,93.8810213 -8.65248936,103.258511 4.8226383,128.703234 L4.8226383,128.703234 C19.574383,156.559277 70.7390213,155.964468 100.859532,143.721532 L100.859532,143.721532 C122.966787,134.735851 113.894106,114.59566 113.829936,87.4714043 L113.829936,87.4714043 L144.866723,87.4714043 L144.866723,60.0991064 L119.52134,60.0991064 C121.385362,54.3571064 123.116723,48.6416383 123.561596,44.4446596 L123.561596,44.4446596 C126.106809,20.4511702 100.124043,8.59140426 71.9218511,9.08008511 L71.9218511,9.08008511 L71.9218511,0.119085106" id="path-27"></path>
        <path d="M42.9551702,0.119085106 L42.9551702,14.0261277 C20.039617,21.8302128 2.23423404,38.858766 6.37506383,65.2530851 L6.37506383,65.2530851 C10.8663617,93.8810213 -8.65248936,103.258511 4.8226383,128.703234 L4.8226383,128.703234 C19.574383,156.559277 70.7390213,155.964468 100.859532,143.721532 L100.859532,143.721532 C122.966787,134.735851 113.894106,114.59566 113.829936,87.4714043 L113.829936,87.4714043 L144.866723,87.4714043 L144.866723,60.0991064 L119.52134,60.0991064 C121.385362,54.3571064 123.116723,48.6416383 123.561596,44.4446596 L123.561596,44.4446596 C126.106809,20.4511702 100.124043,8.59140426 71.9218511,9.08008511 L71.9218511,9.08008511 L71.9218511,0.119085106" id="path-29"></path>
        <path d="M42.9551702,0.119085106 L42.9551702,14.0261277 C20.039617,21.8302128 2.23423404,38.858766 6.37506383,65.2530851 L6.37506383,65.2530851 C10.8663617,93.8810213 -8.65248936,103.258511 4.8226383,128.703234 L4.8226383,128.703234 C19.574383,156.559277 70.7390213,155.964468 100.859532,143.721532 L100.859532,143.721532 C122.966787,134.735851 113.894106,114.59566 113.829936,87.4714043 L113.829936,87.4714043 L144.866723,87.4714043 L144.866723,60.0991064 L119.52134,60.0991064 C121.385362,54.3571064 123.116723,48.6416383 123.561596,44.4446596 L123.561596,44.4446596 C126.106809,20.4511702 100.124043,8.59140426 71.9218511,9.08008511 L71.9218511,9.08008511 L71.9218511,0.119085106" id="path-31"></path>
        <path d="M42.9551702,0.119085106 L42.9551702,14.0261277 C20.039617,21.8302128 2.23423404,38.858766 6.37506383,65.2530851 L6.37506383,65.2530851 C10.8663617,93.8810213 -8.65248936,103.258511 4.8226383,128.703234 L4.8226383,128.703234 C19.574383,156.559277 70.7390213,155.964468 100.859532,143.721532 L100.859532,143.721532 C122.966787,134.735851 113.894106,114.59566 113.829936,87.4714043 L113.829936,87.4714043 L144.866723,87.4714043 L144.866723,60.0991064 L119.52134,60.0991064 C121.385362,54.3571064 123.116723,48.6416383 123.561596,44.4446596 L123.561596,44.4446596 C126.106809,20.4511702 100.124043,8.59140426 71.9218511,9.08008511 L71.9218511,9.08008511 L71.9218511,0.119085106" id="path-33"></path>
        <path d="M42.9551702,0.119085106 L42.9551702,14.0261277 C20.039617,21.8302128 2.23423404,38.858766 6.37506383,65.2530851 L6.37506383,65.2530851 C10.8663617,93.8810213 -8.65248936,103.258511 4.8226383,128.703234 L4.8226383,128.703234 C19.574383,156.559277 70.7390213,155.964468 100.859532,143.721532 L100.859532,143.721532 C122.966787,134.735851 113.894106,114.59566 113.829936,87.4714043 L113.829936,87.4714043 L144.866723,87.4714043 L144.866723,60.0991064 L119.52134,60.0991064 C121.385362,54.3571064 123.116723,48.6416383 123.561596,44.4446596 L123.561596,44.4446596 C126.106809,20.4511702 100.124043,8.59140426 71.9218511,9.08008511 L71.9218511,9.08008511 L71.9218511,0.119085106" id="path-35"></path>
        <path d="M42.9551702,0.119085106 L42.9551702,14.0261277 C20.039617,21.8302128 2.23423404,38.858766 6.37506383,65.2530851 C10.8663617,93.8810213 -8.65248936,103.258511 4.8226383,128.703234 C19.574383,156.559277 70.7390213,155.964468 100.859532,143.721532 C122.966787,134.735851 113.894106,114.59566 113.829936,87.4714043 L144.866723,87.4714043 L144.866723,60.0991064 L119.52134,60.0991064 C121.385362,54.3571064 123.116723,48.6416383 123.561596,44.4446596 C126.106809,20.4511702 100.124043,8.59140426 71.9218511,9.08008511 L71.9218511,0.119085106 L42.9551702,0.119085106 Z" id="path-37"></path>
    </defs>
    <g id="vip" stroke="none" stroke-width="1" fill="none" fill-rule="evenodd">
        <g id="vip2-1-mobile" transform="translate(-28.000000, -916.000000)">
            <g id="features" transform="translate(0.000000, 740.000000)">
                <g id="mentor" transform="translate(28.000000, 173.000000)">
                    <g id="img-mentor">
                        <path d="M6.37494043,65.750466 C10.8668553,94.3796362 -8.65261277,103.755891 4.82251489,129.201232 C19.5742596,157.057891 70.7388979,156.462466 100.859409,144.21953 C125.089834,134.370636 111.861515,111.123743 114.094515,79.9660191 C114.63194,72.4679766 122.532281,54.6471681 123.561472,44.9426574 C129.181302,-8.0243 -4.23288936,-1.86149149 6.37494043,65.750466" id="Fill-1" fill="#7373E5"></path>
                        <g id="Group-60" transform="translate(0.000000, 0.497936)">
                            <g id="Group-5">
                                <mask id="mask-2" fill="white">
                                    <use xlink:href="#path-1"></use>
                                </mask>
                                <g id="Clip-4"></g>
                                <path d="M69.6177702,26.2945468 C69.6177702,26.2945468 78.8268128,45.7128234 72.4875362,46.8734404 C63.783217,48.4684404 60.2612596,32.3845468 60.2612596,32.3845468 L69.6177702,26.2945468 Z" id="Fill-3" fill="#252740" mask="url(#mask-2)"></path>
                            </g>
                            <g id="Group-8">
                                <mask id="mask-4" fill="white">
                                    <use xlink:href="#path-3"></use>
                                </mask>
                                <g id="Clip-7"></g>
                                <path d="M119.909694,74.5354298 C119.909694,74.5354298 122.788098,73.6314936 123.020715,71.9254298 C123.217545,70.4741957 124.520694,68.7416 124.920523,68.2078766 C125.456098,67.493366 126.281672,64.6877702 127.189311,65.3541532 C128.096949,66.0199191 126.050289,70.0441319 125.789906,70.973366 C125.529523,71.903217 129.467353,70.134217 130.44163,70.3779404 C131.415906,70.6210468 133.976545,77.3089404 131.133311,78.2104085 C128.290077,79.1118766 124.657672,78.1974511 124.189353,78.455366 C123.720417,78.7132809 122.146396,79.1927064 122.146396,79.1927064 L119.909694,74.5354298 Z" id="Fill-6" fill="#EEA886" mask="url(#mask-4)"></path>
                            </g>
                            <g id="Group-11">
                                <mask id="mask-6" fill="white">
                                    <use xlink:href="#path-5"></use>
                                </mask>
                                <g id="Clip-10"></g>
                                <path d="M129.728477,70.4311894 C129.728477,70.4311894 138.615434,68.2500191 139.329328,68.6004872 C140.043838,68.9509553 140.133306,69.4396362 139.310817,69.6778064 C138.488328,69.9165936 130.784817,72.0335936 130.784817,72.0335936 C130.784817,72.0335936 141.737562,71.2203596 142.385434,71.3795511 C142.764902,71.4721043 142.994434,72.4075085 142.565604,72.5765723 C142.137391,72.7450191 131.327796,74.1721894 131.327796,74.1721894 C131.327796,74.1721894 141.55554,73.4311468 142.057796,73.725466 C142.496498,73.9833809 142.492179,74.8953383 141.737562,75.002083 C140.982945,75.1088277 131.529562,76.3336149 131.529562,76.3336149 C131.529562,76.3336149 139.007243,76.2620404 139.284902,76.7618277 C139.454583,77.0678702 139.691519,77.8669128 137.76086,77.8249553 C135.8302,77.7829979 131.266711,78.162466 131.266711,78.162466 L129.728477,70.4311894 Z" id="Fill-9" fill="#EEA886" mask="url(#mask-6)"></path>
                            </g>
                            <g id="Group-14">
                                <mask id="mask-8" fill="white">
                                    <use xlink:href="#path-7"></use>
                                </mask>
                                <g id="Clip-13"></g>
                                <path d="M43.6581426,105.786879 C43.6581426,105.786879 37.6347809,113.618113 36.0015255,122.908602 C34.3676532,132.198474 36.9659298,163.380879 36.8949723,167.972751 C36.8240149,172.564623 32.5523766,183.990623 33.406334,192.640645 C34.2609085,201.290666 41.3979936,243.630666 41.3979936,243.630666 L46.861717,242.510155 C46.861717,242.510155 46.3279936,198.620198 46.861717,194.989645 C47.3954404,191.359091 48.4672064,178.123985 48.6806957,176.62956 C48.8948021,175.134517 62.2391213,135.877772 62.2391213,129.180006 C62.2391213,122.481623 58.1809723,94.8588149 43.6581426,105.786879" id="Fill-12" fill="#EEA886" mask="url(#mask-8)"></path>
                            </g>
                            <g id="Group-17">
                                <mask id="mask-10" fill="white">
                                    <use xlink:href="#path-9"></use>
                                </mask>
                                <g id="Clip-16"></g>
                                <path d="M73.914583,108.848291 C73.914583,108.848291 83.8097532,146.61493 84.9845617,151.847887 C86.1593702,157.080228 87.8611149,161.395674 87.8611149,163.617568 C87.8611149,168.772781 85.9458809,177.049504 85.9458809,177.049504 L70.7393915,236.849972 L64.4322,237.840909 C64.4322,237.840909 68.0800298,201.092972 68.259583,194.04227 C68.4397532,186.97676 73.8787957,176.94276 72.8107319,173.952674 C71.7432851,170.962589 55.6180511,136.470483 55.6180511,136.470483 C55.6180511,136.470483 43.4090511,97.8850574 73.914583,108.848291" id="Fill-15" fill="#EEA886" mask="url(#mask-10)"></path>
                            </g>
                            <g id="Group-20">
                                <mask id="mask-12" fill="white">
                                    <use xlink:href="#path-11"></use>
                                </mask>
                                <g id="Clip-19"></g>
                                <path d="M87.8610532,163.617691 C87.8610532,163.617691 64.9726489,173.444372 30.8945638,173.444372 C30.8945638,173.444372 32.3896064,129.046606 37.3442872,117.926649 C42.2983511,106.807309 74.7036915,111.8095 74.7036915,111.8095 C74.7036915,111.8095 87.8610532,154.30067 87.8610532,163.617691" id="Fill-18" fill="#3F446E" mask="url(#mask-12)"></path>
                            </g>
                            <g id="Group-23">
                                <mask id="mask-14" fill="white">
                                    <use xlink:href="#path-13"></use>
                                </mask>
                                <g id="Clip-22"></g>
                                <path d="M69.8276191,44.6678979 C69.8276191,44.6678979 73.9073638,45.0529191 76.9900021,48.355834 C80.0726404,51.6587489 82.9658532,56.9256426 83.773534,58.6872383 C84.5805979,60.448834 95.8980021,76.773983 96.4854064,77.1411106 C97.0728106,77.5076213 102.018853,76.2075574 105.982598,75.876834 C112.449598,75.3381745 122.125109,72.0432809 122.125109,72.0432809 L123.561534,79.3512809 C123.561534,79.3512809 99.7667255,87.0301106 94.2752362,85.676983 C87.5608106,84.0227489 72.1031936,64.1916851 72.1031936,64.1916851 C72.1031936,64.1916851 60.5790872,50.6863234 69.8276191,44.6678979" id="Fill-21" fill="#EDDAD3" mask="url(#mask-14)"></path>
                            </g>
                            <g id="Group-26">
                                <mask id="mask-16" fill="white">
                                    <use xlink:href="#path-15"></use>
                                </mask>
                                <g id="Clip-25"></g>
                                <path d="M62.7081191,41.8052894 C62.7081191,41.8052894 67.9929064,44.3011404 69.8279277,44.6676511 C71.6629489,45.0347787 78.7821404,54.2833106 80.0297574,57.6596511 C81.2779915,61.0359915 80.0297574,66.1005021 77.4610979,72.0455021 C74.8918213,77.9911191 77.3142468,79.9723745 76.1400553,85.9179915 C74.9658638,91.8636085 74.9664809,108.071523 75.1867574,111.373821 C75.407034,114.677353 41.2086298,120.9068 34.3825234,114.887757 C34.3825234,114.887757 39.0033957,99.6535021 44.4745234,93.9324809 C45.6579702,92.6953532 45.5327149,84.4500979 44.725034,82.3948 C43.9179702,80.3395021 34.8162894,64.9991191 34.8162894,64.9991191 C34.8162894,64.9991191 34.1480553,49.4403106 38.1192043,46.3558213 C41.5689702,43.6767149 50.9711404,42.722183 52.6593106,42.1347787 C54.3474809,41.5479915 59.2583532,41.2919277 62.7081191,41.8052894" id="Fill-24" fill="#EDDAD3" mask="url(#mask-16)"></path>
                            </g>
                            <g id="Group-29">
                                <mask id="mask-18" fill="white">
                                    <use xlink:href="#path-17"></use>
                                </mask>
                                <g id="Clip-28"></g>
                                <path d="M65.2303787,35.7075766 C65.2303787,35.7075766 64.1758894,45.4022149 64.396166,48.5582787 C64.396166,48.5582787 58.9052936,54.0608745 52.6591872,42.1344702 C52.6591872,42.1344702 55.2870809,37.2192787 53.3089106,30.5208957 C51.3313574,23.8231298 65.2303787,35.7075766 65.2303787,35.7075766" id="Fill-27" fill="#EEA886" mask="url(#mask-18)"></path>
                            </g>
                            <g id="Group-32">
                                <mask id="mask-20" fill="white">
                                    <use xlink:href="#path-19"></use>
                                </mask>
                                <g id="Clip-31"></g>
                                <path d="M80.6015511,74.2378404 C80.6015511,74.2378404 81.9238277,65.4459043 80.5182532,60.0987979 C80.5182532,60.0987979 80.5182532,64.6974574 77.9971043,71.2255426 L80.6015511,74.2378404 Z" id="Fill-30" fill="#B8A9A3" mask="url(#mask-20)"></path>
                            </g>
                            <g id="Group-35">
                                <mask id="mask-22" fill="white">
                                    <use xlink:href="#path-21"></use>
                                </mask>
                                <g id="Clip-34"></g>
                                <polygon id="Fill-33" fill="#D44040" mask="url(#mask-22)" points="70.0061851 88.3572 48.0716957 126.349051 23.6876319 112.270477 44.6694404 73.7294766"></polygon>
                            </g>
                            <g id="Group-38">
                                <mask id="mask-24" fill="white">
                                    <use xlink:href="#path-23"></use>
                                </mask>
                                <g id="Clip-37"></g>
                                <path d="M59.1306298,113.588749 C59.1306298,113.588749 58.1329064,113.593062 57.6960553,113.382657 C57.6960553,113.382657 56.9297149,112.938402 56.3663745,112.655189 C56.1868213,112.565721 56.0288638,112.492296 55.9221191,112.455274 C55.4747787,112.300402 54.4462043,112.094317 53.4762468,111.42053 C52.5075234,110.748594 49.072566,106.771891 49.072566,106.771891 L50.6947149,104.30504 L51.8843319,101.779572 C51.8843319,101.779572 59.0954596,102.244806 60.0715872,102.767423 C60.1666085,102.818636 60.2585447,102.872934 60.3412255,102.930934 C61.1248426,103.452934 61.4876511,104.171147 61.8677362,104.491998 C62.0059489,104.610466 63.3066298,105.883381 63.2609702,106.425126 C63.1992681,107.177274 62.8506511,107.67336 62.3971404,107.920785 C62.3971404,107.920785 62.2108,109.388062 61.4876511,110.072955 C61.4876511,110.072955 61.3593106,111.431636 60.2172043,112.027062 C60.2172043,112.027062 59.9321404,113.391296 59.1306298,113.588749" id="Fill-36" fill="#EEA886" mask="url(#mask-24)"></path>
                            </g>
                            <g id="Group-41">
                                <mask id="mask-26" fill="white">
                                    <use xlink:href="#path-25"></use>
                                </mask>
                                <g id="Clip-40"></g>
                                <path d="M44.2664638,44.6678979 C44.2664638,44.6678979 37.6057191,42.7594511 33.7888255,50.0995362 C29.9719319,57.4396213 29.9910596,60.5710043 29.480783,64.1552809 C28.9995064,67.5390255 26.8245064,76.7795362 26.6048468,77.7334511 C26.3845702,78.687983 21.4601234,90.0658553 23.7184213,94.0431745 C25.9884426,98.0408553 49.0428255,109.806834 48.8959745,110.68794 C48.7491234,111.56843 52.8887191,101.791111 52.8887191,101.791111 C52.8887191,101.791111 43.5599745,96.5920894 42.0328468,94.9909191 C39.5505702,92.3901745 34.3151447,89.5882809 35.3906128,86.3618766 C36.6548894,82.5727489 40.4495702,69.7874511 41.3306766,67.9160255 C42.211166,66.043983 49.8813574,47.0533021 44.2664638,44.6678979" id="Fill-39" fill="#EDDAD3" mask="url(#mask-26)"></path>
                            </g>
                            <g id="Group-44">
                                <mask id="mask-28" fill="white">
                                    <use xlink:href="#path-27"></use>
                                </mask>
                                <g id="Clip-43"></g>
                                <path d="M49.006483,17.5185915 C49.006483,17.5185915 47.7946532,16.0636553 47.3423766,17.5290809 C46.891334,18.9945064 48.3709511,23.3506766 48.5338447,23.9806553 C48.5338447,23.9806553 49.2681,26.4252936 49.5611851,26.1136979 C49.8548872,25.8014851 49.006483,17.5185915 49.006483,17.5185915" id="Fill-42" fill="#EEA987" mask="url(#mask-28)"></path>
                            </g>
                            <g id="Group-47">
                                <mask id="mask-30" fill="white">
                                    <use xlink:href="#path-29"></use>
                                </mask>
                                <g id="Clip-46"></g>
                                <path d="M70.172534,17.7000574 C70.172534,17.7000574 71.3843638,16.2451213 71.8366404,17.7105468 C72.287683,19.1753553 70.808066,23.5315255 70.6451723,24.1621213 C70.6451723,24.1621213 69.910917,26.6067596 69.6178319,26.2945468 C69.3241298,25.982334 70.172534,17.7000574 70.172534,17.7000574" id="Fill-45" fill="#EEA987" mask="url(#mask-30)"></path>
                            </g>
                            <g id="Group-50">
                                <mask id="mask-32" fill="white">
                                    <use xlink:href="#path-31"></use>
                                </mask>
                                <g id="Clip-49"></g>
                                <path d="M61.4907362,3.59063191 C61.4907362,3.59063191 72.6119277,5.30286596 70.9842255,22.821334 C69.3559064,40.3391851 59.5403319,38.9484191 58.8850553,38.9342277 C58.2291617,38.9194191 49.0380128,39.2982702 48.2432894,17.9221851 C48.2432894,17.9221851 47.8724596,2.11471702 61.4907362,3.59063191" id="Fill-48" fill="#EEA987" mask="url(#mask-32)"></path>
                            </g>
                            <g id="Group-53">
                                <mask id="mask-34" fill="white">
                                    <use xlink:href="#path-33"></use>
                                </mask>
                                <g id="Clip-52"></g>
                                <path d="M50.3760851,16.8753468 C50.3760851,16.8753468 62.7189787,20.5460064 68.6281915,19.3718149 C68.6281915,19.3718149 69.0058085,21.5517511 69.8542128,21.6862617 C70.703234,21.8201553 71.136383,17.5189 71.136383,17.5189 C71.136383,17.5189 71.425766,3.27311277 58.5386596,3.13921915 C45.6515532,3.00470851 48.2695745,18.5690702 48.2695745,18.5690702 L48.4454255,21.229666 C48.4454255,21.229666 50.2915532,21.9583681 50.3760851,16.8753468" id="Fill-51" fill="#252740" mask="url(#mask-34)"></path>
                            </g>
                            <g id="Group-56">
                                <mask id="mask-36" fill="white">
                                    <use xlink:href="#path-35"></use>
                                </mask>
                                <g id="Clip-55"></g>
                                <path d="M54.5115468,37.2619149 C54.5115468,37.2619149 58.4061851,40.9510851 64.3962277,37.5654894 C64.3962277,37.5654894 62.6259936,40.5216383 59.2687809,40.4469787 C55.9109511,40.3723191 54.5115468,37.2619149 54.5115468,37.2619149" id="Fill-54" fill="#A77860" mask="url(#mask-36)"></path>
                            </g>
                            <g id="Group-59">
                                <mask id="mask-38" fill="white">
                                    <use xlink:href="#path-37"></use>
                                </mask>
                                <g id="Clip-58"></g>
                                <path d="M48.4402426,42.9813936 C48.4402426,42.9813936 52.2176468,54.1389894 62.5891574,53.3183511 C72.9606681,52.4977128 67.505583,43.8976702 67.505583,43.8976702 C67.505583,43.8976702 64.9208809,42.4149681 64.1934128,42.2749043 C63.4659447,42.1354574 52.7266894,41.9990957 52.7266894,41.9990957 L48.4402426,42.9813936 Z" id="Fill-57" fill="#EEA886" mask="url(#mask-38)"></path>
                            </g>
                        </g>
                    </g>
                </g>
            </g>
        </g>
    </g>
</svg>