<svg width="152" height="42" viewBox="0 0 152 42" fill="none" xmlns="http://www.w3.org/2000/svg">
<path fill-rule="evenodd" clip-rule="evenodd" d="M150.718 7.17481C150.183 6.55677 149.464 6.24609 148.496 6.24609C147.528 6.24609 146.788 6.57619 146.272 7.25682C145.759 7.91444 145.491 8.90243 145.491 10.1995V19.5863C144.297 18.2678 143.061 17.321 141.807 16.6832C141.023 16.2934 140.097 16.0058 139.068 15.8596C138.47 15.7775 137.853 15.7347 137.176 15.7347C134.026 15.7347 131.475 16.8476 129.518 19.0704C127.583 21.2945 126.615 24.3818 126.615 28.3521C126.615 30.2276 126.863 31.9767 127.355 33.5828C127.851 35.1873 128.549 36.5865 129.497 37.7813C130.444 38.9762 131.576 39.879 132.874 40.5398C134.169 41.176 135.57 41.5049 137.093 41.5049C137.792 41.5049 138.45 41.4455 139.068 41.3223C139.48 41.2584 139.87 41.1563 140.263 41.0314C141.23 40.7042 142.135 40.2308 142.959 39.6342C143.802 39.0158 144.648 38.2136 145.491 37.2453V37.8637C145.491 39.0372 145.779 39.9218 146.334 40.5596C146.911 41.176 147.631 41.5049 148.496 41.5049C149.382 41.5049 150.1 41.1974 150.658 40.6008C151.212 39.9828 151.501 39.0784 151.501 37.8637V9.87078C151.501 8.69563 151.232 7.79127 150.718 7.17481ZM144.317 33.0682C143.76 34.2618 143.02 35.1477 142.116 35.7233C141.189 36.3002 140.179 36.5865 139.068 36.5865H139.05C137.937 36.5865 136.928 36.2788 136 35.6821C135.075 35.0657 134.335 34.1584 133.799 32.9648C133.265 31.7498 132.997 30.2883 132.997 28.559C132.997 26.9331 133.244 25.4931 133.758 24.2781C134.253 23.0436 134.972 22.0952 135.879 21.4375C136.804 20.7569 137.835 20.4495 139.007 20.4495H139.068C140.159 20.4495 141.167 20.7783 142.094 21.4162C143.02 22.054 143.76 22.9827 144.317 24.196C144.873 25.4107 145.141 26.8722 145.141 28.559C145.141 30.3706 144.873 31.8746 144.317 33.0682Z" fill="#1D5AF1"/>
<path fill-rule="evenodd" clip-rule="evenodd" d="M124.661 33.3359C124.271 32.9857 123.735 32.8002 123.076 32.8002C122.479 32.8002 122.027 32.9448 121.698 33.211C120.894 33.9526 120.256 34.5476 119.762 34.9815C119.27 35.3943 118.713 35.8051 118.116 36.1949C117.541 36.5665 116.922 36.8558 116.306 37.0202C115.666 37.2044 114.989 37.2864 114.226 37.2864C114.062 37.2864 113.896 37.2864 113.753 37.2653C112.804 37.2044 111.921 36.9365 111.119 36.4417C110.171 35.8859 109.431 35.0656 108.852 33.9935C108.297 32.8823 108.01 31.6066 107.989 30.1666H120.401C122.066 30.1666 123.363 29.9182 124.271 29.4648C125.198 28.9713 125.65 27.9424 125.65 26.3574C125.65 24.6281 125.198 22.94 124.312 21.2746C123.426 19.6257 122.109 18.2677 120.319 17.219C118.547 16.17 116.428 15.6538 113.937 15.6538H113.753C111.921 15.6736 110.232 15.9842 108.731 16.5598C107.166 17.1778 105.847 18.0624 104.756 19.1935C103.709 20.3459 102.885 21.725 102.329 23.331C101.774 24.9387 101.484 26.6865 101.484 28.5588C101.484 32.5534 102.617 35.6819 104.882 38.0065C107.021 40.2109 109.987 41.3633 113.753 41.4852C113.958 41.5047 114.184 41.5047 114.412 41.5047C116.183 41.5047 117.766 41.2797 119.145 40.8076C120.524 40.3328 121.657 39.7556 122.564 39.0568C123.467 38.337 124.147 37.597 124.598 36.8343C125.052 36.0733 125.278 35.3943 125.278 34.8369C125.279 34.1991 125.073 33.6861 124.661 33.3359ZM109.84 21.7052C110.85 20.6137 112.147 20.0793 113.732 20.0793H113.753C115.399 20.0793 116.737 20.6137 117.746 21.6838C118.755 22.7558 119.352 24.3817 119.495 26.5629H107.989C108.193 24.4225 108.813 22.7954 109.84 21.7052Z" fill="#1D5AF1"/>
<path fill-rule="evenodd" clip-rule="evenodd" d="M97.6763 32.8002C97.0583 32.8002 96.6063 32.9448 96.2775 33.211C95.4947 33.9526 94.8371 34.5476 94.3422 34.9815C93.8478 35.3943 93.3134 35.8051 92.7151 36.1949C92.1198 36.5665 91.5215 36.8558 90.8837 37.0202C90.2656 37.2044 89.5652 37.2864 88.8042 37.2864C88.6411 37.2864 88.4766 37.2864 88.332 37.2653C87.3839 37.2044 86.4993 36.9365 85.6955 36.4417C84.7713 35.8859 84.0086 35.0656 83.4545 33.9935C82.876 32.8823 82.5884 31.6066 82.567 30.1666H95.0002C96.6471 30.1666 97.9442 29.9182 98.8699 29.4648C99.7756 28.9713 100.229 27.9424 100.229 26.3574C100.229 24.6281 99.797 22.94 98.9108 21.2746C98.0265 19.6257 96.6883 18.2677 94.9194 17.219C93.1457 16.17 91.0085 15.6538 88.5392 15.6538H88.332C86.4992 15.6736 84.8322 15.9842 83.3098 16.5598C81.7433 17.1778 80.4264 18.0624 79.3564 19.1935C78.2863 20.3459 77.4627 21.725 76.9085 23.331C76.3511 24.9387 76.0635 26.6865 76.0635 28.5588C76.0635 32.5534 77.2175 35.6819 79.4812 38.0065C81.6217 40.2109 84.566 41.3633 88.332 41.4852C88.559 41.5047 88.7629 41.5047 88.9899 41.5047C90.7801 41.5047 92.3467 41.2797 93.7228 40.8076C95.1019 40.3328 96.2362 39.7556 97.1403 39.0568C98.066 38.337 98.7253 37.597 99.1789 36.8343C99.6309 36.0733 99.8592 35.3943 99.8592 34.8369C99.8592 34.1991 99.6523 33.6861 99.2609 33.3359C98.8501 32.9857 98.3125 32.8002 97.6763 32.8002ZM84.4198 21.7052C85.4289 20.6137 86.7247 20.0793 88.3109 20.0793H88.332C89.9777 20.0793 91.3159 20.6137 92.3253 21.6838C93.3529 22.7558 93.9298 24.3817 94.0942 26.5629H82.5669C82.7955 24.4225 83.4136 22.7954 84.4198 21.7052Z" fill="#1D5AF1"/>
<path fill-rule="evenodd" clip-rule="evenodd" d="M13.2227 37.2865V22.1379C13.6536 22.1774 14.0661 22.1985 14.4983 22.1985C16.5567 22.1985 18.4932 21.643 20.1389 20.655V37.2865C20.1389 38.7071 19.8101 39.7557 19.1706 40.4574C18.5341 41.1562 17.6894 41.5048 16.6602 41.5048C15.6508 41.5048 14.8485 41.1562 14.1893 40.4363C13.5514 39.7359 13.2227 38.6856 13.2227 37.2865Z" fill="#1D5AF1"/>
<path fill-rule="evenodd" clip-rule="evenodd" d="M73.0173 7.17481C72.4813 6.55677 71.7416 6.24609 70.8146 6.24609C69.8463 6.24609 69.1048 6.57619 68.5901 7.25682C68.0574 7.91444 67.8077 8.90243 67.8077 10.1995V19.5863C66.6144 18.2678 65.3812 17.321 64.1237 16.6832C63.3231 16.2934 62.4155 16.0058 61.3866 15.8596C60.7913 15.7775 60.1732 15.7347 59.4942 15.7347C56.3447 15.7347 53.7716 16.8476 51.8367 19.0704C49.9018 21.2945 48.9336 24.3818 48.9336 28.3521C48.9336 30.2276 49.182 31.9767 49.6538 33.5828C50.1486 35.1873 50.8685 36.5865 51.8169 37.7813C52.7625 38.9762 53.8951 39.879 55.1935 40.5398C56.4906 41.176 57.8881 41.5049 59.4121 41.5049C60.0909 41.5049 60.7501 41.4455 61.3866 41.3223C61.7991 41.2584 62.1904 41.1563 62.5815 41.0314C63.5481 40.7042 64.4541 40.2308 65.2778 39.6342C66.1212 39.0158 66.9461 38.2136 67.8077 37.2453V37.8637C67.8077 39.0372 68.0986 39.9218 68.6527 40.5596C69.2085 41.176 69.9498 41.5049 70.8145 41.5049C71.6563 41.5049 72.3992 41.1974 72.9563 40.6008C73.5105 39.9828 73.7783 39.0784 73.7783 37.8637V9.87078C73.7783 8.69563 73.5332 7.79127 73.0173 7.17481ZM66.6355 33.0682C66.08 34.2618 65.3384 35.1477 64.4146 35.7233C63.5073 36.3002 62.4781 36.5865 61.3866 36.5865H61.3669C60.257 36.5865 59.2462 36.2788 58.3205 35.6821C57.3736 35.0657 56.6537 34.1584 56.1178 32.9648C55.5833 31.7498 55.3155 30.2883 55.3155 28.559C55.3155 26.9331 55.5636 25.4931 56.0568 24.2781C56.5714 23.0436 57.2702 22.0952 58.1973 21.4375C59.1032 20.7569 60.1519 20.4495 61.3059 20.4495H61.3867C62.4782 20.4495 63.486 20.7783 64.3933 21.4162C65.3385 22.054 66.0801 22.9827 66.6356 24.196C67.17 25.4107 67.4592 26.8722 67.4592 28.559C67.4591 30.3706 67.1698 31.8746 66.6355 33.0682Z" fill="#1D5AF1"/>
<path fill-rule="evenodd" clip-rule="evenodd" d="M30.2868 19.1935V19.9775C31.4178 18.4947 32.6328 17.4243 33.9497 16.7242C35.2876 16.0452 36.8116 15.6934 38.5393 15.6934C40.208 15.6934 41.7106 16.0649 43.0274 16.7865C44.3455 17.505 45.3125 18.5359 45.9701 19.8737C46.404 20.6549 46.6702 21.4996 46.795 22.4056C46.9186 23.2898 46.9792 24.441 46.9792 25.8415V37.6382C46.9792 38.9139 46.6702 39.8789 46.0934 40.5183C45.5178 41.1759 44.7552 41.5047 43.8296 41.5047C42.8841 41.5047 42.1215 41.1759 41.5248 40.4972C40.9265 39.838 40.6402 38.8727 40.6402 37.6382V27.076C40.6402 24.9783 40.351 23.3723 39.7741 22.261C39.1985 21.151 38.025 20.594 36.2971 20.594C35.1644 20.594 34.1352 20.9442 33.2081 21.6018C32.2827 22.2824 31.5823 23.2062 31.15 24.4015C30.841 25.3483 30.6964 27.0974 30.6964 29.7129V37.6381C30.6964 38.9336 30.3903 39.8788 29.792 40.5396C29.1954 41.1758 28.434 41.5047 27.4872 41.5047C26.5617 41.5047 25.8188 41.1758 25.2218 40.4972C24.6251 39.8379 24.3359 38.8726 24.3359 37.6381V19.2969C24.3359 18.0835 24.6038 17.1779 25.1398 16.6007C25.6544 16.0056 26.3742 15.6934 27.3016 15.6934C27.8571 15.6934 28.3503 15.8169 28.8039 16.0864C29.2576 16.3526 29.6259 16.7453 29.8954 17.2796C30.162 17.8141 30.2868 18.4535 30.2868 19.1935Z" fill="#1D5AF1"/>
<path fill-rule="evenodd" clip-rule="evenodd" d="M13.2626 0.97866C17.5451 -0.565163 22.424 -0.483158 26.0868 2.68654C26.7674 3.32437 27.5483 4.12657 27.8573 5.07345C28.2273 6.26739 26.5619 4.94893 26.3336 4.78619C25.14 4.00341 23.9464 3.34579 22.6084 2.89216C15.4046 0.669298 8.59056 4.68399 4.35083 10.9193C2.58195 13.6781 1.42791 16.5796 0.481082 19.7703C0.378927 20.1205 0.296877 20.5742 0.111088 20.8803C-0.0747469 21.2335 0.028721 19.9364 0.028721 19.8936C0.172036 18.5768 0.439876 17.3011 0.770294 16.0255C2.725 9.23114 7.04837 3.57111 13.2626 0.97866Z" fill="#1D5AF1"/>
<path fill-rule="evenodd" clip-rule="evenodd" d="M18.8419 17.8354C16.2689 19.1523 13.1177 18.1247 11.8223 15.552C10.5038 12.9776 11.5346 9.82934 14.1074 8.5323C16.6801 7.21548 19.8313 8.24305 21.1267 10.8174C22.4435 13.3901 21.4146 16.5384 18.8419 17.8354Z" fill="#1D5AF1"/>
</svg>
