<svg width="205" height="252" viewBox="0 0 205 252" fill="none" xmlns="http://www.w3.org/2000/svg">
<rect width="34.3742" height="20.591" rx="4" transform="matrix(1 0 0.00759524 0.999971 115 121)" fill="white" fill-opacity="0.07"/>
<rect x="115" y="146" width="24" height="4" rx="1" fill="white" fill-opacity="0.07"/>
<rect x="115" y="153" width="18" height="4" rx="1" fill="white" fill-opacity="0.07"/>
<rect width="34.3742" height="20.591" rx="4" transform="matrix(1 0 0.00759524 0.999971 67 121)" fill="white" fill-opacity="0.07"/>
<rect x="67" y="146" width="24" height="4" rx="1" fill="white" fill-opacity="0.07"/>
<rect x="67" y="153" width="18" height="4" rx="1" fill="white" fill-opacity="0.07"/>
<rect width="34.3742" height="20.591" rx="4" transform="matrix(1 0 0.00759524 0.999971 19 121)" fill="white" fill-opacity="0.07"/>
<rect x="19" y="146" width="24" height="4" rx="1" fill="white" fill-opacity="0.07"/>
<rect x="19" y="153" width="18" height="4" rx="1" fill="white" fill-opacity="0.07"/>
<rect width="34.3742" height="20.591" rx="4" transform="matrix(1 0 0.00759524 0.999971 115 74)" fill="white" fill-opacity="0.2"/>
<rect x="115" y="99" width="24" height="4" rx="1" fill="white" fill-opacity="0.2"/>
<rect x="115" y="106" width="18" height="4" rx="1" fill="white" fill-opacity="0.2"/>
<circle cx="158.5" cy="46.5" r="39.5" fill="#5C6AC4"/>
<path fill-rule="evenodd" clip-rule="evenodd" d="M204.5 46.5C204.5 72.1812 183.681 93 158 93C153.737 93 149.608 92.4264 145.686 91.3521L135.5 119L139 121.5L110 195L91 187.5L120.5 115.5H125.5L128 110.5L137.08 88.0395C121.906 80.3827 111.5 64.6566 111.5 46.5C111.5 20.8188 132.319 0 158 0C183.681 0 204.5 20.8188 204.5 46.5ZM198 46C198 68.0914 180.091 86 158 86C135.909 86 118 68.0914 118 46C118 23.9086 135.909 6 158 6C180.091 6 198 23.9086 198 46Z" fill="url(#paint0_linear)"/>
<path d="M59 172L39 199L0 252H73.5H88L104 193L92.5 186.5L97.2232 175.964C98.3941 173.352 100.112 171.021 102.261 169.13L107.157 164.821C109.994 162.325 112.066 159.076 113.132 155.45L117.655 140.075C118.539 137.067 120.118 134.309 122.265 132.025L131.646 122.038C133.399 120.172 133.965 117.484 133.113 115.069C132.146 112.331 129.558 110.5 126.654 110.5H126.276C124.19 110.5 122.201 111.383 120.802 112.93L104 131.5L94.5856 133.854C90.3148 134.921 86.5157 137.368 83.7772 140.815L59 172Z" fill="url(#paint1_linear)"/>
<path d="M129.543 170.426L129 169L118.611 172L114.167 175.938L112.856 182.129C112.626 183.216 112.789 184.349 113.316 185.327C114.654 187.81 117.863 188.562 120.163 186.931L125.723 182.99C129.713 180.163 131.284 174.995 129.543 170.426Z" fill="url(#paint2_linear)" stroke="#ECECEC"/>
<path d="M125.163 172.931L131.966 168.109C135.182 165.83 136.336 161.595 134.722 158H123.611L119.167 161.938L117.856 168.129C117.626 169.216 117.789 170.349 118.316 171.327C119.654 173.81 122.863 174.562 125.163 172.931Z" fill="url(#paint3_linear)" stroke="#ECECEC"/>
<path d="M129.854 160.302L136.051 155.965C138.92 153.956 139.949 150.188 138.5 147H128.5L124.5 150.5L123.327 155.974C123.116 156.959 123.265 157.986 123.747 158.87C124.949 161.073 127.798 161.741 129.854 160.302Z" fill="url(#paint4_linear)" stroke="#ECECEC"/>
<path d="M142.652 134.676L138.5 124L134.5 136.5L129.728 139.416C127.365 140.86 126.562 143.911 127.907 146.332C129.325 148.884 132.575 149.755 135.079 148.252L138.761 146.043C142.654 143.708 144.297 138.907 142.652 134.676Z" fill="url(#paint5_linear)" stroke="#ECECEC"/>
<rect width="47.7296" height="28.5912" rx="4" transform="matrix(1 0 0.00759524 0.999971 136 23)" fill="url(#paint6_linear)" fill-opacity="0.95"/>
<path d="M160.539 43.6341C161.425 43.5311 162.094 43.2454 162.546 42.777C163.004 42.3086 163.231 41.7051 163.226 40.9663C163.224 40.6518 163.162 40.3776 163.042 40.1436C162.921 39.9096 162.755 39.7049 162.545 39.5295C162.343 39.3541 162.099 39.2043 161.815 39.0801C161.531 38.9487 161.225 38.8282 160.896 38.7187L160.539 43.6341ZM159.907 31.5549C159.46 31.5991 159.076 31.6908 158.757 31.8299C158.437 31.9618 158.174 32.1265 157.966 32.3242C157.759 32.5145 157.608 32.7303 157.512 32.9717C157.417 33.2132 157.37 33.4692 157.372 33.7398C157.374 34.047 157.432 34.3176 157.546 34.5516C157.659 34.7856 157.813 34.994 158.009 35.1767C158.211 35.3521 158.447 35.5092 158.716 35.648C158.986 35.7795 159.277 35.9037 159.591 36.0205L159.907 31.5549ZM161.059 36.4804C161.597 36.641 162.128 36.8198 162.651 37.017C163.181 37.2068 163.657 37.4552 164.076 37.7622C164.496 38.0618 164.834 38.4383 165.09 38.8916C165.354 39.3449 165.489 39.9117 165.494 40.5919C165.498 41.2575 165.387 41.8866 165.16 42.4792C164.941 43.0645 164.612 43.584 164.176 44.0377C163.739 44.4842 163.201 44.8502 162.562 45.1359C161.93 45.4142 161.208 45.5792 160.396 45.6309L160.274 47.3864C160.268 47.5401 160.205 47.6791 160.087 47.8035C159.968 47.9352 159.816 48.0011 159.63 48.0012L158.735 48.0018L158.909 45.599C158.028 45.4971 157.207 45.2709 156.444 44.9203C155.688 44.5623 155.04 44.1166 154.5 43.583L155.219 42.4964C155.286 42.4012 155.371 42.3244 155.475 42.2658C155.586 42.1999 155.705 42.1669 155.832 42.1668C155.988 42.1667 156.157 42.2288 156.336 42.353C156.524 42.4773 156.741 42.6234 156.988 42.7915C157.235 42.9522 157.527 43.113 157.864 43.2737C158.2 43.4271 158.596 43.5402 159.051 43.613L159.428 38.2917C158.905 38.1384 158.386 37.9668 157.87 37.777C157.362 37.5798 156.902 37.3205 156.489 36.9989C156.084 36.6773 155.754 36.2752 155.497 35.7927C155.247 35.3101 155.12 34.7031 155.115 33.9716C155.111 33.4231 155.216 32.8891 155.428 32.3696C155.648 31.8502 155.966 31.3892 156.38 30.9866C156.802 30.5768 157.322 30.2436 157.939 29.9873C158.556 29.7236 159.263 29.5732 160.06 29.5361L160.162 28.0659C160.168 27.905 160.231 27.7623 160.349 27.6379C160.468 27.5135 160.62 27.4512 160.806 27.4511L161.701 27.4505L161.548 29.601C162.332 29.7102 163.011 29.9219 163.588 30.2361C164.164 30.5429 164.666 30.901 165.094 31.3103L164.518 32.1884C164.356 32.4445 164.156 32.5726 163.917 32.5728C163.805 32.5729 163.671 32.5327 163.514 32.4524C163.364 32.372 163.184 32.277 162.975 32.1674C162.773 32.0578 162.541 31.9483 162.279 31.8387C162.018 31.7292 161.726 31.6452 161.405 31.5869L161.059 36.4804Z" fill="white"/>
<rect width="34.3742" height="20.591" rx="4" transform="matrix(1 0 0.00759524 0.999971 67 27)" fill="white" fill-opacity="0.4"/>
<rect x="136" y="56.5898" width="34" height="5" rx="1" fill="white" fill-opacity="0.4"/>
<rect x="136" y="66.5898" width="25" height="5" rx="1" fill="white" fill-opacity="0.4"/>
<rect x="67" y="52" width="24" height="4" rx="1" fill="white" fill-opacity="0.4"/>
<rect x="67" y="59" width="18" height="4" rx="1" fill="white" fill-opacity="0.4"/>
<rect width="34.3742" height="20.591" rx="4" transform="matrix(1 0 0.00759524 0.999971 19 27)" fill="white" fill-opacity="0.4"/>
<rect x="19" y="52" width="24" height="4" rx="1" fill="white" fill-opacity="0.4"/>
<rect x="19" y="59" width="18" height="4" rx="1" fill="white" fill-opacity="0.4"/>
<rect width="34.3742" height="20.591" rx="4" transform="matrix(1 0 0.00759524 0.999971 67 74)" fill="white" fill-opacity="0.2"/>
<rect x="67" y="99" width="24" height="4" rx="1" fill="white" fill-opacity="0.2"/>
<rect x="67" y="106" width="18" height="4" rx="1" fill="white" fill-opacity="0.2"/>
<rect width="34.3742" height="20.591" rx="4" transform="matrix(1 0 0.00759524 0.999971 19 74)" fill="white" fill-opacity="0.2"/>
<rect x="19" y="99" width="24" height="4" rx="1" fill="white" fill-opacity="0.2"/>
<rect x="19" y="106" width="18" height="4" rx="1" fill="white" fill-opacity="0.2"/>
<defs>
<linearGradient id="paint0_linear" x1="147.75" y1="0" x2="100.5" y2="195" gradientUnits="userSpaceOnUse">
<stop stop-color="#272F64"/>
<stop offset="1" stop-color="#41487D"/>
</linearGradient>
<linearGradient id="paint1_linear" x1="58.5" y1="196" x2="32.5" y2="252" gradientUnits="userSpaceOnUse">
<stop stop-color="white"/>
<stop offset="1" stop-color="#C4CDD5"/>
</linearGradient>
<linearGradient id="paint2_linear" x1="122.5" y1="169" x2="122.5" y2="190" gradientUnits="userSpaceOnUse">
<stop stop-color="white"/>
<stop offset="1" stop-color="#E8EBEE"/>
</linearGradient>
<linearGradient id="paint3_linear" x1="127.5" y1="158" x2="127.5" y2="176" gradientUnits="userSpaceOnUse">
<stop stop-color="white"/>
<stop offset="1" stop-color="#E8EBEE"/>
</linearGradient>
<linearGradient id="paint4_linear" x1="132" y1="147" x2="132" y2="163" gradientUnits="userSpaceOnUse">
<stop stop-color="white"/>
<stop offset="1" stop-color="#E8EBEE"/>
</linearGradient>
<linearGradient id="paint5_linear" x1="135.5" y1="124" x2="135.5" y2="151" gradientUnits="userSpaceOnUse">
<stop stop-color="white"/>
<stop offset="1" stop-color="#E8EBEE"/>
</linearGradient>
<linearGradient id="paint6_linear" x1="5.30329" y1="3.44819" x2="48.8148" y2="26.547" gradientUnits="userSpaceOnUse">
<stop stop-color="#3DFF17"/>
<stop offset="1" stop-color="#00FF94"/>
</linearGradient>
</defs>
</svg>
