<svg width="32" height="32" viewBox="0 0 32 32" fill="none" xmlns="http://www.w3.org/2000/svg">
<path fill-rule="evenodd" clip-rule="evenodd" d="M16 32C24.8366 32 32 24.8366 32 16C32 7.16344 24.8366 0 16 0C7.16344 0 0 7.16344 0 16C0 24.8366 7.16344 32 16 32ZM24.32 23.04V17.0972C24.32 13.9138 22.628 12.4325 20.371 12.4325C18.5493 12.4325 17.7354 13.4399 17.2797 14.1451V12.676H13.8495C13.8957 13.649 13.8495 23.04 13.8495 23.04H17.28V17.2521C17.28 16.942 17.3033 16.6336 17.3938 16.4121C17.6419 15.7924 18.2058 15.1518 19.1533 15.1518C20.3946 15.1518 20.8907 16.1023 20.8907 17.4953V23.04H24.32ZM17.2797 14.1451V14.1785H17.2572C17.2606 14.1729 17.2648 14.1669 17.269 14.1608C17.2727 14.1555 17.2764 14.1502 17.2797 14.1451ZM8.31997 9.47034C8.31997 8.45337 9.08758 7.68003 10.2611 7.68003C11.4348 7.68003 12.1562 8.45337 12.1788 9.47034C12.1788 10.4653 11.4348 11.262 10.2385 11.262H10.2156C9.06538 11.262 8.31997 10.4651 8.31997 9.47034ZM11.9529 23.04H8.52371V12.676H11.9529V23.04Z" />
</svg>
