<svg width="98" height="22" viewBox="0 0 98 22" fill="none" xmlns="http://www.w3.org/2000/svg">
<g clip-path="url(#clip0)">
<path d="M6.32292 3.57292C6.32292 3.47569 6.34028 3.39931 6.375 3.34375C6.40972 3.28125 6.44792 3.23611 6.48958 3.20833C6.53125 3.18055 6.57292 3.16319 6.61458 3.15625C6.66319 3.1493 6.69792 3.14583 6.71875 3.14583H9.63542C9.83681 3.14583 9.97222 3.18403 10.0417 3.26042C10.1181 3.32986 10.1562 3.46528 10.1562 3.66667L10.0938 13.7187C10.0868 14.2812 10.0104 14.7882 9.86458 15.2396C9.71875 15.691 9.51736 16.0903 9.26042 16.4375C9.01042 16.7778 8.71875 17.0694 8.38542 17.3125C8.05208 17.5556 7.69792 17.7535 7.32292 17.9062C6.95486 18.059 6.57292 18.1701 6.17708 18.2396C5.78125 18.316 5.39931 18.3542 5.03125 18.3542C4.33681 18.3542 3.72222 18.2639 3.1875 18.0833C2.65972 17.9028 2.19792 17.6736 1.80208 17.3958C1.41319 17.1111 1.09028 16.7951 0.833333 16.4479C0.576389 16.1007 0.371528 15.7639 0.21875 15.4375C0.149306 15.2917 0.104167 15.1424 0.0833333 14.9896C0.0625 14.8299 0.131944 14.7083 0.291667 14.625L2.35417 13.5312C2.53472 13.434 2.68056 13.3993 2.79167 13.4271C2.90278 13.4479 3.01389 13.5625 3.125 13.7708C3.19444 13.9028 3.28819 14.0312 3.40625 14.1562C3.52431 14.2812 3.65625 14.3924 3.80208 14.4896C3.94792 14.5868 4.10069 14.6667 4.26042 14.7292C4.42708 14.7847 4.59375 14.8125 4.76042 14.8125C5.22569 14.8125 5.60069 14.6979 5.88542 14.4687C6.17708 14.2326 6.32292 13.8715 6.32292 13.3854V3.57292ZM12.181 10.4583C12.181 9.6875 12.3234 8.96875 12.6081 8.30208C12.8997 7.62847 13.2956 7.04167 13.7956 6.54167C14.3025 6.04167 14.8963 5.6493 15.5768 5.36458C16.2574 5.07986 16.99 4.9375 17.7747 4.9375C18.5664 4.9375 19.306 5.07986 19.9935 5.36458C20.681 5.6493 21.2782 6.04167 21.7852 6.54167C22.2921 7.04167 22.6879 7.62847 22.9727 8.30208C23.2643 8.96875 23.4102 9.6875 23.4102 10.4583V12.8542C23.4102 13.6181 23.2643 14.3368 22.9727 15.0104C22.6879 15.6771 22.2921 16.2604 21.7852 16.7604C21.2782 17.2535 20.681 17.6424 19.9935 17.9271C19.3129 18.2118 18.5768 18.3542 17.7852 18.3542C16.9935 18.3542 16.2574 18.2118 15.5768 17.9271C14.8963 17.6424 14.3025 17.2535 13.7956 16.7604C13.2956 16.2604 12.8997 15.6771 12.6081 15.0104C12.3234 14.3368 12.181 13.6181 12.181 12.8542V10.4583ZM15.8893 12.9375C15.8893 13.2222 15.9345 13.4896 16.0247 13.7396C16.122 13.9826 16.2539 14.1944 16.4206 14.375C16.5872 14.5556 16.7886 14.6979 17.0247 14.8021C17.2609 14.8993 17.5213 14.9479 17.806 14.9479C18.0907 14.9479 18.3511 14.8958 18.5872 14.7917C18.8234 14.6875 19.0247 14.5486 19.1914 14.375C19.3581 14.1944 19.4865 13.9826 19.5768 13.7396C19.674 13.4965 19.7227 13.2326 19.7227 12.9479V10.3437C19.7227 10.059 19.674 9.79514 19.5768 9.55208C19.4865 9.30903 19.3581 9.09722 19.1914 8.91667C19.0247 8.73611 18.8234 8.59375 18.5872 8.48958C18.3511 8.38542 18.0907 8.33333 17.806 8.33333C17.5213 8.33333 17.2609 8.38542 17.0247 8.48958C16.7886 8.59375 16.5872 8.73611 16.4206 8.91667C16.2539 9.09722 16.122 9.30903 16.0247 9.55208C15.9345 9.79514 15.8893 10.059 15.8893 10.3437V12.9375ZM36.9258 12.8542C36.9258 13.6181 36.7938 14.3368 36.5299 15.0104C36.2661 15.6771 35.9015 16.2604 35.4362 16.7604C34.9709 17.2535 34.4223 17.6424 33.7904 17.9271C33.1584 18.2118 32.4744 18.3542 31.7383 18.3542C31.4258 18.3542 31.1341 18.3056 30.8633 18.2083C30.5924 18.1181 30.3355 17.9931 30.0924 17.8333C29.8563 17.6667 29.6376 17.4722 29.4362 17.25C29.2418 17.0208 29.0612 16.7743 28.8945 16.5104L28.6862 17.5312C28.6515 17.684 28.582 17.8021 28.4779 17.8854C28.3737 17.9618 28.2522 18 28.1133 18H26.1549C26.0161 18 25.9049 17.9618 25.8216 17.8854C25.7383 17.809 25.6966 17.691 25.6966 17.5312V1.98958C25.6966 1.82986 25.7383 1.7118 25.8216 1.63542C25.9049 1.55903 26.0161 1.52083 26.1549 1.52083H28.7591C28.9188 1.52083 29.0612 1.55903 29.1862 1.63542C29.3181 1.70486 29.3841 1.81944 29.3841 1.97917V6.20833C29.6966 5.83333 30.0473 5.52778 30.4362 5.29167C30.8251 5.05555 31.2626 4.9375 31.7487 4.9375C32.4848 4.9375 33.1654 5.07986 33.7904 5.36458C34.4223 5.6493 34.9709 6.04167 35.4362 6.54167C35.9015 7.04167 36.2661 7.62847 36.5299 8.30208C36.7938 8.96875 36.9258 9.6875 36.9258 10.4583V12.8542ZM33.2174 10.3437C33.2174 10.059 33.1723 9.79514 33.082 9.55208C32.9918 9.30903 32.8633 9.09722 32.6966 8.91667C32.5369 8.73611 32.3459 8.59375 32.1237 8.48958C31.9015 8.38542 31.6619 8.33333 31.4049 8.33333C31.1202 8.33333 30.8529 8.38542 30.6029 8.48958C30.3598 8.59375 30.148 8.73611 29.9674 8.91667C29.7869 9.09722 29.6445 9.30903 29.5404 9.55208C29.4362 9.79514 29.3841 10.059 29.3841 10.3437V13.0312C29.3911 13.3021 29.4466 13.5556 29.5508 13.7917C29.6619 14.0208 29.8077 14.2222 29.9883 14.3958C30.1688 14.5694 30.3772 14.7049 30.6133 14.8021C30.8563 14.8993 31.1202 14.9479 31.4049 14.9479C31.6619 14.9479 31.9015 14.8993 32.1237 14.8021C32.3459 14.6979 32.5369 14.5556 32.6966 14.375C32.8633 14.1944 32.9918 13.9826 33.082 13.7396C33.1723 13.4896 33.2174 13.2222 33.2174 12.9375V10.3437ZM38.2852 15.5625C38.2018 15.4236 38.1567 15.2917 38.1497 15.1667C38.1428 15.0417 38.24 14.9201 38.4414 14.8021L40.6393 13.6562C40.8477 13.5382 41.0282 13.6076 41.181 13.8646C41.2713 14.0174 41.3859 14.1667 41.5247 14.3125C41.6636 14.4583 41.8164 14.5868 41.9831 14.6979C42.1567 14.809 42.3407 14.8993 42.5352 14.9687C42.7365 15.0312 42.9449 15.0625 43.1602 15.0625C43.5282 15.0625 43.8338 15.0035 44.0768 14.8854C44.3268 14.7604 44.4518 14.5729 44.4518 14.3229C44.4518 14.1632 44.3754 14.0208 44.2227 13.8958C44.0768 13.7639 43.8754 13.6424 43.6185 13.5312C43.3685 13.4132 43.0768 13.2986 42.7435 13.1875C42.4171 13.0694 42.0768 12.9444 41.7227 12.8125C41.2088 12.625 40.747 12.4167 40.3372 12.1875C39.9345 11.9583 39.5907 11.6944 39.306 11.3958C39.0213 11.0903 38.8025 10.7465 38.6497 10.3646C38.5039 9.97569 38.431 9.52431 38.431 9.01042C38.431 8.46875 38.5456 7.95486 38.7747 7.46875C39.0109 6.97569 39.3338 6.54514 39.7435 6.17708C40.1602 5.80208 40.6532 5.50347 41.2227 5.28125C41.7921 5.05903 42.4102 4.94792 43.0768 4.94792C43.6115 4.94792 44.122 5.03125 44.6081 5.19792C45.0942 5.36458 45.5352 5.57986 45.931 5.84375C46.3268 6.10069 46.6671 6.38889 46.9518 6.70833C47.2435 7.02083 47.4588 7.32639 47.5977 7.625C47.6324 7.70139 47.6602 7.77083 47.681 7.83333C47.7018 7.88889 47.7088 7.94097 47.7018 7.98958C47.6949 8.03819 47.6706 8.08333 47.6289 8.125C47.5872 8.16667 47.5213 8.20833 47.431 8.25L45.4518 9.17708C45.299 9.25347 45.181 9.28472 45.0977 9.27083C45.0213 9.25 44.9414 9.17708 44.8581 9.05208C44.6845 8.80208 44.4518 8.60417 44.1602 8.45833C43.8754 8.3125 43.556 8.23958 43.2018 8.23958C42.8338 8.23958 42.5456 8.29861 42.3372 8.41667C42.1359 8.52778 42.0352 8.68056 42.0352 8.875C42.0352 9.01389 42.0907 9.13194 42.2018 9.22917C42.3199 9.31944 42.49 9.40972 42.7122 9.5C42.9414 9.59028 43.2261 9.69097 43.5664 9.80208C43.9136 9.91319 44.3164 10.0521 44.7747 10.2187C45.3581 10.434 45.8546 10.6875 46.2643 10.9792C46.681 11.2708 47.0213 11.5903 47.2852 11.9375C47.549 12.2847 47.7435 12.6562 47.8685 13.0521C47.9935 13.4479 48.056 13.8576 48.056 14.2812C48.056 14.9132 47.9206 15.4826 47.6497 15.9896C47.3859 16.4896 47.0317 16.9167 46.5872 17.2708C46.1428 17.6181 45.6324 17.8854 45.056 18.0729C44.4796 18.2604 43.8824 18.3542 43.2643 18.3542C42.8129 18.3542 42.3546 18.3021 41.8893 18.1979C41.424 18.0938 40.9727 17.9306 40.5352 17.7083C40.0977 17.4792 39.6845 17.191 39.2956 16.8437C38.9136 16.4896 38.5768 16.0625 38.2852 15.5625ZM50.513 3.5625C50.513 3.28472 50.645 3.14583 50.9089 3.14583H56.2214C56.7908 3.14583 57.3325 3.23611 57.8464 3.41667C58.3602 3.59028 58.8116 3.8368 59.2005 4.15625C59.5894 4.47569 59.895 4.85764 60.1172 5.30208C60.3464 5.74653 60.4609 6.23611 60.4609 6.77083V7.66667C60.4609 7.95139 60.4158 8.22917 60.3255 8.5C60.2422 8.77083 60.1276 9.02083 59.9818 9.25C59.8429 9.47917 59.6797 9.68056 59.4922 9.85417C59.3116 10.0278 59.1207 10.1597 58.9193 10.25C59.1901 10.3472 59.4505 10.4896 59.7005 10.6771C59.9505 10.8646 60.1727 11.0937 60.3672 11.3646C60.5616 11.6354 60.7179 11.941 60.8359 12.2812C60.954 12.6215 61.013 12.9861 61.013 13.375V14.2396C61.013 14.7812 60.9019 15.2847 60.6797 15.75C60.4575 16.2083 60.1589 16.6042 59.7839 16.9375C59.4089 17.2708 58.9748 17.5312 58.4818 17.7187C57.9887 17.9062 57.4679 18 56.9193 18H50.9089C50.645 18 50.513 17.8611 50.513 17.5833V3.5625ZM53.388 11.6458V15.4062H56.4609C56.7109 15.4062 56.9366 15.3646 57.138 15.2812C57.3394 15.191 57.5095 15.0729 57.6484 14.9271C57.7943 14.7812 57.9054 14.6146 57.9818 14.4271C58.0582 14.2396 58.0964 14.0417 58.0964 13.8333V13.1771C58.0964 12.9062 58.0477 12.6771 57.9505 12.4896C57.8533 12.2951 57.7283 12.1354 57.5755 12.0104C57.4227 11.8854 57.2526 11.7951 57.0651 11.7396C56.8776 11.6771 56.6901 11.6458 56.5026 11.6458H53.388ZM53.388 5.73958V9.26042H56.0339C56.2214 9.26042 56.4054 9.23611 56.5859 9.1875C56.7734 9.13194 56.9366 9.04861 57.0755 8.9375C57.2214 8.82639 57.3359 8.68056 57.4193 8.5C57.5095 8.31944 57.5547 8.10417 57.5547 7.85417V7.19792C57.5547 6.94097 57.5095 6.72222 57.4193 6.54167C57.329 6.35417 57.2109 6.20139 57.0651 6.08333C56.9262 5.96528 56.7665 5.87847 56.5859 5.82292C56.4054 5.76736 56.2248 5.73958 56.0443 5.73958H53.388ZM62.9206 10.4167C62.9206 9.625 63.0629 8.89583 63.3477 8.22917C63.6324 7.55556 64.0247 6.97917 64.5247 6.5C65.0247 6.01389 65.615 5.63542 66.2956 5.36458C66.9831 5.09375 67.7227 4.95833 68.5143 4.95833C68.8754 4.95833 69.2504 5.00694 69.6393 5.10417C70.0282 5.19444 70.4067 5.3368 70.7747 5.53125C71.1428 5.72569 71.49 5.97569 71.8164 6.28125C72.1428 6.5868 72.4275 6.95139 72.6706 7.375C72.9206 7.79861 73.1185 8.28819 73.2643 8.84375C73.4102 9.39236 73.4831 10.0104 73.4831 10.6979V11.7187C73.4831 12.0382 73.4067 12.2569 73.2539 12.375C73.1081 12.4931 72.8789 12.5486 72.5664 12.5417H65.7331V12.8646C65.7331 13.3021 65.8025 13.6979 65.9414 14.0521C66.0803 14.3993 66.2713 14.6979 66.5143 14.9479C66.7574 15.1979 67.0421 15.3889 67.3685 15.5208C67.7018 15.6528 68.0629 15.7187 68.4518 15.7187C68.8407 15.7187 69.2088 15.6389 69.556 15.4792C69.9032 15.3194 70.2122 15.0451 70.4831 14.6562C70.5525 14.559 70.622 14.5069 70.6914 14.5C70.7678 14.4861 70.8338 14.4965 70.8893 14.5312L72.681 15.4687C72.7435 15.5174 72.7782 15.5799 72.7852 15.6562C72.799 15.7326 72.7678 15.8333 72.6914 15.9583C72.49 16.2847 72.247 16.5903 71.9622 16.875C71.6845 17.1597 71.3685 17.4097 71.0143 17.625C70.6602 17.8403 70.2713 18.0069 69.8477 18.125C69.431 18.25 68.9865 18.3125 68.5143 18.3125C67.7227 18.3125 66.9865 18.1771 66.306 17.9062C65.6254 17.6354 65.0352 17.2604 64.5352 16.7812C64.0352 16.3021 63.6393 15.7326 63.3477 15.0729C63.0629 14.4132 62.9206 13.691 62.9206 12.9062V10.4167ZM65.7331 10.4271H70.8477V10.3646C70.8477 10.0451 70.806 9.71875 70.7227 9.38542C70.6463 9.05208 70.5143 8.75 70.3268 8.47917C70.1463 8.20833 69.9032 7.98611 69.5977 7.8125C69.2921 7.63194 68.9102 7.54167 68.4518 7.54167C68.0074 7.54167 67.615 7.62153 67.2747 7.78125C66.9414 7.94097 66.6602 8.15278 66.431 8.41667C66.2018 8.67361 66.0282 8.97222 65.9102 9.3125C65.7921 9.64583 65.7331 9.98611 65.7331 10.3333V10.4271ZM75.362 10.375C75.362 9.61111 75.4939 8.89931 75.7578 8.23958C76.0217 7.57986 76.3828 7.00694 76.8411 6.52083C77.3064 6.03472 77.8516 5.65278 78.4766 5.375C79.1085 5.09722 79.7891 4.95833 80.5182 4.95833C80.8793 4.95833 81.2161 5.01042 81.5286 5.11458C81.8481 5.21875 82.1432 5.36458 82.4141 5.55208C82.6918 5.73264 82.9418 5.95139 83.1641 6.20833C83.3932 6.46528 83.5981 6.74306 83.7786 7.04167L83.9974 5.66667C84.053 5.38194 84.23 5.23958 84.5286 5.23958H85.8828C86.1606 5.23958 86.2995 5.38194 86.2995 5.66667V17.5729C86.2995 17.7118 86.2613 17.8194 86.1849 17.8958C86.1155 17.9653 86.0182 18 85.8932 18H84.487C84.362 18 84.2543 17.9653 84.1641 17.8958C84.0738 17.8194 84.0182 17.7118 83.9974 17.5729L83.7995 16.1875C83.6189 16.4931 83.4141 16.7778 83.1849 17.0417C82.9627 17.2986 82.7127 17.5208 82.4349 17.7083C82.1641 17.8958 81.8655 18.0417 81.5391 18.1458C81.2196 18.2569 80.8793 18.3125 80.5182 18.3125C79.7891 18.3125 79.1085 18.1736 78.4766 17.8958C77.8516 17.6181 77.3064 17.2396 76.8411 16.7604C76.3828 16.2743 76.0217 15.7049 75.7578 15.0521C75.4939 14.3924 75.362 13.684 75.362 12.9271V10.375ZM78.1745 12.9792C78.1745 13.375 78.2405 13.7396 78.3724 14.0729C78.5043 14.4062 78.6849 14.6944 78.9141 14.9375C79.1432 15.1806 79.4141 15.3715 79.7266 15.5104C80.046 15.6493 80.3898 15.7187 80.7578 15.7187C81.1328 15.7187 81.4835 15.6528 81.8099 15.5208C82.1363 15.3889 82.421 15.2083 82.6641 14.9792C82.9071 14.7431 83.1016 14.4653 83.2474 14.1458C83.4002 13.8264 83.4835 13.4792 83.4974 13.1042V10.1771C83.4835 9.79514 83.4002 9.44444 83.2474 9.125C83.1016 8.80556 82.9071 8.52778 82.6641 8.29167C82.421 8.05556 82.1363 7.87153 81.8099 7.73958C81.4835 7.60764 81.1328 7.54167 80.7578 7.54167C80.3898 7.54167 80.046 7.61111 79.7266 7.75C79.4141 7.88889 79.1432 8.08333 78.9141 8.33333C78.6849 8.57639 78.5043 8.86458 78.3724 9.19792C78.2405 9.53125 78.1745 9.89583 78.1745 10.2917V12.9792ZM89.5651 5.66667C89.5651 5.38194 89.7005 5.23958 89.9714 5.23958H91.388C91.5269 5.23958 91.6484 5.2743 91.7526 5.34375C91.8637 5.40625 91.9401 5.53819 91.9818 5.73958L92.2005 7.02083C92.3602 6.74306 92.5408 6.47917 92.7422 6.22917C92.9436 5.97917 93.1727 5.76042 93.4297 5.57292C93.6866 5.38542 93.9679 5.23611 94.2734 5.125C94.579 5.01389 94.9158 4.95833 95.2839 4.95833C95.5964 4.95833 95.888 4.98611 96.1589 5.04167C96.4297 5.09028 96.6762 5.15625 96.8984 5.23958C97.1207 5.31597 97.3116 5.39931 97.4714 5.48958C97.6311 5.57292 97.7595 5.6493 97.8568 5.71875C98.0026 5.82986 98.0859 5.95139 98.1068 6.08333C98.1276 6.20833 98.1172 6.32986 98.0755 6.44792L97.6484 8.10417C97.6276 8.16667 97.5894 8.21875 97.5339 8.26042C97.4783 8.30208 97.4158 8.32986 97.3464 8.34375C97.2769 8.35069 97.204 8.35069 97.1276 8.34375C97.0582 8.32986 96.9957 8.30208 96.9401 8.26042C96.7943 8.14931 96.6484 8.04861 96.5026 7.95833C96.3637 7.86805 96.2144 7.79167 96.0547 7.72917C95.9019 7.66667 95.7318 7.62153 95.5443 7.59375C95.3568 7.55903 95.145 7.54167 94.9089 7.54167C94.5894 7.54167 94.2839 7.59375 93.9922 7.69792C93.7005 7.80208 93.4401 7.96181 93.2109 8.17708C92.9887 8.39236 92.8082 8.66319 92.6693 8.98958C92.5373 9.31597 92.4714 9.70139 92.4714 10.1458V17.5729C92.4714 17.7118 92.4262 17.8194 92.3359 17.8958C92.2457 17.9653 92.1345 18 92.0026 18H89.9714C89.7005 18 89.5651 17.8576 89.5651 17.5729V5.66667Z" fill="white"/>
</g>
<defs>
<clipPath id="clip0">
<rect width="98" height="22" fill="white"/>
</clipPath>
</defs>
</svg>
