<svg width="98" height="18" viewBox="0 0 98 18" fill="none" xmlns="http://www.w3.org/2000/svg">
<path d="M6.32292 2.57292C6.32292 2.47569 6.34028 2.39931 6.375 2.34375C6.40972 2.28125 6.44792 2.23611 6.48958 2.20833C6.53125 2.18055 6.57292 2.16319 6.61458 2.15625C6.66319 2.1493 6.69792 2.14583 6.71875 2.14583H9.63542C9.83681 2.14583 9.97222 2.18403 10.0417 2.26042C10.1181 2.32986 10.1562 2.46528 10.1562 2.66667L10.0938 12.7187C10.0868 13.2812 10.0104 13.7882 9.86458 14.2396C9.71875 14.691 9.51736 15.0903 9.26042 15.4375C9.01042 15.7778 8.71875 16.0694 8.38542 16.3125C8.05208 16.5556 7.69792 16.7535 7.32292 16.9062C6.95486 17.059 6.57292 17.1701 6.17708 17.2396C5.78125 17.316 5.39931 17.3542 5.03125 17.3542C4.33681 17.3542 3.72222 17.2639 3.1875 17.0833C2.65972 16.9028 2.19792 16.6736 1.80208 16.3958C1.41319 16.1111 1.09028 15.7951 0.833333 15.4479C0.576389 15.1007 0.371528 14.7639 0.21875 14.4375C0.149306 14.2917 0.104167 14.1424 0.0833333 13.9896C0.0625 13.8299 0.131944 13.7083 0.291667 13.625L2.35417 12.5312C2.53472 12.434 2.68056 12.3993 2.79167 12.4271C2.90278 12.4479 3.01389 12.5625 3.125 12.7708C3.19444 12.9028 3.28819 13.0312 3.40625 13.1562C3.52431 13.2812 3.65625 13.3924 3.80208 13.4896C3.94792 13.5868 4.10069 13.6667 4.26042 13.7292C4.42708 13.7847 4.59375 13.8125 4.76042 13.8125C5.22569 13.8125 5.60069 13.6979 5.88542 13.4687C6.17708 13.2326 6.32292 12.8715 6.32292 12.3854V2.57292ZM12.181 9.45833C12.181 8.6875 12.3234 7.96875 12.6081 7.30208C12.8997 6.62847 13.2956 6.04167 13.7956 5.54167C14.3025 5.04167 14.8963 4.6493 15.5768 4.36458C16.2574 4.07986 16.99 3.9375 17.7747 3.9375C18.5664 3.9375 19.306 4.07986 19.9935 4.36458C20.681 4.6493 21.2782 5.04167 21.7852 5.54167C22.2921 6.04167 22.6879 6.62847 22.9727 7.30208C23.2643 7.96875 23.4102 8.6875 23.4102 9.45833V11.8542C23.4102 12.6181 23.2643 13.3368 22.9727 14.0104C22.6879 14.6771 22.2921 15.2604 21.7852 15.7604C21.2782 16.2535 20.681 16.6424 19.9935 16.9271C19.3129 17.2118 18.5768 17.3542 17.7852 17.3542C16.9935 17.3542 16.2574 17.2118 15.5768 16.9271C14.8963 16.6424 14.3025 16.2535 13.7956 15.7604C13.2956 15.2604 12.8997 14.6771 12.6081 14.0104C12.3234 13.3368 12.181 12.6181 12.181 11.8542V9.45833ZM15.8893 11.9375C15.8893 12.2222 15.9345 12.4896 16.0247 12.7396C16.122 12.9826 16.2539 13.1944 16.4206 13.375C16.5872 13.5556 16.7886 13.6979 17.0247 13.8021C17.2609 13.8993 17.5213 13.9479 17.806 13.9479C18.0907 13.9479 18.3511 13.8958 18.5872 13.7917C18.8234 13.6875 19.0247 13.5486 19.1914 13.375C19.3581 13.1944 19.4865 12.9826 19.5768 12.7396C19.674 12.4965 19.7227 12.2326 19.7227 11.9479V9.34375C19.7227 9.05903 19.674 8.79514 19.5768 8.55208C19.4865 8.30903 19.3581 8.09722 19.1914 7.91667C19.0247 7.73611 18.8234 7.59375 18.5872 7.48958C18.3511 7.38542 18.0907 7.33333 17.806 7.33333C17.5213 7.33333 17.2609 7.38542 17.0247 7.48958C16.7886 7.59375 16.5872 7.73611 16.4206 7.91667C16.2539 8.09722 16.122 8.30903 16.0247 8.55208C15.9345 8.79514 15.8893 9.05903 15.8893 9.34375V11.9375ZM36.9258 11.8542C36.9258 12.6181 36.7938 13.3368 36.5299 14.0104C36.2661 14.6771 35.9015 15.2604 35.4362 15.7604C34.9709 16.2535 34.4223 16.6424 33.7904 16.9271C33.1584 17.2118 32.4744 17.3542 31.7383 17.3542C31.4258 17.3542 31.1341 17.3056 30.8633 17.2083C30.5924 17.1181 30.3355 16.9931 30.0924 16.8333C29.8563 16.6667 29.6376 16.4722 29.4362 16.25C29.2418 16.0208 29.0612 15.7743 28.8945 15.5104L28.6862 16.5312C28.6515 16.684 28.582 16.8021 28.4779 16.8854C28.3737 16.9618 28.2522 17 28.1133 17H26.1549C26.0161 17 25.9049 16.9618 25.8216 16.8854C25.7383 16.809 25.6966 16.691 25.6966 16.5312V0.989582C25.6966 0.82986 25.7383 0.711805 25.8216 0.635416C25.9049 0.559027 26.0161 0.520832 26.1549 0.520832H28.7591C28.9188 0.520832 29.0612 0.559027 29.1862 0.635416C29.3181 0.70486 29.3841 0.819443 29.3841 0.979166V5.20833C29.6966 4.83333 30.0473 4.52778 30.4362 4.29167C30.8251 4.05555 31.2626 3.9375 31.7487 3.9375C32.4848 3.9375 33.1654 4.07986 33.7904 4.36458C34.4223 4.6493 34.9709 5.04167 35.4362 5.54167C35.9015 6.04167 36.2661 6.62847 36.5299 7.30208C36.7938 7.96875 36.9258 8.6875 36.9258 9.45833V11.8542ZM33.2174 9.34375C33.2174 9.05903 33.1723 8.79514 33.082 8.55208C32.9918 8.30903 32.8633 8.09722 32.6966 7.91667C32.5369 7.73611 32.3459 7.59375 32.1237 7.48958C31.9015 7.38542 31.6619 7.33333 31.4049 7.33333C31.1202 7.33333 30.8529 7.38542 30.6029 7.48958C30.3598 7.59375 30.148 7.73611 29.9674 7.91667C29.7869 8.09722 29.6445 8.30903 29.5404 8.55208C29.4362 8.79514 29.3841 9.05903 29.3841 9.34375V12.0312C29.3911 12.3021 29.4466 12.5556 29.5508 12.7917C29.6619 13.0208 29.8077 13.2222 29.9883 13.3958C30.1688 13.5694 30.3772 13.7049 30.6133 13.8021C30.8563 13.8993 31.1202 13.9479 31.4049 13.9479C31.6619 13.9479 31.9015 13.8993 32.1237 13.8021C32.3459 13.6979 32.5369 13.5556 32.6966 13.375C32.8633 13.1944 32.9918 12.9826 33.082 12.7396C33.1723 12.4896 33.2174 12.2222 33.2174 11.9375V9.34375ZM38.2852 14.5625C38.2018 14.4236 38.1567 14.2917 38.1497 14.1667C38.1428 14.0417 38.24 13.9201 38.4414 13.8021L40.6393 12.6562C40.8477 12.5382 41.0282 12.6076 41.181 12.8646C41.2713 13.0174 41.3859 13.1667 41.5247 13.3125C41.6636 13.4583 41.8164 13.5868 41.9831 13.6979C42.1567 13.809 42.3407 13.8993 42.5352 13.9687C42.7365 14.0312 42.9449 14.0625 43.1602 14.0625C43.5282 14.0625 43.8338 14.0035 44.0768 13.8854C44.3268 13.7604 44.4518 13.5729 44.4518 13.3229C44.4518 13.1632 44.3754 13.0208 44.2227 12.8958C44.0768 12.7639 43.8754 12.6424 43.6185 12.5312C43.3685 12.4132 43.0768 12.2986 42.7435 12.1875C42.4171 12.0694 42.0768 11.9444 41.7227 11.8125C41.2088 11.625 40.747 11.4167 40.3372 11.1875C39.9345 10.9583 39.5907 10.6944 39.306 10.3958C39.0213 10.0903 38.8025 9.74653 38.6497 9.36458C38.5039 8.97569 38.431 8.52431 38.431 8.01042C38.431 7.46875 38.5456 6.95486 38.7747 6.46875C39.0109 5.97569 39.3338 5.54514 39.7435 5.17708C40.1602 4.80208 40.6532 4.50347 41.2227 4.28125C41.7921 4.05903 42.4102 3.94792 43.0768 3.94792C43.6115 3.94792 44.122 4.03125 44.6081 4.19792C45.0942 4.36458 45.5352 4.57986 45.931 4.84375C46.3268 5.10069 46.6671 5.38889 46.9518 5.70833C47.2435 6.02083 47.4588 6.32639 47.5977 6.625C47.6324 6.70139 47.6602 6.77083 47.681 6.83333C47.7018 6.88889 47.7088 6.94097 47.7018 6.98958C47.6949 7.03819 47.6706 7.08333 47.6289 7.125C47.5872 7.16667 47.5213 7.20833 47.431 7.25L45.4518 8.17708C45.299 8.25347 45.181 8.28472 45.0977 8.27083C45.0213 8.25 44.9414 8.17708 44.8581 8.05208C44.6845 7.80208 44.4518 7.60417 44.1602 7.45833C43.8754 7.3125 43.556 7.23958 43.2018 7.23958C42.8338 7.23958 42.5456 7.29861 42.3372 7.41667C42.1359 7.52778 42.0352 7.68056 42.0352 7.875C42.0352 8.01389 42.0907 8.13194 42.2018 8.22917C42.3199 8.31944 42.49 8.40972 42.7122 8.5C42.9414 8.59028 43.2261 8.69097 43.5664 8.80208C43.9136 8.91319 44.3164 9.05208 44.7747 9.21875C45.3581 9.43403 45.8546 9.6875 46.2643 9.97917C46.681 10.2708 47.0213 10.5903 47.2852 10.9375C47.549 11.2847 47.7435 11.6562 47.8685 12.0521C47.9935 12.4479 48.056 12.8576 48.056 13.2812C48.056 13.9132 47.9206 14.4826 47.6497 14.9896C47.3859 15.4896 47.0317 15.9167 46.5872 16.2708C46.1428 16.6181 45.6324 16.8854 45.056 17.0729C44.4796 17.2604 43.8824 17.3542 43.2643 17.3542C42.8129 17.3542 42.3546 17.3021 41.8893 17.1979C41.424 17.0938 40.9727 16.9306 40.5352 16.7083C40.0977 16.4792 39.6845 16.191 39.2956 15.8437C38.9136 15.4896 38.5768 15.0625 38.2852 14.5625ZM50.513 2.5625C50.513 2.28472 50.645 2.14583 50.9089 2.14583H56.2214C56.7908 2.14583 57.3325 2.23611 57.8464 2.41667C58.3602 2.59028 58.8116 2.8368 59.2005 3.15625C59.5894 3.47569 59.895 3.85764 60.1172 4.30208C60.3464 4.74653 60.4609 5.23611 60.4609 5.77083V6.66667C60.4609 6.95139 60.4158 7.22917 60.3255 7.5C60.2422 7.77083 60.1276 8.02083 59.9818 8.25C59.8429 8.47917 59.6797 8.68056 59.4922 8.85417C59.3116 9.02778 59.1207 9.15972 58.9193 9.25C59.1901 9.34722 59.4505 9.48958 59.7005 9.67708C59.9505 9.86458 60.1727 10.0937 60.3672 10.3646C60.5616 10.6354 60.7179 10.941 60.8359 11.2812C60.954 11.6215 61.013 11.9861 61.013 12.375V13.2396C61.013 13.7812 60.9019 14.2847 60.6797 14.75C60.4575 15.2083 60.1589 15.6042 59.7839 15.9375C59.4089 16.2708 58.9748 16.5312 58.4818 16.7187C57.9887 16.9062 57.4679 17 56.9193 17H50.9089C50.645 17 50.513 16.8611 50.513 16.5833V2.5625ZM53.388 10.6458V14.4062H56.4609C56.7109 14.4062 56.9366 14.3646 57.138 14.2812C57.3394 14.191 57.5095 14.0729 57.6484 13.9271C57.7943 13.7812 57.9054 13.6146 57.9818 13.4271C58.0582 13.2396 58.0964 13.0417 58.0964 12.8333V12.1771C58.0964 11.9062 58.0477 11.6771 57.9505 11.4896C57.8533 11.2951 57.7283 11.1354 57.5755 11.0104C57.4227 10.8854 57.2526 10.7951 57.0651 10.7396C56.8776 10.6771 56.6901 10.6458 56.5026 10.6458H53.388ZM53.388 4.73958V8.26042H56.0339C56.2214 8.26042 56.4054 8.23611 56.5859 8.1875C56.7734 8.13194 56.9366 8.04861 57.0755 7.9375C57.2214 7.82639 57.3359 7.68056 57.4193 7.5C57.5095 7.31944 57.5547 7.10417 57.5547 6.85417V6.19792C57.5547 5.94097 57.5095 5.72222 57.4193 5.54167C57.329 5.35417 57.2109 5.20139 57.0651 5.08333C56.9262 4.96528 56.7665 4.87847 56.5859 4.82292C56.4054 4.76736 56.2248 4.73958 56.0443 4.73958H53.388ZM62.9206 9.41667C62.9206 8.625 63.0629 7.89583 63.3477 7.22917C63.6324 6.55556 64.0247 5.97917 64.5247 5.5C65.0247 5.01389 65.615 4.63542 66.2956 4.36458C66.9831 4.09375 67.7227 3.95833 68.5143 3.95833C68.8754 3.95833 69.2504 4.00694 69.6393 4.10417C70.0282 4.19444 70.4067 4.3368 70.7747 4.53125C71.1428 4.72569 71.49 4.97569 71.8164 5.28125C72.1428 5.5868 72.4275 5.95139 72.6706 6.375C72.9206 6.79861 73.1185 7.28819 73.2643 7.84375C73.4102 8.39236 73.4831 9.01042 73.4831 9.69792V10.7187C73.4831 11.0382 73.4067 11.2569 73.2539 11.375C73.1081 11.4931 72.8789 11.5486 72.5664 11.5417H65.7331V11.8646C65.7331 12.3021 65.8025 12.6979 65.9414 13.0521C66.0803 13.3993 66.2713 13.6979 66.5143 13.9479C66.7574 14.1979 67.0421 14.3889 67.3685 14.5208C67.7018 14.6528 68.0629 14.7187 68.4518 14.7187C68.8407 14.7187 69.2088 14.6389 69.556 14.4792C69.9032 14.3194 70.2122 14.0451 70.4831 13.6562C70.5525 13.559 70.622 13.5069 70.6914 13.5C70.7678 13.4861 70.8338 13.4965 70.8893 13.5312L72.681 14.4687C72.7435 14.5174 72.7782 14.5799 72.7852 14.6562C72.799 14.7326 72.7678 14.8333 72.6914 14.9583C72.49 15.2847 72.247 15.5903 71.9622 15.875C71.6845 16.1597 71.3685 16.4097 71.0143 16.625C70.6602 16.8403 70.2713 17.0069 69.8477 17.125C69.431 17.25 68.9865 17.3125 68.5143 17.3125C67.7227 17.3125 66.9865 17.1771 66.306 16.9062C65.6254 16.6354 65.0352 16.2604 64.5352 15.7812C64.0352 15.3021 63.6393 14.7326 63.3477 14.0729C63.0629 13.4132 62.9206 12.691 62.9206 11.9062V9.41667ZM65.7331 9.42708H70.8477V9.36458C70.8477 9.04514 70.806 8.71875 70.7227 8.38542C70.6463 8.05208 70.5143 7.75 70.3268 7.47917C70.1463 7.20833 69.9032 6.98611 69.5977 6.8125C69.2921 6.63194 68.9102 6.54167 68.4518 6.54167C68.0074 6.54167 67.615 6.62153 67.2747 6.78125C66.9414 6.94097 66.6602 7.15278 66.431 7.41667C66.2018 7.67361 66.0282 7.97222 65.9102 8.3125C65.7921 8.64583 65.7331 8.98611 65.7331 9.33333V9.42708ZM75.362 9.375C75.362 8.61111 75.4939 7.89931 75.7578 7.23958C76.0217 6.57986 76.3828 6.00694 76.8411 5.52083C77.3064 5.03472 77.8516 4.65278 78.4766 4.375C79.1085 4.09722 79.7891 3.95833 80.5182 3.95833C80.8793 3.95833 81.2161 4.01042 81.5286 4.11458C81.8481 4.21875 82.1432 4.36458 82.4141 4.55208C82.6918 4.73264 82.9418 4.95139 83.1641 5.20833C83.3932 5.46528 83.5981 5.74306 83.7786 6.04167L83.9974 4.66667C84.053 4.38194 84.23 4.23958 84.5286 4.23958H85.8828C86.1606 4.23958 86.2995 4.38194 86.2995 4.66667V16.5729C86.2995 16.7118 86.2613 16.8194 86.1849 16.8958C86.1155 16.9653 86.0182 17 85.8932 17H84.487C84.362 17 84.2543 16.9653 84.1641 16.8958C84.0738 16.8194 84.0182 16.7118 83.9974 16.5729L83.7995 15.1875C83.6189 15.4931 83.4141 15.7778 83.1849 16.0417C82.9627 16.2986 82.7127 16.5208 82.4349 16.7083C82.1641 16.8958 81.8655 17.0417 81.5391 17.1458C81.2196 17.2569 80.8793 17.3125 80.5182 17.3125C79.7891 17.3125 79.1085 17.1736 78.4766 16.8958C77.8516 16.6181 77.3064 16.2396 76.8411 15.7604C76.3828 15.2743 76.0217 14.7049 75.7578 14.0521C75.4939 13.3924 75.362 12.684 75.362 11.9271V9.375ZM78.1745 11.9792C78.1745 12.375 78.2405 12.7396 78.3724 13.0729C78.5043 13.4062 78.6849 13.6944 78.9141 13.9375C79.1432 14.1806 79.4141 14.3715 79.7266 14.5104C80.046 14.6493 80.3898 14.7187 80.7578 14.7187C81.1328 14.7187 81.4835 14.6528 81.8099 14.5208C82.1363 14.3889 82.421 14.2083 82.6641 13.9792C82.9071 13.7431 83.1016 13.4653 83.2474 13.1458C83.4002 12.8264 83.4835 12.4792 83.4974 12.1042V9.17708C83.4835 8.79514 83.4002 8.44444 83.2474 8.125C83.1016 7.80556 82.9071 7.52778 82.6641 7.29167C82.421 7.05556 82.1363 6.87153 81.8099 6.73958C81.4835 6.60764 81.1328 6.54167 80.7578 6.54167C80.3898 6.54167 80.046 6.61111 79.7266 6.75C79.4141 6.88889 79.1432 7.08333 78.9141 7.33333C78.6849 7.57639 78.5043 7.86458 78.3724 8.19792C78.2405 8.53125 78.1745 8.89583 78.1745 9.29167V11.9792ZM89.5651 4.66667C89.5651 4.38194 89.7005 4.23958 89.9714 4.23958H91.388C91.5269 4.23958 91.6484 4.2743 91.7526 4.34375C91.8637 4.40625 91.9401 4.53819 91.9818 4.73958L92.2005 6.02083C92.3602 5.74306 92.5408 5.47917 92.7422 5.22917C92.9436 4.97917 93.1727 4.76042 93.4297 4.57292C93.6866 4.38542 93.9679 4.23611 94.2734 4.125C94.579 4.01389 94.9158 3.95833 95.2839 3.95833C95.5964 3.95833 95.888 3.98611 96.1589 4.04167C96.4297 4.09028 96.6762 4.15625 96.8984 4.23958C97.1207 4.31597 97.3116 4.39931 97.4714 4.48958C97.6311 4.57292 97.7595 4.6493 97.8568 4.71875C98.0026 4.82986 98.0859 4.95139 98.1068 5.08333C98.1276 5.20833 98.1172 5.32986 98.0755 5.44792L97.6484 7.10417C97.6276 7.16667 97.5894 7.21875 97.5339 7.26042C97.4783 7.30208 97.4158 7.32986 97.3464 7.34375C97.2769 7.35069 97.204 7.35069 97.1276 7.34375C97.0582 7.32986 96.9957 7.30208 96.9401 7.26042C96.7943 7.14931 96.6484 7.04861 96.5026 6.95833C96.3637 6.86805 96.2144 6.79167 96.0547 6.72917C95.9019 6.66667 95.7318 6.62153 95.5443 6.59375C95.3568 6.55903 95.145 6.54167 94.9089 6.54167C94.5894 6.54167 94.2839 6.59375 93.9922 6.69792C93.7005 6.80208 93.4401 6.96181 93.2109 7.17708C92.9887 7.39236 92.8082 7.66319 92.6693 7.98958C92.5373 8.31597 92.4714 8.70139 92.4714 9.14583V16.5729C92.4714 16.7118 92.4262 16.8194 92.3359 16.8958C92.2457 16.9653 92.1345 17 92.0026 17H89.9714C89.7005 17 89.5651 16.8576 89.5651 16.5729V4.66667Z" fill="white"/>
</svg>
