<?xml version="1.0" encoding="UTF-8"?>
<svg width="38px" height="38px" viewBox="0 0 38 38" version="1.1" xmlns="http://www.w3.org/2000/svg" xmlns:xlink="http://www.w3.org/1999/xlink">
    <!-- Generator: Sketch 55.1 (78136) - https://sketchapp.com -->
    <title>logo_image</title>
    <desc>Created with Sketch.</desc>
    <defs>
        <linearGradient x1="50.0274067%" y1="14.4000179%" x2="50.0274067%" y2="106.629422%" id="linearGradient-1">
            <stop stop-color="#C4CDD5" offset="0%"></stop>
            <stop stop-color="#F9FAFB" offset="100%"></stop>
        </linearGradient>
    </defs>
    <g id="Page-1" stroke="none" stroke-width="1" fill="none" fill-rule="evenodd">
        <g id="logo_image">
            <path d="M38,19 C38,29.4934 29.4934,38 19,38 C8.50659,38 0,29.4934 0,19 C0,15.9426 0.722155,13.0538 2.0052,10.495 C0.786438,9.56522 0,8.09762 0,6.44634 C0,3.6356 2.27855,1.35705 5.08929,1.35705 C6.55377,1.35705 7.87377,1.97562 8.80229,2.96574 C11.7486,1.08798 15.2472,0 19,0 C22.7529,0 26.2516,1.08804 29.1979,2.96588 C30.1265,1.97568 31.4465,1.35705 32.9111,1.35705 C35.7218,1.35705 38.0004,3.6356 38.0004,6.44634 C38.0004,8.09774 37.2138,9.56544 35.9949,10.4952 C37.2779,13.054 38,15.9427 38,19 Z" id="Path" fill="#FFFFFF"></path>
            <path d="M19.0141,31.1238 C14.2991,31.1238 9.9834,27.6279 9.9834,22.6688 L9.9834,19.4951 C9.9834,17.4329 10.7873,15.4941 12.2471,14.0357 L16.3126,9.974 C17.8021,8.48585 20.2259,8.48593 21.7156,9.97392 L25.7811,14.0357 C27.2408,15.4941 28.0447,17.4329 28.0447,19.4951 L28.0447,22.6688 C28.0447,27.6183 23.7348,31.1238 19.0141,31.1238 Z" id="Path" fill="url(#linearGradient-1)" fill-rule="nonzero"></path>
            <path d="M19.0121,25.8577 C16.6533,25.8577 14.7344,24.1392 14.7344,22.027 C14.7344,19.9147 16.6533,18.1963 19.0121,18.1963 C21.3709,18.1963 23.2897,19.9147 23.2897,22.027 C23.2897,24.1392 21.3708,25.8577 19.0121,25.8577 Z" id="Path" fill="#212B36" fill-rule="nonzero"></path>
            <path d="M10.0141,11.5258 C10.6793,11.5258 11.2186,10.9825 11.2186,10.3123 C11.2186,9.64216 10.6793,9.09888 10.0141,9.09888 C9.34884,9.09888 8.80957,9.64216 8.80957,10.3123 C8.80957,10.9825 9.34884,11.5258 10.0141,11.5258 Z" id="Path" fill="#212B36" fill-rule="nonzero"></path>
            <path d="M28.0756,11.5248 C28.7408,11.5248 29.2801,10.9815 29.2801,10.3114 C29.2801,9.64118 28.7408,9.0979 28.0756,9.0979 C27.4104,9.0979 26.8711,9.64118 26.8711,10.3114 C26.8711,10.9815 27.4104,11.5248 28.0756,11.5248 Z" id="Path" fill="#212B36" fill-rule="nonzero"></path>
        </g>
    </g>
</svg>