<svg width="83" height="28" viewBox="0 0 83 28" fill="none" xmlns="http://www.w3.org/2000/svg">
    <path d="M5.98326 25.2374C6.30106 25.0456 6.69894 25.0456 7.01673 25.2374L8.488 26.1254C9.24532 26.5825 10.1795 25.9035 9.97859 25.042L9.58813 23.3683C9.50379 23.0068 9.62664 22.6283 9.9072 22.3853L11.2086 21.2579C11.8772 20.6787 11.5198 19.5804 10.6384 19.5056L8.92736 19.3605C8.55779 19.3291 8.23592 19.0958 8.09118 18.7543L7.42072 17.1724C7.07613 16.3593 5.92387 16.3593 5.57928 17.1724L4.90882 18.7543C4.76408 19.0958 4.44221 19.3291 4.07264 19.3605L2.36163 19.5056C1.4802 19.5804 1.1228 20.6787 1.79139 21.2579L3.0928 22.3853C3.37336 22.6283 3.49621 23.0068 3.41187 23.3683L3.02141 25.042C2.82045 25.9035 3.75468 26.5825 4.512 26.1254L5.98326 25.2374Z" fill="white" fill-opacity="0.5"/>
    <path d="M21.4833 22.0549C21.8011 21.8631 22.1989 21.8631 22.5167 22.0549L25.533 23.8754C26.2903 24.3325 27.2245 23.6535 27.0236 22.792L26.2231 19.3608C26.1388 18.9993 26.2616 18.6208 26.5422 18.3778L29.2086 16.0679C29.8772 15.4887 29.5198 14.3904 28.6384 14.3156L25.1299 14.018C24.7603 13.9866 24.4384 13.7533 24.2937 13.4118L22.9207 10.1724C22.5761 9.35934 21.4239 9.35934 21.0793 10.1724L19.7063 13.4118C19.5616 13.7533 19.2397 13.9866 18.8701 14.018L15.3616 14.3156C14.4802 14.3904 14.1228 15.4887 14.7914 16.0679L17.4578 18.3778C17.7384 18.6208 17.8612 18.9993 17.7769 19.3608L16.9764 22.792C16.7755 23.6535 17.7097 24.3325 18.467 23.8754L21.4833 22.0549Z" fill="white" fill-opacity="0.8"/>
    <path d="M40.9793 19.606C41.299 19.411 41.701 19.411 42.0207 19.606L47.1951 22.7619C47.9512 23.2231 48.8894 22.5462 48.6902 21.6833L47.3096 15.7031C47.2267 15.3441 47.348 14.9685 47.6253 14.7258L52.2317 10.6933C52.8951 10.1125 52.5369 9.01982 51.6584 8.94451L45.6153 8.42641C45.2447 8.39464 44.9224 8.15983 44.7785 7.81684L42.4222 2.19871C42.0792 1.38108 40.9208 1.38108 40.5778 2.19871L38.2215 7.81684C38.0776 8.15983 37.7553 8.39464 37.3847 8.42641L31.3416 8.94451C30.4631 9.01982 30.1049 10.1125 30.7683 10.6933L35.3747 14.7258C35.652 14.9685 35.7733 15.3441 35.6904 15.7031L34.3098 21.6833C34.1106 22.5462 35.0488 23.2231 35.8049 22.7619L40.9793 19.606Z" fill="white"/>
    <path d="M61.4833 22.0549C61.8011 21.8631 62.1989 21.8631 62.5167 22.0549L65.533 23.8754C66.2903 24.3325 67.2245 23.6535 67.0236 22.792L66.2231 19.3608C66.1388 18.9993 66.2616 18.6208 66.5422 18.3778L69.2086 16.0679C69.8772 15.4887 69.5198 14.3904 68.6384 14.3156L65.1299 14.018C64.7603 13.9866 64.4384 13.7533 64.2937 13.4118L62.9207 10.1724C62.5761 9.35934 61.4239 9.35934 61.0793 10.1724L59.7063 13.4118C59.5616 13.7533 59.2397 13.9866 58.8701 14.018L55.3616 14.3156C54.4802 14.3904 54.1228 15.4887 54.7914 16.0679L57.4578 18.3778C57.7384 18.6208 57.8612 18.9993 57.7769 19.3608L56.9764 22.792C56.7755 23.6535 57.7097 24.3325 58.467 23.8754L61.4833 22.0549Z" fill="white" fill-opacity="0.8"/>
    <path d="M75.9941 24.9409C76.3065 24.7577 76.6935 24.7577 77.0059 24.9409L78.4902 25.8114C79.2507 26.2574 80.1743 25.5726 79.9685 24.7153L79.5952 23.1607C79.5068 22.7925 79.6339 22.406 79.9236 22.1622L81.1439 21.135C81.8268 20.5602 81.4717 19.4466 80.5821 19.3733L78.922 19.2365C78.5553 19.2062 78.2347 18.977 78.0876 18.6397L77.4166 17.1014C77.0675 16.3011 75.9325 16.3011 75.5834 17.1014L74.9124 18.6397C74.7653 18.977 74.4447 19.2062 74.078 19.2365L72.4179 19.3733C71.5283 19.4466 71.1732 20.5602 71.8561 21.135L73.0764 22.1622C73.3661 22.406 73.4932 22.7925 73.4048 23.1607L73.0315 24.7153C72.8257 25.5726 73.7493 26.2574 74.5098 25.8114L75.9941 24.9409Z" fill="white" fill-opacity="0.5"/>
</svg>
