<svg width="159" height="27" viewBox="0 0 159 27" fill="none" xmlns="http://www.w3.org/2000/svg">
    <path fill-rule="evenodd" clip-rule="evenodd" d="M132.314 22.9113L158 26.9754L158.313 25L145.517 22.9754H146.343V14.0354C146.791 13.5474 147.275 13.1634 147.795 12.8834C148.323 12.5954 148.887 12.4514 149.487 12.4514C150.311 12.4514 150.923 12.6954 151.323 13.1834C151.723 13.6634 151.923 14.3394 151.923 15.2114V22.9754H154.275V15.2114C154.275 14.5234 154.187 13.8954 154.011 13.3274C153.835 12.7594 153.575 12.2754 153.231 11.8754C152.887 11.4674 152.459 11.1514 151.947 10.9274C151.443 10.7034 150.855 10.5914 150.183 10.5914C149.375 10.5914 148.659 10.7514 148.035 11.0714C147.419 11.3914 146.855 11.8114 146.343 12.3314V5.26342H144.003V22.7359L141.743 22.3783C141.882 22.2816 142.013 22.1766 142.136 22.0634L141.44 20.9354C141.392 20.8554 141.344 20.7994 141.296 20.7674C141.256 20.7274 141.196 20.7074 141.116 20.7074C141.052 20.7074 140.98 20.7354 140.9 20.7914C140.82 20.8474 140.724 20.9114 140.612 20.9834C140.5 21.0474 140.364 21.1074 140.204 21.1634C140.052 21.2194 139.868 21.2474 139.652 21.2474C139.284 21.2474 138.98 21.1314 138.74 20.8994C138.508 20.6594 138.392 20.2994 138.392 19.8194V12.6794H141.848V10.9754H138.392V6.88342H137.204C137.06 6.88342 136.94 6.92342 136.844 7.00342C136.756 7.07542 136.696 7.17942 136.664 7.31542L136.136 10.9514L134.156 11.2274V12.1754C134.156 12.3434 134.2 12.4714 134.288 12.5594C134.384 12.6394 134.5 12.6794 134.636 12.6794H136.052V19.9754C136.052 20.5698 136.141 21.0846 136.319 21.52L132.314 20.8864V15.2114C132.314 14.5234 132.226 13.8954 132.05 13.3274C131.874 12.7594 131.614 12.2754 131.27 11.8754C130.926 11.4674 130.498 11.1514 129.986 10.9274C129.482 10.7034 128.894 10.5914 128.222 10.5914C127.798 10.5914 127.398 10.6394 127.022 10.7354C126.654 10.8234 126.306 10.9514 125.978 11.1194C125.658 11.2794 125.354 11.4754 125.066 11.7074C124.778 11.9394 124.502 12.1954 124.238 12.4754L124.058 11.2514C123.978 10.9394 123.774 10.7834 123.446 10.7834H122.042V19.2611L119.215 18.8137C119.359 18.2135 119.43 17.5647 119.43 16.8674C119.43 15.9074 119.294 15.0434 119.022 14.2754C118.75 13.4994 118.358 12.8394 117.846 12.2954C117.342 11.7434 116.726 11.3234 115.998 11.0354C115.278 10.7394 114.47 10.5914 113.574 10.5914C112.67 10.5914 111.854 10.7394 111.126 11.0354C110.406 11.3234 109.79 11.7434 109.278 12.2954C108.766 12.8394 108.37 13.4994 108.09 14.2754C107.818 15.0434 107.682 15.9074 107.682 16.8674C107.682 16.9081 107.683 16.9486 107.683 16.989L105.23 16.6009V15.2114C105.23 14.4754 105.138 13.8194 104.954 13.2434C104.77 12.6674 104.502 12.1834 104.15 11.7914C103.798 11.3994 103.366 11.1034 102.854 10.9034C102.35 10.6954 101.774 10.5914 101.126 10.5914C100.726 10.5914 100.33 10.6394 99.9382 10.7354C99.5543 10.8314 99.1903 10.9794 98.8463 11.1794C98.5023 11.3794 98.1902 11.6354 97.9102 11.9474C97.6302 12.2594 97.4023 12.6314 97.2262 13.0634C96.9942 12.3034 96.6263 11.7034 96.1223 11.2634C95.6182 10.8154 94.9622 10.5914 94.1543 10.5914C93.4183 10.5914 92.7743 10.7634 92.2223 11.1074C91.6783 11.4434 91.1823 11.8794 90.7343 12.4154L90.5663 11.2514C90.4863 10.9394 90.2822 10.7834 89.9542 10.7834H88.5502V13.9617L83.6661 13.1888L86.8161 5.26342H85.8201C85.5401 5.26342 85.2921 5.33942 85.0761 5.49142C84.8681 5.63542 84.7081 5.84342 84.5961 6.11542L81.89 12.9078L69.3524 10.924C69.3295 10.1732 69.1947 9.47829 68.9479 8.83942C68.6839 8.13542 68.2999 7.53142 67.7959 7.02742C67.2999 6.52342 66.6959 6.13142 65.9839 5.85142C65.2799 5.57142 64.4839 5.43142 63.5959 5.43142C62.7159 5.43142 61.9119 5.57942 61.1839 5.87542C60.4559 6.17142 59.8319 6.57542 59.3119 7.08742C58.7919 7.59942 58.3879 8.19542 58.0999 8.87542C58.0645 8.95883 58.0314 9.04297 58.0004 9.12782L54.949 8.645C54.6893 8.0236 54.331 7.4844 53.874 7.02742C53.378 6.52342 52.774 6.13142 52.062 5.85142C51.358 5.57142 50.562 5.43142 49.674 5.43142C48.794 5.43142 47.99 5.57942 47.262 5.87542C46.534 6.17142 45.91 6.57542 45.39 7.08742C45.3769 7.10033 45.3638 7.1133 45.3509 7.12632L0.312567 0L0 1.97542L26.9065 6.23279C26.4855 6.4729 26.1076 6.75778 25.7728 7.08742C25.2528 7.59942 24.8488 8.19542 24.5608 8.87542C24.2728 9.55542 24.1288 10.2834 24.1288 11.0594C24.1288 11.8914 24.2648 12.6194 24.5368 13.2434C24.8168 13.8594 25.1808 14.3794 25.6288 14.8034C26.0768 15.2194 26.5888 15.5314 27.1648 15.7394C27.7408 15.9474 28.3288 16.0514 28.9288 16.0514C29.4568 16.0514 29.9608 15.9874 30.4408 15.8594C30.9208 15.7234 31.3608 15.5274 31.7608 15.2714C31.6488 15.4314 31.5328 15.5914 31.4128 15.7514C31.2928 15.9114 31.1648 16.0754 31.0288 16.2434L25.6408 22.9754H28.3648C28.7088 22.9754 29.0168 22.9114 29.2888 22.7834C29.5608 22.6474 29.7648 22.4834 29.9008 22.2914L33.8728 16.6274C34.1688 16.2114 34.4368 15.7914 34.6768 15.3674C34.9168 14.9434 35.1208 14.5114 35.2888 14.0714C35.4568 13.6234 35.5848 13.1594 35.6728 12.6794C35.7688 12.1994 35.8168 11.6914 35.8168 11.1554C35.8168 10.3154 35.6808 9.54342 35.4088 8.83942C35.2159 8.32489 34.9588 7.86377 34.6377 7.45607L44.143 8.96008C43.8783 9.61575 43.746 10.3155 43.746 11.0594C43.746 11.8914 43.882 12.6194 44.154 13.2434C44.434 13.8594 44.798 14.3794 45.246 14.8034C45.694 15.2194 46.206 15.5314 46.782 15.7394C47.358 15.9474 47.946 16.0514 48.546 16.0514C49.074 16.0514 49.578 15.9874 50.058 15.8594C50.538 15.7234 50.978 15.5274 51.378 15.2714C51.266 15.4314 51.15 15.5914 51.03 15.7514C50.91 15.9114 50.782 16.0754 50.646 16.2434L45.258 22.9754H47.982C48.326 22.9754 48.634 22.9114 48.906 22.7834C49.178 22.6474 49.382 22.4834 49.518 22.2914L53.49 16.6274C53.786 16.2114 54.054 15.7914 54.294 15.3674C54.534 14.9434 54.738 14.5114 54.906 14.0714C55.074 13.6234 55.202 13.1594 55.29 12.6794C55.386 12.1994 55.434 11.6914 55.434 11.1554C55.434 11.0167 55.4303 10.8799 55.4229 10.7449L57.668 11.1001C57.6724 11.9152 57.8083 12.6296 58.0759 13.2434C58.3559 13.8594 58.7199 14.3794 59.1679 14.8034C59.6159 15.2194 60.1279 15.5314 60.7039 15.7394C61.2799 15.9474 61.8679 16.0514 62.4679 16.0514C62.9959 16.0514 63.4999 15.9874 63.9799 15.8594C64.4599 15.7234 64.8999 15.5274 65.2999 15.2714C65.1879 15.4314 65.0719 15.5914 64.9519 15.7514C64.8319 15.9114 64.7039 16.0754 64.5679 16.2434L59.1799 22.9754H61.9039C62.2479 22.9754 62.5559 22.9114 62.8279 22.7834C63.0999 22.6474 63.3039 22.4834 63.4399 22.2914L67.4119 16.6274C67.7079 16.2114 67.9759 15.7914 68.2159 15.3674C68.4559 14.9434 68.6599 14.5114 68.8279 14.0714C68.9678 13.6984 69.0799 13.3143 69.1643 12.9191L81.1311 14.8126L77.4441 24.0674H78.4281C78.6841 24.0674 78.9321 23.9914 79.1721 23.8394C79.4121 23.6954 79.5881 23.4714 79.7001 23.1674L82.9089 15.0939L88.5502 15.9865V22.9754H90.8903V16.3568L95.7022 17.1182V22.9754H98.0543V17.4903L102.878 18.2536V22.9754H105.23V18.6258L107.961 19.0578C108 19.1985 108.043 19.3363 108.09 19.4714C108.37 20.2474 108.766 20.9074 109.278 21.4514C109.79 21.9954 110.406 22.4154 111.126 22.7114C111.854 22.9994 112.67 23.1434 113.574 23.1434C114.47 23.1434 115.278 22.9994 115.998 22.7114C116.726 22.4154 117.342 21.9954 117.846 21.4514C118.059 21.2254 118.251 20.9793 118.422 20.7132L122.042 21.2859V22.9754H124.382V21.6562L129.962 22.5391V22.9754H132.314V22.9113ZM129.962 20.5142V15.2114C129.962 14.3394 129.762 13.6634 129.362 13.1834C128.962 12.6954 128.35 12.4514 127.526 12.4514C126.926 12.4514 126.362 12.5954 125.834 12.8834C125.314 13.1634 124.83 13.5474 124.382 14.0354V19.6313L129.962 20.5142ZM116.865 18.4419C116.959 17.9734 117.006 17.4526 117.006 16.8794C117.006 15.4714 116.722 14.3794 116.154 13.6034C115.586 12.8194 114.726 12.4274 113.574 12.4274C112.406 12.4274 111.534 12.8194 110.958 13.6034C110.39 14.3794 110.106 15.4714 110.106 16.8794C110.106 17.049 110.11 17.214 110.119 17.3744L116.865 18.4419ZM110.566 19.47L116.014 20.3321C115.449 20.9903 114.635 21.3194 113.574 21.3194C112.406 21.3194 111.534 20.9314 110.958 20.1554C110.807 19.9493 110.677 19.7208 110.566 19.47ZM102.878 16.2287V15.2114C102.878 14.2994 102.678 13.6114 102.278 13.1474C101.886 12.6834 101.31 12.4514 100.55 12.4514C100.214 12.4514 99.8942 12.5114 99.5902 12.6314C99.2862 12.7434 99.0182 12.9154 98.7862 13.1474C98.5622 13.3794 98.3822 13.6674 98.2463 14.0114C98.1182 14.3554 98.0543 14.7554 98.0543 15.2114V15.4655L102.878 16.2287ZM95.7012 15.0931C95.686 14.2091 95.4984 13.5525 95.1383 13.1234C94.7623 12.6754 94.2103 12.4514 93.4823 12.4514C92.9782 12.4514 92.5103 12.5834 92.0782 12.8474C91.6462 13.1114 91.2503 13.4714 90.8903 13.9274V14.3319L95.7012 15.0931ZM66.5072 10.4738C66.4783 10.1539 66.4118 9.86112 66.3079 9.59542C66.1639 9.21942 65.9599 8.90342 65.6959 8.64742C65.4319 8.39142 65.1159 8.19542 64.7479 8.05942C64.3879 7.92342 63.9919 7.85542 63.5599 7.85542C63.1119 7.85542 62.7079 7.93142 62.3479 8.08342C61.9879 8.22742 61.6799 8.43142 61.4239 8.69542C61.1826 8.9442 60.9947 9.23916 60.86 9.58029L66.5072 10.4738ZM60.6881 11.578L66.1296 12.439C66.0232 12.6278 65.8947 12.7999 65.7439 12.9554C65.4879 13.2194 65.1719 13.4274 64.7959 13.5794C64.4199 13.7314 63.9919 13.8074 63.5119 13.8074C62.5919 13.8074 61.8799 13.5554 61.3759 13.0514C61.0162 12.6802 60.7869 12.189 60.6881 11.578ZM47.0098 9.41369L52.5645 10.2926C52.5895 10.4712 52.602 10.6588 52.602 10.8554C52.602 11.2714 52.534 11.6594 52.398 12.0194C52.27 12.3794 52.078 12.6914 51.822 12.9554C51.566 13.2194 51.25 13.4274 50.874 13.5794C50.498 13.7314 50.07 13.8074 49.59 13.8074C48.67 13.8074 47.958 13.5554 47.454 13.0514C46.958 12.5394 46.71 11.7994 46.71 10.8314C46.71 10.3994 46.778 10.0034 46.914 9.64342C46.9432 9.56445 46.9751 9.48787 47.0098 9.41369ZM27.8368 13.0514C27.3408 12.5394 27.0928 11.7994 27.0928 10.8314C27.0928 10.3994 27.1608 10.0034 27.2968 9.64342C27.4328 9.27542 27.6288 8.95942 27.8848 8.69542C28.1408 8.43142 28.4488 8.22742 28.8088 8.08342C29.1688 7.93142 29.5728 7.85542 30.0208 7.85542C30.4528 7.85542 30.8488 7.92342 31.2088 8.05942C31.5768 8.19542 31.8928 8.39142 32.1568 8.64742C32.4208 8.90342 32.6248 9.21942 32.7688 9.59542C32.9128 9.96342 32.9848 10.3834 32.9848 10.8554C32.9848 11.2714 32.9168 11.6594 32.7808 12.0194C32.6528 12.3794 32.4608 12.6914 32.2048 12.9554C31.9488 13.2194 31.6328 13.4274 31.2568 13.5794C30.8808 13.7314 30.4528 13.8074 29.9728 13.8074C29.0528 13.8074 28.3408 13.5554 27.8368 13.0514Z" fill="#999BB0"/>
    <path d="M9.89494 14.1314C9.73494 14.3234 9.65494 14.5554 9.65494 14.8274V15.7754H11.9349V18.9074C11.9349 19.2354 11.8789 19.5234 11.7669 19.7714C11.6549 20.0114 11.5029 20.2234 11.3109 20.4074C11.1269 20.5834 10.9109 20.7314 10.6629 20.8514C10.4149 20.9634 10.1589 21.0514 9.89494 21.1154V22.9754H21.3909C21.5829 22.9754 21.7589 22.9394 21.9189 22.8674C22.0789 22.7874 22.2149 22.6874 22.3269 22.5674C22.4389 22.4394 22.5229 22.2994 22.5789 22.1474C22.6429 21.9954 22.6749 21.8474 22.6749 21.7034V20.4554H15.6429C15.3389 20.4554 15.0429 20.4754 14.7549 20.5154C14.4669 20.5474 14.1789 20.5954 13.8909 20.6594C14.2269 20.3074 14.4909 19.9274 14.6829 19.5194C14.8829 19.1034 14.9829 18.6314 14.9829 18.1034V15.7754H19.0509C19.2909 15.7754 19.4909 15.6954 19.6509 15.5354C19.8109 15.3754 19.8909 15.1994 19.8909 15.0074V13.8314H14.9829V10.9874C14.9829 10.0274 15.1869 9.27942 15.5949 8.74342C16.0029 8.19942 16.6189 7.92742 17.4429 7.92742C17.7069 7.92742 17.9389 7.95542 18.1389 8.01142C18.3469 8.06742 18.5349 8.15142 18.7029 8.26342C18.8709 8.36742 19.0269 8.49542 19.1709 8.64742C19.3229 8.79142 19.4749 8.95142 19.6269 9.12742C19.8349 9.36742 20.0629 9.49542 20.3109 9.51142C20.5669 9.52742 20.8349 9.46342 21.1149 9.31942L22.3029 8.56342C22.0869 8.12342 21.8309 7.71542 21.5349 7.33942C21.2469 6.95542 20.9029 6.62342 20.5029 6.34342C20.1109 6.06342 19.6589 5.84342 19.1469 5.68342C18.6429 5.51542 18.0749 5.43142 17.4429 5.43142C16.5149 5.43142 15.7069 5.57942 15.0189 5.87542C14.3309 6.17142 13.7589 6.57542 13.3029 7.08742C12.8469 7.59142 12.5029 8.18342 12.2709 8.86342C12.0469 9.53542 11.9349 10.2474 11.9349 10.9994V13.8314H10.6509C10.3149 13.8314 10.0629 13.9314 9.89494 14.1314Z" fill="#999BB0"/>
    <path d="M38.2187 20.6354C38.1307 20.8594 38.0867 21.0954 38.0867 21.3434C38.0867 21.5994 38.1307 21.8394 38.2187 22.0634C38.3147 22.2794 38.4427 22.4674 38.6027 22.6274C38.7627 22.7874 38.9547 22.9114 39.1787 22.9994C39.4027 23.0954 39.6427 23.1434 39.8987 23.1434C40.1547 23.1434 40.3907 23.0954 40.6067 22.9994C40.8307 22.9114 41.0227 22.7874 41.1827 22.6274C41.3507 22.4674 41.4827 22.2794 41.5787 22.0634C41.6747 21.8394 41.7227 21.5994 41.7227 21.3434C41.7227 21.0954 41.6747 20.8594 41.5787 20.6354C41.4827 20.4114 41.3507 20.2194 41.1827 20.0594C41.0227 19.8994 40.8307 19.7714 40.6067 19.6754C40.3907 19.5794 40.1547 19.5314 39.8987 19.5314C39.6427 19.5314 39.4027 19.5794 39.1787 19.6754C38.9547 19.7714 38.7627 19.8994 38.6027 20.0594C38.4427 20.2194 38.3147 20.4114 38.2187 20.6354Z" fill="#999BB0"/>
</svg>
