<svg width="159" height="27" viewBox="0 0 159 27" fill="none" xmlns="http://www.w3.org/2000/svg">
    <path fill-rule="evenodd" clip-rule="evenodd" d="M120.61 21.0836L158 26.9998L158.313 25.0244L137.435 21.721C137.78 21.5475 138.086 21.3364 138.352 21.0877L137.728 20.0677C137.64 19.9317 137.54 19.8637 137.428 19.8637C137.364 19.8637 137.288 19.8957 137.2 19.9597C137.12 20.0157 137.02 20.0797 136.9 20.1517C136.78 20.2237 136.636 20.2917 136.468 20.3557C136.308 20.4117 136.116 20.4397 135.892 20.4397C135.5 20.4397 135.18 20.3157 134.932 20.0677C134.684 19.8197 134.56 19.4397 134.56 18.9277V11.6317H138.076V10.0837H134.56V5.89568H133.48C133.344 5.89568 133.232 5.93568 133.144 6.01568C133.064 6.08768 133.012 6.18368 132.988 6.30368L132.496 10.0597L130.504 10.3117V11.1637C130.504 11.3237 130.548 11.4437 130.636 11.5237C130.724 11.5957 130.832 11.6317 130.96 11.6317H132.424V19.0717C132.424 19.8593 132.581 20.5029 132.893 21.0024L128.59 20.3214V14.2597C128.59 13.5717 128.502 12.9437 128.326 12.3757C128.15 11.8077 127.89 11.3237 127.546 10.9237C127.21 10.5157 126.786 10.2037 126.274 9.98768C125.77 9.76368 125.186 9.65168 124.522 9.65168C124.09 9.65168 123.686 9.69968 123.31 9.79568C122.942 9.88368 122.59 10.0157 122.254 10.1917C121.926 10.3597 121.614 10.5637 121.318 10.8037C121.022 11.0437 120.742 11.3117 120.478 11.6077L120.31 10.2877C120.238 9.99168 120.05 9.84368 119.746 9.84368H118.462V18.7189L115.433 18.2396C115.646 17.5402 115.752 16.7656 115.752 15.9157C115.752 14.9637 115.616 14.1037 115.344 13.3357C115.08 12.5597 114.696 11.8997 114.192 11.3557C113.688 10.8117 113.08 10.3917 112.368 10.0957C111.656 9.79968 110.856 9.65168 109.968 9.65168C109.072 9.65168 108.264 9.79968 107.544 10.0957C106.832 10.3917 106.224 10.8117 105.72 11.3557C105.216 11.8997 104.828 12.5597 104.556 13.3357C104.292 14.1037 104.16 14.9637 104.16 15.9157C104.16 16.1001 104.165 16.281 104.175 16.4583L101.598 16.0506V14.2597C101.598 13.5237 101.506 12.8717 101.322 12.3037C101.138 11.7277 100.87 11.2437 100.518 10.8517C100.174 10.4597 99.75 10.1637 99.246 9.96368C98.75 9.75568 98.182 9.65168 97.542 9.65168C97.142 9.65168 96.746 9.69968 96.354 9.79568C95.97 9.89168 95.606 10.0437 95.262 10.2517C94.918 10.4597 94.606 10.7237 94.326 11.0437C94.054 11.3637 93.83 11.7437 93.654 12.1837C93.43 11.4077 93.062 10.7917 92.55 10.3357C92.046 9.87968 91.386 9.65168 90.57 9.65168C89.834 9.65168 89.186 9.82768 88.626 10.1797C88.066 10.5317 87.562 10.9837 87.114 11.5357L86.958 10.2877C86.886 9.99168 86.698 9.84368 86.394 9.84368H85.11V13.4417L79.9662 12.6278L83.2901 4.32368H82.3781C82.1221 4.32368 81.8941 4.39168 81.6941 4.52768C81.5021 4.66368 81.3581 4.85968 81.2621 5.11568L78.3489 12.3719L66.1683 10.4446C66.171 10.3571 66.1723 10.2688 66.1723 10.1797C66.1723 9.33968 66.0363 8.56768 65.7643 7.86368C65.5003 7.15968 65.1163 6.55568 64.6123 6.05168C64.1163 5.54768 63.5123 5.15568 62.8003 4.87568C62.0963 4.59568 61.3003 4.45568 60.4123 4.45568C59.5323 4.45568 58.7283 4.60368 58.0003 4.89968C57.2723 5.19568 56.6483 5.59968 56.1283 6.11168C55.6083 6.62368 55.2043 7.21968 54.9163 7.89968C54.8163 8.13568 54.7337 8.37746 54.6685 8.62503L51.9592 8.19635C51.9236 8.08382 51.8846 7.97293 51.8424 7.86368C51.5784 7.15968 51.1944 6.55568 50.6904 6.05168C50.1944 5.54768 49.5904 5.15568 48.8784 4.87568C48.1744 4.59568 47.3784 4.45568 46.4904 4.45568C45.6104 4.45568 44.8064 4.60368 44.0784 4.89968C43.3504 5.19568 42.7264 5.59968 42.2064 6.11168C42.0534 6.2623 41.9105 6.42018 41.7776 6.58534L15.0535 2.35683L15.0633 2.23568H14.2878L0.312567 0.0244141L0 1.99984L13.0723 4.06824L13.0353 4.49168C12.1553 4.53168 11.3753 4.69968 10.6953 4.99568C10.0153 5.29168 9.43934 5.66768 8.96734 6.12368C8.50334 6.57968 8.15134 7.09968 7.91134 7.68368C7.67134 8.25968 7.55134 8.85168 7.55134 9.45968C7.55134 10.2757 7.68734 10.9557 7.95934 11.4997C8.23134 12.0437 8.58735 12.4957 9.02734 12.8557C9.47534 13.2077 9.97534 13.4917 10.5273 13.7077C11.0873 13.9237 11.6513 14.1117 12.2193 14.2717L11.7753 19.6357C11.3273 19.5557 10.9393 19.4317 10.6113 19.2637C10.2833 19.0957 9.99134 18.9317 9.73534 18.7717C9.47935 18.6037 9.25134 18.4597 9.05134 18.3397C8.85135 18.2117 8.66334 18.1477 8.48734 18.1477C8.33534 18.1477 8.19135 18.1877 8.05534 18.2677C7.92734 18.3397 7.82334 18.4357 7.74334 18.5557L6.83134 19.9117C7.40734 20.4797 8.10734 20.9557 8.93134 21.3397C9.75534 21.7237 10.6353 21.9797 11.5713 22.1077L11.3553 24.6757H12.4473C12.6713 24.6757 12.8553 24.5957 12.9993 24.4357C13.1513 24.2837 13.2313 24.1157 13.2393 23.9317L13.3833 22.1677C14.2793 22.1117 15.0753 21.9277 15.7713 21.6157C16.4673 21.2957 17.0553 20.8877 17.5353 20.3917C18.0153 19.8877 18.3793 19.3117 18.6273 18.6637C18.8753 18.0077 18.9993 17.3077 18.9993 16.5637C18.9993 15.8117 18.8593 15.1877 18.5793 14.6917C18.2993 14.1877 17.9313 13.7677 17.4753 13.4317C17.0273 13.0957 16.5193 12.8237 15.9513 12.6157C15.3833 12.3997 14.8113 12.2037 14.2353 12.0277L14.6553 7.05968C14.9673 7.13168 15.2513 7.22368 15.5073 7.33568C15.7713 7.44768 16.0073 7.55968 16.2153 7.67168C16.4233 7.77568 16.6113 7.86768 16.7793 7.94768C16.9473 8.01968 17.0913 8.05568 17.2113 8.05568C17.3713 8.05568 17.5073 8.01568 17.6193 7.93568C17.7313 7.85568 17.8393 7.73568 17.9433 7.57568L18.6633 6.48368C18.2153 6.05168 17.6833 5.66368 17.0673 5.31968C16.4513 4.96768 15.7193 4.72368 14.8713 4.58768L14.8903 4.35589L23.1151 5.6573C22.9294 5.7979 22.7541 5.94936 22.5892 6.11168C22.0692 6.62368 21.6652 7.21968 21.3772 7.89968C21.0892 8.57968 20.9452 9.30768 20.9452 10.0837C20.9452 10.9157 21.0812 11.6437 21.3532 12.2677C21.6332 12.8837 21.9972 13.4037 22.4452 13.8277C22.8932 14.2437 23.4052 14.5557 23.9812 14.7637C24.5572 14.9717 25.1452 15.0757 25.7452 15.0757C26.2732 15.0757 26.7772 15.0117 27.2572 14.8837C27.7372 14.7477 28.1772 14.5517 28.5772 14.2957C28.4652 14.4557 28.3492 14.6157 28.2292 14.7757C28.1092 14.9357 27.9812 15.0997 27.8452 15.2677L22.4572 21.9997H25.1812C25.5252 21.9997 25.8332 21.9357 26.1052 21.8077C26.3772 21.6717 26.5812 21.5077 26.7172 21.3157L30.6892 15.6517C30.9852 15.2357 31.2532 14.8157 31.4932 14.3917C31.7332 13.9677 31.9372 13.5357 32.1052 13.0957C32.2732 12.6477 32.4012 12.1837 32.4892 11.7037C32.5852 11.2237 32.6332 10.7157 32.6332 10.1797C32.6332 9.33968 32.4972 8.56768 32.2252 7.86368C32.1154 7.57072 31.9847 7.29508 31.8333 7.03675L40.7945 8.45467C40.6398 8.97188 40.5624 9.51489 40.5624 10.0837C40.5624 10.9157 40.6984 11.6437 40.9704 12.2677C41.2504 12.8837 41.6144 13.4037 42.0624 13.8277C42.5104 14.2437 43.0224 14.5557 43.5984 14.7637C44.1744 14.9717 44.7624 15.0757 45.3624 15.0757C45.8904 15.0757 46.3944 15.0117 46.8744 14.8837C47.3544 14.7477 47.7944 14.5517 48.1944 14.2957C48.0824 14.4557 47.9664 14.6157 47.8464 14.7757C47.7264 14.9357 47.5984 15.0997 47.4624 15.2677L42.0744 21.9997H44.7984C45.1424 21.9997 45.4504 21.9357 45.7224 21.8077C45.9944 21.6717 46.1984 21.5077 46.3344 21.3157L50.3064 15.6517C50.6024 15.2357 50.8704 14.8157 51.1104 14.3917C51.3504 13.9677 51.5544 13.5357 51.7224 13.0957C51.8904 12.6477 52.0184 12.1837 52.1064 11.7037C52.1972 11.2499 52.245 10.7711 52.25 10.2672L54.5045 10.624C54.5516 11.2347 54.6808 11.7826 54.8923 12.2677C55.1723 12.8837 55.5363 13.4037 55.9843 13.8277C56.4323 14.2437 56.9443 14.5557 57.5203 14.7637C58.0963 14.9717 58.6843 15.0757 59.2843 15.0757C59.8123 15.0757 60.3163 15.0117 60.7963 14.8837C61.2763 14.7477 61.7163 14.5517 62.1163 14.2957C62.0043 14.4557 61.8883 14.6157 61.7683 14.7757C61.6483 14.9357 61.5203 15.0997 61.3843 15.2677L55.9963 21.9997H58.7203C59.0643 21.9997 59.3723 21.9357 59.6443 21.8077C59.9163 21.6717 60.1203 21.5077 60.2563 21.3157L64.2283 15.6517C64.5243 15.2357 64.7923 14.8157 65.0323 14.3917C65.2723 13.9677 65.4763 13.5357 65.6443 13.0957C65.7271 12.8748 65.8002 12.65 65.8636 12.4213L77.5846 14.2759L74.0501 23.0797H74.9501C75.1821 23.0797 75.4061 23.0117 75.6221 22.8757C75.8461 22.7397 76.0101 22.5317 76.1141 22.2517L79.204 14.5321L85.11 15.4666V21.9997H87.258V15.8065L92.262 16.5983V21.9997H94.41V16.9381L99.45 17.7356V21.9997H101.598V18.0755L104.57 18.5457C104.841 19.2974 105.225 19.9407 105.72 20.4757C106.224 21.0197 106.832 21.4397 107.544 21.7357C108.264 22.0237 109.072 22.1677 109.968 22.1677C110.856 22.1677 111.656 22.0237 112.368 21.7357C113.08 21.4397 113.688 21.0197 114.192 20.4757C114.299 20.3608 114.4 20.241 114.495 20.1162L118.462 20.7438V21.9997H120.61V21.0836ZM120.61 19.0587L126.442 19.9815V14.2597C126.442 13.3397 126.23 12.6277 125.806 12.1237C125.39 11.6117 124.754 11.3557 123.898 11.3557C123.266 11.3557 122.674 11.5077 122.122 11.8117C121.578 12.1157 121.074 12.5277 120.61 13.0477V19.0587ZM113.308 17.9035C113.466 17.3289 113.544 16.6703 113.544 15.9277C113.544 14.4797 113.248 13.3517 112.656 12.5437C112.064 11.7357 111.168 11.3317 109.968 11.3317C109.36 11.3317 108.828 11.4357 108.372 11.6437C107.924 11.8517 107.548 12.1517 107.244 12.5437C106.948 12.9357 106.724 13.4197 106.572 13.9957C106.428 14.5637 106.356 15.2077 106.356 15.9277C106.356 16.2363 106.37 16.5304 106.397 16.8099L113.308 17.9035ZM107.007 18.9314L112.234 19.7584C111.667 20.2526 110.911 20.4997 109.968 20.4997C108.752 20.4997 107.844 20.0997 107.244 19.2997C107.159 19.1834 107.08 19.0607 107.007 18.9314ZM99.45 15.7107V14.2597C99.45 13.3077 99.242 12.5877 98.826 12.0997C98.41 11.6037 97.81 11.3557 97.026 11.3557C96.674 11.3557 96.338 11.4197 96.018 11.5477C95.706 11.6677 95.43 11.8477 95.19 12.0877C94.95 12.3277 94.758 12.6317 94.614 12.9997C94.478 13.3597 94.41 13.7797 94.41 14.2597V14.9132L99.45 15.7107ZM92.262 14.5734V14.2597C92.262 13.2837 92.066 12.5557 91.674 12.0757C91.282 11.5957 90.71 11.3557 89.958 11.3557C89.43 11.3557 88.942 11.4997 88.494 11.7877C88.046 12.0677 87.634 12.4517 87.258 12.9397V13.7816L92.262 14.5734ZM63.3385 9.99687C63.3397 9.95805 63.3403 9.91899 63.3403 9.87968C63.3403 9.40768 63.2683 8.98768 63.1243 8.61968C62.9803 8.24368 62.7763 7.92768 62.5123 7.67168C62.2483 7.41568 61.9323 7.21968 61.5643 7.08368C61.2043 6.94768 60.8083 6.87968 60.3763 6.87968C59.9283 6.87968 59.5243 6.95568 59.1643 7.10768C58.8043 7.25168 58.4963 7.45568 58.2403 7.71968C57.9843 7.98368 57.7883 8.29968 57.6523 8.66768C57.6025 8.79957 57.5618 8.93629 57.5302 9.07784L63.3385 9.99687ZM57.6282 11.1182L62.6262 11.9091C62.6047 11.933 62.5828 11.9565 62.5603 11.9797C62.3043 12.2437 61.9883 12.4517 61.6123 12.6037C61.2363 12.7557 60.8083 12.8317 60.3283 12.8317C59.4083 12.8317 58.6963 12.5797 58.1923 12.0757C57.9402 11.8154 57.7521 11.4963 57.6282 11.1182ZM48.58 7.66167C48.3181 7.41056 48.0056 7.2179 47.6424 7.08368C47.2824 6.94768 46.8864 6.87968 46.4544 6.87968C46.0064 6.87968 45.6024 6.95568 45.2424 7.10768C45.2271 7.11379 45.2119 7.12002 45.1968 7.12635L48.58 7.66167ZM43.6516 8.90674L49.418 9.81914C49.4183 9.83923 49.4184 9.8594 49.4184 9.87968C49.4184 10.2957 49.3504 10.6837 49.2144 11.0437C49.0864 11.4037 48.8944 11.7157 48.6384 11.9797C48.3824 12.2437 48.0664 12.4517 47.6904 12.6037C47.3144 12.7557 46.8864 12.8317 46.4064 12.8317C45.4864 12.8317 44.7744 12.5797 44.2704 12.0757C43.7744 11.5637 43.5264 10.8237 43.5264 9.85568C43.5264 9.51727 43.5681 9.20096 43.6516 8.90674ZM13.5993 19.6837C14.4473 19.5717 15.0873 19.2877 15.5193 18.8317C15.9593 18.3677 16.1793 17.7637 16.1793 17.0197C16.1793 16.7157 16.1233 16.4517 16.0113 16.2277C15.9073 15.9957 15.7553 15.7917 15.5553 15.6157C15.3633 15.4397 15.1353 15.2877 14.8713 15.1597C14.6073 15.0317 14.3193 14.9117 14.0073 14.7997L13.5993 19.6837ZM12.8313 6.99968C12.3833 7.05568 12.0033 7.15168 11.6913 7.28768C11.3793 7.41568 11.1233 7.57568 10.9233 7.76768C10.7233 7.95968 10.5753 8.17568 10.4793 8.41568C10.3913 8.65568 10.3473 8.90768 10.3473 9.17168C10.3473 9.47568 10.3993 9.74368 10.5033 9.97568C10.6153 10.1997 10.7633 10.4037 10.9473 10.5877C11.1393 10.7637 11.3633 10.9237 11.6193 11.0677C11.8753 11.2037 12.1553 11.3317 12.4593 11.4517L12.8313 6.99968ZM23.9092 9.85568C23.9092 10.8237 24.1572 11.5637 24.6532 12.0757C25.1572 12.5797 25.8692 12.8317 26.7892 12.8317C27.2692 12.8317 27.6972 12.7557 28.0732 12.6037C28.4492 12.4517 28.7652 12.2437 29.0212 11.9797C29.2772 11.7157 29.4692 11.4037 29.5972 11.0437C29.7332 10.6837 29.8012 10.2957 29.8012 9.87968C29.8012 9.40768 29.7292 8.98768 29.5852 8.61968C29.4412 8.24368 29.2372 7.92768 28.9732 7.67168C28.7092 7.41568 28.3932 7.21968 28.0252 7.08368C27.6652 6.94768 27.2692 6.87968 26.8372 6.87968C26.3892 6.87968 25.9852 6.95568 25.6252 7.10768C25.2652 7.25168 24.9572 7.45568 24.7012 7.71968C24.4452 7.98368 24.2492 8.29968 24.1132 8.66768C23.9772 9.02768 23.9092 9.42368 23.9092 9.85568ZM35.0351 19.6597C34.9471 19.8837 34.9031 20.1197 34.9031 20.3677C34.9031 20.6237 34.9471 20.8637 35.0351 21.0877C35.1311 21.3037 35.2591 21.4917 35.4191 21.6517C35.5791 21.8117 35.7711 21.9357 35.9951 22.0237C36.2191 22.1197 36.4591 22.1677 36.7151 22.1677C36.9711 22.1677 37.2071 22.1197 37.4231 22.0237C37.6471 21.9357 37.8391 21.8117 37.9991 21.6517C38.1671 21.4917 38.2991 21.3037 38.3951 21.0877C38.4911 20.8637 38.5391 20.6237 38.5391 20.3677C38.5391 20.1197 38.4911 19.8837 38.3951 19.6597C38.2991 19.4357 38.1671 19.2437 37.9991 19.0837C37.8391 18.9237 37.6471 18.7957 37.4231 18.6997C37.2071 18.6037 36.9711 18.5557 36.7151 18.5557C36.4591 18.5557 36.2191 18.6037 35.9951 18.6997C35.7711 18.7957 35.5791 18.9237 35.4191 19.0837C35.2591 19.2437 35.1311 19.4357 35.0351 19.6597ZM144.158 10.1437C143.526 10.4717 142.95 10.9117 142.43 11.4637V4.32368H140.282V21.9997H142.43V13.0477C142.894 12.5277 143.398 12.1157 143.942 11.8117C144.494 11.5077 145.086 11.3557 145.718 11.3557C146.574 11.3557 147.21 11.6117 147.626 12.1237C148.05 12.6277 148.262 13.3397 148.262 14.2597V21.9997H150.41V14.2597C150.41 13.5717 150.322 12.9437 150.146 12.3757C149.97 11.8077 149.71 11.3237 149.366 10.9237C149.03 10.5157 148.606 10.2037 148.094 9.98768C147.59 9.76368 147.006 9.65168 146.342 9.65168C145.518 9.65168 144.79 9.81568 144.158 10.1437Z" fill="#999BB0"/>
</svg>
