<svg width="300" height="100" viewBox="0 0 300 100" fill="none" xmlns="http://www.w3.org/2000/svg">
<path d="M63.1239 52.496C59.4119 59.6 54.8679 63.696 51.3479 63.696C49.0439 63.696 46.6119 61.264 46.6119 55.76C46.6119 51.92 47.8279 46.672 50.6439 42.128C55.9559 33.552 65.0439 27.984 66.5799 29.648C67.3479 30.48 66.5799 32.528 65.6839 34.768C65.2999 35.728 64.8519 36.752 64.5959 37.712C64.3399 38.544 64.2119 39.312 64.2119 40.08C64.2119 41.936 65.1079 43.344 66.3879 44.176C67.6679 44.944 68.5639 44.304 68.8839 43.216C69.3319 41.808 70.2279 39.632 71.3159 37.456C71.9559 36.176 72.2119 34.896 72.2119 33.744C72.2119 31.248 70.5479 28.752 68.3719 26.832C67.2839 25.936 65.8119 25.488 64.2119 25.488C62.6119 25.488 60.8199 25.936 59.1559 26.576C51.9239 29.84 40.4679 41.424 40.7239 54.352C40.8519 59.6 43.4759 63.632 46.4839 65.232C48.0839 66.128 50.0039 66.576 52.1159 66.576C54.8679 66.576 57.7479 65.808 60.3719 63.952C62.6759 62.224 66.1319 58.512 66.1319 54.8C66.1319 54.16 66.0039 53.392 65.6839 52.688C65.0439 51.216 63.5719 51.6 63.1239 52.496Z" fill="url(#paint0_linear)"/>
<path d="M102.998 48.08C104.406 48.016 105.942 47.696 107.67 46.928C105.174 49.872 102.294 53.776 101.334 56.976C101.014 58.128 100.822 59.344 100.822 60.368C100.822 64.08 103.062 66.896 107.158 67.024C110.934 67.152 115.542 64.336 117.27 60.368C118.038 58.576 117.846 56.848 117.462 56.08C116.95 54.8 115.862 54.736 115.414 55.76C113.366 60.432 109.782 64.656 107.542 64.464C106.582 64.4 106.07 63.376 106.07 61.776C106.07 60.944 106.198 59.92 106.518 58.96C107.542 55.824 110.742 51.408 113.558 48.208C114.198 47.312 114.518 46.416 114.518 45.648C114.518 43.984 113.558 42.32 112.662 41.36C111.766 40.4 111.126 40.592 109.91 41.424C108.054 42.704 106.006 43.664 104.214 44.112C104.854 42 105.302 40.144 105.302 38.672C105.302 37.264 104.662 36.368 103.318 36.432C101.27 36.56 97.3019 41.232 97.3019 44.496C97.3019 45.776 97.8139 46.8 99.2219 47.504C96.2779 56.528 91.0939 63.824 87.3819 64.208C86.7419 64.272 86.4219 63.696 86.4219 62.672C86.4219 61.776 86.8699 60.432 87.3819 59.024C88.0859 57.296 89.3659 55.248 90.5179 53.2C91.4779 51.408 92.5019 49.872 93.2699 48.144C93.9739 46.672 94.2299 45.328 94.2299 44.176C94.2299 42.768 93.7819 41.616 93.0779 40.848C92.2459 39.952 91.3499 40.272 90.5179 41.296C90.2619 41.68 89.8139 42.32 89.3019 43.152C88.7259 41.552 87.3819 40.464 85.2059 40.464C81.8139 40.464 76.6299 43.344 71.5099 50.704C69.2059 54.032 68.1819 57.36 68.1819 60.112C68.1819 64.016 70.2299 66.704 73.9419 66.704C76.6939 66.704 79.2539 64.976 81.2379 62.864C81.7499 65.424 83.7979 67.024 87.1259 66.832C94.0379 66.32 99.8619 56.912 102.998 48.08ZM86.4859 45.584C86.4859 47.248 85.3339 50.384 82.9019 54.672C79.7659 60.176 76.6939 63.888 74.5819 63.888C74.0699 63.888 73.8779 63.056 73.8779 61.968C73.8779 59.792 74.8379 56.656 76.7579 53.584C80.1499 48.208 84.3739 44.368 86.1019 44.368C86.3579 44.368 86.4859 44.752 86.4859 45.584Z" fill="url(#paint1_linear)"/>
<path d="M131.311 44.176C132.015 44.752 130.671 47.76 128.815 50.256C127.535 51.984 125.487 53.904 123.951 53.904C123.503 53.904 123.055 53.776 122.543 53.456C125.615 47.312 130.351 43.408 131.311 44.176ZM136.111 46.736C136.111 45.904 135.855 44.944 135.471 44.368C134.575 43.088 133.295 42.064 131.503 41.04C130.863 40.656 130.159 40.528 129.263 40.528C125.551 40.528 120.367 43.92 117.039 50.704C115.695 53.264 115.055 55.76 115.055 58.064C115.055 63.184 118.319 67.088 124.271 67.024C129.263 66.96 134.383 63.952 137.071 60.048C138.223 58.32 138.159 56.464 137.967 55.888C137.455 54.608 136.623 54.736 135.919 55.76C133.295 59.728 129.007 64.464 124.143 64.464C122.223 64.464 121.071 62.48 121.071 59.664C121.071 58.512 121.263 57.168 121.647 55.888C123.119 56.848 124.655 57.296 126.191 57.296C131.823 57.296 136.111 50.576 136.111 46.736Z" fill="url(#paint2_linear)"/>
<path d="M143.747 52.176C146.371 46.992 150.723 43.28 151.875 44.176C152.515 44.688 151.043 47.824 149.251 50.128C147.971 51.856 146.243 53.712 144.579 53.712C144.131 53.712 143.683 53.584 143.171 53.328C143.299 53.008 143.427 52.752 143.747 52.176ZM179.459 55.952C178.819 54.544 177.859 54.8 177.283 56.016C175.363 60.496 171.715 64.4 169.411 64.4C168.515 64.4 168.003 63.312 168.003 61.648C168.003 60.88 168.195 59.728 168.451 58.896C169.603 55.632 172.739 51.28 175.491 48.08C176.259 47.248 176.579 46.416 176.579 45.648C176.579 44.048 175.491 42.32 174.659 41.232C173.891 40.208 172.995 40.656 171.971 41.296C169.859 42.64 168.195 43.536 166.403 43.984C167.107 41.872 167.619 39.952 167.619 38.608C167.619 37.2 167.107 36.368 165.763 36.368C163.587 36.432 159.299 41.104 159.299 44.496C159.299 45.648 159.939 46.608 161.091 47.312C157.699 55.12 151.043 64.336 144.643 64.336C142.851 64.336 141.699 62.416 141.699 59.472C141.699 58.32 141.891 56.976 142.275 55.696C143.747 56.72 145.283 57.104 146.819 57.104C149.635 57.104 152.067 55.504 153.923 53.2C155.651 50.96 156.611 48.336 156.611 46.48C156.611 45.712 156.355 44.944 156.035 44.368C155.011 43.088 153.795 42.128 152.067 41.04C151.427 40.656 150.723 40.528 149.891 40.528C146.243 40.528 140.995 44.112 137.667 50.64C136.387 53.2 135.747 55.76 135.747 58C135.747 63.056 139.011 66.896 144.899 66.832C152.707 66.704 159.555 58.896 164.803 47.952C166.211 47.888 167.811 47.632 169.539 46.864C166.979 49.872 164.483 53.392 163.395 56.848C162.947 58.192 162.755 59.344 162.755 60.368C162.755 64.144 164.995 66.96 169.027 66.96C172.803 66.96 177.539 64.208 179.139 60.24C179.971 58.448 179.779 56.656 179.459 55.952Z" fill="url(#paint3_linear)"/>
<path d="M190.629 60.752C190.885 64.016 191.909 65.68 194.021 66.768C195.109 67.344 195.813 66.96 196.197 66.192C200.101 57.552 207.973 42.512 211.557 36.624C213.541 33.424 213.925 31.184 213.925 29.648C213.925 28.752 213.733 27.92 213.349 27.152C212.645 25.936 211.877 25.616 210.917 26.96C206.693 33.552 200.485 44.752 196.133 53.904C196.581 46.544 197.157 39.888 198.053 34.704C198.245 33.552 198.373 32.528 198.373 31.632C198.373 29.328 197.477 27.984 195.557 26.576C194.597 25.808 193.829 25.808 192.997 27.216C188.133 35.28 180.005 50.512 176.677 59.088C176.165 60.432 175.845 61.968 175.845 62.928C175.845 64.4 176.421 65.68 177.061 66.512C177.957 67.472 178.917 67.408 179.365 66.128C182.181 58.256 186.725 49.424 191.269 41.616C190.693 47.056 190.437 52.368 190.437 56.08C190.437 57.616 190.501 58.896 190.629 60.752Z" fill="url(#paint4_linear)"/>
<path d="M253.115 54.544C249.915 60.24 246.459 64.336 244.475 64.336C244.027 64.336 243.771 63.824 243.771 62.992C243.771 62.096 244.219 60.624 244.923 59.152C246.907 54.736 249.595 50.832 250.811 48.336C251.643 46.736 251.899 45.392 251.899 44.112C251.899 42.768 251.515 41.872 250.875 40.912C250.043 39.76 249.147 40.016 248.187 41.36C247.099 42.896 246.139 44.56 245.179 46.48C243.963 48.656 242.427 51.472 239.739 55.888C236.923 60.624 234.683 64.08 233.275 64.08C232.699 64.08 232.507 63.696 232.507 62.928C232.507 62.032 232.763 60.816 233.339 59.408C234.619 56.4 236.155 53.584 238.267 50.064C239.675 47.824 240.379 45.84 240.379 44.24C240.379 43.216 240.059 42.192 239.419 41.296C238.715 40.336 237.499 40.208 236.731 41.36C236.027 42.32 235.131 43.728 234.491 44.752C232.571 47.824 229.499 50.448 226.555 51.024C226.875 47.504 225.787 45.456 224.507 44.176C224.187 43.856 223.867 43.536 223.611 43.152C222.139 41.168 220.987 40.592 218.683 40.784C214.779 41.04 210.491 44.88 208.123 49.04C206.523 51.856 205.435 55.312 205.435 58C205.435 59.92 206.075 61.968 207.291 63.568C209.083 65.872 211.387 66.768 213.371 66.768C219.259 66.768 224.379 59.472 226.043 53.52C227.259 53.52 228.539 53.328 229.819 52.88C229.115 54.416 228.603 55.76 228.091 57.232C227.515 58.896 227.259 60.368 227.259 61.584C227.259 64.4 228.603 66.64 231.611 66.64C234.427 66.64 236.731 65.104 238.651 63.056C239.035 65.296 240.699 66.96 243.195 66.96C247.611 66.96 252.155 62.16 256.507 55.056C260.667 48.4 261.563 45.648 262.011 43.216C262.331 41.488 261.691 40.528 260.603 40.528C258.747 40.528 254.459 43.856 253.115 54.544ZM221.755 49.936C221.051 49.104 220.731 47.44 220.731 46.288C220.731 45.264 221.307 44.752 221.691 44.752C222.139 44.752 222.651 45.136 222.651 46.096C222.651 46.928 222.395 48.464 221.755 49.936ZM210.491 60.88C210.491 58.512 211.451 54.992 213.179 51.92C214.203 50 215.547 48.336 216.827 46.992C217.211 49.104 218.875 51.024 220.795 52.048C220.283 53.456 219.515 55.056 218.491 56.848C216.251 61.2 213.563 63.504 211.899 63.504C211.067 63.504 210.491 62.8 210.491 60.88Z" fill="url(#paint5_linear)"/>
<defs>
<linearGradient id="paint0_linear" x1="42" y1="51" x2="268" y2="51" gradientUnits="userSpaceOnUse">
<stop stop-color="#CD00AC"/>
<stop offset="1" stop-color="#6100FF"/>
</linearGradient>
<linearGradient id="paint1_linear" x1="42" y1="51" x2="268" y2="51" gradientUnits="userSpaceOnUse">
<stop stop-color="#CD00AC"/>
<stop offset="1" stop-color="#6100FF"/>
</linearGradient>
<linearGradient id="paint2_linear" x1="42" y1="51" x2="268" y2="51" gradientUnits="userSpaceOnUse">
<stop stop-color="#CD00AC"/>
<stop offset="1" stop-color="#6100FF"/>
</linearGradient>
<linearGradient id="paint3_linear" x1="42" y1="51" x2="268" y2="51" gradientUnits="userSpaceOnUse">
<stop stop-color="#CD00AC"/>
<stop offset="1" stop-color="#6100FF"/>
</linearGradient>
<linearGradient id="paint4_linear" x1="42" y1="51" x2="268" y2="51" gradientUnits="userSpaceOnUse">
<stop stop-color="#CD00AC"/>
<stop offset="1" stop-color="#6100FF"/>
</linearGradient>
<linearGradient id="paint5_linear" x1="42" y1="51" x2="268" y2="51" gradientUnits="userSpaceOnUse">
<stop stop-color="#CD00AC"/>
<stop offset="1" stop-color="#6100FF"/>
</linearGradient>
</defs>
</svg>
