<svg width="300" height="100" viewBox="0 0 300 100" fill="none" xmlns="http://www.w3.org/2000/svg">
<path d="M248.811 64.8234V61.6493H248.706C247.034 63.9792 243.517 65.4987 240.522 65.4987C236.795 65.4987 233.8 63.9792 231.606 61.6493C229.69 59.4208 228.611 56.5169 228.611 53.3766C228.611 50.2364 229.447 47.5351 231.745 45.2052C234.148 42.5377 237.143 41.2545 240.661 41.2545C243.9 41.2545 246.791 42.639 248.706 45.2052V41.9299H254V64.7896H248.811V64.8234ZM241.706 46.4883C237.492 46.4883 234.497 49.5273 234.497 53.4779C234.497 57.226 237.736 60.1299 241.601 60.1299C245.816 60.1299 248.567 57.226 248.567 53.2416C248.706 49.5273 245.816 46.4883 241.706 46.4883ZM219.347 54.0857C219.347 52.3299 219.347 50 218.371 48.4805C217.536 47.2987 216.073 46.6234 214.506 46.6234C212.938 46.6234 211.267 47.4338 210.431 48.6156C209.351 50.1351 209.456 52.7013 209.456 54.4571V64.8234H203.674V41.9636H208.968V44.0571H209.072C210.5 42.2 213.147 41.2545 215.585 41.2545C218.128 41.2545 220.775 42.3013 222.446 44.0571C222.69 44.2935 222.934 44.5299 223.038 44.7662C224.954 47.2312 224.954 50.1351 224.954 53.039V64.9247H219.172V54.0857H219.347ZM193.818 62.3584C192.495 64.587 190.196 65.4987 187.549 65.4987C184.658 65.4987 182.012 64.452 179.957 62.3584C177.797 60.1299 177.658 57.8 177.658 54.8961V41.9636H183.474V53.174C183.474 54.5584 183.474 56.5507 184.206 57.8338C184.937 59.3533 186.504 60.1636 188.28 60.1636C192.599 60.1636 193.226 56.4156 193.226 53.174V41.9636H199.007V64.8234H193.714V62.3584H193.818ZM156.309 59.9273L167.001 46.7584H157.493V41.8623H173.862V46.7584L163.274 59.9273H174.698V64.8234H156.309V59.9273ZM147.393 61.6493C145.582 64.2156 142.447 65.4987 139.348 65.4987C135.865 65.4987 132.835 63.9792 130.676 61.6493C128.621 59.4208 127.437 56.4156 127.437 53.3766C127.437 50.3377 128.516 47.2987 130.676 44.9688C132.835 42.639 136.213 41.1195 139.592 41.1195C142.343 41.1195 145.129 42.1662 147.045 44.2597V34.2312H152.826V64.7896H147.532V61.6493H147.393ZM140.184 46.4883C136.457 46.4883 133.218 49.6286 133.218 53.1403C133.218 56.9896 136.213 60.1299 140.184 60.1299C144.154 60.1299 147.288 56.9896 147.288 53.2416C147.393 49.5273 144.154 46.4883 140.184 46.4883ZM118.869 61.6493C117.058 63.9792 113.68 65.4987 110.685 65.4987C106.958 65.4987 103.963 63.9792 101.769 61.6493C99.8534 59.4208 98.7737 56.5169 98.7737 53.3766C98.7737 50.2364 99.6096 47.5351 101.908 45.2052C104.311 42.5377 107.306 41.2545 110.824 41.2545C114.063 41.2545 116.954 42.639 118.869 45.2052V41.9299H124.163V64.7896H118.869V61.6493ZM111.799 46.4883C107.585 46.4883 104.59 49.5273 104.59 53.4779C104.59 57.226 107.829 60.1299 111.695 60.1299C115.909 60.1299 118.66 57.226 118.66 53.2416C118.765 49.5273 115.874 46.4883 111.799 46.4883ZM67.9862 76C55.3438 76 45 66.2078 45 54.187C45 49.0545 47.0548 44.2597 50.8859 40.7818C54.6472 37.2701 59.6972 35.3117 65.0955 35.3117C69.7972 35.3117 74.1158 36.6961 77.111 39.2623C80.3499 42.0649 82.3003 46.0156 82.3003 50.4727C82.3003 58.5091 75.7875 64.6883 67.2548 64.6883V57.9351C71.9565 57.9351 75.3 54.8961 75.3 50.4727C75.3 47.9065 74.3248 45.813 72.5486 44.2935C70.7375 42.774 68.0907 41.9636 65.0955 41.9636C61.6127 41.9636 58.3738 43.2468 55.9358 45.4753C53.5327 47.8052 52.2093 50.8442 52.2093 54.1195C52.2093 62.5273 59.3141 69.2805 68.0907 69.2805C78.7827 69.2805 87.4548 61.0078 87.4548 50.8442C87.4548 44.5299 85.1561 39.3974 80.8375 35.7844C76.5189 32.5091 70.5982 30.7532 63.8765 30.7532V24C72.3048 24 79.8624 26.4649 85.1561 30.7532C91.1813 35.6494 94.3158 42.5377 94.3158 50.8104C94.3506 64.6883 82.5441 76 67.9862 76Z" fill="#279B37"/>
</svg>
