<svg width="300" height="100" viewBox="0 0 300 100" fill="none" xmlns="http://www.w3.org/2000/svg">
<path fill-rule="evenodd" clip-rule="evenodd" d="M197.322 66.5188C183.507 59.7296 184.5 37.0911 198.836 31.9342C205.79 29.4267 215.513 32.1707 219.369 37.7298L220.694 39.6459L219.345 42.9814C217.831 46.6953 217.642 46.8609 216.861 45.0158C213.881 37.8008 202.218 35.9556 196.991 41.8696C189.634 50.2437 197.18 62.9941 208.038 60.5575C213.739 59.2565 215.82 56.9146 219.392 47.6889C223.225 37.7771 226.489 33.8976 232.521 32.0524C248.867 27.0848 261.76 43.0523 254.237 58.9253C249.104 69.7123 233.68 71.794 225.59 62.8048C223.059 59.9898 223.035 59.7769 224.786 55.6608L226.111 52.491L226.868 54.0759C229.091 58.7597 233.562 61.2436 239.05 60.8651C253.953 59.8242 253.054 38.5578 238.104 38.5578C231.102 38.5578 228.547 41.0416 224.147 52.2307C219.321 64.4134 215.182 67.8435 205.223 67.8435C200.492 67.8435 199.782 67.7252 197.322 66.5188ZM92.9055 31.8868C76.7014 36.4524 76.7487 62.2844 92.9292 67.1811C98.7721 68.9553 111.31 65.194 111.31 61.693C111.31 59.3038 107.998 58.736 103.125 60.2736C95.9808 62.5682 91.4862 60.3446 90.1851 53.9103L89.8776 52.3726L91.4862 52.7038C97.4947 54.0285 105.514 52.6802 108.897 49.7942C118.525 41.562 106.46 28.0783 92.9055 31.8868ZM101.824 38.4868C104.804 40.048 104.402 44.6846 101.138 46.3168C97.7313 47.9963 89.7357 47.0501 90.2561 44.9921C91.6754 39.2201 97.2109 36.1212 101.824 38.4868ZM150.578 31.3665C150.578 31.5321 158.668 51.4265 162.832 61.5511C165.599 68.222 165.954 68.5296 170.023 67.8436C174.423 67.0866 175.488 65.3124 183.554 44.8975C186.298 37.9901 188.616 32.1471 188.711 31.8633C188.9 31.4138 188.001 31.3902 182.915 31.5794C179.84 31.7213 178.965 33.117 174.21 45.3707C171.797 51.6158 169.668 56.5835 169.479 56.3705C169.313 56.1813 167.705 52.1835 165.931 47.4997L165.812 47.1859C161.755 36.4575 160.508 33.1594 158.204 32.0445C157.182 31.5497 155.951 31.4849 154.174 31.3914L154.15 31.3902C152.187 31.2955 150.578 31.2719 150.578 31.3665ZM54.607 32.1234C49.9232 33.1169 46.2329 36.5706 44.8372 41.2781C44.5474 42.2335 44.316 44.5677 44.205 46.6931L44 47.0859V60.0966L44.016 60.1607C43.7701 64.0253 46.3618 66.654 51.2243 67.3703L53.3533 67.6779V55.4715C53.3533 40.2846 54.2285 38.0373 60.1188 38.1319C66.1983 38.2265 67.523 40.8523 67.5703 52.9404C67.6176 64.579 68.5639 66.4241 74.9982 67.394L77.2692 67.7252L76.9853 56.1812C76.6541 41.5383 76.11 39.1018 72.4434 35.5771C69.0133 32.3126 61.065 30.775 54.607 32.1234ZM115.993 46.4114C116.064 34.9621 116.443 33.8266 120.654 32.3363C121.624 31.9814 123.067 31.6739 123.847 31.6739L125.267 31.6503L125.337 43.1942C125.432 58.2156 126.236 60.321 132.032 60.865C137.78 61.3855 139.365 58.2393 139.696 45.6071C140.004 33.8976 140.714 32.5255 146.793 31.7922L149.23 31.5083L149.04 43.762C148.828 58.1683 148.591 59.2564 144.641 63.1833C138.679 69.1682 124.912 68.8843 119.471 62.7102C116.49 59.3038 115.923 56.6307 115.993 46.4114Z" fill="#00B2F3"/>
</svg>
