<svg width="300" height="100" viewBox="0 0 300 100" fill="none" xmlns="http://www.w3.org/2000/svg">
<path fill-rule="evenodd" clip-rule="evenodd" d="M224.718 36.1748C224.183 35.5568 223.464 35.2461 222.496 35.2461C221.528 35.2461 220.788 35.5762 220.272 36.2568C219.759 36.9144 219.491 37.9024 219.491 39.1995V48.5863C218.297 47.2678 217.061 46.321 215.807 45.6832C215.023 45.2934 214.097 45.0058 213.068 44.8596C212.47 44.7775 211.853 44.7347 211.176 44.7347C208.026 44.7347 205.475 45.8476 203.518 48.0704C201.583 50.2945 200.615 53.3818 200.615 57.3521C200.615 59.2276 200.863 60.9767 201.355 62.5828C201.851 64.1873 202.549 65.5865 203.497 66.7813C204.444 67.9762 205.576 68.879 206.874 69.5398C208.169 70.176 209.57 70.5049 211.093 70.5049C211.792 70.5049 212.45 70.4455 213.068 70.3223C213.48 70.2584 213.87 70.1563 214.263 70.0314C215.23 69.7042 216.135 69.2308 216.959 68.6342C217.802 68.0158 218.648 67.2136 219.491 66.2453V66.8637C219.491 68.0372 219.779 68.9218 220.334 69.5596C220.911 70.176 221.631 70.5049 222.496 70.5049C223.382 70.5049 224.1 70.1974 224.658 69.6008C225.212 68.9828 225.501 68.0784 225.501 66.8637V38.8708C225.501 37.6956 225.232 36.7913 224.718 36.1748ZM218.317 62.0682C217.76 63.2618 217.02 64.1477 216.116 64.7233C215.189 65.3002 214.179 65.5865 213.068 65.5865H213.05C211.937 65.5865 210.928 65.2788 210 64.6821C209.075 64.0657 208.335 63.1584 207.799 61.9648C207.265 60.7498 206.997 59.2883 206.997 57.559C206.997 55.9331 207.244 54.4931 207.758 53.2781C208.253 52.0436 208.972 51.0952 209.879 50.4375C210.804 49.7569 211.835 49.4495 213.007 49.4495H213.068C214.159 49.4495 215.167 49.7783 216.094 50.4162C217.02 51.054 217.76 51.9827 218.317 53.196C218.873 54.4107 219.141 55.8722 219.141 57.559C219.141 59.3706 218.873 60.8746 218.317 62.0682Z" fill="#1D5AF1"/>
<path fill-rule="evenodd" clip-rule="evenodd" d="M198.661 62.3359C198.271 61.9857 197.735 61.8002 197.076 61.8002C196.479 61.8002 196.027 61.9448 195.698 62.211C194.894 62.9526 194.256 63.5476 193.762 63.9815C193.27 64.3943 192.713 64.8051 192.116 65.1949C191.541 65.5665 190.922 65.8558 190.306 66.0202C189.666 66.2044 188.989 66.2864 188.226 66.2864C188.062 66.2864 187.896 66.2864 187.753 66.2653C186.804 66.2044 185.921 65.9365 185.119 65.4417C184.171 64.8859 183.431 64.0656 182.852 62.9935C182.297 61.8823 182.01 60.6066 181.989 59.1666H194.401C196.066 59.1666 197.363 58.9182 198.271 58.4648C199.198 57.9713 199.65 56.9424 199.65 55.3574C199.65 53.6281 199.198 51.94 198.312 50.2746C197.426 48.6257 196.109 47.2677 194.319 46.219C192.547 45.17 190.428 44.6538 187.937 44.6538H187.753C185.921 44.6736 184.232 44.9842 182.731 45.5598C181.166 46.1778 179.847 47.0624 178.756 48.1935C177.709 49.3459 176.885 50.725 176.329 52.331C175.774 53.9387 175.484 55.6865 175.484 57.5588C175.484 61.5534 176.617 64.6819 178.882 67.0065C181.021 69.2109 183.987 70.3633 187.753 70.4852C187.958 70.5047 188.184 70.5047 188.412 70.5047C190.183 70.5047 191.766 70.2797 193.145 69.8076C194.524 69.3328 195.657 68.7556 196.564 68.0568C197.467 67.337 198.147 66.597 198.598 65.8343C199.052 65.0733 199.278 64.3943 199.278 63.8369C199.279 63.1991 199.073 62.6861 198.661 62.3359ZM183.84 50.7052C184.85 49.6137 186.147 49.0793 187.732 49.0793H187.753C189.399 49.0793 190.737 49.6137 191.746 50.6838C192.755 51.7558 193.352 53.3817 193.495 55.5629H181.989C182.193 53.4225 182.813 51.7954 183.84 50.7052Z" fill="#1D5AF1"/>
<path fill-rule="evenodd" clip-rule="evenodd" d="M171.676 61.8002C171.058 61.8002 170.606 61.9448 170.277 62.211C169.495 62.9526 168.837 63.5476 168.342 63.9815C167.848 64.3943 167.313 64.8051 166.715 65.1949C166.12 65.5665 165.521 65.8558 164.884 66.0202C164.266 66.2044 163.565 66.2864 162.804 66.2864C162.641 66.2864 162.477 66.2864 162.332 66.2653C161.384 66.2044 160.499 65.9365 159.695 65.4417C158.771 64.8859 158.009 64.0656 157.454 62.9935C156.876 61.8823 156.588 60.6066 156.567 59.1666H169C170.647 59.1666 171.944 58.9182 172.87 58.4648C173.776 57.9713 174.229 56.9424 174.229 55.3574C174.229 53.6281 173.797 51.94 172.911 50.2746C172.027 48.6257 170.688 47.2677 168.919 46.219C167.146 45.17 165.008 44.6538 162.539 44.6538H162.332C160.499 44.6736 158.832 44.9842 157.31 45.5598C155.743 46.1778 154.426 47.0624 153.356 48.1935C152.286 49.3459 151.463 50.725 150.909 52.331C150.351 53.9387 150.063 55.6865 150.063 57.5588C150.063 61.5534 151.218 64.6819 153.481 67.0065C155.622 69.2109 158.566 70.3633 162.332 70.4852C162.559 70.5047 162.763 70.5047 162.99 70.5047C164.78 70.5047 166.347 70.2797 167.723 69.8076C169.102 69.3328 170.236 68.7556 171.14 68.0568C172.066 67.337 172.725 66.597 173.179 65.8343C173.631 65.0733 173.859 64.3943 173.859 63.8369C173.859 63.1991 173.652 62.6861 173.261 62.3359C172.85 61.9857 172.313 61.8002 171.676 61.8002ZM158.42 50.7052C159.429 49.6137 160.725 49.0793 162.311 49.0793H162.332C163.978 49.0793 165.316 49.6137 166.325 50.6838C167.353 51.7558 167.93 53.3817 168.094 55.5629H156.567C156.796 53.4225 157.414 51.7954 158.42 50.7052Z" fill="#1D5AF1"/>
<path fill-rule="evenodd" clip-rule="evenodd" d="M87.2227 66.2865V51.1379C87.6536 51.1774 88.0661 51.1985 88.4983 51.1985C90.5567 51.1985 92.4932 50.643 94.1389 49.655V66.2865C94.1389 67.7071 93.8101 68.7557 93.1706 69.4574C92.5341 70.1562 91.6894 70.5048 90.6602 70.5048C89.6508 70.5048 88.8485 70.1562 88.1893 69.4363C87.5514 68.7359 87.2227 67.6856 87.2227 66.2865Z" fill="#1D5AF1"/>
<path fill-rule="evenodd" clip-rule="evenodd" d="M147.017 36.1748C146.481 35.5568 145.742 35.2461 144.815 35.2461C143.846 35.2461 143.105 35.5762 142.59 36.2568C142.057 36.9144 141.808 37.9024 141.808 39.1995V48.5863C140.614 47.2678 139.381 46.321 138.124 45.6832C137.323 45.2934 136.416 45.0058 135.387 44.8596C134.791 44.7775 134.173 44.7347 133.494 44.7347C130.345 44.7347 127.772 45.8476 125.837 48.0704C123.902 50.2945 122.934 53.3818 122.934 57.3521C122.934 59.2276 123.182 60.9767 123.654 62.5828C124.149 64.1873 124.868 65.5865 125.817 66.7813C126.762 67.9762 127.895 68.879 129.194 69.5398C130.491 70.176 131.888 70.5049 133.412 70.5049C134.091 70.5049 134.75 70.4455 135.387 70.3223C135.799 70.2584 136.19 70.1563 136.582 70.0314C137.548 69.7042 138.454 69.2308 139.278 68.6342C140.121 68.0158 140.946 67.2136 141.808 66.2453V66.8637C141.808 68.0372 142.099 68.9218 142.653 69.5596C143.208 70.176 143.95 70.5049 144.815 70.5049C145.656 70.5049 146.399 70.1974 146.956 69.6008C147.51 68.9828 147.778 68.0784 147.778 66.8637V38.8708C147.778 37.6956 147.533 36.7913 147.017 36.1748ZM140.635 62.0682C140.08 63.2618 139.338 64.1477 138.415 64.7233C137.507 65.3002 136.478 65.5865 135.387 65.5865H135.367C134.257 65.5865 133.246 65.2788 132.32 64.6821C131.374 64.0657 130.654 63.1584 130.118 61.9648C129.583 60.7498 129.316 59.2883 129.316 57.559C129.316 55.9331 129.564 54.4931 130.057 53.2781C130.571 52.0436 131.27 51.0952 132.197 50.4375C133.103 49.7569 134.152 49.4495 135.306 49.4495H135.387C136.478 49.4495 137.486 49.7783 138.393 50.4162C139.339 51.054 140.08 51.9827 140.636 53.196C141.17 54.4107 141.459 55.8722 141.459 57.559C141.459 59.3706 141.17 60.8746 140.635 62.0682Z" fill="#1D5AF1"/>
<path fill-rule="evenodd" clip-rule="evenodd" d="M104.287 48.1935V48.9775C105.418 47.4947 106.633 46.4243 107.95 45.7242C109.288 45.0452 110.812 44.6934 112.539 44.6934C114.208 44.6934 115.711 45.0649 117.027 45.7865C118.346 46.505 119.313 47.5359 119.97 48.8737C120.404 49.6549 120.67 50.4996 120.795 51.4056C120.919 52.2898 120.979 53.441 120.979 54.8415V66.6382C120.979 67.9139 120.67 68.8789 120.093 69.5183C119.518 70.1759 118.755 70.5047 117.83 70.5047C116.884 70.5047 116.121 70.1759 115.525 69.4972C114.927 68.838 114.64 67.8727 114.64 66.6382V56.076C114.64 53.9783 114.351 52.3723 113.774 51.261C113.199 50.151 112.025 49.594 110.297 49.594C109.164 49.594 108.135 49.9442 107.208 50.6018C106.283 51.2824 105.582 52.2062 105.15 53.4015C104.841 54.3483 104.696 56.0974 104.696 58.7129V66.6381C104.696 67.9336 104.39 68.8788 103.792 69.5396C103.195 70.1758 102.434 70.5047 101.487 70.5047C100.562 70.5047 99.8188 70.1758 99.2218 69.4972C98.6251 68.8379 98.3359 67.8726 98.3359 66.6381V48.2969C98.3359 47.0835 98.6038 46.1779 99.1398 45.6007C99.6544 45.0056 100.374 44.6934 101.302 44.6934C101.857 44.6934 102.35 44.8169 102.804 45.0864C103.258 45.3526 103.626 45.7453 103.895 46.2796C104.162 46.8141 104.287 47.4535 104.287 48.1935Z" fill="#1D5AF1"/>
<path fill-rule="evenodd" clip-rule="evenodd" d="M87.2626 29.9787C91.5451 28.4348 96.424 28.5168 100.087 31.6865C100.767 32.3244 101.548 33.1266 101.857 34.0735C102.227 35.2674 100.562 33.9489 100.334 33.7862C99.14 33.0034 97.9464 32.3458 96.6084 31.8922C89.4046 29.6693 82.5906 33.684 78.3508 39.9193C76.582 42.6781 75.4279 45.5796 74.4811 48.7703C74.3789 49.1205 74.2969 49.5742 74.1111 49.8803C73.9253 50.2335 74.0287 48.9364 74.0287 48.8936C74.172 47.5768 74.4399 46.3011 74.7703 45.0255C76.725 38.2311 81.0484 32.5711 87.2626 29.9787Z" fill="#1D5AF1"/>
<path fill-rule="evenodd" clip-rule="evenodd" d="M92.8419 46.8354C90.2689 48.1523 87.1177 47.1247 85.8223 44.552C84.5038 41.9776 85.5346 38.8293 88.1074 37.5323C90.6801 36.2155 93.8313 37.243 95.1267 39.8174C96.4435 42.3901 95.4146 45.5384 92.8419 46.8354Z" fill="#1D5AF1"/>
</svg>
