<svg width="300" height="100" viewBox="0 0 300 100" fill="none" xmlns="http://www.w3.org/2000/svg">
<path d="M215.594 38.9025C215.594 37.3889 216.833 36.2117 218.466 36.2117C220.212 36.2117 221.395 37.445 221.395 38.9025C221.395 40.36 220.156 41.5933 218.466 41.5933C216.833 41.6494 215.594 40.36 215.594 38.9025ZM220.55 44.7887C220.663 44.7887 220.775 44.9008 220.775 45.0129V62.6714C220.775 62.7835 220.663 62.8957 220.55 62.8957H216.438C216.326 62.8957 216.213 62.7835 216.213 62.6714V45.0129C216.213 44.9008 216.326 44.7887 216.438 44.7887H220.55ZM70.5094 58.5231L84.5898 40.6964C84.6461 40.6403 84.5898 40.5282 84.4772 40.5282H70.9037C70.7911 40.5282 70.6784 40.4161 70.6784 40.304V36.4359C70.6784 36.3238 70.7911 36.2117 70.9037 36.2117H91.0668C91.1794 36.2117 91.2921 36.3238 91.2921 36.4359V40.4161C91.2921 40.4721 91.2921 40.5282 91.2358 40.5843L76.9864 58.411C76.9301 58.467 76.9864 58.5791 77.0991 58.5791H91.0668C91.1794 58.5791 91.2921 58.6913 91.2921 58.8034V62.6714C91.2921 62.7835 91.1794 62.8957 91.0668 62.8957H70.6784C70.5658 62.8957 70.4531 62.7835 70.4531 62.6714V58.6913C70.4531 58.6352 70.5094 58.5791 70.5094 58.5231ZM124.409 36.4359C124.409 36.3238 124.522 36.2117 124.634 36.2117H133.026C140.742 36.2117 143.727 39.0146 143.727 43.8357C143.727 48.8249 140.123 50.8991 137.701 51.1794C137.645 51.1794 137.588 51.2354 137.645 51.2915L144.46 62.6154C144.516 62.7275 144.46 62.8957 144.291 62.8957H138.996C138.884 62.8957 138.771 62.8396 138.771 62.7275L132.688 51.6839C132.632 51.6278 132.576 51.5718 132.519 51.5718H129.253C129.196 51.5718 129.14 51.6278 129.14 51.6839V62.6714C129.14 62.7835 129.027 62.8957 128.915 62.8957H124.578C124.465 62.8957 124.353 62.7835 124.353 62.6714V36.4359H124.409ZM133.195 47.4795C136.687 47.4795 138.996 46.6947 138.996 43.7796C138.996 41.313 137.363 40.2479 133.308 40.2479H129.309C129.253 40.2479 129.196 40.304 129.196 40.36V47.3674C129.196 47.4234 129.253 47.4795 129.309 47.4795H133.195ZM178.196 50.0582C178.083 50.1703 177.971 50.1703 177.858 50.0582C177.351 49.6097 176.056 48.4325 174.31 48.4325C172.282 48.4325 169.241 49.7779 169.241 53.8702C169.241 58.0746 172.564 59.3079 174.423 59.3079C176.112 59.3079 177.52 58.2428 177.915 57.7943C178.027 57.6822 178.14 57.6822 178.252 57.7943L180.956 60.7094C181.069 60.8215 181.012 60.9336 180.956 61.0457C179.604 62.279 177.464 63.4002 174.592 63.4002C169.973 63.4002 164.735 60.4291 164.735 53.9263C164.735 47.5916 169.692 44.4523 174.592 44.4523C177.295 44.4523 179.379 45.5174 181.012 47.031C181.125 47.1431 181.125 47.2553 181.012 47.3674L178.196 50.0582ZM149.191 55.4398C149.134 55.4398 149.078 55.4959 149.078 55.552C149.303 57.6261 151.556 59.7003 153.922 59.7003C156.4 59.7003 157.582 58.6913 158.653 57.4019C158.709 57.2898 158.878 57.2898 158.934 57.3458L161.807 59.5321C161.919 59.5882 161.919 59.7564 161.863 59.8685C160.004 61.9987 157.639 63.2881 154.316 63.2881C149.078 63.2881 144.46 59.7564 144.46 53.8141C144.46 48.0961 148.796 44.3402 154.034 44.3402C158.99 44.3402 162.82 48.4886 162.82 54.1505V55.1595C162.82 55.2717 162.708 55.3838 162.595 55.3838L149.191 55.4398ZM158.258 52.0203C158.315 52.0203 158.371 51.9642 158.371 51.9081C158.371 49.7218 156.4 47.7037 153.922 47.7037C151.443 47.7037 149.416 49.2173 149.134 51.8521C149.134 51.9081 149.191 51.9642 149.247 51.9642L158.258 52.0203ZM242.403 55.4398C242.346 55.4398 242.29 55.4959 242.29 55.552C242.515 57.6261 244.768 59.7003 247.134 59.7003C249.612 59.7003 250.795 58.6913 251.865 57.4019C251.921 57.2898 252.09 57.2898 252.146 57.3458L255.019 59.5321C255.131 59.5882 255.131 59.7564 255.075 59.8685C253.216 61.9987 250.851 63.2881 247.528 63.2881C242.29 63.2881 237.672 59.7564 237.672 53.8141C237.672 48.0961 242.008 44.3402 247.246 44.3402C252.203 44.3402 256.032 48.4886 256.032 54.1505V55.1595C256.032 55.2717 255.92 55.3838 255.807 55.3838L242.403 55.4398ZM251.47 52.0203C251.527 52.0203 251.583 51.9642 251.583 51.9081C251.583 49.7218 249.612 47.7037 247.134 47.7037C244.655 47.7037 242.628 49.2173 242.346 51.8521C242.346 51.9081 242.403 51.9642 242.459 51.9642L251.47 52.0203ZM183.547 44.7887H187.095C187.208 44.7887 187.32 44.8447 187.32 44.9568L187.827 47.6477H187.883C189.798 43.9478 194.304 44.5084 194.698 44.5644C194.811 44.5644 194.867 44.6766 194.867 44.9008V48.3764C194.867 48.4886 194.755 48.6007 194.642 48.6007C194.642 48.6007 193.797 48.4325 193.065 48.4325C190.136 48.4325 188.052 51.0673 187.827 54.599V62.6154C187.827 62.7275 187.714 62.8396 187.602 62.8396H183.49C183.378 62.8396 183.265 62.7275 183.265 62.6154V45.0129C183.321 44.9008 183.434 44.7887 183.547 44.7887ZM258.68 44.7887H262.228C262.34 44.7887 262.453 44.8447 262.453 44.9568L262.96 47.6477H263.016C264.931 43.9478 269.437 44.5084 269.831 44.5644C269.944 44.5644 270 44.6766 270 44.9008V48.3764C270 48.4886 269.887 48.6007 269.775 48.6007C269.775 48.6007 268.93 48.4325 268.198 48.4325C265.269 48.4325 263.185 51.0673 262.96 54.599V62.6154C262.96 62.7275 262.847 62.8396 262.735 62.8396H258.623C258.511 62.8396 258.398 62.7275 258.398 62.6154V45.0129C258.454 44.9008 258.567 44.7887 258.68 44.7887ZM223.141 48.4325V45.0129C223.141 44.9008 223.253 44.7887 223.366 44.7887H226.802C226.858 44.7887 226.914 44.7326 226.914 44.6766V41.3691C226.914 41.257 226.971 41.2009 227.083 41.1448L231.195 39.6313C231.364 39.5752 231.476 39.6873 231.476 39.8555V44.6766C231.476 44.7326 231.533 44.7887 231.589 44.7887H236.264C236.376 44.7887 236.489 44.9008 236.489 45.0129V48.4325C236.489 48.5446 236.376 48.6567 236.264 48.6567H231.589C231.533 48.6567 231.476 48.7128 231.476 48.7688V56.561C231.476 58.1307 231.758 59.4761 234.011 59.4761C234.856 59.4761 235.7 59.3079 236.264 59.0837C236.376 59.0276 236.489 59.1397 236.489 59.2518V62.5593C236.489 62.6714 236.433 62.7836 236.32 62.8396C235.588 63.176 234.18 63.3441 232.884 63.3441C230.688 63.3441 229.223 62.8957 228.379 62.0548C227.59 61.27 226.971 60.0367 226.971 56.9534V48.7688C226.971 48.7128 226.914 48.6567 226.858 48.6567H223.422C223.253 48.6567 223.141 48.5446 223.141 48.4325ZM204.836 59.42C203.034 59.42 201.513 58.2988 201.457 56.2807V45.0129C201.457 44.9008 201.344 44.7887 201.232 44.7887H197.12C197.007 44.7887 196.895 44.9008 196.895 45.0129V55.7762C196.895 60.2048 200.218 63.3441 204.78 63.3441H204.893C209.455 63.3441 212.778 60.2048 212.778 55.7762V45.0129C212.778 44.9008 212.665 44.7887 212.552 44.7887H208.441C208.328 44.7887 208.215 44.9008 208.215 45.0129V56.2807C208.159 58.2988 206.638 59.42 204.836 59.42ZM107.006 60.7094C107.006 60.6533 107.118 60.5973 107.175 60.6533C108.357 62.1669 110.723 63.3441 113.314 63.3441C117.707 63.3441 122.1 59.9246 122.1 53.8702C122.1 47.4234 117.707 44.3963 113.145 44.3963C110.272 44.3963 108.076 45.7977 106.949 47.4795C106.893 47.5356 106.837 47.5356 106.78 47.4234L106.274 45.0129C106.274 44.9008 106.161 44.8447 106.048 44.8447H102.725C102.613 44.8447 102.5 44.9568 102.5 45.069V71.3045C102.5 71.4166 102.613 71.5287 102.725 71.5287H106.837C106.949 71.5287 107.062 71.4166 107.062 71.3045V60.7094H107.006ZM112.751 59.2518C109.766 59.2518 107.4 57.2337 107.4 53.8141C107.4 50.3946 109.766 48.3764 112.751 48.3764C114.497 48.3764 117.651 49.5537 117.651 53.8141C117.651 58.0746 114.384 59.2518 112.751 59.2518ZM93.6576 38.9025C93.6576 37.3889 94.8967 36.2117 96.53 36.2117C98.2759 36.2117 99.4587 37.445 99.4587 38.9025C99.4587 40.36 98.2196 41.5933 96.53 41.5933C94.8967 41.6494 93.6576 40.36 93.6576 38.9025ZM98.6139 44.7887C98.7265 44.7887 98.8392 44.9008 98.8392 45.0129V62.6714C98.8392 62.7835 98.7265 62.8957 98.6139 62.8957H94.5024C94.3898 62.8957 94.2771 62.7835 94.2771 62.6714V45.0129C94.2771 44.9008 94.3898 44.7887 94.5024 44.7887H98.6139Z" fill="#343E45"/>
<path fill-rule="evenodd" clip-rule="evenodd" d="M58.7941 39.8556C58.4561 39.7435 58.0619 39.7995 57.6676 39.9116L56.147 40.4162V26.3454C56.147 25.6166 55.5274 25 54.7952 25H34.8011C34.0689 25 33.4494 25.6166 33.4494 26.3454V40.4722L31.9287 39.9677C31.5345 39.8556 31.1402 39.7995 30.8023 39.9116C30.2391 40.0238 29 40.5844 29 42.7706V54.543C29.169 55.5521 29.8448 56.7293 31.3655 56.7293H36.4344C36.9413 57.3459 38.1804 58.355 40.5459 58.5232C40.6022 60.261 41.616 61.7185 43.1367 62.3352V65.6426C43.1367 65.6987 43.0804 65.7548 43.024 65.7548C35.9275 65.979 31.4218 68.2213 30.1264 68.9501C29.3379 69.3986 29.169 70.3516 29.169 70.9682V73.5469C29.2253 74.4439 29.9575 75.1726 30.9149 75.1726C31.7598 75.1726 32.4919 74.4439 32.5483 73.603C32.6046 72.7621 32.0414 72.0894 31.2529 71.8652C31.1965 71.8652 31.1402 71.8091 31.1402 71.7531V70.8C31.1402 70.5758 31.2529 70.3516 31.4781 70.2395C33.3931 69.1743 38.293 68.6698 42.0103 68.4456H43.0804C43.1367 68.4456 43.193 68.5016 43.193 68.5577C43.362 71.5288 43.6999 74.0515 43.8125 75.6211H43.6999C43.0804 75.6211 42.5172 76.3499 42.5172 77.3029C42.5172 78.2559 43.0804 78.9846 43.6999 78.9846H45.9528C46.5723 78.9846 47.1355 78.2559 47.1355 77.3029C47.1355 76.3499 46.5723 75.6211 45.9528 75.6211H45.8401C45.8401 75.6211 46.2344 71.5288 46.4597 68.5577C46.4597 68.5016 46.516 68.4456 46.5723 68.4456H47.6424C51.3596 68.6138 56.2596 69.1743 58.1745 70.2395C58.3998 70.3516 58.5125 70.5758 58.5125 70.8V71.7531C58.5125 71.8091 58.4561 71.8652 58.3998 71.8652C57.6113 72.0333 57.0481 72.7621 57.1044 73.603C57.1607 74.4439 57.8929 75.1726 58.7377 75.1726C59.6389 75.1726 60.4274 74.4999 60.4837 73.5469V70.9682C60.4837 70.3516 60.3147 69.4546 59.5262 68.9501C58.2308 68.2213 53.6688 65.979 46.6286 65.6987C46.5723 65.6987 46.516 65.6426 46.516 65.5866V62.2791C48.0367 61.6625 49.0504 60.2049 49.1068 58.4671C51.4159 58.2989 52.655 57.2338 53.2182 56.6732H58.2872C59.8078 56.6732 60.4837 55.496 60.6527 54.4869V42.7146C60.5963 40.5283 59.3573 40.0238 58.7941 39.8556ZM33.4494 52.0764L31.1402 53.8142C31.0839 53.8703 31.0276 53.8142 31.0276 53.7582V42.7146C31.0276 42.2661 31.0839 41.7055 31.3092 41.7616L33.3368 42.4343C33.3931 42.4343 33.4494 42.5464 33.4494 42.6025V52.0764ZM58.5125 53.8142L56.2033 52.0764V42.6585C56.2033 42.6025 56.2596 42.5464 56.3159 42.4904L58.3435 41.8176C58.6251 41.7616 58.6251 42.3222 58.6251 42.7706V53.8142C58.6251 53.8142 58.5688 53.8703 58.5125 53.8142Z" fill="#B2E522"/>
</svg>
