<svg width="24" height="24" viewBox="0 0 24 24" fill="none" xmlns="http://www.w3.org/2000/svg">
    <circle cx="12" cy="12" r="12" fill="white" fill-opacity="0.5"/>
    <path d="M11.4833 17.0549C11.8011 16.8631 12.1989 16.8631 12.5167 17.0549L15.533 18.8754C16.2903 19.3325 17.2245 18.6535 17.0236 17.792L16.2231 14.3608C16.1388 13.9993 16.2616 13.6208 16.5422 13.3778L19.2086 11.0679C19.8772 10.4887 19.5198 9.39042 18.6384 9.31564L15.1299 9.01798C14.7603 8.98662 14.4384 8.75328 14.2937 8.41179L12.9207 5.17237C12.5761 4.35934 11.4239 4.35934 11.0793 5.17237L9.70632 8.41179C9.56158 8.75329 9.23971 8.98662 8.87013 9.01798L5.36163 9.31564C4.4802 9.39042 4.1228 10.4887 4.79139 11.0679L7.4578 13.3778C7.73836 13.6208 7.86121 13.9993 7.77687 14.3608L6.97641 17.792C6.77545 18.6535 7.70968 19.3325 8.467 18.8754L11.4833 17.0549Z" fill="white"/>
</svg>
