<svg width="12" height="12" viewBox="0 0 12 12" fill="none" xmlns="http://www.w3.org/2000/svg">
    <path d="M5.48327 10.0009C5.80106 9.80907 6.19894 9.80907 6.51674 10.0009L8.297 11.0754C9.05432 11.5325 9.98855 10.8535 9.78759 9.99205L9.31513 7.9668C9.23079 7.60531 9.35364 7.22684 9.6342 6.98379L11.2086 5.61989C11.8772 5.04068 11.5198 3.94242 10.6384 3.86764L8.56786 3.69198C8.19829 3.66062 7.87642 3.42729 7.73168 3.08579L6.92072 1.17237C6.57613 0.359341 5.42387 0.359342 5.07928 1.17237L4.26832 3.08579C4.12358 3.42729 3.80171 3.66062 3.43214 3.69198L1.36163 3.86764C0.480204 3.94242 0.122796 5.04068 0.791394 5.61989L2.36579 6.98379C2.64636 7.22684 2.76921 7.60531 2.68487 7.9668L2.21241 9.99205C2.01145 10.8535 2.94568 11.5325 3.703 11.0754L5.48327 10.0009Z" fill="#FFB729"/>
</svg>
