<svg width="107" height="53" viewBox="0 0 107 53" fill="none" xmlns="http://www.w3.org/2000/svg">
<path d="M58.7547 33.0975H57.2725C57.2725 27.8949 57.1539 23.6855 57.1539 20.4098V17.9197H59.8515C63.454 17.8008 67.0603 17.9444 70.6419 18.3496C70.5749 17.8583 70.5402 17.3632 70.5382 16.8674C70.5402 16.3272 70.5749 15.7877 70.6419 15.2518C65.2764 15.563 61.1558 15.6668 58.2507 15.6668H57.228V13.6065C57.228 12.4652 57.228 8.83385 57.3466 2.63826H58.6509C63.0975 2.63826 67.6331 2.8013 72.1982 3.15703C72.1982 2.63826 72.1982 2.10466 72.1982 1.67483C72.1982 1.24499 72.1982 0.652109 72.1982 0.192627C66.0323 0.296381 61.6153 0.340847 59.1104 0.340847C56.6055 0.340847 54.3081 0.340847 52.1441 0.192627C52.4405 5.0246 52.5443 10.7755 52.5443 17.5344C52.5443 24.8564 52.4405 30.8742 52.0996 35.6617C55.8051 35.5727 59.2883 35.5727 62.6973 35.5727C66.1064 35.5727 69.3821 35.5727 72.4502 35.6617C72.4502 35.1429 72.4502 34.6241 72.4502 34.1795C72.4502 33.7348 72.4502 33.1271 72.4502 32.6083C66.2398 33.0233 61.6153 33.1864 58.7399 33.1864" fill="#2360A5"/>
<path d="M85.9675 33.6608C84.3815 33.6608 82.6622 33.557 80.7798 33.394C80.6315 27.8802 80.5723 22.2775 80.5723 16.571C80.5723 11.9021 80.5722 7.15902 80.7205 2.32705C83.4922 2.11955 85.9971 2.07508 88.1315 2.07508C97.8992 2.07508 102.094 6.52168 102.094 17.8012C102.094 28.5027 96.7579 33.6608 85.9082 33.6608H85.9675ZM100.567 2.53456C97.6917 0.415016 94.2233 0 89.584 0C85.5969 0 82.3954 0.266796 80.0387 0.266796C78.6602 0.266796 76.9705 0.266796 75.9033 0.163042C76.096 5.45449 76.096 11.3685 76.096 17.9494C76.096 24.1895 76.096 30.1183 75.9033 35.7358L80.3499 35.6321C82.8104 35.6321 85.2115 35.8396 87.5534 35.8396C100.33 35.8396 107 29.1252 107 16.9267C107 10.4347 104.732 5.43967 100.686 2.59385" fill="#2360A5"/>
<path d="M7.67773 16.8378C7.15896 16.8378 6.49197 16.8378 5.81016 16.8378V7.63337C5.78979 5.86397 5.89877 4.09544 6.13624 2.34192C7.97417 2.23817 9.50084 2.17888 10.5828 2.17888C17.149 2.17888 20.4098 4.52075 20.4098 9.18968C20.4098 14.3329 16.1707 16.8378 7.66291 16.8378H7.67773ZM35.5727 33.0976H34.0905C34.0905 27.8802 34.0905 23.7152 34.0905 20.4099V17.9198H36.7733C40.3758 17.8028 43.982 17.9465 47.5637 18.3497C47.4925 17.8587 47.4529 17.3636 47.4451 16.8675C47.4529 16.3271 47.4925 15.7876 47.5637 15.2519C42.1833 15.5631 38.0628 15.6669 35.1577 15.6669H34.0905V13.6066C34.0905 12.4653 34.0905 8.83395 34.1943 2.63836H35.5727C40.0193 2.63836 44.5549 2.8014 49.12 3.15713C49.12 2.63836 49.12 2.10477 49.12 1.67493C49.12 1.24509 49.12 0.652212 49.12 0.19273C42.9837 0.26684 38.5371 0.311306 36.0026 0.311306C33.468 0.311306 31.1261 0.26684 29.0066 0.163086C29.303 4.99506 29.4068 10.746 29.4068 17.5048C29.4068 23.6411 29.3327 28.8733 29.0955 33.2161C28.7398 33.4681 28.1766 33.2161 27.6133 32.8901C22.811 27.48 18.483 22.5147 14.8368 18.1422L14.7182 18.0236C21.6549 16.6748 25.39 13.2361 25.39 8.53751C25.39 2.96444 21.1213 0.163086 12.5393 0.163086C8.89314 0.163086 5.85463 0.370594 3.39417 0.370594C2.75683 0.370594 1.91198 0.370594 0.755859 0.281662C1.0523 4.8913 1.17088 10.8201 1.17088 18.0681C1.17088 24.7824 1.09677 30.726 0.755859 35.8545C1.64411 35.7264 2.54142 35.6718 3.43864 35.6914C4.32116 35.6682 5.20401 35.7227 6.07696 35.8545C5.89909 32.8901 5.81016 30.4 5.81016 28.0581V18.409C6.16252 18.3457 6.5194 18.311 6.87734 18.3052H8.0631C8.45277 18.3345 8.83089 18.4509 9.16953 18.6458C9.50817 18.8408 9.79868 19.1094 10.0196 19.4317L16.3041 26.6796C18.5719 29.3772 20.7507 32.2824 23.3298 35.5728C23.3298 35.5728 30.7408 35.5728 35.4542 35.5728C40.1675 35.5728 49.3424 35.5728 49.3424 35.5728C49.3424 35.5728 49.3424 34.5798 49.3424 34.0906C49.3424 33.6015 49.3424 33.0383 49.3424 32.5195C43.1171 32.9345 38.4778 33.0976 35.6172 33.0976" fill="#2360A5"/>
<path d="M4.89126 52.4255C5.85509 52.4225 6.79644 52.134 7.59641 51.5964C8.39639 51.0588 9.0191 50.2962 9.38592 49.4049C9.75273 48.5136 9.84719 47.5336 9.65736 46.5886C9.46753 45.6437 9.00193 44.7762 8.31936 44.0957C7.63679 43.4152 6.76787 42.9522 5.82234 42.7652C4.87682 42.5783 3.89709 42.6757 3.0069 43.0452C2.11671 43.4147 1.35599 44.0398 0.82081 44.8414C0.285632 45.643 4.45233e-06 46.5852 0 47.549C-2.96386e-06 48.1907 0.126619 48.826 0.37261 49.4186C0.6186 50.0112 0.979122 50.5494 1.43351 51.0024C1.8879 51.4554 2.42723 51.8143 3.02058 52.0585C3.61392 52.3027 4.24963 52.4274 4.89126 52.4255Z" fill="#C20E1A"/>
<path d="M18.9575 52.4255C19.9226 52.4255 20.866 52.1391 21.6683 51.6026C22.4705 51.0661 23.0955 50.3037 23.4642 49.4117C23.8328 48.5198 23.9285 47.5386 23.7391 46.5922C23.5498 45.6459 23.0839 44.777 22.4004 44.0956C21.7169 43.4143 20.8467 42.951 19.8997 42.7645C18.9528 42.578 17.9719 42.6767 17.0811 43.0481C16.1903 43.4194 15.4297 44.0468 14.8957 44.8506C14.3616 45.6545 14.0781 46.5988 14.0811 47.5639C14.0811 48.2036 14.2073 48.837 14.4526 49.4278C14.6978 50.0186 15.0572 50.5552 15.5102 51.0068C15.9633 51.4584 16.501 51.8162 17.0925 52.0597C17.6841 52.3031 18.3178 52.4274 18.9575 52.4255Z" fill="#C20E1A"/>
<path d="M33.0237 52.4255C33.9888 52.4284 34.9331 52.1449 35.737 51.6109C36.5408 51.0768 37.1682 50.3162 37.5395 49.4254C37.9109 48.5347 38.0096 47.5537 37.8231 46.6068C37.6366 45.6599 37.1733 44.7896 36.492 44.1061C35.8106 43.4227 34.9417 42.9568 33.9954 42.7674C33.049 42.578 32.0678 42.6737 31.1759 43.0424C30.2839 43.411 29.5215 44.036 28.985 44.8383C28.4485 45.6405 28.1621 46.5839 28.1621 47.549C28.1621 48.8423 28.6759 50.0827 29.5904 50.9972C30.5049 51.9117 31.7452 52.4255 33.0385 52.4255" fill="#C20E1A"/>
</svg>
