<svg width="234" height="296" viewBox="0 0 234 296" fill="none" xmlns="http://www.w3.org/2000/svg">
<path d="M25.7495 201.557L17.9215 240.057L72.0568 185.922L33.5565 193.75C29.6232 194.55 26.5493 197.624 25.7495 201.557Z" fill="#2D356A" fill-opacity="0.7"/>
<path d="M63.572 231.572L72.0554 185.92L17.9201 240.055L63.572 231.572Z" fill="white" fill-opacity="0.8"/>
<rect width="63.7944" height="38.2144" rx="4" transform="matrix(0.707107 -0.707107 0.712457 0.701716 17 231.109)" fill="url(#paint0_linear)" fill-opacity="0.95"/>
<path d="M59.693 227.419C60.4335 226.484 60.7957 225.582 60.7797 224.712C60.7708 223.836 60.4148 223.051 59.7117 222.358C59.4124 222.062 59.0951 221.861 58.7597 221.755C58.4243 221.648 58.0745 221.611 57.7102 221.643C57.3531 221.669 56.9815 221.757 56.5956 221.908C56.2028 222.053 55.7992 222.229 55.385 222.436L59.693 227.419ZM47.6797 216.6C47.299 217.064 47.0234 217.513 46.8529 217.947C46.6754 218.374 46.5821 218.778 46.5728 219.161C46.5567 219.537 46.6177 219.884 46.7558 220.202C46.894 220.52 47.0919 220.806 47.3494 221.06C47.6418 221.349 47.9521 221.55 48.2805 221.664C48.6089 221.778 48.9516 221.829 49.3087 221.817C49.6659 221.791 50.0373 221.717 50.423 221.594C50.8018 221.463 51.1948 221.305 51.6019 221.119L47.6797 216.6ZM53.424 220.166C54.0841 219.809 54.7546 219.477 55.4354 219.169C56.1163 218.847 56.8001 218.633 57.4867 218.526C58.1664 218.413 58.8418 218.449 59.5127 218.635C60.1907 218.814 60.8534 219.222 61.5008 219.861C62.1342 220.486 62.6237 221.185 62.9693 221.96C63.3149 222.72 63.4958 223.521 63.5119 224.363C63.5211 225.198 63.3586 226.052 63.0246 226.926C62.6906 227.786 62.1642 228.625 61.4454 229.441L62.9893 231.215C63.1284 231.367 63.2008 231.557 63.2065 231.786C63.2192 232.023 63.1375 232.229 62.9614 232.405L62.1165 233.251L60.0094 230.817C59.0811 231.552 58.0908 232.115 57.0385 232.505C55.9862 232.88 54.9526 233.071 53.9375 233.078L53.5903 231.371C53.5632 231.218 53.5711 231.065 53.6139 230.912C53.6569 230.744 53.7382 230.6 53.8579 230.481C54.0058 230.333 54.2234 230.232 54.5107 230.18C54.8051 230.12 55.1485 230.053 55.541 229.978C55.9265 229.897 56.3542 229.773 56.8242 229.607C57.2872 229.433 57.7683 229.166 58.2674 228.805L53.5942 223.42C52.9552 223.769 52.3022 224.097 51.6354 224.405C50.9686 224.7 50.2885 224.889 49.595 224.975C48.9085 225.054 48.2158 224.986 47.517 224.773C46.8252 224.553 46.1313 224.099 45.4352 223.413C44.9132 222.898 44.5071 222.295 44.2171 221.603C43.9341 220.904 43.7983 220.168 43.8098 219.396C43.8214 218.61 43.9975 217.804 44.3383 216.978C44.6721 216.146 45.1983 215.336 45.917 214.547L44.6234 213.061C44.4773 212.903 44.4015 212.71 44.3958 212.48C44.3901 212.251 44.4753 212.048 44.6513 211.871L45.4963 211.025L47.3843 213.202C48.228 212.565 49.0707 212.122 49.9121 211.875C50.7467 211.62 51.5595 211.484 52.3507 211.467L52.6367 212.841C52.7255 213.236 52.6572 213.546 52.4319 213.772C52.3262 213.878 52.1612 213.967 51.9368 214.039C51.7194 214.105 51.4599 214.185 51.1583 214.279C50.8638 214.367 50.5411 214.482 50.1903 214.626C49.8394 214.77 49.4848 214.966 49.1263 215.214L53.424 220.166Z" fill="white"/>
<path fill-rule="evenodd" clip-rule="evenodd" d="M17.998 240.135L48.2336 270.37C50.1863 272.323 53.3521 272.323 55.3047 270.37L102.369 223.306C104.322 221.353 104.322 218.188 102.369 216.235L72.1334 185.999L72.018 186.115L63.5709 231.571L18.1149 240.018L17.998 240.135Z" fill="#2D356A"/>
<path d="M113.947 179.461L219 154V214.96L106.31 219L77.3149 200.359C73.9762 198.213 69.8478 197.686 66.077 198.925L51.5455 204.837C50.8094 205.136 50.0221 205.29 49.2274 205.29H44.8103C42.1536 205.29 40 203.136 40 200.48C40 199.498 40.45 198.57 41.2211 197.962L53.1791 188.531C56.7076 185.749 61.0702 184.235 65.5638 184.235H81.4922C82.5139 184.235 83.5342 184.157 84.544 184.001L113.947 179.461Z" fill="url(#paint1_linear)"/>
<path d="M220.513 103.841L234 98V296H212.158H194L196.125 240.201C197.858 194.676 205.805 149.601 219.746 106.228L220.513 103.841Z" fill="url(#paint2_linear)"/>
<path d="M206.692 41.9725L255.13 52.6477L223.211 143.948L191.853 125.969H170.573H147.503C142.388 125.969 137.675 123.194 135.194 118.721C132.521 113.902 132.906 107.967 136.178 103.533L145.377 91.0693L156.188 76.0283L179.238 50.7626C180.133 49.7808 180.63 48.4997 180.63 47.1707C180.63 34.3398 196.986 28.9238 204.644 39.2191L206.692 41.9725Z" fill="url(#paint3_linear)"/>
<path d="M214.693 43.4264L266.645 54.8839L232.411 152.876L203.4 136.231C200.371 134.493 196.94 133.579 193.447 133.579H175.954H150.629C145.311 133.579 140.211 131.461 136.458 127.692L134.756 125.983C126.984 118.179 126.984 105.56 134.756 97.7563L141.088 91.3993C141.904 90.5799 142.571 89.6252 143.061 88.5775L147.111 79.9152C148.501 76.942 150.601 74.3565 153.227 72.3869L184.126 49.2053C185.299 48.3255 186.101 47.0393 186.374 45.5989C189.083 31.321 208.66 29.2182 214.34 42.5951L214.693 43.4264Z" fill="url(#paint4_linear)"/>
<path d="M132.618 98.6185L134.442 97.0822C136.909 95.0049 140.552 95.1484 142.847 97.4131L144.189 98.7365C152.015 106.457 157.403 116.305 159.684 127.059C160.425 130.551 157.761 133.839 154.191 133.839H149.284C144.786 133.839 140.43 132.257 136.979 129.371L132.663 125.762C124.214 118.695 124.192 105.713 132.618 98.6185Z" fill="url(#paint5_linear)"/>
<path d="M125.196 107.525L125.777 107.038C126.566 106.376 127.728 106.422 128.463 107.143L128.905 107.578C131.414 110.043 133.142 113.191 133.875 116.631C134.112 117.746 133.262 118.797 132.121 118.797H130.53C129.089 118.797 127.693 118.292 126.586 117.37L125.211 116.224C122.496 113.962 122.489 109.796 125.196 107.525Z" fill="url(#paint6_linear)"/>
<path d="M162.534 92.71C160.846 92.71 159.478 91.3422 159.478 89.6548C159.478 87.9675 160.846 86.5996 162.534 86.5996C164.221 86.5996 165.589 87.9675 165.589 89.6548C165.589 91.3422 164.221 92.71 162.534 92.71Z" fill="#212B36"/>
<defs>
<linearGradient id="paint0_linear" x1="7.08826" y1="4.60877" x2="65.2449" y2="35.4821" gradientUnits="userSpaceOnUse">
<stop stop-color="#3DFF17"/>
<stop offset="1" stop-color="#00FF94"/>
</linearGradient>
<linearGradient id="paint1_linear" x1="136.671" y1="189.744" x2="136.349" y2="174.556" gradientUnits="userSpaceOnUse">
<stop stop-color="white"/>
<stop offset="1" stop-color="#DFE3E8"/>
</linearGradient>
<linearGradient id="paint2_linear" x1="194" y1="185" x2="234" y2="296" gradientUnits="userSpaceOnUse">
<stop stop-color="#F7F8FA"/>
<stop offset="1" stop-color="#C4CDD5"/>
</linearGradient>
<linearGradient id="paint3_linear" x1="148.198" y1="95.7697" x2="162.304" y2="36.0769" gradientUnits="userSpaceOnUse">
<stop stop-color="white"/>
<stop offset="1" stop-color="#ECEFF2"/>
</linearGradient>
<linearGradient id="paint4_linear" x1="225.987" y1="109.398" x2="229.747" y2="165.801" gradientUnits="userSpaceOnUse">
<stop stop-color="white"/>
<stop offset="1" stop-color="#ECEFF2"/>
</linearGradient>
<linearGradient id="paint5_linear" x1="151.251" y1="111.982" x2="124.93" y2="119.738" gradientUnits="userSpaceOnUse">
<stop stop-color="#C4CDD5"/>
<stop offset="1" stop-color="#E1E5E9"/>
</linearGradient>
<linearGradient id="paint6_linear" x1="131.751" y1="112.217" x2="122.721" y2="114.306" gradientUnits="userSpaceOnUse">
<stop stop-color="#212B36"/>
<stop offset="1"/>
</linearGradient>
</defs>
</svg>
