<svg width="15" height="18" viewBox="0 0 15 18" fill="none" xmlns="http://www.w3.org/2000/svg">
    <path d="M13.5 8.09961H0.900024V17.0996H13.5V8.09961Z" fill="#5C6AC4"/>
    <mask id="mask0" mask-type="alpha" maskUnits="userSpaceOnUse" x="0" y="0" width="15" height="18">
        <path d="M13.5 7.2H12.6V5.4C12.6 2.4219 10.1781 0 7.2 0C4.2219 0 1.8 2.4219 1.8 5.4V7.2H0.9C0.4023 7.2 0 7.6023 0 8.1V17.1C0 17.5977 0.4023 18 0.9 18H13.5C13.9977 18 14.4 17.5977 14.4 17.1V8.1C14.4 7.6023 13.9977 7.2 13.5 7.2ZM1.8 16.2H12.6V9H1.8V16.2ZM3.6 5.4C3.6 3.4146 5.2146 1.8 7.2 1.8C9.1854 1.8 10.8 3.4146 10.8 5.4V7.2H3.6V5.4ZM7.2 14.4C7.6977 14.4 8.1 13.9977 8.1 13.5V11.7C8.1 11.2023 7.6977 10.8 7.2 10.8C6.7023 10.8 6.3 11.2023 6.3 11.7V13.5C6.3 13.9977 6.7023 14.4 7.2 14.4Z"
              fill="#5C6AC4"/>
    </mask>
    <g mask="url(#mask0)">
        <path d="M13.5 7.2H12.6V5.4C12.6 2.4219 10.1781 0 7.2 0C4.2219 0 1.8 2.4219 1.8 5.4V7.2H0.9C0.4023 7.2 0 7.6023 0 8.1V17.1C0 17.5977 0.4023 18 0.9 18H13.5C13.9977 18 14.4 17.5977 14.4 17.1V8.1C14.4 7.6023 13.9977 7.2 13.5 7.2ZM1.8 16.2H12.6V9H1.8V16.2ZM3.6 5.4C3.6 3.4146 5.2146 1.8 7.2 1.8C9.1854 1.8 10.8 3.4146 10.8 5.4V7.2H3.6V5.4ZM7.2 14.4C7.6977 14.4 8.1 13.9977 8.1 13.5V11.7C8.1 11.2023 7.6977 10.8 7.2 10.8C6.7023 10.8 6.3 11.2023 6.3 11.7V13.5C6.3 13.9977 6.7023 14.4 7.2 14.4Z"
              fill="#5C6AC4"/>
    </g>
    <circle cx="7.20002" cy="12.5998" r="1.8" fill="#EFF1F9"/>
</svg>
