<svg width="88" height="16" viewBox="0 0 88 16" fill="none" xmlns="http://www.w3.org/2000/svg">
    <path fill-rule="evenodd" clip-rule="evenodd" d="M63.2496 14.6525C57.5506 11.8518 57.9604 2.51278 63.8742 0.385391C66.7432 -0.649025 70.754 0.482978 72.3447 2.77626L72.8912 3.56671L72.3349 4.94268C71.7104 6.47479 71.6323 6.5431 71.3103 5.78192C70.0807 2.80554 65.2697 2.04436 63.113 4.48402C60.0781 7.93858 63.1911 13.1985 67.6703 12.1934C70.0221 11.6566 70.8809 10.6905 72.3544 6.88465C73.9353 2.79578 75.282 1.19536 77.7705 0.434184C84.5137 -1.61513 89.8322 4.97195 86.7289 11.52C84.6113 15.9699 78.2487 16.8287 74.9112 13.1204C73.867 11.9591 73.8573 11.8713 74.5794 10.1733L75.1259 8.86565L75.4382 9.51948C76.3555 11.4517 78.1999 12.4764 80.4639 12.3202C86.6118 11.8908 86.241 3.11781 80.0735 3.11781C77.185 3.11781 76.131 4.14247 74.3159 8.75831C72.3252 13.784 70.6174 15.199 66.509 15.199C64.5573 15.199 64.2645 15.1502 63.2496 14.6525ZM20.1749 0.366478C13.4903 2.2499 13.5098 12.9063 20.1847 14.9264C22.5951 15.6583 27.7672 14.1067 27.7672 12.6624C27.7672 11.6767 26.401 11.4425 24.3907 12.0769C21.4436 13.0234 19.5894 12.1061 19.0527 9.45178L18.9258 8.81747L19.5894 8.95409C22.0681 9.50057 25.3763 8.94433 26.7718 7.75377C30.7436 4.35776 25.7666 -1.20466 20.1749 0.366478ZM23.854 3.08914C25.0835 3.73321 24.9176 5.64591 23.571 6.31925C22.1657 7.01212 18.8673 6.62177 19.082 5.77277C19.6675 3.39166 21.951 2.11328 23.854 3.08914ZM43.9665 0.151272C43.9665 0.219583 47.304 8.4266 49.0215 12.6033C50.1633 15.3552 50.3097 15.4821 51.9882 15.1991C53.8033 14.8868 54.2424 14.1549 57.5701 5.73322C58.7021 2.88369 59.6585 0.473308 59.6975 0.356204C59.7756 0.17079 59.4047 0.161031 57.3066 0.2391C56.038 0.297652 55.6769 0.873413 53.7154 5.92839C52.7201 8.50467 51.8418 10.554 51.7637 10.4662C51.6954 10.3881 51.0318 8.73888 50.2999 6.80667L50.251 6.67722C48.5773 2.25144 48.0628 0.890912 47.1125 0.430984C46.6906 0.226843 46.183 0.200125 45.4499 0.161549L45.4401 0.161031C44.6301 0.121996 43.9665 0.112238 43.9665 0.151272ZM4.3757 0.464433C2.44348 0.874297 0.921136 2.29906 0.345376 4.24103C0.225786 4.63523 0.13032 5.59837 0.0845274 6.47529L0 6.6373V12.0046L0.00659347 12.0309C-0.0946962 13.625 0.974416 14.7093 2.98021 15.0048L3.85849 15.1317V10.0962C3.85849 3.83117 4.21956 2.90409 6.64946 2.94313C9.15743 2.98216 9.70392 4.06537 9.72343 9.05204C9.74295 13.8533 10.1333 14.6145 12.7876 15.0146L13.7245 15.1512L13.6074 10.389C13.4708 4.34837 13.2463 3.34323 11.7337 1.8892C10.3187 0.542503 7.03981 -0.0918093 4.3757 0.464433ZM29.6994 6.35902C29.7287 1.63584 29.8848 1.16742 31.6218 0.55263C32.0219 0.40625 32.6172 0.279387 32.9393 0.279387L33.5248 0.269629L33.5541 5.03185C33.5931 11.2286 33.9249 12.0971 36.3157 12.3216C38.6871 12.5362 39.3409 11.2383 39.4775 6.02723C39.6044 1.1967 39.8972 0.630699 42.4051 0.328181L43.4103 0.211077L43.3322 5.26606C43.2444 11.2091 43.1468 11.658 41.5171 13.2779C39.0579 15.7468 33.3784 15.6297 31.1339 13.0827C29.9043 11.6775 29.6701 10.5748 29.6994 6.35902Z" fill="#8F93AC"/>
</svg>
