<svg width="85" height="19" viewBox="0 0 85 19" fill="none" xmlns="http://www.w3.org/2000/svg">
    <path d="M65.6188 4.88963C65.6188 4.35735 66.0546 3.94336 66.629 3.94336C67.243 3.94336 67.6589 4.37707 67.6589 4.88963C67.6589 5.4022 67.2232 5.83591 66.629 5.83591C66.0546 5.85562 65.6188 5.4022 65.6188 4.88963ZM67.3618 6.95961C67.4014 6.95961 67.441 6.99904 67.441 7.03847V13.2484C67.441 13.2878 67.4014 13.3273 67.3618 13.3273H65.9159C65.8763 13.3273 65.8367 13.2878 65.8367 13.2484V7.03847C65.8367 6.99904 65.8763 6.95961 65.9159 6.95961H67.3618ZM14.5975 11.7896L19.5491 5.52048C19.5689 5.50077 19.5491 5.46134 19.5095 5.46134H14.7361C14.6965 5.46134 14.6569 5.42191 14.6569 5.38249V4.02222C14.6569 3.98279 14.6965 3.94336 14.7361 3.94336H21.8268C21.8664 3.94336 21.906 3.98279 21.906 4.02222V5.42191C21.906 5.44163 21.906 5.46134 21.8862 5.48106L16.8752 11.7501C16.8554 11.7698 16.8752 11.8093 16.9148 11.8093H21.8268C21.8664 11.8093 21.906 11.8487 21.906 11.8881V13.2484C21.906 13.2878 21.8664 13.3273 21.8268 13.3273H14.6569C14.6173 13.3273 14.5777 13.2878 14.5777 13.2484V11.8487C14.5777 11.829 14.5975 11.8093 14.5975 11.7896ZM33.5522 4.02222C33.5522 3.98279 33.5918 3.94336 33.6315 3.94336H36.5826C39.2961 3.94336 40.3458 4.92906 40.3458 6.62447C40.3458 8.37902 39.0782 9.10844 38.2265 9.20701C38.2067 9.20701 38.1869 9.22673 38.2067 9.24644L40.6033 13.2287C40.6231 13.2681 40.6033 13.3273 40.5439 13.3273H38.6821C38.6425 13.3273 38.6029 13.3075 38.6029 13.2681L36.4638 9.38444C36.444 9.36473 36.4242 9.34501 36.4044 9.34501H35.2556C35.2358 9.34501 35.216 9.36473 35.216 9.38444V13.2484C35.216 13.2878 35.1764 13.3273 35.1367 13.3273H33.6116C33.572 13.3273 33.5324 13.2878 33.5324 13.2484V4.02222H33.5522ZM36.642 7.90588C37.87 7.90588 38.6821 7.62989 38.6821 6.60476C38.6821 5.73734 38.1077 5.36277 36.6816 5.36277H35.2754C35.2556 5.36277 35.2358 5.38249 35.2358 5.4022V7.86646C35.2358 7.88617 35.2556 7.90588 35.2754 7.90588H36.642ZM52.4674 8.81273C52.4278 8.85216 52.3881 8.85216 52.3485 8.81273C52.1703 8.65502 51.7147 8.24102 51.1007 8.24102C50.3877 8.24102 49.3181 8.71416 49.3181 10.1533C49.3181 11.6318 50.4867 12.0656 51.1403 12.0656C51.7345 12.0656 52.2297 11.691 52.3683 11.5333C52.408 11.4938 52.4476 11.4938 52.4872 11.5333L53.4379 12.5584C53.4775 12.5978 53.4577 12.6373 53.4379 12.6767C52.9625 13.1104 52.2099 13.5047 51.1998 13.5047C49.5756 13.5047 47.7336 12.4598 47.7336 10.173C47.7336 7.94531 49.4766 6.84133 51.1998 6.84133C52.1505 6.84133 52.8833 7.21589 53.4577 7.74817C53.4973 7.7876 53.4973 7.82703 53.4577 7.86646L52.4674 8.81273ZM42.2671 10.7053C42.2473 10.7053 42.2274 10.725 42.2274 10.7447C42.3067 11.4741 43.0989 12.2036 43.9308 12.2036C44.8023 12.2036 45.2182 11.8487 45.5945 11.3953C45.6143 11.3558 45.6738 11.3558 45.6936 11.3756L46.7037 12.1444C46.7433 12.1641 46.7433 12.2233 46.7235 12.2627C46.0699 13.0118 45.238 13.4653 44.0694 13.4653C42.2274 13.4653 40.6033 12.2233 40.6033 10.1336C40.6033 8.12274 42.1284 6.8019 43.9704 6.8019C45.7134 6.8019 47.0602 8.26074 47.0602 10.2519V10.6067C47.0602 10.6461 47.0206 10.6856 46.981 10.6856L42.2671 10.7053ZM45.4559 9.50272C45.4757 9.50272 45.4955 9.48301 45.4955 9.4633C45.4955 8.69445 44.8023 7.98474 43.9308 7.98474C43.0593 7.98474 42.3463 8.51702 42.2473 9.44358C42.2473 9.4633 42.2671 9.48301 42.2869 9.48301L45.4559 9.50272ZM75.0467 10.7053C75.0269 10.7053 75.0071 10.725 75.0071 10.7447C75.0863 11.4741 75.8786 12.2036 76.7104 12.2036C77.5819 12.2036 77.9979 11.8487 78.3742 11.3953C78.394 11.3558 78.4534 11.3558 78.4732 11.3756L79.4833 12.1444C79.523 12.1641 79.523 12.2233 79.5032 12.2627C78.8495 13.0118 78.0177 13.4653 76.8491 13.4653C75.0071 13.4653 73.383 12.2233 73.383 10.1336C73.383 8.12274 74.9081 6.8019 76.7501 6.8019C78.493 6.8019 79.8399 8.26074 79.8399 10.2519V10.6067C79.8399 10.6461 79.8003 10.6856 79.7606 10.6856L75.0467 10.7053ZM78.2355 9.50272C78.2553 9.50272 78.2752 9.48301 78.2752 9.4633C78.2752 8.69445 77.5819 7.98474 76.7104 7.98474C75.839 7.98474 75.1259 8.51702 75.0269 9.44358C75.0269 9.4633 75.0467 9.48301 75.0665 9.48301L78.2355 9.50272ZM54.349 6.95961H55.5968C55.6364 6.95961 55.676 6.97932 55.676 7.01875L55.8543 7.96503H55.8741C56.5475 6.6639 58.132 6.86104 58.2707 6.88075C58.3103 6.88075 58.3301 6.92018 58.3301 6.99904V8.22131C58.3301 8.26074 58.2905 8.30017 58.2509 8.30017C58.2509 8.30017 57.9538 8.24102 57.6963 8.24102C56.6663 8.24102 55.9335 9.16758 55.8543 10.4096V13.2287C55.8543 13.2681 55.8147 13.3075 55.775 13.3075H54.3292C54.2896 13.3075 54.25 13.2681 54.25 13.2287V7.03847C54.2698 6.99904 54.3094 6.95961 54.349 6.95961ZM80.7708 6.95961H82.0186C82.0582 6.95961 82.0978 6.97932 82.0978 7.01875L82.2761 7.96503H82.2959C82.9693 6.6639 84.5538 6.86104 84.6924 6.88075C84.7321 6.88075 84.7519 6.92018 84.7519 6.99904V8.22131C84.7519 8.26074 84.7122 8.30017 84.6726 8.30017C84.6726 8.30017 84.3755 8.24102 84.1181 8.24102C83.0881 8.24102 82.3553 9.16758 82.2761 10.4096V13.2287C82.2761 13.2681 82.2364 13.3075 82.1968 13.3075H80.751C80.7113 13.3075 80.6717 13.2681 80.6717 13.2287V7.03847C80.6915 6.99904 80.7311 6.95961 80.7708 6.95961ZM68.2729 8.24102V7.03847C68.2729 6.99904 68.3125 6.95961 68.3521 6.95961H69.5603C69.5801 6.95961 69.5999 6.9399 69.5999 6.92018V5.75705C69.5999 5.71762 69.6197 5.69791 69.6594 5.6782L71.1052 5.14592C71.1646 5.1262 71.2043 5.16563 71.2043 5.22477V6.92018C71.2043 6.9399 71.2241 6.95961 71.2439 6.95961H72.8878C72.9274 6.95961 72.967 6.99904 72.967 7.03847V8.24102C72.967 8.28045 72.9274 8.31988 72.8878 8.31988H71.2439C71.2241 8.31988 71.2043 8.33959 71.2043 8.35931V11.0996C71.2043 11.6516 71.3033 12.1247 72.0955 12.1247C72.3926 12.1247 72.6897 12.0656 72.8878 11.9867C72.9274 11.967 72.967 12.0064 72.967 12.0458V13.209C72.967 13.2484 72.9472 13.2878 72.9076 13.3075C72.6501 13.4258 72.155 13.485 71.6994 13.485C70.927 13.485 70.412 13.3273 70.1149 13.0315C69.8376 12.7555 69.6197 12.3218 69.6197 11.2376V8.35931C69.6197 8.33959 69.5999 8.31988 69.5801 8.31988H68.3719C68.3125 8.31988 68.2729 8.28045 68.2729 8.24102ZM61.8358 12.105C61.202 12.105 60.6672 11.7107 60.6474 11.001V7.03847C60.6474 6.99904 60.6078 6.95961 60.5682 6.95961H59.1223C59.0827 6.95961 59.0431 6.99904 59.0431 7.03847V10.8236C59.0431 12.381 60.2117 13.485 61.816 13.485H61.8556C63.4599 13.485 64.6285 12.381 64.6285 10.8236V7.03847C64.6285 6.99904 64.5889 6.95961 64.5493 6.95961H63.1034C63.0638 6.95961 63.0242 6.99904 63.0242 7.03847V11.001C63.0044 11.7107 62.4696 12.105 61.8358 12.105ZM27.432 12.5584C27.432 12.5387 27.4717 12.519 27.4915 12.5387C27.9074 13.071 28.7393 13.485 29.6504 13.485C31.1953 13.485 32.7402 12.2824 32.7402 10.1533C32.7402 7.88617 31.1953 6.82161 29.5909 6.82161C28.5808 6.82161 27.8084 7.31446 27.4122 7.90588C27.3924 7.9256 27.3726 7.9256 27.3528 7.88617L27.1746 7.03847C27.1746 6.99904 27.1349 6.97932 27.0953 6.97932H25.9268C25.8871 6.97932 25.8475 7.01875 25.8475 7.05818V16.2844C25.8475 16.3238 25.8871 16.3632 25.9268 16.3632H27.3726C27.4122 16.3632 27.4518 16.3238 27.4518 16.2844V12.5584H27.432ZM29.4523 12.0458C28.4026 12.0458 27.5707 11.3361 27.5707 10.1336C27.5707 8.93102 28.4026 8.22131 29.4523 8.22131C30.0663 8.22131 31.1755 8.63531 31.1755 10.1336C31.1755 11.6318 30.0267 12.0458 29.4523 12.0458ZM22.7379 4.88963C22.7379 4.35735 23.1737 3.94336 23.748 3.94336C24.362 3.94336 24.778 4.37707 24.778 4.88963C24.778 5.4022 24.3422 5.83591 23.748 5.83591C23.1737 5.85562 22.7379 5.4022 22.7379 4.88963ZM24.4809 6.95961C24.5205 6.95961 24.5601 6.99904 24.5601 7.03847V13.2484C24.5601 13.2878 24.5205 13.3273 24.4809 13.3273H23.035C22.9954 13.3273 22.9558 13.2878 22.9558 13.2484V7.03847C22.9558 6.99904 22.9954 6.95961 23.035 6.95961H24.4809Z"
          fill="#8F93AC"/>
    <path fill-rule="evenodd" clip-rule="evenodd"
          d="M10.4776 5.22423C10.3588 5.1848 10.2201 5.20451 10.0815 5.24394L9.5467 5.42137V0.473137C9.5467 0.216855 9.32883 0 9.07134 0H2.04006C1.78258 0 1.56471 0.216855 1.56471 0.473137V5.44108L1.02993 5.26365C0.891289 5.22423 0.752644 5.20451 0.633806 5.24394C0.435741 5.28337 0 5.48051 0 6.24936V10.3893C0.0594193 10.7442 0.297096 11.1582 0.83187 11.1582H2.61445C2.79271 11.375 3.22845 11.7299 4.06032 11.789C4.08012 12.4001 4.43664 12.9127 4.97141 13.1296V14.2927C4.97141 14.3124 4.95161 14.3321 4.9318 14.3321C2.43619 14.411 0.851676 15.1995 0.396129 15.4558C0.118839 15.6135 0.0594193 15.9487 0.0594193 16.1655V17.0724C0.0792257 17.3878 0.336709 17.6441 0.673419 17.6441C0.970515 17.6441 1.228 17.3878 1.2478 17.0921C1.26761 16.7964 1.06955 16.5598 0.792257 16.481C0.772451 16.481 0.752644 16.4612 0.752644 16.4415V16.1064C0.752644 16.0275 0.792257 15.9487 0.871483 15.9092C1.5449 15.5347 3.26806 15.3573 4.57528 15.2784H4.95161C4.97141 15.2784 4.99122 15.2981 4.99122 15.3178C5.05064 16.3627 5.16948 17.2498 5.20909 17.8018H5.16948C4.95161 17.8018 4.75354 18.0581 4.75354 18.3932C4.75354 18.7284 4.95161 18.9846 5.16948 18.9846H5.96173C6.17961 18.9846 6.37767 18.7284 6.37767 18.3932C6.37767 18.0581 6.17961 17.8018 5.96173 17.8018H5.92212C5.92212 17.8018 6.06077 16.3627 6.13999 15.3178C6.13999 15.2981 6.1598 15.2784 6.17961 15.2784H6.55593C7.86315 15.3375 9.58631 15.5347 10.2597 15.9092C10.339 15.9487 10.3786 16.0275 10.3786 16.1064V16.4415C10.3786 16.4612 10.3588 16.481 10.339 16.481C10.0617 16.5401 9.8636 16.7964 9.88341 17.0921C9.90321 17.3878 10.1607 17.6441 10.4578 17.6441C10.7747 17.6441 11.052 17.4075 11.0718 17.0724V16.1655C11.0718 15.9487 11.0124 15.6332 10.7351 15.4558C10.2795 15.1995 8.67522 14.411 6.19941 14.3124C6.17961 14.3124 6.1598 14.2927 6.1598 14.273V13.1098C6.69457 12.893 7.05109 12.3804 7.0709 11.7693C7.88296 11.7102 8.3187 11.3356 8.51676 11.1384H10.2993C10.8341 11.1384 11.0718 10.7244 11.1312 10.3696V6.22964C11.1114 5.46079 10.6757 5.28337 10.4776 5.22423ZM1.56471 9.52189L0.752644 10.133C0.732838 10.1527 0.713031 10.133 0.713031 10.1133V6.22964C0.713031 6.07193 0.732838 5.87479 0.812064 5.8945L1.52509 6.13107C1.5449 6.13107 1.56471 6.1705 1.56471 6.19021V9.52189ZM10.3786 10.133L9.5665 9.52189V6.20993C9.5665 6.19021 9.58631 6.1705 9.60612 6.15079L10.3191 5.91422C10.4182 5.8945 10.4182 6.09164 10.4182 6.24936V10.133C10.4182 10.133 10.3984 10.1527 10.3786 10.133Z"
          fill="#8F93AC"/>
</svg>
