<svg width="83" height="21" viewBox="0 0 83 21" fill="none" xmlns="http://www.w3.org/2000/svg">
    <path d="M80.9392 16.4864V15.2045H80.8977C80.2338 16.1455 78.8369 16.7591 77.6474 16.7591C76.1675 16.7591 74.978 16.1455 74.1067 15.2045C73.3459 14.3045 72.9172 13.1318 72.9172 11.8636C72.9172 10.5955 73.2491 9.50454 74.162 8.56363C75.1163 7.48636 76.3058 6.96818 77.7027 6.96818C78.989 6.96818 80.137 7.52727 80.8977 8.56363V7.24091H83V16.4727H80.9392V16.4864ZM78.1176 9.08182C76.4441 9.08182 75.2546 10.3091 75.2546 11.9045C75.2546 13.4182 76.5409 14.5909 78.0762 14.5909C79.7497 14.5909 80.8424 13.4182 80.8424 11.8091C80.8977 10.3091 79.7497 9.08182 78.1176 9.08182ZM69.2381 12.15C69.2381 11.4409 69.2381 10.5 68.8509 9.88636C68.5189 9.40909 67.938 9.13636 67.3156 9.13636C66.6932 9.13636 66.0293 9.46364 65.6974 9.94091C65.2686 10.5545 65.3101 11.5909 65.3101 12.3V16.4864H63.0142V7.25455H65.1165V8.1H65.158C65.725 7.35 66.7762 6.96818 67.7444 6.96818C68.754 6.96818 69.8052 7.39091 70.4691 8.1C70.5659 8.19545 70.6627 8.29091 70.7042 8.38636C71.4649 9.38182 71.4649 10.5545 71.4649 11.7273V16.5273H69.169V12.15H69.2381ZM59.1 15.4909C58.5744 16.3909 57.6616 16.7591 56.6104 16.7591C55.4624 16.7591 54.4113 16.3364 53.5952 15.4909C52.7377 14.5909 52.6824 13.65 52.6824 12.4773V7.25455H54.9922V11.7818C54.9922 12.3409 54.9922 13.1455 55.2826 13.6636C55.5731 14.2773 56.1955 14.6045 56.9008 14.6045C58.6159 14.6045 58.8649 13.0909 58.8649 11.7818V7.25455H61.1608V16.4864H59.0585V15.4909H59.1ZM44.204 14.5091L48.4501 9.19091H44.6742V7.21364H51.1748V9.19091L46.9702 14.5091H51.5067V16.4864H44.204V14.5091ZM40.6632 15.2045C39.944 16.2409 38.6992 16.7591 37.4683 16.7591C36.0852 16.7591 34.8819 16.1455 34.0243 15.2045C33.2083 14.3045 32.738 13.0909 32.738 11.8636C32.738 10.6364 33.1668 9.40909 34.0243 8.46818C34.8819 7.52727 36.2235 6.91364 37.5651 6.91364C38.6577 6.91364 39.7642 7.33636 40.5249 8.18182V4.13182H42.8209V16.4727H40.7185V15.2045H40.6632ZM37.8002 9.08182C36.3203 9.08182 35.034 10.35 35.034 11.7682C35.034 13.3227 36.2235 14.5909 37.8002 14.5909C39.3769 14.5909 40.6217 13.3227 40.6217 11.8091C40.6632 10.3091 39.3769 9.08182 37.8002 9.08182ZM29.3356 15.2045C28.6164 16.1455 27.2748 16.7591 26.0853 16.7591C24.6054 16.7591 23.4159 16.1455 22.5446 15.2045C21.7839 14.3045 21.3551 13.1318 21.3551 11.8636C21.3551 10.5955 21.6871 9.50454 22.5999 8.56363C23.5542 7.48636 24.7437 6.96818 26.1406 6.96818C27.4269 6.96818 28.5749 7.52727 29.3356 8.56363V7.24091H31.4379V16.4727H29.3356V15.2045ZM26.5279 9.08182C24.8544 9.08182 23.6649 10.3091 23.6649 11.9045C23.6649 13.4182 24.9512 14.5909 26.4864 14.5909C28.16 14.5909 29.2526 13.4182 29.2526 11.8091C29.2941 10.3091 28.1461 9.08182 26.5279 9.08182ZM9.12848 21C4.10782 21 0 17.0455 0 12.1909C0 10.1182 0.816031 8.18182 2.33744 6.77727C3.83119 5.35909 5.83669 4.56818 7.9805 4.56818C9.84769 4.56818 11.5627 5.12727 12.7522 6.16364C14.0385 7.29546 14.813 8.89091 14.813 10.6909C14.813 13.9364 12.2266 16.4318 8.83803 16.4318V13.7045C10.7052 13.7045 12.033 12.4773 12.033 10.6909C12.033 9.65454 11.6457 8.80909 10.9403 8.19546C10.2211 7.58182 9.16997 7.25455 7.9805 7.25455C6.5974 7.25455 5.31111 7.77273 4.34294 8.67273C3.3886 9.61364 2.86302 10.8409 2.86302 12.1636C2.86302 15.5591 5.68455 18.2864 9.16997 18.2864C13.4161 18.2864 16.86 14.9455 16.86 10.8409C16.86 8.29091 15.9472 6.21818 14.2321 4.75909C12.5171 3.43636 10.1658 2.72727 7.49642 2.72727V0C10.8435 0 13.8449 0.995455 15.9472 2.72727C18.3399 4.70455 19.5847 7.48636 19.5847 10.8273C19.5986 16.4318 14.9098 21 9.12848 21Z" fill="#8F93AC"/>
</svg>
