<svg width="32" height="32" viewBox="0 0 32 32" fill="none" xmlns="http://www.w3.org/2000/svg">
<path fill-rule="evenodd" clip-rule="evenodd" d="M16 0C24.8366 0 32 7.16344 32 16C32 24.8366 24.8366 32 16 32C7.16344 32 0 24.8366 0 16C0 7.16344 7.16344 0 16 0ZM25.3333 11.3569C24.7213 11.6625 24.0358 11.8535 23.2768 11.9299C24.0848 11.4461 24.6111 10.7586 24.8559 9.86736C24.0725 10.3512 23.3136 10.6567 22.5791 10.784C21.8691 9.99467 21.0122 9.6 20.0085 9.6C19.0047 9.6 18.1601 9.95648 17.4746 10.6694C16.7891 11.3824 16.4463 12.2609 16.4463 13.3049C16.4463 13.6868 16.4708 13.9669 16.5198 14.1451C13.5329 13.9924 11.097 12.7065 9.21186 10.2875C8.8936 10.8732 8.73446 11.4843 8.73446 12.1208C8.73446 13.4704 9.26082 14.5016 10.3136 15.2146C9.77495 15.2146 9.23635 15.0618 8.69774 14.7563V14.7944C8.69774 15.6857 8.97316 16.4686 9.52401 17.1434C10.0749 17.8182 10.7542 18.2447 11.5621 18.4229C11.1704 18.5248 10.8522 18.5757 10.6073 18.5757C10.4605 18.5757 10.2401 18.5502 9.94633 18.4993C10.1667 19.2377 10.5829 19.8425 11.1949 20.3135C11.807 20.7846 12.4925 21.0329 13.2514 21.0583C11.9539 22.1278 10.4849 22.6625 8.84463 22.6625C8.67326 22.6625 8.39172 22.637 8 22.5861C9.66479 23.7065 11.4765 24.2667 13.435 24.2667C16.4953 24.2667 18.9496 23.1781 20.798 21.001C22.6464 18.8239 23.5706 16.3986 23.5706 13.725V13.2667C24.3051 12.7065 24.8927 12.0699 25.3333 11.3569Z" fill="#000639"/>
</svg>
