<?xml version="1.0" encoding="UTF-8"?>
<svg width="144px" height="180px" viewBox="0 0 144 180" version="1.1" xmlns="http://www.w3.org/2000/svg" xmlns:xlink="http://www.w3.org/1999/xlink">
    <!-- Generator: sketchtool 63.1 (101010) - https://sketch.com -->
    <title>7223E092-285D-4BBB-8685-7F9320A74EB4@2x</title>
    <desc>Created with sketchtool.</desc>
    <defs>
        <path d="M89.7795674,0.27687234 L89.7795674,11.4459929 C68.3158298,6.4222766 42.3543688,10.2391135 23.9233191,18.8589433 L23.9233191,18.8589433 C-1.42050355,30.7121773 12.4153688,58.6891915 10.0803475,96.1876454 L10.0803475,96.1876454 C9.51756738,105.212135 1.2546383,126.659092 0.17748227,138.339362 L0.17748227,138.339362 C-5.7007305,202.084539 136.429007,194.667716 125.333461,113.296936 L125.333461,113.296936 C121.281702,83.5805957 133.987496,71.0981064 128.518461,48.5810922 L128.518461,48.5810922 L146.911433,48.5810922 L146.911433,0.27687234" id="path-1"></path>
        <path d="M89.7795674,0.27687234 L89.7795674,11.4459929 C68.3158298,6.4222766 42.3543688,10.2391135 23.9233191,18.8589433 L23.9233191,18.8589433 C-1.42050355,30.7121773 12.4153688,58.6891915 10.0803475,96.1876454 L10.0803475,96.1876454 C9.51756738,105.212135 1.2546383,126.659092 0.17748227,138.339362 L0.17748227,138.339362 C-5.7007305,202.084539 136.429007,194.667716 125.333461,113.296936 L125.333461,113.296936 C121.281702,83.5805957 133.987496,71.0981064 128.518461,48.5810922 L128.518461,48.5810922 L146.911433,48.5810922 L146.911433,0.27687234 L89.7795674,0.27687234 Z" id="path-3"></path>
        <path d="M89.7795674,0.27687234 L89.7795674,11.4459929 C68.3158298,6.4222766 42.3543688,10.2391135 23.9233191,18.8589433 L23.9233191,18.8589433 C-1.42050355,30.7121773 12.4153688,58.6891915 10.0803475,96.1876454 L10.0803475,96.1876454 C9.51756738,105.212135 1.2546383,126.659092 0.17748227,138.339362 L0.17748227,138.339362 C-5.7007305,202.084539 136.429007,194.667716 125.333461,113.296936 L125.333461,113.296936 C121.281702,83.5805957 133.987496,71.0981064 128.518461,48.5810922 L128.518461,48.5810922 L146.911433,48.5810922 L146.911433,0.27687234" id="path-5"></path>
        <path d="M89.7795674,0.27687234 L89.7795674,11.4459929 C68.3158298,6.4222766 42.3543688,10.2391135 23.9233191,18.8589433 L23.9233191,18.8589433 C-1.42050355,30.7121773 12.4153688,58.6891915 10.0803475,96.1876454 L10.0803475,96.1876454 C9.51756738,105.212135 1.2546383,126.659092 0.17748227,138.339362 L0.17748227,138.339362 C-5.7007305,202.084539 136.429007,194.667716 125.333461,113.296936 L125.333461,113.296936 C121.281702,83.5805957 133.987496,71.0981064 128.518461,48.5810922 L128.518461,48.5810922 L146.911433,48.5810922 L146.911433,0.27687234 L89.7795674,0.27687234 Z" id="path-7"></path>
        <path d="M89.7795674,0.27687234 L89.7795674,11.4459929 C68.3158298,6.4222766 42.3543688,10.2391135 23.9233191,18.8589433 L23.9233191,18.8589433 C-1.42050355,30.7121773 12.4153688,58.6891915 10.0803475,96.1876454 L10.0803475,96.1876454 C9.51756738,105.212135 1.2546383,126.659092 0.17748227,138.339362 L0.17748227,138.339362 C-5.7007305,202.084539 136.429007,194.667716 125.333461,113.296936 L125.333461,113.296936 C121.281702,83.5805957 133.987496,71.0981064 128.518461,48.5810922 L128.518461,48.5810922 L146.911433,48.5810922 L146.911433,0.27687234 L89.7795674,0.27687234 Z" id="path-9"></path>
        <path d="M89.7795674,0.27687234 L89.7795674,11.4459929 C68.3158298,6.4222766 42.3543688,10.2391135 23.9233191,18.8589433 L23.9233191,18.8589433 C-1.42050355,30.7121773 12.4153688,58.6891915 10.0803475,96.1876454 L10.0803475,96.1876454 C9.51756738,105.212135 1.2546383,126.659092 0.17748227,138.339362 L0.17748227,138.339362 C-5.7007305,202.084539 136.429007,194.667716 125.333461,113.296936 L125.333461,113.296936 C121.281702,83.5805957 133.987496,71.0981064 128.518461,48.5810922 L128.518461,48.5810922 L146.911433,48.5810922 L146.911433,0.27687234" id="path-11"></path>
        <path d="M89.7795674,0.27687234 L89.7795674,11.4459929 C68.3158298,6.4222766 42.3543688,10.2391135 23.9233191,18.8589433 L23.9233191,18.8589433 C-1.42050355,30.7121773 12.4153688,58.6891915 10.0803475,96.1876454 L10.0803475,96.1876454 C9.51756738,105.212135 1.2546383,126.659092 0.17748227,138.339362 L0.17748227,138.339362 C-5.7007305,202.084539 136.429007,194.667716 125.333461,113.296936 L125.333461,113.296936 C121.281702,83.5805957 133.987496,71.0981064 128.518461,48.5810922 L128.518461,48.5810922 L146.911433,48.5810922 L146.911433,0.27687234" id="path-13"></path>
        <path d="M89.7795674,0.27687234 L89.7795674,11.4459929 C68.3158298,6.4222766 42.3543688,10.2391135 23.9233191,18.8589433 L23.9233191,18.8589433 C-1.42050355,30.7121773 12.4153688,58.6891915 10.0803475,96.1876454 L10.0803475,96.1876454 C9.51756738,105.212135 1.2546383,126.659092 0.17748227,138.339362 L0.17748227,138.339362 C-5.7007305,202.084539 136.429007,194.667716 125.333461,113.296936 L125.333461,113.296936 C121.281702,83.5805957 133.987496,71.0981064 128.518461,48.5810922 L128.518461,48.5810922 L146.911433,48.5810922 L146.911433,0.27687234 L89.7795674,0.27687234 Z" id="path-15"></path>
        <path d="M89.7795674,0.27687234 L89.7795674,11.4459929 C68.3158298,6.4222766 42.3543688,10.2391135 23.9233191,18.8589433 L23.9233191,18.8589433 C-1.42050355,30.7121773 12.4153688,58.6891915 10.0803475,96.1876454 L10.0803475,96.1876454 C9.51756738,105.212135 1.2546383,126.659092 0.17748227,138.339362 L0.17748227,138.339362 C-5.7007305,202.084539 136.429007,194.667716 125.333461,113.296936 L125.333461,113.296936 C121.281702,83.5805957 133.987496,71.0981064 128.518461,48.5810922 L128.518461,48.5810922 L146.911433,48.5810922 L146.911433,0.27687234" id="path-17"></path>
        <path d="M89.7795674,0.27687234 L89.7795674,11.4459929 C68.3158298,6.4222766 42.3543688,10.2391135 23.9233191,18.8589433 L23.9233191,18.8589433 C-1.42050355,30.7121773 12.4153688,58.6891915 10.0803475,96.1876454 L10.0803475,96.1876454 C9.51756738,105.212135 1.2546383,126.659092 0.17748227,138.339362 L0.17748227,138.339362 C-5.7007305,202.084539 136.429007,194.667716 125.333461,113.296936 L125.333461,113.296936 C121.281702,83.5805957 133.987496,71.0981064 128.518461,48.5810922 L128.518461,48.5810922 L146.911433,48.5810922 L146.911433,0.27687234" id="path-19"></path>
        <path d="M89.7795674,0.27687234 L89.7795674,11.4459929 C68.3158298,6.4222766 42.3543688,10.2391135 23.9233191,18.8589433 L23.9233191,18.8589433 C-1.42050355,30.7121773 12.4153688,58.6891915 10.0803475,96.1876454 L10.0803475,96.1876454 C9.51756738,105.212135 1.2546383,126.659092 0.17748227,138.339362 L0.17748227,138.339362 C-5.7007305,202.084539 136.429007,194.667716 125.333461,113.296936 L125.333461,113.296936 C121.281702,83.5805957 133.987496,71.0981064 128.518461,48.5810922 L128.518461,48.5810922 L146.911433,48.5810922 L146.911433,0.27687234" id="path-21"></path>
        <path d="M89.7795674,0.27687234 L89.7795674,11.4459929 C68.3158298,6.4222766 42.3543688,10.2391135 23.9233191,18.8589433 L23.9233191,18.8589433 C-1.42050355,30.7121773 12.4153688,58.6891915 10.0803475,96.1876454 L10.0803475,96.1876454 C9.51756738,105.212135 1.2546383,126.659092 0.17748227,138.339362 L0.17748227,138.339362 C-5.7007305,202.084539 136.429007,194.667716 125.333461,113.296936 L125.333461,113.296936 C121.281702,83.5805957 133.987496,71.0981064 128.518461,48.5810922 L128.518461,48.5810922 L146.911433,48.5810922 L146.911433,0.27687234" id="path-23"></path>
        <path d="M89.7795674,0.27687234 L89.7795674,11.4459929 C68.3158298,6.4222766 42.3543688,10.2391135 23.9233191,18.8589433 L23.9233191,18.8589433 C-1.42050355,30.7121773 12.4153688,58.6891915 10.0803475,96.1876454 L10.0803475,96.1876454 C9.51756738,105.212135 1.2546383,126.659092 0.17748227,138.339362 L0.17748227,138.339362 C-5.7007305,202.084539 136.429007,194.667716 125.333461,113.296936 L125.333461,113.296936 C121.281702,83.5805957 133.987496,71.0981064 128.518461,48.5810922 L128.518461,48.5810922 L146.911433,48.5810922 L146.911433,0.27687234 L89.7795674,0.27687234 Z" id="path-25"></path>
        <path d="M89.7795674,0.27687234 L89.7795674,11.4459929 C68.3158298,6.4222766 42.3543688,10.2391135 23.9233191,18.8589433 L23.9233191,18.8589433 C-1.42050355,30.7121773 12.4153688,58.6891915 10.0803475,96.1876454 L10.0803475,96.1876454 C9.51756738,105.212135 1.2546383,126.659092 0.17748227,138.339362 L0.17748227,138.339362 C-5.7007305,202.084539 136.429007,194.667716 125.333461,113.296936 L125.333461,113.296936 C121.281702,83.5805957 133.987496,71.0981064 128.518461,48.5810922 L128.518461,48.5810922 L146.911433,48.5810922 L146.911433,0.27687234 L89.7795674,0.27687234 Z" id="path-27"></path>
        <path d="M89.7795674,0.27687234 L89.7795674,11.4459929 C68.3158298,6.4222766 42.3543688,10.2391135 23.9233191,18.8589433 L23.9233191,18.8589433 C-1.42050355,30.7121773 12.4153688,58.6891915 10.0803475,96.1876454 L10.0803475,96.1876454 C9.51756738,105.212135 1.2546383,126.659092 0.17748227,138.339362 L0.17748227,138.339362 C-5.7007305,202.084539 136.429007,194.667716 125.333461,113.296936 L125.333461,113.296936 C121.281702,83.5805957 133.987496,71.0981064 128.518461,48.5810922 L128.518461,48.5810922 L146.911433,48.5810922 L146.911433,0.27687234" id="path-29"></path>
        <path d="M89.7795674,0.27687234 L89.7795674,11.4459929 C68.3158298,6.4222766 42.3543688,10.2391135 23.9233191,18.8589433 L23.9233191,18.8589433 C-1.42050355,30.7121773 12.4153688,58.6891915 10.0803475,96.1876454 L10.0803475,96.1876454 C9.51756738,105.212135 1.2546383,126.659092 0.17748227,138.339362 L0.17748227,138.339362 C-5.7007305,202.084539 136.429007,194.667716 125.333461,113.296936 L125.333461,113.296936 C121.281702,83.5805957 133.987496,71.0981064 128.518461,48.5810922 L128.518461,48.5810922 L146.911433,48.5810922 L146.911433,0.27687234" id="path-31"></path>
        <path d="M89.7795674,0.27687234 L89.7795674,11.4459929 C68.3158298,6.4222766 42.3543688,10.2391135 23.9233191,18.8589433 L23.9233191,18.8589433 C-1.42050355,30.7121773 12.4153688,58.6891915 10.0803475,96.1876454 L10.0803475,96.1876454 C9.51756738,105.212135 1.2546383,126.659092 0.17748227,138.339362 L0.17748227,138.339362 C-5.7007305,202.084539 136.429007,194.667716 125.333461,113.296936 L125.333461,113.296936 C121.281702,83.5805957 133.987496,71.0981064 128.518461,48.5810922 L128.518461,48.5810922 L146.911433,48.5810922 L146.911433,0.27687234" id="path-33"></path>
        <path d="M89.7795674,0.27687234 L89.7795674,11.4459929 C68.3158298,6.4222766 42.3543688,10.2391135 23.9233191,18.8589433 L23.9233191,18.8589433 C-1.42050355,30.7121773 12.4153688,58.6891915 10.0803475,96.1876454 L10.0803475,96.1876454 C9.51756738,105.212135 1.2546383,126.659092 0.17748227,138.339362 L0.17748227,138.339362 C-5.7007305,202.084539 136.429007,194.667716 125.333461,113.296936 L125.333461,113.296936 C121.281702,83.5805957 133.987496,71.0981064 128.518461,48.5810922 L128.518461,48.5810922 L146.911433,48.5810922 L146.911433,0.27687234" id="path-35"></path>
        <path d="M89.7795674,0.27687234 L89.7795674,11.4459929 C68.3158298,6.4222766 42.3543688,10.2391135 23.9233191,18.8589433 L23.9233191,18.8589433 C-1.42050355,30.7121773 12.4153688,58.6891915 10.0803475,96.1876454 L10.0803475,96.1876454 C9.51756738,105.212135 1.2546383,126.659092 0.17748227,138.339362 L0.17748227,138.339362 C-5.7007305,202.084539 136.429007,194.667716 125.333461,113.296936 L125.333461,113.296936 C121.281702,83.5805957 133.987496,71.0981064 128.518461,48.5810922 L128.518461,48.5810922 L146.911433,48.5810922 L146.911433,0.27687234" id="path-37"></path>
        <path d="M89.7795674,0.27687234 L89.7795674,11.4459929 C68.3158298,6.4222766 42.3543688,10.2391135 23.9233191,18.8589433 L23.9233191,18.8589433 C-1.42050355,30.7121773 12.4153688,58.6891915 10.0803475,96.1876454 L10.0803475,96.1876454 C9.51756738,105.212135 1.2546383,126.659092 0.17748227,138.339362 L0.17748227,138.339362 C-5.7007305,202.084539 136.429007,194.667716 125.333461,113.296936 L125.333461,113.296936 C121.281702,83.5805957 133.987496,71.0981064 128.518461,48.5810922 L128.518461,48.5810922 L146.911433,48.5810922 L146.911433,0.27687234" id="path-39"></path>
        <path d="M89.7795674,0.27687234 L89.7795674,11.4459929 C68.3158298,6.4222766 42.3543688,10.2391135 23.9233191,18.8589433 L23.9233191,18.8589433 C-1.42050355,30.7121773 12.4153688,58.6891915 10.0803475,96.1876454 L10.0803475,96.1876454 C9.51756738,105.212135 1.2546383,126.659092 0.17748227,138.339362 L0.17748227,138.339362 C-5.7007305,202.084539 136.429007,194.667716 125.333461,113.296936 L125.333461,113.296936 C121.281702,83.5805957 133.987496,71.0981064 128.518461,48.5810922 L128.518461,48.5810922 L146.911433,48.5810922 L146.911433,0.27687234" id="path-41"></path>
        <path d="M89.7795674,0.27687234 L89.7795674,11.4459929 C68.3158298,6.4222766 42.3543688,10.2391135 23.9233191,18.8589433 L23.9233191,18.8589433 C-1.42050355,30.7121773 12.4153688,58.6891915 10.0803475,96.1876454 L10.0803475,96.1876454 C9.51756738,105.212135 1.2546383,126.659092 0.17748227,138.339362 L0.17748227,138.339362 C-5.7007305,202.084539 136.429007,194.667716 125.333461,113.296936 L125.333461,113.296936 C121.281702,83.5805957 133.987496,71.0981064 128.518461,48.5810922 L128.518461,48.5810922 L146.911433,48.5810922 L146.911433,0.27687234 L89.7795674,0.27687234 Z" id="path-43"></path>
        <path d="M89.7795674,0.27687234 L89.7795674,11.4459929 C68.3158298,6.4222766 42.3543688,10.2391135 23.9233191,18.8589433 L23.9233191,18.8589433 C-1.42050355,30.7121773 12.4153688,58.6891915 10.0803475,96.1876454 L10.0803475,96.1876454 C9.51756738,105.212135 1.2546383,126.659092 0.17748227,138.339362 L0.17748227,138.339362 C-5.7007305,202.084539 136.429007,194.667716 125.333461,113.296936 L125.333461,113.296936 C121.281702,83.5805957 133.987496,71.0981064 128.518461,48.5810922 L128.518461,48.5810922 L146.911433,48.5810922 L146.911433,0.27687234 L89.7795674,0.27687234 Z" id="path-45"></path>
        <path d="M89.7795674,0.27687234 L89.7795674,11.4459929 C68.3158298,6.4222766 42.3543688,10.2391135 23.9233191,18.8589433 L23.9233191,18.8589433 C-1.42050355,30.7121773 12.4153688,58.6891915 10.0803475,96.1876454 L10.0803475,96.1876454 C9.51756738,105.212135 1.2546383,126.659092 0.17748227,138.339362 L0.17748227,138.339362 C-5.7007305,202.084539 136.429007,194.667716 125.333461,113.296936 L125.333461,113.296936 C121.281702,83.5805957 133.987496,71.0981064 128.518461,48.5810922 L128.518461,48.5810922 L146.911433,48.5810922 L146.911433,0.27687234" id="path-47"></path>
        <path d="M89.7795674,0.27687234 L89.7795674,11.4459929 C68.3158298,6.4222766 42.3543688,10.2391135 23.9233191,18.8589433 L23.9233191,18.8589433 C-1.42050355,30.7121773 12.4153688,58.6891915 10.0803475,96.1876454 L10.0803475,96.1876454 C9.51756738,105.212135 1.2546383,126.659092 0.17748227,138.339362 L0.17748227,138.339362 C-5.7007305,202.084539 136.429007,194.667716 125.333461,113.296936 L125.333461,113.296936 C121.281702,83.5805957 133.987496,71.0981064 128.518461,48.5810922 L128.518461,48.5810922 L146.911433,48.5810922 L146.911433,0.27687234 L89.7795674,0.27687234 Z" id="path-49"></path>
        <path d="M89.7795674,0.27687234 L89.7795674,11.4459929 C68.3158298,6.4222766 42.3543688,10.2391135 23.9233191,18.8589433 L23.9233191,18.8589433 C-1.42050355,30.7121773 12.4153688,58.6891915 10.0803475,96.1876454 L10.0803475,96.1876454 C9.51756738,105.212135 1.2546383,126.659092 0.17748227,138.339362 L0.17748227,138.339362 C-5.7007305,202.084539 136.429007,194.667716 125.333461,113.296936 L125.333461,113.296936 C121.281702,83.5805957 133.987496,71.0981064 128.518461,48.5810922 L128.518461,48.5810922 L146.911433,48.5810922 L146.911433,0.27687234 L89.7795674,0.27687234 Z" id="path-51"></path>
        <path d="M89.7795674,0.27687234 L89.7795674,11.4459929 C68.3158298,6.4222766 42.3543688,10.2391135 23.9233191,18.8589433 L23.9233191,18.8589433 C-1.42050355,30.7121773 12.4153688,58.6891915 10.0803475,96.1876454 L10.0803475,96.1876454 C9.51756738,105.212135 1.2546383,126.659092 0.17748227,138.339362 L0.17748227,138.339362 C-5.7007305,202.084539 136.429007,194.667716 125.333461,113.296936 L125.333461,113.296936 C121.281702,83.5805957 133.987496,71.0981064 128.518461,48.5810922 L128.518461,48.5810922 L146.911433,48.5810922 L146.911433,0.27687234" id="path-53"></path>
        <path d="M89.7795674,0.27687234 L89.7795674,11.4459929 C68.3158298,6.4222766 42.3543688,10.2391135 23.9233191,18.8589433 L23.9233191,18.8589433 C-1.42050355,30.7121773 12.4153688,58.6891915 10.0803475,96.1876454 L10.0803475,96.1876454 C9.51756738,105.212135 1.2546383,126.659092 0.17748227,138.339362 L0.17748227,138.339362 C-5.7007305,202.084539 136.429007,194.667716 125.333461,113.296936 L125.333461,113.296936 C121.281702,83.5805957 133.987496,71.0981064 128.518461,48.5810922 L128.518461,48.5810922 L146.911433,48.5810922 L146.911433,0.27687234" id="path-55"></path>
        <path d="M89.7795674,0.27687234 L89.7795674,11.4459929 C68.3158298,6.4222766 42.3543688,10.2391135 23.9233191,18.8589433 L23.9233191,18.8589433 C-1.42050355,30.7121773 12.4153688,58.6891915 10.0803475,96.1876454 L10.0803475,96.1876454 C9.51756738,105.212135 1.2546383,126.659092 0.17748227,138.339362 L0.17748227,138.339362 C-5.7007305,202.084539 136.429007,194.667716 125.333461,113.296936 L125.333461,113.296936 C121.281702,83.5805957 133.987496,71.0981064 128.518461,48.5810922 L128.518461,48.5810922 L146.911433,48.5810922 L146.911433,0.27687234" id="path-57"></path>
        <path d="M89.7795674,0.27687234 L89.7795674,11.4459929 C68.3158298,6.4222766 42.3543688,10.2391135 23.9233191,18.8589433 L23.9233191,18.8589433 C-1.42050355,30.7121773 12.4153688,58.6891915 10.0803475,96.1876454 L10.0803475,96.1876454 C9.51756738,105.212135 1.2546383,126.659092 0.17748227,138.339362 L0.17748227,138.339362 C-5.7007305,202.084539 136.429007,194.667716 125.333461,113.296936 L125.333461,113.296936 C121.281702,83.5805957 133.987496,71.0981064 128.518461,48.5810922 L128.518461,48.5810922 L146.911433,48.5810922 L146.911433,0.27687234 L89.7795674,0.27687234 Z" id="path-59"></path>
        <path d="M89.7795674,0.27687234 L89.7795674,11.4459929 C68.3158298,6.4222766 42.3543688,10.2391135 23.9233191,18.8589433 L23.9233191,18.8589433 C-1.42050355,30.7121773 12.4153688,58.6891915 10.0803475,96.1876454 L10.0803475,96.1876454 C9.51756738,105.212135 1.2546383,126.659092 0.17748227,138.339362 L0.17748227,138.339362 C-5.7007305,202.084539 136.429007,194.667716 125.333461,113.296936 L125.333461,113.296936 C121.281702,83.5805957 133.987496,71.0981064 128.518461,48.5810922 L128.518461,48.5810922 L146.911433,48.5810922 L146.911433,0.27687234 L89.7795674,0.27687234 Z" id="path-61"></path>
        <path d="M89.7795674,0.27687234 L89.7795674,11.4459929 C68.3158298,6.4222766 42.3543688,10.2391135 23.9233191,18.8589433 L23.9233191,18.8589433 C-1.42050355,30.7121773 12.4153688,58.6891915 10.0803475,96.1876454 L10.0803475,96.1876454 C9.51756738,105.212135 1.2546383,126.659092 0.17748227,138.339362 L0.17748227,138.339362 C-5.7007305,202.084539 136.429007,194.667716 125.333461,113.296936 L125.333461,113.296936 C121.281702,83.5805957 133.987496,71.0981064 128.518461,48.5810922 L128.518461,48.5810922 L146.911433,48.5810922 L146.911433,0.27687234 L89.7795674,0.27687234 Z" id="path-63"></path>
        <path d="M89.7795674,0.27687234 L89.7795674,11.4459929 C68.3158298,6.4222766 42.3543688,10.2391135 23.9233191,18.8589433 L23.9233191,18.8589433 C-1.42050355,30.7121773 12.4153688,58.6891915 10.0803475,96.1876454 L10.0803475,96.1876454 C9.51756738,105.212135 1.2546383,126.659092 0.17748227,138.339362 L0.17748227,138.339362 C-5.7007305,202.084539 136.429007,194.667716 125.333461,113.296936 L125.333461,113.296936 C121.281702,83.5805957 133.987496,71.0981064 128.518461,48.5810922 L128.518461,48.5810922 L146.911433,48.5810922 L146.911433,0.27687234" id="path-65"></path>
        <path d="M89.7795674,0.27687234 L89.7795674,11.4459929 C68.3158298,6.4222766 42.3543688,10.2391135 23.9233191,18.8589433 L23.9233191,18.8589433 C-1.42050355,30.7121773 12.4153688,58.6891915 10.0803475,96.1876454 L10.0803475,96.1876454 C9.51756738,105.212135 1.2546383,126.659092 0.17748227,138.339362 L0.17748227,138.339362 C-5.7007305,202.084539 136.429007,194.667716 125.333461,113.296936 L125.333461,113.296936 C121.281702,83.5805957 133.987496,71.0981064 128.518461,48.5810922 L128.518461,48.5810922 L146.911433,48.5810922 L146.911433,0.27687234" id="path-67"></path>
        <path d="M89.7795674,0.27687234 L89.7795674,11.4459929 C68.3158298,6.4222766 42.3543688,10.2391135 23.9233191,18.8589433 L23.9233191,18.8589433 C-1.42050355,30.7121773 12.4153688,58.6891915 10.0803475,96.1876454 L10.0803475,96.1876454 C9.51756738,105.212135 1.2546383,126.659092 0.17748227,138.339362 L0.17748227,138.339362 C-5.7007305,202.084539 136.429007,194.667716 125.333461,113.296936 L125.333461,113.296936 C121.281702,83.5805957 133.987496,71.0981064 128.518461,48.5810922 L128.518461,48.5810922 L146.911433,48.5810922 L146.911433,0.27687234" id="path-69"></path>
        <path d="M89.7795674,0.27687234 L89.7795674,11.4459929 C68.3158298,6.4222766 42.3543688,10.2391135 23.9233191,18.8589433 L23.9233191,18.8589433 C-1.42050355,30.7121773 12.4153688,58.6891915 10.0803475,96.1876454 L10.0803475,96.1876454 C9.51756738,105.212135 1.2546383,126.659092 0.17748227,138.339362 L0.17748227,138.339362 C-5.7007305,202.084539 136.429007,194.667716 125.333461,113.296936 L125.333461,113.296936 C121.281702,83.5805957 133.987496,71.0981064 128.518461,48.5810922 L128.518461,48.5810922 L146.911433,48.5810922 L146.911433,0.27687234" id="path-71"></path>
        <path d="M89.7795674,0.27687234 L89.7795674,11.4459929 C68.3158298,6.4222766 42.3543688,10.2391135 23.9233191,18.8589433 L23.9233191,18.8589433 C-1.42050355,30.7121773 12.4153688,58.6891915 10.0803475,96.1876454 L10.0803475,96.1876454 C9.51756738,105.212135 1.2546383,126.659092 0.17748227,138.339362 L0.17748227,138.339362 C-5.7007305,202.084539 136.429007,194.667716 125.333461,113.296936 L125.333461,113.296936 C121.281702,83.5805957 133.987496,71.0981064 128.518461,48.5810922 L128.518461,48.5810922 L146.911433,48.5810922 L146.911433,0.27687234 L89.7795674,0.27687234 Z" id="path-73"></path>
        <path d="M89.7795674,0.27687234 L89.7795674,11.4459929 C68.3158298,6.4222766 42.3543688,10.2391135 23.9233191,18.8589433 L23.9233191,18.8589433 C-1.42050355,30.7121773 12.4153688,58.6891915 10.0803475,96.1876454 L10.0803475,96.1876454 C9.51756738,105.212135 1.2546383,126.659092 0.17748227,138.339362 L0.17748227,138.339362 C-5.7007305,202.084539 136.429007,194.667716 125.333461,113.296936 L125.333461,113.296936 C121.281702,83.5805957 133.987496,71.0981064 128.518461,48.5810922 L128.518461,48.5810922 L146.911433,48.5810922 L146.911433,0.27687234" id="path-75"></path>
        <path d="M89.7795674,0.27687234 L89.7795674,11.4459929 C68.3158298,6.4222766 42.3543688,10.2391135 23.9233191,18.8589433 L23.9233191,18.8589433 C-1.42050355,30.7121773 12.4153688,58.6891915 10.0803475,96.1876454 L10.0803475,96.1876454 C9.51756738,105.212135 1.2546383,126.659092 0.17748227,138.339362 L0.17748227,138.339362 C-5.7007305,202.084539 136.429007,194.667716 125.333461,113.296936 L125.333461,113.296936 C121.281702,83.5805957 133.987496,71.0981064 128.518461,48.5810922 L128.518461,48.5810922 L146.911433,48.5810922 L146.911433,0.27687234 L89.7795674,0.27687234 Z" id="path-77"></path>
        <path d="M89.7795674,0.27687234 L89.7795674,11.4459929 C68.3158298,6.4222766 42.3543688,10.2391135 23.9233191,18.8589433 L23.9233191,18.8589433 C-1.42050355,30.7121773 12.4153688,58.6891915 10.0803475,96.1876454 L10.0803475,96.1876454 C9.51756738,105.212135 1.2546383,126.659092 0.17748227,138.339362 L0.17748227,138.339362 C-5.7007305,202.084539 136.429007,194.667716 125.333461,113.296936 L125.333461,113.296936 C121.281702,83.5805957 133.987496,71.0981064 128.518461,48.5810922 L128.518461,48.5810922 L146.911433,48.5810922 L146.911433,0.27687234" id="path-79"></path>
        <path d="M89.7795674,0.27687234 L89.7795674,11.4459929 C68.3158298,6.4222766 42.3543688,10.2391135 23.9233191,18.8589433 L23.9233191,18.8589433 C-1.42050355,30.7121773 12.4153688,58.6891915 10.0803475,96.1876454 L10.0803475,96.1876454 C9.51756738,105.212135 1.2546383,126.659092 0.17748227,138.339362 L0.17748227,138.339362 C-5.7007305,202.084539 136.429007,194.667716 125.333461,113.296936 L125.333461,113.296936 C121.281702,83.5805957 133.987496,71.0981064 128.518461,48.5810922 L128.518461,48.5810922 L146.911433,48.5810922 L146.911433,0.27687234 L89.7795674,0.27687234 Z" id="path-81"></path>
        <path d="M89.7795674,0.27687234 L89.7795674,11.4459929 C68.3158298,6.4222766 42.3543688,10.2391135 23.9233191,18.8589433 L23.9233191,18.8589433 C-1.42050355,30.7121773 12.4153688,58.6891915 10.0803475,96.1876454 L10.0803475,96.1876454 C9.51756738,105.212135 1.2546383,126.659092 0.17748227,138.339362 L0.17748227,138.339362 C-5.7007305,202.084539 136.429007,194.667716 125.333461,113.296936 L125.333461,113.296936 C121.281702,83.5805957 133.987496,71.0981064 128.518461,48.5810922 L128.518461,48.5810922 L146.911433,48.5810922 L146.911433,0.27687234" id="path-83"></path>
        <path d="M89.7795674,0.27687234 L89.7795674,11.4459929 C68.3158298,6.4222766 42.3543688,10.2391135 23.9233191,18.8589433 L23.9233191,18.8589433 C-1.42050355,30.7121773 12.4153688,58.6891915 10.0803475,96.1876454 L10.0803475,96.1876454 C9.51756738,105.212135 1.2546383,126.659092 0.17748227,138.339362 L0.17748227,138.339362 C-5.7007305,202.084539 136.429007,194.667716 125.333461,113.296936 L125.333461,113.296936 C121.281702,83.5805957 133.987496,71.0981064 128.518461,48.5810922 L128.518461,48.5810922 L146.911433,48.5810922 L146.911433,0.27687234 L89.7795674,0.27687234 Z" id="path-85"></path>
    </defs>
    <g id="vip" stroke="none" stroke-width="1" fill="none" fill-rule="evenodd">
        <g id="vip2-2-mobile" transform="translate(-22.000000, -1305.000000)">
            <g id="features" transform="translate(0.000000, 760.000000)">
                <g id="Group-3-Copy-2" transform="translate(22.000000, 543.000000)">
                    <g id="Group-130">
                        <g id="Group-3" transform="translate(0.000000, 0.368518)">
                            <mask id="mask-2" fill="white">
                                <use xlink:href="#path-1"></use>
                            </mask>
                            <g id="Clip-2"></g>
                            <path d="M125.333655,113.296549 C120.635215,78.8417546 138.47057,67.5564638 124.375896,36.9333504 C108.94591,3.40856312 55.4288745,4.1249461 23.9235128,18.8592014 C-1.42095532,30.7117901 12.4155624,58.6894496 10.0798957,96.1879035 C9.51776099,105.212393 1.25418652,126.65935 0.177675887,138.338974 C-5.70053688,202.084797 136.429201,194.667974 125.333655,113.296549" id="Fill-1" fill="#7373E5" mask="url(#mask-2)"></path>
                        </g>
                        <g id="Group-6" transform="translate(0.000000, 0.368518)">
                            <mask id="mask-4" fill="white">
                                <use xlink:href="#path-3"></use>
                            </mask>
                            <g id="Clip-5"></g>
                            <path d="M63.1680695,107.847198 C63.8921972,108.464836 64.4614312,108.924354 65.1048851,109.433567 C65.7302681,109.931808 66.370495,110.39907 67.0094312,110.866978 C68.2898851,111.798921 69.5903461,112.696659 70.9159773,113.565354 C73.5724028,115.295645 76.3475801,116.878141 79.2834596,118.27412 C82.2186936,119.661063 85.3081759,120.889886 88.6558142,121.725666 C91.9924809,122.553701 95.6228,123.076467 99.5074028,122.594361 C100.493559,122.490453 101.399041,122.291028 102.473616,122.039971 C104.607275,121.446212 105.812864,120.393581 106.728027,119.531985 C108.484779,117.751999 109.335403,116.135297 110.162148,114.575389 C111.733672,111.466545 112.703048,108.476453 113.594977,105.48507 C115.300098,99.4939142 116.385644,93.5834319 117.068467,87.4903043 L111.221878,86.2021057 C109.239885,91.6485525 107.172055,97.1801908 104.898346,102.34912 C103.767623,104.920354 102.519438,107.447056 101.202197,109.514886 C100.567133,110.521049 99.7894383,111.422659 99.4009135,111.695659 C99.236339,111.834418 99.195034,111.670489 99.8830199,111.443311 C99.5041759,111.47429 98.9575305,111.576262 98.4638071,111.57368 C96.438573,111.660162 94.1119418,111.255503 91.7517504,110.52234 C89.3909135,109.771751 86.9739277,108.743645 84.6034099,107.504496 C82.2238567,106.284709 79.8823816,104.860333 77.5738213,103.363673 C76.4211546,102.611794 75.2813957,101.828935 74.1655163,101.020907 L72.5107362,99.7959567 C71.9789348,99.404205 71.3845305,98.9466234 70.9708355,98.6174745 L63.1680695,107.847198 Z" id="Fill-4" fill="#EEA687" mask="url(#mask-4)"></path>
                        </g>
                        <g id="Group-9" transform="translate(0.000000, 0.368518)">
                            <mask id="mask-6" fill="white">
                                <use xlink:href="#path-5"></use>
                            </mask>
                            <g id="Clip-8"></g>
                            <path d="M58.2556184,105.737224 C59.9742922,113.164373 83.609122,122.125614 83.609122,122.125614 L91.4480298,105.759167 C91.4480298,105.759167 81.9001291,100.367579 73.0376326,96.0428199 C67.0910085,93.1405007 56.3859234,97.6556496 58.2556184,105.737224" id="Fill-7" fill="#342F72" mask="url(#mask-6)"></path>
                        </g>
                        <g id="Group-12" transform="translate(0.000000, 0.368518)">
                            <mask id="mask-8" fill="white">
                                <use xlink:href="#path-7"></use>
                            </mask>
                            <g id="Clip-11"></g>
                            <path d="M111.141527,87.5164426 L111.149272,80.4048894 L119.71747,83.2233078 C119.71747,83.2233078 119.506428,86.9594709 116.207839,89.266095 L111.141527,87.5164426 Z" id="Fill-10" fill="#EEA687" mask="url(#mask-8)"></path>
                        </g>
                        <g id="Group-15" transform="translate(0.000000, 0.368518)">
                            <mask id="mask-10" fill="white">
                                <use xlink:href="#path-9"></use>
                            </mask>
                            <g id="Clip-14"></g>
                            <polygon id="Fill-13" fill="#EEA687" mask="url(#mask-10)" points="110.88279 75.4415816 119.10635 78.5491348 119.717535 83.2230496 111.149336 80.4046312"></polygon>
                        </g>
                        <g id="Group-18" transform="translate(0.000000, 0.368518)">
                            <mask id="mask-12" fill="white">
                                <use xlink:href="#path-11"></use>
                            </mask>
                            <g id="Clip-17"></g>
                            <path d="M111.965238,92.3464128 L103.82687,90.2921362 C103.258281,90.1488596 102.976891,89.5828525 103.200841,89.0349163 L110.885501,70.246966 C111.109451,69.6990298 111.758068,69.3672993 112.326657,69.5112213 L120.465026,71.5648525 C121.032969,71.7087745 121.315004,72.2741362 121.091054,72.8227177 L113.406394,91.6106681 C113.182444,92.1586043 112.533827,92.4896894 111.965238,92.3464128" id="Fill-16" fill="#2A2868" mask="url(#mask-12)"></path>
                        </g>
                        <g id="Group-21" transform="translate(0.000000, 0.368518)">
                            <mask id="mask-14" fill="white">
                                <use xlink:href="#path-13"></use>
                            </mask>
                            <g id="Clip-20"></g>
                            <path d="M110.965142,92.0938716 L102.826773,90.0402404 C102.258184,89.8963184 101.976794,89.3309567 102.200745,88.7823752 L109.885404,69.9944248 C110.109355,69.4464887 110.757972,69.1154035 111.32656,69.2586801 L119.464929,71.3129567 C120.033518,71.4562333 120.314908,72.0222404 120.090957,72.5701766 L112.406298,91.358127 C112.182348,91.9060631 111.53373,92.2371482 110.965142,92.0938716" id="Fill-19" fill="#342F72" mask="url(#mask-14)"></path>
                        </g>
                        <g id="Group-24" transform="translate(0.000000, 0.368518)">
                            <mask id="mask-16" fill="white">
                                <use xlink:href="#path-15"></use>
                            </mask>
                            <g id="Clip-23"></g>
                            <polygon id="Fill-22" fill="#DCE9FF" mask="url(#mask-16)" points="119.82596 73.2171801 116.371833 81.6627546 116.055591 82.441095 114.504074 86.2346979 114.173634 87.0446624 112.931904 90.076705 102.728932 87.4996624 103.030974 86.7535915 103.359478 85.9655702 106.343762 78.6623362 107.272478 76.3763645 109.616535 70.6453007 112.99257 71.494634 113.856748 71.7185844 118.47774 72.8796411 119.200577 73.0584142"></polygon>
                        </g>
                        <g id="Group-27" transform="translate(0.000000, 0.368518)">
                            <mask id="mask-18" fill="white">
                                <use xlink:href="#path-17"></use>
                            </mask>
                            <g id="Clip-26"></g>
                            <path d="M113.040071,76.507766 L113.695787,83.5786596 C113.748064,84.1433759 113.223362,84.588695 112.67478,84.4454184 L107.177993,83.0120071 C106.59327,82.8590496 106.369965,82.146539 106.764298,81.6876667 L111.605369,76.0501844 C112.075858,75.5028936 112.973596,75.7888014 113.040071,76.507766" id="Fill-25" fill="#407BFF" mask="url(#mask-18)"></path>
                        </g>
                        <g id="Group-30" transform="translate(0.000000, 0.368518)">
                            <mask id="mask-20" fill="white">
                                <use xlink:href="#path-19"></use>
                            </mask>
                            <g id="Clip-29"></g>
                            <path d="M109.904314,81.8696021 C109.779109,82.2490915 109.908187,82.6169638 110.192804,82.6911837 C110.477421,82.7654035 110.809151,82.5175738 110.934357,82.1380844 C111.058917,81.758595 110.929839,81.3907227 110.645867,81.3165028 C110.36125,81.242283 110.02952,81.4901128 109.904314,81.8696021" id="Fill-28" fill="#FFFFFF" mask="url(#mask-20)"></path>
                        </g>
                        <g id="Group-33" transform="translate(0.000000, 0.368518)">
                            <mask id="mask-22" fill="white">
                                <use xlink:href="#path-21"></use>
                            </mask>
                            <g id="Clip-32"></g>
                            <path d="M110.608499,80.6567851 L111.077052,80.7787638 C111.169989,80.8032887 111.278414,80.7284234 111.326173,80.6070901 L112.316847,78.115239 C112.371705,77.9784163 112.328464,77.8383667 112.224556,77.8112603 L111.442989,77.607317 C111.338435,77.5802106 111.217748,77.6776645 111.180315,77.8183596 L110.502655,80.3921752 C110.46974,80.5173809 110.515563,80.6329057 110.608499,80.6567851" id="Fill-31" fill="#FFFFFF" mask="url(#mask-22)"></path>
                        </g>
                        <g id="Group-36" transform="translate(0.000000, 0.368518)">
                            <mask id="mask-24" fill="white">
                                <use xlink:href="#path-23"></use>
                            </mask>
                            <g id="Clip-35"></g>
                            <path d="M26.1501085,101.464677 C29.2938035,110.054819 31.5655766,118.877301 33.2610163,127.21445 C34.4975837,133.315323 35.4127468,139.157394 36.1123496,144.466372 C37.7574489,156.909493 38.2331014,166.457394 38.8591298,169.655301 C45.0406759,168.734975 68.3360305,165.260195 81.0379525,163.360167 C83.2516404,117.688493 70.3877255,95.2605426 70.3877255,95.2605426 C70.3877255,95.2605426 65.6189383,94.6938901 60.136995,94.8055426 C59.4148035,94.8158688 58.6822858,94.8481383 57.9381511,94.8913794 C53.1267681,95.1682518 45.3530447,96.5055 40.0053426,97.5671667 C38.881073,97.791117 37.7464773,98.0479823 36.6447965,98.3151738 C31.0389383,99.687273 26.1501085,101.464677 26.1501085,101.464677" id="Fill-34" fill="#342F72" mask="url(#mask-24)"></path>
                        </g>
                        <g id="Group-39" transform="translate(0.000000, 0.368518)">
                            <mask id="mask-26" fill="white">
                                <use xlink:href="#path-25"></use>
                            </mask>
                            <g id="Clip-38"></g>
                            <path d="M37.7609986,112.060885 C38.3444312,119.16663 36.8561617,125.328169 33.9583603,130.852708 C33.7440908,129.652282 33.5085234,128.440885 33.2606936,127.218516 C32.3306865,122.634311 31.2231972,117.900374 29.8743319,113.13675 L37.7609986,112.060885 Z" id="Fill-37" fill="#2A2868" mask="url(#mask-26)"></path>
                        </g>
                        <g id="Group-42" transform="translate(0.000000, 0.368518)">
                            <mask id="mask-28" fill="white">
                                <use xlink:href="#path-27"></use>
                            </mask>
                            <g id="Clip-41"></g>
                            <path d="M38.7683879,77.1119801 C40.7613525,82.7120298 43.4694092,93.114427 40.0081823,97.566973 C43.4229411,100.172413 48.1930191,102.110519 54.6533738,101.001739 C59.600934,100.153051 59.3318064,96.6460014 57.9384092,94.8892496 C51.2754021,94.3135617 50.7287567,89.5157319 51.179239,84.8656965 L38.7683879,77.1119801 Z" id="Fill-40" fill="#EEA687" mask="url(#mask-28)"></path>
                        </g>
                        <g id="Group-45" transform="translate(0.000000, 0.368518)">
                            <mask id="mask-30" fill="white">
                                <use xlink:href="#path-29"></use>
                            </mask>
                            <g id="Clip-44"></g>
                            <path d="M43.8286333,80.2762631 L51.1738177,84.8617596 C51.063456,85.962795 51.0150518,87.069639 51.0963709,88.1268339 C48.5858035,88.138405 44.8063993,85.9453695 44.1610092,83.4109227 C43.8389596,82.1466035 43.7085908,80.9055184 43.8286333,80.2762631" id="Fill-43" fill="#CE6F55" mask="url(#mask-30)"></path>
                        </g>
                        <g id="Group-48" transform="translate(0.000000, 0.368518)">
                            <mask id="mask-32" fill="white">
                                <use xlink:href="#path-31"></use>
                            </mask>
                            <g id="Clip-47"></g>
                            <path d="M58.748761,58.901073 C60.3938603,62.5055766 60.8540234,73.5423922 55.9742291,71.6907681 C51.0944348,69.8384986 51.5952574,61.455527 51.5952574,61.455527 C51.5952574,61.455527 54.8964277,50.4600163 58.748761,58.901073" id="Fill-46" fill="#0F264C" mask="url(#mask-32)"></path>
                        </g>
                        <g id="Group-51" transform="translate(0.000000, 0.368518)">
                            <mask id="mask-34" fill="white">
                                <use xlink:href="#path-33"></use>
                            </mask>
                            <g id="Clip-50"></g>
                            <path d="M36.7850397,68.5324227 C38.4320752,76.2725858 39.0019546,80.8864794 43.5467915,84.3070468 C50.3827631,89.4514511 59.4905078,84.4335433 60.1901106,76.3571319 C60.819366,69.0881035 58.0203092,57.6511461 49.9096922,55.6846426 C41.9184723,53.7471816 35.1380043,60.7922596 36.7850397,68.5324227" id="Fill-49" fill="#EEA687" mask="url(#mask-34)"></path>
                        </g>
                        <g id="Group-54" transform="translate(0.000000, 0.368518)">
                            <mask id="mask-36" fill="white">
                                <use xlink:href="#path-35"></use>
                            </mask>
                            <g id="Clip-53"></g>
                            <path d="M40.8865582,62.3728844 C45.305544,65.2280901 44.2877638,73.9995865 38.0190901,76.1255014 C31.7497709,78.2520617 30.5293383,73.6936716 31.5567993,73.2535156 C29.4212035,72.7372035 21.0892177,68.7093241 24.6459624,61.9514447 C26.806083,57.8467638 32.9902106,58.7161043 32.9902106,58.7161043 C32.9902106,58.7161043 25.8470333,51.2863738 37.5853879,45.8205652 C51.9240191,39.1433596 53.6781894,52.2176716 53.6781894,52.2176716 C53.6781894,52.2176716 62.8027142,51.4793454 61.8552816,57.5124518 C60.5993525,65.5107709 52.2609128,58.8484092 52.2609128,58.8484092 C52.2609128,58.8484092 51.516778,65.8992957 40.8865582,62.3728844" id="Fill-52" fill="#3C2945" mask="url(#mask-36)"></path>
                        </g>
                        <g id="Group-57" transform="translate(0.000000, 0.368518)">
                            <mask id="mask-38" fill="white">
                                <use xlink:href="#path-37"></use>
                            </mask>
                            <g id="Clip-56"></g>
                            <path d="M53.1021142,55.2422922 C53.2718518,55.2474553 53.4344901,55.1454837 53.4977383,54.9776823 C53.5893837,54.7369518 55.7004546,49.040739 52.842022,45.2019589 C50.9865255,42.7094624 47.4981922,41.6277887 42.453178,41.9879163 C42.2272915,42.0040511 42.0575539,42.2002496 42.0736887,42.4261362 C42.089178,42.6513773 42.2731142,42.8307957 42.5125539,42.8062709 C47.2490716,42.4680865 50.5031284,43.436817 52.1817879,45.6892284 C54.7717383,49.1646539 52.751022,54.6323986 52.7303695,54.6866113 C52.6503411,54.8982993 52.7568305,55.1351574 52.9691638,55.2158312 C53.012405,55.231966 53.0582277,55.2410014 53.1021142,55.2422922" id="Fill-55" fill="#3C2945" mask="url(#mask-38)"></path>
                        </g>
                        <g id="Group-60" transform="translate(0.000000, 0.368518)">
                            <mask id="mask-40" fill="white">
                                <use xlink:href="#path-39"></use>
                            </mask>
                            <g id="Clip-59"></g>
                            <path d="M34.5431482,77.6703716 C35.9197652,79.300627 37.9204745,80.1435064 39.670127,80.2629035 C42.3013823,80.442322 43.0842404,77.9595064 41.9064035,75.7554993 C40.8460277,73.7715702 38.1999284,71.2874638 35.7732617,72.1432511 C33.3827369,72.9867759 32.9690418,75.8064851 34.5431482,77.6703716" id="Fill-58" fill="#EEA687" mask="url(#mask-40)"></path>
                        </g>
                        <g id="Group-63" transform="translate(0.000000, 0.368518)">
                            <mask id="mask-42" fill="white">
                                <use xlink:href="#path-41"></use>
                            </mask>
                            <g id="Clip-62"></g>
                            <path d="M112.241143,326.592998 L99.5450291,331.185594 C99.5450291,331.185594 86.3435752,282.112069 82.0749652,257.635005 C80.775795,250.18914 77.9683482,239.897104 74.5936035,228.913211 C70.3353199,215.074111 65.1857525,200.153338 61.0126603,188.480168 C56.6117454,176.186778 53.3138021,167.499828 53.3138021,167.499828 L81.0429865,163.360296 C81.0429865,163.360296 103.134689,227.946416 105.86727,252.128537 C108.711504,277.271643 112.241143,326.592998 112.241143,326.592998" id="Fill-61" fill="#3C2945" mask="url(#mask-42)"></path>
                        </g>
                        <g id="Group-66" transform="translate(0.000000, 0.368518)">
                            <mask id="mask-44" fill="white">
                                <use xlink:href="#path-43"></use>
                            </mask>
                            <g id="Clip-65"></g>
                            <path d="M66.0820702,165.593862 C66.0820702,165.593862 68.4338716,233.885167 66.8933255,257.197301 C65.2069213,282.725706 45.0062121,336.515096 45.0062121,336.515096 L30.408134,336.086557 C30.408134,336.086557 41.2965099,287.486103 43.9309922,262.67989 C46.9314106,234.424067 38.8646801,169.659819 38.8646801,169.659819 L66.0820702,165.593862 Z" id="Fill-64" fill="#3C2945" mask="url(#mask-44)"></path>
                        </g>
                        <g id="Group-69" transform="translate(0.000000, 0.368518)">
                            <mask id="mask-46" fill="white">
                                <use xlink:href="#path-45"></use>
                            </mask>
                            <g id="Clip-68"></g>
                            <path d="M25.8140539,105.178187 C24.7168908,106.383776 23.7804298,107.468031 22.8323518,108.647159 C21.8862099,109.804343 20.9639475,110.974435 20.0539475,112.156145 C18.2546,114.534407 16.5301177,116.977854 14.9088979,119.508428 C13.2663801,122.023513 11.7593943,124.661223 10.3459901,127.378315 L9.30884823,129.437755 L8.35302553,131.566251 C8.02710355,132.265854 7.74829504,133.01257 7.46045106,133.747024 L7.03126667,134.850641 L6.9247773,135.126223 L6.76213901,135.588967 C6.63757872,135.944577 6.55819574,136.264691 6.4768766,136.59384 C5.93023121,139.159265 6.15547234,141.039287 6.40394752,142.806365 C6.6782383,144.557308 7.08999716,146.132705 7.54499716,147.659052 C8.47435887,150.693031 9.63606099,153.484989 10.8771461,156.207244 C13.3883589,161.642719 16.2874511,166.685152 19.5795858,171.62174 L24.8640397,168.80913 C22.8749475,163.578889 20.9484582,158.207953 19.3149759,152.959641 C18.5056567,150.333549 17.7937915,147.700357 17.303295,145.182045 C17.0593376,143.931279 16.8766922,142.697294 16.8224794,141.601421 C16.7592312,140.532655 16.8605574,139.49745 16.9967348,139.269627 C17.0115787,139.254138 17.018678,139.22574 17.0251319,139.247038 C17.0386851,139.228322 17.0018979,139.306414 17.0503021,139.207024 L17.1567915,138.989528 L17.5814582,138.121478 C17.8654298,137.543209 18.1313305,136.964294 18.4617702,136.389251 L19.4027489,134.662833 L20.4089121,132.941577 C21.7939191,130.660769 23.2647631,128.397386 24.8369333,126.168854 C26.4155574,123.948067 28.0387135,121.738896 29.7231816,119.56845 C31.3650539,117.403166 33.1876355,115.210776 34.8269262,113.230719 L25.8140539,105.178187 Z" id="Fill-67" fill="#EEA687" mask="url(#mask-46)"></path>
                        </g>
                        <g id="Group-72" transform="translate(0.000000, 0.368518)">
                            <mask id="mask-48" fill="white">
                                <use xlink:href="#path-47"></use>
                            </mask>
                            <g id="Clip-71"></g>
                            <path d="M28.3211362,100.872855 C20.7532922,101.79189 10.2392426,118.505557 10.2392426,118.505557 L23.9453915,134.334394 C23.9453915,134.334394 32.0198667,124.55867 36.7957532,115.940777 C41.9982426,106.553578 37.4889021,99.7602021 28.3211362,100.872855" id="Fill-70" fill="#342F72" mask="url(#mask-48)"></path>
                        </g>
                        <g id="Group-75" transform="translate(0.000000, 0.368518)">
                            <mask id="mask-50" fill="white">
                                <use xlink:href="#path-49"></use>
                            </mask>
                            <g id="Clip-74"></g>
                            <path d="M23.4452142,167.251869 L30.294739,171.564365 L21.7678454,177.134727 C21.7678454,177.134727 16.7518738,172.16845 19.0862496,169.216436 L23.4452142,167.251869 Z" id="Fill-73" fill="#EEA687" mask="url(#mask-50)"></path>
                        </g>
                        <g id="Group-78" transform="translate(0.000000, 0.368518)">
                            <mask id="mask-52" fill="white">
                                <use xlink:href="#path-51"></use>
                            </mask>
                            <g id="Clip-77"></g>
                            <polygon id="Fill-76" fill="#EEA687" mask="url(#mask-52)" points="32.5866482 177.819099 25.3234284 182.092226 21.7679745 177.13434 30.2948681 171.564623"></polygon>
                        </g>
                        <g id="Group-81" transform="translate(0.000000, 0.368518)">
                            <mask id="mask-54" fill="white">
                                <use xlink:href="#path-53"></use>
                            </mask>
                            <g id="Clip-80"></g>
                            <path d="M106.730931,71.0233057 L107.824867,71.0555752 C107.886825,68.9445043 109.655194,67.2774617 111.765619,67.3394191 L111.797889,66.245483 C109.083378,66.1654546 106.810314,68.308795 106.730931,71.0233057" id="Fill-79" fill="#342F72" mask="url(#mask-54)"></path>
                        </g>
                        <g id="Group-84" transform="translate(0.000000, 0.368518)">
                            <mask id="mask-56" fill="white">
                                <use xlink:href="#path-55"></use>
                            </mask>
                            <g id="Clip-83"></g>
                            <path d="M104.543123,70.9591539 L105.63706,70.9914234 C105.734513,67.673473 108.512918,65.0538348 111.830223,65.1512887 L111.862492,64.0573525 C107.941748,63.942473 104.658003,67.0384092 104.543123,70.9591539" id="Fill-82" fill="#342F72" mask="url(#mask-56)"></path>
                        </g>
                        <g id="Group-87" transform="translate(0.000000, 0.368518)">
                            <mask id="mask-58" fill="white">
                                <use xlink:href="#path-57"></use>
                            </mask>
                            <g id="Clip-86"></g>
                            <path d="M102.355316,70.894873 L103.449252,70.9271426 C103.582202,66.4029582 107.369996,62.8307241 111.894181,62.9636745 L111.92645,61.8697383 C106.800117,61.7193624 102.505691,65.7678943 102.355316,70.894873" id="Fill-85" fill="#342F72" mask="url(#mask-58)"></path>
                        </g>
                        <g id="Group-90" transform="translate(0.000000, 0.368518)">
                            <mask id="mask-60" fill="white">
                                <use xlink:href="#path-59"></use>
                            </mask>
                            <g id="Clip-89"></g>
                            <path d="M111.695078,96.775273 C114.409589,96.854656 116.682652,94.711961 116.762035,91.9974504 L115.668099,91.9651809 C115.606142,94.0762518 113.837773,95.7432943 111.727348,95.6813369 L111.695078,96.775273 Z" id="Fill-88" fill="#342F72" mask="url(#mask-60)"></path>
                        </g>
                        <g id="Group-93" transform="translate(0.000000, 0.368518)">
                            <mask id="mask-62" fill="white">
                                <use xlink:href="#path-61"></use>
                            </mask>
                            <g id="Clip-92"></g>
                            <path d="M111.630862,98.9630809 C115.551606,99.0779603 118.834706,95.9820241 118.95023,92.0612794 L117.856294,92.0296553 C117.75884,95.3469603 114.980436,97.9665986 111.663131,97.8691447 L111.630862,98.9630809 Z" id="Fill-91" fill="#342F72" mask="url(#mask-62)"></path>
                        </g>
                        <g id="Group-96" transform="translate(0.000000, 0.368518)">
                            <mask id="mask-64" fill="white">
                                <use xlink:href="#path-63"></use>
                            </mask>
                            <g id="Clip-95"></g>
                            <path d="M111.566645,101.150889 C116.693624,101.301265 120.987404,97.2527326 121.13778,92.1257539 L120.043844,92.0934844 C119.910894,96.6176688 116.123099,100.189903 111.598915,100.056952 L111.566645,101.150889 Z" id="Fill-94" fill="#342F72" mask="url(#mask-64)"></path>
                        </g>
                        <g id="Group-99" transform="translate(0.000000, 0.368518)">
                            <mask id="mask-66" fill="white">
                                <use xlink:href="#path-65"></use>
                            </mask>
                            <g id="Clip-98"></g>
                            <path d="M130.310387,45.8481234 L98.5914007,45.8481234 C93.7451667,45.8481234 89.7798901,41.8828468 89.7798901,37.0366128 L89.7798901,16.0046411 C89.7798901,11.1584071 93.7451667,7.19377589 98.5914007,7.19377589 L130.310387,7.19377589 C135.156621,7.19377589 139.121897,11.1584071 139.121897,16.0046411 L139.121897,37.0366128 C139.121897,41.8828468 135.156621,45.8481234 130.310387,45.8481234" id="Fill-97" fill="#F7C954" mask="url(#mask-66)"></path>
                        </g>
                        <g id="Group-102" transform="translate(0.000000, 0.368518)">
                            <mask id="mask-68" fill="white">
                                <use xlink:href="#path-67"></use>
                            </mask>
                            <g id="Clip-101"></g>
                            <path d="M139.390573,7.05740496 C139.503516,7.05740496 139.615814,7.01416383 139.702296,6.92832695 L143.103502,3.52647589 C143.275821,3.35480213 143.275821,3.07599362 143.103502,2.90367447 C142.931183,2.73200071 142.65302,2.73200071 142.480701,2.90367447 L139.07885,6.30552553 C138.907176,6.47719929 138.907176,6.7560078 139.07885,6.92832695 C139.165332,7.01416383 139.27763,7.05740496 139.390573,7.05740496" id="Fill-100" fill="#F7C954" mask="url(#mask-68)"></path>
                        </g>
                        <g id="Group-105" transform="translate(0.000000, 0.368518)">
                            <mask id="mask-70" fill="white">
                                <use xlink:href="#path-69"></use>
                            </mask>
                            <g id="Clip-104"></g>
                            <path d="M137.205799,6.12081489 C137.412969,6.12081489 137.59755,5.97431135 137.63821,5.76326879 L138.262302,2.51372979 C138.308125,2.27493546 138.15194,2.04388582 137.913146,1.99806312 C137.673706,1.95288582 137.443302,2.10907021 137.397479,2.34786454 L136.772742,5.59740355 C136.726919,5.83619787 136.883104,6.06724752 137.122543,6.11307021 C137.150295,6.11823333 137.178047,6.12081489 137.205799,6.12081489" id="Fill-103" fill="#F7C954" mask="url(#mask-70)"></path>
                        </g>
                        <g id="Group-108" transform="translate(0.000000, 0.368518)">
                            <mask id="mask-72" fill="white">
                                <use xlink:href="#path-71"></use>
                            </mask>
                            <g id="Clip-107"></g>
                            <path d="M140.326647,9.24256667 C140.354399,9.24256667 140.38215,9.23998511 140.409902,9.23482199 L143.659441,8.6100844 C143.898235,8.5642617 144.055065,8.33321206 144.009243,8.09441773 C143.962774,7.8556234 143.731079,7.7000844 143.493576,7.7452617 L140.244037,8.3693539 C140.005243,8.4151766 139.848413,8.64622624 139.894235,8.88502057 C139.934895,9.09606312 140.119477,9.24256667 140.326647,9.24256667" id="Fill-106" fill="#F7C954" mask="url(#mask-72)"></path>
                        </g>
                        <g id="Group-111" transform="translate(0.000000, 0.368518)">
                            <mask id="mask-74" fill="white">
                                <use xlink:href="#path-73"></use>
                            </mask>
                            <g id="Clip-110"></g>
                            <polygon id="Fill-109" fill="#F7C954" mask="url(#mask-74)" points="125.844545 42.8350553 118.256049 64.7066794 118.099865 42.5536652"></polygon>
                        </g>
                        <g id="Group-114" transform="translate(0.000000, 0.368518)">
                            <mask id="mask-76" fill="white">
                                <use xlink:href="#path-75"></use>
                            </mask>
                            <g id="Clip-113"></g>
                            <path d="M124.518269,35.3607284 L103.091318,35.3607284 C103.091318,34.215161 103.545673,33.1186433 104.355638,32.3125511 L104.782886,31.8807851 C105.479262,31.188927 105.866496,30.2466574 105.866496,29.2643738 L105.866496,24.2819624 C105.866496,19.8016645 109.580716,16.1894163 114.095865,16.3481823 C114.760616,16.3746433 115.399552,16.4804872 116.012028,16.6605511 C115.773879,17.2904518 115.642219,17.9777922 115.642219,18.6915936 C115.642219,21.8811113 118.227652,24.4710617 121.421687,24.4710617 C121.531404,24.4710617 121.637248,24.466544 121.743091,24.4620262 L121.743091,24.4710617 L121.743091,29.2643738 C121.743091,30.2466574 122.134843,31.188927 122.826701,31.8807851 L123.25395,32.3125511 C123.659255,32.717856 123.976787,33.1935085 124.192347,33.7085298 C124.404035,34.2287142 124.518269,34.787622 124.518269,35.3607284" id="Fill-112" fill="#D6A63C" mask="url(#mask-76)"></path>
                        </g>
                        <g id="Group-117" transform="translate(0.000000, 0.368518)">
                            <mask id="mask-78" fill="white">
                                <use xlink:href="#path-77"></use>
                            </mask>
                            <g id="Clip-116"></g>
                            <path d="M118.040166,36.5206234 C117.934967,38.8291837 115.99557,40.6524106 113.64506,40.5685099 C111.446861,40.4942901 109.713343,38.692361 109.570712,36.5206234 L118.040166,36.5206234 Z" id="Fill-115" fill="#D6A63C" mask="url(#mask-78)"></path>
                        </g>
                        <g id="Group-120" transform="translate(0.000000, 0.368518)">
                            <mask id="mask-80" fill="white">
                                <use xlink:href="#path-79"></use>
                            </mask>
                            <g id="Clip-119"></g>
                            <path d="M125.163659,33.4245582 L103.736709,33.4245582 C103.736709,32.2789908 104.191063,31.182473 105.001028,30.3763809 L105.428276,29.9446149 C106.124652,29.2527567 106.511886,28.3104872 106.511886,27.3282035 L106.511886,22.3457922 C106.511886,17.8654943 110.226106,14.2532461 114.741255,14.4120121 C115.406006,14.438473 116.044943,14.544317 116.657418,14.7243809 C116.419269,15.3542816 116.287609,16.041622 116.287609,16.7554234 C116.287609,19.9449411 118.873042,22.5348915 122.067077,22.5348915 C122.176794,22.5348915 122.282638,22.5303738 122.388482,22.525856 L122.388482,22.5348915 L122.388482,27.3282035 C122.388482,28.3104872 122.780233,29.2527567 123.472091,29.9446149 L123.89934,30.3763809 C124.304645,30.7816858 124.622177,31.2573383 124.837737,31.7723596 C125.049425,32.292544 125.163659,32.8514518 125.163659,33.4245582" id="Fill-118" fill="#FFFFFF" mask="url(#mask-80)"></path>
                        </g>
                        <g id="Group-123" transform="translate(0.000000, 0.368518)">
                            <mask id="mask-82" fill="white">
                                <use xlink:href="#path-81"></use>
                            </mask>
                            <g id="Clip-122"></g>
                            <path d="M118.685556,34.5844532 C118.580357,36.8930135 116.64096,38.7162404 114.29045,38.6323397 C112.092251,38.5581199 110.358733,36.7561908 110.216102,34.5844532 L118.685556,34.5844532 Z" id="Fill-121" fill="#FFFFFF" mask="url(#mask-82)"></path>
                        </g>
                        <g id="Group-126" transform="translate(0.000000, 0.368518)">
                            <mask id="mask-84" fill="white">
                                <use xlink:href="#path-83"></use>
                            </mask>
                            <g id="Clip-125"></g>
                            <path d="M126.391449,16.7554234 C126.391449,19.1446574 124.454633,21.081473 122.065399,21.081473 C119.676165,21.081473 117.73935,19.1446574 117.73935,16.7554234 C117.73935,14.3661894 119.676165,12.4293738 122.065399,12.4293738 C124.454633,12.4293738 126.391449,14.3661894 126.391449,16.7554234" id="Fill-124" fill="#D44040" mask="url(#mask-84)"></path>
                        </g>
                        <g id="Group-129" transform="translate(0.000000, 0.368518)">
                            <mask id="mask-86" fill="white">
                                <use xlink:href="#path-85"></use>
                            </mask>
                            <g id="Clip-128"></g>
                            <path d="M122.924349,14.6711362 L122.924349,19.0230014 L121.721987,19.0230014 L121.721987,16.1716681 C121.527079,16.3194624 121.338626,16.4388596 121.157271,16.530505 C120.975271,16.6221504 120.746803,16.709278 120.472512,16.7931787 L120.472512,15.8186397 C120.877172,15.6882709 121.191477,15.5314411 121.415427,15.3481504 C121.639377,15.165505 121.814278,14.9396184 121.940774,14.6711362 L122.924349,14.6711362 Z" id="Fill-127" fill="#FFFFFF" mask="url(#mask-86)"></path>
                        </g>
                    </g>
                </g>
            </g>
        </g>
    </g>
</svg>