<?xml version="1.0" encoding="UTF-8"?>
<svg width="97px" height="62px" viewBox="0 0 97 62" version="1.1" xmlns="http://www.w3.org/2000/svg" xmlns:xlink="http://www.w3.org/1999/xlink">
    <!-- Generator: sketchtool 63.1 (101010) - https://sketch.com -->
    <title>0EDF5B16-A112-4405-A090-57F0477D3455@2x</title>
    <desc>Created with sketchtool.</desc>
    <defs>
        <rect id="path-1" x="0" y="0" width="98" height="72"></rect>
        <path d="M53.4962594,3.4872818 L41.9471322,12.6184539 C19.9712718,29.9922195 5.06174564,55.4310224 0,82.9849377 L0,82.9849377 L81.764389,82.9849377 L81.764389,0.377057357 L53.4962594,3.4872818 Z" id="path-3"></path>
        <linearGradient x1="49.8606273%" y1="38.0242196%" x2="50.70831%" y2="110.91161%" id="linearGradient-5">
            <stop stop-color="#FFFFFF" offset="0%"></stop>
            <stop stop-color="#C3CDD4" offset="100%"></stop>
        </linearGradient>
        <path d="M0.367082294,82.5859352 L78.5388529,82.5859352 C75.8160599,55.0559601 62.0201496,29.8158603 40.319601,12.6587531 L40.319601,12.6587531 L28.635212,3.42144638 L0.367082294,0.310822943 L0.367082294,82.5859352 Z" id="path-6"></path>
        <linearGradient x1="50.1358072%" y1="37.8495657%" x2="49.3253868%" y2="110.441892%" id="linearGradient-8">
            <stop stop-color="#FFFFFF" offset="0%"></stop>
            <stop stop-color="#C3CDD4" offset="100%"></stop>
        </linearGradient>
        <polygon id="path-9" points="0.0558004988 0.276508728 72.063581 0.276508728 72.063581 78.351601 0.0558004988 78.351601"></polygon>
        <path d="M12.1899252,2.3201995 L4.49117207,9.97665835 C1.72688279,12.7257855 0.204289277,16.3802494 0.204289277,20.2673317 L0.204289277,20.2673317 L0.204289277,26.2499751 C0.204289277,35.5974065 8.37745636,42.1873317 17.3067332,42.1873317 L17.3067332,42.1873317 C26.245985,42.1873317 34.40798,35.5794514 34.40798,26.2499751 L34.40798,26.2499751 L34.40798,20.2673317 C34.40798,16.3802494 32.8853865,12.7257855 30.1214963,9.97665835 L30.1214963,9.97665835 L22.4223441,2.3201995 C21.0114713,0.917705736 19.1589027,0.216658354 17.3059352,0.216658354 L17.3059352,0.216658354 C15.4533666,0.216658354 13.600399,0.917705736 12.1899252,2.3201995" id="path-11"></path>
        <linearGradient x1="50.0005038%" y1="14.3996229%" x2="50.0005038%" y2="106.629283%" id="linearGradient-13">
            <stop stop-color="#C3CDD4" offset="0%"></stop>
            <stop stop-color="#F9F9FB" offset="100%"></stop>
        </linearGradient>
    </defs>
    <g id="vip" stroke="none" stroke-width="1" fill="none" fill-rule="evenodd">
        <g id="vip-ad-welcome" transform="translate(-313.000000, -568.000000)">
            <g id="Group" transform="translate(20.000000, 462.000000)">
                <g id="Group-35" transform="translate(293.000000, 96.000000)">
                    <mask id="mask-2" fill="white">
                        <use xlink:href="#path-1"></use>
                    </mask>
                    <g id="Mask"></g>
                    <g mask="url(#mask-2)">
                        <g transform="translate(-33.000000, 10.000000)">
                            <g id="Group-3" transform="translate(0.000000, 41.618753)">
                                <mask id="mask-4" fill="white">
                                    <use xlink:href="#path-3"></use>
                                </mask>
                                <g id="Clip-2"></g>
                                <path d="M53.4962594,3.4872818 L41.9471322,12.6184539 C19.9712718,29.9922195 5.06174564,55.4310224 0,82.9849377 L0,82.9849377 L81.764389,82.9849377 L81.764389,0.377057357 L53.4962594,3.4872818 Z" id="Fill-1" fill="url(#linearGradient-5)" mask="url(#mask-4)"></path>
                            </g>
                            <g id="Group-6" transform="translate(81.396509, 42.017756)">
                                <mask id="mask-7" fill="white">
                                    <use xlink:href="#path-6"></use>
                                </mask>
                                <g id="Clip-5"></g>
                                <path d="M0.367082294,82.5859352 L78.5388529,82.5859352 C75.8160599,55.0559601 62.0201496,29.8158603 40.319601,12.6587531 L40.319601,12.6587531 L28.635212,3.42144638 L0.367082294,0.310822943 L0.367082294,82.5859352 Z" id="Fill-4" fill="url(#linearGradient-8)" mask="url(#mask-7)"></path>
                            </g>
                            <g id="Group-15" transform="translate(45.486284, 0.122494)">
                                <mask id="mask-10" fill="white">
                                    <use xlink:href="#path-9"></use>
                                </mask>
                                <g id="Clip-14"></g>
                                <path d="M36.0596908,78.351601 C35.6068229,78.351601 35.1535561,78.2159401 34.7633317,77.9446185 L3.05420449,55.8949426 C2.43934165,55.467212 2.07265835,54.7645686 2.07265835,54.0140449 L2.07265835,27.0638204 C2.07265835,26.8180349 2.1125586,26.5738454 2.18996509,26.3408279 L4.18378055,20.3318504 L2.73859352,18.8802793 C-0.83846384,15.2872618 -0.83846384,9.4406783 2.73859352,5.84766085 C2.74218454,5.84406983 2.74577556,5.8404788 2.74976559,5.83648878 C6.30966584,2.26940648 12.1099651,2.22312219 15.7161496,5.84526683 L16.7603392,6.89424439 C17.8667731,6.06072818 25.0380449,0.276389027 36.0584938,0.276389027 C47.0809377,0.276389027 54.2534065,6.06032918 55.3594414,6.89384539 L56.4036309,5.84486783 C59.9595411,2.27339651 65.7594414,2.21913217 69.369616,5.83648878 C69.373606,5.8400798 69.377197,5.84367082 69.380788,5.84766085 C72.9578454,9.4406783 72.9578454,15.2868628 69.380788,18.8798803 L67.935601,20.3314514 L69.9298155,26.3404289 C70.0068229,26.5738454 70.0467232,26.8180349 70.0467232,27.0638204 L70.0467232,54.0140449 C70.0467232,54.7645686 69.6800399,55.467212 69.0659751,55.8949426 L37.3560499,77.9446185 C36.9658254,78.2159401 36.5129576,78.351601 36.0596908,78.351601" id="Fill-13" fill="#FFFFFF" mask="url(#mask-10)"></path>
                            </g>
                            <g id="Group-18" transform="translate(64.239401, 16.880599)">
                                <mask id="mask-12" fill="white">
                                    <use xlink:href="#path-11"></use>
                                </mask>
                                <g id="Clip-17"></g>
                                <path d="M12.1899252,2.3201995 L4.49117207,9.97665835 C1.72688279,12.7257855 0.204289277,16.3802494 0.204289277,20.2673317 L0.204289277,20.2673317 L0.204289277,26.2499751 C0.204289277,35.5974065 8.37745636,42.1873317 17.3067332,42.1873317 L17.3067332,42.1873317 C26.245985,42.1873317 34.40798,35.5794514 34.40798,26.2499751 L34.40798,26.2499751 L34.40798,20.2673317 C34.40798,16.3802494 32.8853865,12.7257855 30.1214963,9.97665835 L30.1214963,9.97665835 L22.4223441,2.3201995 C21.0114713,0.917705736 19.1589027,0.216658354 17.3059352,0.216658354 L17.3059352,0.216658354 C15.4533666,0.216658354 13.600399,0.917705736 12.1899252,2.3201995" id="Fill-16" fill="url(#linearGradient-13)" mask="url(#mask-12)"></path>
                            </g>
                            <g id="Group-25" transform="translate(61.845387, 17.279601)">
                                <path d="M19.7005885,31.8601097 C15.2337556,31.8601097 11.5996409,28.6210075 11.5996409,24.6393616 C11.5996409,20.6577157 15.2337556,17.4186135 19.7005885,17.4186135 C24.1674214,17.4186135 27.8011372,20.6577157 27.8011372,24.6393616 C27.8011372,28.6210075 24.1674214,31.8601097 19.7005885,31.8601097" id="Fill-19" fill="#212B36"></path>
                                <path d="M2.65715711,4.84460848 C3.91680798,4.84460848 4.93865337,3.82036908 4.93865337,2.55712718 C4.93865337,1.29388529 3.91680798,0.270044888 2.65715711,0.270044888 C1.39750623,0.270044888 0.376458853,1.29388529 0.376458853,2.55712718 C0.376458853,3.82036908 1.39750623,4.84460848 2.65715711,4.84460848" id="Fill-21" fill="#280000"></path>
                                <path d="M36.8634414,4.84432918 C38.1230923,4.84432918 39.1441397,3.82008978 39.1441397,2.55684788 C39.1441397,1.29360599 38.1230923,0.269765586 36.8634414,0.269765586 C35.6037905,0.269765586 34.5819451,1.29360599 34.5819451,2.55684788 C34.5819451,3.82008978 35.6037905,4.84432918 36.8634414,4.84432918" id="Fill-23" fill="#280000"></path>
                            </g>
                        </g>
                    </g>
                </g>
            </g>
        </g>
    </g>
</svg>