<svg width="241" height="54" viewBox="0 0 241 54" fill="none" xmlns="http://www.w3.org/2000/svg">
<path d="M186.594 13.9025C186.594 12.3889 187.833 11.2117 189.466 11.2117C191.212 11.2117 192.395 12.445 192.395 13.9025C192.395 15.36 191.156 16.5933 189.466 16.5933C187.833 16.6494 186.594 15.36 186.594 13.9025ZM191.55 19.7887C191.663 19.7887 191.775 19.9008 191.775 20.0129V37.6714C191.775 37.7835 191.663 37.8957 191.55 37.8957H187.438C187.326 37.8957 187.213 37.7835 187.213 37.6714V20.0129C187.213 19.9008 187.326 19.7887 187.438 19.7887H191.55ZM41.5094 33.5231L55.5898 15.6964C55.6461 15.6403 55.5898 15.5282 55.4772 15.5282H41.9037C41.7911 15.5282 41.6784 15.4161 41.6784 15.304V11.4359C41.6784 11.3238 41.7911 11.2117 41.9037 11.2117H62.0668C62.1794 11.2117 62.2921 11.3238 62.2921 11.4359V15.4161C62.2921 15.4721 62.2921 15.5282 62.2358 15.5843L47.9864 33.411C47.9301 33.467 47.9864 33.5791 48.0991 33.5791H62.0668C62.1794 33.5791 62.2921 33.6913 62.2921 33.8034V37.6714C62.2921 37.7835 62.1794 37.8957 62.0668 37.8957H41.6784C41.5658 37.8957 41.4531 37.7835 41.4531 37.6714V33.6913C41.4531 33.6352 41.5094 33.5791 41.5094 33.5231ZM95.4091 11.4359C95.4091 11.3238 95.5218 11.2117 95.6344 11.2117H104.026C111.742 11.2117 114.727 14.0146 114.727 18.8357C114.727 23.8249 111.123 25.8991 108.701 26.1794C108.645 26.1794 108.588 26.2354 108.645 26.2915L115.46 37.6154C115.516 37.7275 115.46 37.8957 115.291 37.8957H109.996C109.884 37.8957 109.771 37.8396 109.771 37.7275L103.688 26.6839C103.632 26.6278 103.576 26.5718 103.519 26.5718H100.253C100.196 26.5718 100.14 26.6278 100.14 26.6839V37.6714C100.14 37.7835 100.027 37.8957 99.9148 37.8957H95.5781C95.4654 37.8957 95.3528 37.7835 95.3528 37.6714V11.4359H95.4091ZM104.195 22.4795C107.687 22.4795 109.996 21.6947 109.996 18.7796C109.996 16.313 108.363 15.2479 104.308 15.2479H100.309C100.253 15.2479 100.196 15.304 100.196 15.36V22.3674C100.196 22.4234 100.253 22.4795 100.309 22.4795H104.195ZM149.196 25.0582C149.083 25.1703 148.971 25.1703 148.858 25.0582C148.351 24.6097 147.056 23.4325 145.31 23.4325C143.282 23.4325 140.241 24.7779 140.241 28.8702C140.241 33.0746 143.564 34.3079 145.423 34.3079C147.112 34.3079 148.52 33.2428 148.915 32.7943C149.027 32.6822 149.14 32.6822 149.252 32.7943L151.956 35.7094C152.069 35.8215 152.012 35.9336 151.956 36.0457C150.604 37.279 148.464 38.4002 145.592 38.4002C140.973 38.4002 135.735 35.4291 135.735 28.9263C135.735 22.5916 140.692 19.4523 145.592 19.4523C148.295 19.4523 150.379 20.5174 152.012 22.031C152.125 22.1431 152.125 22.2553 152.012 22.3674L149.196 25.0582ZM120.191 30.4398C120.134 30.4398 120.078 30.4959 120.078 30.552C120.303 32.6261 122.556 34.7003 124.922 34.7003C127.4 34.7003 128.582 33.6913 129.653 32.4019C129.709 32.2898 129.878 32.2898 129.934 32.3458L132.807 34.5321C132.919 34.5882 132.919 34.7564 132.863 34.8685C131.004 36.9987 128.639 38.2881 125.316 38.2881C120.078 38.2881 115.46 34.7564 115.46 28.8141C115.46 23.0961 119.796 19.3402 125.034 19.3402C129.99 19.3402 133.82 23.4886 133.82 29.1505V30.1595C133.82 30.2717 133.708 30.3838 133.595 30.3838L120.191 30.4398ZM129.258 27.0203C129.315 27.0203 129.371 26.9642 129.371 26.9081C129.371 24.7218 127.4 22.7037 124.922 22.7037C122.443 22.7037 120.416 24.2173 120.134 26.8521C120.134 26.9081 120.191 26.9642 120.247 26.9642L129.258 27.0203ZM213.403 30.4398C213.346 30.4398 213.29 30.4959 213.29 30.552C213.515 32.6261 215.768 34.7003 218.134 34.7003C220.612 34.7003 221.795 33.6913 222.865 32.4019C222.921 32.2898 223.09 32.2898 223.146 32.3458L226.019 34.5321C226.131 34.5882 226.131 34.7564 226.075 34.8685C224.216 36.9987 221.851 38.2881 218.528 38.2881C213.29 38.2881 208.672 34.7564 208.672 28.8141C208.672 23.0961 213.008 19.3402 218.246 19.3402C223.203 19.3402 227.032 23.4886 227.032 29.1505V30.1595C227.032 30.2717 226.92 30.3838 226.807 30.3838L213.403 30.4398ZM222.47 27.0203C222.527 27.0203 222.583 26.9642 222.583 26.9081C222.583 24.7218 220.612 22.7037 218.134 22.7037C215.655 22.7037 213.628 24.2173 213.346 26.8521C213.346 26.9081 213.403 26.9642 213.459 26.9642L222.47 27.0203ZM154.547 19.7887H158.095C158.208 19.7887 158.32 19.8447 158.32 19.9568L158.827 22.6477H158.883C160.798 18.9478 165.304 19.5084 165.698 19.5644C165.811 19.5644 165.867 19.6766 165.867 19.9008V23.3764C165.867 23.4886 165.755 23.6007 165.642 23.6007C165.642 23.6007 164.797 23.4325 164.065 23.4325C161.136 23.4325 159.052 26.0673 158.827 29.599V37.6154C158.827 37.7275 158.714 37.8396 158.602 37.8396H154.49C154.378 37.8396 154.265 37.7275 154.265 37.6154V20.0129C154.321 19.9008 154.434 19.7887 154.547 19.7887ZM229.68 19.7887H233.228C233.34 19.7887 233.453 19.8447 233.453 19.9568L233.96 22.6477H234.016C235.931 18.9478 240.437 19.5084 240.831 19.5644C240.944 19.5644 241 19.6766 241 19.9008V23.3764C241 23.4886 240.887 23.6007 240.775 23.6007C240.775 23.6007 239.93 23.4325 239.198 23.4325C236.269 23.4325 234.185 26.0673 233.96 29.599V37.6154C233.96 37.7275 233.847 37.8396 233.735 37.8396H229.623C229.511 37.8396 229.398 37.7275 229.398 37.6154V20.0129C229.454 19.9008 229.567 19.7887 229.68 19.7887ZM194.141 23.4325V20.0129C194.141 19.9008 194.253 19.7887 194.366 19.7887H197.802C197.858 19.7887 197.914 19.7326 197.914 19.6766V16.3691C197.914 16.257 197.971 16.2009 198.083 16.1448L202.195 14.6313C202.364 14.5752 202.476 14.6873 202.476 14.8555V19.6766C202.476 19.7326 202.533 19.7887 202.589 19.7887H207.264C207.376 19.7887 207.489 19.9008 207.489 20.0129V23.4325C207.489 23.5446 207.376 23.6567 207.264 23.6567H202.589C202.533 23.6567 202.476 23.7128 202.476 23.7688V31.561C202.476 33.1307 202.758 34.4761 205.011 34.4761C205.856 34.4761 206.7 34.3079 207.264 34.0837C207.376 34.0276 207.489 34.1397 207.489 34.2518V37.5593C207.489 37.6714 207.433 37.7836 207.32 37.8396C206.588 38.176 205.18 38.3441 203.884 38.3441C201.688 38.3441 200.223 37.8957 199.379 37.0548C198.59 36.27 197.971 35.0367 197.971 31.9534V23.7688C197.971 23.7128 197.914 23.6567 197.858 23.6567H194.422C194.253 23.6567 194.141 23.5446 194.141 23.4325ZM175.836 34.42C174.034 34.42 172.513 33.2988 172.457 31.2807V20.0129C172.457 19.9008 172.344 19.7887 172.232 19.7887H168.12C168.007 19.7887 167.895 19.9008 167.895 20.0129V30.7762C167.895 35.2048 171.218 38.3441 175.78 38.3441H175.893C180.455 38.3441 183.778 35.2048 183.778 30.7762V20.0129C183.778 19.9008 183.665 19.7887 183.552 19.7887H179.441C179.328 19.7887 179.215 19.9008 179.215 20.0129V31.2807C179.159 33.2988 177.638 34.42 175.836 34.42ZM78.0058 35.7094C78.0058 35.6533 78.1184 35.5973 78.1747 35.6533C79.3575 37.1669 81.723 38.3441 84.3138 38.3441C88.7068 38.3441 93.0999 34.9246 93.0999 28.8702C93.0999 22.4234 88.7068 19.3963 84.1448 19.3963C81.2724 19.3963 79.0759 20.7977 77.9494 22.4795C77.8931 22.5356 77.8368 22.5356 77.7805 22.4234L77.2736 20.0129C77.2736 19.9008 77.1609 19.8447 77.0483 19.8447H73.7253C73.6127 19.8447 73.5 19.9568 73.5 20.069V46.3045C73.5 46.4166 73.6127 46.5287 73.7253 46.5287H77.8368C77.9494 46.5287 78.0621 46.4166 78.0621 46.3045V35.7094H78.0058ZM83.7506 34.2518C80.7655 34.2518 78.4 32.2337 78.4 28.8141C78.4 25.3946 80.7655 23.3764 83.7506 23.3764C85.4965 23.3764 88.6505 24.5537 88.6505 28.8141C88.6505 33.0746 85.3839 34.2518 83.7506 34.2518ZM64.6576 13.9025C64.6576 12.3889 65.8967 11.2117 67.53 11.2117C69.2759 11.2117 70.4587 12.445 70.4587 13.9025C70.4587 15.36 69.2196 16.5933 67.53 16.5933C65.8967 16.6494 64.6576 15.36 64.6576 13.9025ZM69.6139 19.7887C69.7265 19.7887 69.8392 19.9008 69.8392 20.0129V37.6714C69.8392 37.7835 69.7265 37.8957 69.6139 37.8957H65.5024C65.3898 37.8957 65.2771 37.7835 65.2771 37.6714V20.0129C65.2771 19.9008 65.3898 19.7887 65.5024 19.7887H69.6139Z" fill="#343E45"/>
<path fill-rule="evenodd" clip-rule="evenodd" d="M29.7941 14.8556C29.4561 14.7435 29.0619 14.7995 28.6676 14.9116L27.147 15.4162V1.34541C27.147 0.616647 26.5274 0 25.7952 0H5.80111C5.06893 0 4.4494 0.616647 4.4494 1.34541V15.4722L2.92872 14.9677C2.53447 14.8556 2.14022 14.7995 1.80229 14.9116C1.23907 15.0238 0 15.5844 0 17.7706V29.543C0.168964 30.5521 0.844822 31.7293 2.3655 31.7293H7.43443C7.94133 32.3459 9.1804 33.355 11.5459 33.5232C11.6022 35.261 12.616 36.7185 14.1367 37.3352V40.6426C14.1367 40.6987 14.0804 40.7548 14.024 40.7548C6.92754 40.979 2.42182 43.2213 1.12643 43.9501C0.337929 44.3986 0.168964 45.3516 0.168964 45.9682V48.5469C0.225286 49.4439 0.957465 50.1726 1.91493 50.1726C2.75975 50.1726 3.49193 49.4439 3.54825 48.603C3.60457 47.7621 3.04136 47.0894 2.25286 46.8652C2.19654 46.8652 2.14022 46.8091 2.14022 46.7531V45.8C2.14022 45.5758 2.25286 45.3516 2.47815 45.2395C4.39308 44.1743 9.29304 43.6698 13.0103 43.4456H14.0804C14.1367 43.4456 14.193 43.5016 14.193 43.5577C14.362 46.5288 14.6999 49.0515 14.8125 50.6211H14.6999C14.0804 50.6211 13.5172 51.3499 13.5172 52.3029C13.5172 53.2559 14.0804 53.9846 14.6999 53.9846H16.9528C17.5723 53.9846 18.1355 53.2559 18.1355 52.3029C18.1355 51.3499 17.5723 50.6211 16.9528 50.6211H16.8401C16.8401 50.6211 17.2344 46.5288 17.4597 43.5577C17.4597 43.5016 17.516 43.4456 17.5723 43.4456H18.6424C22.3596 43.6138 27.2596 44.1743 29.1745 45.2395C29.3998 45.3516 29.5125 45.5758 29.5125 45.8V46.7531C29.5125 46.8091 29.4561 46.8652 29.3998 46.8652C28.6113 47.0333 28.0481 47.7621 28.1044 48.603C28.1607 49.4439 28.8929 50.1726 29.7377 50.1726C30.6389 50.1726 31.4274 49.4999 31.4837 48.5469V45.9682C31.4837 45.3516 31.3147 44.4546 30.5262 43.9501C29.2308 43.2213 24.6688 40.979 17.6286 40.6987C17.5723 40.6987 17.516 40.6426 17.516 40.5866V37.2791C19.0367 36.6625 20.0504 35.2049 20.1068 33.4671C22.4159 33.2989 23.655 32.2338 24.2182 31.6732H29.2872C30.8078 31.6732 31.4837 30.496 31.6527 29.4869V17.7146C31.5963 15.5283 30.3573 15.0238 29.7941 14.8556ZM4.4494 27.0764L2.14022 28.8142C2.08389 28.8703 2.02757 28.8142 2.02757 28.7582V17.7146C2.02757 17.2661 2.08389 16.7055 2.30918 16.7616L4.33675 17.4343C4.39307 17.4343 4.4494 17.5464 4.4494 17.6025V27.0764ZM29.5125 28.8142L27.2033 27.0764V17.6585C27.2033 17.6025 27.2596 17.5464 27.3159 17.4904L29.3435 16.8176C29.6251 16.7616 29.6251 17.3222 29.6251 17.7706V28.8142C29.6251 28.8142 29.5688 28.8703 29.5125 28.8142Z" fill="#B2E522"/>
</svg>
