<svg width="84" height="85" viewBox="0 0 84 85" fill="none" xmlns="http://www.w3.org/2000/svg">
<path d="M26.1571 62.557C26.8415 62.7667 27.5644 62.3819 27.7841 61.6892L29.1691 57.1751C29.3116 56.7072 29.1899 56.1971 28.8484 55.85C28.5085 55.5029 28.0068 55.3761 27.5466 55.5195L23.0754 56.917C22.4608 57.1087 22.0764 57.729 22.1729 58.3749C22.2694 59.0209 22.8171 59.4978 23.4599 59.4947L17.9169 65.0894C17.4078 65.6026 17.4048 66.4387 17.911 66.9563C18.4217 67.4619 19.2336 67.4649 19.7488 66.9624L25.2516 61.4069C25.2962 61.9412 25.6539 62.3955 26.1586 62.5554L26.1571 62.557Z" fill="#E600FF"/>
<path d="M70.4108 40.3335L65.9397 41.7311C65.3251 41.9212 64.9406 42.543 65.0356 43.189C65.1321 43.8349 65.6814 44.3118 66.3241 44.3073L60.7812 49.902C60.272 50.4166 60.2691 51.2527 60.7753 51.7689C61.2844 52.279 62.1009 52.2805 62.613 51.7749L68.1159 46.2195C68.1604 46.7537 68.5182 47.208 69.0229 47.368C69.7072 47.5763 70.4286 47.1914 70.6498 46.5002L72.0348 41.9861C72.1773 41.5183 72.0556 41.0081 71.7142 40.661C71.3742 40.3139 70.8725 40.1871 70.4123 40.3305L70.4108 40.3335Z" fill="#E600FF"/>
<path d="M34.4196 23.1009C34.761 23.104 35.0905 22.9681 35.334 22.7236L40.8369 17.1682C40.8814 17.7025 41.2391 18.1567 41.7439 18.3167C42.4282 18.525 43.1496 18.1401 43.3708 17.4489L44.7558 12.9348C44.8983 12.467 44.7766 11.9569 44.4352 11.6097C44.0952 11.2626 43.5935 11.1359 43.1333 11.2792L38.6621 12.6768C38.0476 12.8684 37.6631 13.4887 37.7596 14.1347C37.8561 14.7806 38.4038 15.2575 39.0466 15.2545C39.0466 15.2545 33.5111 20.8416 33.5037 20.8492C33.1459 21.2295 33.042 21.7894 33.2409 22.2769C33.4398 22.7644 33.9015 23.0859 34.4196 23.0994V23.1009Z" fill="#E600FF"/>
<path d="M82.7425 0.393238C82.4471 0.0883753 82.024 -0.0519821 81.6084 0.017442L63.9998 3.12643C63.5263 3.2185 63.1403 3.56713 62.9948 4.03498C62.8508 4.50284 62.9696 5.01296 63.3051 5.36461L65.7143 7.79898L45.8301 28.4572C45.3284 28.9779 45.3373 29.814 45.8494 30.3241C46.3615 30.8342 47.1839 30.8251 47.6857 30.3029L68.4754 8.70753C68.9742 8.18987 68.9683 7.35829 68.4621 6.84817L66.9197 5.29066L80.2308 2.93929L77.9032 16.3864L76.3415 14.8093C75.8264 14.3007 75.0055 14.3082 74.4964 14.8229L49.0202 41.3308C48.7797 41.5813 48.6461 41.9179 48.6506 42.268C48.655 42.6182 48.7946 42.9532 49.041 43.1977C49.5576 43.6988 50.3725 43.6897 50.8787 43.1766L75.4405 17.621C75.4405 17.621 77.8334 20.0387 77.8364 20.0418C78.1823 20.3798 78.6825 20.4991 79.1412 20.3512C79.5984 20.2033 79.9413 19.8124 80.0319 19.3339C80.0319 19.3339 83.1077 1.5659 83.1106 1.54628C83.1819 1.1237 83.0438 0.692063 82.7425 0.391728V0.393238Z" fill="#E600FF"/>
<path d="M24.2441 43.8889C24.587 44.2164 25.0754 44.3341 25.5267 44.1968C25.978 44.0594 26.3223 43.6897 26.4337 43.2263C26.4337 43.2263 29.842 26.7079 29.8479 26.6807C29.9296 26.2461 29.793 25.7994 29.4857 25.4854C29.1784 25.173 28.7376 25.0342 28.31 25.1157C28.31 25.1157 12.0508 28.5733 12.0122 28.5824C11.5535 28.6925 11.1869 29.0442 11.0533 29.5045C10.9182 29.9633 11.0369 30.4613 11.3606 30.81L13.3616 32.8414L1.73092 43.4346C1.47411 43.6685 1.31973 43.996 1.30043 44.3462C1.28113 44.6963 1.39989 45.0389 1.62998 45.3C1.86007 45.5611 2.18219 45.718 2.52659 45.7362C2.87098 45.7558 3.20795 45.635 3.46476 45.4011C3.46476 45.4011 16.0945 33.8978 16.1167 33.8767C16.378 33.6322 16.5294 33.2896 16.5398 32.9289C16.5487 32.5682 16.4151 32.2181 16.1687 31.9585L14.8965 30.6666L26.8968 28.1145L24.3837 40.2984L23.107 39.002C22.6038 38.4904 21.7888 38.4874 21.2797 38.993L0.390459 59.8006C0.14404 60.0451 0.00301735 60.3801 4.84442e-05 60.7303C-0.00292046 61.0804 0.13068 61.4169 0.371161 61.6675C0.878844 62.1731 1.68935 62.1821 2.20743 61.6871L22.1792 41.7941C22.1792 41.7941 24.2382 43.8843 24.2441 43.8889Z" fill="#E600FF"/>
<path d="M56.8848 54.1759C56.8848 54.1759 40.6345 57.6411 40.6093 57.6471C40.1476 57.7527 39.778 58.1044 39.6429 58.5662C39.5078 59.0265 39.6281 59.5261 39.9561 59.8732L42.0032 61.9559L21.8161 82.261C21.5712 82.507 21.4331 82.842 21.4317 83.1921C21.4302 83.5423 21.5653 83.8788 21.8072 84.1279C22.3149 84.638 23.1299 84.6425 23.645 84.1384C23.645 84.1384 44.7197 62.9399 44.7598 62.9007C45.2571 62.38 45.2586 61.553 44.7657 61.0293L43.4921 59.7313L55.4746 57.1747L52.9644 69.3752L51.6937 68.0818C51.1726 67.5687 50.3399 67.5793 49.8322 68.1075L37.8482 80.9721C37.3554 81.5018 37.3776 82.3379 37.8987 82.839C38.4197 83.34 39.2421 83.3174 39.7349 82.7877L50.8 70.9086C50.8 70.9086 52.8204 72.9657 52.8248 72.9702C53.1663 73.3037 53.6576 73.426 54.1104 73.2886C54.5631 73.1513 54.909 72.777 55.0144 72.3076C55.0144 72.3076 58.4153 55.7772 58.4242 55.7379C58.5044 55.3033 58.3678 54.8565 58.0605 54.5441C57.7532 54.2317 57.3123 54.0944 56.8863 54.1759H56.8848Z" fill="#E600FF"/>
<path d="M41.9459 47.9245C41.7025 48.172 41.5659 48.5086 41.5659 48.8587C41.5659 49.2088 41.7025 49.5439 41.9459 49.7914C42.461 50.2879 43.2686 50.2879 43.7837 49.7914L46.3815 47.1503C46.8862 46.6341 46.8847 45.7995 46.3785 45.2849C45.8723 44.7702 45.0514 44.7687 44.5437 45.2819L41.9459 47.923V47.9245Z" fill="#E600FF"/>
<path d="M35.3395 41.2089L37.9373 38.5678C38.442 38.0516 38.4405 37.217 37.9343 36.7024C37.4281 36.1877 36.6072 36.1862 36.0995 36.6993L33.5017 39.3405C32.9955 39.8566 32.9955 40.6927 33.5017 41.2074C34.0079 41.7235 34.8303 41.7235 35.338 41.2074L35.3395 41.2089Z" fill="#E600FF"/>
<path d="M38.6991 42.6422L34.8024 46.6039C34.4491 46.9857 34.3481 47.5442 34.5471 48.0286C34.746 48.5131 35.2047 48.8345 35.7213 48.8481C36.0642 48.8511 36.3952 48.7153 36.6401 48.4723L40.5368 44.5106C41.0415 43.9945 41.0401 43.1599 40.5339 42.6452C40.0277 42.1306 39.2068 42.1291 38.6991 42.6422Z" fill="#E600FF"/>
<path d="M52.6074 13.1916C52.9503 13.1961 53.2813 13.0618 53.5263 12.8173L56.124 10.1762C56.6288 9.66 56.6273 8.8254 56.1211 8.31076C55.6149 7.79611 54.794 7.7946 54.2863 8.30774L51.6885 10.9489C51.3307 11.3292 51.2298 11.8891 51.4287 12.3751C51.6276 12.8595 52.0908 13.181 52.6074 13.1916Z" fill="#E600FF"/>
<path d="M71.8197 29.4367L69.2219 32.0778C68.7157 32.594 68.7157 33.4301 69.2219 33.9447C69.7281 34.4609 70.5505 34.4609 71.0582 33.9447L73.656 31.3036C74.1607 30.7874 74.1592 29.9528 73.653 29.4382C73.1468 28.9236 72.3259 28.922 71.8182 29.4352L71.8197 29.4367Z" fill="#E600FF"/>
</svg>
