<svg width="9" height="10" viewBox="0 0 9 10" fill="none" xmlns="http://www.w3.org/2000/svg">
    <path d="M0.188058 0.212646C0.308507 0.0820646 0.47185 0.00870795 0.642166 0.00870795C0.812482 0.00870795 0.975825 0.0820646 1.09627 0.212646L4.49599 3.89944L7.8957 0.212646C7.95495 0.146119 8.02582 0.0930551 8.10418 0.05655C8.18255 0.0200449 8.26683 0.000829981 8.35212 2.62991e-05C8.4374 -0.000777383 8.52198 0.0168463 8.60092 0.0518691C8.67985 0.0868919 8.75157 0.138612 8.81187 0.204012C8.87218 0.269413 8.91987 0.347183 8.95217 0.432785C8.98447 0.518388 9.00072 0.610108 8.99998 0.702595C8.99924 0.795081 8.98152 0.886481 8.94785 0.971462C8.91419 1.05644 8.86526 1.1333 8.80391 1.19756L5.4042 4.88435L8.80391 8.57115C8.92091 8.70252 8.98565 8.87847 8.98419 9.0611C8.98273 9.24373 8.91518 9.41843 8.79609 9.54758C8.677 9.67672 8.5159 9.74998 8.34749 9.75156C8.17908 9.75315 8.01684 9.68294 7.8957 9.55606L4.49599 5.86926L1.09627 9.55606C0.975135 9.68294 0.812887 9.75315 0.644478 9.75156C0.476068 9.74998 0.31497 9.67672 0.195882 9.54758C0.0767936 9.41843 0.00924333 9.24373 0.0077799 9.0611C0.00631646 8.87847 0.071057 8.70252 0.188058 8.57115L3.58777 4.88435L0.188058 1.19756C0.0676444 1.06694 0 0.889799 0 0.705101C0 0.520403 0.0676444 0.343267 0.188058 0.212646Z" fill="white"/>
</svg>
