<svg width="22" height="16" viewBox="0 0 22 16" fill="none" xmlns="http://www.w3.org/2000/svg">
<path d="M0.28125 9.87337C0.28125 5.7099 3.12441 1.18956 8.40573 0L9.79849 2.91401C7.41959 3.74671 5.96838 4.93627 5.62019 6.54176C8.1736 6.60165 9.97218 8.62391 10.0306 11.0621C10.1467 13.6791 8.11597 15.8794 5.4465 15.9984C3.00916 16.0574 1.03607 14.5118 0.455751 12.0728C0.339687 11.419 0.282062 10.6453 0.282062 9.87254L0.28125 9.87337ZM11.4226 9.87337C11.4226 5.7099 14.3818 1.18956 19.5471 0L20.9398 2.91401C18.677 3.74671 17.3418 5.05522 16.936 6.54176C19.3734 6.60165 21.1719 8.62391 21.2304 11.0621C21.4041 13.6791 19.2573 15.8794 16.5878 15.9984C14.2089 16.0574 12.2358 14.5118 11.6555 12.0728C11.481 11.419 11.4234 10.6453 11.4234 9.87254L11.4226 9.87337Z" fill="#808EE0"/>
</svg>
