<svg width="97" height="16" viewBox="0 0 97 16" fill="none" xmlns="http://www.w3.org/2000/svg">
<path d="M8.35717 0L10.2467 5.84548H16.3589L11.4133 9.45687L13.3028 15.3023L8.35717 11.6893L3.41158 15.3023L5.30106 9.45687L0.355469 5.84548H6.4677L8.35717 0Z" fill="#FFE754"/>
<path d="M28.3412 1.52588e-05L30.2307 5.8455H36.3429L31.3974 9.45688L33.2868 15.3024L28.3412 11.6893L23.3957 15.3024L25.2851 9.45688L20.3395 5.8455H26.4518L28.3412 1.52588e-05Z" fill="#FFE754"/>
<path d="M48.3253 1.52588e-05L50.2131 5.8455H56.327L51.3814 9.45688L53.2709 15.3024L48.3253 11.6893L43.3797 15.3024L45.2675 9.45688L40.3219 5.8455H46.4358L48.3253 1.52588e-05Z" fill="#FFE754"/>
<path d="M68.3077 1.52588e-05L70.1972 5.8455H76.3111L71.3639 9.45688L73.2533 15.3024L68.3077 11.6893L63.3621 15.3024L65.2516 9.45688L60.306 5.8455H66.4183L68.3077 1.52588e-05Z" fill="#FFE754"/>
<path d="M88.292 1.52588e-05L90.1815 5.8455H96.2938L91.3482 9.45688L93.2377 15.3024L88.292 11.6893L83.3464 15.3024L85.2359 9.45688L80.2903 5.8455H86.4026L88.292 1.52588e-05Z" fill="#FFE754"/>
</svg>
