<svg width="80" height="81" viewBox="0 0 80 81" fill="none" xmlns="http://www.w3.org/2000/svg">
<path d="M58.6593 26.7817H20.4073C19.7045 26.7817 19.1265 27.3468 19.1265 28.0625V53.5639C19.1265 54.2667 19.6916 54.8447 20.4073 54.8447H58.6593C59.362 54.8447 59.9401 54.2796 59.9401 53.5639V28.0625C59.9401 27.3598 59.3635 26.7817 58.6607 26.7817H58.6593ZM57.3784 52.2831H21.6866V29.329H57.3914V52.2831H57.3784Z" fill="#E600FF"/>
<path d="M31.877 39.5328H47.1878C47.8906 39.5328 48.4686 38.9677 48.4686 38.252C48.4686 37.5363 47.9035 36.9712 47.1878 36.9712H31.877C31.1742 36.9712 30.5962 37.5363 30.5962 38.252C30.6091 38.9677 31.1742 39.5328 31.877 39.5328Z" fill="#E600FF"/>
<path d="M53.5644 43.3608C52.8616 43.3608 52.2836 43.9259 52.2836 44.6416V47.1889H49.7364C49.0336 47.1889 48.4556 47.754 48.4556 48.4697C48.4556 49.1854 49.0207 49.7505 49.7364 49.7505H53.5644C54.2672 49.7505 54.8452 49.1854 54.8452 48.4697V44.6416C54.8323 43.9259 54.2687 43.3608 53.5644 43.3608Z" fill="#E600FF"/>
<path d="M25.5039 49.7359H29.332C30.0348 49.7359 30.6128 49.1708 30.6128 48.4551C30.6128 47.7394 30.0477 47.1743 29.332 47.1743H26.7848V44.627C26.7848 43.9242 26.2196 43.3462 25.5039 43.3462C24.7882 43.3462 24.2231 43.9113 24.2231 44.627V48.4551C24.2361 49.1708 24.7997 49.7359 25.5039 49.7359Z" fill="#E600FF"/>
<path d="M49.7373 34.4366H52.2846V36.9839C52.2846 37.6867 52.8497 38.2647 53.5654 38.2647C54.2811 38.2647 54.8462 37.6996 54.8462 36.9839V33.1558C54.8462 32.453 54.2811 31.875 53.5654 31.875H49.7373C49.0346 31.875 48.4565 32.4401 48.4565 33.1558C48.4565 33.8715 49.0346 34.4366 49.7373 34.4366Z" fill="#E600FF"/>
<path d="M25.5039 38.2647C26.2067 38.2647 26.7848 37.6996 26.7848 36.9839V34.4366H29.332C30.0348 34.4366 30.6128 33.8715 30.6128 33.1558C30.6128 32.4401 30.0477 31.875 29.332 31.875H25.5039C24.8012 31.875 24.2231 32.4401 24.2231 33.1558V36.9839C24.2361 37.6867 24.7997 38.2647 25.5039 38.2647Z" fill="#E600FF"/>
<path d="M77.7478 35.4034C77.6847 35.1782 77.5599 34.9888 77.4093 34.8268C78.4262 33.8228 79.0659 32.4545 79.0659 30.937C79.0659 30.6487 79.0401 30.3719 79.0028 30.0836L76.3422 13.2037C75.6021 8.48497 71.9505 4.68272 67.2561 3.74041L48.7067 0.0242156C48.3309 -0.0503664 47.9408 0.0500325 47.6525 0.288121C47.3513 0.539119 47.1892 0.890515 47.1892 1.2792C47.1892 5.49596 43.7628 8.93534 39.5331 8.93534C35.3035 8.93534 31.877 5.50886 31.877 1.2792C31.877 0.903423 31.7006 0.539119 31.4123 0.288121C31.124 0.0500325 30.7339 -0.0503664 30.3581 0.0242156L11.8244 3.73898C7.14299 4.67986 3.49134 8.48211 2.73834 13.2023L0.0763391 30.0808C0.039048 30.3576 0.0132312 30.6459 0.0132312 30.9342C0.0132312 32.4531 0.652916 33.8328 1.66981 34.8239C1.50631 34.9874 1.38152 35.1624 1.31842 35.4019L0.039048 40.4979C-0.0484424 40.8364 0.0132312 41.2007 0.202555 41.5019C0.390444 41.8031 0.691641 42.0039 1.04304 42.067L14.0203 44.4263V71.4207C14.0203 73.0773 15.0874 74.4829 16.5676 75.0093V79.0754C16.5676 79.7782 17.1327 80.3562 17.8484 80.3562H61.2078C61.9106 80.3562 62.4886 79.7911 62.4886 79.0754V75.0093C63.9688 74.4815 65.0359 73.0759 65.0359 71.4207V44.4263L78.0131 42.067C78.3645 42.0039 78.6657 41.8031 78.8536 41.5019C79.0415 41.2007 79.1046 40.8493 79.0171 40.4979L77.7478 35.4034ZM49.6232 2.811L52.3469 3.35029C52.2967 3.4636 52.2465 3.57547 52.2336 3.71459C51.9955 6.35078 50.9786 8.72163 49.4224 10.6292L46.9999 8.20673C48.3553 6.75094 49.3091 4.88065 49.6232 2.811ZM31.451 12.4364L34.0356 9.85183C35.2905 10.655 36.7334 11.1943 38.2767 11.3836C38.2767 11.4095 38.2638 11.4467 38.2638 11.4711V15.2361C35.6792 14.998 33.3442 13.9811 31.4496 12.4364H31.451ZM40.7881 11.3951C42.3314 11.2072 43.7743 10.6679 45.0292 9.86331L47.6138 12.4479C45.7191 13.9911 43.3841 15.008 40.811 15.259V11.4941C40.811 11.4439 40.7867 11.4195 40.7867 11.3937L40.7881 11.3951ZM32.0663 8.21964L29.6438 10.6421C28.0876 8.73454 27.0593 6.36226 26.8326 3.7275C26.8197 3.60128 26.7695 3.4765 26.7193 3.3632L29.443 2.82391C29.7571 4.88209 30.7109 6.75238 32.0663 8.21964ZM2.85022 39.7951L3.76672 36.1047C4.00481 36.1793 4.24289 36.2553 4.49389 36.3055L14.0318 38.0367V41.8274L2.85022 39.7951ZM19.1277 77.7832V75.2359H59.927V77.7832H19.1277ZM62.4872 71.4078C62.4872 72.1106 61.9106 72.6886 61.2064 72.6886H17.8584C17.1556 72.6886 16.5776 72.1106 16.5776 71.4078V20.4052C16.5776 19.7024 16.0125 19.1244 15.2968 19.1244C14.5811 19.1244 14.016 19.6895 14.016 20.4052V35.4521L4.92991 33.7955C3.53723 33.5445 2.53324 32.3398 2.53324 30.9213C2.53324 30.7707 2.54615 30.6201 2.57053 30.4695L5.23111 13.5895C5.80768 9.91207 8.65758 6.96321 12.2963 6.22313L24.2811 3.82647C24.2811 3.86376 24.2682 3.88957 24.2682 3.92686C25.0083 11.8713 31.56 17.8565 39.5288 17.8565C47.4976 17.8565 54.0494 11.8699 54.7651 3.93834C54.7651 3.90105 54.7522 3.86376 54.7522 3.83794L66.7369 6.2346C70.3886 6.96178 73.2255 9.92498 73.8021 13.601L76.4627 30.4809C76.4885 30.6315 76.5 30.7821 76.5 30.9456C76.5 32.3512 75.496 33.556 74.1033 33.8199L65.0172 35.4765V20.4038C65.0172 19.701 64.4521 19.123 63.7364 19.123C63.0207 19.123 62.4556 19.6881 62.4556 20.4038V71.4064H62.4814L62.4872 71.4078ZM65.0344 41.8274V38.0367L74.5723 36.3055C74.8233 36.2553 75.0614 36.1793 75.2995 36.1047L76.216 39.7951L65.0344 41.8274Z" fill="#E600FF"/>
<path d="M48.4688 43.3609C48.4688 44.068 47.8951 44.6402 47.188 44.6402C46.4809 44.6402 45.9072 44.0665 45.9072 43.3609C45.9072 42.6552 46.4809 42.0801 47.188 42.0801C47.8951 42.0801 48.4688 42.6538 48.4688 43.3609Z" fill="#E600FF"/>
<path d="M43.3609 43.3609C43.3609 44.068 42.7872 44.6402 42.0801 44.6402C41.373 44.6402 40.7993 44.0665 40.7993 43.3609C40.7993 42.6552 41.373 42.0801 42.0801 42.0801C42.7872 42.0801 43.3609 42.6538 43.3609 43.3609Z" fill="#E600FF"/>
<path d="M38.2657 43.3609C38.2657 44.068 37.692 44.6402 36.9849 44.6402C36.2778 44.6402 35.7041 44.0665 35.7041 43.3609C35.7041 42.6552 36.2778 42.0801 36.9849 42.0801C37.692 42.0801 38.2657 42.6538 38.2657 43.3609Z" fill="#E600FF"/>
<path d="M33.1578 43.3609C33.1578 44.068 32.5841 44.6402 31.877 44.6402C31.1699 44.6402 30.5962 44.0665 30.5962 43.3609C30.5962 42.6552 31.1699 42.0801 31.877 42.0801C32.5841 42.0801 33.1578 42.6538 33.1578 43.3609Z" fill="#E600FF"/>
</svg>
