<svg width="67" height="68" viewBox="0 0 67 68" fill="none" xmlns="http://www.w3.org/2000/svg">
<path fill-rule="evenodd" clip-rule="evenodd" d="M50.6336 26.2435C51.0711 25.8534 51.4746 25.4537 51.8673 25.0165L61.1255 34.2695L59.8955 35.5001L50.6324 26.2435H50.6336ZM29.3997 15.0232C29.3997 8.81465 34.4252 3.79444 40.636 3.79444C46.8468 3.79444 51.871 8.82431 51.871 15.0232C51.871 21.2221 46.8407 26.2532 40.636 26.2532C34.4312 26.2532 29.3997 21.2305 29.3997 15.0232ZM25.637 5.54795C26.4297 4.29803 27.6525 2.85368 28.7509 1.85978C22.1015 1.2777 15.1633 3.06744 10.1113 7.24712C3.91135 12.3724 0.541329 20.9781 3.92947 33.0402L0 44.8305L7.03245 44.8981C6.97445 48.7553 6.82341 52.5848 6.82341 56.4493H15.7312L15.504 67.6297L42.7977 58.4842L41.999 47.1987C45.1297 42.1628 47.2395 37.5326 48.5022 33.3143L46.8323 31.6441C46.1918 31.8832 45.5369 32.0849 44.8723 32.2479C43.3704 37.2524 40.9127 41.8415 38.1251 46.2374L38.8041 55.8273L19.4021 62.3293L19.6002 52.65H10.6441C10.707 48.8133 10.8532 44.9923 10.8532 41.1507L5.2405 41.0976L7.90244 33.1054C5.48338 24.9223 5.42538 16.0545 12.5376 10.1708C16.1142 7.21451 20.846 5.67597 25.6407 5.54916L25.637 5.54795ZM40.636 0C32.3324 0 25.5984 6.72058 25.5984 15.0232C25.5984 23.3258 32.3336 30.0536 40.636 30.0536C42.9704 30.0536 45.3061 29.5114 47.4388 28.4281L59.8955 40.8742L66.5026 34.2708L54.052 21.8259C55.1347 19.6944 55.676 17.3588 55.676 15.0244C55.6748 6.71817 48.942 0.00120765 40.636 0.00120765V0Z" fill="#E600FF"/>
</svg>
